<?xml version="1.0" encoding="UTF-8"?>
<svg id="Layer_1" data-name="Layer 1" xmlns="http://www.w3.org/2000/svg" viewBox="0 0 881.65 902">
  <defs>
    <style>
      .cls-1, .cls-2, .cls-3, .cls-4 {
        fill: #fff;
      }

      .cls-2 {
        opacity: .5;
      }

      .cls-3 {
        opacity: .75;
      }

      .cls-4 {
        opacity: .25;
      }
    </style>
  </defs>
  <path class="cls-1" d="m763.34,802.69c-44.78,7.34-93.92,4.23-146.06-9.26-100.15-25.91-203.42-88.29-290.79-175.66-87.37-87.37-149.76-190.64-175.66-290.79-13.49-52.14-16.6-101.28-9.26-146.06.46-2.78.95-5.54,1.49-8.28C-.7,348.09,9.3,607.4,173.07,771.18c163.78,163.78,423.1,173.78,598.55,30.01-2.75.54-5.51,1.05-8.29,1.5Z"/>
  <path class="cls-1" d="m195.42,79.84c.21-.21.43-.42.64-.63C158.86,41.16,108.62,16.52,56.58,6.26,42.79,3.42,28.88,1.41,14.94.06,6.93-.71,0,5.61,0,13.66v25.11c0,7.69,6.35,13.85,14.04,13.63,28.41-.81,56.9,1.48,84.32,8.86,28.71,7.63,55.58,21.01,78.95,39.48,5.51-7.36,11.54-14.33,18.1-20.89Z"/>
  <path class="cls-4" d="m705.5,238.75C538.54,71.78,326.43,13.2,231.73,107.9c-94.7,94.7-36.11,306.81,130.85,473.77,166.96,166.96,379.08,225.55,473.77,130.85,94.7-94.69,36.11-306.81-130.85-473.77Zm61.9,404.82c-73.1,73.1-236.83,27.87-365.71-101.01-128.88-128.88-174.1-292.62-101.01-365.71,73.1-73.1,236.83-27.87,365.71,101.01,128.88,128.88,174.1,292.62,101.01,365.71Z"/>
  <path class="cls-2" d="m300.68,176.85c-73.1,73.1-27.87,236.83,101.01,365.71,128.88,128.88,292.62,174.1,365.71,101.01,73.1-73.1,27.87-236.83-101.01-365.71-128.88-128.88-292.62-174.1-365.71-101.01Zm399.62,399.62c-52.08,52.08-168.73,19.86-260.55-71.96-91.82-91.82-124.04-208.48-71.96-260.55,52.08-52.08,168.73-19.86,260.55,71.96,91.82,91.82,124.04,208.48,71.96,260.55Z"/>
  <path class="cls-3" d="m367.78,243.95c-52.08,52.08-19.86,168.73,71.96,260.55,91.82,91.82,208.48,124.04,260.55,71.96,52.08-52.08,19.86-168.73-71.96-260.55-91.82-91.82-208.48-124.04-260.55-71.96Zm301.6,245.69c-.04.09-.08.19-.12.29-3.05,7.41-7.12,13.9-12.2,19.18-34.76,34.76-112.61,13.26-173.9-48.02-61.28-61.28-82.79-139.13-48.02-173.9,5.28-5.08,11.77-9.15,19.18-12.2.1-.04.2-.08.29-.11,41.87-17,113.02-1.43,164.61,50.16,51.58,51.58,67.15,122.73,50.16,164.61Z"/>
  <path class="cls-1" d="m454.62,274.87c-.09.04-.19.08-.29.11-7.41,3.05-13.9,7.12-19.18,12.2-2.18,43.49,41.87,104.17,79.81,142.11,37.94,37.94,98.61,82,142.11,79.81,5.08-5.28,9.15-11.77,12.2-19.18.04-.1.08-.2.12-.29,17-41.87,1.43-113.02-50.16-164.61-51.58-51.58-122.73-67.15-164.61-50.16Z"/>
</svg>