<?xml version="1.0" encoding="UTF-8"?>
<svg id="Layer_1" data-name="Layer 1" xmlns="http://www.w3.org/2000/svg" viewBox="0 0 673.93 673.93">
  <defs>
    <style>
      .cls-1 {
        opacity: .5;
      }

      .cls-1, .cls-2, .cls-3 {
        fill: #fff;
      }

      .cls-2 {
        opacity: .75;
      }

      .cls-3 {
        opacity: .25;
      }
    </style>
  </defs>
  <path class="cls-3" d="m503.18,170.76C341.33,8.91,135.71-47.88,43.91,43.91-47.88,135.71,8.91,341.33,170.76,503.18c161.85,161.85,367.47,218.64,459.27,126.84,91.8-91.8,35.01-297.42-126.84-459.27Zm60.01,392.43c-70.86,70.86-229.58,27.02-354.52-97.91C83.73,340.33,39.89,181.61,110.75,110.75c70.86-70.86,229.58-27.02,354.52,97.91,124.94,124.94,168.77,283.66,97.91,354.52Z"/>
  <path class="cls-1" d="m110.75,110.75c-70.86,70.86-27.02,229.58,97.91,354.52,124.94,124.94,283.66,168.77,354.52,97.91,70.86-70.86,27.02-229.58-97.91-354.52C340.33,83.73,181.61,39.89,110.75,110.75Zm387.38,387.38c-50.48,50.48-163.57,19.25-252.58-69.76-89.01-89.01-120.24-202.09-69.76-252.58,50.48-50.48,163.57-19.25,252.58,69.76,89.01,89.01,120.24,202.09,69.76,252.58Z"/>
  <path class="cls-2" d="m175.8,175.8c-50.48,50.48-19.25,163.57,69.76,252.58,89.01,89.01,202.09,120.24,252.58,69.76,50.48-50.48,19.25-163.57-69.76-252.58-89.01-89.01-202.09-120.24-252.58-69.76Zm292.36,238.16c-.04.09-.07.19-.11.28-2.96,7.19-6.9,13.47-11.83,18.59-33.7,33.7-109.17,12.85-168.57-46.55-59.41-59.41-80.25-134.87-46.55-168.57,5.12-4.92,11.41-8.87,18.59-11.83.1-.04.2-.07.28-.11,40.59-16.48,109.56-1.39,159.57,48.62,50.01,50.01,65.1,118.98,48.62,159.57Z"/>
</svg>