<?xml version="1.0" encoding="UTF-8"?>
<svg id="Layer_1" data-name="Layer 1" xmlns="http://www.w3.org/2000/svg" viewBox="0 0 673.87 673.87">
  <defs>
    <style>
      .cls-1 {
        fill: #ffb979;
      }

      .cls-2 {
        fill: #f7862c;
      }

      .cls-3 {
        fill: #fc9f41;
      }
    </style>
  </defs>
  <path class="cls-1" d="m503.13,170.74C341.29,8.91,135.69-47.88,43.91,43.91-47.88,135.69,8.91,341.29,170.74,503.13c161.83,161.83,367.43,218.62,459.22,126.83,91.79-91.79,35-297.39-126.83-459.22Zm60,392.39c-70.85,70.85-229.56,27.02-354.48-97.9C83.72,340.3,39.89,181.59,110.74,110.74c70.85-70.85,229.56-27.02,354.48,97.9,124.92,124.92,168.76,283.63,97.9,354.48Z"/>
  <path class="cls-3" d="m110.74,110.74c-70.85,70.85-27.02,229.56,97.9,354.48,124.92,124.92,283.63,168.76,354.48,97.9,70.85-70.85,27.02-229.56-97.9-354.48C340.3,83.72,181.59,39.89,110.74,110.74Zm387.35,387.35c-50.48,50.48-163.55,19.25-252.55-69.75-89-89-120.23-202.07-69.75-252.55,50.48-50.48,163.55-19.25,252.55,69.75,89,89,120.23,202.07,69.75,252.55Z"/>
  <path class="cls-2" d="m175.78,175.78c-50.48,50.48-19.25,163.55,69.75,252.55,89,89,202.07,120.23,252.55,69.75,50.48-50.48,19.25-163.55-69.75-252.55-89-89-202.07-120.23-252.55-69.75Zm292.33,238.14c-.04.09-.07.19-.11.28-2.96,7.19-6.9,13.47-11.83,18.59-33.7,33.7-109.15,12.85-168.56-46.55-59.4-59.4-80.25-134.86-46.55-168.56,5.12-4.92,11.41-8.87,18.59-11.83.1-.04.2-.07.28-.11,40.59-16.48,109.55-1.39,159.55,48.62,50,50,65.09,118.96,48.62,159.55Z"/>
</svg>