<?xml version="1.0" encoding="UTF-8"?>
<svg id="Layer_2" data-name="Layer 2" xmlns="http://www.w3.org/2000/svg" viewBox="0 0 32.36 32.36">
  <defs>
    <style>
      .cls-1 {
        fill: #471b52;
      }
    </style>
  </defs>
  <g id="sentiment">
    <g id="sentiment-2" data-name="sentiment">
      <path class="cls-1" d="m16.18,32.36C7.26,32.36,0,25.1,0,16.18S7.26,0,16.18,0s16.18,7.26,16.18,16.18-7.26,16.18-16.18,16.18Zm0-29.36c-7.27,0-13.18,5.91-13.18,13.18s5.91,13.18,13.18,13.18,13.18-5.91,13.18-13.18S23.45,3,16.18,3Z"/>
      <path class="cls-1" d="m16.19,24.64c-3.37,0-6.42-1.95-7.78-4.96-.34-.75,0-1.64.75-1.98.75-.34,1.64,0,1.98.75.87,1.94,2.85,3.2,5.04,3.2s4.17-1.25,5.04-3.2c.34-.76,1.23-1.09,1.98-.75.76.34,1.09,1.23.75,1.98-1.36,3.02-4.41,4.96-7.78,4.96Z"/>
      <circle class="cls-1" cx="11.22" cy="12.68" r="1.96"/>
      <circle class="cls-1" cx="21.15" cy="12.68" r="1.96"/>
    </g>
  </g>
</svg>