<?xml version="1.0" encoding="UTF-8"?>
<svg id="Layer_2" data-name="Layer 2" xmlns="http://www.w3.org/2000/svg" viewBox="0 0 32.45 30.1">
  <defs>
    <style>
      .cls-1 {
        fill: #fff;
      }
    </style>
  </defs>
  <g id="the_what" data-name="the what">
    <g id="the_what-2" data-name="the what">
      <path class="cls-1" d="m16.23,30.07c-2.4,0-4.7-.47-6.83-1.39-.76-.33-1.11-1.21-.78-1.97.33-.76,1.21-1.11,1.97-.78,1.75.76,3.65,1.15,5.63,1.15,7.29,0,13.22-5.4,13.22-12.04S23.52,3,16.23,3,3,8.4,3,15.03c0,2.97,1.19,5.81,3.36,8.01.58.59.58,1.54-.01,2.12-.59.58-1.54.58-2.12-.01C1.5,22.39,0,18.79,0,15.03,0,6.74,7.28,0,16.23,0s16.22,6.74,16.22,15.03-7.28,15.04-16.22,15.04Z"/>
      <path class="cls-1" d="m4.28,30.1c-.39,0-.77-.15-1.06-.44-.37-.36-.52-.89-.41-1.39l1.01-4.51c.18-.81.98-1.32,1.79-1.14.81.18,1.32.98,1.14,1.79l-.49,2.19,3.41-.77c.81-.18,1.61.32,1.79,1.13.18.81-.32,1.61-1.13,1.79l-5.72,1.3c-.11.02-.22.04-.33.04Z"/>
      <path class="cls-1" d="m22.23,14.77h-12c-.83,0-1.5-.67-1.5-1.5s.67-1.5,1.5-1.5h12c.83,0,1.5.67,1.5,1.5s-.67,1.5-1.5,1.5Z"/>
      <path class="cls-1" d="m15.04,19.92h-4.81c-.83,0-1.5-.67-1.5-1.5s.67-1.5,1.5-1.5h4.81c.83,0,1.5.67,1.5,1.5s-.67,1.5-1.5,1.5Z"/>
    </g>
  </g>
</svg>