<?xml version="1.0" encoding="UTF-8"?>
<svg id="Layer_1" data-name="Layer 1" xmlns="http://www.w3.org/2000/svg" xmlns:xlink="http://www.w3.org/1999/xlink" viewBox="0 0 518.63 606.68">
  <defs>
    <style>
      .cls-1 {
        fill: #fff;
      }

      .cls-2 {
        opacity: .7;
      }

      .cls-2, .cls-3, .cls-4 {
        fill: none;
      }

      .cls-5 {
        font-family: Aleo-Medium, Aleo;
        font-size: 25.51px;
        font-variation-settings: 'wght' 500;
        font-weight: 500;
      }

      .cls-5, .cls-6 {
        fill: #471b52;
      }

      .cls-7 {
        fill: #ffb979;
        opacity: .9;
      }

      .cls-4 {
        clip-path: url(#clippath);
      }

      .cls-8 {
        fill: url(#linear-gradient);
      }

      .cls-6 {
        font-family: AlanSans-Light, 'Alan Sans';
        font-size: 17.01px;
        font-variation-settings: 'wght' 300;
        font-weight: 300;
      }
    </style>
    <linearGradient id="linear-gradient" x1="174.48" y1="31.31" x2="396.77" y2="642.04" gradientUnits="userSpaceOnUse">
      <stop offset="0" stop-color="#ffb979" stop-opacity="0"/>
      <stop offset=".06" stop-color="#ffb979" stop-opacity=".14"/>
      <stop offset=".16" stop-color="#ffb979" stop-opacity=".34"/>
      <stop offset=".26" stop-color="#ffb979" stop-opacity=".52"/>
      <stop offset=".37" stop-color="#ffb979" stop-opacity=".67"/>
      <stop offset=".48" stop-color="#ffb979" stop-opacity=".79"/>
      <stop offset=".59" stop-color="#ffb979" stop-opacity=".88"/>
      <stop offset=".71" stop-color="#ffb979" stop-opacity=".95"/>
      <stop offset=".84" stop-color="#ffb979" stop-opacity=".99"/>
      <stop offset="1" stop-color="#ffb979"/>
    </linearGradient>
    <clipPath id="clippath">
      <rect class="cls-3" x="52.63" y="66.68" width="466" height="540" rx="30" ry="30"/>
    </clipPath>
  </defs>
  <rect class="cls-8" x="52.63" y="66.68" width="466" height="540" rx="30" ry="30"/>
  <g class="cls-4">
    <g class="cls-2">
      <path class="cls-1" d="m231.23,158.17c0,27.21-2.93,50.75-8.78,70.58-5.85,19.84-13.92,36.29-24.19,49.32-10.28,13.04-22.55,22.75-36.83,29.13-14.28,6.38-29.69,9.57-46.25,9.57s-31.83-3.19-45.82-9.57c-13.99-6.38-26.12-16.08-36.4-29.13-10.28-13.04-18.35-29.48-24.19-49.32C2.92,208.92,0,185.39,0,158.17s2.92-50.31,8.78-70.16c5.85-19.84,13.92-36.28,24.19-49.32,10.28-13.04,22.41-22.75,36.4-29.13C83.35,3.19,98.63,0,115.19,0s31.97,3.19,46.25,9.57c14.27,6.38,26.55,16.09,36.83,29.13,10.28,13.04,18.34,29.48,24.19,49.32,5.85,19.84,8.78,43.23,8.78,70.16Zm-68.51.43c0-21.54-1.36-39.18-4.07-52.94-2.72-13.75-6.21-24.59-10.49-32.53-4.57-7.65-9.71-12.9-15.42-15.73-5.71-2.83-11.56-4.25-17.56-4.25s-11.42,1.42-17.13,4.25c-5.71,2.84-10.71,8.23-14.99,16.16-4.28,7.65-7.78,18.36-10.49,32.1-2.72,13.75-4.07,31.4-4.07,52.94s1.35,38.69,4.07,52.3c2.71,13.61,6.21,24.38,10.49,32.32,4.28,7.94,9.27,13.33,14.99,16.16,5.71,2.84,11.56,4.25,17.56,4.25s11.41-1.42,17.13-4.25c5.71-2.83,10.85-8.22,15.42-16.16,4.28-7.93,7.77-18.71,10.49-32.32,2.71-13.61,4.07-31.04,4.07-52.3Z"/>
      <path class="cls-1" d="m285.62,313.37v-26.79c0-9.07,4.71-14.31,14.13-15.73l45.82-5.95V109.28c0-3.97.07-7.93.21-11.91.14-3.97.35-7.93.64-11.91l-35.54,28.91c-2.29,1.99-4.57,3.33-6.85,4.04-2.29.71-4.43,1.06-6.42,1.06-3.71,0-7.07-.78-10.06-2.34-3-1.55-5.21-3.33-6.64-5.31l-20.98-27.64L357.13,3.4h54.81v261.5l37.68,5.53c9.13,1.42,13.7,6.8,13.7,16.16v26.79h-177.71Z"/>
    </g>
  </g>
  <text class="cls-6" transform="translate(71.8 516.88)"><tspan x="0" y="0">24</tspan><tspan x="19.31" y="0">/Your chatbot collects contact info, asks the right </tspan><tspan x="0" y="20.41">questions, scores leads based on their answers, and </tspan><tspan x="0" y="40.82">routes hot prospects straight to your team. No more </tspan><tspan x="0" y="61.23">leads slipping through the cracks.</tspan></text>
  <text class="cls-5" transform="translate(71.11 449.65)"><tspan x="0" y="0">Capture</tspan><tspan x="0" y="30.61">&amp; Qualify</tspan></text>
  <path class="cls-7" d="m398.88,206.68c0-.06-.01-.11-.02-.16,0-.11,0-.21-.02-.31-.01-.11-.03-.23-.05-.34-.02-.11-.04-.22-.06-.33-.02-.09-.05-.18-.07-.28-.03-.11-.07-.21-.11-.32-.04-.11-.08-.22-.13-.32-.04-.1-.09-.19-.14-.28-.03-.05-.04-.1-.07-.15s-.07-.09-.1-.13c-.06-.09-.11-.18-.17-.26-.07-.09-.14-.18-.21-.27-.07-.09-.15-.18-.22-.26-.07-.07-.13-.14-.2-.2-.08-.08-.17-.15-.25-.22-.09-.07-.18-.15-.28-.22-.09-.06-.17-.12-.26-.17-.05-.03-.08-.07-.13-.1l-129.9-75s-.1-.04-.15-.07c-.16-.09-.33-.15-.49-.22-.14-.06-.28-.12-.43-.16-.16-.05-.32-.08-.48-.11-.16-.03-.32-.06-.47-.08-.16-.02-.32-.01-.48-.01-.16,0-.32,0-.47.01-.16.02-.32.05-.48.08-.16.03-.32.06-.47.11-.14.04-.28.1-.43.16-.17.07-.34.14-.5.22-.05.03-.1.04-.15.07l-86.6,50s-.09.07-.13.1c-.09.06-.18.11-.26.17-.09.07-.18.14-.27.22-.09.07-.17.14-.26.22-.07.07-.14.13-.2.2-.08.08-.15.17-.22.26-.07.09-.15.18-.21.27-.06.09-.12.17-.17.26-.03.05-.07.08-.1.13-.03.05-.04.1-.07.15-.05.09-.1.19-.14.28-.05.1-.09.21-.13.32-.04.11-.08.21-.11.32-.03.09-.05.18-.07.28-.03.11-.05.22-.06.33-.02.11-.04.23-.05.34-.01.1-.01.21-.02.31,0,.06-.02.11-.02.16v150c0,.06.01.11.02.16,0,.18.03.36.05.54.02.15.04.31.08.45.04.16.09.31.14.46.05.15.1.31.17.45.07.15.15.28.23.42.08.14.16.28.25.41.09.13.2.25.31.38.11.12.21.24.33.35.11.11.23.2.36.29.14.11.28.22.44.31.05.03.08.07.13.1l86.6,50s0,0,.01,0c.14.08.29.15.44.22,0,0,0,0,.01,0,.04.02.07.04.11.05.01,0,.02.01.04.02.06.03.13.04.19.07.2.07.4.13.6.18.06.01.13.03.19.04.3.05.6.09.9.09,0,0,0,0,0,0s0,0,0,0c.3,0,.6-.04.9-.09.06-.01.13-.02.19-.04.23-.05.46-.12.68-.2.04-.01.08-.02.11-.04.01,0,.03-.01.04-.02.04-.02.07-.04.11-.05.02,0,.04-.02.05-.03.14-.06.27-.12.4-.2,0,0,0,0,.01,0l129.9-75s.09-.07.13-.1c.15-.1.3-.2.44-.32.12-.1.24-.19.35-.29.12-.11.22-.23.33-.36.11-.12.22-.24.31-.37.09-.13.17-.27.25-.41.08-.14.16-.27.23-.42.07-.15.12-.3.17-.46.05-.15.11-.3.14-.46.04-.15.05-.3.08-.45.03-.18.05-.36.05-.54,0-.06.02-.11.02-.16v-100Zm-178.21-44.23l33.3,19.23-33.3,19.23-33.3-19.23,33.3-19.23Zm43.3-25l119.9,69.23-33.3,19.23-119.9-69.23,33.3-19.23Zm0,188.45l-33.3-19.23,76.6-44.23,33.3,19.23-76.6,44.23Zm81.6-52.89l-76.6-44.23v-38.45l76.6,44.23v38.45Zm-76.6-32.68l28.3,16.34-28.3,16.34v-32.68Zm-10,38.45l-33.3,19.23v-88.45l33.3-19.23v88.45Zm96.6-44.23l33.3-19.23v38.45l-33.3,19.23v-38.45Zm-173.21-44.23l33.3,19.23v138.45l-33.3-19.23v-138.45Zm43.3,125l33.3,19.23v38.45l-33.3-19.23v-38.45Zm43.3,19.23l84.05-48.53s.02-.01.03-.02l35.82-20.68v38.45l-119.9,69.23v-38.45Z"/>
</svg>