<?xml version="1.0" encoding="UTF-8"?>
<svg id="Layer_1" data-name="Layer 1" xmlns="http://www.w3.org/2000/svg" xmlns:xlink="http://www.w3.org/1999/xlink" viewBox="0 0 503.12 594.09">
  <defs>
    <style>
      .cls-1 {
        fill: #fff;
      }

      .cls-2 {
        opacity: .7;
      }

      .cls-2, .cls-3, .cls-4 {
        fill: #471b52;
      }

      .cls-5 {
        opacity: .7;
      }

      .cls-5, .cls-6, .cls-7 {
        fill: none;
      }

      .cls-3 {
        font-family: Aleo-Medium, Aleo;
        font-size: 25.51px;
        font-variation-settings: 'wght' 500;
        font-weight: 500;
      }

      .cls-7 {
        clip-path: url(#clippath);
      }

      .cls-8 {
        fill: url(#linear-gradient);
      }

      .cls-4 {
        font-family: AlanSans-Light, 'Alan Sans';
        font-size: 17.01px;
        font-variation-settings: 'wght' 300;
        font-weight: 300;
      }
    </style>
    <linearGradient id="linear-gradient" x1="121.86" y1="-35.37" x2="344.14" y2="575.37" gradientUnits="userSpaceOnUse">
      <stop offset="0" stop-color="#471b52" stop-opacity="0"/>
      <stop offset="1" stop-color="#471b52"/>
    </linearGradient>
    <clipPath id="clippath">
      <rect class="cls-6" width="466" height="540" rx="30" ry="30"/>
    </clipPath>
  </defs>
  <rect class="cls-8" width="466" height="540" rx="30" ry="30"/>
  <g class="cls-7">
    <g class="cls-5">
      <path class="cls-1" d="m264.61,435.5c0,27.21-2.93,50.75-8.78,70.58-5.85,19.84-13.92,36.29-24.19,49.32-10.28,13.04-22.55,22.75-36.83,29.13-14.28,6.38-29.69,9.57-46.25,9.57s-31.83-3.19-45.82-9.57c-13.99-6.38-26.12-16.08-36.4-29.13-10.28-13.04-18.35-29.48-24.19-49.32-5.85-19.84-8.78-43.37-8.78-70.58s2.92-50.31,8.78-70.16c5.85-19.84,13.92-36.28,24.19-49.32,10.28-13.04,22.41-22.75,36.4-29.13,13.98-6.38,29.26-9.57,45.82-9.57s31.97,3.19,46.25,9.57c14.27,6.38,26.55,16.09,36.83,29.13,10.28,13.04,18.34,29.48,24.19,49.32,5.85,19.84,8.78,43.23,8.78,70.16Zm-68.51.43c0-21.54-1.36-39.18-4.07-52.94-2.72-13.75-6.21-24.59-10.49-32.53-4.57-7.65-9.71-12.9-15.42-15.73-5.71-2.83-11.56-4.25-17.56-4.25s-11.42,1.42-17.13,4.25c-5.71,2.84-10.71,8.23-14.99,16.16-4.28,7.65-7.78,18.36-10.49,32.1-2.72,13.75-4.07,31.4-4.07,52.94s1.35,38.69,4.07,52.3c2.71,13.61,6.21,24.38,10.49,32.32,4.28,7.94,9.27,13.33,14.99,16.16,5.71,2.84,11.56,4.25,17.56,4.25s11.41-1.42,17.13-4.25c5.71-2.83,10.85-8.22,15.42-16.16,4.28-7.93,7.77-18.71,10.49-32.32,2.71-13.61,4.07-31.04,4.07-52.3Z"/>
      <path class="cls-1" d="m393.5,594.09c-19.7,0-36.69-2.98-50.96-8.93-14.28-5.95-26.27-15.02-35.97-27.21-9.71-12.18-17.98-27.78-24.84-46.77,10.28-4.25,17.98-7.44,23.12-9.57s9.21-3.54,12.2-4.25c3-.7,6.06-1.06,9.21-1.06,4.56,0,8.71.85,12.42,2.55,3.71,1.7,6.42,4.25,8.14,7.65,4.56,7.94,9.13,14.39,13.7,19.35,4.56,4.96,9.49,8.58,14.77,10.84,5.28,2.27,11.06,3.4,17.34,3.4,9.42,0,17.41-1.91,23.98-5.74,6.56-3.83,11.56-8.93,14.99-15.31,3.43-6.38,5.14-13.25,5.14-20.62,0-11.06-1.57-19.7-4.71-25.94-3.14-6.23-9.35-10.7-18.63-13.39-9.28-2.69-23.06-4.04-41.32-4.04v-45.5c23.12,0,39.03-3.19,47.75-9.57,8.71-6.38,13.06-16.65,13.06-30.83,0-8.22-1.29-15.09-3.85-20.62-2.57-5.53-6.5-9.78-11.78-12.76-5.29-2.98-12.06-4.46-20.34-4.46-9.14,0-17.13,2.55-23.98,7.65s-11.85,11.48-14.99,19.13c-2.29,6.52-5.14,11.2-8.56,14.03-3.43,2.84-8.14,4.25-14.13,4.25-2.86,0-7.28-.49-13.27-1.49-6-.99-16.56-2.9-31.69-5.74,4.56-30.04,16.91-52.86,37.04-68.46,20.13-15.59,44.6-23.39,73.44-23.39,19.41,0,36.32,3.55,50.74,10.63,14.41,7.09,25.69,16.66,33.83,28.7,8.14,12.05,12.2,25.72,12.2,41.03,0,12.48-1.71,23.25-5.14,32.31-3.43,9.08-8.5,16.52-15.2,22.32-6.71,5.81-15.35,10.56-25.91,14.24,17.41,5.95,30.4,14.74,38.97,26.36,8.56,11.63,12.85,26.08,12.85,43.37,0,20.98-4.92,38.77-14.77,53.36-9.85,14.6-23.06,25.66-39.61,33.17-16.56,7.51-34.97,11.27-55.24,11.27Z"/>
    </g>
  </g>
  <text class="cls-3" transform="translate(18.95 58.55)"><tspan x="0" y="0">AI-Powered</tspan><tspan x="0" y="30.61">Conversations</tspan></text>
  <text class="cls-4" transform="translate(17.59 121.61)"><tspan x="0" y="0">Process orders, send payment links, trigger follow-ups, </tspan><tspan x="0" y="20.41">collect feedback. Your entire customer journey runs on </tspan><tspan x="0" y="40.82">autopilot while you focus on growing the business.</tspan></text>
  <path class="cls-2" d="m346.25,287.5c0-.06-.01-.11-.02-.16,0-.11,0-.21-.02-.31-.01-.11-.03-.23-.05-.34-.02-.11-.04-.22-.06-.33-.02-.09-.05-.18-.07-.28-.03-.11-.07-.21-.11-.32-.04-.11-.08-.22-.13-.32-.04-.1-.09-.19-.14-.28-.03-.05-.04-.1-.07-.15-.03-.05-.07-.09-.1-.13-.06-.09-.11-.18-.17-.27-.07-.09-.14-.18-.21-.27-.07-.09-.15-.18-.22-.26-.07-.07-.13-.14-.2-.2-.08-.08-.17-.15-.25-.22-.09-.08-.18-.15-.28-.22-.09-.06-.17-.11-.26-.17-.05-.03-.08-.07-.13-.1l-108.25-62.5s-.1-.04-.15-.07c-.16-.08-.32-.15-.49-.22-.14-.06-.29-.12-.43-.16-.15-.05-.31-.08-.47-.11-.16-.03-.32-.07-.48-.08-.16-.02-.32-.01-.48-.01-.16,0-.32,0-.48.01-.16.02-.32.05-.48.08-.16.03-.31.06-.47.11-.15.04-.29.1-.44.16-.17.07-.33.13-.49.22-.05.03-.1.04-.15.07l-27.06,15.62s-.09.07-.13.1c-.09.06-.18.11-.26.17-.09.07-.18.14-.27.22-.09.07-.17.14-.26.22-.07.07-.13.13-.2.2-.08.08-.15.17-.22.26-.07.09-.15.18-.21.27-.06.09-.12.17-.17.26-.03.05-.07.09-.1.13-.03.05-.04.1-.07.15-.05.09-.1.19-.14.28-.05.1-.09.21-.13.32-.04.11-.08.21-.11.32-.03.09-.05.18-.07.28-.03.11-.05.22-.06.33-.02.11-.04.23-.05.34-.01.1-.01.21-.02.31,0,.06-.02.11-.02.16v53.84l-46.63-26.92s-.1-.04-.15-.07c-.16-.08-.32-.15-.48-.22-.15-.06-.29-.12-.44-.17-.15-.04-.3-.07-.45-.1-.17-.03-.33-.07-.5-.08-.15-.01-.3-.01-.46-.01-.17,0-.33,0-.5.01-.16.02-.31.05-.46.08-.16.03-.33.06-.48.11-.14.04-.28.1-.42.16-.17.07-.34.14-.5.22-.05.03-.1.04-.15.07l-27.06,15.62s-.09.07-.13.1c-.09.06-.18.11-.27.17-.09.07-.18.14-.27.21-.09.07-.17.14-.26.22-.07.07-.14.13-.2.2-.08.08-.15.17-.22.26-.07.09-.15.18-.21.27-.06.09-.12.17-.17.26-.03.05-.07.08-.1.13-.03.05-.04.1-.07.15-.05.09-.1.19-.14.28-.05.1-.09.21-.13.32-.04.11-.08.21-.11.32-.03.09-.05.18-.07.28-.03.11-.05.22-.06.33-.02.11-.04.23-.05.34-.01.1-.01.21-.02.31,0,.06-.02.11-.02.16v125c0,.06.01.11.02.16,0,.18.03.36.05.54.02.15.04.31.08.45.04.16.09.31.14.46.05.15.1.31.17.46.07.15.15.28.23.42.08.14.16.28.25.41.09.13.2.25.31.37.11.12.21.24.33.36.11.1.23.2.35.29.14.11.28.22.44.32.05.03.08.07.13.1l27.06,15.62s0,0,.01,0c.14.08.29.15.44.22,0,0,0,0,.01,0,.04.02.07.04.11.05.01,0,.02.01.04.02.06.03.13.04.19.07.2.07.4.13.6.18.06.01.13.03.19.04.3.05.6.09.9.09,0,0,0,0,0,0s0,0,0,0c.3,0,.6-.04.9-.09.06-.01.13-.02.19-.04.23-.05.46-.12.68-.2.04-.01.08-.02.11-.04.01,0,.03-.01.04-.02.04-.02.07-.04.11-.05.02,0,.04-.02.05-.03.14-.06.27-.12.4-.2,0,0,0,0,.01,0l46.63-26.92v53.84c0,.06.01.11.02.16,0,.18.03.36.05.54.02.15.04.31.08.45.04.16.09.31.14.46.05.15.1.31.17.46.07.15.15.28.23.42.08.14.16.28.25.41.09.13.2.25.31.37.11.12.21.24.33.36.11.1.23.2.35.29.14.11.28.22.44.32.05.03.08.07.13.1l27.06,15.62s0,0,.01,0c.14.08.29.15.44.22,0,0,0,0,.01,0,.04.02.07.04.11.05.01,0,.02.01.04.02.06.03.13.04.19.07.2.07.4.13.6.18.06.01.13.03.19.04.3.05.6.09.9.09,0,0,0,0,0,0s0,0,0,0c.3,0,.6-.04.9-.09.06-.01.13-.02.19-.04.22-.05.44-.12.66-.2.04-.02.09-.03.13-.04.01,0,.02-.01.04-.02.04-.02.07-.04.11-.05.01,0,.03-.01.04-.02.14-.06.28-.13.41-.2,0,0,0,0,.01,0l108.25-62.5s.09-.07.13-.1c.15-.1.3-.2.44-.32.12-.09.24-.19.35-.29.12-.11.22-.23.33-.36.11-.12.21-.24.31-.37.09-.13.17-.27.25-.41.08-.14.16-.27.23-.42.07-.15.12-.3.17-.46.05-.15.11-.3.14-.46.04-.15.05-.3.08-.45.03-.18.05-.36.05-.54,0-.06.02-.11.02-.16v-31.25c0-.06-.01-.11-.02-.16,0-.11,0-.21-.02-.31-.01-.11-.03-.23-.05-.34-.02-.11-.04-.22-.06-.33-.02-.09-.05-.18-.07-.28-.03-.11-.07-.21-.11-.32-.04-.11-.08-.22-.13-.32-.04-.1-.09-.19-.14-.28-.03-.05-.04-.1-.07-.15-.03-.05-.07-.09-.1-.13-.06-.09-.11-.18-.17-.27-.07-.09-.14-.18-.21-.27-.07-.09-.15-.18-.22-.26-.07-.07-.13-.14-.2-.2-.08-.08-.17-.15-.25-.22-.09-.08-.18-.15-.28-.22-.09-.06-.17-.11-.26-.17-.05-.03-.08-.07-.13-.1l-46.63-26.92,46.63-26.92s.09-.07.13-.1c.15-.1.3-.2.44-.32.12-.09.24-.19.35-.29.12-.11.22-.23.33-.36.11-.12.21-.24.31-.37.09-.13.17-.27.25-.41.08-.14.16-.27.23-.42.07-.15.12-.3.17-.46.05-.15.11-.3.14-.46.04-.15.05-.3.08-.45.03-.18.05-.36.05-.54,0-.06.02-.11.02-.16v-31.25Zm-88.69,73.79s-.09.07-.13.1c-.15.1-.3.2-.44.32-.12.09-.24.19-.35.29-.12.11-.22.23-.33.36-.11.12-.21.24-.31.37-.09.13-.17.27-.25.41-.08.14-.16.27-.23.42-.07.15-.12.3-.17.46-.05.15-.11.3-.14.46-.04.15-.05.3-.08.45-.03.18-.05.36-.05.54,0,.06-.02.11-.02.16v62.5c0,.1.02.18.03.28,0,.18.02.36.05.54.03.16.06.32.11.47.04.15.09.31.14.46.06.17.14.34.22.5.04.08.07.17.11.25.04.06.08.12.12.18.04.07.09.14.14.21.16.22.32.43.51.62.01.01.02.03.03.04.21.21.43.39.67.55.05.04.11.07.17.11.21.14.43.26.66.36.04.02.08.04.12.06.26.11.53.19.81.25.07.02.14.03.21.04.3.05.59.09.9.09s.6-.04.9-.09c.06-.01.13-.02.19-.04.28-.06.56-.14.83-.26.04-.02.07-.04.11-.05.16-.07.31-.14.47-.23l73.69-42.54v19.7l-98.25,56.73v-113.45l98.25-56.73v19.7l-78.69,45.43Zm-46.64,4.17c0-.18-.03-.36-.05-.54-.02-.15-.04-.31-.08-.45-.04-.16-.09-.31-.14-.46-.05-.15-.1-.31-.17-.46-.07-.15-.15-.28-.23-.42-.08-.14-.16-.28-.25-.41-.09-.13-.2-.25-.31-.37-.11-.12-.21-.24-.33-.36-.11-.1-.23-.2-.35-.29-.14-.11-.28-.22-.44-.32-.05-.03-.08-.07-.13-.1l-54.13-31.25c-.08-.05-.17-.07-.26-.12-.16-.08-.32-.16-.49-.22-.16-.06-.31-.1-.47-.15-.15-.04-.3-.08-.46-.1-.19-.03-.37-.05-.55-.06-.09,0-.18-.03-.27-.03-.05,0-.1.01-.16.02-.19,0-.37.03-.55.06-.15.02-.3.04-.44.07-.16.04-.32.09-.47.15-.15.05-.3.1-.45.17-.15.07-.28.15-.42.23-.14.08-.27.16-.4.25-.13.09-.25.2-.38.31-.12.11-.24.21-.35.33-.1.11-.2.23-.29.36-.11.14-.22.28-.31.44-.03.05-.07.08-.1.13-.05.08-.07.17-.11.25-.08.16-.16.32-.22.5-.06.15-.1.3-.14.46-.04.16-.08.31-.11.47-.03.18-.04.36-.05.54,0,.09-.03.18-.03.28v85.09l-17.06-9.85v-113.45l98.25,56.73v113.45l-17.06-9.85v-90.86c0-.06-.01-.11-.02-.16Zm-59.11-87.81l78.69,45.43s0,0,.01,0c.14.08.29.15.44.22.05.02.11.06.16.08.06.03.13.04.19.07.55.2,1.12.31,1.69.31,0,0,0,0,0,0s0,0,0,0c.59,0,1.18-.11,1.75-.33.04-.02.09-.03.13-.04.06-.03.13-.06.19-.09.14-.06.28-.13.41-.2,0,0,0,0,.01,0l54.08-31.22s.01,0,.02,0l.03-.02s.02-.02.03-.02c.25-.14.48-.32.7-.5.05-.04.1-.09.15-.13.21-.19.41-.4.59-.63.03-.04.05-.08.08-.12.1-.14.2-.27.28-.42.03-.05.04-.1.07-.15.09-.16.15-.32.22-.49.06-.14.12-.28.16-.43.05-.16.08-.31.11-.47.03-.16.07-.32.08-.48.02-.16.01-.32.01-.48,0-.16,0-.32-.01-.48-.02-.16-.05-.32-.08-.48-.03-.16-.06-.32-.11-.47-.04-.15-.1-.29-.16-.43-.07-.17-.14-.33-.22-.49-.03-.05-.04-.1-.07-.15-.05-.08-.11-.15-.16-.23-.1-.15-.2-.3-.32-.44-.1-.13-.22-.24-.33-.36-.11-.11-.22-.22-.35-.32-.15-.12-.3-.22-.45-.33-.08-.05-.14-.11-.22-.16l-73.69-42.54,17.06-9.85,98.25,56.73-98.25,56.73-98.25-56.73,17.06-9.85Zm59.13-28.36l66.19,38.21-44.13,25.48-22.06-12.74v-50.95Zm-54.13,170.18v-76.43l44.13,25.48v25.48l-44.13,25.48Zm174.44-38.21l-66.19,38.21v-50.95l22.06-12.74,44.13,25.48Z"/>
</svg>