<?xml version="1.0" encoding="UTF-8"?>
<svg id="Layer_1" data-name="Layer 1" xmlns="http://www.w3.org/2000/svg" xmlns:xlink="http://www.w3.org/1999/xlink" viewBox="0 0 466 540">
  <defs>
    <style>
      .cls-1 {
        fill: #fff;
      }

      .cls-2 {
        opacity: .7;
      }

      .cls-2, .cls-3 {
        fill: #471b52;
      }

      .cls-4 {
        opacity: .7;
      }

      .cls-4, .cls-5, .cls-6 {
        fill: none;
      }

      .cls-6 {
        clip-path: url(#clippath);
      }

      .cls-7 {
        fill: url(#linear-gradient);
      }
    </style>
    <linearGradient id="linear-gradient" x1="121.86" y1="-35.37" x2="344.14" y2="575.37" gradientUnits="userSpaceOnUse">
      <stop offset="0" stop-color="#471b52" stop-opacity="0"/>
      <stop offset="1" stop-color="#471b52"/>
    </linearGradient>
    <clipPath id="clippath">
      <rect class="cls-5" width="466" height="540" rx="30" ry="30"/>
    </clipPath>
  </defs>
  <rect class="cls-7" width="466" height="540" rx="30" ry="30"/>
  <g class="cls-6">
    <g class="cls-4">
      <path class="cls-1" d="m264.61,435.5c0,27.21-2.93,50.75-8.78,70.58-5.85,19.84-13.92,36.29-24.19,49.32-10.28,13.04-22.55,22.75-36.83,29.13-14.28,6.38-29.69,9.57-46.25,9.57s-31.83-3.19-45.82-9.57c-13.99-6.38-26.12-16.08-36.4-29.13-10.28-13.04-18.35-29.48-24.19-49.32-5.85-19.84-8.78-43.37-8.78-70.58s2.92-50.31,8.78-70.16c5.85-19.84,13.92-36.28,24.19-49.32,10.28-13.04,22.41-22.75,36.4-29.13,13.98-6.38,29.26-9.57,45.82-9.57s31.97,3.19,46.25,9.57c14.27,6.38,26.55,16.09,36.83,29.13,10.28,13.04,18.34,29.48,24.19,49.32,5.85,19.84,8.78,43.23,8.78,70.16Zm-68.51.43c0-21.54-1.36-39.18-4.07-52.94-2.72-13.75-6.21-24.59-10.49-32.53-4.57-7.65-9.71-12.9-15.42-15.73-5.71-2.83-11.56-4.25-17.56-4.25s-11.42,1.42-17.13,4.25c-5.71,2.84-10.71,8.23-14.99,16.16-4.28,7.65-7.78,18.36-10.49,32.1-2.72,13.75-4.07,31.4-4.07,52.94s1.35,38.69,4.07,52.3c2.71,13.61,6.21,24.38,10.49,32.32,4.28,7.94,9.27,13.33,14.99,16.16,5.71,2.84,11.56,4.25,17.56,4.25s11.41-1.42,17.13-4.25c5.71-2.83,10.85-8.22,15.42-16.16,4.28-7.93,7.77-18.71,10.49-32.32,2.71-13.61,4.07-31.04,4.07-52.3Z"/>
      <path class="cls-1" d="m393.5,594.09c-19.7,0-36.69-2.98-50.96-8.93-14.28-5.95-26.27-15.02-35.97-27.21-9.71-12.18-17.98-27.78-24.84-46.77,10.28-4.25,17.98-7.44,23.12-9.57s9.21-3.54,12.2-4.25c3-.7,6.06-1.06,9.21-1.06,4.56,0,8.71.85,12.42,2.55,3.71,1.7,6.42,4.25,8.14,7.65,4.56,7.94,9.13,14.39,13.7,19.35,4.56,4.96,9.49,8.58,14.77,10.84,5.28,2.27,11.06,3.4,17.34,3.4,9.42,0,17.41-1.91,23.98-5.74,6.56-3.83,11.56-8.93,14.99-15.31,3.43-6.38,5.14-13.25,5.14-20.62,0-11.06-1.57-19.7-4.71-25.94-3.14-6.23-9.35-10.7-18.63-13.39-9.28-2.69-23.06-4.04-41.32-4.04v-45.5c23.12,0,39.03-3.19,47.75-9.57,8.71-6.38,13.06-16.65,13.06-30.83,0-8.22-1.29-15.09-3.85-20.62-2.57-5.53-6.5-9.78-11.78-12.76-5.29-2.98-12.06-4.46-20.34-4.46-9.14,0-17.13,2.55-23.98,7.65s-11.85,11.48-14.99,19.13c-2.29,6.52-5.14,11.2-8.56,14.03-3.43,2.84-8.14,4.25-14.13,4.25-2.86,0-7.28-.49-13.27-1.49-6-.99-16.56-2.9-31.69-5.74,4.56-30.04,16.91-52.86,37.04-68.46,20.13-15.59,44.6-23.39,73.44-23.39,19.41,0,36.32,3.55,50.74,10.63,14.41,7.09,25.69,16.66,33.83,28.7,8.14,12.05,12.2,25.72,12.2,41.03,0,12.48-1.71,23.25-5.14,32.31-3.43,9.08-8.5,16.52-15.2,22.32-6.71,5.81-15.35,10.56-25.91,14.24,17.41,5.95,30.4,14.74,38.97,26.36,8.56,11.63,12.85,26.08,12.85,43.37,0,20.98-4.92,38.77-14.77,53.36-9.85,14.6-23.06,25.66-39.61,33.17-16.56,7.51-34.97,11.27-55.24,11.27Z"/>
    </g>
  </g>
  <g>
    <path class="cls-3" d="m19.26,58.55v-1.17c0-.17.04-.31.13-.41.09-.1.21-.17.39-.2l1.8-.38.28,2.17h-2.6Zm.75,0l7.35-18.34h2.85l7.35,18.34h-2.16c-.26,0-.46-.06-.62-.18s-.27-.27-.33-.46l-5.06-13.27c-.1-.25-.21-.53-.31-.83-.1-.3-.2-.63-.28-1.01-.1.38-.21.71-.31,1.02-.1.31-.2.59-.28.84l-5.06,13.24c-.07.15-.18.3-.35.43-.16.14-.36.2-.6.2h-2.18Zm2.03,0v-1.63h1.64v1.63h-1.64Zm.44,0l.31-2.17,1.77.38c.17.03.3.1.39.2.09.1.13.24.13.41v1.17h-2.59Zm1.85-5.31l.62-1.99h7.71l.62,1.99h-8.94Zm8.17,5.31v-1.17c0-.17.04-.31.13-.41.09-.1.21-.17.39-.2l1.8-.38.28,2.17h-2.59Zm1.36,0v-1.63h1.72v1.63h-1.72Zm1.85,0l.31-2.17,1.8.38c.15.03.27.1.36.2.09.1.13.24.13.41v1.17h-2.6Z"/>
    <path class="cls-3" d="m42.02,40.2l-.31,2.17-1.77-.38c-.17-.03-.3-.1-.39-.2-.09-.1-.13-.24-.13-.41v-1.17h2.6Zm-2.6,18.34v-1.17c0-.17.04-.31.13-.41.09-.1.21-.17.39-.2l1.77-.38.31,2.17h-2.6Zm1.88,0v-18.34h2.8v18.34h-2.8Zm4.7-18.34v1.17c0,.17-.05.31-.14.41-.09.1-.22.17-.37.2l-1.8.38-.31-2.17h2.62Zm-2.62,18.34l.31-2.17,1.8.38c.15.03.28.1.37.2.09.1.14.24.14.41v1.17h-2.62Z"/>
    <path class="cls-3" d="m47.85,51.94v-2.14h6.45v2.14h-6.45Z"/>
    <path class="cls-3" d="m58.75,40.2l-.31,2.17-1.77-.38c-.17-.03-.3-.1-.39-.2-.09-.1-.13-.24-.13-.41v-1.17h2.6Zm-2.6,18.34v-1.17c0-.17.04-.31.13-.41.09-.1.21-.17.39-.2l1.77-.38.31,2.17h-2.6Zm1.88,0v-18.34h5.65c1.47,0,2.73.22,3.76.66,1.04.44,1.83,1.09,2.38,1.94.55.85.82,1.9.82,3.14s-.28,2.25-.85,3.12c-.57.88-1.37,1.55-2.42,2.03-1.05.48-2.28.71-3.7.71h-2.83v6.74h-2.83Zm2.08,0l.31-2.17,1.8.38c.15.03.27.1.36.2.09.1.13.24.13.41v1.17h-2.6Zm.75-8.9h2.83c.89,0,1.64-.15,2.26-.46.62-.31,1.09-.74,1.41-1.29.33-.55.49-1.2.49-1.95,0-1.12-.35-2-1.04-2.63-.69-.63-1.73-.94-3.12-.94h-2.83v7.27Z"/>
    <path class="cls-3" d="m78.02,45.36c1.3,0,2.42.28,3.35.83.93.55,1.65,1.33,2.16,2.33.5,1,.76,2.18.76,3.52s-.25,2.5-.76,3.51c-.51,1.01-1.23,1.79-2.16,2.35-.93.55-2.05.83-3.35.83s-2.4-.28-3.35-.83-1.69-1.33-2.21-2.35c-.52-1.01-.78-2.18-.78-3.51s.26-2.52.78-3.52c.52-1,1.26-1.78,2.21-2.33s2.07-.83,3.35-.83Zm0,11.4c1.22,0,2.12-.41,2.72-1.22.6-.82.9-1.97.9-3.47,0-1.02-.13-1.88-.4-2.58-.27-.7-.67-1.23-1.21-1.59-.54-.37-1.21-.55-2.02-.55s-1.53.19-2.08.56c-.55.38-.95.92-1.21,1.62-.26.71-.39,1.55-.39,2.54,0,1.45.3,2.59.9,3.43s1.52,1.26,2.77,1.26Z"/>
    <path class="cls-3" d="m88.14,45.56l-.31,2.17-1.77-.38c-.17-.03-.3-.1-.39-.2-.09-.1-.13-.24-.13-.41v-1.17h2.59Zm2.62,12.99l-4.19-12.99h2.03c.43,0,.69.17.77.51l2.31,7.93c.07.32.14.64.21.94.07.31.12.61.15.92.05-.19.11-.39.17-.6s.12-.43.19-.65c.07-.22.14-.42.21-.61l2.57-7.96c.03-.15.11-.28.23-.37.12-.09.27-.14.44-.14h1.16c.38,0,.62.17.72.51l2.49,7.96c.07.17.13.37.19.6s.12.45.18.66c.06.21.11.41.14.6.03-.19.07-.39.12-.61.04-.22.09-.44.14-.66.05-.22.1-.42.15-.59l2.36-7.93c.03-.14.12-.25.24-.36.13-.1.29-.15.48-.15h1.95l-4.21,12.99h-2.06c-.22,0-.39-.16-.51-.48l-2.7-8.39c-.07-.2-.13-.42-.18-.64-.05-.22-.09-.43-.13-.64-.03.19-.08.39-.13.6-.05.21-.12.45-.21.7l-2.75,8.37c-.1.32-.3.48-.59.48h-1.95Zm-2.59-12.3v-.69h1.9v.69h-1.9Zm3.34-.69v1.17c0,.17-.04.31-.13.41-.09.1-.21.17-.39.2l-1.8.38-.28-2.17h2.59Zm12.33,0l-.28,2.17-1.8-.38c-.17-.03-.3-.1-.39-.2-.09-.1-.13-.24-.13-.41v-1.17h2.6Zm-.8.69v-.69h1.93v.69h-1.93Zm4.16-.69v1.17c0,.17-.04.31-.13.41-.09.1-.21.17-.39.2l-1.77.38-.31-2.17h2.59Z"/>
    <path class="cls-3" d="m114.76,58.73c-1.27,0-2.38-.29-3.33-.85-.95-.57-1.69-1.37-2.21-2.41-.52-1.04-.78-2.26-.78-3.67,0-1.21.25-2.3.76-3.28.51-.98,1.22-1.75,2.16-2.31s2.03-.84,3.28-.84c1.1,0,2.06.24,2.88.71.82.48,1.46,1.15,1.93,2.02s.69,1.91.69,3.11c0,.39-.04.66-.13.79-.09.14-.26.2-.51.2h-8.48v.31c.1,1.36.5,2.41,1.18,3.14s1.61,1.1,2.77,1.1c.51,0,1.02-.1,1.53-.31.5-.2.96-.4,1.36-.6.4-.2.7-.29.89-.29.21,0,.37.07.49.2l.72.94c-.38.48-.86.87-1.44,1.17-.58.31-1.2.53-1.85.66s-1.28.2-1.9.2Zm-3.67-8.11h6.73c0-.99-.27-1.8-.82-2.44-.55-.64-1.32-.96-2.31-.96-1.06,0-1.89.3-2.49.89-.6.6-.97,1.43-1.1,2.5Z"/>
    <path class="cls-3" d="m124.24,45.56l-.31,2.17-1.77-.38c-.17-.03-.3-.1-.39-.2-.09-.1-.13-.24-.13-.41v-1.17h2.6Zm-2.6,12.99v-1.17c0-.17.04-.31.13-.41.09-.1.21-.17.39-.2l1.77-.38.31,2.17h-2.6Zm1.88,0v-12.99h1.46c.29,0,.49.05.6.15.11.1.18.28.19.54l.18,1.89c.45-.88.99-1.57,1.63-2.07.64-.49,1.4-.74,2.27-.74.34,0,.66.04.94.13.28.09.54.2.78.33l-.33,1.91c-.02.1-.07.18-.15.24-.09.06-.18.09-.28.09-.12,0-.34-.03-.67-.1-.33-.07-.62-.1-.87-.1-.75,0-1.39.21-1.9.64-.51.43-.94,1.05-1.28,1.86v8.21h-2.57Zm1.82,0l.31-2.17,1.8.38c.15.03.27.1.36.2.09.1.13.24.13.41v1.17h-2.6Z"/>
    <path class="cls-3" d="m139.01,58.73c-1.27,0-2.38-.29-3.33-.85-.95-.57-1.69-1.37-2.21-2.41-.52-1.04-.78-2.26-.78-3.67,0-1.21.25-2.3.76-3.28.51-.98,1.22-1.75,2.16-2.31s2.03-.84,3.28-.84c1.1,0,2.06.24,2.88.71.82.48,1.46,1.15,1.93,2.02s.69,1.91.69,3.11c0,.39-.04.66-.13.79-.09.14-.26.2-.51.2h-8.48v.31c.1,1.36.5,2.41,1.18,3.14s1.61,1.1,2.77,1.1c.51,0,1.02-.1,1.53-.31.5-.2.96-.4,1.36-.6.4-.2.7-.29.89-.29.21,0,.37.07.49.2l.72.94c-.38.48-.86.87-1.44,1.17-.58.31-1.2.53-1.85.66s-1.28.2-1.9.2Zm-3.67-8.11h6.73c0-.99-.27-1.8-.82-2.44-.55-.64-1.32-.96-2.31-.96-1.06,0-1.89.3-2.49.89-.6.6-.97,1.43-1.1,2.5Z"/>
    <path class="cls-3" d="m150.91,58.73c-1.04,0-1.94-.28-2.67-.83-.74-.55-1.3-1.33-1.68-2.32-.39-1-.58-2.16-.58-3.48s.23-2.4.68-3.42c.45-1.02,1.1-1.83,1.95-2.44.85-.6,1.85-.91,3.02-.91.79,0,1.46.13,2,.38.55.25,1.04.61,1.46,1.07v-7.09h2.59v18.85h-1.57c-.36,0-.58-.17-.67-.51l-.23-1.48c-.55.66-1.18,1.19-1.89,1.58-.71.39-1.52.59-2.43.59Zm.85-2.04c.72,0,1.34-.16,1.88-.47.53-.31,1.02-.77,1.46-1.37v-6.15c-.39-.51-.83-.87-1.3-1.08-.47-.21-1-.32-1.58-.32-.77,0-1.42.19-1.95.56s-.93.92-1.21,1.63c-.27.71-.41,1.58-.41,2.6,0,1.5.25,2.64.74,3.42.5.78,1.28,1.17,2.36,1.17Zm4.09-16.99l-.31,2.17-1.8-.38c-.15-.03-.27-.1-.36-.2-.09-.1-.13-.24-.13-.41v-1.17h2.6Zm1.1,18.85l.31-2.17,1.8.38c.15.03.27.1.36.2.09.1.13.24.13.41v1.17h-2.6Z"/>
    <path class="cls-3" d="m28.61,89.37c-1.39,0-2.64-.23-3.76-.7-1.12-.47-2.09-1.14-2.89-2.03-.77-.87-1.35-1.87-1.73-3.01-.39-1.14-.58-2.33-.58-3.57,0-1.41.23-2.7.69-3.85.46-1.16,1.1-2.14,1.9-2.96.84-.83,1.83-1.48,2.97-1.94,1.14-.46,2.38-.69,3.71-.69.72,0,1.41.06,2.07.18.66.12,1.31.29,1.94.5.63.21,1.26.45,1.88.7v1.99l-1.8-.2c-.51-.22-1.11-.41-1.79-.56-.68-.15-1.38-.23-2.12-.23-1.34,0-2.5.29-3.49.88-.99.59-1.76,1.41-2.29,2.46-.53,1.05-.8,2.29-.8,3.7,0,1.33.24,2.51.72,3.56s1.2,1.88,2.17,2.49c.97.61,2.15.92,3.56.92.79,0,1.52-.12,2.21-.36s1.35-.65,2-1.22c.09-.07.17-.12.24-.15.08-.03.16-.05.24-.05.15,0,.28.06.39.18l1.1,1.2c-.69.82-1.57,1.48-2.66,2-1.09.52-2.39.78-3.89.78Zm3.96-16.02l2.24.64v2.3h-1.23c-.17,0-.31-.04-.41-.13-.1-.08-.17-.21-.21-.38l-.39-2.42Z"/>
    <path class="cls-3" d="m43.28,75.97c1.3,0,2.42.28,3.35.83.93.55,1.65,1.33,2.16,2.33.5,1,.76,2.18.76,3.52s-.25,2.5-.76,3.51c-.51,1.01-1.23,1.79-2.16,2.35-.93.55-2.05.83-3.35.83s-2.4-.28-3.35-.83-1.69-1.33-2.21-2.35c-.52-1.01-.78-2.18-.78-3.51s.26-2.52.78-3.52c.52-1,1.26-1.78,2.21-2.33s2.07-.83,3.35-.83Zm0,11.4c1.22,0,2.12-.41,2.72-1.22.6-.82.9-1.97.9-3.47,0-1.02-.13-1.88-.4-2.58-.27-.7-.67-1.23-1.21-1.59-.54-.37-1.21-.55-2.02-.55s-1.53.19-2.08.56c-.55.38-.95.92-1.21,1.62-.26.71-.39,1.55-.39,2.54,0,1.45.3,2.59.9,3.43s1.52,1.26,2.77,1.26Z"/>
    <path class="cls-3" d="m53.69,76.18l-.31,2.17-1.77-.38c-.17-.03-.3-.1-.39-.2-.09-.1-.13-.24-.13-.41v-1.17h2.6Zm-2.6,12.99v-1.17c0-.17.04-.31.13-.41.09-.1.21-.17.39-.2l1.77-.38.31,2.17h-2.6Zm1.88,0v-12.99h1.54c.36,0,.58.17.67.51l.18,1.3c.57-.61,1.19-1.1,1.88-1.47.69-.37,1.48-.55,2.39-.55.96,0,1.76.2,2.4.61.64.41,1.13.99,1.48,1.73.34.75.51,1.61.51,2.58v8.27h-2.59v-8.27c0-.92-.21-1.63-.63-2.14-.42-.51-1.07-.76-1.94-.76-.63,0-1.23.15-1.79.45s-1.07.71-1.53,1.24v9.49h-2.57Zm1.82,0l.31-2.17,1.8.38c.15.03.27.1.36.2.09.1.13.24.13.41v1.17h-2.6Zm8.48,0l.31-2.17,1.8.38c.15.03.27.1.36.2.09.1.13.24.13.41v1.17h-2.59Z"/>
    <path class="cls-3" d="m68.85,76.18l-.31,2.17-1.77-.38c-.17-.03-.3-.1-.39-.2-.09-.1-.13-.24-.13-.41v-1.17h2.59Zm3.49,12.99l-5.29-12.99h2.13c.21,0,.37.05.5.15.13.1.22.22.27.36l3.06,7.93c.09.25.18.54.27.87.09.32.18.69.27,1.1.07-.32.15-.65.23-.98.09-.33.2-.66.33-.98l3.08-7.93c.05-.14.14-.25.27-.36.13-.1.29-.15.48-.15h2.03l-5.29,12.99h-2.34Zm-3.47-12.3v-.69h1.9v.69h-1.9Zm3.34-.69v1.17c0,.17-.04.31-.13.41-.09.1-.21.17-.39.2l-1.8.38-.28-2.17h2.59Zm5.19,0l-.28,2.17-1.8-.38c-.17-.03-.3-.1-.39-.2-.09-.1-.13-.24-.13-.41v-1.17h2.59Zm-.8.69v-.69h1.93v.69h-1.93Zm4.19-.69v1.17c0,.17-.05.31-.14.41-.09.1-.22.17-.37.2l-1.8.38-.31-2.17h2.62Z"/>
    <path class="cls-3" d="m87.96,89.34c-1.27,0-2.38-.29-3.33-.85-.95-.57-1.69-1.37-2.21-2.41-.52-1.04-.78-2.26-.78-3.67,0-1.21.25-2.3.76-3.28.51-.98,1.22-1.75,2.16-2.31s2.03-.84,3.28-.84c1.1,0,2.06.24,2.88.71.82.48,1.46,1.15,1.93,2.02s.69,1.91.69,3.11c0,.39-.04.66-.13.79-.09.14-.26.2-.51.2h-8.48v.31c.1,1.36.5,2.41,1.18,3.14s1.61,1.1,2.77,1.1c.51,0,1.02-.1,1.53-.31.5-.2.96-.4,1.36-.6.4-.2.7-.29.89-.29.21,0,.37.07.49.2l.72.94c-.38.48-.86.87-1.44,1.17-.58.31-1.2.53-1.85.66s-1.28.2-1.9.2Zm-3.67-8.11h6.73c0-.99-.27-1.8-.82-2.44-.55-.64-1.32-.96-2.31-.96-1.06,0-1.89.3-2.49.89-.6.6-.97,1.43-1.1,2.5Z"/>
    <path class="cls-3" d="m97.44,76.18l-.31,2.17-1.77-.38c-.17-.03-.3-.1-.39-.2-.09-.1-.13-.24-.13-.41v-1.17h2.6Zm-2.6,12.99v-1.17c0-.17.04-.31.13-.41.09-.1.21-.17.39-.2l1.77-.38.31,2.17h-2.6Zm1.88,0v-12.99h1.46c.29,0,.49.05.6.15.11.1.18.28.19.54l.18,1.89c.45-.88.99-1.57,1.63-2.07.64-.49,1.4-.74,2.27-.74.34,0,.66.04.94.13.28.09.54.2.78.33l-.33,1.91c-.02.1-.07.18-.15.24-.09.06-.18.09-.28.09-.12,0-.34-.03-.67-.1-.33-.07-.62-.1-.87-.1-.75,0-1.39.21-1.9.64-.51.43-.94,1.05-1.28,1.86v8.21h-2.57Zm1.82,0l.31-2.17,1.8.38c.15.03.27.1.36.2.09.1.13.24.13.41v1.17h-2.6Z"/>
    <path class="cls-3" d="m110.24,89.37c-.67,0-1.38-.07-2.15-.2s-1.42-.31-1.97-.51v-1.96l1.26.18c.22.15.58.31,1.08.46.5.15,1.06.23,1.7.23.91,0,1.58-.18,2-.55.43-.37.64-.82.64-1.37,0-.48-.15-.85-.46-1.11-.31-.26-.72-.48-1.23-.64-.51-.16-1.05-.33-1.62-.52-.62-.2-1.18-.45-1.68-.73-.51-.28-.91-.64-1.21-1.08s-.45-1-.45-1.68c0-.77.2-1.44.6-2.03.4-.59.96-1.05,1.67-1.38.71-.33,1.52-.5,2.43-.5.56,0,1.16.07,1.77.22s1.27.34,1.95.57v1.56l-1.44-.08c-.34-.1-.7-.19-1.07-.27-.37-.08-.73-.12-1.09-.12-.48,0-.9.07-1.26.22-.36.14-.64.34-.85.6s-.31.54-.31.87c0,.46.18.82.54,1.08.36.26.8.48,1.34.65.53.17,1.03.33,1.49.48.56.17,1.1.39,1.59.66.5.27.9.63,1.22,1.07.32.44.48,1.02.48,1.74,0,.8-.21,1.51-.62,2.13-.41.62-.99,1.11-1.73,1.47-.75.36-1.62.54-2.63.54Zm-2.26-1.79l-1.85-.41v-1.99h.95c.21,0,.35.05.45.14.09.09.15.22.17.37l.28,1.89Zm4.75-9.85l1.85.41v1.99h-.95c-.19,0-.33-.05-.42-.14-.09-.09-.16-.22-.19-.37l-.28-1.89Z"/>
    <path class="cls-3" d="m120.69,89.37c-.7,0-1.34-.13-1.9-.4-.56-.26-1.01-.65-1.34-1.17-.33-.52-.49-1.15-.49-1.9,0-.51.14-1,.42-1.48.28-.48.73-.9,1.35-1.28.63-.36,1.46-.66,2.47-.91,1.01-.25,2.26-.39,3.75-.42v-.92c0-.97-.21-1.7-.63-2.18-.42-.48-1.02-.73-1.81-.73-.46,0-.93.11-1.4.33-.47.22-.9.44-1.3.65-.39.21-.72.32-.98.32-.19,0-.34-.05-.46-.14-.12-.09-.22-.2-.31-.32l-.46-.82c.74-.7,1.53-1.22,2.39-1.56.86-.34,1.8-.51,2.83-.51s1.83.2,2.52.61,1.21.99,1.58,1.73c.37.75.55,1.62.55,2.6v8.27h-1.16c-.24,0-.43-.04-.58-.12-.15-.08-.25-.23-.32-.47l-.26-1.12c-.69.61-1.37,1.08-2.04,1.42-.68.33-1.49.5-2.43.5Zm.77-1.79c.72,0,1.35-.14,1.9-.42.55-.28,1.08-.68,1.59-1.21v-2.53c-.86.02-1.62.08-2.3.18-.68.1-1.25.25-1.73.43-.48.19-.84.42-1.09.7-.25.28-.37.63-.37,1.03,0,.65.19,1.11.57,1.39.38.28.86.42,1.44.42Zm5.27,1.58l.31-2.17,1.8.38c.15.03.28.1.37.2.09.1.14.24.14.41v1.17h-2.62Z"/>
    <path class="cls-3" d="m135.39,89.37c-1.06,0-1.88-.3-2.47-.89-.58-.6-.87-1.44-.87-2.53v-7.73h-1.49c-.15,0-.28-.04-.39-.13-.1-.08-.15-.22-.15-.41v-1.02l2.13-.31.59-3.83c.05-.32.24-.48.57-.48h1.31v4.34h3.65v1.84h-3.65v7.58c0,.49.12.87.37,1.12.25.25.58.38.99.38.19,0,.38-.05.58-.14.2-.09.38-.19.55-.28.17-.09.31-.14.41-.14.12,0,.23.08.33.23l.77,1.22c-.43.36-.93.64-1.49.85-.57.21-1.15.32-1.75.32Z"/>
    <path class="cls-3" d="m142.51,76.18l-.31,2.17-1.77-.38c-.17-.03-.3-.1-.39-.2-.09-.1-.13-.24-.13-.41v-1.17h2.6Zm-2.6,12.99v-1.17c0-.17.04-.31.13-.41.09-.1.21-.17.39-.2l1.77-.38.31,2.17h-2.6Zm3.13-15.26c-.46,0-.87-.17-1.22-.51-.35-.34-.53-.74-.53-1.2s.18-.89.53-1.24c.35-.35.76-.52,1.22-.52s.89.17,1.25.52c.35.35.53.76.53,1.24s-.18.86-.53,1.2c-.35.34-.77.51-1.25.51Zm-1.26,15.26v-12.99h2.57v12.99h-2.57Zm1.82,0l.31-2.17,1.8.38c.15.03.27.1.36.2.09.1.13.24.13.41v1.17h-2.6Z"/>
    <path class="cls-3" d="m153.73,75.97c1.3,0,2.42.28,3.35.83.93.55,1.65,1.33,2.16,2.33.5,1,.76,2.18.76,3.52s-.25,2.5-.76,3.51c-.51,1.01-1.23,1.79-2.16,2.35-.93.55-2.05.83-3.35.83s-2.4-.28-3.35-.83-1.69-1.33-2.21-2.35c-.52-1.01-.78-2.18-.78-3.51s.26-2.52.78-3.52c.52-1,1.26-1.78,2.21-2.33s2.07-.83,3.35-.83Zm0,11.4c1.22,0,2.12-.41,2.72-1.22.6-.82.9-1.97.9-3.47,0-1.02-.13-1.88-.4-2.58-.27-.7-.67-1.23-1.21-1.59-.54-.37-1.21-.55-2.02-.55s-1.53.19-2.08.56c-.55.38-.95.92-1.21,1.62-.26.71-.39,1.55-.39,2.54,0,1.45.3,2.59.9,3.43s1.52,1.26,2.77,1.26Z"/>
    <path class="cls-3" d="m164.14,76.18l-.31,2.17-1.77-.38c-.17-.03-.3-.1-.39-.2-.09-.1-.13-.24-.13-.41v-1.17h2.6Zm-2.6,12.99v-1.17c0-.17.04-.31.13-.41.09-.1.21-.17.39-.2l1.77-.38.31,2.17h-2.6Zm1.88,0v-12.99h1.54c.36,0,.58.17.67.51l.18,1.3c.57-.61,1.19-1.1,1.88-1.47.69-.37,1.48-.55,2.39-.55.96,0,1.76.2,2.4.61.64.41,1.13.99,1.48,1.73.34.75.51,1.61.51,2.58v8.27h-2.59v-8.27c0-.92-.21-1.63-.63-2.14-.42-.51-1.07-.76-1.94-.76-.63,0-1.23.15-1.79.45s-1.07.71-1.53,1.24v9.49h-2.57Zm1.82,0l.31-2.17,1.8.38c.15.03.27.1.36.2.09.1.13.24.13.41v1.17h-2.6Zm8.48,0l.31-2.17,1.8.38c.15.03.27.1.36.2.09.1.13.24.13.41v1.17h-2.59Z"/>
    <path class="cls-3" d="m181.84,89.37c-.67,0-1.38-.07-2.15-.2s-1.42-.31-1.97-.51v-1.96l1.26.18c.22.15.58.31,1.08.46.5.15,1.06.23,1.7.23.91,0,1.58-.18,2-.55.43-.37.64-.82.64-1.37,0-.48-.15-.85-.46-1.11-.31-.26-.72-.48-1.23-.64-.51-.16-1.05-.33-1.62-.52-.62-.2-1.18-.45-1.68-.73-.51-.28-.91-.64-1.21-1.08s-.45-1-.45-1.68c0-.77.2-1.44.6-2.03.4-.59.96-1.05,1.67-1.38.71-.33,1.52-.5,2.43-.5.56,0,1.16.07,1.77.22s1.27.34,1.95.57v1.56l-1.44-.08c-.34-.1-.7-.19-1.07-.27-.37-.08-.73-.12-1.09-.12-.48,0-.9.07-1.26.22-.36.14-.64.34-.85.6s-.31.54-.31.87c0,.46.18.82.54,1.08.36.26.8.48,1.34.65.53.17,1.03.33,1.49.48.56.17,1.1.39,1.59.66.5.27.9.63,1.22,1.07.32.44.48,1.02.48,1.74,0,.8-.21,1.51-.62,2.13-.41.62-.99,1.11-1.73,1.47-.75.36-1.62.54-2.63.54Zm-2.26-1.79l-1.85-.41v-1.99h.95c.21,0,.35.05.45.14.09.09.15.22.17.37l.28,1.89Zm4.75-9.85l1.85.41v1.99h-.95c-.19,0-.33-.05-.42-.14-.09-.09-.16-.22-.19-.37l-.28-1.89Z"/>
  </g>
  <g>
    <path class="cls-3" d="m19.4,121.61v-11.57h1.1v11.57h-1.1Zm.51-5.07v-.95h3.92c1.15,0,2-.21,2.54-.63.54-.42.8-1,.8-1.75s-.27-1.29-.8-1.66c-.54-.37-1.38-.55-2.54-.55h-3.92v-.95h3.92c1.54,0,2.68.27,3.41.82.73.54,1.1,1.32,1.1,2.33,0,.68-.16,1.27-.49,1.78-.33.5-.82.89-1.47,1.17-.66.27-1.48.41-2.48.41h-3.99Z"/>
    <path class="cls-3" d="m30.47,121.61v-8.5h1.03v8.5h-1.03Zm1.03-5.02l-.41-1.34c.31-.84.69-1.44,1.15-1.8.46-.36.92-.54,1.4-.54.22,0,.4.03.56.09.15.06.27.14.36.25.08.1.13.23.13.37,0,.14-.04.25-.13.33-.09.08-.21.13-.39.13-.14,0-.27-.02-.4-.06-.13-.04-.28-.06-.44-.06-.54,0-.98.25-1.32.76s-.51,1.13-.51,1.88Z"/>
    <path class="cls-3" d="m35.54,117.46c0-.92.17-1.72.52-2.4.35-.68.83-1.21,1.46-1.59.62-.38,1.34-.57,2.15-.57s1.48.18,2.09.54c.6.36,1.08.86,1.42,1.5.34.65.51,1.42.51,2.31s-.17,1.7-.52,2.39c-.35.69-.83,1.22-1.45,1.6-.62.38-1.34.57-2.16.57s-1.49-.18-2.09-.54c-.61-.36-1.08-.86-1.42-1.51-.34-.65-.51-1.42-.51-2.3Zm1.06-.05c0,.73.13,1.35.39,1.88s.61.93,1.06,1.22.96.42,1.52.42,1.1-.15,1.57-.44c.46-.29.83-.71,1.1-1.26.27-.54.4-1.18.4-1.92s-.13-1.35-.38-1.88-.61-.93-1.05-1.22-.95-.42-1.52-.42-1.1.15-1.57.44c-.46.29-.83.71-1.1,1.25-.27.54-.4,1.18-.4,1.93Z"/>
    <path class="cls-3" d="m52.5,114.6c0,.15-.04.26-.13.34s-.19.12-.32.12c-.18,0-.33-.07-.45-.2-.11-.13-.24-.28-.38-.44-.14-.16-.34-.31-.58-.44-.25-.13-.59-.2-1.04-.2-.94,0-1.67.33-2.2.99-.53.66-.8,1.53-.8,2.62,0,.74.12,1.36.38,1.88.25.52.61.91,1.08,1.18.47.27,1.03.41,1.68.41.43,0,.86-.06,1.29-.19.43-.12.87-.32,1.33-.58v.92c-.31.2-.67.39-1.1.55-.42.17-.95.25-1.58.25-1.29,0-2.31-.39-3.06-1.17s-1.12-1.84-1.12-3.18c0-.91.17-1.7.52-2.39.35-.69.83-1.22,1.45-1.6.62-.38,1.33-.57,2.14-.57.61,0,1.12.1,1.54.29.42.19.75.41.98.66.24.25.36.5.36.75Z"/>
    <path class="cls-3" d="m58.08,121.81c-1.31,0-2.34-.38-3.07-1.14-.74-.76-1.11-1.81-1.11-3.15,0-.93.18-1.74.53-2.43s.84-1.23,1.46-1.62c.62-.38,1.33-.58,2.12-.58.63,0,1.18.12,1.64.35.47.23.83.55,1.09.94.26.4.39.83.39,1.31s-.12.84-.35,1.16c-.23.32-.56.57-.99.75-.42.18-.92.3-1.48.36s-1.17.05-1.82,0c-.65-.06-1.33-.17-2.02-.33v-.78c.66.15,1.32.25,1.98.3.66.05,1.26.04,1.81-.03.55-.07.99-.23,1.32-.46s.5-.57.5-1.01-.18-.81-.53-1.15c-.35-.33-.86-.5-1.52-.5-.59,0-1.12.15-1.58.45-.46.3-.82.72-1.08,1.27-.26.54-.39,1.19-.39,1.94s.12,1.33.37,1.84c.25.51.6.9,1.07,1.17.47.27,1.04.41,1.73.41.45,0,.9-.06,1.38-.19.47-.12.96-.32,1.45-.58v.92c-.33.2-.73.39-1.2.55-.47.17-1.03.25-1.68.25Z"/>
    <path class="cls-3" d="m65.87,121.81c-.67,0-1.26-.09-1.76-.26-.5-.18-.9-.38-1.18-.62v-1.04c.47.36.95.63,1.45.81.5.18,1,.26,1.52.26.73,0,1.26-.15,1.58-.44.33-.29.49-.64.49-1.04,0-.37-.12-.67-.36-.89-.24-.22-.55-.4-.92-.54s-.78-.26-1.2-.38-.82-.26-1.2-.43-.68-.41-.92-.71c-.24-.3-.36-.69-.36-1.18,0-.44.11-.85.33-1.22s.54-.67.99-.89c.44-.22.98-.33,1.64-.33.54,0,1.01.07,1.42.22.41.15.73.34.97.58.23.24.35.49.35.76,0,.15-.04.26-.11.34-.07.08-.17.12-.28.12-.16,0-.29-.06-.39-.18s-.22-.26-.36-.41c-.14-.15-.33-.29-.57-.41-.25-.12-.58-.18-1.02-.18-.69,0-1.18.15-1.49.46-.31.31-.46.65-.46,1.02s.12.65.36.86c.24.21.55.38.93.51.38.13.78.25,1.2.37.42.12.82.27,1.2.45s.69.43.92.74c.24.31.36.73.36,1.25,0,.43-.11.83-.32,1.2-.21.37-.54.66-.99.88-.45.22-1.04.32-1.77.32Z"/>
    <path class="cls-3" d="m73.76,121.81c-.67,0-1.26-.09-1.76-.26-.5-.18-.9-.38-1.18-.62v-1.04c.47.36.95.63,1.45.81.5.18,1,.26,1.52.26.73,0,1.26-.15,1.58-.44.33-.29.49-.64.49-1.04,0-.37-.12-.67-.36-.89-.24-.22-.55-.4-.92-.54s-.78-.26-1.2-.38c-.42-.12-.82-.26-1.2-.43s-.69-.41-.92-.71c-.24-.3-.36-.69-.36-1.18,0-.44.11-.85.33-1.22.22-.37.54-.67.98-.89.44-.22.99-.33,1.64-.33.54,0,1.01.07,1.42.22.41.15.73.34.97.58.23.24.35.49.35.76,0,.15-.04.26-.11.34-.07.08-.17.12-.28.12-.16,0-.29-.06-.39-.18-.1-.12-.22-.26-.36-.41-.14-.15-.33-.29-.57-.41-.25-.12-.59-.18-1.02-.18-.68,0-1.18.15-1.49.46-.31.31-.46.65-.46,1.02s.12.65.36.86c.24.21.55.38.92.51.38.13.78.25,1.2.37.42.12.82.27,1.2.45s.68.43.92.74c.24.31.36.73.36,1.25,0,.43-.11.83-.32,1.2-.21.37-.54.66-.99.88-.45.22-1.04.32-1.77.32Z"/>
    <path class="cls-3" d="m82.77,117.46c0-.92.17-1.72.52-2.4.35-.68.83-1.21,1.46-1.59.62-.38,1.34-.57,2.15-.57s1.48.18,2.09.54c.6.36,1.08.86,1.42,1.5.34.65.51,1.42.51,2.31s-.17,1.7-.52,2.39c-.35.69-.83,1.22-1.45,1.6-.62.38-1.34.57-2.16.57s-1.49-.18-2.09-.54c-.61-.36-1.08-.86-1.42-1.51-.34-.65-.51-1.42-.51-2.3Zm1.06-.05c0,.73.13,1.35.39,1.88s.61.93,1.06,1.22.96.42,1.52.42,1.1-.15,1.57-.44c.46-.29.83-.71,1.1-1.26.27-.54.4-1.18.4-1.92s-.13-1.35-.38-1.88-.61-.93-1.05-1.22-.95-.42-1.52-.42-1.1.15-1.57.44c-.46.29-.83.71-1.1,1.25-.27.54-.4,1.18-.4,1.93Z"/>
    <path class="cls-3" d="m93.3,121.61v-8.5h1.03v8.5h-1.03Zm1.03-5.02l-.41-1.34c.31-.84.69-1.44,1.15-1.8.46-.36.92-.54,1.4-.54.22,0,.4.03.56.09.15.06.27.14.36.25.08.1.13.23.13.37,0,.14-.04.25-.13.33-.09.08-.21.13-.39.13-.14,0-.27-.02-.4-.06-.13-.04-.28-.06-.44-.06-.54,0-.98.25-1.32.76s-.51,1.13-.51,1.88Z"/>
    <path class="cls-3" d="m105.68,119.47c-.29.73-.71,1.3-1.29,1.72-.57.42-1.26.63-2.07.63-.74,0-1.41-.18-2.01-.54-.6-.36-1.07-.88-1.41-1.54-.34-.66-.51-1.44-.51-2.34s.17-1.68.5-2.35c.34-.67.81-1.19,1.41-1.57.61-.38,1.3-.57,2.09-.57s1.43.18,1.97.55.91.89,1.11,1.56l-.21,1.58c0-.52-.12-.99-.36-1.4-.24-.41-.56-.74-.98-.98s-.89-.36-1.42-.36c-.59,0-1.12.15-1.58.45s-.81.71-1.07,1.24-.39,1.14-.39,1.85.13,1.3.39,1.82c.26.52.61.93,1.07,1.22s.99.43,1.61.43c.81,0,1.47-.25,1.97-.76.5-.5.75-1.17.75-1.98l.41,1.34Zm.62-10.1v12.25h-1.03v-12.25h1.03Z"/>
    <path class="cls-3" d="m112.88,121.81c-1.31,0-2.34-.38-3.07-1.14-.74-.76-1.11-1.81-1.11-3.15,0-.93.18-1.74.53-2.43s.84-1.23,1.46-1.62c.62-.38,1.33-.58,2.12-.58.63,0,1.18.12,1.64.35.47.23.83.55,1.09.94.26.4.39.83.39,1.31s-.12.84-.35,1.16c-.23.32-.56.57-.99.75-.42.18-.92.3-1.48.36s-1.17.05-1.82,0c-.65-.06-1.33-.17-2.02-.33v-.78c.66.15,1.32.25,1.98.3.66.05,1.26.04,1.81-.03.55-.07.99-.23,1.32-.46s.5-.57.5-1.01-.18-.81-.53-1.15c-.35-.33-.86-.5-1.52-.5-.59,0-1.12.15-1.58.45-.46.3-.82.72-1.08,1.27-.26.54-.39,1.19-.39,1.94s.12,1.33.37,1.84c.25.51.6.9,1.07,1.17.47.27,1.04.41,1.73.41.45,0,.9-.06,1.38-.19.47-.12.96-.32,1.45-.58v.92c-.33.2-.73.39-1.2.55-.47.17-1.03.25-1.68.25Z"/>
    <path class="cls-3" d="m118.18,121.61v-8.5h1.03v8.5h-1.03Zm1.03-5.02l-.41-1.34c.31-.84.69-1.44,1.15-1.8.46-.36.92-.54,1.4-.54.22,0,.4.03.56.09s.27.14.36.25c.09.1.13.23.13.37,0,.14-.04.25-.13.33-.08.08-.21.13-.38.13-.14,0-.27-.02-.4-.06-.13-.04-.28-.06-.44-.06-.54,0-.98.25-1.32.76-.34.5-.51,1.13-.51,1.88Z"/>
    <path class="cls-3" d="m126.65,121.81c-.67,0-1.26-.09-1.76-.26-.5-.18-.9-.38-1.18-.62v-1.04c.47.36.95.63,1.45.81.5.18,1,.26,1.52.26.73,0,1.26-.15,1.58-.44.33-.29.49-.64.49-1.04,0-.37-.12-.67-.36-.89-.24-.22-.55-.4-.92-.54s-.78-.26-1.2-.38c-.42-.12-.82-.26-1.2-.43s-.69-.41-.92-.71c-.24-.3-.36-.69-.36-1.18,0-.44.11-.85.33-1.22.22-.37.54-.67.98-.89.44-.22.99-.33,1.64-.33.54,0,1.01.07,1.42.22.41.15.73.34.97.58.23.24.35.49.35.76,0,.15-.04.26-.11.34-.07.08-.17.12-.28.12-.16,0-.29-.06-.39-.18-.1-.12-.22-.26-.36-.41-.14-.15-.33-.29-.57-.41-.25-.12-.59-.18-1.02-.18-.68,0-1.18.15-1.49.46-.31.31-.46.65-.46,1.02s.12.65.36.86c.24.21.55.38.92.51.38.13.78.25,1.2.37.42.12.82.27,1.2.45s.68.43.92.74c.24.31.36.73.36,1.25,0,.43-.11.83-.32,1.2-.21.37-.54.66-.99.88-.45.22-1.04.32-1.77.32Z"/>
    <path class="cls-3" d="m132.8,121.81c-.29,0-.5-.08-.64-.25-.14-.16-.21-.35-.21-.57,0-.23.07-.42.21-.58s.36-.24.64-.24.5.08.64.24c.14.16.21.35.21.58s-.07.41-.21.57c-.14.17-.36.25-.64.25Zm-.86,1.97c.23-.46.39-.89.47-1.28.09-.39.11-.79.08-1.2l1.17-.31c0,.43-.1.91-.31,1.44-.21.53-.46.98-.75,1.35h-.65Z"/>
    <path class="cls-3" d="m143.15,121.81c-.67,0-1.26-.09-1.76-.26-.5-.18-.9-.38-1.18-.62v-1.04c.47.36.95.63,1.45.81.5.18,1,.26,1.52.26.73,0,1.26-.15,1.58-.44.33-.29.49-.64.49-1.04,0-.37-.12-.67-.36-.89-.24-.22-.55-.4-.92-.54s-.78-.26-1.2-.38c-.42-.12-.82-.26-1.2-.43s-.69-.41-.92-.71c-.24-.3-.36-.69-.36-1.18,0-.44.11-.85.33-1.22.22-.37.54-.67.98-.89.44-.22.99-.33,1.64-.33.54,0,1.01.07,1.42.22.41.15.73.34.97.58.23.24.35.49.35.76,0,.15-.04.26-.11.34-.07.08-.17.12-.28.12-.16,0-.29-.06-.39-.18-.1-.12-.22-.26-.36-.41-.14-.15-.33-.29-.57-.41-.25-.12-.59-.18-1.02-.18-.68,0-1.18.15-1.49.46-.31.31-.46.65-.46,1.02s.12.65.36.86c.24.21.55.38.92.51.38.13.78.25,1.2.37.42.12.82.27,1.2.45s.68.43.92.74c.24.31.36.73.36,1.25,0,.43-.11.83-.32,1.2-.21.37-.54.66-.99.88-.45.22-1.04.32-1.77.32Z"/>
    <path class="cls-3" d="m152.15,121.81c-1.31,0-2.34-.38-3.08-1.14s-1.1-1.81-1.1-3.15c0-.93.18-1.74.53-2.43.35-.69.84-1.23,1.46-1.62.62-.38,1.33-.58,2.12-.58.63,0,1.18.12,1.64.35s.83.55,1.09.94c.26.4.39.83.39,1.31s-.12.84-.35,1.16-.56.57-.99.75c-.42.18-.92.3-1.48.36-.56.06-1.17.05-1.82,0-.65-.06-1.32-.17-2.02-.33v-.78c.66.15,1.32.25,1.98.3.66.05,1.26.04,1.81-.03.55-.07.99-.23,1.32-.46s.5-.57.5-1.01-.18-.81-.53-1.15c-.35-.33-.86-.5-1.52-.5-.59,0-1.12.15-1.58.45-.46.3-.82.72-1.08,1.27-.26.54-.39,1.19-.39,1.94s.12,1.33.37,1.84c.25.51.6.9,1.07,1.17.47.27,1.04.41,1.73.41.45,0,.91-.06,1.38-.19s.96-.32,1.45-.58v.92c-.33.2-.73.39-1.2.55-.47.17-1.03.25-1.68.25Z"/>
    <path class="cls-3" d="m157.46,121.61v-8.5h1.03v8.5h-1.03Zm6.03,0v-5.15c0-.62-.11-1.12-.33-1.5s-.5-.66-.87-.83c-.36-.18-.75-.26-1.16-.26-.45,0-.87.1-1.28.29-.41.19-.74.49-.99.89-.26.4-.39.92-.39,1.56l-.41-1.34c.21-.55.49-1.01.85-1.35.36-.35.76-.6,1.2-.76s.87-.24,1.29-.24c.55,0,1.06.12,1.53.37.47.25.85.63,1.14,1.15s.43,1.18.43,1.98v5.2h-1.03Z"/>
    <path class="cls-3" d="m174.02,119.47c-.29.73-.71,1.3-1.29,1.72-.57.42-1.26.63-2.07.63-.74,0-1.41-.18-2.01-.54-.6-.36-1.07-.88-1.41-1.54-.34-.66-.51-1.44-.51-2.34s.17-1.68.5-2.35c.34-.67.81-1.19,1.41-1.57.61-.38,1.3-.57,2.09-.57s1.43.18,1.97.55.91.89,1.11,1.56l-.21,1.58c0-.52-.12-.99-.36-1.4-.24-.41-.56-.74-.98-.98s-.89-.36-1.42-.36c-.59,0-1.12.15-1.58.45s-.81.71-1.07,1.24-.39,1.14-.39,1.85.13,1.3.39,1.82c.26.52.61.93,1.07,1.22s.99.43,1.61.43c.81,0,1.47-.25,1.97-.76.5-.5.75-1.17.75-1.98l.41,1.34Zm.62-10.1v12.25h-1.03v-12.25h1.03Z"/>
    <path class="cls-3" d="m182.03,125.01v-11.91h1.03v11.91h-1.03Zm.62-9.76c.3-.74.73-1.31,1.3-1.73.57-.41,1.26-.62,2.06-.62.75,0,1.43.18,2.02.54.59.36,1.06.87,1.4,1.53.34.66.51,1.44.51,2.35s-.17,1.66-.5,2.34-.8,1.2-1.4,1.58c-.6.38-1.3.57-2.1.57s-1.43-.19-1.97-.56c-.54-.37-.91-.89-1.11-1.55l.21-1.58c0,.52.12.99.36,1.4.24.41.57.74.98.98s.89.36,1.41.36c.59,0,1.12-.15,1.58-.45.46-.3.81-.72,1.07-1.25s.39-1.15.39-1.84-.13-1.3-.39-1.82-.61-.93-1.07-1.22c-.46-.29-.99-.43-1.61-.43-.8,0-1.45.25-1.96.76-.51.5-.76,1.17-.76,1.98l-.41-1.34Z"/>
    <path class="cls-3" d="m194.34,121.81c-.78,0-1.41-.21-1.9-.62-.49-.41-.74-1-.74-1.76,0-.66.21-1.18.62-1.57.42-.39,1.04-.68,1.88-.86l1.44-.31c.64-.14,1.05-.28,1.24-.43.19-.15.28-.37.28-.68v1.33c-.09.1-.24.2-.44.3-.2.1-.5.19-.9.28l-1.37.29c-.49.1-.89.28-1.2.52-.31.24-.46.61-.46,1.1s.16.87.47,1.15c.31.28.73.42,1.24.42.45,0,.87-.1,1.28-.31s.74-.52.99-.92.39-.88.39-1.44l.29,1.29c-.24.79-.65,1.36-1.24,1.71s-1.21.52-1.88.52Zm4.28-.2h-1.03c-.08-.18-.15-.45-.21-.79-.06-.35-.09-.69-.09-1.05l-.12-.32v-3.93c0-.66-.19-1.11-.57-1.34s-.87-.36-1.45-.36c-.51,0-.92.06-1.21.19-.29.12-.52.27-.68.44-.16.17-.3.32-.41.44-.11.12-.26.19-.43.19-.11,0-.21-.03-.29-.1-.08-.07-.12-.17-.12-.31,0-.1.03-.22.09-.36.06-.14.16-.28.31-.44.62-.65,1.53-.97,2.74-.97.58,0,1.1.08,1.56.25.46.16.82.44,1.09.82.27.39.4.9.4,1.55v3.74c0,.49.04.94.13,1.35.08.41.18.75.3,1Z"/>
    <path class="cls-3" d="m203.25,121.61l-3.6-8.5h1.11l3.48,8.5h-.99Zm-2.28,3.61c-.19,0-.38-.02-.57-.07-.19-.05-.34-.12-.46-.21-.12-.1-.18-.22-.18-.38,0-.12.04-.22.12-.29.08-.07.18-.1.31-.1.15,0,.29.03.41.08.13.06.27.09.45.09.19,0,.4-.07.62-.21s.46-.41.72-.8c.26-.39.55-.96.87-1.71l4.62-8.5-3.8,8.98c-.47,1.11-.94,1.91-1.41,2.4-.47.49-1.04.73-1.69.73Zm3.31-3.61h-.99l3.48-8.5h1.11l-3.6,8.5Z"/>
    <path class="cls-3" d="m209.67,121.61v-8.5h1.03v8.5h-1.03Zm5.86,0v-5.15c0-.94-.21-1.61-.63-2.01s-.93-.6-1.55-.6c-.45,0-.87.1-1.28.29-.41.19-.74.49-.99.89s-.39.92-.39,1.56l-.41-1.34c.21-.55.49-1.01.84-1.35.35-.35.75-.6,1.17-.76.43-.16.85-.24,1.28-.24.55,0,1.05.12,1.5.37.45.25.81.62,1.08,1.12.27.5.4,1.12.4,1.87v5.34h-1.03Zm5.86,0v-5.15c0-.94-.21-1.61-.62-2.01s-.93-.6-1.55-.6c-.45,0-.87.1-1.28.29-.41.19-.74.49-.99.89-.26.4-.39.92-.39,1.56l-.57-1.34c.23-.55.53-1.01.91-1.35s.79-.6,1.23-.76.88-.24,1.3-.24c.55,0,1.05.13,1.5.38s.81.64,1.08,1.17.4,1.18.4,1.99v5.17h-1.03Z"/>
    <path class="cls-3" d="m228.83,121.81c-1.31,0-2.34-.38-3.07-1.14-.74-.76-1.11-1.81-1.11-3.15,0-.93.18-1.74.53-2.43s.84-1.23,1.46-1.62c.62-.38,1.33-.58,2.12-.58.63,0,1.18.12,1.64.35.47.23.83.55,1.09.94.26.4.39.83.39,1.31s-.12.84-.35,1.16c-.23.32-.56.57-.99.75-.42.18-.92.3-1.48.36s-1.17.05-1.82,0c-.65-.06-1.33-.17-2.02-.33v-.78c.66.15,1.32.25,1.98.3.66.05,1.26.04,1.81-.03.55-.07.99-.23,1.32-.46s.5-.57.5-1.01-.18-.81-.53-1.15c-.35-.33-.86-.5-1.52-.5-.59,0-1.12.15-1.58.45-.46.3-.82.72-1.08,1.27-.26.54-.39,1.19-.39,1.94s.12,1.33.37,1.84c.25.51.6.9,1.07,1.17.47.27,1.04.41,1.73.41.45,0,.9-.06,1.38-.19.47-.12.96-.32,1.45-.58v.92c-.33.2-.73.39-1.2.55-.47.17-1.03.25-1.68.25Z"/>
    <path class="cls-3" d="m234.13,121.61v-8.5h1.03v8.5h-1.03Zm6.03,0v-5.15c0-.62-.11-1.12-.33-1.5-.22-.38-.51-.66-.87-.83s-.75-.26-1.16-.26c-.45,0-.87.1-1.28.29-.41.19-.74.49-.99.89s-.39.92-.39,1.56l-.41-1.34c.21-.55.49-1.01.85-1.35.36-.35.76-.6,1.2-.76s.87-.24,1.29-.24c.55,0,1.06.12,1.53.37.47.25.85.63,1.14,1.15.29.52.43,1.18.43,1.98v5.2h-1.03Z"/>
    <path class="cls-3" d="m247.73,121.47c-.24.1-.48.18-.71.25-.23.06-.5.09-.8.09-.65,0-1.16-.19-1.53-.57-.37-.38-.56-1-.56-1.86v-5.36h-.84c-.19,0-.33-.04-.41-.12s-.12-.17-.12-.27c0-.11.04-.22.12-.32.08-.1.2-.21.36-.32l1.92-1.31v1.43h2.91v.92h-2.91v5.27c0,.57.1.97.3,1.21.2.24.51.36.93.36.23,0,.45-.03.66-.08.21-.06.44-.13.68-.22v.92Z"/>
    <path class="cls-3" d="m255.03,109.36v10.29c0,.46.07.78.21.95.14.17.37.26.69.26.14,0,.27-.01.39-.03.13-.02.26-.06.41-.1v.85c-.33.16-.68.24-1.04.24-.62,0-1.05-.19-1.31-.58-.26-.39-.39-.87-.39-1.46v-10.41h1.03Z"/>
    <path class="cls-3" d="m259.2,111.34c-.25,0-.44-.07-.57-.22-.13-.15-.19-.32-.19-.53s.06-.38.19-.53c.12-.15.31-.22.57-.22s.44.07.57.22c.12.15.19.32.19.53s-.06.38-.19.53c-.13.15-.31.22-.57.22Zm-.51,10.27v-8.5c.34.03.68.03,1.03,0v8.5h-1.03Z"/>
    <path class="cls-3" d="m262.67,121.61v-8.5h1.03v8.5h-1.03Zm6.03,0v-5.15c0-.62-.11-1.12-.33-1.5-.22-.38-.51-.66-.87-.83s-.75-.26-1.16-.26c-.45,0-.87.1-1.28.29-.41.19-.74.49-.99.89s-.39.92-.39,1.56l-.41-1.34c.21-.55.49-1.01.85-1.35.36-.35.76-.6,1.2-.76s.87-.24,1.29-.24c.55,0,1.06.12,1.53.37.47.25.85.63,1.14,1.15.29.52.43,1.18.43,1.98v5.2h-1.03Z"/>
    <path class="cls-3" d="m272.52,121.61v-12.25h1.03v12.25h-1.03Zm.67-4.54l4.33-3.79c.15-.12.27-.22.38-.28s.21-.09.33-.09c.14,0,.24.04.32.12s.11.18.11.31c0,.1-.03.2-.09.28-.06.08-.14.17-.24.26l-4.2,3.59-.02-.88c.79.98,1.44,1.76,1.94,2.35.51.59.94,1.03,1.29,1.32.35.29.66.47.94.54.28.07.58.06.92-.02v.85c-.11.04-.23.08-.35.1-.12.02-.25.03-.4.03-.39,0-.76-.09-1.12-.28-.36-.19-.73-.47-1.12-.86-.39-.38-.83-.87-1.31-1.46s-1.05-1.28-1.7-2.08Z"/>
    <path class="cls-3" d="m283.66,121.81c-.67,0-1.26-.09-1.76-.26-.5-.18-.9-.38-1.18-.62v-1.04c.47.36.95.63,1.45.81.5.18,1,.26,1.52.26.73,0,1.26-.15,1.58-.44.33-.29.49-.64.49-1.04,0-.37-.12-.67-.36-.89-.24-.22-.55-.4-.92-.54s-.78-.26-1.2-.38c-.42-.12-.82-.26-1.2-.43s-.69-.41-.92-.71c-.24-.3-.36-.69-.36-1.18,0-.44.11-.85.33-1.22.22-.37.54-.67.98-.89.44-.22.99-.33,1.64-.33.54,0,1.01.07,1.42.22.41.15.73.34.97.58.23.24.35.49.35.76,0,.15-.04.26-.11.34-.07.08-.17.12-.28.12-.16,0-.29-.06-.39-.18-.1-.12-.22-.26-.36-.41-.14-.15-.33-.29-.57-.41-.25-.12-.59-.18-1.02-.18-.68,0-1.18.15-1.49.46-.31.31-.46.65-.46,1.02s.12.65.36.86c.24.21.55.38.92.51.38.13.78.25,1.2.37.42.12.82.27,1.2.45s.68.43.92.74c.24.31.36.73.36,1.25,0,.43-.11.83-.32,1.2-.21.37-.54.66-.99.88-.45.22-1.04.32-1.77.32Z"/>
    <path class="cls-3" d="m289.82,121.81c-.29,0-.5-.08-.64-.25-.14-.16-.21-.35-.21-.57,0-.23.07-.42.21-.58s.36-.24.64-.24.5.08.64.24c.14.16.21.35.21.58s-.07.41-.21.57c-.14.17-.36.25-.64.25Zm-.86,1.97c.23-.46.39-.89.47-1.28.09-.39.11-.79.08-1.2l1.17-.31c0,.43-.1.91-.31,1.44-.21.53-.46.98-.75,1.35h-.65Z"/>
    <path class="cls-3" d="m301.64,121.47c-.24.1-.48.18-.71.25s-.5.09-.8.09c-.65,0-1.16-.19-1.53-.57-.37-.38-.56-1-.56-1.86v-5.36h-.84c-.19,0-.33-.04-.41-.12-.08-.08-.12-.17-.12-.27,0-.11.04-.22.12-.32.08-.1.2-.21.36-.32l1.92-1.31v1.43h2.91v.92h-2.91v5.27c0,.57.1.97.3,1.21.2.24.51.36.93.36.23,0,.45-.03.66-.08s.44-.13.68-.22v.92Z"/>
    <path class="cls-3" d="m303.78,121.61v-8.5h1.03v8.5h-1.03Zm1.03-5.02l-.41-1.34c.31-.84.69-1.44,1.15-1.8.46-.36.92-.54,1.4-.54.22,0,.4.03.56.09.15.06.27.14.36.25.08.1.13.23.13.37,0,.14-.04.25-.13.33-.09.08-.21.13-.39.13-.14,0-.27-.02-.4-.06-.13-.04-.28-.06-.44-.06-.54,0-.98.25-1.32.76s-.51,1.13-.51,1.88Z"/>
    <path class="cls-3" d="m310.3,111.34c-.25,0-.44-.07-.57-.22-.13-.15-.19-.32-.19-.53s.06-.38.19-.53c.12-.15.31-.22.57-.22s.44.07.57.22c.12.15.19.32.19.53s-.06.38-.19.53c-.13.15-.31.22-.57.22Zm-.51,10.27v-8.5c.34.03.68.03,1.03,0v8.5h-1.03Z"/>
    <path class="cls-3" d="m317.02,125.22c-.74,0-1.38-.07-1.92-.2-.54-.13-.95-.3-1.23-.52-.13-.09-.22-.19-.29-.29-.07-.1-.1-.21-.1-.32s.04-.21.11-.3c.07-.08.19-.13.33-.13.16,0,.3.04.44.13.13.08.29.19.48.31.19.12.45.22.8.31.34.08.81.13,1.4.13.88,0,1.61-.13,2.19-.4s.87-.7.87-1.3c0-.36-.14-.66-.43-.88s-.82-.34-1.59-.34h-2.62c-.58,0-1.03-.08-1.34-.23-.31-.15-.53-.35-.66-.6-.13-.24-.19-.5-.19-.76,0-.49.17-.88.51-1.17.34-.29.82-.48,1.46-.57l1.54.42c-.71,0-1.25.06-1.61.18s-.61.27-.74.45c-.13.18-.19.36-.19.54,0,.27.11.47.33.59s.6.18,1.12.18h2.6c.84,0,1.52.17,2.03.5.51.33.76.88.76,1.64,0,.85-.34,1.5-1.02,1.95s-1.7.67-3.06.67Zm-.24-6.7c-.98,0-1.78-.24-2.41-.73-.62-.49-.93-1.16-.93-2.01,0-.58.15-1.08.45-1.51.3-.43.71-.76,1.23-1,.53-.24,1.12-.36,1.8-.36l2,.65c.33.16.6.35.8.57.2.22.34.46.44.73s.14.55.14.84c0,.57-.15,1.06-.45,1.49-.3.43-.71.75-1.23.99-.53.23-1.14.35-1.83.35Zm.03-.88c.73,0,1.33-.17,1.79-.5.46-.33.69-.82.69-1.45s-.22-1.09-.67-1.41-1.02-.48-1.73-.48-1.31.17-1.77.5c-.46.33-.69.82-.69,1.45s.22,1.09.67,1.41,1.02.48,1.71.48Zm4.64-3.61c-.49,0-.93-.02-1.31-.06-.38-.04-.86-.12-1.43-.23l-1.8-.83c.79,0,1.55.03,2.29.1.74.07,1.49.1,2.25.1v.92Z"/>
    <path class="cls-3" d="m326.52,125.22c-.74,0-1.38-.07-1.92-.2-.54-.13-.95-.3-1.23-.52-.13-.09-.22-.19-.29-.29-.07-.1-.1-.21-.1-.32s.04-.21.11-.3.19-.13.33-.13c.16,0,.31.04.44.13.13.08.29.19.48.31.19.12.45.22.8.31s.81.13,1.4.13c.88,0,1.61-.13,2.19-.4.58-.27.87-.7.87-1.3,0-.36-.14-.66-.43-.88-.29-.23-.82-.34-1.59-.34h-2.62c-.58,0-1.03-.08-1.34-.23-.31-.15-.53-.35-.66-.6-.13-.24-.19-.5-.19-.76,0-.49.17-.88.5-1.17s.83-.48,1.46-.57l1.54.42c-.71,0-1.24.06-1.61.18-.37.12-.61.27-.74.45-.12.18-.19.36-.19.54,0,.27.11.47.33.59s.6.18,1.12.18h2.6c.85,0,1.52.17,2.03.5.51.33.76.88.76,1.64,0,.85-.34,1.5-1.02,1.95-.68.45-1.7.67-3.06.67Zm-.24-6.7c-.98,0-1.78-.24-2.41-.73-.62-.49-.93-1.16-.93-2.01,0-.58.15-1.08.45-1.51.3-.43.71-.76,1.23-1s1.12-.36,1.8-.36l2,.65c.33.16.6.35.8.57.2.22.35.46.44.73.09.27.14.55.14.84,0,.57-.15,1.06-.45,1.49-.3.43-.71.75-1.23.99s-1.14.35-1.83.35Zm.03-.88c.73,0,1.33-.17,1.79-.5.46-.33.69-.82.69-1.45s-.22-1.09-.67-1.41-1.02-.48-1.73-.48-1.31.17-1.77.5c-.46.33-.69.82-.69,1.45s.22,1.09.67,1.41,1.02.48,1.71.48Zm4.64-3.61c-.49,0-.93-.02-1.31-.06-.38-.04-.86-.12-1.43-.23l-1.8-.83c.79,0,1.55.03,2.29.1.74.07,1.49.1,2.25.1v.92Z"/>
    <path class="cls-3" d="m336.15,121.81c-1.31,0-2.34-.38-3.07-1.14-.74-.76-1.11-1.81-1.11-3.15,0-.93.18-1.74.53-2.43s.84-1.23,1.46-1.62c.62-.38,1.33-.58,2.12-.58.63,0,1.18.12,1.64.35.47.23.83.55,1.09.94.26.4.39.83.39,1.31s-.12.84-.35,1.16c-.23.32-.56.57-.99.75-.42.18-.92.3-1.48.36s-1.17.05-1.82,0c-.65-.06-1.33-.17-2.02-.33v-.78c.66.15,1.32.25,1.98.3.66.05,1.26.04,1.81-.03.55-.07.99-.23,1.32-.46s.5-.57.5-1.01-.18-.81-.53-1.15c-.35-.33-.86-.5-1.52-.5-.59,0-1.12.15-1.58.45-.46.3-.82.72-1.08,1.27-.26.54-.39,1.19-.39,1.94s.12,1.33.37,1.84c.25.51.6.9,1.07,1.17.47.27,1.04.41,1.73.41.45,0,.9-.06,1.38-.19.47-.12.96-.32,1.45-.58v.92c-.33.2-.73.39-1.2.55-.47.17-1.03.25-1.68.25Z"/>
    <path class="cls-3" d="m341.45,121.61v-8.5h1.03v8.5h-1.03Zm1.03-5.02l-.41-1.34c.31-.84.69-1.44,1.15-1.8.46-.36.92-.54,1.4-.54.22,0,.4.03.56.09s.27.14.36.25c.09.1.13.23.13.37,0,.14-.04.25-.13.33-.08.08-.21.13-.38.13-.14,0-.27-.02-.4-.06-.13-.04-.28-.06-.44-.06-.54,0-.98.25-1.32.76-.34.5-.51,1.13-.51,1.88Z"/>
    <path class="cls-3" d="m351.04,114.02c-.18,0-.33-.04-.43-.12-.1-.08-.15-.19-.15-.34s.05-.26.15-.34.25-.12.43-.12h4.73v.92h-4.73Zm.79,7.59v-9.8c0-.59.12-1.08.35-1.47.23-.39.56-.69.97-.88.41-.2.88-.3,1.4-.3.45,0,.79.06,1.03.19.24.12.36.29.36.51,0,.11-.04.21-.11.29-.08.08-.17.12-.3.12-.15,0-.31-.04-.48-.11-.17-.07-.39-.11-.65-.11-.39,0-.74.13-1.06.4-.32.27-.48.72-.48,1.37v9.8h-1.03Z"/>
    <path class="cls-3" d="m356.7,117.46c0-.92.17-1.72.52-2.4.35-.68.83-1.21,1.46-1.59.62-.38,1.34-.57,2.15-.57s1.48.18,2.09.54c.6.36,1.08.86,1.42,1.5.34.65.51,1.42.51,2.31s-.17,1.7-.52,2.39c-.35.69-.83,1.22-1.45,1.6-.62.38-1.34.57-2.16.57s-1.49-.18-2.09-.54c-.61-.36-1.08-.86-1.42-1.51-.34-.65-.51-1.42-.51-2.3Zm1.06-.05c0,.73.13,1.35.39,1.88s.61.93,1.06,1.22.96.42,1.52.42,1.1-.15,1.57-.44c.46-.29.83-.71,1.1-1.26.27-.54.4-1.18.4-1.92s-.13-1.35-.38-1.88-.61-.93-1.05-1.22-.95-.42-1.52-.42-1.1.15-1.57.44c-.46.29-.83.71-1.1,1.25-.27.54-.4,1.18-.4,1.93Z"/>
    <path class="cls-3" d="m368.25,109.36v10.29c0,.46.07.78.21.95.14.17.37.26.69.26.14,0,.27-.01.39-.03.13-.02.26-.06.41-.1v.85c-.33.16-.68.24-1.04.24-.62,0-1.05-.19-1.31-.58-.26-.39-.39-.87-.39-1.46v-10.41h1.03Z"/>
    <path class="cls-3" d="m372.91,109.36v10.29c0,.46.07.78.21.95.14.17.37.26.69.26.14,0,.27-.01.39-.03.12-.02.26-.06.41-.1v.85c-.33.16-.68.24-1.04.24-.62,0-1.05-.19-1.31-.58-.26-.39-.38-.87-.38-1.46v-10.41h1.03Z"/>
    <path class="cls-3" d="m375.75,117.46c0-.92.17-1.72.52-2.4.35-.68.83-1.21,1.46-1.59.62-.38,1.34-.57,2.15-.57s1.48.18,2.09.54c.61.36,1.08.86,1.42,1.5s.51,1.42.51,2.31-.17,1.7-.52,2.39c-.35.69-.83,1.22-1.45,1.6-.62.38-1.34.57-2.16.57s-1.48-.18-2.09-.54c-.61-.36-1.08-.86-1.42-1.51-.34-.65-.51-1.42-.51-2.3Zm1.06-.05c0,.73.13,1.35.38,1.88.26.53.61.93,1.06,1.22s.96.42,1.52.42,1.1-.15,1.57-.44.83-.71,1.1-1.26c.27-.54.4-1.18.4-1.92s-.13-1.35-.39-1.88-.61-.93-1.05-1.22-.95-.42-1.52-.42-1.1.15-1.57.44c-.46.29-.83.71-1.1,1.25-.27.54-.4,1.18-.4,1.93Z"/>
    <path class="cls-3" d="m387.53,121.61l-2.64-8.5h1.11l2.45,8.5h-.92Zm.07,0l2.69-7.91c.09-.27.2-.47.33-.6.13-.13.28-.2.46-.2s.34.07.46.2c.13.13.23.33.33.6l2.69,7.91h-.96l-2.83-8.2h.62l-2.83,8.2h-.96Zm6.1,0l2.45-8.5h1.11l-2.64,8.5h-.93Z"/>
    <path class="cls-3" d="m398.47,116.87h5v.95h-5v-.95Z"/>
    <path class="cls-3" d="m409.46,121.81c-1.03,0-1.87-.29-2.52-.88-.65-.58-.98-1.49-.98-2.73v-5.1h1.03v5.08c0,.9.22,1.57.66,2.01.44.44,1.04.66,1.81.66s1.38-.22,1.82-.66c.43-.44.65-1.11.65-2.01v-5.08h1.03v5.1c0,1.24-.33,2.15-.98,2.73-.65.58-1.49.88-2.52.88Z"/>
    <path class="cls-3" d="m415.75,125.01v-11.91h1.03v11.91h-1.03Zm.62-9.76c.3-.74.73-1.31,1.3-1.73s1.26-.62,2.06-.62c.75,0,1.43.18,2.02.54.59.36,1.06.87,1.41,1.53.34.66.51,1.44.51,2.35s-.17,1.66-.51,2.34-.8,1.2-1.4,1.58c-.6.38-1.3.57-2.1.57s-1.43-.19-1.97-.56c-.54-.37-.91-.89-1.11-1.55l.21-1.58c0,.52.12.99.36,1.4.24.41.57.74.99.98.42.24.89.36,1.41.36.59,0,1.12-.15,1.58-.45.46-.3.81-.72,1.07-1.25s.38-1.15.38-1.84-.13-1.3-.38-1.82-.61-.93-1.07-1.22c-.46-.29-.99-.43-1.61-.43-.8,0-1.45.25-1.96.76-.51.5-.76,1.17-.76,1.98l-.41-1.34Z"/>
    <path class="cls-3" d="m428.41,121.81c-.67,0-1.26-.09-1.76-.26-.5-.18-.9-.38-1.18-.62v-1.04c.47.36.95.63,1.45.81.5.18,1,.26,1.52.26.73,0,1.26-.15,1.58-.44.33-.29.49-.64.49-1.04,0-.37-.12-.67-.36-.89-.24-.22-.55-.4-.92-.54s-.78-.26-1.2-.38-.82-.26-1.2-.43-.68-.41-.92-.71c-.24-.3-.36-.69-.36-1.18,0-.44.11-.85.33-1.22s.54-.67.99-.89c.44-.22.98-.33,1.64-.33.54,0,1.01.07,1.42.22.41.15.73.34.97.58.23.24.35.49.35.76,0,.15-.04.26-.11.34-.07.08-.17.12-.28.12-.16,0-.29-.06-.39-.18s-.22-.26-.36-.41c-.14-.15-.33-.29-.57-.41-.25-.12-.58-.18-1.02-.18-.69,0-1.18.15-1.49.46-.31.31-.46.65-.46,1.02s.12.65.36.86c.24.21.55.38.93.51.38.13.78.25,1.2.37.42.12.82.27,1.2.45s.69.43.92.74c.24.31.36.73.36,1.25,0,.43-.11.83-.32,1.2-.21.37-.54.66-.99.88-.45.22-1.04.32-1.77.32Z"/>
    <path class="cls-3" d="m434.56,121.81c-.29,0-.5-.08-.64-.25-.14-.16-.21-.35-.21-.57,0-.23.07-.42.21-.58s.36-.24.64-.24.5.08.64.24c.14.16.21.35.21.58s-.07.41-.21.57c-.14.17-.36.25-.64.25Zm-.86,1.97c.23-.46.39-.89.47-1.28.09-.39.11-.79.08-1.2l1.17-.31c0,.43-.1.91-.31,1.44-.21.53-.46.98-.75,1.35h-.65Z"/>
    <path class="cls-3" d="m25.5,135.01c0,.15-.04.26-.13.34s-.19.12-.32.12c-.18,0-.33-.07-.45-.2-.11-.13-.24-.28-.38-.44-.14-.16-.34-.31-.58-.44-.25-.13-.59-.2-1.04-.2-.94,0-1.67.33-2.2.99-.53.66-.8,1.53-.8,2.62,0,.74.12,1.36.38,1.88.25.52.61.91,1.08,1.18.47.27,1.03.41,1.68.41.43,0,.86-.06,1.29-.19.43-.12.87-.32,1.33-.58v.92c-.31.2-.67.39-1.1.55-.42.17-.95.25-1.58.25-1.29,0-2.31-.39-3.06-1.17s-1.12-1.84-1.12-3.18c0-.91.17-1.7.52-2.39.35-.69.83-1.22,1.45-1.6.62-.38,1.33-.57,2.14-.57.61,0,1.12.1,1.54.29.42.19.75.41.98.66.24.25.36.5.36.75Z"/>
    <path class="cls-3" d="m26.92,137.87c0-.92.17-1.72.52-2.4.35-.68.83-1.21,1.46-1.59.62-.38,1.34-.57,2.15-.57s1.48.18,2.09.54c.61.36,1.08.86,1.42,1.5s.51,1.42.51,2.31-.17,1.7-.52,2.39c-.35.69-.83,1.22-1.45,1.6-.62.38-1.34.57-2.16.57s-1.48-.18-2.09-.54c-.61-.36-1.08-.86-1.42-1.51-.34-.65-.51-1.42-.51-2.3Zm1.06-.05c0,.73.13,1.35.38,1.88.26.53.61.93,1.06,1.22s.96.42,1.52.42,1.1-.15,1.57-.44.83-.71,1.1-1.26c.27-.54.4-1.18.4-1.92s-.13-1.35-.39-1.88-.61-.93-1.05-1.22-.95-.42-1.52-.42-1.1.15-1.57.44c-.46.29-.83.71-1.1,1.25-.27.54-.4,1.18-.4,1.93Z"/>
    <path class="cls-3" d="m38.47,129.77v10.29c0,.46.07.78.21.95.14.17.37.26.69.26.14,0,.27-.01.39-.03.12-.02.26-.06.41-.1v.85c-.33.16-.68.24-1.04.24-.62,0-1.05-.19-1.31-.58-.26-.39-.38-.87-.38-1.46v-10.41h1.03Z"/>
    <path class="cls-3" d="m43.13,129.77v10.29c0,.46.07.78.21.95.14.17.37.26.69.26.14,0,.27-.01.39-.03.13-.02.26-.06.41-.1v.85c-.33.16-.68.24-1.04.24-.62,0-1.05-.19-1.31-.58-.26-.39-.39-.87-.39-1.46v-10.41h1.03Z"/>
    <path class="cls-3" d="m50.17,142.22c-1.31,0-2.34-.38-3.08-1.14s-1.1-1.81-1.1-3.15c0-.93.18-1.74.53-2.43.35-.69.84-1.23,1.46-1.62.62-.38,1.33-.58,2.12-.58.63,0,1.18.12,1.64.35s.83.55,1.09.94c.26.4.39.83.39,1.31s-.12.84-.35,1.16-.56.57-.99.75c-.42.18-.92.3-1.48.36-.56.06-1.17.05-1.82,0-.65-.06-1.32-.17-2.02-.33v-.78c.66.15,1.32.25,1.98.3.66.05,1.26.04,1.81-.03.55-.07.99-.23,1.32-.46s.5-.57.5-1.01-.18-.81-.53-1.15c-.35-.33-.86-.5-1.52-.5-.59,0-1.12.15-1.58.45-.46.3-.82.72-1.08,1.27-.26.54-.39,1.19-.39,1.94s.12,1.33.37,1.84c.25.51.6.9,1.07,1.17.47.27,1.04.41,1.73.41.45,0,.91-.06,1.38-.19s.96-.32,1.45-.58v.92c-.33.2-.73.39-1.2.55-.47.17-1.03.25-1.68.25Z"/>
    <path class="cls-3" d="m61.9,135.01c0,.15-.04.26-.13.34-.08.08-.19.12-.32.12-.18,0-.33-.07-.45-.2-.11-.13-.24-.28-.39-.44s-.34-.31-.58-.44c-.25-.13-.59-.2-1.04-.2-.94,0-1.67.33-2.2.99s-.8,1.53-.8,2.62c0,.74.13,1.36.38,1.88.25.52.61.91,1.08,1.18.47.27,1.03.41,1.68.41.43,0,.87-.06,1.29-.19.43-.12.87-.32,1.33-.58v.92c-.31.2-.67.39-1.1.55-.42.17-.95.25-1.58.25-1.29,0-2.31-.39-3.06-1.17-.75-.78-1.12-1.84-1.12-3.18,0-.91.17-1.7.52-2.39.35-.69.83-1.22,1.45-1.6.62-.38,1.33-.57,2.14-.57.61,0,1.12.1,1.54.29.42.19.75.41.98.66.24.25.36.5.36.75Z"/>
    <path class="cls-3" d="m68.26,141.88c-.24.1-.48.18-.71.25-.23.06-.5.09-.8.09-.65,0-1.16-.19-1.53-.57-.37-.38-.56-1-.56-1.86v-5.36h-.84c-.19,0-.33-.04-.41-.12s-.12-.17-.12-.27c0-.11.04-.22.12-.32.08-.1.2-.21.36-.32l1.92-1.31v1.43h2.91v.92h-2.91v5.27c0,.57.1.97.3,1.21.2.24.51.36.93.36.23,0,.45-.03.66-.08.21-.06.44-.13.68-.22v.92Z"/>
    <path class="cls-3" d="m73.98,134.43c-.18,0-.33-.04-.43-.12-.1-.08-.15-.19-.15-.34s.05-.26.15-.34c.1-.08.25-.12.43-.12h4.73v.92h-4.73Zm.79,7.59v-9.8c0-.59.12-1.08.35-1.47.23-.39.56-.69.97-.88.41-.2.88-.3,1.4-.3.45,0,.79.06,1.03.19.24.12.36.29.36.51,0,.11-.04.21-.11.29-.07.08-.17.12-.3.12-.15,0-.31-.04-.48-.11-.17-.07-.39-.11-.65-.11-.39,0-.74.13-1.06.4-.32.27-.48.72-.48,1.37v9.8h-1.03Z"/>
    <path class="cls-3" d="m83.8,142.22c-1.31,0-2.34-.38-3.08-1.14s-1.1-1.81-1.1-3.15c0-.93.18-1.74.53-2.43.35-.69.84-1.23,1.46-1.62.62-.38,1.33-.58,2.12-.58.63,0,1.18.12,1.64.35s.83.55,1.09.94c.26.4.39.83.39,1.31s-.12.84-.35,1.16-.56.57-.99.75c-.42.18-.92.3-1.48.36-.56.06-1.17.05-1.82,0-.65-.06-1.32-.17-2.02-.33v-.78c.66.15,1.32.25,1.98.3.66.05,1.26.04,1.81-.03.55-.07.99-.23,1.32-.46s.5-.57.5-1.01-.18-.81-.53-1.15c-.35-.33-.86-.5-1.52-.5-.59,0-1.12.15-1.58.45-.46.3-.82.72-1.08,1.27-.26.54-.39,1.19-.39,1.94s.12,1.33.37,1.84c.25.51.6.9,1.07,1.17.47.27,1.04.41,1.73.41.45,0,.91-.06,1.38-.19s.96-.32,1.45-.58v.92c-.33.2-.73.39-1.2.55-.47.17-1.03.25-1.68.25Z"/>
    <path class="cls-3" d="m92.71,142.22c-1.31,0-2.34-.38-3.08-1.14s-1.1-1.81-1.1-3.15c0-.93.18-1.74.53-2.43.35-.69.84-1.23,1.46-1.62.62-.38,1.33-.58,2.12-.58.63,0,1.18.12,1.64.35s.83.55,1.09.94c.26.4.39.83.39,1.31s-.12.84-.35,1.16-.56.57-.99.75c-.42.18-.92.3-1.48.36-.56.06-1.17.05-1.82,0-.65-.06-1.32-.17-2.02-.33v-.78c.66.15,1.32.25,1.98.3.66.05,1.26.04,1.81-.03.55-.07.99-.23,1.32-.46s.5-.57.5-1.01-.18-.81-.53-1.15c-.35-.33-.86-.5-1.52-.5-.59,0-1.12.15-1.58.45-.46.3-.82.72-1.08,1.27-.26.54-.39,1.19-.39,1.94s.12,1.33.37,1.84c.25.51.6.9,1.07,1.17.47.27,1.04.41,1.73.41.45,0,.91-.06,1.38-.19s.96-.32,1.45-.58v.92c-.33.2-.73.39-1.2.55-.47.17-1.03.25-1.68.25Z"/>
    <path class="cls-3" d="m104.75,139.88c-.29.73-.71,1.3-1.28,1.72-.57.42-1.26.63-2.07.63-.74,0-1.41-.18-2.01-.54-.6-.36-1.07-.88-1.41-1.54-.34-.66-.51-1.44-.51-2.34s.17-1.68.51-2.35c.34-.67.81-1.19,1.41-1.57.6-.38,1.3-.57,2.09-.57s1.43.18,1.97.55c.54.37.91.89,1.11,1.56l-.21,1.58c0-.52-.12-.99-.36-1.4-.24-.41-.57-.74-.98-.98s-.88-.36-1.42-.36c-.59,0-1.12.15-1.58.45-.46.3-.81.71-1.07,1.24-.26.53-.39,1.14-.39,1.85s.13,1.3.39,1.82c.26.52.61.93,1.07,1.22.46.29.99.43,1.61.43.81,0,1.47-.25,1.97-.76.5-.5.75-1.17.75-1.98l.41,1.34Zm.62-10.1v12.25h-1.03v-12.25h1.03Z"/>
    <path class="cls-3" d="m109.32,138.96l-1.03-.66v-8.52h1.03v9.18Zm2.81,3.27c-1.18,0-2.11-.35-2.8-1.06-.69-.71-1.04-1.66-1.04-2.87h1.03c0,.87.26,1.59.78,2.14.52.56,1.2.83,2.03.83.9,0,1.62-.32,2.17-.97s.81-1.5.81-2.57c0-.69-.13-1.3-.38-1.82s-.61-.93-1.07-1.22c-.46-.29-.99-.43-1.61-.43-.8,0-1.45.25-1.96.76-.51.5-.76,1.17-.76,1.98l-.41-1.34c.3-.74.73-1.31,1.3-1.73s1.26-.62,2.06-.62c.75,0,1.43.18,2.02.54.59.36,1.06.87,1.41,1.53.34.66.51,1.44.51,2.35s-.17,1.66-.5,2.34-.8,1.2-1.41,1.58c-.61.38-1.33.57-2.17.57Z"/>
    <path class="cls-3" d="m120.61,142.22c-.78,0-1.41-.21-1.9-.62-.49-.41-.74-1-.74-1.76,0-.66.21-1.18.62-1.57.42-.39,1.04-.68,1.88-.86l1.44-.31c.64-.14,1.05-.28,1.24-.43.19-.15.28-.37.28-.68v1.33c-.09.1-.24.2-.44.3-.2.1-.5.19-.9.28l-1.37.29c-.49.1-.89.28-1.2.52-.31.24-.46.61-.46,1.1s.16.87.47,1.15c.31.28.73.42,1.24.42.45,0,.87-.1,1.28-.31s.74-.52.99-.92c.26-.4.38-.88.38-1.44l.29,1.29c-.24.79-.65,1.36-1.24,1.71-.59.35-1.21.52-1.88.52Zm4.28-.2h-1.03c-.08-.18-.15-.45-.21-.79-.06-.35-.09-.69-.09-1.05l-.12-.32v-3.93c0-.66-.19-1.11-.57-1.34-.38-.24-.87-.36-1.45-.36-.51,0-.92.06-1.21.19s-.52.27-.68.44-.3.32-.41.44-.26.19-.43.19c-.11,0-.21-.03-.29-.1-.08-.07-.12-.17-.12-.31,0-.1.03-.22.08-.36.06-.14.16-.28.31-.44.62-.65,1.53-.97,2.74-.97.58,0,1.1.08,1.56.25.46.16.82.44,1.09.82.27.39.4.9.4,1.55v3.74c0,.49.04.94.13,1.35s.19.75.3,1Z"/>
    <path class="cls-3" d="m133.73,135.01c0,.15-.04.26-.13.34s-.19.12-.32.12c-.18,0-.33-.07-.45-.2-.11-.13-.24-.28-.38-.44-.14-.16-.34-.31-.58-.44-.25-.13-.59-.2-1.04-.2-.94,0-1.67.33-2.2.99-.53.66-.8,1.53-.8,2.62,0,.74.12,1.36.38,1.88.25.52.61.91,1.08,1.18.47.27,1.03.41,1.68.41.43,0,.86-.06,1.29-.19.43-.12.87-.32,1.33-.58v.92c-.31.2-.67.39-1.1.55-.42.17-.95.25-1.58.25-1.29,0-2.31-.39-3.06-1.17s-1.12-1.84-1.12-3.18c0-.91.17-1.7.52-2.39.35-.69.83-1.22,1.45-1.6.62-.38,1.33-.57,2.14-.57.61,0,1.12.1,1.54.29.42.19.75.41.98.66.24.25.36.5.36.75Z"/>
    <path class="cls-3" d="m135.76,142.02v-12.25h1.03v12.25h-1.03Zm.67-4.54l4.33-3.79c.15-.12.27-.22.38-.28s.21-.09.33-.09c.14,0,.24.04.32.12s.11.18.11.31c0,.1-.03.2-.09.28-.06.08-.14.17-.24.26l-4.2,3.59-.02-.88c.79.98,1.44,1.76,1.94,2.35.51.59.94,1.03,1.29,1.32.35.29.66.47.94.54.28.07.58.06.92-.02v.85c-.11.04-.23.08-.35.1-.12.02-.25.03-.4.03-.39,0-.76-.09-1.12-.28-.36-.19-.73-.47-1.12-.86-.39-.38-.83-.87-1.31-1.46s-1.05-1.28-1.7-2.08Z"/>
    <path class="cls-3" d="m145.02,142.22c-.29,0-.5-.08-.64-.25-.14-.16-.21-.35-.21-.57,0-.23.07-.42.21-.58s.36-.24.64-.24.5.08.64.24c.14.16.21.35.21.58s-.07.41-.21.57c-.14.17-.36.25-.64.25Z"/>
    <path class="cls-3" d="m156.14,136.59l-4.64-6.14h1.29l4.3,5.68-.94.46Zm-.05,5.43v-5.77h1.06v5.77h-1.06Zm.99-5.43l-.92-.46,4.3-5.68h1.29l-4.66,6.14Z"/>
    <path class="cls-3" d="m161.38,137.87c0-.92.17-1.72.52-2.4.35-.68.83-1.21,1.46-1.59.62-.38,1.34-.57,2.15-.57s1.48.18,2.09.54c.61.36,1.08.86,1.42,1.5s.51,1.42.51,2.31-.17,1.7-.52,2.39c-.35.69-.83,1.22-1.45,1.6-.62.38-1.34.57-2.16.57s-1.48-.18-2.09-.54c-.61-.36-1.08-.86-1.42-1.51-.34-.65-.51-1.42-.51-2.3Zm1.06-.05c0,.73.13,1.35.38,1.88.26.53.61.93,1.06,1.22s.96.42,1.52.42,1.1-.15,1.57-.44.83-.71,1.1-1.26c.27-.54.4-1.18.4-1.92s-.13-1.35-.39-1.88-.61-.93-1.05-1.22-.95-.42-1.52-.42-1.1.15-1.57.44c-.46.29-.83.71-1.1,1.25-.27.54-.4,1.18-.4,1.93Z"/>
    <path class="cls-3" d="m175.2,142.22c-1.03,0-1.87-.29-2.52-.88-.65-.58-.98-1.49-.98-2.73v-5.1h1.03v5.08c0,.9.22,1.57.66,2.01.44.44,1.04.66,1.81.66s1.38-.22,1.82-.66c.43-.44.65-1.11.65-2.01v-5.08h1.03v5.1c0,1.24-.33,2.15-.98,2.73-.65.58-1.49.88-2.52.88Z"/>
    <path class="cls-3" d="m181.49,142.02v-8.5h1.03v8.5h-1.03Zm1.03-5.02l-.41-1.34c.31-.84.69-1.44,1.15-1.8.46-.36.92-.54,1.4-.54.22,0,.4.03.56.09.15.06.27.14.36.25.08.1.13.23.13.37,0,.14-.04.25-.13.33-.09.08-.21.13-.39.13-.14,0-.27-.02-.4-.06-.13-.04-.28-.06-.44-.06-.54,0-.98.25-1.32.76s-.51,1.13-.51,1.88Z"/>
    <path class="cls-3" d="m195.09,142.22c-1.31,0-2.34-.38-3.08-1.14s-1.1-1.81-1.1-3.15c0-.93.18-1.74.53-2.43.35-.69.84-1.23,1.46-1.62.62-.38,1.33-.58,2.12-.58.63,0,1.18.12,1.64.35s.83.55,1.09.94c.26.4.39.83.39,1.31s-.12.84-.35,1.16-.56.57-.99.75c-.42.18-.92.3-1.48.36-.56.06-1.17.05-1.82,0-.65-.06-1.32-.17-2.02-.33v-.78c.66.15,1.32.25,1.98.3.66.05,1.26.04,1.81-.03.55-.07.99-.23,1.32-.46s.5-.57.5-1.01-.18-.81-.53-1.15c-.35-.33-.86-.5-1.52-.5-.59,0-1.12.15-1.58.45-.46.3-.82.72-1.08,1.27-.26.54-.39,1.19-.39,1.94s.12,1.33.37,1.84c.25.51.6.9,1.07,1.17.47.27,1.04.41,1.73.41.45,0,.91-.06,1.38-.19s.96-.32,1.45-.58v.92c-.33.2-.73.39-1.2.55-.47.17-1.03.25-1.68.25Z"/>
    <path class="cls-3" d="m200.39,142.02v-8.5h1.03v8.5h-1.03Zm6.03,0v-5.15c0-.62-.11-1.12-.33-1.5-.22-.38-.51-.66-.87-.83s-.75-.26-1.16-.26c-.45,0-.87.1-1.28.29-.41.19-.74.49-.99.89s-.39.92-.39,1.56l-.41-1.34c.21-.55.49-1.01.85-1.35.36-.35.76-.6,1.2-.76s.87-.24,1.29-.24c.55,0,1.06.12,1.53.37.47.25.85.63,1.14,1.15.29.52.43,1.18.43,1.98v5.2h-1.03Z"/>
    <path class="cls-3" d="m213.99,141.88c-.24.1-.48.18-.71.25-.23.06-.5.09-.8.09-.65,0-1.16-.19-1.53-.57-.37-.38-.56-1-.56-1.86v-5.36h-.84c-.19,0-.33-.04-.41-.12s-.12-.17-.12-.27c0-.11.04-.22.12-.32.08-.1.2-.21.36-.32l1.92-1.31v1.43h2.91v.92h-2.91v5.27c0,.57.1.97.3,1.21.2.24.51.36.93.36.23,0,.45-.03.66-.08.21-.06.44-.13.68-.22v.92Z"/>
    <path class="cls-3" d="m216.64,131.75c-.25,0-.44-.07-.57-.22-.13-.15-.19-.32-.19-.53s.06-.38.19-.53c.12-.15.31-.22.57-.22s.44.07.57.22c.12.15.19.32.19.53s-.06.38-.19.53c-.13.15-.31.22-.57.22Zm-.51,10.27v-8.5c.34.03.68.03,1.03,0v8.5h-1.03Z"/>
    <path class="cls-3" d="m220.11,142.02v-8.5h1.03v8.5h-1.03Zm1.03-5.02l-.41-1.34c.31-.84.69-1.44,1.15-1.8.46-.36.92-.54,1.4-.54.22,0,.4.03.56.09s.27.14.36.25c.09.1.13.23.13.37,0,.14-.04.25-.13.33-.08.08-.21.13-.38.13-.14,0-.27-.02-.4-.06-.13-.04-.28-.06-.44-.06-.54,0-.98.25-1.32.76-.34.5-.51,1.13-.51,1.88Z"/>
    <path class="cls-3" d="m229.35,142.22c-1.31,0-2.34-.38-3.08-1.14s-1.1-1.81-1.1-3.15c0-.93.18-1.74.53-2.43.35-.69.84-1.23,1.46-1.62.62-.38,1.33-.58,2.12-.58.63,0,1.18.12,1.64.35s.83.55,1.09.94c.26.4.39.83.39,1.31s-.12.84-.35,1.16-.56.57-.99.75c-.42.18-.92.3-1.48.36-.56.06-1.17.05-1.82,0-.65-.06-1.32-.17-2.02-.33v-.78c.66.15,1.32.25,1.98.3.66.05,1.26.04,1.81-.03.55-.07.99-.23,1.32-.46s.5-.57.5-1.01-.18-.81-.53-1.15c-.35-.33-.86-.5-1.52-.5-.59,0-1.12.15-1.58.45-.46.3-.82.72-1.08,1.27-.26.54-.39,1.19-.39,1.94s.12,1.33.37,1.84c.25.51.6.9,1.07,1.17.47.27,1.04.41,1.73.41.45,0,.91-.06,1.38-.19s.96-.32,1.45-.58v.92c-.33.2-.73.39-1.2.55-.47.17-1.03.25-1.68.25Z"/>
    <path class="cls-3" d="m245.24,135.01c0,.15-.04.26-.13.34-.08.08-.19.12-.32.12-.18,0-.33-.07-.45-.2-.11-.13-.24-.28-.39-.44s-.34-.31-.58-.44c-.25-.13-.59-.2-1.04-.2-.94,0-1.67.33-2.2.99s-.8,1.53-.8,2.62c0,.74.13,1.36.38,1.88.25.52.61.91,1.08,1.18.47.27,1.03.41,1.68.41.43,0,.87-.06,1.29-.19.43-.12.87-.32,1.33-.58v.92c-.31.2-.67.39-1.1.55-.42.17-.95.25-1.58.25-1.29,0-2.31-.39-3.06-1.17-.75-.78-1.12-1.84-1.12-3.18,0-.91.17-1.7.52-2.39.35-.69.83-1.22,1.45-1.6.62-.38,1.33-.57,2.14-.57.61,0,1.12.1,1.54.29.42.19.75.41.98.66.24.25.36.5.36.75Z"/>
    <path class="cls-3" d="m250.63,142.22c-1.03,0-1.87-.29-2.52-.88-.65-.58-.98-1.49-.98-2.73v-5.1h1.03v5.08c0,.9.22,1.57.66,2.01.44.44,1.04.66,1.81.66s1.38-.22,1.82-.66c.43-.44.65-1.11.65-2.01v-5.08h1.03v5.1c0,1.24-.33,2.15-.98,2.73-.65.58-1.49.88-2.52.88Z"/>
    <path class="cls-3" d="m259.32,142.22c-.67,0-1.26-.09-1.76-.26-.5-.18-.9-.38-1.18-.62v-1.04c.47.36.95.63,1.45.81.5.18,1,.26,1.52.26.73,0,1.26-.15,1.58-.44.33-.29.49-.64.49-1.04,0-.37-.12-.67-.36-.89-.24-.22-.55-.4-.92-.54s-.78-.26-1.2-.38c-.42-.12-.82-.26-1.2-.43s-.69-.41-.92-.71c-.24-.3-.36-.69-.36-1.18,0-.44.11-.85.33-1.22.22-.37.54-.67.98-.89.44-.22.99-.33,1.64-.33.54,0,1.01.07,1.42.22.41.15.73.34.97.58.23.24.35.49.35.76,0,.15-.04.26-.11.34-.07.08-.17.12-.28.12-.16,0-.29-.06-.39-.18-.1-.12-.22-.26-.36-.41-.14-.15-.33-.29-.57-.41-.25-.12-.59-.18-1.02-.18-.68,0-1.18.15-1.49.46-.31.31-.46.65-.46,1.02s.12.65.36.86c.24.21.55.38.92.51.38.13.78.25,1.2.37.42.12.82.27,1.2.45s.68.43.92.74c.24.31.36.73.36,1.25,0,.43-.11.83-.32,1.2-.21.37-.54.66-.99.88-.45.22-1.04.32-1.77.32Z"/>
    <path class="cls-3" d="m268.79,141.88c-.24.1-.48.18-.71.25-.23.06-.5.09-.8.09-.65,0-1.16-.19-1.53-.57-.37-.38-.56-1-.56-1.86v-5.36h-.84c-.19,0-.33-.04-.41-.12s-.12-.17-.12-.27c0-.11.04-.22.12-.32.08-.1.2-.21.36-.32l1.92-1.31v1.43h2.91v.92h-2.91v5.27c0,.57.1.97.3,1.21.2.24.51.36.93.36.23,0,.45-.03.66-.08.21-.06.44-.13.68-.22v.92Z"/>
    <path class="cls-3" d="m270.06,137.87c0-.92.17-1.72.52-2.4.35-.68.83-1.21,1.46-1.59.62-.38,1.34-.57,2.15-.57s1.48.18,2.09.54c.6.36,1.08.86,1.42,1.5.34.65.51,1.42.51,2.31s-.17,1.7-.52,2.39c-.35.69-.83,1.22-1.45,1.6-.62.38-1.34.57-2.16.57s-1.49-.18-2.09-.54c-.61-.36-1.08-.86-1.42-1.51-.34-.65-.51-1.42-.51-2.3Zm1.06-.05c0,.73.13,1.35.39,1.88s.61.93,1.06,1.22.96.42,1.52.42,1.1-.15,1.57-.44c.46-.29.83-.71,1.1-1.26.27-.54.4-1.18.4-1.92s-.13-1.35-.38-1.88-.61-.93-1.05-1.22-.95-.42-1.52-.42-1.1.15-1.57.44c-.46.29-.83.71-1.1,1.25-.27.54-.4,1.18-.4,1.93Z"/>
    <path class="cls-3" d="m280.58,142.02v-8.5h1.03v8.5h-1.03Zm5.86,0v-5.15c0-.94-.21-1.61-.63-2.01s-.93-.6-1.55-.6c-.45,0-.87.1-1.28.29-.41.19-.74.49-.99.89s-.39.92-.39,1.56l-.41-1.34c.21-.55.49-1.01.84-1.35.35-.35.75-.6,1.17-.76.43-.16.85-.24,1.28-.24.55,0,1.05.12,1.5.37.45.25.81.62,1.08,1.12.27.5.4,1.12.4,1.87v5.34h-1.03Zm5.86,0v-5.15c0-.94-.21-1.61-.62-2.01s-.93-.6-1.55-.6c-.45,0-.87.1-1.28.29-.41.19-.74.49-.99.89-.26.4-.39.92-.39,1.56l-.57-1.34c.23-.55.53-1.01.91-1.35s.79-.6,1.23-.76.88-.24,1.3-.24c.55,0,1.05.13,1.5.38s.81.64,1.08,1.17.4,1.18.4,1.99v5.17h-1.03Z"/>
    <path class="cls-3" d="m299.74,142.22c-1.31,0-2.34-.38-3.07-1.14-.74-.76-1.11-1.81-1.11-3.15,0-.93.18-1.74.53-2.43s.84-1.23,1.46-1.62c.62-.38,1.33-.58,2.12-.58.63,0,1.18.12,1.64.35.47.23.83.55,1.09.94.26.4.39.83.39,1.31s-.12.84-.35,1.16c-.23.32-.56.57-.99.75-.42.18-.92.3-1.48.36s-1.17.05-1.82,0c-.65-.06-1.33-.17-2.02-.33v-.78c.66.15,1.32.25,1.98.3.66.05,1.26.04,1.81-.03.55-.07.99-.23,1.32-.46s.5-.57.5-1.01-.18-.81-.53-1.15c-.35-.33-.86-.5-1.52-.5-.59,0-1.12.15-1.58.45-.46.3-.82.72-1.08,1.27-.26.54-.39,1.19-.39,1.94s.12,1.33.37,1.84c.25.51.6.9,1.07,1.17.47.27,1.04.41,1.73.41.45,0,.9-.06,1.38-.19.47-.12.96-.32,1.45-.58v.92c-.33.2-.73.39-1.2.55-.47.17-1.03.25-1.68.25Z"/>
    <path class="cls-3" d="m305.04,142.02v-8.5h1.03v8.5h-1.03Zm1.03-5.02l-.41-1.34c.31-.84.69-1.44,1.15-1.8.46-.36.92-.54,1.4-.54.22,0,.4.03.56.09s.27.14.36.25c.09.1.13.23.13.37,0,.14-.04.25-.13.33-.08.08-.21.13-.38.13-.14,0-.27-.02-.4-.06-.13-.04-.28-.06-.44-.06-.54,0-.98.25-1.32.76-.34.5-.51,1.13-.51,1.88Z"/>
    <path class="cls-3" d="m313.92,145.63c-.39,0-.71-.06-.96-.19-.25-.12-.38-.29-.38-.51,0-.1.03-.2.09-.28s.17-.13.32-.13c.16,0,.31.04.45.11.14.07.32.11.55.11.32,0,.6-.12.84-.36.24-.24.36-.64.36-1.19v-9.68c.34.03.68.03,1.03,0v9.71c0,.52-.09.96-.28,1.32-.19.36-.45.63-.8.81-.34.18-.75.27-1.22.27Zm1.78-13.88c-.25,0-.44-.07-.57-.22-.13-.15-.19-.32-.19-.53s.06-.38.19-.53c.12-.15.31-.22.57-.22s.44.07.57.22c.12.15.19.32.19.53s-.06.38-.19.53c-.13.15-.31.22-.57.22Z"/>
    <path class="cls-3" d="m318.57,137.87c0-.92.17-1.72.52-2.4.35-.68.83-1.21,1.46-1.59.62-.38,1.34-.57,2.15-.57s1.48.18,2.09.54c.6.36,1.08.86,1.42,1.5.34.65.51,1.42.51,2.31s-.17,1.7-.52,2.39c-.35.69-.83,1.22-1.45,1.6-.62.38-1.34.57-2.16.57s-1.49-.18-2.09-.54c-.61-.36-1.08-.86-1.42-1.51-.34-.65-.51-1.42-.51-2.3Zm1.06-.05c0,.73.13,1.35.39,1.88s.61.93,1.06,1.22.96.42,1.52.42,1.1-.15,1.57-.44c.46-.29.83-.71,1.1-1.26.27-.54.4-1.18.4-1.92s-.13-1.35-.38-1.88-.61-.93-1.05-1.22-.95-.42-1.52-.42-1.1.15-1.57.44c-.46.29-.83.71-1.1,1.25-.27.54-.4,1.18-.4,1.93Z"/>
    <path class="cls-3" d="m332.4,142.22c-1.03,0-1.87-.29-2.52-.88-.65-.58-.98-1.49-.98-2.73v-5.1h1.03v5.08c0,.9.22,1.57.66,2.01.44.44,1.04.66,1.81.66s1.38-.22,1.82-.66c.43-.44.65-1.11.65-2.01v-5.08h1.03v5.1c0,1.24-.33,2.15-.98,2.73-.65.58-1.49.88-2.52.88Z"/>
    <path class="cls-3" d="m338.68,142.02v-8.5h1.03v8.5h-1.03Zm1.03-5.02l-.41-1.34c.31-.84.69-1.44,1.15-1.8.46-.36.92-.54,1.4-.54.22,0,.4.03.56.09.15.06.27.14.36.25.08.1.13.23.13.37,0,.14-.04.25-.13.33-.09.08-.21.13-.39.13-.14,0-.27-.02-.4-.06-.13-.04-.28-.06-.44-.06-.54,0-.98.25-1.32.76s-.51,1.13-.51,1.88Z"/>
    <path class="cls-3" d="m344.69,142.02v-8.5h1.03v8.5h-1.03Zm6.03,0v-5.15c0-.62-.11-1.12-.33-1.5-.22-.38-.51-.66-.87-.83s-.75-.26-1.16-.26c-.45,0-.87.1-1.28.29-.41.19-.74.49-.99.89s-.39.92-.39,1.56l-.41-1.34c.21-.55.49-1.01.85-1.35.36-.35.76-.6,1.2-.76s.87-.24,1.29-.24c.55,0,1.06.12,1.53.37.47.25.85.63,1.14,1.15.29.52.43,1.18.43,1.98v5.2h-1.03Z"/>
    <path class="cls-3" d="m358.14,142.22c-1.31,0-2.34-.38-3.08-1.14s-1.1-1.81-1.1-3.15c0-.93.18-1.74.53-2.43.35-.69.84-1.23,1.46-1.62.62-.38,1.33-.58,2.12-.58.63,0,1.18.12,1.64.35s.83.55,1.09.94c.26.4.39.83.39,1.31s-.12.84-.35,1.16-.56.57-.99.75c-.42.18-.92.3-1.48.36-.56.06-1.17.05-1.82,0-.65-.06-1.32-.17-2.02-.33v-.78c.66.15,1.32.25,1.98.3.66.05,1.26.04,1.81-.03.55-.07.99-.23,1.32-.46s.5-.57.5-1.01-.18-.81-.53-1.15c-.35-.33-.86-.5-1.52-.5-.59,0-1.12.15-1.58.45-.46.3-.82.72-1.08,1.27-.26.54-.39,1.19-.39,1.94s.12,1.33.37,1.84c.25.51.6.9,1.07,1.17.47.27,1.04.41,1.73.41.45,0,.91-.06,1.38-.19s.96-.32,1.45-.58v.92c-.33.2-.73.39-1.2.55-.47.17-1.03.25-1.68.25Z"/>
    <path class="cls-3" d="m365.84,142.02l-3.6-8.5h1.11l3.48,8.5h-.99Zm-2.28,3.61c-.19,0-.38-.02-.57-.07-.19-.05-.34-.12-.46-.21-.12-.1-.18-.22-.18-.38,0-.12.04-.22.12-.29.08-.07.18-.1.31-.1.15,0,.29.03.41.08.13.06.27.09.45.09.19,0,.4-.07.62-.21s.46-.41.72-.8c.26-.39.55-.96.87-1.71l4.62-8.5-3.8,8.98c-.47,1.11-.94,1.91-1.41,2.4-.47.49-1.04.73-1.69.73Zm3.31-3.61h-.99l3.48-8.5h1.11l-3.6,8.5Z"/>
    <path class="cls-3" d="m376.39,142.02v-8.5h1.03v8.5h-1.03Zm1.03-5.02l-.41-1.34c.31-.84.69-1.44,1.15-1.8.46-.36.92-.54,1.4-.54.22,0,.4.03.56.09.15.06.27.14.36.25.08.1.13.23.13.37,0,.14-.04.25-.13.33-.09.08-.21.13-.39.13-.14,0-.27-.02-.4-.06-.13-.04-.28-.06-.44-.06-.54,0-.98.25-1.32.76s-.51,1.13-.51,1.88Z"/>
    <path class="cls-3" d="m385.75,142.22c-1.03,0-1.87-.29-2.52-.88-.65-.58-.98-1.49-.98-2.73v-5.1h1.03v5.08c0,.9.22,1.57.66,2.01.44.44,1.04.66,1.81.66s1.38-.22,1.82-.66c.43-.44.65-1.11.65-2.01v-5.08h1.03v5.1c0,1.24-.33,2.15-.98,2.73-.65.58-1.49.88-2.52.88Z"/>
    <path class="cls-3" d="m392.04,142.02v-8.5h1.03v8.5h-1.03Zm6.03,0v-5.15c0-.62-.11-1.12-.33-1.5-.22-.38-.51-.66-.87-.83s-.75-.26-1.16-.26c-.45,0-.87.1-1.28.29-.41.19-.74.49-.99.89s-.39.92-.39,1.56l-.41-1.34c.21-.55.49-1.01.85-1.35.36-.35.76-.6,1.2-.76s.87-.24,1.29-.24c.55,0,1.06.12,1.53.37.47.25.85.63,1.14,1.15.29.52.43,1.18.43,1.98v5.2h-1.03Z"/>
    <path class="cls-3" d="m404.35,142.22c-.67,0-1.26-.09-1.76-.26-.5-.18-.9-.38-1.18-.62v-1.04c.47.36.95.63,1.45.81.5.18,1,.26,1.52.26.73,0,1.26-.15,1.58-.44.33-.29.49-.64.49-1.04,0-.37-.12-.67-.36-.89-.24-.22-.55-.4-.92-.54s-.78-.26-1.2-.38c-.42-.12-.82-.26-1.2-.43s-.69-.41-.92-.71c-.24-.3-.36-.69-.36-1.18,0-.44.11-.85.33-1.22.22-.37.54-.67.98-.89.44-.22.99-.33,1.64-.33.54,0,1.01.07,1.42.22.41.15.73.34.97.58.23.24.35.49.35.76,0,.15-.04.26-.11.34-.07.08-.17.12-.28.12-.16,0-.29-.06-.39-.18-.1-.12-.22-.26-.36-.41-.14-.15-.33-.29-.57-.41-.25-.12-.59-.18-1.02-.18-.68,0-1.18.15-1.49.46-.31.31-.46.65-.46,1.02s.12.65.36.86c.24.21.55.38.92.51.38.13.78.25,1.2.37.42.12.82.27,1.2.45s.68.43.92.74c.24.31.36.73.36,1.25,0,.43-.11.83-.32,1.2-.21.37-.54.66-.99.88-.45.22-1.04.32-1.77.32Z"/>
    <path class="cls-3" d="m413.36,137.87c0-.92.17-1.72.52-2.4.35-.68.83-1.21,1.46-1.59.62-.38,1.34-.57,2.15-.57s1.48.18,2.09.54c.6.36,1.08.86,1.42,1.5.34.65.51,1.42.51,2.31s-.17,1.7-.52,2.39c-.35.69-.83,1.22-1.45,1.6-.62.38-1.34.57-2.16.57s-1.49-.18-2.09-.54c-.61-.36-1.08-.86-1.42-1.51-.34-.65-.51-1.42-.51-2.3Zm1.06-.05c0,.73.13,1.35.39,1.88s.61.93,1.06,1.22.96.42,1.52.42,1.1-.15,1.57-.44c.46-.29.83-.71,1.1-1.26.27-.54.4-1.18.4-1.92s-.13-1.35-.38-1.88-.61-.93-1.05-1.22-.95-.42-1.52-.42-1.1.15-1.57.44c-.46.29-.83.71-1.1,1.25-.27.54-.4,1.18-.4,1.93Z"/>
    <path class="cls-3" d="m423.88,142.02v-8.5h1.03v8.5h-1.03Zm6.03,0v-5.15c0-.62-.11-1.12-.33-1.5-.22-.38-.51-.66-.87-.83s-.75-.26-1.16-.26c-.45,0-.87.1-1.28.29-.41.19-.74.49-.99.89s-.39.92-.39,1.56l-.41-1.34c.21-.55.49-1.01.85-1.35.36-.35.76-.6,1.2-.76s.87-.24,1.29-.24c.55,0,1.06.12,1.53.37.47.25.85.63,1.14,1.15.29.52.43,1.18.43,1.98v5.2h-1.03Z"/>
    <path class="cls-3" d="m21.22,162.63c-.78,0-1.41-.21-1.9-.62-.49-.41-.74-1-.74-1.76,0-.66.21-1.18.62-1.57.42-.39,1.04-.68,1.88-.86l1.44-.31c.64-.14,1.05-.28,1.24-.43.19-.15.28-.37.28-.68v1.33c-.09.1-.24.2-.44.3-.2.1-.5.19-.9.28l-1.37.29c-.49.1-.89.28-1.2.52-.31.24-.46.61-.46,1.1s.16.87.47,1.15c.31.28.73.42,1.24.42.45,0,.87-.1,1.28-.31s.74-.52.99-.92.39-.88.39-1.44l.29,1.29c-.24.79-.65,1.36-1.24,1.71s-1.21.52-1.88.52Zm4.28-.2h-1.03c-.08-.18-.15-.45-.21-.79-.06-.35-.09-.69-.09-1.05l-.12-.32v-3.93c0-.66-.19-1.11-.57-1.34s-.87-.36-1.45-.36c-.51,0-.92.06-1.21.19-.29.12-.52.27-.68.44-.16.17-.3.32-.41.44-.11.12-.26.19-.43.19-.11,0-.21-.03-.29-.1-.08-.07-.12-.17-.12-.31,0-.1.03-.22.09-.36.06-.14.16-.28.31-.44.62-.65,1.53-.97,2.74-.97.58,0,1.1.08,1.56.25.46.16.82.44,1.09.82.27.39.4.9.4,1.55v3.74c0,.49.04.94.13,1.35.08.41.18.75.3,1Z"/>
    <path class="cls-3" d="m31.22,162.63c-1.03,0-1.87-.29-2.52-.88-.65-.58-.98-1.49-.98-2.73v-5.1h1.03v5.08c0,.9.22,1.57.66,2.01.44.44,1.04.66,1.81.66s1.38-.22,1.82-.66c.43-.44.65-1.11.65-2.01v-5.08h1.03v5.1c0,1.24-.33,2.15-.98,2.73-.65.58-1.49.88-2.52.88Z"/>
    <path class="cls-3" d="m41.52,162.29c-.24.1-.48.18-.71.25-.23.06-.5.09-.8.09-.65,0-1.16-.19-1.53-.57-.37-.38-.56-1-.56-1.86v-5.36h-.84c-.19,0-.33-.04-.41-.12s-.12-.17-.12-.27c0-.11.04-.22.12-.32.08-.1.2-.21.36-.32l1.92-1.31v1.43h2.91v.92h-2.91v5.27c0,.57.1.97.3,1.21.2.24.51.36.93.36.23,0,.45-.03.66-.08.21-.06.44-.13.68-.22v.92Z"/>
    <path class="cls-3" d="m42.79,158.28c0-.92.17-1.72.52-2.4.35-.68.83-1.21,1.46-1.59.62-.38,1.34-.57,2.15-.57s1.48.18,2.09.54c.6.36,1.08.86,1.42,1.5.34.65.51,1.42.51,2.31s-.17,1.7-.52,2.39c-.35.69-.83,1.22-1.45,1.6-.62.38-1.34.57-2.16.57s-1.49-.18-2.09-.54c-.61-.36-1.08-.86-1.42-1.51-.34-.65-.51-1.42-.51-2.3Zm1.06-.05c0,.73.13,1.35.39,1.88s.61.93,1.06,1.22.96.42,1.52.42,1.1-.15,1.57-.44c.46-.29.83-.71,1.1-1.26.27-.54.4-1.18.4-1.92s-.13-1.35-.38-1.88-.61-.93-1.05-1.22-.95-.42-1.52-.42-1.1.15-1.57.44c-.46.29-.83.71-1.1,1.25-.27.54-.4,1.18-.4,1.93Z"/>
    <path class="cls-3" d="m53.31,165.83v-11.91h1.03v11.91h-1.03Zm.62-9.76c.3-.74.73-1.31,1.3-1.73.57-.41,1.26-.62,2.06-.62.75,0,1.43.18,2.02.54.59.36,1.06.87,1.4,1.53.34.66.51,1.44.51,2.35s-.17,1.66-.5,2.34-.8,1.2-1.4,1.58c-.6.38-1.3.57-2.1.57s-1.43-.19-1.97-.56c-.54-.37-.91-.89-1.11-1.55l.21-1.58c0,.52.12.99.36,1.4.24.41.57.74.98.98s.89.36,1.41.36c.59,0,1.12-.15,1.58-.45.46-.3.81-.72,1.07-1.25s.39-1.15.39-1.84-.13-1.3-.39-1.82-.61-.93-1.07-1.22c-.46-.29-.99-.43-1.61-.43-.8,0-1.45.25-1.96.76-.51.5-.76,1.17-.76,1.98l-.41-1.34Z"/>
    <path class="cls-3" d="m64.1,152.16c-.25,0-.44-.07-.57-.22-.12-.15-.19-.32-.19-.53s.06-.38.19-.53c.13-.15.31-.22.57-.22s.44.07.57.22c.13.15.19.32.19.53s-.06.38-.19.53c-.13.15-.31.22-.57.22Zm-.51,10.27v-8.5c.34.03.69.03,1.03,0v8.5h-1.03Z"/>
    <path class="cls-3" d="m68.58,150.18v10.29c0,.46.07.78.21.95.14.17.37.26.69.26.14,0,.27-.01.39-.03.12-.02.26-.06.41-.1v.85c-.33.16-.68.24-1.04.24-.62,0-1.05-.19-1.31-.58-.26-.39-.38-.87-.38-1.46v-10.41h1.03Z"/>
    <path class="cls-3" d="m71.41,158.28c0-.92.17-1.72.52-2.4.35-.68.83-1.21,1.46-1.59.62-.38,1.34-.57,2.15-.57s1.48.18,2.09.54c.61.36,1.08.86,1.42,1.5s.51,1.42.51,2.31-.17,1.7-.52,2.39c-.35.69-.83,1.22-1.45,1.6-.62.38-1.34.57-2.16.57s-1.48-.18-2.09-.54c-.61-.36-1.08-.86-1.42-1.51-.34-.65-.51-1.42-.51-2.3Zm1.06-.05c0,.73.13,1.35.38,1.88.26.53.61.93,1.06,1.22s.96.42,1.52.42,1.1-.15,1.57-.44.83-.71,1.1-1.26c.27-.54.4-1.18.4-1.92s-.13-1.35-.39-1.88-.61-.93-1.05-1.22-.95-.42-1.52-.42-1.1.15-1.57.44c-.46.29-.83.71-1.1,1.25-.27.54-.4,1.18-.4,1.93Z"/>
    <path class="cls-3" d="m85.68,162.29c-.24.1-.48.18-.71.25s-.5.09-.8.09c-.65,0-1.16-.19-1.53-.57-.37-.38-.56-1-.56-1.86v-5.36h-.84c-.19,0-.33-.04-.41-.12-.08-.08-.12-.17-.12-.27,0-.11.04-.22.12-.32.08-.1.2-.21.36-.32l1.92-1.31v1.43h2.91v.92h-2.91v5.27c0,.57.1.97.3,1.21.2.24.51.36.93.36.23,0,.45-.03.66-.08s.44-.13.68-.22v.92Z"/>
    <path class="cls-3" d="m93.12,162.43l-2.64-8.5h1.11l2.45,8.5h-.92Zm.07,0l2.69-7.91c.09-.27.2-.47.33-.6.13-.13.28-.2.46-.2s.34.07.46.2c.13.13.23.33.33.6l2.69,7.91h-.96l-2.83-8.2h.62l-2.83,8.2h-.96Zm6.1,0l2.45-8.5h1.11l-2.64,8.5h-.93Z"/>
    <path class="cls-3" d="m104.65,162.43v-12.25h1.03v12.25h-1.03Zm6.03,0v-5.15c0-.62-.11-1.12-.33-1.5s-.5-.66-.87-.83c-.36-.18-.75-.26-1.16-.26-.45,0-.87.1-1.28.29-.41.19-.74.49-.99.89-.26.4-.39.92-.39,1.56l-.41-1.34c.22-.55.5-1.01.87-1.35.36-.35.76-.6,1.19-.76.43-.16.86-.24,1.28-.24.55,0,1.06.12,1.53.37.47.25.85.63,1.14,1.15s.43,1.18.43,1.98v5.2h-1.03Z"/>
    <path class="cls-3" d="m114.98,152.16c-.25,0-.44-.07-.57-.22-.13-.15-.19-.32-.19-.53s.06-.38.19-.53c.12-.15.31-.22.57-.22s.44.07.57.22c.12.15.19.32.19.53s-.06.38-.19.53c-.13.15-.31.22-.57.22Zm-.51,10.27v-8.5c.34.03.68.03,1.03,0v8.5h-1.03Z"/>
    <path class="cls-3" d="m119.46,150.18v10.29c0,.46.07.78.21.95.14.17.37.26.69.26.14,0,.27-.01.39-.03.13-.02.26-.06.41-.1v.85c-.33.16-.68.24-1.04.24-.62,0-1.05-.19-1.31-.58-.26-.39-.39-.87-.39-1.46v-10.41h1.03Z"/>
    <path class="cls-3" d="m126.5,162.63c-1.31,0-2.34-.38-3.07-1.14-.74-.76-1.11-1.81-1.11-3.15,0-.93.18-1.74.53-2.43s.84-1.23,1.46-1.62c.62-.38,1.33-.58,2.12-.58.63,0,1.18.12,1.64.35.47.23.83.55,1.09.94.26.4.39.83.39,1.31s-.12.84-.35,1.16c-.23.32-.56.57-.99.75-.42.18-.92.3-1.48.36s-1.17.05-1.82,0c-.65-.06-1.33-.17-2.02-.33v-.78c.66.15,1.32.25,1.98.3.66.05,1.26.04,1.81-.03.55-.07.99-.23,1.32-.46s.5-.57.5-1.01-.18-.81-.53-1.15c-.35-.33-.86-.5-1.52-.5-.59,0-1.12.15-1.58.45-.46.3-.82.72-1.08,1.27-.26.54-.39,1.19-.39,1.94s.12,1.33.37,1.84c.25.51.6.9,1.07,1.17.47.27,1.04.41,1.73.41.45,0,.9-.06,1.38-.19.47-.12.96-.32,1.45-.58v.92c-.33.2-.73.39-1.2.55-.47.17-1.03.25-1.68.25Z"/>
    <path class="cls-3" d="m138.25,162.43l-3.6-8.5h1.11l3.48,8.5h-.99Zm-2.28,3.61c-.19,0-.38-.02-.57-.07-.19-.05-.34-.12-.46-.21-.12-.1-.18-.22-.18-.38,0-.12.04-.22.12-.29.08-.07.18-.1.31-.1.15,0,.29.03.41.08.13.06.27.09.45.09.19,0,.4-.07.62-.21s.46-.41.72-.8c.26-.39.55-.96.87-1.71l4.62-8.5-3.8,8.98c-.47,1.11-.94,1.91-1.41,2.4-.47.49-1.04.73-1.69.73Zm3.31-3.61h-.99l3.48-8.5h1.11l-3.6,8.5Z"/>
    <path class="cls-3" d="m143.72,158.28c0-.92.17-1.72.52-2.4.35-.68.83-1.21,1.46-1.59.62-.38,1.34-.57,2.15-.57s1.48.18,2.09.54c.61.36,1.08.86,1.42,1.5s.51,1.42.51,2.31-.17,1.7-.52,2.39c-.35.69-.83,1.22-1.45,1.6-.62.38-1.34.57-2.16.57s-1.48-.18-2.09-.54c-.61-.36-1.08-.86-1.42-1.51-.34-.65-.51-1.42-.51-2.3Zm1.06-.05c0,.73.13,1.35.38,1.88.26.53.61.93,1.06,1.22s.96.42,1.52.42,1.1-.15,1.57-.44.83-.71,1.1-1.26c.27-.54.4-1.18.4-1.92s-.13-1.35-.39-1.88-.61-.93-1.05-1.22-.95-.42-1.52-.42-1.1.15-1.57.44c-.46.29-.83.71-1.1,1.25-.27.54-.4,1.18-.4,1.93Z"/>
    <path class="cls-3" d="m157.54,162.63c-1.03,0-1.87-.29-2.52-.88-.65-.58-.98-1.49-.98-2.73v-5.1h1.03v5.08c0,.9.22,1.57.66,2.01.44.44,1.04.66,1.81.66s1.38-.22,1.82-.66c.43-.44.65-1.11.65-2.01v-5.08h1.03v5.1c0,1.24-.33,2.15-.98,2.73-.65.58-1.49.88-2.52.88Z"/>
    <path class="cls-3" d="m167.62,154.84c-.18,0-.33-.04-.43-.12-.1-.08-.15-.19-.15-.34s.05-.26.15-.34.25-.12.43-.12h4.73v.92h-4.73Zm.79,7.59v-9.8c0-.59.12-1.08.35-1.47.23-.39.56-.69.97-.88.41-.2.88-.3,1.4-.3.45,0,.79.06,1.03.19.24.12.36.29.36.51,0,.11-.04.21-.11.29-.08.08-.17.12-.3.12-.15,0-.31-.04-.48-.11-.17-.07-.39-.11-.65-.11-.39,0-.74.13-1.06.4-.32.27-.48.72-.48,1.37v9.8h-1.03Z"/>
    <path class="cls-3" d="m173.27,158.28c0-.92.17-1.72.52-2.4.35-.68.83-1.21,1.46-1.59.62-.38,1.34-.57,2.15-.57s1.48.18,2.09.54c.6.36,1.08.86,1.42,1.5.34.65.51,1.42.51,2.31s-.17,1.7-.52,2.39c-.35.69-.83,1.22-1.45,1.6-.62.38-1.34.57-2.16.57s-1.49-.18-2.09-.54c-.61-.36-1.08-.86-1.42-1.51-.34-.65-.51-1.42-.51-2.3Zm1.06-.05c0,.73.13,1.35.39,1.88s.61.93,1.06,1.22.96.42,1.52.42,1.1-.15,1.57-.44c.46-.29.83-.71,1.1-1.26.27-.54.4-1.18.4-1.92s-.13-1.35-.38-1.88-.61-.93-1.05-1.22-.95-.42-1.52-.42-1.1.15-1.57.44c-.46.29-.83.71-1.1,1.25-.27.54-.4,1.18-.4,1.93Z"/>
    <path class="cls-3" d="m190.23,155.42c0,.15-.04.26-.13.34s-.19.12-.32.12c-.18,0-.33-.07-.45-.2-.11-.13-.24-.28-.38-.44-.14-.16-.34-.31-.58-.44-.25-.13-.59-.2-1.04-.2-.94,0-1.67.33-2.2.99-.53.66-.8,1.53-.8,2.62,0,.74.12,1.36.38,1.88.25.52.61.91,1.08,1.18.47.27,1.03.41,1.68.41.43,0,.86-.06,1.29-.19.43-.12.87-.32,1.33-.58v.92c-.31.2-.67.39-1.1.55-.42.17-.95.25-1.58.25-1.29,0-2.31-.39-3.06-1.17s-1.12-1.84-1.12-3.18c0-.91.17-1.7.52-2.39.35-.69.83-1.22,1.45-1.6.62-.38,1.33-.57,2.14-.57.61,0,1.12.1,1.54.29.42.19.75.41.98.66.24.25.36.5.36.75Z"/>
    <path class="cls-3" d="m195.62,162.63c-1.03,0-1.87-.29-2.52-.88-.65-.58-.98-1.49-.98-2.73v-5.1h1.03v5.08c0,.9.22,1.57.66,2.01.44.44,1.04.66,1.81.66s1.38-.22,1.82-.66c.43-.44.65-1.11.65-2.01v-5.08h1.03v5.1c0,1.24-.33,2.15-.98,2.73-.65.58-1.49.88-2.52.88Z"/>
    <path class="cls-3" d="m204.31,162.63c-.67,0-1.26-.09-1.76-.26-.5-.18-.9-.38-1.18-.62v-1.04c.47.36.95.63,1.45.81.5.18,1,.26,1.52.26.73,0,1.26-.15,1.58-.44.33-.29.49-.64.49-1.04,0-.37-.12-.67-.36-.89-.24-.22-.55-.4-.92-.54s-.78-.26-1.2-.38-.82-.26-1.2-.43-.68-.41-.92-.71c-.24-.3-.36-.69-.36-1.18,0-.44.11-.85.33-1.22s.54-.67.99-.89c.44-.22.98-.33,1.64-.33.54,0,1.01.07,1.42.22.41.15.73.34.97.58.23.24.35.49.35.76,0,.15-.04.26-.11.34-.07.08-.17.12-.28.12-.16,0-.29-.06-.39-.18s-.22-.26-.36-.41c-.14-.15-.33-.29-.57-.41-.25-.12-.58-.18-1.02-.18-.69,0-1.18.15-1.49.46-.31.31-.46.65-.46,1.02s.12.65.36.86c.24.21.55.38.93.51.38.13.78.25,1.2.37.42.12.82.27,1.2.45s.69.43.92.74c.24.31.36.73.36,1.25,0,.43-.11.83-.32,1.2-.21.37-.54.66-.99.88-.45.22-1.04.32-1.77.32Z"/>
    <path class="cls-3" d="m213.32,158.28c0-.92.17-1.72.52-2.4.35-.68.83-1.21,1.46-1.59.62-.38,1.34-.57,2.15-.57s1.48.18,2.09.54c.61.36,1.08.86,1.42,1.5s.51,1.42.51,2.31-.17,1.7-.52,2.39c-.35.69-.83,1.22-1.45,1.6-.62.38-1.34.57-2.16.57s-1.48-.18-2.09-.54c-.61-.36-1.08-.86-1.42-1.51-.34-.65-.51-1.42-.51-2.3Zm1.06-.05c0,.73.13,1.35.38,1.88.26.53.61.93,1.06,1.22s.96.42,1.52.42,1.1-.15,1.57-.44.83-.71,1.1-1.26c.27-.54.4-1.18.4-1.92s-.13-1.35-.39-1.88-.61-.93-1.05-1.22-.95-.42-1.52-.42-1.1.15-1.57.44c-.46.29-.83.71-1.1,1.25-.27.54-.4,1.18-.4,1.93Z"/>
    <path class="cls-3" d="m223.84,162.43v-8.5h1.03v8.5h-1.03Zm6.03,0v-5.15c0-.62-.11-1.12-.33-1.5s-.5-.66-.87-.83c-.36-.18-.75-.26-1.16-.26-.45,0-.87.1-1.28.29-.41.19-.74.49-.99.89-.26.4-.39.92-.39,1.56l-.41-1.34c.21-.55.49-1.01.85-1.35.36-.35.76-.6,1.2-.76s.87-.24,1.29-.24c.55,0,1.06.12,1.53.37.47.25.85.63,1.14,1.15s.43,1.18.43,1.98v5.2h-1.03Z"/>
    <path class="cls-3" d="m241.19,166.04c-.74,0-1.38-.07-1.92-.2-.54-.13-.95-.3-1.23-.52-.13-.09-.22-.19-.29-.29-.07-.1-.1-.21-.1-.32s.04-.21.11-.3c.07-.08.19-.13.33-.13.16,0,.3.04.44.13.13.08.29.19.48.31.19.12.45.22.8.31.34.08.81.13,1.4.13.88,0,1.61-.13,2.19-.4s.87-.7.87-1.3c0-.36-.14-.66-.43-.88s-.82-.34-1.59-.34h-2.62c-.58,0-1.03-.08-1.34-.23-.31-.15-.53-.35-.66-.6-.13-.24-.19-.5-.19-.76,0-.49.17-.88.51-1.17.34-.29.82-.48,1.46-.57l1.54.42c-.71,0-1.25.06-1.61.18s-.61.27-.74.45c-.13.18-.19.36-.19.54,0,.27.11.47.33.59s.6.18,1.12.18h2.6c.84,0,1.52.17,2.03.5.51.33.76.88.76,1.64,0,.85-.34,1.5-1.02,1.95s-1.7.67-3.06.67Zm-.24-6.7c-.98,0-1.78-.24-2.41-.73-.62-.49-.93-1.16-.93-2.01,0-.58.15-1.08.45-1.51.3-.43.71-.76,1.23-1,.53-.24,1.12-.36,1.8-.36l2,.65c.33.16.6.35.8.57.2.22.34.46.44.73s.14.55.14.84c0,.57-.15,1.06-.45,1.49-.3.43-.71.75-1.23.99-.53.23-1.14.35-1.83.35Zm.03-.88c.73,0,1.33-.17,1.79-.5.46-.33.69-.82.69-1.45s-.22-1.09-.67-1.41-1.02-.48-1.73-.48-1.31.17-1.77.5c-.46.33-.69.82-.69,1.45s.22,1.09.67,1.41,1.02.48,1.71.48Zm4.64-3.61c-.49,0-.93-.02-1.31-.06-.38-.04-.86-.12-1.43-.23l-1.8-.83c.79,0,1.55.03,2.29.1.74.07,1.49.1,2.25.1v.92Z"/>
    <path class="cls-3" d="m247.53,162.43v-8.5h1.03v8.5h-1.03Zm1.03-5.02l-.41-1.34c.31-.84.69-1.44,1.15-1.8.46-.36.92-.54,1.4-.54.22,0,.4.03.56.09.15.06.27.14.36.25.08.1.13.23.13.37,0,.14-.04.25-.13.33-.09.08-.21.13-.39.13-.14,0-.27-.02-.4-.06-.13-.04-.28-.06-.44-.06-.54,0-.98.25-1.32.76s-.51,1.13-.51,1.88Z"/>
    <path class="cls-3" d="m252.6,158.28c0-.92.17-1.72.52-2.4.35-.68.83-1.21,1.46-1.59.62-.38,1.34-.57,2.15-.57s1.48.18,2.09.54c.6.36,1.08.86,1.42,1.5.34.65.51,1.42.51,2.31s-.17,1.7-.52,2.39c-.35.69-.83,1.22-1.45,1.6-.62.38-1.34.57-2.16.57s-1.49-.18-2.09-.54c-.61-.36-1.08-.86-1.42-1.51-.34-.65-.51-1.42-.51-2.3Zm1.06-.05c0,.73.13,1.35.39,1.88s.61.93,1.06,1.22.96.42,1.52.42,1.1-.15,1.57-.44c.46-.29.83-.71,1.1-1.26.27-.54.4-1.18.4-1.92s-.13-1.35-.38-1.88-.61-.93-1.05-1.22-.95-.42-1.52-.42-1.1.15-1.57.44c-.46.29-.83.71-1.1,1.25-.27.54-.4,1.18-.4,1.93Z"/>
    <path class="cls-3" d="m264.38,162.43l-2.64-8.5h1.11l2.45,8.5h-.92Zm.07,0l2.69-7.91c.09-.27.2-.47.33-.6.12-.13.28-.2.46-.2s.34.07.46.2c.13.13.23.33.33.6l2.69,7.91h-.96l-2.83-8.2h.62l-2.83,8.2h-.96Zm6.1,0l2.45-8.5h1.11l-2.64,8.5h-.92Z"/>
    <path class="cls-3" d="m276.42,152.16c-.25,0-.44-.07-.57-.22-.13-.15-.19-.32-.19-.53s.06-.38.19-.53c.12-.15.31-.22.57-.22s.44.07.57.22c.12.15.19.32.19.53s-.06.38-.19.53c-.13.15-.31.22-.57.22Zm-.51,10.27v-8.5c.34.03.68.03,1.03,0v8.5h-1.03Z"/>
    <path class="cls-3" d="m279.89,162.43v-8.5h1.03v8.5h-1.03Zm6.03,0v-5.15c0-.62-.11-1.12-.33-1.5-.22-.38-.51-.66-.87-.83s-.75-.26-1.16-.26c-.45,0-.87.1-1.28.29-.41.19-.74.49-.99.89s-.39.92-.39,1.56l-.41-1.34c.21-.55.49-1.01.85-1.35.36-.35.76-.6,1.2-.76s.87-.24,1.29-.24c.55,0,1.06.12,1.53.37.47.25.85.63,1.14,1.15.29.52.43,1.18.43,1.98v5.2h-1.03Z"/>
    <path class="cls-3" d="m293.01,166.04c-.74,0-1.38-.07-1.92-.2-.54-.13-.95-.3-1.23-.52-.13-.09-.22-.19-.29-.29-.07-.1-.1-.21-.1-.32s.04-.21.11-.3c.07-.08.19-.13.33-.13.16,0,.3.04.44.13.13.08.29.19.48.31.19.12.45.22.8.31.34.08.81.13,1.4.13.88,0,1.61-.13,2.19-.4s.87-.7.87-1.3c0-.36-.14-.66-.43-.88s-.82-.34-1.59-.34h-2.62c-.58,0-1.03-.08-1.34-.23-.31-.15-.53-.35-.66-.6-.13-.24-.19-.5-.19-.76,0-.49.17-.88.51-1.17.34-.29.82-.48,1.46-.57l1.54.42c-.71,0-1.25.06-1.61.18s-.61.27-.74.45c-.13.18-.19.36-.19.54,0,.27.11.47.33.59s.6.18,1.12.18h2.6c.84,0,1.52.17,2.03.5.51.33.76.88.76,1.64,0,.85-.34,1.5-1.02,1.95s-1.7.67-3.06.67Zm-.24-6.7c-.98,0-1.78-.24-2.41-.73-.62-.49-.93-1.16-.93-2.01,0-.58.15-1.08.45-1.51.3-.43.71-.76,1.23-1,.53-.24,1.12-.36,1.8-.36l2,.65c.33.16.6.35.8.57.2.22.34.46.44.73s.14.55.14.84c0,.57-.15,1.06-.45,1.49-.3.43-.71.75-1.23.99-.53.23-1.14.35-1.83.35Zm.03-.88c.73,0,1.33-.17,1.79-.5.46-.33.69-.82.69-1.45s-.22-1.09-.67-1.41-1.02-.48-1.73-.48-1.31.17-1.77.5c-.46.33-.69.82-.69,1.45s.22,1.09.67,1.41,1.02.48,1.71.48Zm4.64-3.61c-.49,0-.93-.02-1.31-.06-.38-.04-.86-.12-1.43-.23l-1.8-.83c.79,0,1.55.03,2.29.1.74.07,1.49.1,2.25.1v.92Z"/>
    <path class="cls-3" d="m307.41,162.29c-.24.1-.48.18-.71.25s-.5.09-.8.09c-.65,0-1.16-.19-1.53-.57-.37-.38-.56-1-.56-1.86v-5.36h-.84c-.19,0-.33-.04-.41-.12-.08-.08-.12-.17-.12-.27,0-.11.04-.22.12-.32.08-.1.2-.21.36-.32l1.92-1.31v1.43h2.91v.92h-2.91v5.27c0,.57.1.97.3,1.21.2.24.51.36.93.36.23,0,.45-.03.66-.08s.44-.13.68-.22v.92Z"/>
    <path class="cls-3" d="m309.55,162.43v-12.25h1.03v12.25h-1.03Zm6.03,0v-5.15c0-.62-.11-1.12-.33-1.5-.22-.38-.51-.66-.87-.83s-.75-.26-1.16-.26c-.45,0-.87.1-1.28.29-.41.19-.74.49-.99.89s-.39.92-.39,1.56l-.41-1.34c.22-.55.51-1.01.87-1.35.36-.35.76-.6,1.19-.76s.86-.24,1.29-.24c.55,0,1.06.12,1.53.37.47.25.85.63,1.14,1.15.29.52.43,1.18.43,1.98v5.2h-1.03Z"/>
    <path class="cls-3" d="m322.99,162.63c-1.31,0-2.34-.38-3.07-1.14-.74-.76-1.11-1.81-1.11-3.15,0-.93.18-1.74.53-2.43s.84-1.23,1.46-1.62c.62-.38,1.33-.58,2.12-.58.63,0,1.18.12,1.64.35.47.23.83.55,1.09.94.26.4.39.83.39,1.31s-.12.84-.35,1.16c-.23.32-.56.57-.99.75-.42.18-.92.3-1.48.36s-1.17.05-1.82,0c-.65-.06-1.33-.17-2.02-.33v-.78c.66.15,1.32.25,1.98.3.66.05,1.26.04,1.81-.03.55-.07.99-.23,1.32-.46s.5-.57.5-1.01-.18-.81-.53-1.15c-.35-.33-.86-.5-1.52-.5-.59,0-1.12.15-1.58.45-.46.3-.82.72-1.08,1.27-.26.54-.39,1.19-.39,1.94s.12,1.33.37,1.84c.25.51.6.9,1.07,1.17.47.27,1.04.41,1.73.41.45,0,.9-.06,1.38-.19.47-.12.96-.32,1.45-.58v.92c-.33.2-.73.39-1.2.55-.47.17-1.03.25-1.68.25Z"/>
    <path class="cls-3" d="m333.64,159.37l-1.03-.66v-8.52h1.03v9.18Zm2.81,3.27c-1.18,0-2.11-.35-2.8-1.06-.69-.71-1.04-1.66-1.04-2.87h1.03c0,.87.26,1.59.78,2.14.52.56,1.2.83,2.03.83.9,0,1.62-.32,2.17-.97.54-.65.81-1.5.81-2.57,0-.69-.13-1.3-.39-1.82s-.61-.93-1.07-1.22c-.46-.29-.99-.43-1.61-.43-.8,0-1.45.25-1.96.76-.51.5-.76,1.17-.76,1.98l-.41-1.34c.3-.74.73-1.31,1.3-1.73.57-.41,1.26-.62,2.06-.62.75,0,1.43.18,2.02.54.59.36,1.06.87,1.4,1.53.34.66.51,1.44.51,2.35s-.17,1.66-.5,2.34c-.33.67-.8,1.2-1.41,1.58-.61.38-1.33.57-2.17.57Z"/>
    <path class="cls-3" d="m346.22,162.63c-1.03,0-1.87-.29-2.52-.88-.65-.58-.98-1.49-.98-2.73v-5.1h1.03v5.08c0,.9.22,1.57.66,2.01.44.44,1.04.66,1.81.66s1.38-.22,1.82-.66c.43-.44.65-1.11.65-2.01v-5.08h1.03v5.1c0,1.24-.33,2.15-.98,2.73-.65.58-1.49.88-2.52.88Z"/>
    <path class="cls-3" d="m354.91,162.63c-.67,0-1.26-.09-1.76-.26-.5-.18-.9-.38-1.18-.62v-1.04c.47.36.95.63,1.45.81.5.18,1,.26,1.52.26.73,0,1.26-.15,1.58-.44.33-.29.49-.64.49-1.04,0-.37-.12-.67-.36-.89-.24-.22-.55-.4-.92-.54s-.78-.26-1.2-.38-.82-.26-1.2-.43-.68-.41-.92-.71c-.24-.3-.36-.69-.36-1.18,0-.44.11-.85.33-1.22s.54-.67.99-.89c.44-.22.98-.33,1.64-.33.54,0,1.01.07,1.42.22.41.15.73.34.97.58.23.24.35.49.35.76,0,.15-.04.26-.11.34-.07.08-.17.12-.28.12-.16,0-.29-.06-.39-.18s-.22-.26-.36-.41c-.14-.15-.33-.29-.57-.41-.25-.12-.58-.18-1.02-.18-.69,0-1.18.15-1.49.46-.31.31-.46.65-.46,1.02s.12.65.36.86c.24.21.55.38.93.51.38.13.78.25,1.2.37.42.12.82.27,1.2.45s.69.43.92.74c.24.31.36.73.36,1.25,0,.43-.11.83-.32,1.2-.21.37-.54.66-.99.88-.45.22-1.04.32-1.77.32Z"/>
    <path class="cls-3" d="m360.79,152.16c-.25,0-.44-.07-.57-.22-.12-.15-.19-.32-.19-.53s.06-.38.19-.53c.13-.15.31-.22.57-.22s.44.07.57.22c.13.15.19.32.19.53s-.06.38-.19.53c-.13.15-.31.22-.57.22Zm-.51,10.27v-8.5c.34.03.69.03,1.03,0v8.5h-1.03Z"/>
    <path class="cls-3" d="m364.26,162.43v-8.5h1.03v8.5h-1.03Zm6.03,0v-5.15c0-.62-.11-1.12-.33-1.5s-.5-.66-.87-.83c-.36-.18-.75-.26-1.16-.26-.45,0-.87.1-1.28.29-.41.19-.74.49-.99.89-.26.4-.39.92-.39,1.56l-.41-1.34c.21-.55.49-1.01.85-1.35.36-.35.76-.6,1.2-.76s.87-.24,1.29-.24c.55,0,1.06.12,1.53.37.47.25.85.63,1.14,1.15s.43,1.18.43,1.98v5.2h-1.03Z"/>
    <path class="cls-3" d="m377.71,162.63c-1.31,0-2.34-.38-3.08-1.14s-1.1-1.81-1.1-3.15c0-.93.18-1.74.53-2.43.35-.69.84-1.23,1.46-1.62.62-.38,1.33-.58,2.12-.58.63,0,1.18.12,1.64.35s.83.55,1.09.94c.26.4.39.83.39,1.31s-.12.84-.35,1.16-.56.57-.99.75c-.42.18-.92.3-1.48.36-.56.06-1.17.05-1.82,0-.65-.06-1.32-.17-2.02-.33v-.78c.66.15,1.32.25,1.98.3.66.05,1.26.04,1.81-.03.55-.07.99-.23,1.32-.46s.5-.57.5-1.01-.18-.81-.53-1.15c-.35-.33-.86-.5-1.52-.5-.59,0-1.12.15-1.58.45-.46.3-.82.72-1.08,1.27-.26.54-.39,1.19-.39,1.94s.12,1.33.37,1.84c.25.51.6.9,1.07,1.17.47.27,1.04.41,1.73.41.45,0,.91-.06,1.38-.19s.96-.32,1.45-.58v.92c-.33.2-.73.39-1.2.55-.47.17-1.03.25-1.68.25Z"/>
    <path class="cls-3" d="m385.49,162.63c-.67,0-1.26-.09-1.76-.26-.5-.18-.9-.38-1.18-.62v-1.04c.47.36.95.63,1.45.81.5.18,1,.26,1.52.26.73,0,1.26-.15,1.58-.44.33-.29.49-.64.49-1.04,0-.37-.12-.67-.36-.89-.24-.22-.55-.4-.92-.54s-.78-.26-1.2-.38-.82-.26-1.2-.43-.68-.41-.92-.71c-.24-.3-.36-.69-.36-1.18,0-.44.11-.85.33-1.22s.54-.67.99-.89c.44-.22.98-.33,1.64-.33.54,0,1.01.07,1.42.22.41.15.73.34.97.58.23.24.35.49.35.76,0,.15-.04.26-.11.34-.07.08-.17.12-.28.12-.16,0-.29-.06-.39-.18s-.22-.26-.36-.41c-.14-.15-.33-.29-.57-.41-.25-.12-.58-.18-1.02-.18-.69,0-1.18.15-1.49.46-.31.31-.46.65-.46,1.02s.12.65.36.86c.24.21.55.38.93.51.38.13.78.25,1.2.37.42.12.82.27,1.2.45s.69.43.92.74c.24.31.36.73.36,1.25,0,.43-.11.83-.32,1.2-.21.37-.54.66-.99.88-.45.22-1.04.32-1.77.32Z"/>
    <path class="cls-3" d="m393.38,162.63c-.67,0-1.26-.09-1.76-.26-.5-.18-.9-.38-1.18-.62v-1.04c.47.36.95.63,1.45.81.5.18,1,.26,1.52.26.73,0,1.26-.15,1.58-.44.33-.29.49-.64.49-1.04,0-.37-.12-.67-.36-.89-.24-.22-.55-.4-.92-.54s-.78-.26-1.2-.38c-.42-.12-.82-.26-1.2-.43s-.69-.41-.92-.71c-.24-.3-.36-.69-.36-1.18,0-.44.11-.85.33-1.22.22-.37.54-.67.98-.89.44-.22.99-.33,1.64-.33.54,0,1.01.07,1.42.22.41.15.73.34.97.58.23.24.35.49.35.76,0,.15-.04.26-.11.34-.07.08-.17.12-.28.12-.16,0-.29-.06-.39-.18-.1-.12-.22-.26-.36-.41-.14-.15-.33-.29-.57-.41-.25-.12-.59-.18-1.02-.18-.68,0-1.18.15-1.49.46-.31.31-.46.65-.46,1.02s.12.65.36.86c.24.21.55.38.92.51.38.13.78.25,1.2.37.42.12.82.27,1.2.45s.68.43.92.74c.24.31.36.73.36,1.25,0,.43-.11.83-.32,1.2-.21.37-.54.66-.99.88-.45.22-1.04.32-1.77.32Z"/>
    <path class="cls-3" d="m399.54,162.63c-.29,0-.5-.08-.64-.25-.14-.16-.21-.35-.21-.57,0-.23.07-.42.21-.58s.36-.24.64-.24.5.08.64.24c.14.16.21.35.21.58s-.07.41-.21.57c-.14.17-.36.25-.64.25Z"/>
  </g>
  <path class="cls-2" d="m346.25,287.5c0-.06-.01-.11-.02-.16,0-.11,0-.21-.02-.31-.01-.11-.03-.23-.05-.34-.02-.11-.04-.22-.06-.33-.02-.09-.05-.18-.07-.28-.03-.11-.07-.21-.11-.32-.04-.11-.08-.22-.13-.32-.04-.1-.09-.19-.14-.28-.03-.05-.04-.1-.07-.15-.03-.05-.07-.09-.1-.13-.06-.09-.11-.18-.17-.27-.07-.09-.14-.18-.21-.27-.07-.09-.15-.18-.22-.26-.07-.07-.13-.14-.2-.2-.08-.08-.17-.15-.25-.22-.09-.08-.18-.15-.28-.22-.09-.06-.17-.11-.26-.17-.05-.03-.08-.07-.13-.1l-108.25-62.5s-.1-.04-.15-.07c-.16-.08-.32-.15-.49-.22-.14-.06-.29-.12-.43-.16-.15-.05-.31-.08-.47-.11-.16-.03-.32-.07-.48-.08-.16-.02-.32-.01-.48-.01-.16,0-.32,0-.48.01-.16.02-.32.05-.48.08-.16.03-.31.06-.47.11-.15.04-.29.1-.44.16-.17.07-.33.13-.49.22-.05.03-.1.04-.15.07l-27.06,15.62s-.09.07-.13.1c-.09.06-.18.11-.26.17-.09.07-.18.14-.27.22-.09.07-.17.14-.26.22-.07.07-.13.13-.2.2-.08.08-.15.17-.22.26-.07.09-.15.18-.21.27-.06.09-.12.17-.17.26-.03.05-.07.09-.1.13-.03.05-.04.1-.07.15-.05.09-.1.19-.14.28-.05.1-.09.21-.13.32-.04.11-.08.21-.11.32-.03.09-.05.18-.07.28-.03.11-.05.22-.06.33-.02.11-.04.23-.05.34-.01.1-.01.21-.02.31,0,.06-.02.11-.02.16v53.84l-46.63-26.92s-.1-.04-.15-.07c-.16-.08-.32-.15-.48-.22-.15-.06-.29-.12-.44-.17-.15-.04-.3-.07-.45-.1-.17-.03-.33-.07-.5-.08-.15-.01-.3-.01-.46-.01-.17,0-.33,0-.5.01-.16.02-.31.05-.46.08-.16.03-.33.06-.48.11-.14.04-.28.1-.42.16-.17.07-.34.14-.5.22-.05.03-.1.04-.15.07l-27.06,15.62s-.09.07-.13.1c-.09.06-.18.11-.27.17-.09.07-.18.14-.27.21-.09.07-.17.14-.26.22-.07.07-.14.13-.2.2-.08.08-.15.17-.22.26-.07.09-.15.18-.21.27-.06.09-.12.17-.17.26-.03.05-.07.08-.1.13-.03.05-.04.1-.07.15-.05.09-.1.19-.14.28-.05.1-.09.21-.13.32-.04.11-.08.21-.11.32-.03.09-.05.18-.07.28-.03.11-.05.22-.06.33-.02.11-.04.23-.05.34-.01.1-.01.21-.02.31,0,.06-.02.11-.02.16v125c0,.06.01.11.02.16,0,.18.03.36.05.54.02.15.04.31.08.45.04.16.09.31.14.46.05.15.1.31.17.46.07.15.15.28.23.42.08.14.16.28.25.41.09.13.2.25.31.37.11.12.21.24.33.36.11.1.23.2.35.29.14.11.28.22.44.32.05.03.08.07.13.1l27.06,15.62s0,0,.01,0c.14.08.29.15.44.22,0,0,0,0,.01,0,.04.02.07.04.11.05.01,0,.02.01.04.02.06.03.13.04.19.07.2.07.4.13.6.18.06.01.13.03.19.04.3.05.6.09.9.09,0,0,0,0,0,0s0,0,0,0c.3,0,.6-.04.9-.09.06-.01.13-.02.19-.04.23-.05.46-.12.68-.2.04-.01.08-.02.11-.04.01,0,.03-.01.04-.02.04-.02.07-.04.11-.05.02,0,.04-.02.05-.03.14-.06.27-.12.4-.2,0,0,0,0,.01,0l46.63-26.92v53.84c0,.06.01.11.02.16,0,.18.03.36.05.54.02.15.04.31.08.45.04.16.09.31.14.46.05.15.1.31.17.46.07.15.15.28.23.42.08.14.16.28.25.41.09.13.2.25.31.37.11.12.21.24.33.36.11.1.23.2.35.29.14.11.28.22.44.32.05.03.08.07.13.1l27.06,15.62s0,0,.01,0c.14.08.29.15.44.22,0,0,0,0,.01,0,.04.02.07.04.11.05.01,0,.02.01.04.02.06.03.13.04.19.07.2.07.4.13.6.18.06.01.13.03.19.04.3.05.6.09.9.09,0,0,0,0,0,0s0,0,0,0c.3,0,.6-.04.9-.09.06-.01.13-.02.19-.04.22-.05.44-.12.66-.2.04-.02.09-.03.13-.04.01,0,.02-.01.04-.02.04-.02.07-.04.11-.05.01,0,.03-.01.04-.02.14-.06.28-.13.41-.2,0,0,0,0,.01,0l108.25-62.5s.09-.07.13-.1c.15-.1.3-.2.44-.32.12-.09.24-.19.35-.29.12-.11.22-.23.33-.36.11-.12.21-.24.31-.37.09-.13.17-.27.25-.41.08-.14.16-.27.23-.42.07-.15.12-.3.17-.46.05-.15.11-.3.14-.46.04-.15.05-.3.08-.45.03-.18.05-.36.05-.54,0-.06.02-.11.02-.16v-31.25c0-.06-.01-.11-.02-.16,0-.11,0-.21-.02-.31-.01-.11-.03-.23-.05-.34-.02-.11-.04-.22-.06-.33-.02-.09-.05-.18-.07-.28-.03-.11-.07-.21-.11-.32-.04-.11-.08-.22-.13-.32-.04-.1-.09-.19-.14-.28-.03-.05-.04-.1-.07-.15-.03-.05-.07-.09-.1-.13-.06-.09-.11-.18-.17-.27-.07-.09-.14-.18-.21-.27-.07-.09-.15-.18-.22-.26-.07-.07-.13-.14-.2-.2-.08-.08-.17-.15-.25-.22-.09-.08-.18-.15-.28-.22-.09-.06-.17-.11-.26-.17-.05-.03-.08-.07-.13-.1l-46.63-26.92,46.63-26.92s.09-.07.13-.1c.15-.1.3-.2.44-.32.12-.09.24-.19.35-.29.12-.11.22-.23.33-.36.11-.12.21-.24.31-.37.09-.13.17-.27.25-.41.08-.14.16-.27.23-.42.07-.15.12-.3.17-.46.05-.15.11-.3.14-.46.04-.15.05-.3.08-.45.03-.18.05-.36.05-.54,0-.06.02-.11.02-.16v-31.25Zm-88.69,73.79s-.09.07-.13.1c-.15.1-.3.2-.44.32-.12.09-.24.19-.35.29-.12.11-.22.23-.33.36-.11.12-.21.24-.31.37-.09.13-.17.27-.25.41-.08.14-.16.27-.23.42-.07.15-.12.3-.17.46-.05.15-.11.3-.14.46-.04.15-.05.3-.08.45-.03.18-.05.36-.05.54,0,.06-.02.11-.02.16v62.5c0,.1.02.18.03.28,0,.18.02.36.05.54.03.16.06.32.11.47.04.15.09.31.14.46.06.17.14.34.22.5.04.08.07.17.11.25.04.06.08.12.12.18.04.07.09.14.14.21.16.22.32.43.51.62.01.01.02.03.03.04.21.21.43.39.67.55.05.04.11.07.17.11.21.14.43.26.66.36.04.02.08.04.12.06.26.11.53.19.81.25.07.02.14.03.21.04.3.05.59.09.9.09s.6-.04.9-.09c.06-.01.13-.02.19-.04.28-.06.56-.14.83-.26.04-.02.07-.04.11-.05.16-.07.31-.14.47-.23l73.69-42.54v19.7l-98.25,56.73v-113.45l98.25-56.73v19.7l-78.69,45.43Zm-46.64,4.17c0-.18-.03-.36-.05-.54-.02-.15-.04-.31-.08-.45-.04-.16-.09-.31-.14-.46-.05-.15-.1-.31-.17-.46-.07-.15-.15-.28-.23-.42-.08-.14-.16-.28-.25-.41-.09-.13-.2-.25-.31-.37-.11-.12-.21-.24-.33-.36-.11-.1-.23-.2-.35-.29-.14-.11-.28-.22-.44-.32-.05-.03-.08-.07-.13-.1l-54.13-31.25c-.08-.05-.17-.07-.26-.12-.16-.08-.32-.16-.49-.22-.16-.06-.31-.1-.47-.15-.15-.04-.3-.08-.46-.1-.19-.03-.37-.05-.55-.06-.09,0-.18-.03-.27-.03-.05,0-.1.01-.16.02-.19,0-.37.03-.55.06-.15.02-.3.04-.44.07-.16.04-.32.09-.47.15-.15.05-.3.1-.45.17-.15.07-.28.15-.42.23-.14.08-.27.16-.4.25-.13.09-.25.2-.38.31-.12.11-.24.21-.35.33-.1.11-.2.23-.29.36-.11.14-.22.28-.31.44-.03.05-.07.08-.1.13-.05.08-.07.17-.11.25-.08.16-.16.32-.22.5-.06.15-.1.3-.14.46-.04.16-.08.31-.11.47-.03.18-.04.36-.05.54,0,.09-.03.18-.03.28v85.09l-17.06-9.85v-113.45l98.25,56.73v113.45l-17.06-9.85v-90.86c0-.06-.01-.11-.02-.16Zm-59.11-87.81l78.69,45.43s0,0,.01,0c.14.08.29.15.44.22.05.02.11.06.16.08.06.03.13.04.19.07.55.2,1.12.31,1.69.31,0,0,0,0,0,0s0,0,0,0c.59,0,1.18-.11,1.75-.33.04-.02.09-.03.13-.04.06-.03.13-.06.19-.09.14-.06.28-.13.41-.2,0,0,0,0,.01,0l54.08-31.22s.01,0,.02,0l.03-.02s.02-.02.03-.02c.25-.14.48-.32.7-.5.05-.04.1-.09.15-.13.21-.19.41-.4.59-.63.03-.04.05-.08.08-.12.1-.14.2-.27.28-.42.03-.05.04-.1.07-.15.09-.16.15-.32.22-.49.06-.14.12-.28.16-.43.05-.16.08-.31.11-.47.03-.16.07-.32.08-.48.02-.16.01-.32.01-.48,0-.16,0-.32-.01-.48-.02-.16-.05-.32-.08-.48-.03-.16-.06-.32-.11-.47-.04-.15-.1-.29-.16-.43-.07-.17-.14-.33-.22-.49-.03-.05-.04-.1-.07-.15-.05-.08-.11-.15-.16-.23-.1-.15-.2-.3-.32-.44-.1-.13-.22-.24-.33-.36-.11-.11-.22-.22-.35-.32-.15-.12-.3-.22-.45-.33-.08-.05-.14-.11-.22-.16l-73.69-42.54,17.06-9.85,98.25,56.73-98.25,56.73-98.25-56.73,17.06-9.85Zm59.13-28.36l66.19,38.21-44.13,25.48-22.06-12.74v-50.95Zm-54.13,170.18v-76.43l44.13,25.48v25.48l-44.13,25.48Zm174.44-38.21l-66.19,38.21v-50.95l22.06-12.74,44.13,25.48Z"/>
</svg>