<?xml version="1.0" encoding="UTF-8"?>
<svg id="Layer_1" data-name="Layer 1" xmlns="http://www.w3.org/2000/svg" xmlns:xlink="http://www.w3.org/1999/xlink" viewBox="0 0 466 540">
  <defs>
    <style>
      .cls-1 {
        fill: #fff;
      }

      .cls-2 {
        fill: #471b52;
      }

      .cls-3 {
        fill: #e65e03;
        opacity: .6;
      }

      .cls-4 {
        fill: none;
        opacity: .7;
      }

      .cls-5 {
        fill: url(#linear-gradient);
      }
    </style>
    <linearGradient id="linear-gradient" x1="121.86" y1="-35.37" x2="344.14" y2="575.37" gradientUnits="userSpaceOnUse">
      <stop offset="0" stop-color="#e65e03" stop-opacity="0"/>
      <stop offset="1" stop-color="#e65e03"/>
    </linearGradient>
  </defs>
  <rect class="cls-5" width="466" height="540" rx="30" ry="30"/>
  <g class="cls-4">
    <path class="cls-1" d="m466,325h-7.86c-4.86,0-8.5,1.49-10.92,4.46-2.43,2.98-4.21,7.02-5.35,12.12l-3.44,16.58h-37.67c-6.57,0-13.7.64-21.41,1.91-7.71,1.28-15.42,3.05-23.12,5.32l60.81-62.08c11.13-11.33,21.26-22.46,30.4-33.38,7.35-8.78,13.53-18.03,18.57-27.74v-94.16c-.2-.33-.38-.66-.58-.99-8.28-13.46-19.91-23.95-34.9-31.46-14.99-7.51-32.62-11.27-52.88-11.27-28.84,0-53.31,7.8-73.44,23.39-20.13,15.59-32.48,38.41-37.04,68.46,14.84,2.84,25.33,4.75,31.47,5.74,6.14,1,10.63,1.49,13.49,1.49,6,0,10.71-1.42,14.13-4.25,3.43-2.83,6.28-7.51,8.56-14.03,3.14-7.65,8.14-14.03,14.99-19.13,6.85-5.1,14.84-7.65,23.98-7.65,8.28,0,15.05,1.42,20.34,4.25,5.28,2.84,9.21,7.09,11.78,12.76,2.57,5.67,3.85,12.76,3.85,21.26,0,10.21-1.86,19.92-5.57,29.13-3.71,9.21-8.93,18.22-15.63,27-6.71,8.79-14.77,18-24.19,27.64l-89.93,90.14c-4.28,3.69-7.28,7.87-8.99,12.54-1.71,4.68-2.57,9.14-2.57,13.39v21.26h203.13v-92.69Z"/>
    <path class="cls-1" d="m6.37,262.5c0,27.21,2.92,50.75,8.78,70.58,5.85,19.84,13.92,36.29,24.19,49.32,10.28,13.04,22.41,22.75,36.4,29.13,13.98,6.38,29.26,9.57,45.82,9.57s31.97-3.19,46.25-9.57c14.27-6.38,26.55-16.08,36.83-29.13,10.28-13.04,18.34-29.48,24.19-49.32,5.85-19.84,8.78-43.37,8.78-70.58s-2.93-50.31-8.78-70.16c-5.85-19.84-13.92-36.28-24.19-49.32-10.28-13.04-22.55-22.75-36.83-29.13-14.28-6.38-29.69-9.57-46.25-9.57s-31.83,3.19-45.82,9.57c-13.99,6.38-26.12,16.09-36.4,29.13-10.28,13.04-18.35,29.48-24.19,49.32-5.85,19.84-8.78,43.23-8.78,70.16Zm72.58-52.51c2.71-13.75,6.21-24.45,10.49-32.1,4.28-7.93,9.27-13.32,14.99-16.16,5.71-2.83,11.41-4.25,17.13-4.25,5.99,0,11.84,1.42,17.56,4.25,5.71,2.84,10.85,8.08,15.42,15.73,4.28,7.94,7.77,18.78,10.49,32.53,2.71,13.75,4.07,31.4,4.07,52.94s-1.36,38.69-4.07,52.3c-2.72,13.61-6.21,24.38-10.49,32.32-4.57,7.94-9.71,13.33-15.42,16.16-5.71,2.84-11.42,4.25-17.13,4.25-5.99,0-11.85-1.42-17.56-4.25-5.71-2.83-10.71-8.22-14.99-16.16-4.28-7.93-7.78-18.71-10.49-32.32-2.72-13.61-4.07-31.04-4.07-52.3s1.35-39.18,4.07-52.94Z"/>
  </g>
  <g>
    <path class="cls-2" d="m21.75,58.55h3.24c2.23,0,4.05-.37,5.49-1.12,1.43-.75,2.5-1.79,3.2-3.13.7-1.33,1.05-2.88,1.05-4.63,0-2.64-.81-4.71-2.43-6.21-1.62-1.51-4.08-2.26-7.39-2.26h-5.78v17.35h2.62Zm3.01-15.05c2.4,0,4.2.5,5.4,1.5,1.2,1,1.8,2.56,1.8,4.67,0,1.36-.26,2.53-.77,3.52-.51.99-1.3,1.74-2.36,2.27-1.06.53-2.42.79-4.06.79h-3.01v-12.76h3.01Z"/>
    <path class="cls-2" d="m48.37,57.63v-1.86c-.72.38-1.45.66-2.18.84-.74.19-1.46.28-2.18.28-.98,0-1.78-.18-2.42-.54-.63-.36-1.11-.88-1.44-1.56-.28-.58-.43-1.28-.47-2.09.68.14,1.35.26,2.01.33.96.1,1.86.12,2.71.04.85-.08,1.6-.25,2.25-.52.65-.27,1.16-.65,1.52-1.14.36-.48.54-1.08.54-1.8,0-.75-.2-1.44-.6-2.07-.4-.63-.99-1.13-1.75-1.51s-1.67-.56-2.74-.56c-1.27,0-2.38.29-3.35.87s-1.73,1.39-2.27,2.42c-.55,1.04-.82,2.25-.82,3.65,0,2.02.57,3.6,1.72,4.73,1.15,1.13,2.76,1.7,4.83,1.7,1.01,0,1.9-.12,2.67-.37.77-.25,1.43-.53,1.98-.85Zm-6.8-9.68c.59-.38,1.26-.57,2.02-.57.86,0,1.51.21,1.97.62.45.42.68.91.68,1.47s-.21.97-.63,1.28c-.42.31-.99.51-1.7.6-.71.09-1.51.1-2.4.03-.57-.05-1.16-.14-1.76-.26.08-.55.22-1.05.42-1.49.34-.73.81-1.29,1.4-1.67Z"/>
    <path class="cls-2" d="m55.74,58.85c1.18,0,2.15-.17,2.92-.5s1.33-.79,1.71-1.38c.38-.59.57-1.23.57-1.93,0-.78-.18-1.41-.53-1.88-.35-.47-.8-.84-1.36-1.12-.56-.28-1.14-.51-1.76-.68-.62-.17-1.2-.34-1.76-.52-.56-.18-1.01-.41-1.36-.69-.35-.28-.53-.65-.53-1.11s.2-.9.59-1.28c.39-.37,1.01-.56,1.85-.56.58,0,1.05.08,1.41.25s.65.37.87.59c.22.22.43.42.63.59s.43.25.71.25.49-.08.66-.24c.16-.16.24-.4.24-.7,0-.46-.19-.88-.57-1.25-.38-.37-.9-.67-1.55-.89-.66-.22-1.43-.33-2.33-.33-1.1,0-2.02.17-2.76.52s-1.31.82-1.68,1.4c-.38.59-.57,1.25-.57,1.98s.18,1.35.54,1.81c.36.46.81.82,1.36,1.08.55.26,1.13.48,1.75.65.62.17,1.2.35,1.76.54.56.19,1.01.42,1.36.7.35.28.53.66.53,1.13s-.21.92-.62,1.28c-.41.36-1.08.54-2,.54-.75,0-1.54-.14-2.35-.43-.81-.29-1.62-.71-2.4-1.28v2.19c.53.34,1.19.63,1.98.88.79.25,1.69.37,2.7.37Z"/>
    <path class="cls-2" d="m66.22,45.77c-.8.15-1.61.15-2.42,0v12.78h2.42v-12.78Z"/>
    <path class="cls-2" d="m65.02,43.57c.51,0,.9-.14,1.16-.42.26-.28.38-.62.38-1.03s-.13-.75-.38-1.03c-.26-.28-.64-.42-1.16-.42s-.9.14-1.17.42c-.27.28-.4.62-.4,1.03s.13.75.4,1.03c.26.28.65.42,1.17.42Z"/>
    <path class="cls-2" d="m69.44,55.87c0,.46.12.88.36,1.28.24.39.62.7,1.16.93s1.27.34,2.21.34h3.7c1.03,0,1.73.14,2.09.43.37.29.55.66.55,1.12,0,.75-.36,1.29-1.09,1.62-.73.33-1.67.5-2.81.5-.8,0-1.46-.06-1.96-.18-.51-.12-.92-.26-1.25-.42-.33-.16-.61-.3-.86-.42s-.5-.18-.76-.18c-.33,0-.57.08-.73.26-.16.17-.24.38-.24.64,0,.24.07.46.21.65.14.2.33.37.59.52.45.31,1.07.55,1.88.73.8.18,1.76.27,2.88.27,2.23,0,3.88-.36,4.95-1.07,1.07-.71,1.61-1.76,1.61-3.14,0-1.24-.41-2.13-1.22-2.68s-1.94-.82-3.38-.82h-3.65c-.7,0-1.2-.08-1.5-.23-.3-.15-.45-.4-.45-.74,0-.25.09-.49.27-.71.18-.22.51-.4,1-.55.49-.14,1.19-.22,2.12-.22,1.15,0,2.14-.16,2.98-.48.84-.32,1.48-.79,1.93-1.39s.67-1.33.67-2.18c0-.46-.07-.89-.22-1.29-.1-.26-.24-.5-.4-.73.13.02.28.04.4.05.59.07,1.25.1,1.96.1v-2.09c-1.18,0-2.35-.05-3.49-.15-1.15-.1-2.33-.15-3.55-.15-1.13,0-2.12.17-2.97.51-.85.34-1.51.83-1.98,1.45-.47.63-.71,1.39-.71,2.3,0,1.29.49,2.29,1.46,3,.25.18.51.33.8.47-.72.15-1.3.41-1.74.8-.54.48-.81,1.1-.81,1.86Zm3.6-8.09c.58-.44,1.33-.66,2.24-.66s1.64.21,2.2.62c.56.42.83,1.03.83,1.85s-.29,1.47-.86,1.91c-.57.44-1.33.66-2.27.66-.87,0-1.59-.21-2.16-.64s-.85-1.04-.85-1.84.29-1.47.87-1.91Z"/>
    <path class="cls-2" d="m87.45,51.33c0-.83.17-1.51.5-2.03s.76-.91,1.28-1.16c.52-.25,1.08-.38,1.66-.38.55,0,1.05.11,1.5.34s.82.59,1.09,1.08c.27.49.41,1.14.41,1.94v7.42h2.44v-7.7c0-1.26-.21-2.28-.64-3.06-.43-.78-1-1.36-1.71-1.74s-1.49-.56-2.33-.56c-.63,0-1.27.12-1.9.36-.63.24-1.2.61-1.71,1.11-.23.22-.42.49-.6.77v-1.93h-2.42v12.76h2.42v-7.22Z"/>
    <path class="cls-2" d="m34.55,87.17c-.39,0-.8-.09-1.22-.28-.42-.19-.85-.49-1.3-.92l-.02-.02c.73-.7,1.36-1.42,1.87-2.17.63-.92,1.11-1.8,1.43-2.65.32-.85.48-1.59.48-2.22,0-.51-.11-.89-.32-1.13-.21-.25-.5-.37-.86-.37-.39,0-.69.13-.87.4s-.33.65-.41,1.16c-.05.66-.23,1.36-.54,2.08-.31.72-.69,1.42-1.16,2.09-.34.5-.73.94-1.14,1.35l-4.56-4.39c1.46-.5,2.59-1.09,3.35-1.76.9-.8,1.35-1.79,1.35-2.96,0-.85-.22-1.59-.66-2.23s-1.04-1.14-1.81-1.49c-.77-.36-1.67-.54-2.7-.54-1.08,0-2.02.19-2.83.57-.8.38-1.43.91-1.88,1.57-.45.66-.67,1.41-.67,2.24,0,.71.17,1.42.53,2.11.34.67.85,1.34,1.52,2.02-1.18.47-2.11,1.02-2.77,1.66-.94.91-1.41,2.02-1.41,3.33,0,1.46.55,2.64,1.64,3.53,1.1.89,2.59,1.34,4.5,1.34,1.4,0,2.71-.24,3.92-.73.81-.33,1.55-.74,2.22-1.23l.26.25c.51.51,1.09.9,1.72,1.16s1.25.4,1.85.4c.38,0,.75-.05,1.1-.15.36-.1.69-.24,1-.41v-2.02c-.24.14-.5.24-.78.32-.28.08-.56.11-.83.11Zm-11.25-13.46c.53-.45,1.25-.68,2.16-.68.86,0,1.53.22,2.03.66.5.44.75,1.02.75,1.73,0,.48-.13.92-.4,1.31s-.7.78-1.31,1.13c-.5.3-1.16.59-1.95.89l-.6-.58c-.5-.51-.87-.98-1.11-1.42s-.36-.87-.36-1.31c0-.71.27-1.3.8-1.75Zm3.84,13.07c-.97.39-1.93.59-2.89.59-1.13,0-2.04-.27-2.74-.8-.69-.54-1.04-1.26-1.04-2.18,0-.8.33-1.54,1-2.21.46-.46,1.14-.87,2.03-1.23l5.17,5.04c-.49.31-.99.58-1.54.8Z"/>
    <path class="cls-2" d="m51.99,71.81h-5.78v17.35h5.86c2.23,0,4.05-.37,5.49-1.12,1.43-.75,2.5-1.79,3.2-3.13.7-1.33,1.05-2.88,1.05-4.63,0-2.64-.81-4.71-2.43-6.21-1.62-1.51-4.08-2.26-7.39-2.26Zm6.27,11.99c-.51.99-1.3,1.74-2.36,2.27-1.06.53-2.42.79-4.06.79h-3.01v-12.76h3.01c2.4,0,4.2.5,5.4,1.5,1.2,1,1.8,2.56,1.8,4.67,0,1.36-.26,2.53-.77,3.52Z"/>
    <path class="cls-2" d="m71.48,83.69c.85-.08,1.6-.25,2.25-.52.65-.27,1.16-.65,1.52-1.14.36-.48.54-1.08.54-1.8,0-.75-.2-1.44-.6-2.07-.4-.63-.99-1.13-1.75-1.51s-1.67-.56-2.74-.56c-1.27,0-2.38.29-3.35.87s-1.73,1.39-2.27,2.42c-.55,1.04-.82,2.25-.82,3.65,0,2.02.57,3.6,1.72,4.73,1.15,1.13,2.76,1.7,4.83,1.7,1.01,0,1.9-.12,2.67-.37.77-.25,1.43-.53,1.98-.85v-1.86c-.72.38-1.45.66-2.18.84-.74.19-1.46.28-2.18.28-.98,0-1.78-.18-2.42-.54-.63-.36-1.11-.88-1.44-1.56-.28-.58-.43-1.28-.47-2.09.68.14,1.35.26,2.01.33.96.1,1.86.12,2.71.04Zm-4.65-1.97c.08-.55.22-1.05.42-1.49.34-.73.81-1.29,1.4-1.67.59-.38,1.26-.57,2.02-.57.86,0,1.51.21,1.97.62.45.42.68.91.68,1.47s-.21.97-.63,1.28c-.42.31-.99.51-1.7.6-.71.09-1.51.1-2.4.03-.57-.05-1.16-.14-1.76-.26Z"/>
    <polygon class="cls-2" points="83.45 86.85 79.53 76.41 76.84 76.41 82.1 89.16 82.59 89.16 84.31 89.16 84.7 89.16 89.96 76.41 87.29 76.41 83.45 86.85"/>
    <path class="cls-2" d="m97.94,83.69c.85-.08,1.6-.25,2.25-.52.65-.27,1.16-.65,1.52-1.14.36-.48.54-1.08.54-1.8,0-.75-.2-1.44-.6-2.07-.4-.63-.99-1.13-1.75-1.51-.76-.37-1.67-.56-2.74-.56-1.27,0-2.39.29-3.35.87s-1.73,1.39-2.27,2.42c-.55,1.04-.82,2.25-.82,3.65,0,2.02.57,3.6,1.72,4.73,1.15,1.13,2.76,1.7,4.83,1.7,1.01,0,1.9-.12,2.67-.37.77-.25,1.43-.53,1.98-.85v-1.86c-.72.38-1.45.66-2.18.84-.74.19-1.46.28-2.18.28-.98,0-1.78-.18-2.42-.54-.63-.36-1.11-.88-1.44-1.56-.28-.58-.43-1.28-.47-2.09.68.14,1.35.26,2.01.33.96.1,1.86.12,2.71.04Zm-4.65-1.97c.08-.55.22-1.05.42-1.49.34-.73.81-1.29,1.4-1.67.59-.38,1.26-.57,2.02-.57.86,0,1.51.21,1.97.62s.68.91.68,1.47-.21.97-.63,1.28c-.42.31-.99.51-1.7.6s-1.51.1-2.4.03c-.57-.05-1.16-.14-1.76-.26Z"/>
    <path class="cls-2" d="m108.77,87.3c-.45,0-.77-.12-.96-.36-.2-.24-.3-.68-.3-1.33v-14.82h-2.42v15.21c0,1.04.22,1.88.67,2.51s1.2.96,2.26.96c.65,0,1.27-.14,1.85-.41v-1.96c-.19.07-.37.12-.55.15s-.36.05-.55.05Z"/>
    <path class="cls-2" d="m120.78,76.9c-.95-.54-2.05-.8-3.3-.8s-2.44.29-3.4.86c-.97.57-1.72,1.36-2.26,2.37-.54,1.01-.81,2.21-.81,3.58s.27,2.5.81,3.48c.54.98,1.29,1.73,2.24,2.27.95.54,2.05.8,3.3.8,1.32,0,2.46-.28,3.42-.85.96-.57,1.71-1.36,2.25-2.38.54-1.02.81-2.21.81-3.57s-.27-2.5-.81-3.48c-.54-.98-1.28-1.73-2.24-2.27Zm-.01,8.3c-.34.7-.81,1.24-1.4,1.62s-1.26.57-2.02.57-1.37-.18-1.95-.55c-.58-.37-1.04-.89-1.36-1.57-.33-.68-.49-1.49-.49-2.42s.17-1.8.51-2.5c.34-.7.81-1.24,1.4-1.62s1.26-.57,2.02-.57,1.39.18,1.96.55c.57.37,1.02.89,1.35,1.57.32.68.49,1.5.49,2.45s-.17,1.78-.51,2.47Z"/>
    <path class="cls-2" d="m138.29,79.21c-.5-.99-1.18-1.75-2.06-2.3-.87-.54-1.86-.82-2.95-.82s-2.11.3-2.94.89c-.51.37-.94.84-1.3,1.39v-1.98h-2.42v17.86h2.42v-7.06c.3.58.72,1.07,1.26,1.45.77.54,1.72.82,2.85.82s2.21-.28,3.1-.84c.88-.56,1.57-1.35,2.06-2.36s.73-2.19.73-3.53-.25-2.53-.75-3.52Zm-2.31,5.93c-.33.69-.78,1.23-1.36,1.62-.58.39-1.26.59-2.03.59-.67,0-1.27-.15-1.81-.46-.54-.31-.96-.73-1.27-1.28-.31-.54-.46-1.16-.46-1.84v-1.91c0-1.07.33-1.94.98-2.6.65-.66,1.5-1,2.54-1,.79,0,1.47.19,2.06.56.58.37,1.04.9,1.36,1.57.33.67.49,1.46.49,2.36s-.16,1.7-.49,2.38Z"/>
  </g>
  <g>
    <path class="cls-2" d="m20.86,470.4h.98l3.25-7.72,3.25,7.72h1.13l2.6-11.57h-1.13l-2.17,10.12-2.78-6.77c-.09-.23-.22-.4-.38-.53-.16-.12-.34-.19-.53-.19s-.37.06-.53.19c-.16.12-.29.3-.38.53l-2.79,6.8-2.16-10.15h-1.13l2.6,11.57h.15Z"/>
    <path class="cls-2" d="m40.24,469.81v-.92c-.49.26-.97.45-1.45.58-.47.12-.93.19-1.38.19-.69,0-1.26-.14-1.73-.41-.47-.27-.83-.66-1.07-1.17-.24-.49-.35-1.08-.36-1.75.52.1,1.03.19,1.52.23.65.06,1.26.07,1.82,0,.57-.06,1.06-.18,1.48-.36.42-.18.75-.43.99-.75.23-.32.35-.7.35-1.16,0-.48-.13-.91-.39-1.31-.26-.4-.62-.71-1.09-.94-.47-.23-1.02-.35-1.64-.35-.79,0-1.49.19-2.12.58-.62.39-1.11.92-1.46,1.62-.35.69-.53,1.5-.53,2.43,0,1.34.37,2.39,1.1,3.15.74.76,1.76,1.14,3.07,1.14.65,0,1.21-.08,1.68-.25.47-.16.87-.35,1.2-.55Zm-5.6-5.51c.26-.54.62-.97,1.08-1.27.46-.3.98-.45,1.58-.45.66,0,1.17.17,1.52.5.35.33.53.72.53,1.15s-.17.78-.5,1.01-.77.39-1.32.46c-.55.07-1.15.09-1.81.03-.47-.04-.94-.11-1.42-.19.06-.45.15-.88.33-1.24Z"/>
    <path class="cls-2" d="m50.82,470.61c.83,0,1.56-.19,2.17-.57.61-.38,1.08-.91,1.41-1.58.33-.67.5-1.45.5-2.34s-.17-1.69-.51-2.35c-.34-.66-.81-1.17-1.4-1.53-.59-.36-1.27-.54-2.02-.54-.8,0-1.48.21-2.06.62-.35.25-.64.58-.89.95v-5.11h-1.03v8.52c0,1.2.35,2.16,1.04,2.87.69.71,1.62,1.06,2.8,1.06Zm-2.81-5.22c0-.82.25-1.48.76-1.98.51-.5,1.16-.76,1.96-.76.62,0,1.15.14,1.61.43s.81.7,1.07,1.22.39,1.13.39,1.82c0,1.07-.27,1.92-.81,2.57-.54.65-1.27.97-2.17.97-.83,0-1.51-.28-2.03-.83-.52-.55-.78-1.27-.78-2.14v-1.29Z"/>
    <path class="cls-2" d="m60.59,470.61c1.03,0,1.87-.29,2.52-.88s.98-1.49.98-2.73v-5.1h-1.03v5.08c0,.9-.22,1.57-.65,2.01-.43.44-1.04.66-1.82.66s-1.37-.22-1.81-.66c-.44-.44-.66-1.11-.66-2.01v-5.08h-1.03v5.1c0,1.24.33,2.15.98,2.73s1.49.88,2.52.88Z"/>
    <path class="cls-2" d="m67.37,460.13c.25,0,.44-.07.57-.22.13-.15.19-.32.19-.53s-.06-.38-.19-.53c-.13-.15-.31-.22-.57-.22s-.44.07-.57.22c-.13.15-.19.32-.19.53s.06.38.19.53c.13.15.31.22.57.22Z"/>
    <path class="cls-2" d="m66.86,470.4h1.03v-8.5c-.34.03-.69.03-1.03,0v8.5Z"/>
    <path class="cls-2" d="m72.52,470.61c.37,0,.71-.08,1.04-.24v-.85c-.15.05-.29.08-.41.1s-.26.03-.39.03c-.32,0-.55-.08-.69-.26-.14-.17-.21-.49-.21-.95v-10.29h-1.03v10.41c0,.59.13,1.08.39,1.46.26.38.69.58,1.31.58Z"/>
    <path class="cls-2" d="m80.69,469.98c.35-.25.63-.57.87-.94v1.36h1.03v-12.25h-1.03v5.14c-.22-.43-.52-.78-.91-1.05-.54-.37-1.19-.55-1.97-.55s-1.48.19-2.09.57c-.61.38-1.08.9-1.41,1.57-.34.67-.51,1.45-.51,2.35s.17,1.67.51,2.34c.34.66.81,1.18,1.41,1.54.6.36,1.27.54,2.01.54.81,0,1.5-.21,2.07-.63Zm-4.53-1.97c-.26-.52-.39-1.13-.39-1.82s.13-1.32.39-1.85c.26-.53.61-.94,1.07-1.24.46-.3.98-.45,1.58-.45.54,0,1.01.12,1.42.36s.74.56.98.98c.24.41.36.88.36,1.4v1.53c0,.82-.25,1.48-.75,1.98-.5.5-1.16.76-1.97.76-.62,0-1.15-.14-1.61-.43-.46-.29-.81-.69-1.07-1.22Z"/>
    <path class="cls-2" d="m94.52,465.06c-.19.15-.6.29-1.24.43l-1.44.31c-.83.18-1.46.47-1.88.86-.42.39-.62.92-.62,1.57,0,.76.25,1.35.74,1.76.49.41,1.12.62,1.9.62.66,0,1.29-.17,1.88-.52.48-.28.84-.73,1.09-1.31.01.28.02.56.08.84.06.35.13.61.21.79h1.03c-.11-.25-.21-.58-.3-1-.09-.41-.13-.86-.13-1.35v-3.74c0-.65-.13-1.16-.4-1.55-.27-.38-.63-.66-1.09-.82-.46-.17-.98-.25-1.56-.25-1.21,0-2.12.32-2.74.97-.15.16-.25.31-.31.44-.06.14-.09.25-.09.36,0,.14.04.24.12.31.08.07.18.1.29.1.17,0,.31-.06.43-.19.11-.12.25-.27.41-.44.16-.17.39-.32.68-.44.29-.12.69-.19,1.21-.19.58,0,1.06.12,1.45.36.38.24.57.69.57,1.34v.07c0,.31-.09.53-.28.68Zm-1.1,4.38c-.41.21-.83.31-1.28.31-.51,0-.93-.14-1.24-.42-.31-.28-.47-.66-.47-1.15s.15-.85.46-1.1c.31-.24.71-.42,1.2-.52l1.37-.29c.4-.09.7-.18.9-.28s.35-.2.44-.3v1.38c0,.56-.13,1.04-.39,1.44-.26.4-.59.71-.99.92Z"/>
    <path class="cls-2" d="m107.25,470.29c.45-.21.78-.51.99-.88.21-.37.32-.77.32-1.2,0-.52-.12-.94-.36-1.25-.24-.31-.55-.56-.92-.74s-.78-.33-1.2-.45-.82-.24-1.2-.37c-.38-.13-.69-.3-.93-.51-.24-.21-.36-.5-.36-.86s.15-.71.46-1.02c.31-.31.81-.46,1.49-.46.43,0,.77.06,1.02.18s.44.25.57.41c.14.15.26.29.36.41.1.12.23.18.39.18.11,0,.21-.04.28-.12.07-.08.11-.19.11-.34,0-.27-.12-.53-.35-.76-.23-.24-.56-.43-.97-.58-.41-.15-.88-.22-1.42-.22-.65,0-1.2.11-1.64.33-.44.22-.77.52-.98.89-.22.37-.33.78-.33,1.22,0,.49.12.88.36,1.18.24.3.55.54.92.71s.78.31,1.2.43c.42.12.82.25,1.2.38s.69.31.92.54c.24.22.36.52.36.89,0,.4-.16.74-.49,1.04-.33.29-.85.44-1.58.44-.51,0-1.02-.09-1.52-.26s-.98-.44-1.45-.81v1.04c.29.24.68.45,1.18.62s1.09.26,1.76.26c.73,0,1.32-.11,1.77-.32Z"/>
    <path class="cls-2" d="m112.23,470.07c.6.36,1.3.54,2.09.54s1.54-.19,2.16-.57c.62-.38,1.1-.91,1.45-1.6.35-.69.52-1.48.52-2.39s-.17-1.67-.51-2.31c-.34-.65-.82-1.15-1.42-1.5-.61-.36-1.3-.54-2.09-.54s-1.53.19-2.15.57c-.62.38-1.11.91-1.46,1.59-.35.68-.52,1.48-.52,2.4s.17,1.65.51,2.3c.34.65.82,1.16,1.42,1.51Zm-.47-5.8c.27-.54.63-.96,1.1-1.25.46-.29.98-.44,1.57-.44s1.08.14,1.52.42.8.69,1.05,1.22.39,1.15.39,1.88-.13,1.38-.4,1.92c-.27.54-.63.96-1.1,1.26-.46.29-.98.44-1.57.44s-1.06-.14-1.52-.42-.8-.69-1.06-1.22c-.26-.53-.39-1.15-.39-1.88s.13-1.39.4-1.93Z"/>
    <path class="cls-2" d="m122.51,470.61c.37,0,.71-.08,1.04-.24v-.85c-.15.05-.29.08-.41.1s-.26.03-.39.03c-.32,0-.55-.08-.69-.26-.14-.17-.21-.49-.21-.95v-10.29h-1.03v10.41c0,.59.13,1.08.39,1.46.26.38.69.58,1.31.58Z"/>
    <path class="cls-2" d="m131.06,466.99c0,.9-.22,1.57-.65,2.01-.43.44-1.04.66-1.82.66s-1.37-.22-1.81-.66c-.44-.44-.66-1.11-.66-2.01v-5.08h-1.03v5.1c0,1.24.33,2.15.98,2.73s1.49.88,2.52.88,1.87-.29,2.52-.88.98-1.49.98-2.73v-5.1h-1.03v5.08Z"/>
    <path class="cls-2" d="m134.45,462.82h.84v5.36c0,.86.19,1.48.56,1.86.37.38.88.57,1.53.57.3,0,.56-.03.8-.09.23-.06.47-.14.71-.25v-.92c-.24.09-.47.17-.68.22-.21.06-.43.08-.66.08-.42,0-.73-.12-.93-.36s-.3-.64-.3-1.21v-5.27h2.91v-.92h-2.91v-1.43l-1.92,1.31c-.16.11-.28.22-.36.32-.08.1-.12.21-.12.32,0,.1.04.19.12.27.08.08.22.12.41.12Z"/>
    <path class="cls-2" d="m141.54,460.13c.25,0,.44-.07.57-.22.13-.15.19-.32.19-.53s-.06-.38-.19-.53c-.13-.15-.31-.22-.57-.22s-.44.07-.57.22c-.13.15-.19.32-.19.53s.06.38.19.53c.13.15.31.22.57.22Z"/>
    <path class="cls-2" d="m141.03,470.4h1.03v-8.5c-.34.03-.69.03-1.03,0v8.5Z"/>
    <path class="cls-2" d="m152.05,468.44c.35-.69.52-1.48.52-2.39s-.17-1.67-.51-2.31c-.34-.65-.82-1.15-1.42-1.5-.61-.36-1.3-.54-2.09-.54s-1.53.19-2.15.57c-.62.38-1.11.91-1.46,1.59-.35.68-.52,1.48-.52,2.4s.17,1.65.51,2.3c.34.65.82,1.16,1.42,1.51.6.36,1.3.54,2.09.54s1.54-.19,2.16-.57c.62-.38,1.1-.91,1.45-1.6Zm-3.61,1.28c-.56,0-1.06-.14-1.52-.42s-.8-.69-1.06-1.22c-.26-.53-.39-1.15-.39-1.88s.13-1.39.4-1.93c.27-.54.63-.96,1.1-1.25.46-.29.98-.44,1.57-.44s1.08.14,1.52.42.8.69,1.05,1.22.39,1.15.39,1.88-.13,1.38-.4,1.92c-.27.54-.63.96-1.1,1.26-.46.29-.98.44-1.57.44Z"/>
    <path class="cls-2" d="m155.97,465.39c0-.63.13-1.15.39-1.56.26-.4.59-.7.99-.89.41-.19.83-.29,1.28-.29.41,0,.8.09,1.16.26.36.18.65.45.87.83.22.38.33.88.33,1.5v5.15h1.03v-5.2c0-.81-.14-1.47-.43-1.98-.29-.52-.67-.9-1.14-1.15-.47-.25-.98-.37-1.53-.37-.42,0-.85.08-1.29.24s-.84.41-1.2.76c-.16.16-.31.34-.44.54v-1.33h-1.03v8.5h1.03v-5.02Z"/>
    <path class="cls-2" d="m172.25,470.51c.23-.06.47-.14.71-.25v-.92c-.24.09-.47.17-.68.22-.21.06-.43.08-.66.08-.42,0-.73-.12-.93-.36s-.3-.64-.3-1.21v-5.27h2.91v-.92h-2.91v-1.43l-1.92,1.31c-.16.11-.28.22-.36.32-.08.1-.12.21-.12.32,0,.1.04.19.12.27.08.08.22.12.41.12h.84v5.36c0,.86.19,1.48.56,1.86.37.38.88.57,1.53.57.3,0,.56-.03.8-.09Z"/>
    <path class="cls-2" d="m179.76,465.06c-.19.15-.6.29-1.24.43l-1.44.31c-.83.18-1.46.47-1.88.86-.42.39-.62.92-.62,1.57,0,.76.25,1.35.74,1.76.49.41,1.12.62,1.9.62.66,0,1.29-.17,1.88-.52.48-.28.84-.73,1.09-1.31.01.28.02.56.08.84.06.35.13.61.21.79h1.03c-.11-.25-.21-.58-.3-1-.09-.41-.13-.86-.13-1.35v-3.74c0-.65-.13-1.16-.4-1.55-.27-.38-.63-.66-1.09-.82-.46-.17-.98-.25-1.56-.25-1.21,0-2.12.32-2.74.97-.15.16-.25.31-.31.44-.06.14-.09.25-.09.36,0,.14.04.24.12.31.08.07.18.1.29.1.17,0,.31-.06.43-.19.11-.12.25-.27.41-.44.16-.17.39-.32.68-.44.29-.12.69-.19,1.21-.19.58,0,1.06.12,1.45.36.38.24.57.69.57,1.34v.07c0,.31-.09.53-.28.68Zm-1.1,4.38c-.41.21-.83.31-1.28.31-.51,0-.93-.14-1.24-.42-.31-.28-.47-.66-.47-1.15s.15-.85.46-1.1c.31-.24.71-.42,1.2-.52l1.37-.29c.4-.09.7-.18.9-.28s.35-.2.44-.3v1.38c0,.56-.13,1.04-.39,1.44-.26.4-.59.71-.99.92Z"/>
    <path class="cls-2" d="m183.97,470.4h1.03v-8.5c-.34.03-.69.03-1.03,0v8.5Z"/>
    <path class="cls-2" d="m184.49,460.13c.25,0,.44-.07.57-.22.13-.15.19-.32.19-.53s-.06-.38-.19-.53c-.13-.15-.31-.22-.57-.22s-.44.07-.57.22c-.13.15-.19.32-.19.53s.06.38.19.53c.13.15.31.22.57.22Z"/>
    <path class="cls-2" d="m189.63,470.61c.37,0,.71-.08,1.04-.24v-.85c-.15.05-.29.08-.41.1s-.26.03-.39.03c-.32,0-.55-.08-.69-.26-.14-.17-.21-.49-.21-.95v-10.29h-1.03v10.41c0,.59.13,1.08.39,1.46.26.38.69.58,1.31.58Z"/>
    <path class="cls-2" d="m195.83,470.61c.82,0,1.54-.19,2.16-.57.62-.38,1.1-.91,1.45-1.6.35-.69.52-1.48.52-2.39s-.17-1.67-.51-2.31c-.34-.65-.82-1.15-1.42-1.5-.61-.36-1.3-.54-2.09-.54s-1.53.19-2.15.57c-.62.38-1.11.91-1.46,1.59-.35.68-.52,1.48-.52,2.4s.17,1.65.51,2.3c.34.65.82,1.16,1.42,1.51.6.36,1.3.54,2.09.54Zm-2.58-2.53c-.26-.53-.39-1.15-.39-1.88s.13-1.39.4-1.93c.27-.54.63-.96,1.1-1.25.46-.29.98-.44,1.57-.44s1.08.14,1.52.42.8.69,1.05,1.22.39,1.15.39,1.88-.13,1.38-.4,1.92c-.27.54-.63.96-1.1,1.26-.46.29-.98.44-1.57.44s-1.06-.14-1.52-.42-.8-.69-1.06-1.22Z"/>
    <path class="cls-2" d="m203.36,465.39c0-.75.17-1.37.51-1.88.34-.5.78-.76,1.32-.76.16,0,.31.02.44.06s.27.06.4.06c.17,0,.3-.04.39-.13s.13-.2.13-.33c0-.15-.04-.27-.13-.37-.09-.1-.21-.18-.36-.25-.15-.06-.34-.09-.56-.09-.48,0-.95.18-1.4.54-.27.22-.52.53-.74.92v-1.26h-1.03v8.5h1.03v-5.02Z"/>
    <path class="cls-2" d="m211.56,470.61c.65,0,1.21-.08,1.68-.25.47-.16.87-.35,1.2-.55v-.92c-.49.26-.97.45-1.45.58-.47.12-.93.19-1.38.19-.69,0-1.26-.14-1.73-.41-.47-.27-.83-.66-1.07-1.17-.24-.49-.35-1.08-.36-1.75.52.1,1.03.19,1.52.23.65.06,1.26.07,1.82,0,.57-.06,1.06-.18,1.48-.36.42-.18.75-.43.99-.75.23-.32.35-.7.35-1.16,0-.48-.13-.91-.39-1.31-.26-.4-.62-.71-1.09-.94-.47-.23-1.02-.35-1.64-.35-.79,0-1.49.19-2.12.58-.62.39-1.11.92-1.46,1.62-.35.69-.53,1.5-.53,2.43,0,1.34.37,2.39,1.1,3.15.74.76,1.76,1.14,3.07,1.14Zm-2.72-6.31c.26-.54.62-.97,1.08-1.27.46-.3.98-.45,1.58-.45.66,0,1.17.17,1.52.5.35.33.53.72.53,1.15s-.17.78-.5,1.01-.77.39-1.32.46c-.55.07-1.15.09-1.81.03-.47-.04-.94-.11-1.42-.19.06-.45.15-.88.33-1.24Z"/>
    <path class="cls-2" d="m218.24,470.06c.6.36,1.27.54,2.01.54.81,0,1.5-.21,2.07-.63.35-.25.63-.57.87-.94v1.36h1.03v-12.25h-1.03v5.14c-.22-.43-.52-.78-.91-1.05-.54-.37-1.19-.55-1.97-.55s-1.48.19-2.09.57c-.61.38-1.08.9-1.41,1.57-.34.67-.51,1.45-.51,2.35s.17,1.67.51,2.34c.34.66.81,1.18,1.41,1.54Zm-.45-5.72c.26-.53.61-.94,1.07-1.24.46-.3.98-.45,1.58-.45.54,0,1.01.12,1.42.36s.74.56.98.98c.24.41.36.88.36,1.4v1.53c0,.82-.25,1.48-.75,1.98-.5.5-1.16.76-1.97.76-.62,0-1.15-.14-1.61-.43-.46-.29-.81-.69-1.07-1.22-.26-.52-.39-1.13-.39-1.82s.13-1.32.39-1.85Z"/>
    <path class="cls-2" d="m231.02,462.82h.84v5.36c0,.86.19,1.48.56,1.86.37.38.88.57,1.53.57.3,0,.56-.03.8-.09.23-.06.47-.14.71-.25v-.92c-.24.09-.47.17-.68.22-.21.06-.43.08-.66.08-.42,0-.73-.12-.93-.36s-.3-.64-.3-1.21v-5.27h2.91v-.92h-2.91v-1.43l-1.92,1.31c-.16.11-.28.22-.36.32-.08.1-.12.21-.12.32,0,.1.04.19.12.27.08.08.22.12.41.12Z"/>
    <path class="cls-2" d="m238.66,470.07c.6.36,1.3.54,2.09.54s1.54-.19,2.16-.57c.62-.38,1.1-.91,1.45-1.6.35-.69.52-1.48.52-2.39s-.17-1.67-.51-2.31c-.34-.65-.82-1.15-1.42-1.5-.61-.36-1.3-.54-2.09-.54s-1.53.19-2.15.57c-.62.38-1.11.91-1.46,1.59-.35.68-.52,1.48-.52,2.4s.17,1.65.51,2.3c.34.65.82,1.16,1.42,1.51Zm-.47-5.8c.27-.54.63-.96,1.1-1.25.46-.29.98-.44,1.57-.44s1.08.14,1.52.42.8.69,1.05,1.22.39,1.15.39,1.88-.13,1.38-.4,1.92c-.27.54-.63.96-1.1,1.26-.46.29-.98.44-1.57.44s-1.06-.14-1.52-.42-.8-.69-1.06-1.22c-.26-.53-.39-1.15-.39-1.88s.13-1.39.4-1.93Z"/>
    <path class="cls-2" d="m252.81,472.11c-.26.39-.5.66-.72.8s-.42.21-.62.21c-.17,0-.32-.03-.45-.09s-.26-.08-.41-.08c-.13,0-.23.03-.31.1-.08.07-.12.16-.12.29,0,.16.06.29.18.38.12.1.27.17.46.21.19.04.38.07.57.07.65,0,1.21-.24,1.69-.73.47-.49.94-1.29,1.41-2.4l.2-.48h0l3.6-8.5h-1.11l-3,7.33-3-7.33h-1.11l3.6,8.5c-.32.75-.61,1.32-.87,1.71Z"/>
    <path class="cls-2" d="m261.08,470.07c.6.36,1.3.54,2.09.54s1.54-.19,2.16-.57c.62-.38,1.1-.91,1.45-1.6.35-.69.52-1.48.52-2.39s-.17-1.67-.51-2.31c-.34-.65-.82-1.15-1.42-1.5-.61-.36-1.3-.54-2.09-.54s-1.53.19-2.15.57c-.62.38-1.11.91-1.46,1.59-.35.68-.52,1.48-.52,2.4s.17,1.65.51,2.3c.34.65.82,1.16,1.42,1.51Zm-.47-5.8c.27-.54.63-.96,1.1-1.25.46-.29.98-.44,1.57-.44s1.08.14,1.52.42.8.69,1.05,1.22.39,1.15.39,1.88-.13,1.38-.4,1.92c-.27.54-.63.96-1.1,1.26-.46.29-.98.44-1.57.44s-1.06-.14-1.52-.42-.8-.69-1.06-1.22c-.26-.53-.39-1.15-.39-1.88s.13-1.39.4-1.93Z"/>
    <path class="cls-2" d="m272.98,470.61c1.03,0,1.87-.29,2.52-.88s.98-1.49.98-2.73v-5.1h-1.03v5.08c0,.9-.22,1.57-.65,2.01-.43.44-1.04.66-1.82.66s-1.37-.22-1.81-.66c-.44-.44-.66-1.11-.66-2.01v-5.08h-1.03v5.1c0,1.24.33,2.15.98,2.73s1.49.88,2.52.88Z"/>
    <path class="cls-2" d="m280.29,465.39c0-.75.17-1.37.51-1.88.34-.5.78-.76,1.32-.76.16,0,.31.02.44.06s.27.06.4.06c.17,0,.3-.04.39-.13s.13-.2.13-.33c0-.15-.04-.27-.13-.37-.09-.1-.21-.18-.36-.25-.15-.06-.34-.09-.56-.09-.48,0-.95.18-1.4.54-.27.22-.52.53-.74.92v-1.26h-1.03v8.5h1.03v-5.02Z"/>
    <path class="cls-2" d="m292.86,470.61c.63,0,1.15-.08,1.58-.25.42-.16.79-.35,1.1-.55v-.92c-.46.26-.9.45-1.33.58s-.86.19-1.29.19c-.65,0-1.21-.14-1.68-.41-.47-.27-.83-.67-1.08-1.18-.25-.52-.38-1.14-.38-1.88,0-1.09.27-1.96.8-2.62.53-.66,1.26-.99,2.2-.99.45,0,.79.07,1.04.2.25.13.44.28.58.44.14.16.27.31.39.44.11.13.26.2.45.2.13,0,.23-.04.32-.12.09-.08.13-.19.13-.34,0-.25-.12-.5-.36-.75-.23-.25-.55-.47-.98-.66-.42-.19-.94-.29-1.54-.29-.81,0-1.52.19-2.14.57-.62.38-1.1.91-1.45,1.6-.35.69-.52,1.48-.52,2.39,0,1.34.37,2.4,1.12,3.18.75.78,1.77,1.17,3.06,1.17Z"/>
    <path class="cls-2" d="m303.73,470.4h1.03v-5.2c0-.81-.14-1.47-.43-1.98-.29-.52-.67-.9-1.14-1.15-.47-.25-.98-.37-1.53-.37-.42,0-.85.08-1.28.24-.43.16-.83.41-1.19.76-.17.16-.32.35-.45.56v-5.09h-1.03v12.25h1.03v-5.02c0-.63.13-1.15.39-1.56.26-.4.59-.7.99-.89.41-.19.83-.29,1.28-.29.41,0,.8.09,1.16.26.36.18.65.45.87.83.22.38.33.88.33,1.5v5.15Z"/>
    <path class="cls-2" d="m313.59,469.41c-.09-.41-.13-.86-.13-1.35v-3.74c0-.65-.13-1.16-.4-1.55-.27-.38-.63-.66-1.09-.82-.46-.17-.98-.25-1.56-.25-1.21,0-2.12.32-2.74.97-.15.16-.25.31-.31.44-.06.14-.09.25-.09.36,0,.14.04.24.12.31.08.07.18.1.29.1.17,0,.31-.06.43-.19.11-.12.25-.27.41-.44.16-.17.39-.32.68-.44.29-.12.69-.19,1.21-.19.58,0,1.06.12,1.45.36.38.24.57.69.57,1.34v.07c0,.31-.09.53-.28.68-.19.15-.6.29-1.24.43l-1.44.31c-.83.18-1.46.47-1.88.86-.42.39-.62.92-.62,1.57,0,.76.25,1.35.74,1.76.49.41,1.12.62,1.9.62.66,0,1.29-.17,1.88-.52.48-.28.84-.73,1.09-1.31.01.28.02.56.08.84.06.35.13.61.21.79h1.03c-.11-.25-.21-.58-.3-1Zm-2.54.03c-.41.21-.83.31-1.28.31-.51,0-.93-.14-1.24-.42-.31-.28-.47-.66-.47-1.15s.15-.85.46-1.1c.31-.24.71-.42,1.2-.52l1.37-.29c.4-.09.7-.18.9-.28s.35-.2.44-.3v1.38c0,.56-.13,1.04-.39,1.44-.26.4-.59.71-.99.92Z"/>
    <path class="cls-2" d="m318.04,470.61c.37,0,.71-.08,1.04-.24v-.85c-.15.05-.29.08-.41.1s-.26.03-.39.03c-.32,0-.55-.08-.69-.26-.14-.17-.21-.49-.21-.95v-10.29h-1.03v10.41c0,.59.13,1.08.39,1.46.26.38.69.58,1.31.58Z"/>
    <path class="cls-2" d="m323.74,470.37v-.85c-.15.05-.29.08-.41.1s-.26.03-.39.03c-.32,0-.55-.08-.69-.26-.14-.17-.21-.49-.21-.95v-10.29h-1.03v10.41c0,.59.13,1.08.39,1.46.26.38.69.58,1.31.58.37,0,.71-.08,1.04-.24Z"/>
    <path class="cls-2" d="m329.3,466.56c.57-.06,1.06-.18,1.48-.36.42-.18.75-.43.99-.75.23-.32.35-.7.35-1.16,0-.48-.13-.91-.39-1.31-.26-.4-.62-.71-1.09-.94-.47-.23-1.02-.35-1.64-.35-.79,0-1.49.19-2.12.58-.62.39-1.11.92-1.46,1.62-.35.69-.53,1.5-.53,2.43,0,1.34.37,2.39,1.1,3.15.74.76,1.76,1.14,3.07,1.14.65,0,1.21-.08,1.68-.25.47-.16.87-.35,1.2-.55v-.92c-.49.26-.97.45-1.45.58-.47.12-.93.19-1.38.19-.69,0-1.26-.14-1.73-.41-.47-.27-.83-.66-1.07-1.17-.24-.49-.35-1.08-.36-1.75.52.1,1.03.19,1.52.23.65.06,1.26.07,1.82,0Zm-3.28-1.02c.06-.45.15-.88.33-1.24.26-.54.62-.97,1.08-1.27.46-.3.98-.45,1.58-.45.66,0,1.17.17,1.52.5.35.33.53.72.53,1.15s-.17.78-.5,1.01-.77.39-1.32.46c-.55.07-1.15.09-1.81.03-.47-.04-.94-.11-1.42-.19Z"/>
    <path class="cls-2" d="m339.21,462.91c.36.18.65.45.87.83.22.38.33.88.33,1.5v5.15h1.03v-5.2c0-.81-.14-1.47-.43-1.98-.29-.52-.67-.9-1.14-1.15-.47-.25-.98-.37-1.53-.37-.42,0-.85.08-1.29.24s-.84.41-1.2.76c-.16.16-.31.34-.44.54v-1.33h-1.03v8.5h1.03v-5.02c0-.63.13-1.15.39-1.56.26-.4.59-.7.99-.89.41-.19.83-.29,1.28-.29.41,0,.8.09,1.16.26Z"/>
    <path class="cls-2" d="m350.54,473.34c.68-.45,1.02-1.1,1.02-1.95,0-.76-.25-1.31-.76-1.64-.51-.33-1.18-.5-2.03-.5h-2.6c-.53,0-.9-.06-1.12-.18s-.33-.31-.33-.59c0-.18.06-.36.19-.54s.37-.33.74-.45c.37-.12.9-.18,1.61-.18s1.31-.12,1.83-.35c.52-.23.94-.56,1.23-.99.3-.42.45-.92.45-1.49,0-.29-.05-.58-.14-.84-.09-.27-.24-.51-.44-.73-.08-.09-.18-.17-.29-.25.26.04.51.08.71.1.38.04.82.06,1.31.06v-.92c-.77,0-1.52-.03-2.25-.1-.74-.07-1.5-.1-2.29-.1-.67,0-1.27.12-1.8.36-.52.24-.94.57-1.23,1-.3.43-.45.94-.45,1.51,0,.85.31,1.52.93,2.01.18.14.38.26.6.36-.51.1-.91.27-1.19.52-.34.29-.51.68-.51,1.17,0,.26.06.51.19.76.13.24.35.44.66.6s.76.23,1.34.23h2.62c.78,0,1.31.11,1.59.34.29.23.43.52.43.88,0,.6-.29,1.03-.87,1.3-.58.27-1.31.4-2.19.4-.59,0-1.06-.04-1.4-.13-.34-.08-.61-.19-.8-.31-.19-.12-.35-.22-.48-.31s-.28-.13-.44-.13c-.15,0-.26.04-.33.13-.07.08-.11.18-.11.3s.03.22.1.32c.07.1.17.2.29.29.29.21.7.39,1.23.52.54.13,1.18.2,1.92.2,1.36,0,2.38-.22,3.06-.67Zm-5.64-8.8c0-.63.23-1.12.69-1.45.46-.33,1.05-.5,1.77-.5s1.28.16,1.73.48.67.79.67,1.41-.23,1.12-.69,1.45-1.06.5-1.79.5-1.27-.16-1.71-.48-.67-.79-.67-1.41Z"/>
    <path class="cls-2" d="m359.99,468.89c-.49.26-.97.45-1.45.58-.47.12-.93.19-1.38.19-.69,0-1.26-.14-1.73-.41-.47-.27-.83-.66-1.07-1.17-.24-.49-.35-1.08-.36-1.75.52.1,1.03.19,1.52.23.65.06,1.26.07,1.82,0,.57-.06,1.06-.18,1.48-.36.42-.18.75-.43.99-.75.23-.32.35-.7.35-1.16,0-.48-.13-.91-.39-1.31-.26-.4-.62-.71-1.09-.94-.47-.23-1.02-.35-1.64-.35-.79,0-1.49.19-2.12.58-.62.39-1.11.92-1.46,1.62-.35.69-.53,1.5-.53,2.43,0,1.34.37,2.39,1.1,3.15.74.76,1.76,1.14,3.07,1.14.65,0,1.21-.08,1.68-.25.47-.16.87-.35,1.2-.55v-.92Zm-5.6-4.59c.26-.54.62-.97,1.08-1.27.46-.3.98-.45,1.58-.45.66,0,1.17.17,1.52.5.35.33.53.72.53,1.15s-.17.78-.5,1.01-.77.39-1.32.46c-.55.07-1.15.09-1.81.03-.47-.04-.94-.11-1.42-.19.06-.45.15-.88.33-1.24Z"/>
    <path class="cls-2" d="m366.67,470.29c.45-.21.78-.51.99-.88.21-.37.32-.77.32-1.2,0-.52-.12-.94-.36-1.25-.24-.31-.55-.56-.92-.74s-.78-.33-1.2-.45-.82-.24-1.2-.37c-.38-.13-.69-.3-.93-.51-.24-.21-.36-.5-.36-.86s.15-.71.46-1.02c.31-.31.81-.46,1.49-.46.43,0,.77.06,1.02.18s.44.25.57.41c.14.15.26.29.36.41.1.12.23.18.39.18.11,0,.21-.04.28-.12.07-.08.11-.19.11-.34,0-.27-.12-.53-.35-.76-.23-.24-.56-.43-.97-.58-.41-.15-.88-.22-1.42-.22-.65,0-1.2.11-1.64.33-.44.22-.77.52-.98.89-.22.37-.33.78-.33,1.22,0,.49.12.88.36,1.18.24.3.55.54.92.71s.78.31,1.2.43c.42.12.82.25,1.2.38s.69.31.92.54c.24.22.36.52.36.89,0,.4-.16.74-.49,1.04-.33.29-.85.44-1.58.44-.51,0-1.02-.09-1.52-.26s-.98-.44-1.45-.81v1.04c.29.24.68.45,1.18.62s1.09.26,1.76.26c.73,0,1.32-.11,1.77-.32Z"/>
    <path class="cls-2" d="m371.06,468.98c-.29,0-.5.08-.64.24-.14.16-.21.35-.21.58s.07.41.21.57c.08.1.2.16.34.2,0,.25-.03.5-.08.74-.09.39-.24.82-.47,1.28h.65c.3-.37.55-.82.75-1.35s.31-1.01.31-1.44c0-.23-.07-.42-.21-.58-.14-.16-.36-.24-.64-.24Z"/>
    <path class="cls-2" d="m23.76,485.47c-.19.15-.6.29-1.24.43l-1.44.31c-.83.18-1.46.47-1.88.86-.42.39-.62.92-.62,1.57,0,.76.25,1.35.74,1.76.49.41,1.12.62,1.9.62.66,0,1.29-.17,1.88-.52.48-.28.84-.73,1.09-1.31.01.28.02.56.08.84.06.35.13.61.21.79h1.03c-.11-.25-.21-.58-.3-1-.09-.41-.13-.86-.13-1.35v-3.74c0-.65-.13-1.16-.4-1.55-.27-.38-.63-.66-1.09-.82-.46-.17-.98-.25-1.56-.25-1.21,0-2.12.32-2.74.97-.15.16-.25.31-.31.44-.06.14-.09.25-.09.36,0,.14.04.24.12.31.08.07.18.1.29.1.17,0,.31-.06.43-.19.11-.12.25-.27.41-.44.16-.17.39-.32.68-.44.29-.12.69-.19,1.21-.19.58,0,1.06.12,1.45.36.38.24.57.69.57,1.34v.07c0,.31-.09.53-.28.68Zm-1.1,4.38c-.41.21-.83.31-1.28.31-.51,0-.93-.14-1.24-.42-.31-.28-.47-.66-.47-1.15s.15-.85.46-1.1c.31-.24.71-.42,1.2-.52l1.37-.29c.4-.09.7-.18.9-.28s.35-.2.44-.3v1.38c0,.56-.13,1.04-.39,1.44-.26.4-.59.71-.99.92Z"/>
    <path class="cls-2" d="m33.37,490.39c.35-.25.63-.57.87-.94v1.36h1.03v-12.25h-1.03v5.14c-.22-.43-.52-.78-.91-1.05-.54-.37-1.19-.55-1.97-.55s-1.48.19-2.09.57c-.61.38-1.08.9-1.41,1.57-.34.67-.51,1.45-.51,2.35s.17,1.67.51,2.34c.34.66.81,1.18,1.41,1.54.6.36,1.27.54,2.01.54.81,0,1.5-.21,2.07-.63Zm-4.53-1.97c-.26-.52-.39-1.13-.39-1.82s.13-1.32.39-1.85c.26-.53.61-.94,1.07-1.24.46-.3.98-.45,1.58-.45.54,0,1.01.12,1.42.36s.74.56.98.98c.24.41.36.88.36,1.4v1.53c0,.82-.25,1.48-.75,1.98-.5.5-1.16.76-1.97.76-.62,0-1.15-.14-1.61-.43-.46-.29-.81-.69-1.07-1.22Z"/>
    <path class="cls-2" d="m44.56,483.71c-.22-.43-.52-.78-.91-1.05-.54-.37-1.19-.55-1.97-.55s-1.48.19-2.09.57c-.61.38-1.08.9-1.41,1.57-.34.67-.51,1.45-.51,2.35s.17,1.67.51,2.34c.34.66.81,1.18,1.41,1.54.6.36,1.27.54,2.01.54.81,0,1.5-.21,2.07-.63.35-.25.63-.57.87-.94v1.36h1.03v-12.25h-1.03v5.14Zm-.75,5.6c-.5.5-1.16.76-1.97.76-.62,0-1.15-.14-1.61-.43-.46-.29-.81-.69-1.07-1.22-.26-.52-.39-1.13-.39-1.82s.13-1.32.39-1.85c.26-.53.61-.94,1.07-1.24.46-.3.98-.45,1.58-.45.54,0,1.01.12,1.42.36s.74.56.98.98c.24.41.36.88.36,1.4v1.53c0,.82-.25,1.48-.75,1.98Z"/>
    <path class="cls-2" d="m51.83,483.22c.13.04.27.06.4.06.17,0,.3-.04.39-.13s.13-.2.13-.33c0-.15-.04-.27-.13-.37-.09-.1-.21-.18-.36-.25-.15-.06-.34-.09-.56-.09-.48,0-.95.18-1.4.54-.27.22-.52.53-.74.92v-1.26h-1.03v8.5h1.03v-5.02c0-.75.17-1.37.51-1.88.34-.5.78-.76,1.32-.76.16,0,.31.02.44.06Z"/>
    <path class="cls-2" d="m60.65,489.3c-.49.26-.97.45-1.45.58-.47.12-.93.19-1.38.19-.69,0-1.26-.14-1.73-.41-.47-.27-.83-.66-1.07-1.17-.24-.49-.35-1.08-.36-1.75.52.1,1.03.19,1.52.23.65.06,1.26.07,1.82,0,.57-.06,1.06-.18,1.48-.36.42-.18.75-.43.99-.75.23-.32.35-.7.35-1.16,0-.48-.13-.91-.39-1.31-.26-.4-.62-.71-1.09-.94-.47-.23-1.02-.35-1.64-.35-.79,0-1.49.19-2.12.58-.62.39-1.11.92-1.46,1.62-.35.69-.53,1.5-.53,2.43,0,1.34.37,2.39,1.1,3.15.74.76,1.76,1.14,3.07,1.14.65,0,1.21-.08,1.68-.25.47-.16.87-.35,1.2-.55v-.92Zm-5.6-4.59c.26-.54.62-.97,1.08-1.27.46-.3.98-.45,1.58-.45.66,0,1.17.17,1.52.5.35.33.53.72.53,1.15s-.17.78-.5,1.01-.77.39-1.32.46c-.55.07-1.15.09-1.81.03-.47-.04-.94-.11-1.42-.19.06-.45.15-.88.33-1.24Z"/>
    <path class="cls-2" d="m67.36,486.63c-.38-.18-.78-.33-1.2-.45s-.82-.24-1.2-.37c-.38-.13-.69-.3-.93-.51-.24-.21-.36-.5-.36-.86s.15-.71.46-1.02c.31-.31.81-.46,1.49-.46.43,0,.77.06,1.02.18s.44.25.57.41c.14.15.26.29.36.41.1.12.23.18.39.18.11,0,.21-.04.28-.12.07-.08.11-.19.11-.34,0-.27-.12-.53-.35-.76-.23-.24-.56-.43-.97-.58-.41-.15-.88-.22-1.42-.22-.65,0-1.2.11-1.64.33-.44.22-.77.52-.98.89-.22.37-.33.78-.33,1.22,0,.49.12.88.36,1.18.24.3.55.54.92.71s.78.31,1.2.43c.42.12.82.25,1.2.38s.69.31.92.54c.24.22.36.52.36.89,0,.4-.16.74-.49,1.04-.33.29-.85.44-1.58.44-.51,0-1.02-.09-1.52-.26s-.98-.44-1.45-.81v1.04c.29.24.68.45,1.18.62s1.09.26,1.76.26c.73,0,1.32-.11,1.77-.32.45-.21.78-.51.99-.88.21-.37.32-.77.32-1.2,0-.52-.12-.94-.36-1.25-.24-.31-.55-.56-.92-.74Z"/>
    <path class="cls-2" d="m75.25,486.63c-.38-.18-.78-.33-1.2-.45s-.82-.24-1.2-.37c-.38-.13-.69-.3-.93-.51-.24-.21-.36-.5-.36-.86s.15-.71.46-1.02c.31-.31.81-.46,1.49-.46.43,0,.77.06,1.02.18s.44.25.57.41c.14.15.26.29.36.41.1.12.23.18.39.18.11,0,.21-.04.28-.12.07-.08.11-.19.11-.34,0-.27-.12-.53-.35-.76-.23-.24-.56-.43-.97-.58-.41-.15-.88-.22-1.42-.22-.65,0-1.2.11-1.64.33-.44.22-.77.52-.98.89-.22.37-.33.78-.33,1.22,0,.49.12.88.36,1.18.24.3.55.54.92.71s.78.31,1.2.43c.42.12.82.25,1.2.38s.69.31.92.54c.24.22.36.52.36.89,0,.4-.16.74-.49,1.04-.33.29-.85.44-1.58.44-.51,0-1.02-.09-1.52-.26s-.98-.44-1.45-.81v1.04c.29.24.68.45,1.18.62s1.09.26,1.76.26c.73,0,1.32-.11,1.77-.32.45-.21.78-.51.99-.88.21-.37.32-.77.32-1.2,0-.52-.12-.94-.36-1.25-.24-.31-.55-.56-.92-.74Z"/>
    <path class="cls-2" d="m78.81,490.81h1.03v-8.5c-.34.03-.69.03-1.03,0v8.5Z"/>
    <path class="cls-2" d="m80.08,479.79c0-.2-.06-.38-.19-.53-.13-.15-.31-.22-.57-.22s-.44.07-.57.22c-.13.15-.19.32-.19.53s.06.38.19.53c.13.15.31.22.57.22s.44-.07.57-.22c.13-.15.19-.32.19-.53Z"/>
    <path class="cls-2" d="m88.83,490.81h1.03v-5.2c0-.81-.14-1.47-.43-1.98-.29-.52-.67-.9-1.14-1.15-.47-.25-.98-.37-1.53-.37-.42,0-.85.08-1.29.24s-.84.41-1.2.76c-.16.16-.31.34-.44.54v-1.33h-1.03v8.5h1.03v-5.02c0-.63.13-1.15.39-1.56.26-.4.59-.7.99-.89.41-.19.83-.29,1.28-.29.41,0,.8.09,1.16.26.36.18.65.45.87.83.22.38.33.88.33,1.5v5.15Z"/>
    <path class="cls-2" d="m98.97,493.75c.68-.45,1.02-1.1,1.02-1.95,0-.76-.25-1.31-.76-1.64-.51-.33-1.18-.5-2.03-.5h-2.6c-.53,0-.9-.06-1.12-.18s-.33-.31-.33-.59c0-.18.06-.36.19-.54s.37-.33.74-.45c.37-.12.9-.18,1.61-.18s1.31-.12,1.83-.35c.52-.23.94-.56,1.23-.99.3-.42.45-.92.45-1.49,0-.29-.05-.58-.14-.84-.09-.27-.24-.51-.44-.73-.08-.09-.18-.17-.29-.25.26.04.51.08.71.1.38.04.82.06,1.31.06v-.92c-.77,0-1.52-.03-2.25-.1-.74-.07-1.5-.1-2.29-.1-.67,0-1.27.12-1.8.36-.52.24-.94.57-1.23,1-.3.43-.45.94-.45,1.51,0,.85.31,1.52.93,2.01.18.14.38.26.6.36-.51.1-.91.27-1.19.52-.34.29-.51.68-.51,1.17,0,.26.06.51.19.76.13.24.35.44.66.6s.76.23,1.34.23h2.62c.78,0,1.31.11,1.59.34.29.23.43.52.43.88,0,.6-.29,1.03-.87,1.3-.58.27-1.31.4-2.19.4-.59,0-1.06-.04-1.4-.13-.34-.08-.61-.19-.8-.31-.19-.12-.35-.22-.48-.31s-.28-.13-.44-.13c-.15,0-.26.04-.33.13-.07.08-.11.18-.11.3s.03.22.1.32c.07.1.17.2.29.29.29.21.7.39,1.23.52.54.13,1.18.2,1.92.2,1.36,0,2.38-.22,3.06-.67Zm-5.64-8.8c0-.63.23-1.12.69-1.45.46-.33,1.05-.5,1.77-.5s1.28.16,1.73.48.67.79.67,1.41-.23,1.12-.69,1.45-1.06.5-1.79.5-1.27-.16-1.71-.48-.67-.79-.67-1.41Z"/>
    <path class="cls-2" d="m110.17,486.97c.57-.06,1.06-.18,1.48-.36.42-.18.75-.43.99-.75.23-.32.35-.7.35-1.16,0-.48-.13-.91-.39-1.31-.26-.4-.62-.71-1.09-.94-.47-.23-1.02-.35-1.64-.35-.79,0-1.49.19-2.12.58-.62.39-1.11.92-1.46,1.62-.35.69-.53,1.5-.53,2.43,0,1.34.37,2.39,1.1,3.15.74.76,1.76,1.14,3.07,1.14.65,0,1.21-.08,1.68-.25.47-.16.87-.35,1.2-.55v-.92c-.49.26-.97.45-1.45.58-.47.12-.93.19-1.38.19-.69,0-1.26-.14-1.73-.41-.47-.27-.83-.66-1.07-1.17-.24-.49-.35-1.08-.36-1.75.52.1,1.03.19,1.52.23.65.06,1.26.07,1.82,0Zm-3.28-1.02c.06-.45.15-.88.33-1.24.26-.54.62-.97,1.08-1.27.46-.3.98-.45,1.58-.45.66,0,1.17.17,1.52.5.35.33.53.72.53,1.15s-.17.78-.5,1.01-.77.39-1.32.46c-.55.07-1.15.09-1.81.03-.47-.04-.94-.11-1.42-.19Z"/>
    <polygon class="cls-2" points="117.68 490.81 118.63 490.81 118.67 490.81 122.27 482.31 121.15 482.31 118.16 489.64 115.16 482.31 114.04 482.31 117.64 490.81 117.68 490.81"/>
    <path class="cls-2" d="m127.28,491.02c.65,0,1.21-.08,1.68-.25.47-.16.87-.35,1.2-.55v-.92c-.49.26-.97.45-1.45.58-.47.12-.93.19-1.38.19-.69,0-1.26-.14-1.73-.41-.47-.27-.83-.66-1.07-1.17-.24-.49-.35-1.08-.36-1.75.52.1,1.03.19,1.52.23.65.06,1.26.07,1.82,0,.57-.06,1.06-.18,1.48-.36.42-.18.75-.43.99-.75.23-.32.35-.7.35-1.16,0-.48-.13-.91-.39-1.31-.26-.4-.62-.71-1.09-.94-.47-.23-1.02-.35-1.64-.35-.79,0-1.49.19-2.12.58-.62.39-1.11.92-1.46,1.62-.35.69-.53,1.5-.53,2.43,0,1.34.37,2.39,1.1,3.15.74.76,1.76,1.14,3.07,1.14Zm-2.72-6.31c.26-.54.62-.97,1.08-1.27.46-.3.98-.45,1.58-.45.66,0,1.17.17,1.52.5.35.33.53.72.53,1.15s-.17.78-.5,1.01-.77.39-1.32.46c-.55.07-1.15.09-1.81.03-.47-.04-.94-.11-1.42-.19.06-.45.15-.88.33-1.24Z"/>
    <path class="cls-2" d="m135.44,483.16c.16,0,.31.02.44.06s.27.06.4.06c.17,0,.3-.04.39-.13s.13-.2.13-.33c0-.15-.04-.27-.13-.37-.09-.1-.21-.18-.36-.25-.15-.06-.34-.09-.56-.09-.48,0-.95.18-1.4.54-.27.22-.52.53-.74.92v-1.26h-1.03v8.5h1.03v-5.02c0-.75.17-1.37.51-1.88.34-.5.78-.76,1.32-.76Z"/>
    <path class="cls-2" d="m146.04,482.31h-1.11l-3,7.33-3-7.33h-1.11l3.6,8.5c-.32.75-.61,1.32-.87,1.71-.26.39-.5.66-.72.8s-.42.21-.62.21c-.17,0-.32-.03-.45-.09s-.26-.08-.41-.08c-.13,0-.23.03-.31.1-.08.07-.12.16-.12.29,0,.16.06.29.18.38.12.1.27.17.46.21.19.04.38.07.57.07.65,0,1.21-.24,1.69-.73.47-.49.94-1.29,1.41-2.4l.2-.48h0l3.6-8.5Z"/>
    <path class="cls-2" d="m151.97,490.81h1.03v-8.5c-.34.03-.69.03-1.03,0v8.5Z"/>
    <path class="cls-2" d="m151.92,479.27c-.13.15-.19.32-.19.53s.06.38.19.53c.13.15.31.22.57.22s.44-.07.57-.22c.13-.15.19-.32.19-.53s-.06-.38-.19-.53c-.13-.15-.31-.22-.57-.22s-.44.07-.57.22Z"/>
    <path class="cls-2" d="m161.13,487.37c-.24-.31-.55-.56-.92-.74s-.78-.33-1.2-.45-.82-.24-1.2-.37c-.38-.13-.69-.3-.93-.51-.24-.21-.36-.5-.36-.86s.15-.71.46-1.02c.31-.31.81-.46,1.49-.46.43,0,.77.06,1.02.18s.44.25.57.41c.14.15.26.29.36.41.1.12.23.18.39.18.11,0,.21-.04.28-.12.07-.08.11-.19.11-.34,0-.27-.12-.53-.35-.76-.23-.24-.56-.43-.97-.58-.41-.15-.88-.22-1.42-.22-.65,0-1.2.11-1.64.33-.44.22-.77.52-.98.89-.22.37-.33.78-.33,1.22,0,.49.12.88.36,1.18.24.3.55.54.92.71s.78.31,1.2.43c.42.12.82.25,1.2.38s.69.31.92.54c.24.22.36.52.36.89,0,.4-.16.74-.49,1.04-.33.29-.85.44-1.58.44-.51,0-1.02-.09-1.52-.26s-.98-.44-1.45-.81v1.04c.29.24.68.45,1.18.62s1.09.26,1.76.26c.73,0,1.32-.11,1.77-.32.45-.21.78-.51.99-.88.21-.37.32-.77.32-1.2,0-.52-.12-.94-.36-1.25Z"/>
    <path class="cls-2" d="m166.3,491.02c.73,0,1.32-.11,1.77-.32.45-.21.78-.51.99-.88.21-.37.32-.77.32-1.2,0-.52-.12-.94-.36-1.25-.24-.31-.55-.56-.92-.74s-.78-.33-1.2-.45-.82-.24-1.2-.37c-.38-.13-.69-.3-.93-.51-.24-.21-.36-.5-.36-.86s.15-.71.46-1.02c.31-.31.81-.46,1.49-.46.43,0,.77.06,1.02.18s.44.25.57.41c.14.15.26.29.36.41.1.12.23.18.39.18.11,0,.21-.04.28-.12.07-.08.11-.19.11-.34,0-.27-.12-.53-.35-.76-.23-.24-.56-.43-.97-.58-.41-.15-.88-.22-1.42-.22-.65,0-1.2.11-1.64.33-.44.22-.77.52-.98.89-.22.37-.33.78-.33,1.22,0,.49.12.88.36,1.18.24.3.55.54.92.71s.78.31,1.2.43c.42.12.82.25,1.2.38s.69.31.92.54c.24.22.36.52.36.89,0,.4-.16.74-.49,1.04-.33.29-.85.44-1.58.44-.51,0-1.02-.09-1.52-.26s-.98-.44-1.45-.81v1.04c.29.24.68.45,1.18.62s1.09.26,1.76.26Z"/>
    <path class="cls-2" d="m178.43,487.41v-5.1h-1.03v5.08c0,.9-.22,1.57-.65,2.01-.43.44-1.04.66-1.82.66s-1.37-.22-1.81-.66c-.44-.44-.66-1.11-.66-2.01v-5.08h-1.03v5.1c0,1.24.33,2.15.98,2.73s1.49.88,2.52.88,1.87-.29,2.52-.88.98-1.49.98-2.73Z"/>
    <path class="cls-2" d="m187.69,490.22v-.92c-.49.26-.97.45-1.45.58-.47.12-.93.19-1.38.19-.69,0-1.26-.14-1.73-.41-.47-.27-.83-.66-1.07-1.17-.24-.49-.35-1.08-.36-1.75.52.1,1.03.19,1.52.23.65.06,1.26.07,1.82,0,.57-.06,1.06-.18,1.48-.36.42-.18.75-.43.99-.75.23-.32.35-.7.35-1.16,0-.48-.13-.91-.39-1.31-.26-.4-.62-.71-1.09-.94-.47-.23-1.02-.35-1.64-.35-.79,0-1.49.19-2.12.58-.62.39-1.11.92-1.46,1.62-.35.69-.53,1.5-.53,2.43,0,1.34.37,2.39,1.1,3.15.74.76,1.76,1.14,3.07,1.14.65,0,1.21-.08,1.68-.25.47-.16.87-.35,1.2-.55Zm-5.6-5.51c.26-.54.62-.97,1.08-1.27.46-.3.98-.45,1.58-.45.66,0,1.17.17,1.52.5.35.33.53.72.53,1.15s-.17.78-.5,1.01-.77.39-1.32.46c-.55.07-1.15.09-1.81.03-.47-.04-.94-.11-1.42-.19.06-.45.15-.88.33-1.24Z"/>
    <path class="cls-2" d="m204.22,482.31l-2.06,7.14-2.23-6.54c-.09-.27-.2-.47-.33-.6-.13-.13-.28-.2-.46-.2s-.34.07-.46.2c-.13.13-.23.33-.33.6l-2.23,6.54-2.06-7.14h-1.11l2.64,8.5h1.03l2.52-7.3,2.52,7.3h1.03l2.64-8.5h-1.11Z"/>
    <path class="cls-2" d="m213.37,489.3c-.49.26-.97.45-1.45.58-.47.12-.93.19-1.38.19-.69,0-1.26-.14-1.73-.41-.47-.27-.83-.66-1.07-1.17-.24-.49-.35-1.08-.36-1.75.52.1,1.03.19,1.52.23.65.06,1.26.07,1.82,0,.57-.06,1.06-.18,1.48-.36.42-.18.75-.43.99-.75.23-.32.35-.7.35-1.16,0-.48-.13-.91-.39-1.31-.26-.4-.62-.71-1.09-.94-.47-.23-1.02-.35-1.64-.35-.79,0-1.49.19-2.12.58-.62.39-1.11.92-1.46,1.62-.35.69-.53,1.5-.53,2.43,0,1.34.37,2.39,1.1,3.15.74.76,1.76,1.14,3.07,1.14.65,0,1.21-.08,1.68-.25.47-.16.87-.35,1.2-.55v-.92Zm-5.6-4.59c.26-.54.62-.97,1.08-1.27.46-.3.98-.45,1.58-.45.66,0,1.17.17,1.52.5.35.33.53.72.53,1.15s-.17.78-.5,1.01-.77.39-1.32.46c-.55.07-1.15.09-1.81.03-.47-.04-.94-.11-1.42-.19.06-.45.15-.88.33-1.24Z"/>
    <path class="cls-2" d="m226.83,487.41v-5.1h-1.03v5.08c0,.9-.22,1.57-.65,2.01-.43.44-1.04.66-1.82.66s-1.37-.22-1.81-.66c-.44-.44-.66-1.11-.66-2.01v-5.08h-1.03v5.1c0,1.24.33,2.15.98,2.73s1.49.88,2.52.88,1.87-.29,2.52-.88.98-1.49.98-2.73Z"/>
    <path class="cls-2" d="m232.03,483.35c.41-.19.83-.29,1.28-.29.41,0,.8.09,1.16.26.36.18.65.45.87.83.22.38.33.88.33,1.5v5.15h1.03v-5.2c0-.81-.14-1.47-.43-1.98-.29-.52-.67-.9-1.14-1.15-.47-.25-.98-.37-1.53-.37-.42,0-.85.08-1.29.24s-.84.41-1.2.76c-.16.16-.31.34-.44.54v-1.33h-1.03v8.5h1.03v-5.02c0-.63.13-1.15.39-1.56.26-.4.59-.7.99-.89Z"/>
    <path class="cls-2" d="m245.74,489.3c-.46.26-.9.45-1.33.58s-.86.19-1.29.19c-.65,0-1.21-.14-1.68-.41-.47-.27-.83-.67-1.08-1.18-.25-.52-.38-1.14-.38-1.88,0-1.09.27-1.96.8-2.62.53-.66,1.26-.99,2.2-.99.45,0,.79.07,1.04.2.25.13.44.28.58.44.14.16.27.31.39.44.11.13.26.2.45.2.13,0,.23-.04.32-.12.09-.08.13-.19.13-.34,0-.25-.12-.5-.36-.75-.23-.25-.55-.47-.98-.66-.42-.19-.94-.29-1.54-.29-.81,0-1.52.19-2.14.57-.62.38-1.1.91-1.45,1.6-.35.69-.52,1.48-.52,2.39,0,1.34.37,2.4,1.12,3.18.75.78,1.77,1.17,3.06,1.17.63,0,1.15-.08,1.58-.25.42-.16.79-.35,1.1-.55v-.92Z"/>
    <path class="cls-2" d="m254.93,484.15c-.34-.65-.82-1.15-1.42-1.5-.61-.36-1.3-.54-2.09-.54s-1.53.19-2.15.57c-.62.38-1.11.91-1.46,1.59-.35.68-.52,1.48-.52,2.4s.17,1.65.51,2.3c.34.65.82,1.16,1.42,1.51.6.36,1.3.54,2.09.54s1.54-.19,2.16-.57c.62-.38,1.1-.91,1.45-1.6.35-.69.52-1.48.52-2.39s-.17-1.67-.51-2.31Zm-.95,4.29c-.27.54-.63.96-1.1,1.26-.46.29-.98.44-1.57.44s-1.06-.14-1.52-.42-.8-.69-1.06-1.22c-.26-.53-.39-1.15-.39-1.88s.13-1.39.4-1.93c.27-.54.63-.96,1.1-1.25.46-.29.98-.44,1.57-.44s1.08.14,1.52.42.8.69,1.05,1.22.39,1.15.39,1.88-.13,1.38-.4,1.92Z"/>
    <polygon class="cls-2" points="260.95 490.81 264.54 482.31 263.43 482.31 260.43 489.64 257.44 482.31 256.32 482.31 259.92 490.81 259.95 490.81 260.91 490.81 260.95 490.81"/>
    <path class="cls-2" d="m265.91,484.3c-.35.69-.53,1.5-.53,2.43,0,1.34.37,2.39,1.1,3.15.74.76,1.76,1.14,3.07,1.14.65,0,1.21-.08,1.68-.25.47-.16.87-.35,1.2-.55v-.92c-.49.26-.97.45-1.45.58-.47.12-.93.19-1.38.19-.69,0-1.26-.14-1.73-.41-.47-.27-.83-.66-1.07-1.17-.24-.49-.35-1.08-.36-1.75.52.1,1.03.19,1.52.23.65.06,1.26.07,1.82,0,.57-.06,1.06-.18,1.48-.36.42-.18.75-.43.99-.75.23-.32.35-.7.35-1.16,0-.48-.13-.91-.39-1.31-.26-.4-.62-.71-1.09-.94-.47-.23-1.02-.35-1.64-.35-.79,0-1.49.19-2.12.58-.62.39-1.11.92-1.46,1.62Zm2-.86c.46-.3.98-.45,1.58-.45.66,0,1.17.17,1.52.5.35.33.53.72.53,1.15s-.17.78-.5,1.01-.77.39-1.32.46c-.55.07-1.15.09-1.81.03-.47-.04-.94-.11-1.42-.19.06-.45.15-.88.33-1.24.26-.54.62-.97,1.08-1.27Z"/>
    <path class="cls-2" d="m275.88,483.57v-1.26h-1.03v8.5h1.03v-5.02c0-.75.17-1.37.51-1.88.34-.5.78-.76,1.32-.76.16,0,.31.02.44.06s.27.06.4.06c.17,0,.3-.04.39-.13s.13-.2.13-.33c0-.15-.04-.27-.13-.37-.09-.1-.21-.18-.36-.25-.15-.06-.34-.09-.56-.09-.48,0-.95.18-1.4.54-.27.22-.52.53-.74.92Z"/>
    <path class="cls-2" d="m284.32,486.97c.57-.06,1.06-.18,1.48-.36.42-.18.75-.43.99-.75.23-.32.35-.7.35-1.16,0-.48-.13-.91-.39-1.31-.26-.4-.62-.71-1.09-.94-.47-.23-1.02-.35-1.64-.35-.79,0-1.49.19-2.12.58-.62.39-1.11.92-1.46,1.62-.35.69-.53,1.5-.53,2.43,0,1.34.37,2.39,1.1,3.15.74.76,1.76,1.14,3.07,1.14.65,0,1.21-.08,1.68-.25.47-.16.87-.35,1.2-.55v-.92c-.49.26-.97.45-1.45.58-.47.12-.93.19-1.38.19-.69,0-1.26-.14-1.73-.41-.47-.27-.83-.66-1.07-1.17-.24-.49-.35-1.08-.36-1.75.52.1,1.03.19,1.52.23.65.06,1.26.07,1.82,0Zm-3.28-1.02c.06-.45.15-.88.33-1.24.26-.54.62-.97,1.08-1.27.46-.3.98-.45,1.58-.45.66,0,1.17.17,1.52.5.35.33.53.72.53,1.15s-.17.78-.5,1.01-.77.39-1.32.46c-.55.07-1.15.09-1.81.03-.47-.04-.94-.11-1.42-.19Z"/>
    <path class="cls-2" d="m295.72,483.71c-.22-.43-.52-.78-.91-1.05-.54-.37-1.19-.55-1.97-.55s-1.48.19-2.09.57c-.61.38-1.08.9-1.41,1.57-.34.67-.51,1.45-.51,2.35s.17,1.67.51,2.34c.34.66.81,1.18,1.41,1.54.6.36,1.27.54,2.01.54.81,0,1.5-.21,2.07-.63.35-.25.63-.57.87-.94v1.36h1.03v-12.25h-1.03v5.14Zm-.75,5.6c-.5.5-1.16.76-1.97.76-.62,0-1.15-.14-1.61-.43-.46-.29-.81-.69-1.07-1.22-.26-.52-.39-1.13-.39-1.82s.13-1.32.39-1.85c.26-.53.61-.94,1.07-1.24.46-.3.98-.45,1.58-.45.54,0,1.01.12,1.42.36s.74.56.98.98c.24.41.36.88.36,1.4v1.53c0,.82-.25,1.48-.75,1.98Z"/>
    <path class="cls-2" d="m309.99,488.47v-3.74c0-.65-.13-1.16-.4-1.55-.27-.38-.63-.66-1.09-.82-.46-.17-.98-.25-1.56-.25-1.21,0-2.12.32-2.74.97-.15.16-.25.31-.31.44-.06.14-.09.25-.09.36,0,.14.04.24.12.31.08.07.18.1.29.1.17,0,.31-.06.43-.19.11-.12.25-.27.41-.44.16-.17.39-.32.68-.44.29-.12.69-.19,1.21-.19.58,0,1.06.12,1.45.36.38.24.57.69.57,1.34v.07c0,.31-.09.53-.28.68-.19.15-.6.29-1.24.43l-1.44.31c-.83.18-1.46.47-1.88.86-.42.39-.62.92-.62,1.57,0,.76.25,1.35.74,1.76.49.41,1.12.62,1.9.62.66,0,1.29-.17,1.88-.52.48-.28.84-.73,1.09-1.31.01.28.02.56.08.84.06.35.13.61.21.79h1.03c-.11-.25-.21-.58-.3-1-.09-.41-.13-.86-.13-1.35Zm-2.41,1.39c-.41.21-.83.31-1.28.31-.51,0-.93-.14-1.24-.42-.31-.28-.47-.66-.47-1.15s.15-.85.46-1.1c.31-.24.71-.42,1.2-.52l1.37-.29c.4-.09.7-.18.9-.28s.35-.2.44-.3v1.38c0,.56-.13,1.04-.39,1.44-.26.4-.59.71-.99.92Z"/>
    <path class="cls-2" d="m318.39,482.48c-.47-.25-.98-.37-1.53-.37-.42,0-.85.08-1.29.24s-.84.41-1.2.76c-.16.16-.31.34-.44.54v-1.33h-1.03v8.5h1.03v-5.02c0-.63.13-1.15.39-1.56.26-.4.59-.7.99-.89.41-.19.83-.29,1.28-.29.41,0,.8.09,1.16.26.36.18.65.45.87.83.22.38.33.88.33,1.5v5.15h1.03v-5.2c0-.81-.14-1.47-.43-1.98-.29-.52-.67-.9-1.14-1.15Z"/>
    <path class="cls-2" d="m329.05,483.71c-.22-.43-.52-.78-.91-1.05-.54-.37-1.19-.55-1.97-.55s-1.48.19-2.09.57c-.61.38-1.08.9-1.41,1.57-.34.67-.51,1.45-.51,2.35s.17,1.67.51,2.34c.34.66.81,1.18,1.41,1.54.6.36,1.27.54,2.01.54.81,0,1.5-.21,2.07-.63.35-.25.63-.57.87-.94v1.36h1.03v-12.25h-1.03v5.14Zm-.75,5.6c-.5.5-1.16.76-1.97.76-.62,0-1.15-.14-1.61-.43-.46-.29-.81-.69-1.07-1.22-.26-.52-.39-1.13-.39-1.82s.13-1.32.39-1.85c.26-.53.61-.94,1.07-1.24.46-.3.98-.45,1.58-.45.54,0,1.01.12,1.42.36s.74.56.98.98c.24.41.36.88.36,1.4v1.53c0,.82-.25,1.48-.75,1.98Z"/>
    <path class="cls-2" d="m340.54,482.11c-.67,0-1.27.12-1.8.36-.52.24-.94.57-1.23,1-.3.43-.45.94-.45,1.51,0,.85.31,1.52.93,2.01.18.14.38.26.6.36-.51.1-.91.27-1.19.52-.34.29-.51.68-.51,1.17,0,.26.06.51.19.76.13.24.35.44.66.6s.76.23,1.34.23h2.62c.78,0,1.31.11,1.59.34.29.23.43.52.43.88,0,.6-.29,1.03-.87,1.3-.58.27-1.31.4-2.19.4-.59,0-1.06-.04-1.4-.13-.34-.08-.61-.19-.8-.31-.19-.12-.35-.22-.48-.31s-.28-.13-.44-.13c-.15,0-.26.04-.33.13-.07.08-.11.18-.11.3s.03.22.1.32c.07.1.17.2.29.29.29.21.7.39,1.23.52.54.13,1.18.2,1.92.2,1.36,0,2.38-.22,3.06-.67.68-.45,1.02-1.1,1.02-1.95,0-.76-.25-1.31-.76-1.64-.51-.33-1.18-.5-2.03-.5h-2.6c-.53,0-.9-.06-1.12-.18s-.33-.31-.33-.59c0-.18.06-.36.19-.54s.37-.33.74-.45c.37-.12.9-.18,1.61-.18s1.31-.12,1.83-.35c.52-.23.94-.56,1.23-.99.3-.42.45-.92.45-1.49,0-.29-.05-.58-.14-.84-.09-.27-.24-.51-.44-.73-.08-.09-.18-.17-.29-.25.26.04.51.08.71.1.38.04.82.06,1.31.06v-.92c-.77,0-1.52-.03-2.25-.1-.74-.07-1.5-.1-2.29-.1Zm1.69,4.23c-.46.33-1.06.5-1.79.5s-1.27-.16-1.71-.48-.67-.79-.67-1.41.23-1.12.69-1.45c.46-.33,1.05-.5,1.77-.5s1.28.16,1.73.48.67.79.67,1.41-.23,1.12-.69,1.45Z"/>
    <path class="cls-2" d="m346.97,490.81h1.03v-8.5c-.34.03-.69.03-1.03,0v8.5Z"/>
    <path class="cls-2" d="m347.49,479.04c-.25,0-.44.07-.57.22-.13.15-.19.32-.19.53s.06.38.19.53c.13.15.31.22.57.22s.44-.07.57-.22c.13-.15.19-.32.19-.53s-.06-.38-.19-.53c-.13-.15-.31-.22-.57-.22Z"/>
    <polygon class="cls-2" points="353.91 489.64 350.91 482.31 349.8 482.31 353.39 490.81 353.43 490.81 354.39 490.81 354.42 490.81 358.02 482.31 356.9 482.31 353.91 489.64"/>
    <path class="cls-2" d="m360.32,479.04c-.25,0-.44.07-.57.22-.13.15-.19.32-.19.53s.06.38.19.53c.13.15.31.22.57.22s.44-.07.57-.22c.13-.15.19-.32.19-.53s-.06-.38-.19-.53c-.13-.15-.31-.22-.57-.22Z"/>
    <path class="cls-2" d="m359.81,490.81h1.03v-8.5c-.34.03-.69.03-1.03,0v8.5Z"/>
    <path class="cls-2" d="m369.28,482.48c-.47-.25-.98-.37-1.53-.37-.42,0-.85.08-1.29.24s-.84.41-1.2.76c-.16.16-.31.34-.44.54v-1.33h-1.03v8.5h1.03v-5.02c0-.63.13-1.15.39-1.56.26-.4.59-.7.99-.89.41-.19.83-.29,1.28-.29.41,0,.8.09,1.16.26.36.18.65.45.87.83.22.38.33.88.33,1.5v5.15h1.03v-5.2c0-.81-.14-1.47-.43-1.98-.29-.52-.67-.9-1.14-1.15Z"/>
    <path class="cls-2" d="m376.81,482.11c-.67,0-1.27.12-1.8.36-.52.24-.94.57-1.23,1-.3.43-.45.94-.45,1.51,0,.85.31,1.52.93,2.01.18.14.38.26.6.36-.51.1-.91.27-1.19.52-.34.29-.51.68-.51,1.17,0,.26.06.51.19.76.13.24.35.44.66.6s.76.23,1.34.23h2.62c.78,0,1.31.11,1.59.34.29.23.43.52.43.88,0,.6-.29,1.03-.87,1.3-.58.27-1.31.4-2.19.4-.59,0-1.06-.04-1.4-.13-.34-.08-.61-.19-.8-.31-.19-.12-.35-.22-.48-.31s-.28-.13-.44-.13c-.15,0-.26.04-.33.13-.07.08-.11.18-.11.3s.03.22.1.32c.07.1.17.2.29.29.29.21.7.39,1.23.52.54.13,1.18.2,1.92.2,1.36,0,2.38-.22,3.06-.67.68-.45,1.02-1.1,1.02-1.95,0-.76-.25-1.31-.76-1.64-.51-.33-1.18-.5-2.03-.5h-2.6c-.53,0-.9-.06-1.12-.18s-.33-.31-.33-.59c0-.18.06-.36.19-.54s.37-.33.74-.45c.37-.12.9-.18,1.61-.18s1.31-.12,1.83-.35c.52-.23.94-.56,1.23-.99.3-.42.45-.92.45-1.49,0-.29-.05-.58-.14-.84-.09-.27-.24-.51-.44-.73-.08-.09-.18-.17-.29-.25.26.04.51.08.71.1.38.04.82.06,1.31.06v-.92c-.77,0-1.52-.03-2.25-.1-.74-.07-1.5-.1-2.29-.1Zm1.69,4.23c-.46.33-1.06.5-1.79.5s-1.27-.16-1.71-.48-.67-.79-.67-1.41.23-1.12.69-1.45c.46-.33,1.05-.5,1.77-.5s1.28.16,1.73.48.67.79.67,1.41-.23,1.12-.69,1.45Z"/>
    <path class="cls-2" d="m390.11,489.64l-3-7.33h-1.11l3.6,8.5c-.32.75-.61,1.32-.87,1.71-.26.39-.5.66-.72.8s-.42.21-.62.21c-.17,0-.32-.03-.45-.09s-.26-.08-.41-.08c-.13,0-.23.03-.31.1-.08.07-.12.16-.12.29,0,.16.06.29.18.38.12.1.27.17.46.21.19.04.38.07.57.07.65,0,1.21-.24,1.69-.73.47-.49.94-1.29,1.41-2.4l.2-.48h0l3.6-8.5h-1.11l-3,7.33Z"/>
    <path class="cls-2" d="m401.28,482.64c-.61-.36-1.3-.54-2.09-.54s-1.53.19-2.15.57c-.62.38-1.11.91-1.46,1.59-.35.68-.52,1.48-.52,2.4s.17,1.65.51,2.3c.34.65.82,1.16,1.42,1.51.6.36,1.3.54,2.09.54s1.54-.19,2.16-.57c.62-.38,1.1-.91,1.45-1.6.35-.69.52-1.48.52-2.39s-.17-1.67-.51-2.31c-.34-.65-.82-1.15-1.42-1.5Zm.47,5.79c-.27.54-.63.96-1.1,1.26-.46.29-.98.44-1.57.44s-1.06-.14-1.52-.42-.8-.69-1.06-1.22c-.26-.53-.39-1.15-.39-1.88s.13-1.39.4-1.93c.27-.54.63-.96,1.1-1.25.46-.29.98-.44,1.57-.44s1.08.14,1.52.42.8.69,1.05,1.22.39,1.15.39,1.88-.13,1.38-.4,1.92Z"/>
    <path class="cls-2" d="m411.36,487.4c0,.9-.22,1.57-.65,2.01-.43.44-1.04.66-1.82.66s-1.37-.22-1.81-.66c-.44-.44-.66-1.11-.66-2.01v-5.08h-1.03v5.1c0,1.24.33,2.15.98,2.73s1.49.88,2.52.88,1.87-.29,2.52-.88.98-1.49.98-2.73v-5.1h-1.03v5.08Z"/>
    <path class="cls-2" d="m419.26,482.45c-.09-.1-.21-.18-.36-.25-.15-.06-.34-.09-.56-.09-.48,0-.95.18-1.4.54-.27.22-.52.53-.74.92v-1.26h-1.03v8.5h1.03v-5.02c0-.75.17-1.37.51-1.88.34-.5.78-.76,1.32-.76.16,0,.31.02.44.06s.27.06.4.06c.17,0,.3-.04.39-.13s.13-.2.13-.33c0-.15-.04-.27-.13-.37Z"/>
    <path class="cls-2" d="m25.23,503.06c-.59-.36-1.27-.54-2.02-.54-.8,0-1.48.21-2.06.62-.35.25-.64.58-.89.95v-5.11h-1.03v8.52c0,1.2.35,2.16,1.04,2.87.69.71,1.62,1.06,2.8,1.06.83,0,1.56-.19,2.17-.57.61-.38,1.08-.91,1.41-1.58.33-.67.5-1.45.5-2.34s-.17-1.69-.51-2.35c-.34-.66-.81-1.17-1.4-1.53Zm0,6.45c-.54.65-1.27.97-2.17.97-.83,0-1.51-.28-2.03-.83-.52-.55-.78-1.27-.78-2.14v-1.29c0-.82.25-1.48.76-1.98.51-.5,1.16-.76,1.96-.76.62,0,1.15.14,1.61.43s.81.7,1.07,1.22.39,1.13.39,1.82c0,1.07-.27,1.92-.81,2.57Z"/>
    <path class="cls-2" d="m35.31,507.8c0,.9-.22,1.57-.65,2.01-.43.44-1.04.66-1.82.66s-1.37-.22-1.81-.66c-.44-.44-.66-1.11-.66-2.01v-5.08h-1.03v5.1c0,1.24.33,2.15.98,2.73s1.49.88,2.52.88,1.87-.29,2.52-.88.98-1.49.98-2.73v-5.1h-1.03v5.08Z"/>
    <path class="cls-2" d="m43.33,507.04c-.38-.18-.78-.33-1.2-.45s-.82-.24-1.2-.37c-.38-.13-.69-.3-.93-.51-.24-.21-.36-.5-.36-.86s.15-.71.46-1.02c.31-.31.81-.46,1.49-.46.43,0,.77.06,1.02.18s.44.25.57.41c.14.15.26.29.36.41.1.12.23.18.39.18.11,0,.21-.04.28-.12.07-.08.11-.19.11-.34,0-.27-.12-.53-.35-.76-.23-.24-.56-.43-.97-.58-.41-.15-.88-.22-1.42-.22-.65,0-1.2.11-1.64.33-.44.22-.77.52-.98.89-.22.37-.33.78-.33,1.22,0,.49.12.88.36,1.18.24.3.55.54.92.71s.78.31,1.2.43c.42.12.82.25,1.2.38s.69.31.92.54c.24.22.36.52.36.89,0,.4-.16.74-.49,1.04-.33.29-.85.44-1.58.44-.51,0-1.02-.09-1.52-.26s-.98-.44-1.45-.81v1.04c.29.24.68.45,1.18.62s1.09.26,1.76.26c.73,0,1.32-.11,1.77-.32.45-.21.78-.51.99-.88.21-.37.32-.77.32-1.2,0-.52-.12-.94-.36-1.25-.24-.31-.55-.56-.92-.74Z"/>
    <path class="cls-2" d="m47.4,499.45c-.25,0-.44.07-.57.22-.13.15-.19.32-.19.53s.06.38.19.53c.13.15.31.22.57.22s.44-.07.57-.22c.13-.15.19-.32.19-.53s-.06-.38-.19-.53c-.13-.15-.31-.22-.57-.22Z"/>
    <path class="cls-2" d="m46.89,511.22h1.03v-8.5c-.34.03-.69.03-1.03,0v8.5Z"/>
    <path class="cls-2" d="m56.37,502.89c-.47-.25-.98-.37-1.53-.37-.42,0-.85.08-1.29.24s-.84.41-1.2.76c-.16.16-.31.34-.44.54v-1.33h-1.03v8.5h1.03v-5.02c0-.63.13-1.15.39-1.56.26-.4.59-.7.99-.89.41-.19.83-.29,1.28-.29.41,0,.8.09,1.16.26.36.18.65.45.87.83.22.38.33.88.33,1.5v5.15h1.03v-5.2c0-.81-.14-1.47-.43-1.98-.29-.52-.67-.9-1.14-1.15Z"/>
    <path class="cls-2" d="m64.55,507.38c.57-.06,1.06-.18,1.48-.36.42-.18.75-.43.99-.75.23-.32.35-.7.35-1.16,0-.48-.13-.91-.39-1.31-.26-.4-.62-.71-1.09-.94-.47-.23-1.02-.35-1.64-.35-.79,0-1.49.19-2.12.58-.62.39-1.11.92-1.46,1.62-.35.69-.53,1.5-.53,2.43,0,1.34.37,2.39,1.1,3.15.74.76,1.76,1.14,3.07,1.14.65,0,1.21-.08,1.68-.25.47-.16.87-.35,1.2-.55v-.92c-.49.26-.97.45-1.45.58-.47.12-.93.19-1.38.19-.69,0-1.26-.14-1.73-.41-.47-.27-.83-.66-1.07-1.17-.24-.49-.35-1.08-.36-1.75.52.1,1.03.19,1.52.23.65.06,1.26.07,1.82,0Zm-3.28-1.02c.06-.45.15-.88.33-1.24.26-.54.62-.97,1.08-1.27.46-.3.98-.45,1.58-.45.66,0,1.17.17,1.52.5.35.33.53.72.53,1.15s-.17.78-.5,1.01-.77.39-1.32.46c-.55.07-1.15.09-1.81.03-.47-.04-.94-.11-1.42-.19Z"/>
    <path class="cls-2" d="m73.91,507.04c-.38-.18-.78-.33-1.2-.45s-.82-.24-1.2-.37c-.38-.13-.69-.3-.93-.51-.24-.21-.36-.5-.36-.86s.15-.71.46-1.02c.31-.31.81-.46,1.49-.46.43,0,.77.06,1.02.18s.44.25.57.41c.14.15.26.29.36.41.1.12.23.18.39.18.11,0,.21-.04.28-.12.07-.08.11-.19.11-.34,0-.27-.12-.53-.35-.76-.23-.24-.56-.43-.97-.58-.41-.15-.88-.22-1.42-.22-.65,0-1.2.11-1.64.33-.44.22-.77.52-.98.89-.22.37-.33.78-.33,1.22,0,.49.12.88.36,1.18.24.3.55.54.92.71s.78.31,1.2.43c.42.12.82.25,1.2.38s.69.31.92.54c.24.22.36.52.36.89,0,.4-.16.74-.49,1.04-.33.29-.85.44-1.58.44-.51,0-1.02-.09-1.52-.26s-.98-.44-1.45-.81v1.04c.29.24.68.45,1.18.62s1.09.26,1.76.26c.73,0,1.32-.11,1.77-.32.45-.21.78-.51.99-.88.21-.37.32-.77.32-1.2,0-.52-.12-.94-.36-1.25-.24-.31-.55-.56-.92-.74Z"/>
    <path class="cls-2" d="m81.8,507.04c-.38-.18-.78-.33-1.2-.45s-.82-.24-1.2-.37c-.38-.13-.69-.3-.93-.51-.24-.21-.36-.5-.36-.86s.15-.71.46-1.02c.31-.31.81-.46,1.49-.46.43,0,.77.06,1.02.18s.44.25.57.41c.14.15.26.29.36.41.1.12.23.18.39.18.11,0,.21-.04.28-.12.07-.08.11-.19.11-.34,0-.27-.12-.53-.35-.76-.23-.24-.56-.43-.97-.58-.41-.15-.88-.22-1.42-.22-.65,0-1.2.11-1.64.33-.44.22-.77.52-.98.89-.22.37-.33.78-.33,1.22,0,.49.12.88.36,1.18.24.3.55.54.92.71s.78.31,1.2.43c.42.12.82.25,1.2.38s.69.31.92.54c.24.22.36.52.36.89,0,.4-.16.74-.49,1.04-.33.29-.85.44-1.58.44-.51,0-1.02-.09-1.52-.26s-.98-.44-1.45-.81v1.04c.29.24.68.45,1.18.62s1.09.26,1.76.26c.73,0,1.32-.11,1.77-.32.45-.21.78-.51.99-.88.21-.37.32-.77.32-1.2,0-.52-.12-.94-.36-1.25-.24-.31-.55-.56-.92-.74Z"/>
    <path class="cls-2" d="m91,501.29l-1.92,1.31c-.16.11-.28.22-.36.32-.08.1-.12.21-.12.32,0,.1.04.19.12.27.08.08.22.12.41.12h.84v5.36c0,.86.19,1.48.56,1.86.37.38.88.57,1.53.57.3,0,.56-.03.8-.09.23-.06.47-.14.71-.25v-.92c-.24.09-.47.17-.68.22-.21.06-.43.08-.66.08-.42,0-.73-.12-.93-.36s-.3-.64-.3-1.21v-5.27h2.91v-.92h-2.91v-1.43Z"/>
    <path class="cls-2" d="m101.19,502.89c-.47-.25-.98-.37-1.53-.37-.42,0-.85.08-1.28.24-.43.16-.83.41-1.19.76-.17.16-.32.35-.45.56v-5.09h-1.03v12.25h1.03v-5.02c0-.63.13-1.15.39-1.56.26-.4.59-.7.99-.89.41-.19.83-.29,1.28-.29.41,0,.8.09,1.16.26.36.18.65.45.87.83.22.38.33.88.33,1.5v5.15h1.03v-5.2c0-.81-.14-1.47-.43-1.98-.29-.52-.67-.9-1.14-1.15Z"/>
    <path class="cls-2" d="m109.38,507.38c.57-.06,1.06-.18,1.48-.36.42-.18.75-.43.99-.75.23-.32.35-.7.35-1.16,0-.48-.13-.91-.39-1.31-.26-.4-.62-.71-1.09-.94-.47-.23-1.02-.35-1.64-.35-.79,0-1.49.19-2.12.58-.62.39-1.11.92-1.46,1.62-.35.69-.53,1.5-.53,2.43,0,1.34.37,2.39,1.1,3.15.74.76,1.76,1.14,3.07,1.14.65,0,1.21-.08,1.68-.25.47-.16.87-.35,1.2-.55v-.92c-.49.26-.97.45-1.45.58-.47.12-.93.19-1.38.19-.69,0-1.26-.14-1.73-.41-.47-.27-.83-.66-1.07-1.17-.24-.49-.35-1.08-.36-1.75.52.1,1.03.19,1.52.23.65.06,1.26.07,1.82,0Zm-3.28-1.02c.06-.45.15-.88.33-1.24.26-.54.62-.97,1.08-1.27.46-.3.98-.45,1.58-.45.66,0,1.17.17,1.52.5.35.33.53.72.53,1.15s-.17.78-.5,1.01-.77.39-1.32.46c-.55.07-1.15.09-1.81.03-.47-.04-.94-.11-1.42-.19Z"/>
    <path class="cls-2" d="m120.04,501.29l-1.92,1.31c-.16.11-.28.22-.36.32-.08.1-.12.21-.12.32,0,.1.04.19.12.27.08.08.22.12.41.12h.84v5.36c0,.86.19,1.48.56,1.86.37.38.88.57,1.53.57.3,0,.56-.03.8-.09.23-.06.47-.14.71-.25v-.92c-.24.09-.47.17-.68.22-.21.06-.43.08-.66.08-.42,0-.73-.12-.93-.36s-.3-.64-.3-1.21v-5.27h2.91v-.92h-2.91v-1.43Z"/>
    <path class="cls-2" d="m130.1,503.05c-.61-.36-1.3-.54-2.09-.54s-1.53.19-2.15.57c-.62.38-1.11.91-1.46,1.59-.35.68-.52,1.48-.52,2.4s.17,1.65.51,2.3c.34.65.82,1.16,1.42,1.51.6.36,1.3.54,2.09.54s1.54-.19,2.16-.57c.62-.38,1.1-.91,1.45-1.6.35-.69.52-1.48.52-2.39s-.17-1.67-.51-2.31c-.34-.65-.82-1.15-1.42-1.5Zm.47,5.79c-.27.54-.63.96-1.1,1.26-.46.29-.98.44-1.57.44s-1.06-.14-1.52-.42-.8-.69-1.06-1.22c-.26-.53-.39-1.15-.39-1.88s.13-1.39.4-1.93c.27-.54.63-.96,1.1-1.25.46-.29.98-.44,1.57-.44s1.08.14,1.52.42.8.69,1.05,1.22.39,1.15.39,1.88-.13,1.38-.4,1.92Z"/>
    <path class="cls-2" d="m140.07,503.05c-.61-.36-1.3-.54-2.09-.54s-1.53.19-2.15.57c-.62.38-1.11.91-1.46,1.59-.35.68-.52,1.48-.52,2.4s.17,1.65.51,2.3c.34.65.82,1.16,1.42,1.51.6.36,1.3.54,2.09.54s1.54-.19,2.16-.57c.62-.38,1.1-.91,1.45-1.6.35-.69.52-1.48.52-2.39s-.17-1.67-.51-2.31c-.34-.65-.82-1.15-1.42-1.5Zm.47,5.79c-.27.54-.63.96-1.1,1.26-.46.29-.98.44-1.57.44s-1.06-.14-1.52-.42-.8-.69-1.06-1.22c-.26-.53-.39-1.15-.39-1.88s.13-1.39.4-1.93c.27-.54.63-.96,1.1-1.25.46-.29.98-.44,1.57-.44s1.08.14,1.52.42.8.69,1.05,1.22.39,1.15.39,1.88-.13,1.38-.4,1.92Z"/>
    <path class="cls-2" d="m146.31,510.48c-.32,0-.55-.08-.69-.26-.14-.17-.21-.49-.21-.95v-10.29h-1.03v10.41c0,.59.13,1.08.39,1.46.26.38.69.58,1.31.58.37,0,.71-.08,1.04-.24v-.85c-.15.05-.29.08-.41.1s-.26.03-.39.03Z"/>
    <path class="cls-2" d="m153.52,507.04c-.38-.18-.78-.33-1.2-.45s-.82-.24-1.2-.37c-.38-.13-.69-.3-.93-.51-.24-.21-.36-.5-.36-.86s.15-.71.46-1.02c.31-.31.81-.46,1.49-.46.43,0,.77.06,1.02.18s.44.25.57.41c.14.15.26.29.36.41.1.12.23.18.39.18.11,0,.21-.04.28-.12.07-.08.11-.19.11-.34,0-.27-.12-.53-.35-.76-.23-.24-.56-.43-.97-.58-.41-.15-.88-.22-1.42-.22-.65,0-1.2.11-1.64.33-.44.22-.77.52-.98.89-.22.37-.33.78-.33,1.22,0,.49.12.88.36,1.18.24.3.55.54.92.71s.78.31,1.2.43c.42.12.82.25,1.2.38s.69.31.92.54c.24.22.36.52.36.89,0,.4-.16.74-.49,1.04-.33.29-.85.44-1.58.44-.51,0-1.02-.09-1.52-.26s-.98-.44-1.45-.81v1.04c.29.24.68.45,1.18.62s1.09.26,1.76.26c.73,0,1.32-.11,1.77-.32.45-.21.78-.51.99-.88.21-.37.32-.77.32-1.2,0-.52-.12-.94-.36-1.25-.24-.31-.55-.56-.92-.74Z"/>
    <path class="cls-2" d="m161.45,511.22h1.03v-8.5c-.34.03-.69.03-1.03,0v8.5Z"/>
    <path class="cls-2" d="m161.96,499.45c-.25,0-.44.07-.57.22-.13.15-.19.32-.19.53s.06.38.19.53c.13.15.31.22.57.22s.44-.07.57-.22c.13-.15.19-.32.19-.53s-.06-.38-.19-.53c-.13-.15-.31-.22-.57-.22Z"/>
    <path class="cls-2" d="m166.84,501.29l-1.92,1.31c-.16.11-.28.22-.36.32-.08.1-.12.21-.12.32,0,.1.04.19.12.27.08.08.22.12.41.12h.84v5.36c0,.86.19,1.48.56,1.86.37.38.88.57,1.53.57.3,0,.56-.03.8-.09.23-.06.47-.14.71-.25v-.92c-.24.09-.47.17-.68.22-.21.06-.43.08-.66.08-.42,0-.73-.12-.93-.36s-.3-.64-.3-1.21v-5.27h2.91v-.92h-2.91v-1.43Z"/>
    <path class="cls-2" d="m181.17,502.89c-.47-.25-.98-.37-1.53-.37-.42,0-.85.08-1.29.24s-.84.41-1.2.76c-.16.16-.31.34-.44.54v-1.33h-1.03v8.5h1.03v-5.02c0-.63.13-1.15.39-1.56.26-.4.59-.7.99-.89.41-.19.83-.29,1.28-.29.41,0,.8.09,1.16.26.36.18.65.45.87.83.22.38.33.88.33,1.5v5.15h1.03v-5.2c0-.81-.14-1.47-.43-1.98-.29-.52-.67-.9-1.14-1.15Z"/>
    <path class="cls-2" d="m189.35,507.38c.57-.06,1.06-.18,1.48-.36.42-.18.75-.43.99-.75.23-.32.35-.7.35-1.16,0-.48-.13-.91-.39-1.31-.26-.4-.62-.71-1.09-.94-.47-.23-1.02-.35-1.64-.35-.79,0-1.49.19-2.12.58-.62.39-1.11.92-1.46,1.62-.35.69-.53,1.5-.53,2.43,0,1.34.37,2.39,1.1,3.15.74.76,1.76,1.14,3.07,1.14.65,0,1.21-.08,1.68-.25.47-.16.87-.35,1.2-.55v-.92c-.49.26-.97.45-1.45.58-.47.12-.93.19-1.38.19-.69,0-1.26-.14-1.73-.41-.47-.27-.83-.66-1.07-1.17-.24-.49-.35-1.08-.36-1.75.52.1,1.03.19,1.52.23.65.06,1.26.07,1.82,0Zm-3.28-1.02c.06-.45.15-.88.33-1.24.26-.54.62-.97,1.08-1.27.46-.3.98-.45,1.58-.45.66,0,1.17.17,1.52.5.35.33.53.72.53,1.15s-.17.78-.5,1.01-.77.39-1.32.46c-.55.07-1.15.09-1.81.03-.47-.04-.94-.11-1.42-.19Z"/>
    <path class="cls-2" d="m198.26,507.38c.57-.06,1.06-.18,1.48-.36.42-.18.75-.43.99-.75.23-.32.35-.7.35-1.16,0-.48-.13-.91-.39-1.31-.26-.4-.62-.71-1.09-.94-.47-.23-1.02-.35-1.64-.35-.79,0-1.49.19-2.12.58-.62.39-1.11.92-1.46,1.62-.35.69-.53,1.5-.53,2.43,0,1.34.37,2.39,1.1,3.15.74.76,1.76,1.14,3.07,1.14.65,0,1.21-.08,1.68-.25.47-.16.87-.35,1.2-.55v-.92c-.49.26-.97.45-1.45.58-.47.12-.93.19-1.38.19-.69,0-1.26-.14-1.73-.41-.47-.27-.83-.66-1.07-1.17-.24-.49-.35-1.08-.36-1.75.52.1,1.03.19,1.52.23.65.06,1.26.07,1.82,0Zm-3.28-1.02c.06-.45.15-.88.33-1.24.26-.54.62-.97,1.08-1.27.46-.3.98-.45,1.58-.45.66,0,1.17.17,1.52.5.35.33.53.72.53,1.15s-.17.78-.5,1.01-.77.39-1.32.46c-.55.07-1.15.09-1.81.03-.47-.04-.94-.11-1.42-.19Z"/>
    <path class="cls-2" d="m209.66,504.12c-.22-.43-.52-.78-.91-1.05-.54-.37-1.19-.55-1.97-.55s-1.48.19-2.09.57c-.61.38-1.08.9-1.41,1.57-.34.67-.51,1.45-.51,2.35s.17,1.67.51,2.34c.34.66.81,1.18,1.41,1.54.6.36,1.27.54,2.01.54.81,0,1.5-.21,2.07-.63.35-.25.63-.57.87-.94v1.36h1.03v-12.25h-1.03v5.14Zm-.75,5.6c-.5.5-1.16.76-1.97.76-.62,0-1.15-.14-1.61-.43-.46-.29-.81-.69-1.07-1.22-.26-.52-.39-1.13-.39-1.82s.13-1.32.39-1.85c.26-.53.61-.94,1.07-1.24.46-.3.98-.45,1.58-.45.54,0,1.01.12,1.42.36s.74.56.98.98c.24.41.36.88.36,1.4v1.53c0,.82-.25,1.48-.75,1.98Z"/>
    <path class="cls-2" d="m217.93,507.04c-.38-.18-.78-.33-1.2-.45s-.82-.24-1.2-.37c-.38-.13-.69-.3-.93-.51-.24-.21-.36-.5-.36-.86s.15-.71.46-1.02c.31-.31.81-.46,1.49-.46.43,0,.77.06,1.02.18s.44.25.57.41c.14.15.26.29.36.41.1.12.23.18.39.18.11,0,.21-.04.28-.12.07-.08.11-.19.11-.34,0-.27-.12-.53-.35-.76-.23-.24-.56-.43-.97-.58-.41-.15-.88-.22-1.42-.22-.65,0-1.2.11-1.64.33-.44.22-.77.52-.98.89-.22.37-.33.78-.33,1.22,0,.49.12.88.36,1.18.24.3.55.54.92.71s.78.31,1.2.43c.42.12.82.25,1.2.38s.69.31.92.54c.24.22.36.52.36.89,0,.4-.16.74-.49,1.04-.33.29-.85.44-1.58.44-.51,0-1.02-.09-1.52-.26s-.98-.44-1.45-.81v1.04c.29.24.68.45,1.18.62s1.09.26,1.76.26c.73,0,1.32-.11,1.77-.32.45-.21.78-.51.99-.88.21-.37.32-.77.32-1.2,0-.52-.12-.94-.36-1.25-.24-.31-.55-.56-.92-.74Z"/>
    <path class="cls-2" d="m227.13,501.29l-1.92,1.31c-.16.11-.28.22-.36.32-.08.1-.12.21-.12.32,0,.1.04.19.12.27.08.08.22.12.41.12h.84v5.36c0,.86.19,1.48.56,1.86.37.38.88.57,1.53.57.3,0,.56-.03.8-.09.23-.06.47-.14.71-.25v-.92c-.24.09-.47.17-.68.22-.21.06-.43.08-.66.08-.42,0-.73-.12-.93-.36s-.3-.64-.3-1.21v-5.27h2.91v-.92h-2.91v-1.43Z"/>
    <path class="cls-2" d="m237.18,503.05c-.61-.36-1.3-.54-2.09-.54s-1.53.19-2.15.57c-.62.38-1.11.91-1.46,1.59-.35.68-.52,1.48-.52,2.4s.17,1.65.51,2.3c.34.65.82,1.16,1.42,1.51.6.36,1.3.54,2.09.54s1.54-.19,2.16-.57c.62-.38,1.1-.91,1.45-1.6.35-.69.52-1.48.52-2.39s-.17-1.67-.51-2.31c-.34-.65-.82-1.15-1.42-1.5Zm.47,5.79c-.27.54-.63.96-1.1,1.26-.46.29-.98.44-1.57.44s-1.06-.14-1.52-.42-.8-.69-1.06-1.22c-.26-.53-.39-1.15-.39-1.88s.13-1.39.4-1.93c.27-.54.63-.96,1.1-1.25.46-.29.98-.44,1.57-.44s1.08.14,1.52.42.8.69,1.05,1.22.39,1.15.39,1.88-.13,1.38-.4,1.92Z"/>
    <path class="cls-2" d="m248.86,502.52c-.67,0-1.27.12-1.8.36-.52.24-.94.57-1.23,1-.3.43-.45.94-.45,1.51,0,.85.31,1.52.93,2.01.18.14.38.26.6.36-.51.1-.91.27-1.19.52-.34.29-.51.68-.51,1.17,0,.26.06.51.19.76.13.24.35.44.66.6s.76.23,1.34.23h2.62c.78,0,1.31.11,1.59.34.29.23.43.52.43.88,0,.6-.29,1.03-.87,1.3-.58.27-1.31.4-2.19.4-.59,0-1.06-.04-1.4-.13-.34-.08-.61-.19-.8-.31-.19-.12-.35-.22-.48-.31s-.28-.13-.44-.13c-.15,0-.26.04-.33.13-.07.08-.11.18-.11.3s.03.22.1.32c.07.1.17.2.29.29.29.21.7.39,1.23.52.54.13,1.18.2,1.92.2,1.36,0,2.38-.22,3.06-.67.68-.45,1.02-1.1,1.02-1.95,0-.76-.25-1.31-.76-1.64-.51-.33-1.18-.5-2.03-.5h-2.6c-.53,0-.9-.06-1.12-.18s-.33-.31-.33-.59c0-.18.06-.36.19-.54s.37-.33.74-.45c.37-.12.9-.18,1.61-.18s1.31-.12,1.83-.35c.52-.23.94-.56,1.23-.99.3-.42.45-.92.45-1.49,0-.29-.05-.58-.14-.84-.09-.27-.24-.51-.44-.73-.08-.09-.18-.17-.29-.25.26.04.51.08.71.1.38.04.82.06,1.31.06v-.92c-.77,0-1.52-.03-2.25-.1-.74-.07-1.5-.1-2.29-.1Zm1.69,4.23c-.46.33-1.06.5-1.79.5s-1.27-.16-1.71-.48-.67-.79-.67-1.41.23-1.12.69-1.45c.46-.33,1.05-.5,1.77-.5s1.28.16,1.73.48.67.79.67,1.41-.23,1.12-.69,1.45Z"/>
    <path class="cls-2" d="m259.02,502.61c-.15-.06-.34-.09-.56-.09-.48,0-.95.18-1.4.54-.27.22-.52.53-.74.92v-1.26h-1.03v8.5h1.03v-5.02c0-.75.17-1.37.51-1.88.34-.5.78-.76,1.32-.76.16,0,.31.02.44.06s.27.06.4.06c.17,0,.3-.04.39-.13s.13-.2.13-.33c0-.15-.04-.27-.13-.37-.09-.1-.21-.18-.36-.25Z"/>
    <path class="cls-2" d="m266.59,503.05c-.61-.36-1.3-.54-2.09-.54s-1.53.19-2.15.57c-.62.38-1.11.91-1.46,1.59-.35.68-.52,1.48-.52,2.4s.17,1.65.51,2.3c.34.65.82,1.16,1.42,1.51.6.36,1.3.54,2.09.54s1.54-.19,2.16-.57c.62-.38,1.1-.91,1.45-1.6.35-.69.52-1.48.52-2.39s-.17-1.67-.51-2.31c-.34-.65-.82-1.15-1.42-1.5Zm.47,5.79c-.27.54-.63.96-1.1,1.26-.46.29-.98.44-1.57.44s-1.06-.14-1.52-.42-.8-.69-1.06-1.22c-.26-.53-.39-1.15-.39-1.88s.13-1.39.4-1.93c.27-.54.63-.96,1.1-1.25.46-.29.98-.44,1.57-.44s1.08.14,1.52.42.8.69,1.05,1.22.39,1.15.39,1.88-.13,1.38-.4,1.92Z"/>
    <path class="cls-2" d="m278.71,509.86l-2.23-6.54c-.09-.27-.2-.47-.33-.6-.13-.13-.28-.2-.46-.2s-.34.07-.46.2c-.13.13-.23.33-.33.6l-2.23,6.54-2.06-7.14h-1.11l2.64,8.5h1.03l2.52-7.3,2.52,7.3h1.03l2.64-8.5h-1.11l-2.06,7.14Z"/>
    <path class="cls-2" d="m283.63,509.79c-.29,0-.5.08-.64.24-.14.16-.21.35-.21.58s.07.41.21.57c.14.17.36.25.64.25s.5-.08.64-.25c.14-.16.21-.35.21-.57,0-.23-.07-.42-.21-.58-.14-.16-.36-.24-.64-.24Z"/>
  </g>
  <path class="cls-3" d="m367.9,245c0-.06-.01-.11-.02-.16,0-.11,0-.21-.02-.31-.01-.11-.03-.23-.05-.34-.02-.11-.04-.22-.06-.33-.02-.09-.05-.18-.07-.28-.03-.11-.07-.21-.11-.32-.04-.11-.08-.22-.13-.32-.04-.1-.09-.19-.14-.28-.03-.05-.04-.1-.07-.15s-.07-.09-.1-.13c-.06-.09-.11-.18-.17-.26-.07-.09-.14-.18-.21-.27-.07-.09-.15-.18-.22-.26-.07-.07-.13-.14-.2-.2-.08-.08-.17-.15-.25-.22-.09-.07-.18-.15-.28-.22-.09-.06-.17-.12-.26-.17-.05-.03-.08-.07-.13-.1l-40.8-23.56v-47.11c0-.06-.01-.11-.02-.16,0-.11,0-.21-.02-.31-.01-.11-.03-.23-.05-.34-.02-.11-.04-.22-.06-.33-.02-.09-.05-.18-.07-.28-.03-.11-.07-.21-.11-.32-.04-.11-.08-.22-.13-.32-.04-.1-.09-.19-.14-.28-.03-.05-.04-.1-.07-.15-.03-.05-.07-.09-.1-.13-.06-.09-.11-.18-.17-.26-.07-.09-.14-.18-.21-.27-.07-.09-.14-.17-.22-.26-.07-.07-.13-.14-.2-.2-.08-.08-.17-.15-.26-.22-.09-.07-.18-.15-.27-.21-.09-.06-.17-.12-.27-.17-.05-.03-.08-.07-.13-.1l-43.3-25s-.1-.04-.15-.07c-.16-.08-.32-.15-.49-.22-.14-.06-.29-.12-.44-.16-.15-.05-.31-.07-.46-.11-.16-.03-.32-.07-.49-.08-.16-.02-.31-.01-.47-.01-.16,0-.32,0-.49.01-.16.02-.31.05-.47.08-.16.03-.32.06-.48.11-.14.04-.28.1-.43.16-.17.07-.33.14-.5.22-.05.03-.1.04-.15.07l-40.8,23.56-40.8-23.56s-.1-.04-.15-.07c-.16-.08-.32-.15-.49-.22-.15-.06-.29-.12-.44-.16-.15-.05-.31-.07-.47-.11-.16-.03-.32-.07-.49-.08-.16-.02-.31-.01-.47-.01-.16,0-.33,0-.49.01-.16.02-.31.05-.47.08-.16.03-.32.06-.48.11-.14.04-.28.1-.42.16-.17.07-.33.14-.5.22-.05.03-.1.04-.15.07l-43.3,25s-.09.07-.13.1c-.09.06-.18.11-.26.17-.09.07-.18.14-.27.22-.09.07-.17.14-.26.22-.07.07-.14.13-.2.2-.08.08-.15.17-.22.26-.07.09-.15.18-.21.27-.06.09-.12.17-.17.26-.03.05-.07.08-.1.13-.03.05-.04.1-.07.15-.05.09-.1.19-.14.28-.05.1-.09.21-.13.32-.04.11-.08.21-.11.32-.03.09-.05.18-.07.28-.03.11-.05.22-.06.33-.02.11-.04.23-.05.34-.01.1-.01.21-.02.31,0,.06-.02.11-.02.16v47.11l-40.8,23.56s-.09.07-.13.1c-.09.06-.18.11-.26.17-.09.07-.18.14-.27.21-.09.07-.18.15-.26.22-.07.07-.14.13-.2.2-.08.08-.15.17-.22.26-.07.09-.15.18-.21.27-.06.09-.12.17-.17.26-.03.05-.07.08-.1.13-.03.05-.04.1-.07.15-.05.09-.1.19-.14.28-.05.1-.09.21-.13.32-.04.11-.08.21-.11.32-.03.09-.05.18-.07.28-.03.11-.05.22-.06.33-.02.11-.04.23-.05.34-.01.1-.01.21-.02.31,0,.06-.02.11-.02.16v50c0,.06.01.11.02.16,0,.18.03.36.05.54.02.15.04.31.08.45.04.16.09.31.14.46.05.15.1.31.17.45.07.15.15.28.23.42.08.14.16.28.25.41.09.13.2.25.31.38.11.12.21.24.33.35.11.11.23.2.36.29.14.11.28.22.44.31.05.03.08.07.13.1l40.8,23.56v47.11c0,.06.01.11.02.16,0,.18.03.36.05.54.02.15.04.31.08.45.04.16.09.31.14.46.05.15.1.31.17.46.07.15.15.28.23.42.08.14.16.28.25.41.09.13.2.25.31.37.11.12.21.24.33.36.11.1.23.2.35.29.14.11.28.22.44.32.05.03.08.07.13.1l43.3,25s0,0,.01,0c.14.08.29.15.44.22,0,0,0,0,.01,0,.04.02.07.04.11.05.01,0,.02.01.04.02.06.03.13.04.19.07.2.07.4.13.6.18.06.01.13.03.19.04.3.05.6.09.9.09,0,0,0,0,0,0s0,0,0,0c.3,0,.6-.04.9-.09.06-.01.13-.02.19-.04.23-.05.46-.12.68-.2.04-.01.08-.02.11-.04.01,0,.03-.01.04-.02.04-.02.07-.04.11-.05.02,0,.04-.02.05-.03.14-.06.27-.12.4-.2,0,0,0,0,.01,0l40.8-23.56,40.8,23.56s0,0,.01,0c.14.08.29.15.44.22,0,0,0,0,.01,0,.04.02.07.04.11.05.01,0,.02.01.04.02.06.03.13.04.19.07.2.07.4.13.6.18.06.01.13.03.19.04.3.05.6.09.9.09,0,0,0,0,0,0s0,0,0,0c.3,0,.6-.04.9-.09.06-.01.13-.02.19-.04.23-.05.46-.12.68-.2.04-.01.08-.02.11-.04.01,0,.03-.01.04-.02.04-.02.07-.04.11-.05.02,0,.04-.02.05-.03.14-.06.27-.12.4-.2,0,0,0,0,.01,0l43.3-25s.09-.07.13-.1c.15-.1.3-.2.44-.32.12-.1.24-.19.35-.29.12-.11.22-.23.33-.36.11-.12.22-.24.31-.37.09-.13.17-.27.25-.41.08-.14.16-.27.23-.42.07-.15.12-.3.17-.46.05-.15.11-.3.14-.46.04-.15.05-.3.08-.45.03-.18.05-.36.05-.54,0-.06.02-.11.02-.16v-47.11l40.8-23.56s.09-.07.13-.1c.15-.1.3-.2.44-.32.12-.1.24-.19.35-.29.12-.11.22-.23.33-.36.11-.12.22-.24.31-.37.09-.13.17-.27.25-.41.08-.14.16-.27.23-.42.07-.15.12-.3.17-.46.05-.15.11-.3.14-.46.04-.15.05-.3.08-.45.03-.18.05-.36.05-.54,0-.06.02-.11.02-.16v-50Zm-50.8,70.67s-.09.07-.13.1c-.15.1-.29.2-.44.31-.12.1-.24.19-.36.29-.12.11-.22.23-.33.35-.11.12-.22.24-.31.38-.09.13-.17.27-.25.41-.08.14-.16.28-.23.42-.07.15-.12.3-.17.45-.05.15-.11.3-.14.46-.04.15-.05.3-.08.45-.03.18-.05.36-.05.54,0,.06-.02.11-.02.16v47.11l-33.3,19.23v-41.34c0-.1-.02-.18-.03-.28,0-.18-.02-.36-.05-.54-.03-.16-.06-.32-.11-.47-.04-.15-.09-.31-.14-.46-.06-.17-.14-.33-.22-.5-.04-.08-.07-.17-.11-.25-.03-.05-.07-.09-.1-.13-.1-.15-.2-.29-.31-.44-.1-.12-.19-.25-.3-.36-.11-.12-.23-.22-.35-.32-.12-.11-.25-.22-.38-.31-.13-.09-.26-.17-.4-.25-.14-.08-.28-.16-.43-.23-.15-.07-.3-.12-.45-.17-.15-.05-.31-.11-.47-.14-.15-.03-.3-.05-.45-.08-.18-.03-.36-.05-.54-.05-.06,0-.11-.02-.16-.02-.1,0-.18.02-.28.03-.18,0-.36.02-.54.05-.16.03-.32.07-.47.11-.15.04-.31.09-.46.14-.17.06-.33.14-.5.22-.08.04-.17.07-.25.11l-35.8,20.67v-38.45l40.76-23.53s.01,0,.02-.01l.03-.02s.02-.02.03-.02c.06-.03.11-.07.16-.11.06-.04.11-.07.17-.11.13-.09.25-.19.37-.29.05-.04.1-.08.15-.13.05-.05.1-.09.15-.13.01-.01.02-.02.03-.04.14-.15.28-.3.41-.47.03-.04.05-.08.08-.12,0,0,.01-.02.02-.03.05-.07.09-.13.14-.2.04-.06.09-.12.12-.18.03-.05.04-.1.07-.15.05-.09.1-.19.14-.28.05-.1.09-.21.13-.32.04-.11.08-.21.11-.32.03-.09.05-.18.07-.28.03-.11.05-.22.06-.33.02-.11.04-.23.05-.34.01-.1.01-.21.02-.31,0-.06.02-.11.02-.16v-47.11l33.3-19.23v41.34c0,.1.02.18.03.28,0,.18.02.36.05.54.03.16.06.31.11.47.04.15.09.31.14.46.06.17.14.33.22.5.04.08.07.17.12.26.04.06.08.12.12.18.04.07.09.14.14.2.16.22.32.43.51.62.01.01.02.03.03.04.21.21.43.39.67.55.05.04.11.07.17.11.21.14.43.26.66.36.04.02.08.04.12.06.26.11.53.19.81.25.07.02.14.03.21.04.3.05.59.09.9.09s.6-.04.9-.09c.06-.01.13-.02.19-.04.28-.06.56-.14.83-.26.04-.02.07-.04.11-.05.16-.07.31-.14.47-.23l35.8-20.67v38.45l-40.8,23.56Zm-124.9,25c-.08-.05-.17-.07-.26-.12-.16-.08-.32-.16-.49-.22-.15-.06-.31-.1-.47-.14-.15-.04-.3-.08-.46-.1-.18-.03-.37-.05-.55-.06-.09,0-.18-.03-.27-.03-.05,0-.1.01-.16.02-.19,0-.37.03-.55.06-.15.02-.3.04-.44.07-.16.04-.32.09-.47.15-.15.05-.3.1-.45.17-.15.07-.29.15-.43.23-.14.08-.27.16-.4.25-.13.09-.25.2-.38.31-.12.11-.24.21-.35.33-.1.11-.2.23-.29.35-.11.14-.22.28-.32.44-.03.05-.07.08-.1.13-.05.08-.07.17-.11.25-.08.16-.16.32-.22.5-.06.15-.1.3-.14.46-.04.16-.08.31-.11.47-.03.18-.04.36-.05.54,0,.09-.03.18-.03.28v41.34l-33.3-19.23v-47.11c0-.06-.01-.11-.02-.16,0-.18-.03-.36-.05-.54-.02-.15-.04-.31-.08-.45-.04-.16-.09-.31-.14-.46-.05-.15-.1-.31-.17-.45-.07-.15-.15-.28-.23-.42-.08-.14-.16-.28-.25-.41-.09-.13-.2-.25-.31-.38-.11-.12-.21-.24-.33-.35-.11-.11-.23-.2-.36-.29-.14-.11-.28-.22-.44-.31-.05-.03-.08-.07-.13-.1l-40.8-23.56v-38.45l35.8,20.67c.15.09.31.16.47.23.04.02.07.04.11.06.27.11.55.19.83.26.06.01.13.03.19.04.3.05.6.09.9.09s.6-.04.9-.09c.07-.01.14-.03.21-.04.28-.06.55-.14.81-.25.04-.02.08-.04.12-.06.23-.1.45-.22.66-.36.06-.04.11-.07.17-.11.24-.16.46-.34.67-.55.01-.01.02-.02.03-.04.19-.19.35-.4.51-.62.05-.07.09-.13.14-.2.04-.06.09-.12.12-.18.05-.08.07-.17.12-.26.08-.16.16-.32.22-.5.06-.15.1-.31.14-.46.04-.15.08-.31.11-.47.03-.18.04-.36.05-.54,0-.09.03-.18.03-.28v-41.34l33.3,19.23v47.11c0,.06.01.11.02.16,0,.11,0,.21.02.31.01.11.03.23.05.34.02.11.04.22.06.33.02.09.05.18.07.28.03.11.07.21.11.32.04.11.08.22.13.32.04.1.09.19.14.28.03.05.04.1.07.15.04.06.08.12.12.18.04.07.09.14.14.2,0,0,.01.02.02.03.03.04.05.08.08.12.13.17.26.32.41.46.01.01.02.03.03.04.05.05.1.09.15.13.05.05.1.09.15.13.12.1.24.2.37.29.05.04.11.07.17.11.05.04.11.07.16.11.01,0,.02.02.03.02l.03.02s.01,0,.02.01l40.76,23.53v38.45l-35.8-20.67Zm-.05-141.31s.01,0,.02-.01l.03-.02s.02-.02.03-.02c.25-.14.48-.32.7-.5.05-.04.1-.08.15-.13.21-.19.41-.4.59-.64.03-.04.05-.08.08-.12.1-.14.2-.27.28-.42.03-.05.04-.1.07-.15.09-.16.15-.32.22-.49.06-.14.12-.28.16-.43.05-.16.08-.31.11-.47.03-.16.07-.32.08-.48.02-.16.01-.32.01-.48,0-.16,0-.32-.01-.48-.02-.16-.05-.32-.08-.48-.03-.16-.06-.32-.11-.47-.04-.15-.1-.29-.16-.43-.07-.17-.14-.33-.22-.49-.03-.05-.04-.1-.07-.15-.05-.08-.11-.15-.16-.23-.1-.15-.2-.3-.32-.44-.1-.13-.21-.24-.33-.35-.11-.11-.23-.22-.35-.33-.14-.12-.29-.22-.44-.32-.08-.05-.14-.12-.23-.16l-35.8-20.67,33.3-19.23,40.8,23.56s0,0,.01,0c.14.08.29.15.44.22.05.02.11.05.16.08.07.03.14.05.22.07.55.19,1.11.3,1.67.3,0,0,0,0,0,0s0,0,0,0c.57,0,1.14-.11,1.69-.31.06-.02.13-.04.19-.06.06-.02.11-.06.17-.08.15-.07.29-.13.43-.21,0,0,0,0,.01,0l40.8-23.56,33.3,19.23-35.8,20.67c-.08.05-.15.11-.23.16-.15.1-.3.2-.44.32-.12.1-.24.21-.35.32-.11.11-.22.23-.33.36-.12.14-.22.29-.32.44-.05.08-.12.14-.16.23-.03.05-.04.1-.07.15-.09.16-.15.32-.22.49-.06.14-.12.28-.16.43-.05.16-.08.31-.11.47-.03.16-.07.32-.08.48-.02.16-.01.32-.01.48,0,.16,0,.32.01.48.02.16.05.32.08.48.03.16.06.32.11.47.04.15.1.29.16.43.07.17.14.33.22.49.03.05.04.1.07.15.08.15.18.28.28.42.03.04.05.08.08.12.18.23.38.44.59.63.05.05.1.09.15.13.22.19.45.36.7.5.01,0,.02.02.03.02l.03.02s.01,0,.02.01l35.76,20.64-33.3,19.23-40.8-23.56s-.1-.04-.15-.07c-.09-.05-.18-.1-.27-.14-.11-.05-.21-.09-.32-.13-.11-.04-.22-.08-.33-.11-.09-.03-.18-.05-.27-.07-.11-.03-.22-.05-.34-.07-.12-.02-.23-.04-.35-.05-.1,0-.2-.01-.3-.02-.06,0-.11-.02-.17-.02s-.11.01-.16.02c-.11,0-.21,0-.32.02-.11.01-.22.03-.33.05-.11.02-.23.04-.34.06-.09.02-.19.05-.28.08-.11.03-.21.07-.32.11-.11.04-.22.08-.32.13-.1.04-.19.09-.28.14-.05.03-.1.04-.15.07l-40.8,23.56-33.3-19.23,35.76-20.64Zm40.85,114.87l-33.3-19.23,33.3-19.23,33.3,19.23-33.3,19.23Zm38.3-27.89l-33.3-19.23v-38.45l33.3,19.23v38.45Zm-43.3-19.23l-33.3,19.23v-38.45l33.3-19.23v38.45Zm124.9-22.11l-28.3,16.34v-32.68l28.3,16.34Zm-66.6-50l28.3-16.34v32.68l-28.3-16.34Zm-134.9-16.34l28.3,16.34-28.3,16.34v-32.68Zm-10,82.68l-28.3-16.34,28.3-16.34v32.68Zm53.3,125v-32.68l28.3,16.34-28.3,16.34Zm76.6-32.68v32.68l-28.3-16.34,28.3-16.34Z"/>
</svg>