<?xml version="1.0" encoding="UTF-8"?>
<svg id="Layer_1" data-name="Layer 1" xmlns="http://www.w3.org/2000/svg" xmlns:xlink="http://www.w3.org/1999/xlink" viewBox="52.63 66.68 466 540">
  <defs>
    <style>
      .cls-1 {
        fill: #fff;
      }

      .cls-2 {
        opacity: .7;
      }

      .cls-2, .cls-3, .cls-4 {
        fill: none;
      }

      .cls-5 {
        fill: #471b52;
      }

      .cls-6 {
        fill: #ffb979;
        opacity: .9;
      }

      .cls-4 {
        clip-path: url(#clippath);
      }

      .cls-7 {
        fill: url(#linear-gradient);
      }
    </style>
    <linearGradient id="linear-gradient" x1="174.48" y1="31.31" x2="396.77" y2="642.04" gradientUnits="userSpaceOnUse">
      <stop offset="0" stop-color="#ffb979" stop-opacity="0"/>
      <stop offset=".06" stop-color="#ffb979" stop-opacity=".14"/>
      <stop offset=".16" stop-color="#ffb979" stop-opacity=".34"/>
      <stop offset=".26" stop-color="#ffb979" stop-opacity=".52"/>
      <stop offset=".37" stop-color="#ffb979" stop-opacity=".67"/>
      <stop offset=".48" stop-color="#ffb979" stop-opacity=".79"/>
      <stop offset=".59" stop-color="#ffb979" stop-opacity=".88"/>
      <stop offset=".71" stop-color="#ffb979" stop-opacity=".95"/>
      <stop offset=".84" stop-color="#ffb979" stop-opacity=".99"/>
      <stop offset="1" stop-color="#ffb979"/>
    </linearGradient>
    <clipPath id="clippath">
      <rect class="cls-3" x="52.63" y="66.68" width="466" height="540" rx="30" ry="30"/>
    </clipPath>
  </defs>
  <rect class="cls-7" x="52.63" y="66.68" width="466" height="540" rx="30" ry="30"/>
  <g class="cls-4">
    <g class="cls-2">
      <path class="cls-1" d="m231.23,158.17c0,27.21-2.93,50.75-8.78,70.58-5.85,19.84-13.92,36.29-24.19,49.32-10.28,13.04-22.55,22.75-36.83,29.13-14.28,6.38-29.69,9.57-46.25,9.57s-31.83-3.19-45.82-9.57c-13.99-6.38-26.12-16.08-36.4-29.13-10.28-13.04-18.35-29.48-24.19-49.32C2.92,208.92,0,185.39,0,158.17s2.92-50.31,8.78-70.16c5.85-19.84,13.92-36.28,24.19-49.32,10.28-13.04,22.41-22.75,36.4-29.13C83.35,3.19,98.63,0,115.19,0s31.97,3.19,46.25,9.57c14.27,6.38,26.55,16.09,36.83,29.13,10.28,13.04,18.34,29.48,24.19,49.32,5.85,19.84,8.78,43.23,8.78,70.16Zm-68.51.43c0-21.54-1.36-39.18-4.07-52.94-2.72-13.75-6.21-24.59-10.49-32.53-4.57-7.65-9.71-12.9-15.42-15.73-5.71-2.83-11.56-4.25-17.56-4.25s-11.42,1.42-17.13,4.25c-5.71,2.84-10.71,8.23-14.99,16.16-4.28,7.65-7.78,18.36-10.49,32.1-2.72,13.75-4.07,31.4-4.07,52.94s1.35,38.69,4.07,52.3c2.71,13.61,6.21,24.38,10.49,32.32,4.28,7.94,9.27,13.33,14.99,16.16,5.71,2.84,11.56,4.25,17.56,4.25s11.41-1.42,17.13-4.25c5.71-2.83,10.85-8.22,15.42-16.16,4.28-7.93,7.77-18.71,10.49-32.32,2.71-13.61,4.07-31.04,4.07-52.3Z"/>
      <path class="cls-1" d="m285.62,313.37v-26.79c0-9.07,4.71-14.31,14.13-15.73l45.82-5.95V109.28c0-3.97.07-7.93.21-11.91.14-3.97.35-7.93.64-11.91l-35.54,28.91c-2.29,1.99-4.57,3.33-6.85,4.04-2.29.71-4.43,1.06-6.42,1.06-3.71,0-7.07-.78-10.06-2.34-3-1.55-5.21-3.33-6.64-5.31l-20.98-27.64L357.13,3.4h54.81v261.5l37.68,5.53c9.13,1.42,13.7,6.8,13.7,16.16v26.79h-177.71Z"/>
    </g>
  </g>
  <g>
    <path class="cls-5" d="m73.74,516.88c-.25,0-.45-.03-.59-.09-.14-.06-.24-.17-.29-.32-.05-.15-.08-.36-.08-.62,0-.75.13-1.38.39-1.89.26-.51.59-.93,1.01-1.28.42-.34.88-.63,1.39-.87.51-.24,1.01-.46,1.52-.66.5-.2.96-.41,1.38-.64.42-.23.75-.5,1.01-.82s.39-.73.39-1.23c0-.41-.1-.8-.3-1.17s-.51-.67-.92-.91c-.41-.24-.94-.36-1.59-.36-.57,0-1.04.08-1.4.25-.36.17-.65.36-.87.58-.22.22-.42.41-.58.58-.17.17-.34.25-.52.25-.11,0-.21-.04-.3-.12-.09-.08-.13-.18-.13-.31s.04-.26.13-.39c.09-.14.19-.27.3-.39.3-.33.72-.64,1.28-.93.55-.29,1.26-.43,2.13-.43,1.21,0,2.16.31,2.84.92.69.61,1.03,1.42,1.03,2.43,0,.63-.13,1.16-.39,1.58-.26.42-.6.76-1.03,1.04-.42.27-.89.51-1.4.71-.51.2-1.02.41-1.52.61s-.96.45-1.39.73c-.42.28-.76.64-1,1.07-.25.43-.36.98-.33,1.65h7.28v1.02h-7.42Z"/>
    <path class="cls-5" d="m82.6,513.75c-.31,0-.54-.06-.69-.19s-.22-.29-.22-.51c0-.1.03-.23.08-.37.05-.15.16-.31.32-.49l5.91-6.87h1.1l-.26.49-6.39,7.43-.45-.48h9.11v.99h-8.51Zm5.4,3.13v-11.57h1.1v11.57h-1.1Z"/>
    <path class="cls-5" d="m91.77,518.58l5-13.27h1.03l-5,13.27h-1.03Z"/>
    <path class="cls-5" d="m103.77,511.45l-4.64-6.14h1.28l4.3,5.68-.94.46Zm-.05,5.43v-5.77h1.06v5.77h-1.06Zm.99-5.43l-.92-.46,4.3-5.68h1.28l-4.66,6.14Z"/>
    <path class="cls-5" d="m109.01,512.73c0-.92.17-1.72.52-2.4.35-.68.83-1.21,1.46-1.59.62-.38,1.34-.57,2.15-.57s1.48.18,2.09.54c.6.36,1.08.86,1.42,1.5.34.65.51,1.42.51,2.31s-.17,1.7-.52,2.39c-.35.69-.83,1.22-1.45,1.6-.62.38-1.34.57-2.16.57s-1.48-.18-2.09-.54c-.61-.36-1.08-.86-1.42-1.51-.34-.65-.51-1.42-.51-2.3Zm1.06-.05c0,.73.13,1.35.39,1.88.26.53.61.93,1.06,1.22s.96.42,1.52.42,1.1-.15,1.57-.44c.46-.29.83-.71,1.1-1.26.27-.54.4-1.18.4-1.92s-.13-1.35-.39-1.88-.61-.93-1.05-1.22-.95-.42-1.52-.42-1.1.15-1.57.44c-.46.29-.83.71-1.1,1.25-.27.54-.4,1.18-.4,1.93Z"/>
    <path class="cls-5" d="m122.84,517.08c-1.03,0-1.87-.29-2.52-.88s-.98-1.49-.98-2.73v-5.1h1.03v5.08c0,.9.22,1.57.66,2.01.44.44,1.04.66,1.81.66s1.38-.22,1.82-.66c.43-.44.65-1.11.65-2.01v-5.08h1.03v5.1c0,1.24-.33,2.15-.98,2.73s-1.49.88-2.52.88Z"/>
    <path class="cls-5" d="m129.13,516.88v-8.5h1.03v8.5h-1.03Zm1.03-5.02l-.41-1.34c.31-.84.69-1.44,1.15-1.8.46-.36.92-.54,1.4-.54.22,0,.4.03.56.09.15.06.27.14.36.25.09.1.13.23.13.37,0,.14-.04.25-.13.33s-.21.13-.39.13c-.14,0-.27-.02-.4-.06s-.28-.06-.44-.06c-.54,0-.98.25-1.32.76-.34.5-.51,1.13-.51,1.88Z"/>
    <path class="cls-5" d="m145.54,509.87c0,.15-.04.26-.13.34-.09.08-.19.12-.32.12-.18,0-.33-.07-.45-.2-.11-.13-.24-.28-.39-.44-.14-.16-.34-.31-.58-.44-.25-.13-.59-.2-1.04-.2-.94,0-1.67.33-2.2.99-.53.66-.8,1.53-.8,2.62,0,.74.13,1.36.38,1.88.25.52.61.91,1.08,1.18.47.27,1.03.41,1.68.41.43,0,.86-.06,1.29-.19s.87-.32,1.33-.58v.92c-.31.2-.67.39-1.1.55-.42.17-.95.25-1.58.25-1.29,0-2.31-.39-3.06-1.17-.75-.78-1.12-1.84-1.12-3.18,0-.91.17-1.7.52-2.39.35-.69.83-1.22,1.45-1.6.62-.38,1.33-.57,2.14-.57.61,0,1.12.1,1.54.29.42.19.75.41.98.66.24.25.36.5.36.75Z"/>
    <path class="cls-5" d="m147.56,516.88v-12.25h1.03v12.25h-1.03Zm6.03,0v-5.15c0-.62-.11-1.12-.33-1.5-.22-.38-.51-.66-.87-.83-.36-.18-.75-.26-1.16-.26-.45,0-.87.1-1.28.29-.41.19-.74.49-.99.89-.26.4-.39.92-.39,1.56l-.41-1.34c.22-.55.51-1.01.87-1.35s.76-.6,1.19-.76c.43-.16.86-.24,1.28-.24.55,0,1.06.12,1.53.37.47.25.85.63,1.14,1.15.29.52.43,1.18.43,1.98v5.2h-1.03Z"/>
    <path class="cls-5" d="m159.47,517.08c-.78,0-1.41-.21-1.9-.62-.49-.41-.74-1-.74-1.76,0-.66.21-1.18.62-1.57.42-.39,1.04-.68,1.88-.86l1.44-.31c.64-.14,1.05-.28,1.24-.43.19-.15.28-.37.28-.68v1.33c-.09.1-.24.2-.44.3s-.5.19-.9.28l-1.37.29c-.49.1-.89.28-1.2.52-.31.24-.46.61-.46,1.1s.16.87.47,1.15c.31.28.73.42,1.24.42.45,0,.87-.1,1.28-.31s.74-.52.99-.92c.26-.4.39-.88.39-1.44l.29,1.29c-.24.79-.65,1.36-1.24,1.71-.59.35-1.21.52-1.88.52Zm4.28-.2h-1.03c-.08-.18-.15-.45-.21-.79s-.09-.69-.09-1.05l-.12-.32v-3.93c0-.66-.19-1.11-.57-1.34-.38-.24-.87-.36-1.45-.36-.51,0-.92.06-1.21.19-.29.12-.52.27-.68.44-.16.17-.3.32-.41.44-.11.12-.26.19-.43.19-.11,0-.21-.03-.29-.1-.08-.07-.12-.17-.12-.31,0-.1.03-.22.09-.36.06-.14.16-.28.31-.44.62-.65,1.53-.97,2.74-.97.58,0,1.1.08,1.56.25.46.16.82.44,1.09.82.27.39.4.9.4,1.55v3.74c0,.49.04.94.13,1.35.09.41.19.75.3,1Z"/>
    <path class="cls-5" d="m170.04,516.74c-.24.1-.48.18-.71.25-.23.06-.5.09-.8.09-.65,0-1.16-.19-1.53-.57-.37-.38-.56-1-.56-1.86v-5.36h-.84c-.19,0-.33-.04-.41-.12-.08-.08-.12-.17-.12-.27,0-.11.04-.22.12-.32.08-.1.2-.21.36-.32l1.92-1.31v1.43h2.91v.92h-2.91v5.27c0,.57.1.97.3,1.21s.51.36.93.36c.23,0,.45-.03.66-.08.21-.06.44-.13.68-.22v.92Z"/>
    <path class="cls-5" d="m173.21,513.81l-1.03-.66v-8.52h1.03v9.18Zm2.81,3.27c-1.18,0-2.11-.35-2.8-1.06-.69-.71-1.04-1.66-1.04-2.87h1.03c0,.87.26,1.59.78,2.14.52.56,1.2.83,2.03.83.9,0,1.62-.32,2.17-.97.54-.65.81-1.5.81-2.57,0-.69-.13-1.3-.39-1.82s-.61-.93-1.07-1.22-.99-.43-1.61-.43c-.8,0-1.45.25-1.96.76-.51.5-.76,1.17-.76,1.98l-.41-1.34c.3-.74.73-1.31,1.3-1.73.57-.41,1.26-.62,2.06-.62.75,0,1.43.18,2.02.54.59.36,1.06.87,1.4,1.53.34.66.51,1.44.51,2.35s-.17,1.66-.5,2.34c-.33.67-.8,1.2-1.41,1.58-.61.38-1.33.57-2.17.57Z"/>
    <path class="cls-5" d="m181.9,512.73c0-.92.17-1.72.52-2.4.35-.68.83-1.21,1.46-1.59.62-.38,1.34-.57,2.15-.57s1.48.18,2.09.54c.6.36,1.08.86,1.42,1.5.34.65.51,1.42.51,2.31s-.17,1.7-.52,2.39c-.35.69-.83,1.22-1.45,1.6-.62.38-1.34.57-2.16.57s-1.48-.18-2.09-.54c-.61-.36-1.08-.86-1.42-1.51-.34-.65-.51-1.42-.51-2.3Zm1.06-.05c0,.73.13,1.35.39,1.88.26.53.61.93,1.06,1.22s.96.42,1.52.42,1.1-.15,1.57-.44c.46-.29.83-.71,1.1-1.26.27-.54.4-1.18.4-1.92s-.13-1.35-.39-1.88-.61-.93-1.05-1.22-.95-.42-1.52-.42-1.1.15-1.57.44c-.46.29-.83.71-1.1,1.25-.27.54-.4,1.18-.4,1.93Z"/>
    <path class="cls-5" d="m196.17,516.74c-.24.1-.48.18-.71.25-.23.06-.5.09-.8.09-.65,0-1.16-.19-1.53-.57-.37-.38-.56-1-.56-1.86v-5.36h-.84c-.19,0-.33-.04-.41-.12-.08-.08-.12-.17-.12-.27,0-.11.04-.22.12-.32.08-.1.2-.21.36-.32l1.92-1.31v1.43h2.91v.92h-2.91v5.27c0,.57.1.97.3,1.21s.51.36.93.36c.23,0,.45-.03.66-.08.21-.06.44-.13.68-.22v.92Z"/>
    <path class="cls-5" d="m208.71,509.87c0,.15-.04.26-.13.34-.09.08-.19.12-.32.12-.18,0-.33-.07-.45-.2-.11-.13-.24-.28-.39-.44-.14-.16-.34-.31-.58-.44-.25-.13-.59-.2-1.04-.2-.94,0-1.67.33-2.2.99-.53.66-.8,1.53-.8,2.62,0,.74.13,1.36.38,1.88.25.52.61.91,1.08,1.18.47.27,1.03.41,1.68.41.43,0,.86-.06,1.29-.19s.87-.32,1.33-.58v.92c-.31.2-.67.39-1.1.55-.42.17-.95.25-1.58.25-1.29,0-2.31-.39-3.06-1.17-.75-.78-1.12-1.84-1.12-3.18,0-.91.17-1.7.52-2.39.35-.69.83-1.22,1.45-1.6.62-.38,1.33-.57,2.14-.57.61,0,1.12.1,1.54.29.42.19.75.41.98.66.24.25.36.5.36.75Z"/>
    <path class="cls-5" d="m210.12,512.73c0-.92.17-1.72.52-2.4.35-.68.83-1.21,1.46-1.59.62-.38,1.34-.57,2.15-.57s1.48.18,2.09.54c.6.36,1.08.86,1.42,1.5.34.65.51,1.42.51,2.31s-.17,1.7-.52,2.39c-.35.69-.83,1.22-1.45,1.6-.62.38-1.34.57-2.16.57s-1.48-.18-2.09-.54c-.61-.36-1.08-.86-1.42-1.51-.34-.65-.51-1.42-.51-2.3Zm1.06-.05c0,.73.13,1.35.39,1.88.26.53.61.93,1.06,1.22s.96.42,1.52.42,1.1-.15,1.57-.44c.46-.29.83-.71,1.1-1.26.27-.54.4-1.18.4-1.92s-.13-1.35-.39-1.88-.61-.93-1.05-1.22-.95-.42-1.52-.42-1.1.15-1.57.44c-.46.29-.83.71-1.1,1.25-.27.54-.4,1.18-.4,1.93Z"/>
    <path class="cls-5" d="m221.68,504.63v10.29c0,.46.07.78.21.95.14.17.37.26.69.26.14,0,.27-.01.39-.03s.26-.06.41-.1v.85c-.33.16-.68.24-1.04.24-.62,0-1.05-.19-1.31-.58-.26-.39-.39-.87-.39-1.46v-10.41h1.03Z"/>
    <path class="cls-5" d="m226.34,504.63v10.29c0,.46.07.78.21.95.14.17.37.26.69.26.14,0,.27-.01.39-.03s.26-.06.41-.1v.85c-.33.16-.68.24-1.04.24-.62,0-1.05-.19-1.31-.58-.26-.39-.39-.87-.39-1.46v-10.41h1.03Z"/>
    <path class="cls-5" d="m233.38,517.08c-1.31,0-2.34-.38-3.07-1.14-.74-.76-1.1-1.81-1.1-3.15,0-.93.18-1.74.53-2.43.35-.69.84-1.23,1.46-1.62.62-.38,1.33-.58,2.12-.58.63,0,1.18.12,1.64.35.47.23.83.55,1.09.94.26.4.39.83.39,1.31s-.12.84-.35,1.16c-.23.32-.56.57-.99.75-.42.18-.92.3-1.48.36-.56.06-1.17.05-1.82,0-.65-.06-1.32-.17-2.02-.33v-.78c.66.15,1.32.25,1.98.3.66.05,1.26.04,1.81-.03.55-.07.99-.23,1.32-.46s.5-.57.5-1.01-.18-.81-.53-1.15c-.35-.33-.86-.5-1.52-.5-.59,0-1.12.15-1.58.45-.46.3-.82.72-1.08,1.27-.26.54-.39,1.19-.39,1.94s.12,1.33.37,1.84.6.9,1.07,1.17c.47.27,1.04.41,1.73.41.45,0,.9-.06,1.38-.19.47-.12.96-.32,1.45-.58v.92c-.33.2-.73.39-1.2.55-.47.17-1.03.25-1.68.25Z"/>
    <path class="cls-5" d="m245.11,509.87c0,.15-.04.26-.13.34-.09.08-.19.12-.32.12-.18,0-.33-.07-.45-.2-.11-.13-.24-.28-.39-.44-.14-.16-.34-.31-.58-.44-.25-.13-.59-.2-1.04-.2-.94,0-1.67.33-2.2.99-.53.66-.8,1.53-.8,2.62,0,.74.13,1.36.38,1.88.25.52.61.91,1.08,1.18.47.27,1.03.41,1.68.41.43,0,.86-.06,1.29-.19s.87-.32,1.33-.58v.92c-.31.2-.67.39-1.1.55-.42.17-.95.25-1.58.25-1.29,0-2.31-.39-3.06-1.17-.75-.78-1.12-1.84-1.12-3.18,0-.91.17-1.7.52-2.39.35-.69.83-1.22,1.45-1.6.62-.38,1.33-.57,2.14-.57.61,0,1.12.1,1.54.29.42.19.75.41.98.66.24.25.36.5.36.75Z"/>
    <path class="cls-5" d="m251.47,516.74c-.24.1-.48.18-.71.25-.23.06-.5.09-.8.09-.65,0-1.16-.19-1.53-.57-.37-.38-.56-1-.56-1.86v-5.36h-.84c-.19,0-.33-.04-.41-.12-.08-.08-.12-.17-.12-.27,0-.11.04-.22.12-.32.08-.1.2-.21.36-.32l1.92-1.31v1.43h2.91v.92h-2.91v5.27c0,.57.1.97.3,1.21s.51.36.93.36c.23,0,.45-.03.66-.08.21-.06.44-.13.68-.22v.92Z"/>
    <path class="cls-5" d="m256.11,517.08c-.67,0-1.26-.09-1.76-.26s-.9-.38-1.18-.62v-1.04c.47.36.95.63,1.45.81s1,.26,1.52.26c.73,0,1.26-.15,1.58-.44.33-.29.49-.64.49-1.04,0-.37-.12-.67-.36-.89-.24-.22-.55-.4-.92-.54s-.78-.26-1.2-.38c-.42-.12-.82-.26-1.2-.43s-.69-.41-.92-.71c-.24-.3-.36-.69-.36-1.18,0-.44.11-.85.33-1.22.22-.37.54-.67.98-.89.44-.22.98-.33,1.64-.33.54,0,1.01.07,1.42.22.41.15.73.34.97.58.23.24.35.49.35.76,0,.15-.04.26-.11.34-.07.08-.17.12-.28.12-.16,0-.29-.06-.39-.18-.1-.12-.22-.26-.36-.41-.14-.15-.33-.29-.57-.41s-.59-.18-1.02-.18c-.69,0-1.18.15-1.49.46-.31.31-.46.65-.46,1.02s.12.65.36.86c.24.21.55.38.93.51.38.13.78.25,1.2.37s.82.27,1.2.45.69.43.92.74c.24.31.36.73.36,1.25,0,.43-.11.83-.32,1.2-.21.37-.54.66-.99.88-.45.22-1.04.32-1.77.32Z"/>
    <path class="cls-5" d="m272.11,509.87c0,.15-.04.26-.13.34-.09.08-.19.12-.32.12-.18,0-.33-.07-.45-.2-.11-.13-.24-.28-.39-.44-.14-.16-.34-.31-.58-.44-.25-.13-.59-.2-1.04-.2-.94,0-1.67.33-2.2.99-.53.66-.8,1.53-.8,2.62,0,.74.13,1.36.38,1.88.25.52.61.91,1.08,1.18.47.27,1.03.41,1.68.41.43,0,.86-.06,1.29-.19s.87-.32,1.33-.58v.92c-.31.2-.67.39-1.1.55-.42.17-.95.25-1.58.25-1.29,0-2.31-.39-3.06-1.17-.75-.78-1.12-1.84-1.12-3.18,0-.91.17-1.7.52-2.39.35-.69.83-1.22,1.45-1.6.62-.38,1.33-.57,2.14-.57.61,0,1.12.1,1.54.29.42.19.75.41.98.66.24.25.36.5.36.75Z"/>
    <path class="cls-5" d="m273.52,512.73c0-.92.17-1.72.52-2.4.35-.68.83-1.21,1.46-1.59.62-.38,1.34-.57,2.15-.57s1.48.18,2.09.54c.6.36,1.08.86,1.42,1.5.34.65.51,1.42.51,2.31s-.17,1.7-.52,2.39c-.35.69-.83,1.22-1.45,1.6-.62.38-1.34.57-2.16.57s-1.48-.18-2.09-.54c-.61-.36-1.08-.86-1.42-1.51-.34-.65-.51-1.42-.51-2.3Zm1.06-.05c0,.73.13,1.35.39,1.88.26.53.61.93,1.06,1.22s.96.42,1.52.42,1.1-.15,1.57-.44c.46-.29.83-.71,1.1-1.26.27-.54.4-1.18.4-1.92s-.13-1.35-.39-1.88-.61-.93-1.05-1.22-.95-.42-1.52-.42-1.1.15-1.57.44c-.46.29-.83.71-1.1,1.25-.27.54-.4,1.18-.4,1.93Z"/>
    <path class="cls-5" d="m284.05,516.88v-8.5h1.03v8.5h-1.03Zm6.03,0v-5.15c0-.62-.11-1.12-.32-1.5-.22-.38-.51-.66-.87-.83s-.75-.26-1.16-.26c-.45,0-.87.1-1.28.29-.41.19-.74.49-.99.89-.26.4-.39.92-.39,1.56l-.41-1.34c.21-.55.49-1.01.85-1.35s.76-.6,1.2-.76.87-.24,1.29-.24c.55,0,1.06.12,1.53.37.47.25.85.63,1.14,1.15s.43,1.18.43,1.98v5.2h-1.03Z"/>
    <path class="cls-5" d="m297.65,516.74c-.24.1-.48.18-.71.25-.23.06-.5.09-.8.09-.65,0-1.16-.19-1.53-.57-.37-.38-.56-1-.56-1.86v-5.36h-.84c-.19,0-.33-.04-.41-.12s-.12-.17-.12-.27c0-.11.04-.22.12-.32.08-.1.2-.21.36-.32l1.92-1.31v1.43h2.91v.92h-2.91v5.27c0,.57.1.97.3,1.21s.51.36.93.36c.23,0,.45-.03.66-.08s.44-.13.68-.22v.92Z"/>
    <path class="cls-5" d="m301.9,517.08c-.78,0-1.41-.21-1.9-.62-.49-.41-.74-1-.74-1.76,0-.66.21-1.18.62-1.57.42-.39,1.04-.68,1.88-.86l1.44-.31c.64-.14,1.05-.28,1.24-.43.19-.15.28-.37.28-.68v1.33c-.09.1-.24.2-.44.3s-.5.19-.9.28l-1.37.29c-.49.1-.89.28-1.2.52-.31.24-.46.61-.46,1.1s.16.87.47,1.15c.31.28.73.42,1.24.42.45,0,.87-.1,1.28-.31.41-.21.74-.52.99-.92.26-.4.38-.88.38-1.44l.29,1.29c-.24.79-.65,1.36-1.24,1.71-.59.35-1.21.52-1.88.52Zm4.28-.2h-1.03c-.08-.18-.15-.45-.21-.79-.06-.35-.09-.69-.09-1.05l-.12-.32v-3.93c0-.66-.19-1.11-.57-1.34-.38-.24-.87-.36-1.45-.36-.51,0-.92.06-1.21.19s-.52.27-.68.44c-.16.17-.3.32-.41.44-.11.12-.26.19-.43.19-.11,0-.21-.03-.29-.1-.08-.07-.12-.17-.12-.31,0-.1.03-.22.08-.36.06-.14.16-.28.31-.44.62-.65,1.53-.97,2.74-.97.58,0,1.1.08,1.56.25.46.16.82.44,1.09.82.27.39.4.9.4,1.55v3.74c0,.49.04.94.13,1.35s.19.75.3,1Z"/>
    <path class="cls-5" d="m315.03,509.87c0,.15-.04.26-.13.34-.08.08-.19.12-.32.12-.18,0-.33-.07-.45-.2-.11-.13-.24-.28-.38-.44s-.34-.31-.58-.44c-.25-.13-.59-.2-1.04-.2-.94,0-1.67.33-2.2.99-.53.66-.8,1.53-.8,2.62,0,.74.13,1.36.38,1.88.25.52.61.91,1.08,1.18.47.27,1.03.41,1.68.41.43,0,.86-.06,1.29-.19s.87-.32,1.33-.58v.92c-.31.2-.67.39-1.1.55-.42.17-.95.25-1.58.25-1.29,0-2.31-.39-3.06-1.17-.75-.78-1.12-1.84-1.12-3.18,0-.91.17-1.7.52-2.39.35-.69.83-1.22,1.45-1.6.62-.38,1.33-.57,2.14-.57.61,0,1.12.1,1.54.29.42.19.75.41.98.66.24.25.36.5.36.75Z"/>
    <path class="cls-5" d="m321.39,516.74c-.24.1-.48.18-.71.25-.23.06-.5.09-.8.09-.65,0-1.16-.19-1.53-.57-.37-.38-.56-1-.56-1.86v-5.36h-.84c-.19,0-.33-.04-.41-.12s-.12-.17-.12-.27c0-.11.04-.22.12-.32.08-.1.2-.21.36-.32l1.92-1.31v1.43h2.91v.92h-2.91v5.27c0,.57.1.97.3,1.21s.51.36.93.36c.23,0,.45-.03.66-.08s.44-.13.68-.22v.92Z"/>
    <path class="cls-5" d="m328.17,506.6c-.25,0-.44-.07-.57-.22-.12-.15-.19-.32-.19-.53s.06-.38.19-.53c.12-.15.31-.22.57-.22s.44.07.57.22c.12.15.19.32.19.53s-.06.38-.19.53c-.13.15-.31.22-.57.22Zm-.51,10.27v-8.5c.34.03.68.03,1.03,0v8.5h-1.03Z"/>
    <path class="cls-5" d="m331.64,516.88v-8.5h1.03v8.5h-1.03Zm6.03,0v-5.15c0-.62-.11-1.12-.33-1.5s-.5-.66-.87-.83c-.36-.18-.74-.26-1.16-.26-.45,0-.87.1-1.28.29-.41.19-.74.49-.99.89s-.39.92-.39,1.56l-.41-1.34c.21-.55.49-1.01.85-1.35.36-.35.76-.6,1.2-.76s.87-.24,1.29-.24c.55,0,1.06.12,1.53.37.47.25.85.63,1.14,1.15.29.52.43,1.18.43,1.98v5.2h-1.03Z"/>
    <path class="cls-5" d="m340.86,509.29c-.18,0-.32-.04-.43-.12-.1-.08-.15-.19-.15-.34s.05-.26.15-.34c.1-.08.25-.12.43-.12h4.73v.92h-4.73Zm.79,7.59v-9.8c0-.59.12-1.08.35-1.47.23-.39.56-.69.97-.88.41-.2.88-.3,1.4-.3.45,0,.79.06,1.03.19.24.12.36.29.36.51,0,.11-.04.21-.11.29-.08.08-.17.12-.3.12-.15,0-.31-.04-.48-.11-.17-.07-.39-.11-.65-.11-.39,0-.74.13-1.06.4-.32.27-.48.72-.48,1.37v9.8h-1.03Z"/>
    <path class="cls-5" d="m346.51,512.73c0-.92.17-1.72.52-2.4.35-.68.83-1.21,1.46-1.59.62-.38,1.34-.57,2.15-.57s1.48.18,2.09.54c.6.36,1.08.86,1.42,1.5s.51,1.42.51,2.31-.17,1.7-.52,2.39c-.35.69-.83,1.22-1.45,1.6-.62.38-1.34.57-2.16.57s-1.48-.18-2.09-.54c-.61-.36-1.08-.86-1.42-1.51-.34-.65-.51-1.42-.51-2.3Zm1.06-.05c0,.73.13,1.35.38,1.88.26.53.61.93,1.06,1.22s.96.42,1.52.42,1.1-.15,1.57-.44c.46-.29.83-.71,1.1-1.26.27-.54.4-1.18.4-1.92s-.13-1.35-.39-1.88-.61-.93-1.05-1.22-.95-.42-1.52-.42-1.1.15-1.57.44c-.46.29-.83.71-1.1,1.25-.27.54-.4,1.18-.4,1.93Z"/>
    <path class="cls-5" d="m357.36,517.08c-.29,0-.5-.08-.64-.25-.14-.16-.21-.35-.21-.57,0-.23.07-.42.21-.58s.36-.24.64-.24.5.08.64.24.21.35.21.58-.07.41-.21.57c-.14.17-.36.25-.64.25Zm-.86,1.97c.23-.46.39-.89.47-1.28.08-.39.11-.79.08-1.2l1.17-.31c0,.43-.1.91-.31,1.44-.21.53-.46.98-.75,1.35h-.65Z"/>
    <path class="cls-5" d="m367.33,517.08c-.78,0-1.41-.21-1.9-.62-.49-.41-.74-1-.74-1.76,0-.66.21-1.18.62-1.57.42-.39,1.04-.68,1.88-.86l1.44-.31c.64-.14,1.05-.28,1.24-.43.19-.15.28-.37.28-.68v1.33c-.09.1-.24.2-.44.3s-.5.19-.9.28l-1.37.29c-.49.1-.89.28-1.2.52-.31.24-.46.61-.46,1.1s.16.87.47,1.15c.31.28.73.42,1.24.42.45,0,.87-.1,1.28-.31.41-.21.74-.52.99-.92.26-.4.38-.88.38-1.44l.29,1.29c-.24.79-.65,1.36-1.24,1.71-.59.35-1.21.52-1.88.52Zm4.28-.2h-1.03c-.08-.18-.15-.45-.21-.79-.06-.35-.09-.69-.09-1.05l-.12-.32v-3.93c0-.66-.19-1.11-.57-1.34-.38-.24-.87-.36-1.45-.36-.51,0-.92.06-1.21.19s-.52.27-.68.44c-.16.17-.3.32-.41.44-.11.12-.26.19-.43.19-.11,0-.21-.03-.29-.1-.08-.07-.12-.17-.12-.31,0-.1.03-.22.08-.36.06-.14.16-.28.31-.44.62-.65,1.53-.97,2.74-.97.58,0,1.1.08,1.56.25.46.16.82.44,1.09.82.27.39.4.9.4,1.55v3.74c0,.49.04.94.13,1.35s.19.75.3,1Z"/>
    <path class="cls-5" d="m376.52,517.08c-.67,0-1.26-.09-1.76-.26-.5-.18-.9-.38-1.18-.62v-1.04c.47.36.95.63,1.45.81.5.18,1,.26,1.52.26.73,0,1.26-.15,1.58-.44.33-.29.49-.64.49-1.04,0-.37-.12-.67-.36-.89-.24-.22-.55-.4-.93-.54s-.78-.26-1.2-.38-.82-.26-1.2-.43-.68-.41-.92-.71c-.24-.3-.36-.69-.36-1.18,0-.44.11-.85.33-1.22.22-.37.54-.67.99-.89.44-.22.98-.33,1.63-.33.54,0,1.01.07,1.42.22.41.15.73.34.97.58.23.24.35.49.35.76,0,.15-.04.26-.11.34-.07.08-.17.12-.28.12-.16,0-.29-.06-.39-.18-.1-.12-.22-.26-.36-.41-.14-.15-.33-.29-.57-.41s-.59-.18-1.02-.18c-.68,0-1.18.15-1.49.46-.31.31-.46.65-.46,1.02s.12.65.36.86c.24.21.55.38.92.51.38.13.78.25,1.2.37s.82.27,1.2.45.69.43.92.74c.24.31.36.73.36,1.25,0,.43-.11.83-.32,1.2-.21.37-.54.66-.99.88-.45.22-1.04.32-1.77.32Z"/>
    <path class="cls-5" d="m381.9,516.88v-12.25h1.03v12.25h-1.03Zm.67-4.54l4.33-3.79c.15-.12.27-.22.38-.28.1-.06.21-.09.33-.09.14,0,.24.04.32.12s.11.18.11.31c0,.1-.03.2-.08.28-.06.08-.14.17-.24.26l-4.2,3.59-.02-.88c.79.98,1.44,1.76,1.94,2.35.51.59.94,1.03,1.28,1.32.35.29.66.47.94.54.28.07.58.06.92-.02v.85c-.12.04-.23.08-.35.1-.12.02-.25.03-.4.03-.39,0-.76-.09-1.12-.28-.36-.19-.73-.47-1.12-.86-.39-.38-.82-.87-1.31-1.46-.48-.59-1.05-1.28-1.7-2.08Z"/>
    <path class="cls-5" d="m393.04,517.08c-.67,0-1.26-.09-1.76-.26s-.9-.38-1.18-.62v-1.04c.47.36.95.63,1.45.81s1,.26,1.52.26c.73,0,1.26-.15,1.58-.44.33-.29.49-.64.49-1.04,0-.37-.12-.67-.36-.89-.24-.22-.55-.4-.92-.54s-.78-.26-1.2-.38c-.42-.12-.82-.26-1.2-.43s-.69-.41-.93-.71c-.24-.3-.36-.69-.36-1.18,0-.44.11-.85.33-1.22.22-.37.54-.67.98-.89.44-.22.98-.33,1.64-.33.54,0,1.01.07,1.42.22.41.15.73.34.97.58.23.24.35.49.35.76,0,.15-.04.26-.11.34-.07.08-.17.12-.28.12-.16,0-.29-.06-.39-.18-.1-.12-.22-.26-.36-.41-.14-.15-.33-.29-.57-.41-.25-.12-.58-.18-1.02-.18-.68,0-1.18.15-1.49.46-.31.31-.46.65-.46,1.02s.12.65.36.86c.24.21.55.38.92.51.38.13.78.25,1.2.37.42.12.82.27,1.2.45s.69.43.93.74c.24.31.36.73.36,1.25,0,.43-.11.83-.32,1.2-.21.37-.54.66-.99.88-.45.22-1.04.32-1.77.32Z"/>
    <path class="cls-5" d="m406.6,516.74c-.24.1-.48.18-.71.25s-.5.09-.8.09c-.65,0-1.16-.19-1.53-.57-.37-.38-.56-1-.56-1.86v-5.36h-.84c-.2,0-.33-.04-.41-.12-.08-.08-.12-.17-.12-.27,0-.11.04-.22.12-.32.08-.1.2-.21.36-.32l1.92-1.31v1.43h2.91v.92h-2.91v5.27c0,.57.1.97.3,1.21s.51.36.93.36c.23,0,.45-.03.66-.08.21-.06.44-.13.68-.22v.92Z"/>
    <path class="cls-5" d="m408.74,516.88v-12.25h1.03v12.25h-1.03Zm6.03,0v-5.15c0-.62-.11-1.12-.33-1.5s-.51-.66-.87-.83-.75-.26-1.16-.26c-.45,0-.87.1-1.28.29-.41.19-.74.49-.99.89-.26.4-.38.92-.38,1.56l-.41-1.34c.22-.55.51-1.01.87-1.35.36-.35.76-.6,1.19-.76.43-.16.86-.24,1.28-.24.55,0,1.06.12,1.53.37.47.25.85.63,1.14,1.15.29.52.43,1.18.43,1.98v5.2h-1.03Z"/>
    <path class="cls-5" d="m422.18,517.08c-1.31,0-2.34-.38-3.07-1.14s-1.11-1.81-1.11-3.15c0-.93.18-1.74.53-2.43s.84-1.23,1.46-1.62c.62-.38,1.33-.58,2.12-.58.63,0,1.18.12,1.64.35.47.23.83.55,1.09.94.26.4.38.83.38,1.31s-.12.84-.35,1.16c-.23.32-.56.57-.99.75-.42.18-.92.3-1.48.36s-1.17.05-1.82,0c-.65-.06-1.33-.17-2.02-.33v-.78c.66.15,1.32.25,1.98.3.66.05,1.26.04,1.81-.03.55-.07.99-.23,1.32-.46s.5-.57.5-1.01-.18-.81-.53-1.15c-.35-.33-.86-.5-1.52-.5-.59,0-1.12.15-1.58.45-.46.3-.82.72-1.08,1.27-.26.54-.39,1.19-.39,1.94s.12,1.33.37,1.84.6.9,1.07,1.17c.47.27,1.04.41,1.73.41.45,0,.91-.06,1.38-.19s.96-.32,1.45-.58v.92c-.33.2-.73.39-1.2.55-.47.17-1.03.25-1.68.25Z"/>
    <path class="cls-5" d="m431.81,516.88v-8.5h1.03v8.5h-1.03Zm1.03-5.02l-.41-1.34c.31-.84.69-1.44,1.15-1.8.46-.36.92-.54,1.4-.54.22,0,.4.03.56.09s.27.14.36.25c.09.1.13.23.13.37,0,.14-.04.25-.13.33-.08.08-.21.13-.38.13-.14,0-.27-.02-.4-.06-.13-.04-.28-.06-.44-.06-.54,0-.98.25-1.32.76-.34.5-.51,1.13-.51,1.88Z"/>
    <path class="cls-5" d="m438.33,506.6c-.25,0-.44-.07-.57-.22-.12-.15-.19-.32-.19-.53s.06-.38.19-.53c.12-.15.31-.22.57-.22s.44.07.57.22c.12.15.19.32.19.53s-.06.38-.19.53c-.13.15-.31.22-.57.22Zm-.51,10.27v-8.5c.34.03.68.03,1.03,0v8.5h-1.03Z"/>
    <path class="cls-5" d="m445.06,520.48c-.74,0-1.38-.07-1.92-.2-.54-.13-.95-.3-1.23-.52-.13-.09-.22-.19-.29-.29-.07-.1-.1-.21-.1-.32s.04-.21.11-.3.19-.13.33-.13c.16,0,.3.04.44.13s.29.19.48.31c.19.12.45.22.8.31.34.08.81.13,1.4.13.88,0,1.61-.13,2.19-.4.58-.27.87-.7.87-1.3,0-.36-.14-.66-.43-.88-.29-.23-.82-.34-1.59-.34h-2.62c-.58,0-1.03-.08-1.34-.23-.31-.15-.53-.35-.66-.6-.12-.24-.19-.5-.19-.76,0-.49.17-.88.5-1.17s.83-.48,1.46-.57l1.54.42c-.71,0-1.25.06-1.61.18s-.61.27-.74.45-.19.36-.19.54c0,.27.11.47.33.59s.6.18,1.12.18h2.6c.85,0,1.52.17,2.03.5.51.33.76.88.76,1.64,0,.85-.34,1.5-1.02,1.95-.68.45-1.7.67-3.06.67Zm-.24-6.7c-.98,0-1.78-.24-2.41-.73-.62-.49-.93-1.16-.93-2.01,0-.58.15-1.08.45-1.51.3-.43.71-.76,1.23-1s1.12-.36,1.8-.36l2,.65c.33.16.6.35.8.57.2.22.34.46.44.73s.14.55.14.84c0,.57-.15,1.06-.45,1.49-.3.43-.71.75-1.23.99s-1.14.35-1.83.35Zm.03-.88c.73,0,1.33-.17,1.79-.5s.69-.82.69-1.45-.22-1.09-.67-1.41-1.02-.48-1.73-.48-1.31.17-1.77.5c-.46.33-.69.82-.69,1.45s.22,1.09.67,1.41,1.02.48,1.71.48Zm4.64-3.61c-.49,0-.93-.02-1.31-.06-.38-.04-.86-.12-1.43-.23l-1.8-.83c.79,0,1.55.03,2.29.1.74.07,1.49.1,2.25.1v.92Z"/>
    <path class="cls-5" d="m451.39,516.88v-12.25h1.03v12.25h-1.03Zm6.03,0v-5.15c0-.62-.11-1.12-.32-1.5-.22-.38-.51-.66-.87-.83s-.75-.26-1.16-.26c-.45,0-.87.1-1.28.29-.41.19-.74.49-.99.89-.26.4-.39.92-.39,1.56l-.41-1.34c.22-.55.51-1.01.87-1.35s.76-.6,1.19-.76c.43-.16.86-.24,1.28-.24.55,0,1.06.12,1.53.37.47.25.85.63,1.14,1.15s.43,1.18.43,1.98v5.2h-1.03Z"/>
    <path class="cls-5" d="m464.99,516.74c-.24.1-.48.18-.71.25-.23.06-.5.09-.8.09-.65,0-1.16-.19-1.53-.57-.37-.38-.56-1-.56-1.86v-5.36h-.84c-.19,0-.33-.04-.41-.12s-.12-.17-.12-.27c0-.11.04-.22.12-.32.08-.1.2-.21.36-.32l1.92-1.31v1.43h2.91v.92h-2.91v5.27c0,.57.1.97.3,1.21s.51.36.93.36c.23,0,.45-.03.66-.08s.44-.13.68-.22v.92Z"/>
    <path class="cls-5" d="m80.03,535.14c-.29.73-.71,1.3-1.28,1.72-.57.42-1.26.63-2.07.63-.74,0-1.41-.18-2.01-.54-.6-.36-1.07-.88-1.41-1.54-.34-.66-.51-1.44-.51-2.34s.17-1.68.51-2.35c.34-.67.81-1.19,1.41-1.57.6-.38,1.3-.57,2.09-.57s1.43.18,1.97.55c.54.37.91.89,1.11,1.56l-.21,1.58c0-.52-.12-.99-.36-1.4-.24-.41-.56-.74-.98-.98s-.89-.36-1.42-.36c-.59,0-1.12.15-1.58.45-.46.3-.81.71-1.07,1.24-.26.53-.39,1.14-.39,1.85s.13,1.3.39,1.82c.26.52.61.93,1.07,1.22.46.29.99.43,1.61.43.81,0,1.47-.25,1.97-.76.5-.5.75-1.17.75-1.98l.41,1.34Zm.62-6.36v11.91h-1.03v-11.91h1.03Z"/>
    <path class="cls-5" d="m86.93,537.49c-1.03,0-1.87-.29-2.52-.88s-.98-1.49-.98-2.73v-5.1h1.03v5.08c0,.9.22,1.57.66,2.01.44.44,1.04.66,1.81.66s1.38-.22,1.82-.66c.43-.44.65-1.11.65-2.01v-5.08h1.03v5.1c0,1.24-.33,2.15-.98,2.73s-1.49.88-2.52.88Z"/>
    <path class="cls-5" d="m96.81,537.49c-1.31,0-2.34-.38-3.07-1.14-.74-.76-1.1-1.81-1.1-3.15,0-.93.18-1.74.53-2.43.35-.69.84-1.23,1.46-1.62.62-.38,1.33-.58,2.12-.58.63,0,1.18.12,1.64.35.47.23.83.55,1.09.94.26.4.39.83.39,1.31s-.12.84-.35,1.16c-.23.32-.56.57-.99.75-.42.18-.92.3-1.48.36-.56.06-1.17.05-1.82,0-.65-.06-1.32-.17-2.02-.33v-.78c.66.15,1.32.25,1.98.3.66.05,1.26.04,1.81-.03.55-.07.99-.23,1.32-.46s.5-.57.5-1.01-.18-.81-.53-1.15c-.35-.33-.86-.5-1.52-.5-.59,0-1.12.15-1.58.45-.46.3-.82.72-1.08,1.27-.26.54-.39,1.19-.39,1.94s.12,1.33.37,1.84.6.9,1.07,1.17c.47.27,1.04.41,1.73.41.45,0,.9-.06,1.38-.19.47-.12.96-.32,1.45-.58v.92c-.33.2-.73.39-1.2.55-.47.17-1.03.25-1.68.25Z"/>
    <path class="cls-5" d="m104.6,537.49c-.67,0-1.26-.09-1.76-.26s-.9-.38-1.18-.62v-1.04c.47.36.95.63,1.45.81s1,.26,1.52.26c.73,0,1.26-.15,1.58-.44.33-.29.49-.64.49-1.04,0-.37-.12-.67-.36-.89-.24-.22-.55-.4-.92-.54s-.78-.26-1.2-.38c-.42-.12-.82-.26-1.2-.43s-.69-.41-.92-.71c-.24-.3-.36-.69-.36-1.18,0-.44.11-.85.33-1.22.22-.37.54-.67.98-.89.44-.22.98-.33,1.64-.33.54,0,1.01.07,1.42.22.41.15.73.34.97.58.23.24.35.49.35.76,0,.15-.04.26-.11.34-.07.08-.17.12-.28.12-.16,0-.29-.06-.39-.18-.1-.12-.22-.26-.36-.41-.14-.15-.33-.29-.57-.41s-.59-.18-1.02-.18c-.69,0-1.18.15-1.49.46-.31.31-.46.65-.46,1.02s.12.65.36.86c.24.21.55.38.93.51.38.13.78.25,1.2.37s.82.27,1.2.45.69.43.92.74c.24.31.36.73.36,1.25,0,.43-.11.83-.32,1.2-.21.37-.54.66-.99.88-.45.22-1.04.32-1.77.32Z"/>
    <path class="cls-5" d="m114.06,537.15c-.24.1-.48.18-.71.25-.23.06-.5.09-.8.09-.65,0-1.16-.19-1.53-.57-.37-.38-.56-1-.56-1.86v-5.36h-.84c-.19,0-.33-.04-.41-.12-.08-.08-.12-.17-.12-.27,0-.11.04-.22.12-.32.08-.1.2-.21.36-.32l1.92-1.31v1.43h2.91v.92h-2.91v5.27c0,.57.1.97.3,1.21s.51.36.93.36c.23,0,.45-.03.66-.08.21-.06.44-.13.68-.22v.92Z"/>
    <path class="cls-5" d="m116.71,527.01c-.25,0-.44-.07-.57-.22-.13-.15-.19-.32-.19-.53s.06-.38.19-.53c.13-.15.31-.22.57-.22s.44.07.57.22c.13.15.19.32.19.53s-.06.38-.19.53c-.13.15-.31.22-.57.22Zm-.51,10.27v-8.5c.34.03.69.03,1.03,0v8.5h-1.03Z"/>
    <path class="cls-5" d="m119.59,533.14c0-.92.17-1.72.52-2.4.35-.68.83-1.21,1.46-1.59.62-.38,1.34-.57,2.15-.57s1.48.18,2.09.54c.6.36,1.08.86,1.42,1.5.34.65.51,1.42.51,2.31s-.17,1.7-.52,2.39c-.35.69-.83,1.22-1.45,1.6-.62.38-1.34.57-2.16.57s-1.48-.18-2.09-.54c-.61-.36-1.08-.86-1.42-1.51-.34-.65-.51-1.42-.51-2.3Zm1.06-.05c0,.73.13,1.35.39,1.88.26.53.61.93,1.06,1.22s.96.42,1.52.42,1.1-.15,1.57-.44c.46-.29.83-.71,1.1-1.26.27-.54.4-1.18.4-1.92s-.13-1.35-.39-1.88-.61-.93-1.05-1.22-.95-.42-1.52-.42-1.1.15-1.57.44c-.46.29-.83.71-1.1,1.25-.27.54-.4,1.18-.4,1.93Z"/>
    <path class="cls-5" d="m130.11,537.29v-8.5h1.03v8.5h-1.03Zm6.03,0v-5.15c0-.62-.11-1.12-.33-1.5-.22-.38-.51-.66-.87-.83-.36-.18-.75-.26-1.16-.26-.45,0-.87.1-1.28.29-.41.19-.74.49-.99.89-.26.4-.39.92-.39,1.56l-.41-1.34c.21-.55.49-1.01.85-1.35s.76-.6,1.2-.76.87-.24,1.29-.24c.55,0,1.06.12,1.53.37.47.25.85.63,1.14,1.15.29.52.43,1.18.43,1.98v5.2h-1.03Z"/>
    <path class="cls-5" d="m142.42,537.49c-.67,0-1.26-.09-1.76-.26s-.9-.38-1.18-.62v-1.04c.47.36.95.63,1.45.81s1,.26,1.52.26c.73,0,1.26-.15,1.58-.44.33-.29.49-.64.49-1.04,0-.37-.12-.67-.36-.89-.24-.22-.55-.4-.92-.54s-.78-.26-1.2-.38c-.42-.12-.82-.26-1.2-.43s-.69-.41-.92-.71c-.24-.3-.36-.69-.36-1.18,0-.44.11-.85.33-1.22.22-.37.54-.67.98-.89.44-.22.98-.33,1.64-.33.54,0,1.01.07,1.42.22.41.15.73.34.97.58.23.24.35.49.35.76,0,.15-.04.26-.11.34-.07.08-.17.12-.28.12-.16,0-.29-.06-.39-.18-.1-.12-.22-.26-.36-.41-.14-.15-.33-.29-.57-.41s-.59-.18-1.02-.18c-.69,0-1.18.15-1.49.46-.31.31-.46.65-.46,1.02s.12.65.36.86c.24.21.55.38.93.51.38.13.78.25,1.2.37s.82.27,1.2.45.69.43.92.74c.24.31.36.73.36,1.25,0,.43-.11.83-.32,1.2-.21.37-.54.66-.99.88-.45.22-1.04.32-1.77.32Z"/>
    <path class="cls-5" d="m148.58,537.49c-.29,0-.5-.08-.64-.25-.14-.16-.21-.35-.21-.57,0-.23.07-.42.21-.58.14-.16.36-.24.64-.24s.5.08.64.24c.14.16.21.35.21.58s-.07.41-.21.57c-.14.17-.36.25-.64.25Zm-.86,1.97c.23-.46.39-.89.47-1.28.09-.39.11-.79.08-1.2l1.16-.31c0,.43-.1.91-.31,1.44s-.46.98-.75,1.35h-.65Z"/>
    <path class="cls-5" d="m158.92,537.49c-.67,0-1.26-.09-1.76-.26s-.9-.38-1.18-.62v-1.04c.47.36.95.63,1.45.81s1,.26,1.52.26c.73,0,1.26-.15,1.58-.44.33-.29.49-.64.49-1.04,0-.37-.12-.67-.36-.89-.24-.22-.55-.4-.92-.54s-.78-.26-1.2-.38c-.42-.12-.82-.26-1.2-.43s-.69-.41-.92-.71c-.24-.3-.36-.69-.36-1.18,0-.44.11-.85.33-1.22.22-.37.54-.67.98-.89.44-.22.98-.33,1.64-.33.54,0,1.01.07,1.42.22.41.15.73.34.97.58.23.24.35.49.35.76,0,.15-.04.26-.11.34-.07.08-.17.12-.28.12-.16,0-.29-.06-.39-.18-.1-.12-.22-.26-.36-.41-.14-.15-.33-.29-.57-.41s-.59-.18-1.02-.18c-.69,0-1.18.15-1.49.46-.31.31-.46.65-.46,1.02s.12.65.36.86c.24.21.55.38.93.51.38.13.78.25,1.2.37s.82.27,1.2.45.69.43.92.74c.24.31.36.73.36,1.25,0,.43-.11.83-.32,1.2-.21.37-.54.66-.99.88-.45.22-1.04.32-1.77.32Z"/>
    <path class="cls-5" d="m170.73,530.28c0,.15-.04.26-.13.34-.09.08-.19.12-.32.12-.18,0-.33-.07-.45-.2-.11-.13-.24-.28-.39-.44-.14-.16-.34-.31-.58-.44-.25-.13-.59-.2-1.04-.2-.94,0-1.67.33-2.2.99-.53.66-.8,1.53-.8,2.62,0,.74.13,1.36.38,1.88.25.52.61.91,1.08,1.18.47.27,1.03.41,1.68.41.43,0,.86-.06,1.29-.19s.87-.32,1.33-.58v.92c-.31.2-.67.39-1.1.55-.42.17-.95.25-1.58.25-1.29,0-2.31-.39-3.06-1.17-.75-.78-1.12-1.84-1.12-3.18,0-.91.17-1.7.52-2.39.35-.69.83-1.22,1.45-1.6.62-.38,1.33-.57,2.14-.57.61,0,1.12.1,1.54.29.42.19.75.41.98.66.24.25.36.5.36.75Z"/>
    <path class="cls-5" d="m172.14,533.14c0-.92.17-1.72.52-2.4.35-.68.83-1.21,1.46-1.59.62-.38,1.34-.57,2.15-.57s1.48.18,2.09.54c.6.36,1.08.86,1.42,1.5.34.65.51,1.42.51,2.31s-.17,1.7-.52,2.39c-.35.69-.83,1.22-1.45,1.6-.62.38-1.34.57-2.16.57s-1.48-.18-2.09-.54c-.61-.36-1.08-.86-1.42-1.51-.34-.65-.51-1.42-.51-2.3Zm1.06-.05c0,.73.13,1.35.39,1.88.26.53.61.93,1.06,1.22s.96.42,1.52.42,1.1-.15,1.57-.44c.46-.29.83-.71,1.1-1.26.27-.54.4-1.18.4-1.92s-.13-1.35-.39-1.88-.61-.93-1.05-1.22-.95-.42-1.52-.42-1.1.15-1.57.44c-.46.29-.83.71-1.1,1.25-.27.54-.4,1.18-.4,1.93Z"/>
    <path class="cls-5" d="m182.67,537.29v-8.5h1.03v8.5h-1.03Zm1.03-5.02l-.41-1.34c.31-.84.69-1.44,1.15-1.8.46-.36.92-.54,1.4-.54.22,0,.4.03.56.09.15.06.27.14.36.25.09.1.13.23.13.37,0,.14-.04.25-.13.33s-.21.13-.39.13c-.14,0-.27-.02-.4-.06s-.28-.06-.44-.06c-.54,0-.98.25-1.32.76-.34.5-.51,1.13-.51,1.88Z"/>
    <path class="cls-5" d="m191.9,537.49c-1.31,0-2.34-.38-3.07-1.14-.74-.76-1.1-1.81-1.1-3.15,0-.93.18-1.74.53-2.43.35-.69.84-1.23,1.46-1.62.62-.38,1.33-.58,2.12-.58.63,0,1.18.12,1.64.35.47.23.83.55,1.09.94.26.4.39.83.39,1.31s-.12.84-.35,1.16c-.23.32-.56.57-.99.75-.42.18-.92.3-1.48.36-.56.06-1.17.05-1.82,0-.65-.06-1.32-.17-2.02-.33v-.78c.66.15,1.32.25,1.98.3.66.05,1.26.04,1.81-.03.55-.07.99-.23,1.32-.46s.5-.57.5-1.01-.18-.81-.53-1.15c-.35-.33-.86-.5-1.52-.5-.59,0-1.12.15-1.58.45-.46.3-.82.72-1.08,1.27-.26.54-.39,1.19-.39,1.94s.12,1.33.37,1.84.6.9,1.07,1.17c.47.27,1.04.41,1.73.41.45,0,.9-.06,1.38-.19.47-.12.96-.32,1.45-.58v.92c-.33.2-.73.39-1.2.55-.47.17-1.03.25-1.68.25Z"/>
    <path class="cls-5" d="m199.69,537.49c-.67,0-1.26-.09-1.76-.26s-.9-.38-1.18-.62v-1.04c.47.36.95.63,1.45.81s1,.26,1.52.26c.73,0,1.26-.15,1.58-.44.33-.29.49-.64.49-1.04,0-.37-.12-.67-.36-.89-.24-.22-.55-.4-.92-.54s-.78-.26-1.2-.38c-.42-.12-.82-.26-1.2-.43s-.69-.41-.92-.71c-.24-.3-.36-.69-.36-1.18,0-.44.11-.85.33-1.22.22-.37.54-.67.98-.89.44-.22.98-.33,1.64-.33.54,0,1.01.07,1.42.22.41.15.73.34.97.58.23.24.35.49.35.76,0,.15-.04.26-.11.34-.07.08-.17.12-.28.12-.16,0-.29-.06-.39-.18-.1-.12-.22-.26-.36-.41-.14-.15-.33-.29-.57-.41s-.59-.18-1.02-.18c-.69,0-1.18.15-1.49.46-.31.31-.46.65-.46,1.02s.12.65.36.86c.24.21.55.38.93.51.38.13.78.25,1.2.37s.82.27,1.2.45.69.43.92.74c.24.31.36.73.36,1.25,0,.43-.11.83-.32,1.2-.21.37-.54.66-.99.88-.45.22-1.04.32-1.77.32Z"/>
    <path class="cls-5" d="m210.45,525.04v10.29c0,.46.07.78.21.95.14.17.37.26.69.26.14,0,.27-.01.39-.03s.26-.06.41-.1v.85c-.33.16-.68.24-1.04.24-.62,0-1.05-.19-1.31-.58-.26-.39-.39-.87-.39-1.46v-10.41h1.03Z"/>
    <path class="cls-5" d="m217.49,537.49c-1.31,0-2.34-.38-3.07-1.14-.74-.76-1.1-1.81-1.1-3.15,0-.93.18-1.74.53-2.43.35-.69.84-1.23,1.46-1.62.62-.38,1.33-.58,2.12-.58.63,0,1.18.12,1.64.35.47.23.83.55,1.09.94.26.4.39.83.39,1.31s-.12.84-.35,1.16c-.23.32-.56.57-.99.75-.42.18-.92.3-1.48.36-.56.06-1.17.05-1.82,0-.65-.06-1.32-.17-2.02-.33v-.78c.66.15,1.32.25,1.98.3.66.05,1.26.04,1.81-.03.55-.07.99-.23,1.32-.46s.5-.57.5-1.01-.18-.81-.53-1.15c-.35-.33-.86-.5-1.52-.5-.59,0-1.12.15-1.58.45-.46.3-.82.72-1.08,1.27-.26.54-.39,1.19-.39,1.94s.12,1.33.37,1.84.6.9,1.07,1.17c.47.27,1.04.41,1.73.41.45,0,.9-.06,1.38-.19.47-.12.96-.32,1.45-.58v.92c-.33.2-.73.39-1.2.55-.47.17-1.03.25-1.68.25Z"/>
    <path class="cls-5" d="m224.88,537.49c-.78,0-1.41-.21-1.9-.62-.49-.41-.74-1-.74-1.76,0-.66.21-1.18.62-1.57.42-.39,1.04-.68,1.88-.86l1.44-.31c.64-.14,1.05-.28,1.24-.43.19-.15.28-.37.28-.68v1.33c-.09.1-.24.2-.44.3s-.5.19-.9.28l-1.37.29c-.49.1-.89.28-1.2.52-.31.24-.46.61-.46,1.1s.16.87.47,1.15c.31.28.73.42,1.24.42.45,0,.87-.1,1.28-.31s.74-.52.99-.92c.26-.4.39-.88.39-1.44l.29,1.29c-.24.79-.65,1.36-1.24,1.71-.59.35-1.21.52-1.88.52Zm4.28-.2h-1.03c-.08-.18-.15-.45-.21-.79s-.09-.69-.09-1.05l-.12-.32v-3.93c0-.66-.19-1.11-.57-1.34-.38-.24-.87-.36-1.45-.36-.51,0-.92.06-1.21.19-.29.12-.52.27-.68.44-.16.17-.3.32-.41.44-.11.12-.26.19-.43.19-.11,0-.21-.03-.29-.1-.08-.07-.12-.17-.12-.31,0-.1.03-.22.09-.36.06-.14.16-.28.31-.44.62-.65,1.53-.97,2.74-.97.58,0,1.1.08,1.56.25.46.16.82.44,1.09.82.27.39.4.9.4,1.55v3.74c0,.49.04.94.13,1.35.09.41.19.75.3,1Z"/>
    <path class="cls-5" d="m238.31,535.14c-.29.73-.71,1.3-1.28,1.72-.57.42-1.26.63-2.07.63-.74,0-1.41-.18-2.01-.54-.6-.36-1.07-.88-1.41-1.54-.34-.66-.51-1.44-.51-2.34s.17-1.68.51-2.35c.34-.67.81-1.19,1.41-1.57.6-.38,1.3-.57,2.09-.57s1.43.18,1.97.55c.54.37.91.89,1.11,1.56l-.21,1.58c0-.52-.12-.99-.36-1.4-.24-.41-.56-.74-.98-.98s-.89-.36-1.42-.36c-.59,0-1.12.15-1.58.45-.46.3-.81.71-1.07,1.24-.26.53-.39,1.14-.39,1.85s.13,1.3.39,1.82c.26.52.61.93,1.07,1.22.46.29.99.43,1.61.43.81,0,1.47-.25,1.97-.76.5-.5.75-1.17.75-1.98l.41,1.34Zm.62-10.1v12.25h-1.03v-12.25h1.03Z"/>
    <path class="cls-5" d="m244.37,537.49c-.67,0-1.26-.09-1.76-.26s-.9-.38-1.18-.62v-1.04c.47.36.95.63,1.45.81s1,.26,1.52.26c.73,0,1.26-.15,1.58-.44.33-.29.49-.64.49-1.04,0-.37-.12-.67-.36-.89-.24-.22-.55-.4-.92-.54s-.78-.26-1.2-.38c-.42-.12-.82-.26-1.2-.43s-.69-.41-.92-.71c-.24-.3-.36-.69-.36-1.18,0-.44.11-.85.33-1.22.22-.37.54-.67.98-.89.44-.22.98-.33,1.64-.33.54,0,1.01.07,1.42.22.41.15.73.34.97.58.23.24.35.49.35.76,0,.15-.04.26-.11.34-.07.08-.17.12-.28.12-.16,0-.29-.06-.39-.18-.1-.12-.22-.26-.36-.41-.14-.15-.33-.29-.57-.41s-.59-.18-1.02-.18c-.69,0-1.18.15-1.49.46-.31.31-.46.65-.46,1.02s.12.65.36.86c.24.21.55.38.93.51.38.13.78.25,1.2.37s.82.27,1.2.45.69.43.92.74c.24.31.36.73.36,1.25,0,.43-.11.83-.32,1.2-.21.37-.54.66-.99.88-.45.22-1.04.32-1.77.32Z"/>
    <path class="cls-5" d="m255.12,534.22l-1.03-.66v-8.52h1.03v9.18Zm2.81,3.27c-1.18,0-2.11-.35-2.8-1.06-.69-.71-1.04-1.66-1.04-2.87h1.03c0,.87.26,1.59.78,2.14.52.56,1.2.83,2.03.83.9,0,1.62-.32,2.17-.97.54-.65.81-1.5.81-2.57,0-.69-.13-1.3-.39-1.82s-.61-.93-1.07-1.22-.99-.43-1.61-.43c-.8,0-1.45.25-1.96.76-.51.5-.76,1.17-.76,1.98l-.41-1.34c.3-.74.73-1.31,1.3-1.73.57-.41,1.26-.62,2.06-.62.75,0,1.43.18,2.02.54.59.36,1.06.87,1.4,1.53.34.66.51,1.44.51,2.35s-.17,1.66-.5,2.34c-.33.67-.8,1.2-1.41,1.58-.61.38-1.33.57-2.17.57Z"/>
    <path class="cls-5" d="m266.41,537.49c-.78,0-1.41-.21-1.9-.62-.49-.41-.74-1-.74-1.76,0-.66.21-1.18.62-1.57.42-.39,1.04-.68,1.88-.86l1.44-.31c.64-.14,1.05-.28,1.24-.43.19-.15.28-.37.28-.68v1.33c-.09.1-.24.2-.44.3s-.5.19-.9.28l-1.37.29c-.49.1-.89.28-1.2.52-.31.24-.46.61-.46,1.1s.16.87.47,1.15c.31.28.73.42,1.24.42.45,0,.87-.1,1.28-.31s.74-.52.99-.92c.26-.4.39-.88.39-1.44l.29,1.29c-.24.79-.65,1.36-1.24,1.71-.59.35-1.21.52-1.88.52Zm4.28-.2h-1.03c-.08-.18-.15-.45-.21-.79s-.09-.69-.09-1.05l-.12-.32v-3.93c0-.66-.19-1.11-.57-1.34-.38-.24-.87-.36-1.45-.36-.51,0-.92.06-1.21.19-.29.12-.52.27-.68.44-.16.17-.3.32-.41.44-.11.12-.26.19-.43.19-.11,0-.21-.03-.29-.1-.08-.07-.12-.17-.12-.31,0-.1.03-.22.09-.36.06-.14.16-.28.31-.44.62-.65,1.53-.97,2.74-.97.58,0,1.1.08,1.56.25.46.16.82.44,1.09.82.27.39.4.9.4,1.55v3.74c0,.49.04.94.13,1.35.09.41.19.75.3,1Z"/>
    <path class="cls-5" d="m275.6,537.49c-.67,0-1.26-.09-1.76-.26s-.9-.38-1.18-.62v-1.04c.47.36.95.63,1.45.81s1,.26,1.52.26c.73,0,1.26-.15,1.58-.44.33-.29.49-.64.49-1.04,0-.37-.12-.67-.36-.89-.24-.22-.55-.4-.92-.54s-.78-.26-1.2-.38c-.42-.12-.82-.26-1.2-.43s-.69-.41-.92-.71c-.24-.3-.36-.69-.36-1.18,0-.44.11-.85.33-1.22.22-.37.54-.67.98-.89.44-.22.98-.33,1.64-.33.54,0,1.01.07,1.42.22.41.15.73.34.97.58.23.24.35.49.35.76,0,.15-.04.26-.11.34-.07.08-.17.12-.28.12-.16,0-.29-.06-.39-.18-.1-.12-.22-.26-.36-.41-.14-.15-.33-.29-.57-.41s-.59-.18-1.02-.18c-.69,0-1.18.15-1.49.46-.31.31-.46.65-.46,1.02s.12.65.36.86c.24.21.55.38.93.51.38.13.78.25,1.2.37s.82.27,1.2.45.69.43.92.74c.24.31.36.73.36,1.25,0,.43-.11.83-.32,1.2-.21.37-.54.66-.99.88-.45.22-1.04.32-1.77.32Z"/>
    <path class="cls-5" d="m284.61,537.49c-1.31,0-2.34-.38-3.07-1.14-.74-.76-1.1-1.81-1.1-3.15,0-.93.18-1.74.53-2.43.35-.69.84-1.23,1.46-1.62.62-.38,1.33-.58,2.12-.58.63,0,1.18.12,1.64.35.47.23.83.55,1.09.94.26.4.38.83.38,1.31s-.12.84-.35,1.16c-.23.32-.56.57-.99.75-.42.18-.92.3-1.48.36-.56.06-1.17.05-1.82,0-.65-.06-1.32-.17-2.02-.33v-.78c.66.15,1.32.25,1.98.3.66.05,1.26.04,1.81-.03.55-.07.99-.23,1.32-.46s.5-.57.5-1.01-.18-.81-.53-1.15c-.35-.33-.86-.5-1.52-.5-.59,0-1.12.15-1.58.45-.46.3-.82.72-1.08,1.27-.26.54-.39,1.19-.39,1.94s.12,1.33.37,1.84.6.9,1.07,1.17c.47.27,1.04.41,1.73.41.45,0,.9-.06,1.38-.19.47-.12.96-.32,1.45-.58v.92c-.33.2-.73.39-1.2.55-.47.17-1.03.25-1.68.25Z"/>
    <path class="cls-5" d="m296.65,535.14c-.29.73-.71,1.3-1.28,1.72-.57.42-1.26.63-2.07.63-.74,0-1.41-.18-2.01-.54-.6-.36-1.07-.88-1.41-1.54-.34-.66-.51-1.44-.51-2.34s.17-1.68.51-2.35c.34-.67.81-1.19,1.41-1.57.6-.38,1.3-.57,2.09-.57s1.43.18,1.97.55.91.89,1.11,1.56l-.21,1.58c0-.52-.12-.99-.36-1.4-.24-.41-.57-.74-.98-.98-.41-.24-.89-.36-1.42-.36-.59,0-1.12.15-1.58.45s-.81.71-1.07,1.24c-.26.53-.39,1.14-.39,1.85s.13,1.3.39,1.82c.26.52.61.93,1.07,1.22s.99.43,1.61.43c.81,0,1.47-.25,1.97-.76.5-.5.75-1.17.75-1.98l.41,1.34Zm.62-10.1v12.25h-1.03v-12.25h1.03Z"/>
    <path class="cls-5" d="m303.95,533.14c0-.92.17-1.72.52-2.4.35-.68.83-1.21,1.46-1.59.62-.38,1.34-.57,2.15-.57s1.48.18,2.09.54c.6.36,1.08.86,1.42,1.5s.51,1.42.51,2.31-.17,1.7-.52,2.39c-.35.69-.83,1.22-1.45,1.6-.62.38-1.34.57-2.16.57s-1.48-.18-2.09-.54c-.61-.36-1.08-.86-1.42-1.51-.34-.65-.51-1.42-.51-2.3Zm1.06-.05c0,.73.13,1.35.38,1.88.26.53.61.93,1.06,1.22s.96.42,1.52.42,1.1-.15,1.57-.44c.46-.29.83-.71,1.1-1.26.27-.54.4-1.18.4-1.92s-.13-1.35-.39-1.88-.61-.93-1.05-1.22-.95-.42-1.52-.42-1.1.15-1.57.44c-.46.29-.83.71-1.1,1.25-.27.54-.4,1.18-.4,1.93Z"/>
    <path class="cls-5" d="m314.48,537.29v-8.5h1.03v8.5h-1.03Zm6.03,0v-5.15c0-.62-.11-1.12-.33-1.5-.22-.38-.5-.66-.87-.83-.36-.18-.75-.26-1.16-.26-.45,0-.87.1-1.28.29-.4.19-.74.49-.99.89-.26.4-.39.92-.39,1.56l-.41-1.34c.21-.55.49-1.01.85-1.35s.76-.6,1.2-.76.87-.24,1.29-.24c.55,0,1.06.12,1.53.37.47.25.85.63,1.14,1.15s.43,1.18.43,1.98v5.2h-1.03Z"/>
    <path class="cls-5" d="m332.5,537.15c-.24.1-.48.18-.71.25s-.5.09-.8.09c-.65,0-1.16-.19-1.53-.57-.37-.38-.56-1-.56-1.86v-5.36h-.84c-.19,0-.33-.04-.41-.12-.08-.08-.12-.17-.12-.27,0-.11.04-.22.12-.32.08-.1.2-.21.36-.32l1.92-1.31v1.43h2.91v.92h-2.91v5.27c0,.57.1.97.3,1.21.2.24.51.36.93.36.23,0,.45-.03.66-.08.21-.06.44-.13.68-.22v.92Z"/>
    <path class="cls-5" d="m334.63,537.29v-12.25h1.03v12.25h-1.03Zm6.03,0v-5.15c0-.62-.11-1.12-.32-1.5-.22-.38-.51-.66-.87-.83s-.75-.26-1.16-.26c-.45,0-.87.1-1.28.29-.41.19-.74.49-.99.89-.26.4-.39.92-.39,1.56l-.41-1.34c.22-.55.51-1.01.87-1.35s.76-.6,1.19-.76c.43-.16.86-.24,1.28-.24.55,0,1.06.12,1.53.37.47.25.85.63,1.14,1.15s.43,1.18.43,1.98v5.2h-1.03Z"/>
    <path class="cls-5" d="m348.08,537.49c-1.31,0-2.34-.38-3.07-1.14-.74-.76-1.11-1.81-1.11-3.15,0-.93.18-1.74.53-2.43s.84-1.23,1.46-1.62c.62-.38,1.33-.58,2.12-.58.63,0,1.18.12,1.64.35.47.23.83.55,1.09.94.26.4.39.83.39,1.31s-.12.84-.35,1.16-.56.57-.98.75c-.42.18-.92.3-1.48.36-.56.06-1.17.05-1.82,0-.65-.06-1.32-.17-2.02-.33v-.78c.66.15,1.32.25,1.98.3.66.05,1.26.04,1.81-.03.55-.07.99-.23,1.32-.46.33-.23.5-.57.5-1.01s-.18-.81-.53-1.15c-.35-.33-.86-.5-1.52-.5-.59,0-1.12.15-1.58.45-.46.3-.82.72-1.08,1.27-.26.54-.39,1.19-.39,1.94s.12,1.33.37,1.84c.25.51.6.9,1.07,1.17.47.27,1.04.41,1.73.41.45,0,.91-.06,1.38-.19.47-.12.96-.32,1.45-.58v.92c-.33.2-.73.39-1.2.55-.47.17-1.03.25-1.68.25Z"/>
    <path class="cls-5" d="m353.87,527.01c-.25,0-.44-.07-.56-.22-.13-.15-.19-.32-.19-.53s.06-.38.19-.53c.12-.15.31-.22.56-.22s.44.07.57.22c.12.15.19.32.19.53s-.06.38-.19.53c-.13.15-.31.22-.57.22Zm-.51,10.27v-8.5c.34.03.69.03,1.03,0v8.5h-1.03Z"/>
    <path class="cls-5" d="m357.35,537.29v-8.5h1.03v8.5h-1.03Zm1.03-5.02l-.41-1.34c.31-.84.69-1.44,1.15-1.8.46-.36.93-.54,1.4-.54.22,0,.4.03.56.09.15.06.28.14.36.25.08.1.13.23.13.37,0,.14-.04.25-.13.33s-.21.13-.39.13c-.14,0-.27-.02-.4-.06s-.28-.06-.44-.06c-.54,0-.98.25-1.32.76-.34.5-.51,1.13-.51,1.88Z"/>
    <path class="cls-5" d="m369.47,537.49c-.78,0-1.41-.21-1.9-.62-.49-.41-.74-1-.74-1.76,0-.66.21-1.18.62-1.57.42-.39,1.04-.68,1.88-.86l1.44-.31c.64-.14,1.05-.28,1.24-.43.19-.15.28-.37.28-.68v1.33c-.09.1-.24.2-.44.3-.2.1-.5.19-.9.28l-1.37.29c-.49.1-.89.28-1.2.52-.31.24-.46.61-.46,1.1s.16.87.47,1.15c.31.28.73.42,1.24.42.45,0,.87-.1,1.28-.31s.74-.52.99-.92c.26-.4.38-.88.38-1.44l.29,1.29c-.24.79-.65,1.36-1.24,1.71s-1.21.52-1.88.52Zm4.28-.2h-1.03c-.08-.18-.15-.45-.21-.79s-.09-.69-.09-1.05l-.12-.32v-3.93c0-.66-.19-1.11-.57-1.34s-.87-.36-1.45-.36c-.51,0-.92.06-1.21.19s-.52.27-.68.44c-.16.17-.3.32-.41.44-.11.12-.26.19-.43.19-.12,0-.21-.03-.29-.1-.08-.07-.12-.17-.12-.31,0-.1.03-.22.09-.36.06-.14.16-.28.31-.44.62-.65,1.53-.97,2.74-.97.58,0,1.1.08,1.56.25.46.16.82.44,1.09.82.27.39.4.9.4,1.55v3.74c0,.49.04.94.13,1.35s.19.75.3,1Z"/>
    <path class="cls-5" d="m376.23,537.29v-8.5h1.03v8.5h-1.03Zm6.03,0v-5.15c0-.62-.11-1.12-.32-1.5-.22-.38-.51-.66-.87-.83s-.75-.26-1.16-.26c-.45,0-.87.1-1.28.29-.41.19-.74.49-.99.89-.26.4-.39.92-.39,1.56l-.41-1.34c.21-.55.49-1.01.85-1.35.36-.35.76-.6,1.2-.76s.87-.24,1.29-.24c.55,0,1.06.12,1.53.37.47.25.85.63,1.14,1.15s.43,1.18.43,1.98v5.2h-1.03Z"/>
    <path class="cls-5" d="m388.54,537.49c-.67,0-1.26-.09-1.76-.26s-.9-.38-1.18-.62v-1.04c.47.36.95.63,1.45.81s1,.26,1.52.26c.73,0,1.26-.15,1.58-.44.33-.29.49-.64.49-1.04,0-.37-.12-.67-.36-.89-.24-.22-.55-.4-.92-.54s-.78-.26-1.2-.38c-.42-.12-.82-.26-1.2-.43s-.69-.41-.93-.71c-.24-.3-.36-.69-.36-1.18,0-.44.11-.85.33-1.22.22-.37.54-.67.98-.89.44-.22.98-.33,1.64-.33.54,0,1.01.07,1.42.22.41.15.73.34.97.58.23.24.35.49.35.76,0,.15-.04.26-.11.34-.07.08-.17.12-.28.12-.16,0-.29-.06-.39-.18-.1-.12-.22-.26-.36-.41-.14-.15-.33-.29-.57-.41-.25-.12-.58-.18-1.02-.18-.68,0-1.18.15-1.49.46-.31.31-.46.65-.46,1.02s.12.65.36.86c.24.21.55.38.92.51.38.13.78.25,1.2.37.42.12.82.27,1.2.45s.69.43.93.74c.24.31.36.73.36,1.25,0,.43-.11.83-.32,1.2-.21.37-.54.66-.99.88-.45.22-1.04.32-1.77.32Z"/>
    <path class="cls-5" d="m395.42,537.29l-2.64-8.5h1.11l2.45,8.5h-.92Zm.07,0l2.69-7.91c.09-.27.2-.47.32-.6.13-.13.28-.2.46-.2s.34.07.46.2c.12.13.23.33.33.6l2.69,7.91h-.96l-2.83-8.2h.62l-2.83,8.2h-.96Zm6.1,0l2.45-8.5h1.11l-2.64,8.5h-.92Z"/>
    <path class="cls-5" d="m410.3,537.49c-1.31,0-2.34-.38-3.08-1.14-.74-.76-1.1-1.81-1.1-3.15,0-.93.18-1.74.53-2.43.35-.69.84-1.23,1.46-1.62.62-.38,1.33-.58,2.12-.58.63,0,1.18.12,1.64.35s.83.55,1.09.94c.26.4.39.83.39,1.31s-.12.84-.35,1.16-.56.57-.99.75c-.42.18-.92.3-1.48.36-.56.06-1.17.05-1.82,0-.65-.06-1.32-.17-2.02-.33v-.78c.66.15,1.32.25,1.98.3.66.05,1.26.04,1.81-.03.55-.07.99-.23,1.32-.46s.5-.57.5-1.01-.18-.81-.53-1.15c-.35-.33-.86-.5-1.52-.5-.59,0-1.12.15-1.58.45-.46.3-.82.72-1.08,1.27-.26.54-.39,1.19-.39,1.94s.12,1.33.37,1.84.6.9,1.07,1.17c.47.27,1.04.41,1.73.41.45,0,.9-.06,1.38-.19.47-.12.96-.32,1.45-.58v.92c-.33.2-.73.39-1.2.55-.47.17-1.03.25-1.68.25Z"/>
    <path class="cls-5" d="m415.6,537.29v-8.5h1.03v8.5h-1.03Zm1.03-5.02l-.41-1.34c.31-.84.69-1.44,1.15-1.8.46-.36.92-.54,1.4-.54.22,0,.4.03.56.09s.27.14.36.25c.09.1.13.23.13.37,0,.14-.04.25-.13.33-.08.08-.21.13-.38.13-.14,0-.27-.02-.4-.06-.13-.04-.28-.06-.44-.06-.54,0-.98.25-1.32.76-.34.5-.51,1.13-.51,1.88Z"/>
    <path class="cls-5" d="m424.07,537.49c-.67,0-1.26-.09-1.77-.26-.5-.18-.9-.38-1.18-.62v-1.04c.47.36.95.63,1.45.81.5.18,1,.26,1.52.26.73,0,1.26-.15,1.58-.44.33-.29.49-.64.49-1.04,0-.37-.12-.67-.36-.89-.24-.22-.55-.4-.92-.54s-.78-.26-1.2-.38c-.42-.12-.82-.26-1.2-.43s-.69-.41-.92-.71c-.24-.3-.36-.69-.36-1.18,0-.44.11-.85.33-1.22s.54-.67.98-.89c.44-.22.99-.33,1.64-.33.54,0,1.01.07,1.42.22.41.15.73.34.97.58.23.24.35.49.35.76,0,.15-.04.26-.11.34-.07.08-.17.12-.28.12-.16,0-.29-.06-.39-.18s-.22-.26-.36-.41c-.14-.15-.33-.29-.57-.41s-.58-.18-1.02-.18c-.69,0-1.18.15-1.49.46-.31.31-.46.65-.46,1.02s.12.65.36.86c.24.21.55.38.93.51.38.13.78.25,1.2.37s.82.27,1.2.45.68.43.92.74c.24.31.36.73.36,1.25,0,.43-.11.83-.32,1.2-.21.37-.54.66-.99.88-.45.22-1.04.32-1.77.32Z"/>
    <path class="cls-5" d="m430.23,537.49c-.29,0-.5-.08-.64-.25-.14-.16-.21-.35-.21-.57,0-.23.07-.42.21-.58.14-.16.36-.24.64-.24s.5.08.64.24c.14.16.21.35.21.58s-.07.41-.21.57c-.14.17-.36.25-.64.25Zm-.86,1.97c.23-.46.39-.89.47-1.28.09-.39.11-.79.08-1.2l1.16-.31c0,.43-.1.91-.31,1.44-.21.53-.46.98-.75,1.35h-.65Z"/>
    <path class="cls-5" d="m440.19,537.49c-.78,0-1.41-.21-1.9-.62-.49-.41-.74-1-.74-1.76,0-.66.21-1.18.62-1.57.42-.39,1.04-.68,1.88-.86l1.44-.31c.64-.14,1.05-.28,1.24-.43.19-.15.28-.37.28-.68v1.33c-.09.1-.24.2-.44.3-.2.1-.5.19-.9.28l-1.37.29c-.49.1-.89.28-1.2.52-.31.24-.46.61-.46,1.1s.16.87.47,1.15c.31.28.73.42,1.24.42.45,0,.87-.1,1.28-.31s.74-.52.99-.92c.26-.4.39-.88.39-1.44l.29,1.29c-.24.79-.65,1.36-1.24,1.71-.59.35-1.21.52-1.88.52Zm4.28-.2h-1.03c-.08-.18-.15-.45-.21-.79s-.09-.69-.09-1.05l-.12-.32v-3.93c0-.66-.19-1.11-.57-1.34-.38-.24-.87-.36-1.45-.36-.51,0-.92.06-1.21.19-.29.12-.52.27-.68.44s-.3.32-.41.44-.26.19-.43.19c-.11,0-.21-.03-.29-.1-.08-.07-.12-.17-.12-.31,0-.1.03-.22.08-.36.06-.14.16-.28.31-.44.62-.65,1.53-.97,2.74-.97.58,0,1.1.08,1.56.25.46.16.82.44,1.09.82.27.39.4.9.4,1.55v3.74c0,.49.04.94.13,1.35.08.41.18.75.3,1Z"/>
    <path class="cls-5" d="m446.95,537.29v-8.5h1.03v8.5h-1.03Zm6.03,0v-5.15c0-.62-.11-1.12-.33-1.5-.22-.38-.5-.66-.87-.83-.36-.18-.75-.26-1.16-.26-.45,0-.87.1-1.28.29-.4.19-.74.49-.99.89-.26.4-.39.92-.39,1.56l-.41-1.34c.21-.55.49-1.01.85-1.35s.76-.6,1.2-.76.87-.24,1.29-.24c.55,0,1.06.12,1.53.37.47.25.85.63,1.14,1.15s.43,1.18.43,1.98v5.2h-1.03Z"/>
    <path class="cls-5" d="m463.51,535.14c-.29.73-.71,1.3-1.28,1.72-.57.42-1.26.63-2.07.63-.74,0-1.41-.18-2.01-.54-.6-.36-1.07-.88-1.41-1.54-.34-.66-.51-1.44-.51-2.34s.17-1.68.5-2.35c.34-.67.81-1.19,1.41-1.57.6-.38,1.3-.57,2.09-.57s1.43.18,1.97.55.91.89,1.11,1.56l-.21,1.58c0-.52-.12-.99-.36-1.4-.24-.41-.57-.74-.98-.98s-.88-.36-1.42-.36c-.59,0-1.12.15-1.58.45s-.81.71-1.07,1.24c-.26.53-.38,1.14-.38,1.85s.13,1.3.38,1.82c.26.52.61.93,1.07,1.22s.99.43,1.61.43c.81,0,1.47-.25,1.97-.76.5-.5.75-1.17.75-1.98l.41,1.34Zm.62-10.1v12.25h-1.03v-12.25h1.03Z"/>
    <path class="cls-5" d="m73.45,557.7v-8.5h1.03v8.5h-1.03Zm1.03-5.02l-.41-1.34c.31-.84.69-1.44,1.15-1.8.46-.36.92-.54,1.4-.54.22,0,.4.03.56.09.15.06.27.14.36.25.09.1.13.23.13.37,0,.14-.04.25-.13.33s-.21.13-.39.13c-.14,0-.27-.02-.4-.06s-.28-.06-.44-.06c-.54,0-.98.25-1.32.76-.34.5-.51,1.13-.51,1.88Z"/>
    <path class="cls-5" d="m78.52,553.54c0-.92.17-1.72.52-2.4.35-.68.83-1.21,1.46-1.59.62-.38,1.34-.57,2.15-.57s1.48.18,2.09.54c.6.36,1.08.86,1.42,1.5.34.65.51,1.42.51,2.31s-.17,1.7-.52,2.39c-.35.69-.83,1.22-1.45,1.6-.62.38-1.34.57-2.16.57s-1.48-.18-2.09-.54c-.61-.36-1.08-.86-1.42-1.51-.34-.65-.51-1.42-.51-2.3Zm1.06-.05c0,.73.13,1.35.39,1.88.26.53.61.93,1.06,1.22s.96.42,1.52.42,1.1-.15,1.57-.44c.46-.29.83-.71,1.1-1.26.27-.54.4-1.18.4-1.92s-.13-1.35-.39-1.88-.61-.93-1.05-1.22-.95-.42-1.52-.42-1.1.15-1.57.44c-.46.29-.83.71-1.1,1.25-.27.54-.4,1.18-.4,1.93Z"/>
    <path class="cls-5" d="m92.35,557.9c-1.03,0-1.87-.29-2.52-.88s-.98-1.49-.98-2.73v-5.1h1.03v5.08c0,.9.22,1.57.66,2.01.44.44,1.04.66,1.81.66s1.38-.22,1.82-.66c.43-.44.65-1.11.65-2.01v-5.08h1.03v5.1c0,1.24-.33,2.15-.98,2.73s-1.49.88-2.52.88Z"/>
    <path class="cls-5" d="m102.64,557.56c-.24.1-.48.18-.71.25-.23.06-.5.09-.8.09-.65,0-1.16-.19-1.53-.57-.37-.38-.56-1-.56-1.86v-5.36h-.84c-.19,0-.33-.04-.41-.12-.08-.08-.12-.17-.12-.27,0-.11.04-.22.12-.32.08-.1.2-.21.36-.32l1.92-1.31v1.43h2.91v.92h-2.91v5.27c0,.57.1.97.3,1.21s.51.36.93.36c.23,0,.45-.03.66-.08.21-.06.44-.13.68-.22v.92Z"/>
    <path class="cls-5" d="m108.08,557.9c-1.31,0-2.34-.38-3.07-1.14-.74-.76-1.1-1.81-1.1-3.15,0-.93.18-1.74.53-2.43.35-.69.84-1.23,1.46-1.62.62-.38,1.33-.58,2.12-.58.63,0,1.18.12,1.64.35.47.23.83.55,1.09.94.26.4.39.83.39,1.31s-.12.84-.35,1.16c-.23.32-.56.57-.99.75-.42.18-.92.3-1.48.36-.56.06-1.17.05-1.82,0-.65-.06-1.32-.17-2.02-.33v-.78c.66.15,1.32.25,1.98.3.66.05,1.26.04,1.81-.03.55-.07.99-.23,1.32-.46s.5-.57.5-1.01-.18-.81-.53-1.15c-.35-.33-.86-.5-1.52-.5-.59,0-1.12.15-1.58.45-.46.3-.82.72-1.08,1.27-.26.54-.39,1.19-.39,1.94s.12,1.33.37,1.84.6.9,1.07,1.17c.47.27,1.04.41,1.73.41.45,0,.9-.06,1.38-.19.47-.12.96-.32,1.45-.58v.92c-.33.2-.73.39-1.2.55-.47.17-1.03.25-1.68.25Z"/>
    <path class="cls-5" d="m115.86,557.9c-.67,0-1.26-.09-1.76-.26s-.9-.38-1.18-.62v-1.04c.47.36.95.63,1.45.81s1,.26,1.52.26c.73,0,1.26-.15,1.58-.44.33-.29.49-.64.49-1.04,0-.37-.12-.67-.36-.89-.24-.22-.55-.4-.92-.54s-.78-.26-1.2-.38c-.42-.12-.82-.26-1.2-.43s-.69-.41-.92-.71c-.24-.3-.36-.69-.36-1.18,0-.44.11-.85.33-1.22.22-.37.54-.67.98-.89.44-.22.98-.33,1.64-.33.54,0,1.01.07,1.42.22.41.15.73.34.97.58.23.24.35.49.35.76,0,.15-.04.26-.11.34-.07.08-.17.12-.28.12-.16,0-.29-.06-.39-.18-.1-.12-.22-.26-.36-.41-.14-.15-.33-.29-.57-.41s-.59-.18-1.02-.18c-.69,0-1.18.15-1.49.46-.31.31-.46.65-.46,1.02s.12.65.36.86c.24.21.55.38.93.51.38.13.78.25,1.2.37s.82.27,1.2.45.69.43.92.74c.24.31.36.73.36,1.25,0,.43-.11.83-.32,1.2-.21.37-.54.66-.99.88-.45.22-1.04.32-1.77.32Z"/>
    <path class="cls-5" d="m125.59,557.7v-12.25h1.03v12.25h-1.03Zm6.03,0v-5.15c0-.62-.11-1.12-.33-1.5-.22-.38-.51-.66-.87-.83-.36-.18-.75-.26-1.16-.26-.45,0-.87.1-1.28.29-.41.19-.74.49-.99.89-.26.4-.39.92-.39,1.56l-.41-1.34c.22-.55.51-1.01.87-1.35s.76-.6,1.19-.76c.43-.16.86-.24,1.28-.24.55,0,1.06.12,1.53.37.47.25.85.63,1.14,1.15.29.52.43,1.18.43,1.98v5.2h-1.03Z"/>
    <path class="cls-5" d="m134.86,553.54c0-.92.17-1.72.52-2.4.35-.68.83-1.21,1.46-1.59.62-.38,1.34-.57,2.15-.57s1.48.18,2.09.54c.6.36,1.08.86,1.42,1.5.34.65.51,1.42.51,2.31s-.17,1.7-.52,2.39c-.35.69-.83,1.22-1.45,1.6-.62.38-1.34.57-2.16.57s-1.48-.18-2.09-.54c-.61-.36-1.08-.86-1.42-1.51-.34-.65-.51-1.42-.51-2.3Zm1.06-.05c0,.73.13,1.35.39,1.88.26.53.61.93,1.06,1.22s.96.42,1.52.42,1.1-.15,1.57-.44c.46-.29.83-.71,1.1-1.26.27-.54.4-1.18.4-1.92s-.13-1.35-.39-1.88-.61-.93-1.05-1.22-.95-.42-1.52-.42-1.1.15-1.57.44c-.46.29-.83.71-1.1,1.25-.27.54-.4,1.18-.4,1.93Z"/>
    <path class="cls-5" d="m149.12,557.56c-.24.1-.48.18-.71.25-.23.06-.5.09-.8.09-.65,0-1.16-.19-1.53-.57-.37-.38-.56-1-.56-1.86v-5.36h-.84c-.19,0-.33-.04-.41-.12-.08-.08-.12-.17-.12-.27,0-.11.04-.22.12-.32.08-.1.2-.21.36-.32l1.92-1.31v1.43h2.91v.92h-2.91v5.27c0,.57.1.97.3,1.21s.51.36.93.36c.23,0,.45-.03.66-.08.21-.06.44-.13.68-.22v.92Z"/>
    <path class="cls-5" d="m155.39,561.1v-11.91h1.03v11.91h-1.03Zm.62-9.76c.3-.74.73-1.31,1.3-1.73.57-.41,1.26-.62,2.06-.62.75,0,1.43.18,2.02.54.59.36,1.06.87,1.4,1.53.34.66.51,1.44.51,2.35s-.17,1.66-.51,2.34-.8,1.2-1.4,1.58c-.6.38-1.3.57-2.1.57s-1.43-.19-1.97-.56c-.54-.37-.91-.89-1.11-1.55l.21-1.58c0,.52.12.99.36,1.4s.57.74.98.98c.42.24.89.36,1.41.36.59,0,1.12-.15,1.58-.45.46-.3.81-.72,1.07-1.25s.39-1.15.39-1.84-.13-1.3-.39-1.82-.61-.93-1.07-1.22-.99-.43-1.61-.43c-.8,0-1.45.25-1.96.76-.51.5-.76,1.17-.76,1.98l-.41-1.34Z"/>
    <path class="cls-5" d="m165.7,557.7v-8.5h1.03v8.5h-1.03Zm1.03-5.02l-.41-1.34c.31-.84.69-1.44,1.15-1.8.46-.36.92-.54,1.4-.54.22,0,.4.03.56.09.15.06.27.14.36.25.09.1.13.23.13.37,0,.14-.04.25-.13.33s-.21.13-.39.13c-.14,0-.27-.02-.4-.06s-.28-.06-.44-.06c-.54,0-.98.25-1.32.76-.34.5-.51,1.13-.51,1.88Z"/>
    <path class="cls-5" d="m170.77,553.54c0-.92.17-1.72.52-2.4.35-.68.83-1.21,1.46-1.59.62-.38,1.34-.57,2.15-.57s1.48.18,2.09.54c.6.36,1.08.86,1.42,1.5.34.65.51,1.42.51,2.31s-.17,1.7-.52,2.39c-.35.69-.83,1.22-1.45,1.6-.62.38-1.34.57-2.16.57s-1.48-.18-2.09-.54c-.61-.36-1.08-.86-1.42-1.51-.34-.65-.51-1.42-.51-2.3Zm1.06-.05c0,.73.13,1.35.39,1.88.26.53.61.93,1.06,1.22s.96.42,1.52.42,1.1-.15,1.57-.44c.46-.29.83-.71,1.1-1.26.27-.54.4-1.18.4-1.92s-.13-1.35-.39-1.88-.61-.93-1.05-1.22-.95-.42-1.52-.42-1.1.15-1.57.44c-.46.29-.83.71-1.1,1.25-.27.54-.4,1.18-.4,1.93Z"/>
    <path class="cls-5" d="m183.68,557.9c-.67,0-1.26-.09-1.76-.26s-.9-.38-1.18-.62v-1.04c.47.36.95.63,1.45.81s1,.26,1.52.26c.73,0,1.26-.15,1.58-.44.33-.29.49-.64.49-1.04,0-.37-.12-.67-.36-.89-.24-.22-.55-.4-.92-.54s-.78-.26-1.2-.38c-.42-.12-.82-.26-1.2-.43s-.69-.41-.92-.71c-.24-.3-.36-.69-.36-1.18,0-.44.11-.85.33-1.22.22-.37.54-.67.98-.89.44-.22.98-.33,1.64-.33.54,0,1.01.07,1.42.22.41.15.73.34.97.58.23.24.35.49.35.76,0,.15-.04.26-.11.34-.07.08-.17.12-.28.12-.16,0-.29-.06-.39-.18-.1-.12-.22-.26-.36-.41-.14-.15-.33-.29-.57-.41s-.59-.18-1.02-.18c-.69,0-1.18.15-1.49.46-.31.31-.46.65-.46,1.02s.12.65.36.86c.24.21.55.38.93.51.38.13.78.25,1.2.37s.82.27,1.2.45.69.43.92.74c.24.31.36.73.36,1.25,0,.43-.11.83-.32,1.2-.21.37-.54.66-.99.88-.45.22-1.04.32-1.77.32Z"/>
    <path class="cls-5" d="m189.06,561.1v-11.91h1.03v11.91h-1.03Zm.62-9.76c.3-.74.73-1.31,1.3-1.73.57-.41,1.26-.62,2.06-.62.75,0,1.43.18,2.02.54.59.36,1.06.87,1.4,1.53.34.66.51,1.44.51,2.35s-.17,1.66-.51,2.34-.8,1.2-1.4,1.58c-.6.38-1.3.57-2.1.57s-1.43-.19-1.97-.56c-.54-.37-.91-.89-1.11-1.55l.21-1.58c0,.52.12.99.36,1.4s.57.74.98.98c.42.24.89.36,1.41.36.59,0,1.12-.15,1.58-.45.46-.3.81-.72,1.07-1.25s.39-1.15.39-1.84-.13-1.3-.39-1.82-.61-.93-1.07-1.22-.99-.43-1.61-.43c-.8,0-1.45.25-1.96.76-.51.5-.76,1.17-.76,1.98l-.41-1.34Z"/>
    <path class="cls-5" d="m202.97,557.9c-1.31,0-2.34-.38-3.07-1.14-.74-.76-1.1-1.81-1.1-3.15,0-.93.18-1.74.53-2.43.35-.69.84-1.23,1.46-1.62.62-.38,1.33-.58,2.12-.58.63,0,1.18.12,1.64.35.47.23.83.55,1.09.94.26.4.39.83.39,1.31s-.12.84-.35,1.16c-.23.32-.56.57-.99.75-.42.18-.92.3-1.48.36-.56.06-1.17.05-1.82,0-.65-.06-1.32-.17-2.02-.33v-.78c.66.15,1.32.25,1.98.3.66.05,1.26.04,1.81-.03.55-.07.99-.23,1.32-.46s.5-.57.5-1.01-.18-.81-.53-1.15c-.35-.33-.86-.5-1.52-.5-.59,0-1.12.15-1.58.45-.46.3-.82.72-1.08,1.27-.26.54-.39,1.19-.39,1.94s.12,1.33.37,1.84.6.9,1.07,1.17c.47.27,1.04.41,1.73.41.45,0,.9-.06,1.38-.19.47-.12.96-.32,1.45-.58v.92c-.33.2-.73.39-1.2.55-.47.17-1.03.25-1.68.25Z"/>
    <path class="cls-5" d="m214.7,550.69c0,.15-.04.26-.13.34-.09.08-.19.12-.32.12-.18,0-.33-.07-.45-.2-.11-.13-.24-.28-.39-.44-.14-.16-.34-.31-.58-.44-.25-.13-.59-.2-1.04-.2-.94,0-1.67.33-2.2.99-.53.66-.8,1.53-.8,2.62,0,.74.13,1.36.38,1.88.25.52.61.91,1.08,1.18.47.27,1.03.41,1.68.41.43,0,.86-.06,1.29-.19s.87-.32,1.33-.58v.92c-.31.2-.67.39-1.1.55-.42.17-.95.25-1.58.25-1.29,0-2.31-.39-3.06-1.17-.75-.78-1.12-1.84-1.12-3.18,0-.91.17-1.7.52-2.39.35-.69.83-1.22,1.45-1.6.62-.38,1.33-.57,2.14-.57.61,0,1.12.1,1.54.29.42.19.75.41.98.66.24.25.36.5.36.75Z"/>
    <path class="cls-5" d="m221.06,557.56c-.24.1-.48.18-.71.25-.23.06-.5.09-.8.09-.65,0-1.16-.19-1.53-.57-.37-.38-.56-1-.56-1.86v-5.36h-.84c-.19,0-.33-.04-.41-.12-.08-.08-.12-.17-.12-.27,0-.11.04-.22.12-.32.08-.1.2-.21.36-.32l1.92-1.31v1.43h2.91v.92h-2.91v5.27c0,.57.1.97.3,1.21s.51.36.93.36c.23,0,.45-.03.66-.08.21-.06.44-.13.68-.22v.92Z"/>
    <path class="cls-5" d="m225.7,557.9c-.67,0-1.26-.09-1.76-.26s-.9-.38-1.18-.62v-1.04c.47.36.95.63,1.45.81s1,.26,1.52.26c.73,0,1.26-.15,1.58-.44.33-.29.49-.64.49-1.04,0-.37-.12-.67-.36-.89-.24-.22-.55-.4-.92-.54s-.78-.26-1.2-.38c-.42-.12-.82-.26-1.2-.43s-.69-.41-.92-.71c-.24-.3-.36-.69-.36-1.18,0-.44.11-.85.33-1.22.22-.37.54-.67.98-.89.44-.22.98-.33,1.64-.33.54,0,1.01.07,1.42.22.41.15.73.34.97.58.23.24.35.49.35.76,0,.15-.04.26-.11.34-.07.08-.17.12-.28.12-.16,0-.29-.06-.39-.18-.1-.12-.22-.26-.36-.41-.14-.15-.33-.29-.57-.41s-.59-.18-1.02-.18c-.69,0-1.18.15-1.49.46-.31.31-.46.65-.46,1.02s.12.65.36.86c.24.21.55.38.93.51.38.13.78.25,1.2.37s.82.27,1.2.45.69.43.92.74c.24.31.36.73.36,1.25,0,.43-.11.83-.32,1.2-.21.37-.54.66-.99.88-.45.22-1.04.32-1.77.32Z"/>
    <path class="cls-5" d="m237.79,557.9c-.67,0-1.26-.09-1.76-.26s-.9-.38-1.18-.62v-1.04c.47.36.95.63,1.45.81s1,.26,1.52.26c.73,0,1.26-.15,1.58-.44.33-.29.49-.64.49-1.04,0-.37-.12-.67-.36-.89-.24-.22-.55-.4-.92-.54s-.78-.26-1.2-.38c-.42-.12-.82-.26-1.2-.43s-.69-.41-.92-.71c-.24-.3-.36-.69-.36-1.18,0-.44.11-.85.33-1.22.22-.37.54-.67.98-.89.44-.22.98-.33,1.64-.33.54,0,1.01.07,1.42.22.41.15.73.34.97.58.23.24.35.49.35.76,0,.15-.04.26-.11.34-.07.08-.17.12-.28.12-.16,0-.29-.06-.39-.18-.1-.12-.22-.26-.36-.41-.14-.15-.33-.29-.57-.41s-.59-.18-1.02-.18c-.69,0-1.18.15-1.49.46-.31.31-.46.65-.46,1.02s.12.65.36.86c.24.21.55.38.93.51.38.13.78.25,1.2.37s.82.27,1.2.45.69.43.92.74c.24.31.36.73.36,1.25,0,.43-.11.83-.32,1.2-.21.37-.54.66-.99.88-.45.22-1.04.32-1.77.32Z"/>
    <path class="cls-5" d="m247.26,557.56c-.24.1-.48.18-.71.25-.23.06-.5.09-.8.09-.65,0-1.16-.19-1.53-.57-.37-.38-.56-1-.56-1.86v-5.36h-.84c-.19,0-.33-.04-.41-.12-.08-.08-.12-.17-.12-.27,0-.11.04-.22.12-.32.08-.1.2-.21.36-.32l1.92-1.31v1.43h2.91v.92h-2.91v5.27c0,.57.1.97.3,1.21s.51.36.93.36c.23,0,.45-.03.66-.08.21-.06.44-.13.68-.22v.92Z"/>
    <path class="cls-5" d="m249.4,557.7v-8.5h1.03v8.5h-1.03Zm1.03-5.02l-.41-1.34c.31-.84.69-1.44,1.15-1.8.46-.36.92-.54,1.4-.54.22,0,.4.03.56.09.15.06.27.14.36.25.09.1.13.23.13.37,0,.14-.04.25-.13.33s-.21.13-.39.13c-.14,0-.27-.02-.4-.06s-.28-.06-.44-.06c-.54,0-.98.25-1.32.76-.34.5-.51,1.13-.51,1.88Z"/>
    <path class="cls-5" d="m257.47,557.9c-.78,0-1.41-.21-1.9-.62-.49-.41-.74-1-.74-1.76,0-.66.21-1.18.62-1.57.42-.39,1.04-.68,1.88-.86l1.44-.31c.64-.14,1.05-.28,1.24-.43.19-.15.28-.37.28-.68v1.33c-.09.1-.24.2-.44.3s-.5.19-.9.28l-1.37.29c-.49.1-.89.28-1.2.52-.31.24-.46.61-.46,1.1s.16.87.47,1.15c.31.28.73.42,1.24.42.45,0,.87-.1,1.28-.31s.74-.52.99-.92c.26-.4.39-.88.39-1.44l.29,1.29c-.24.79-.65,1.36-1.24,1.71-.59.35-1.21.52-1.88.52Zm4.28-.2h-1.03c-.08-.18-.15-.45-.21-.79s-.09-.69-.09-1.05l-.12-.32v-3.93c0-.66-.19-1.11-.57-1.34-.38-.24-.87-.36-1.45-.36-.51,0-.92.06-1.21.19-.29.12-.52.27-.68.44-.16.17-.3.32-.41.44-.11.12-.26.19-.43.19-.11,0-.21-.03-.29-.1-.08-.07-.12-.17-.12-.31,0-.1.03-.22.09-.36.06-.14.16-.28.31-.44.62-.65,1.53-.97,2.74-.97.58,0,1.1.08,1.56.25.46.16.82.44,1.09.82.27.39.4.9.4,1.55v3.74c0,.49.04.94.13,1.35.09.41.19.75.3,1Z"/>
    <path class="cls-5" d="m264.74,547.42c-.25,0-.44-.07-.57-.22-.13-.15-.19-.32-.19-.53s.06-.38.19-.53c.13-.15.31-.22.57-.22s.44.07.57.22c.13.15.19.32.19.53s-.06.38-.19.53c-.13.15-.31.22-.57.22Zm-.51,10.27v-8.5c.34.03.69.03,1.03,0v8.5h-1.03Z"/>
    <path class="cls-5" d="m271.47,561.3c-.74,0-1.38-.07-1.92-.2-.54-.13-.95-.3-1.23-.52-.13-.09-.22-.19-.29-.29-.07-.1-.1-.21-.1-.32s.04-.21.11-.3c.07-.08.19-.13.33-.13.16,0,.31.04.44.13s.29.19.48.31c.19.12.45.22.8.31.34.08.81.13,1.4.13.88,0,1.61-.13,2.19-.4.58-.27.87-.7.87-1.3,0-.36-.14-.66-.43-.88-.29-.23-.82-.34-1.59-.34h-2.62c-.58,0-1.03-.08-1.34-.23s-.53-.35-.66-.6c-.13-.24-.19-.5-.19-.76,0-.49.17-.88.51-1.17.34-.29.82-.48,1.46-.57l1.54.42c-.71,0-1.24.06-1.61.18-.37.12-.61.27-.74.45s-.19.36-.19.54c0,.27.11.47.33.59s.6.18,1.12.18h2.6c.85,0,1.52.17,2.03.5.51.33.76.88.76,1.64,0,.85-.34,1.5-1.02,1.95-.68.45-1.7.67-3.06.67Zm-.24-6.7c-.98,0-1.78-.24-2.41-.73-.62-.49-.93-1.16-.93-2.01,0-.58.15-1.08.45-1.51.3-.43.71-.76,1.23-1,.53-.24,1.12-.36,1.8-.36l2,.65c.33.16.6.35.8.57.2.22.35.46.44.73.09.27.14.55.14.84,0,.57-.15,1.06-.45,1.49-.3.43-.71.75-1.23.99-.53.23-1.14.35-1.83.35Zm.03-.88c.73,0,1.33-.17,1.79-.5s.69-.82.69-1.45-.22-1.09-.67-1.41-1.02-.48-1.73-.48-1.31.17-1.77.5c-.46.33-.69.82-.69,1.45s.22,1.09.67,1.41,1.02.48,1.71.48Zm4.64-3.61c-.49,0-.93-.02-1.31-.06-.38-.04-.86-.12-1.43-.23l-1.8-.83c.79,0,1.55.03,2.29.1.74.07,1.49.1,2.25.1v.92Z"/>
    <path class="cls-5" d="m277.8,557.7v-12.25h1.03v12.25h-1.03Zm6.03,0v-5.15c0-.62-.11-1.12-.33-1.5-.22-.38-.51-.66-.87-.83-.36-.18-.75-.26-1.16-.26-.45,0-.87.1-1.28.29-.41.19-.74.49-.99.89-.26.4-.39.92-.39,1.56l-.41-1.34c.22-.55.51-1.01.87-1.35s.76-.6,1.19-.76c.43-.16.86-.24,1.28-.24.55,0,1.06.12,1.53.37.47.25.85.63,1.14,1.15.29.52.43,1.18.43,1.98v5.2h-1.03Z"/>
    <path class="cls-5" d="m291.4,557.56c-.24.1-.48.18-.71.25-.23.06-.5.09-.8.09-.65,0-1.16-.19-1.53-.57-.37-.38-.56-1-.56-1.86v-5.36h-.84c-.19,0-.33-.04-.41-.12s-.12-.17-.12-.27c0-.11.04-.22.12-.32.08-.1.2-.21.36-.32l1.92-1.31v1.43h2.91v.92h-2.91v5.27c0,.57.1.97.3,1.21.2.24.51.36.93.36.23,0,.45-.03.66-.08s.44-.13.68-.22v.92Z"/>
    <path class="cls-5" d="m301.51,557.56c-.24.1-.48.18-.71.25-.23.06-.5.09-.8.09-.65,0-1.16-.19-1.53-.57-.37-.38-.56-1-.56-1.86v-5.36h-.84c-.19,0-.33-.04-.41-.12s-.12-.17-.12-.27c0-.11.04-.22.12-.32.08-.1.2-.21.36-.32l1.92-1.31v1.43h2.91v.92h-2.91v5.27c0,.57.1.97.3,1.21s.51.36.93.36c.23,0,.45-.03.66-.08s.44-.13.68-.22v.92Z"/>
    <path class="cls-5" d="m302.78,553.54c0-.92.17-1.72.52-2.4.35-.68.83-1.21,1.46-1.59.62-.38,1.34-.57,2.15-.57s1.48.18,2.09.54c.6.36,1.08.86,1.42,1.5.34.65.51,1.42.51,2.31s-.17,1.7-.52,2.39c-.35.69-.83,1.22-1.45,1.6-.62.38-1.34.57-2.16.57s-1.48-.18-2.09-.54c-.61-.36-1.08-.86-1.42-1.51-.34-.65-.51-1.42-.51-2.3Zm1.06-.05c0,.73.13,1.35.38,1.88.26.53.61.93,1.06,1.22s.96.42,1.52.42,1.11-.15,1.57-.44c.46-.29.83-.71,1.1-1.26.27-.54.4-1.18.4-1.92s-.13-1.35-.38-1.88c-.26-.53-.61-.93-1.05-1.22s-.95-.42-1.52-.42-1.11.15-1.57.44c-.46.29-.83.71-1.1,1.25-.27.54-.4,1.18-.4,1.93Z"/>
    <path class="cls-5" d="m319.73,557.7l-3.6-8.5h1.11l3.48,8.5h-.99Zm-2.28,3.61c-.19,0-.38-.02-.57-.07-.19-.05-.34-.12-.46-.21-.12-.1-.18-.22-.18-.38,0-.12.04-.22.12-.29.08-.07.18-.1.31-.1.15,0,.29.03.41.08s.27.09.45.09c.19,0,.4-.07.62-.21s.46-.41.72-.8c.26-.39.55-.96.87-1.71l4.62-8.5-3.8,8.98c-.47,1.11-.94,1.91-1.41,2.4-.47.49-1.04.73-1.69.73Zm3.31-3.61h-.99l3.48-8.5h1.11l-3.6,8.5Z"/>
    <path class="cls-5" d="m325.2,553.54c0-.92.17-1.72.52-2.4.35-.68.83-1.21,1.46-1.59.62-.38,1.34-.57,2.15-.57s1.48.18,2.09.54c.6.36,1.08.86,1.42,1.5s.51,1.42.51,2.31-.17,1.7-.52,2.39c-.35.69-.83,1.22-1.45,1.6-.62.38-1.34.57-2.16.57s-1.48-.18-2.09-.54c-.61-.36-1.08-.86-1.42-1.51-.34-.65-.51-1.42-.51-2.3Zm1.06-.05c0,.73.13,1.35.38,1.88.26.53.61.93,1.06,1.22s.96.42,1.52.42,1.1-.15,1.57-.44c.46-.29.83-.71,1.1-1.26.27-.54.4-1.18.4-1.92s-.13-1.35-.39-1.88-.61-.93-1.05-1.22-.95-.42-1.52-.42-1.1.15-1.57.44c-.46.29-.83.71-1.1,1.25-.27.54-.4,1.18-.4,1.93Z"/>
    <path class="cls-5" d="m339.02,557.9c-1.03,0-1.87-.29-2.52-.88-.65-.58-.98-1.49-.98-2.73v-5.1h1.03v5.08c0,.9.22,1.57.66,2.01.44.44,1.04.66,1.81.66s1.38-.22,1.82-.66c.43-.44.65-1.11.65-2.01v-5.08h1.03v5.1c0,1.24-.33,2.15-.98,2.73s-1.49.88-2.52.88Z"/>
    <path class="cls-5" d="m345.31,557.7v-8.5h1.03v8.5h-1.03Zm1.03-5.02l-.41-1.34c.31-.84.69-1.44,1.15-1.8.46-.36.92-.54,1.4-.54.22,0,.4.03.56.09s.27.14.36.25c.09.1.13.23.13.37,0,.14-.04.25-.13.33s-.21.13-.38.13c-.14,0-.27-.02-.4-.06s-.28-.06-.44-.06c-.54,0-.98.25-1.32.76-.34.5-.51,1.13-.51,1.88Z"/>
    <path class="cls-5" d="m359.29,557.56c-.24.1-.48.18-.71.25-.23.06-.5.09-.8.09-.65,0-1.16-.19-1.53-.57-.37-.38-.56-1-.56-1.86v-5.36h-.84c-.19,0-.33-.04-.41-.12s-.12-.17-.12-.27c0-.11.04-.22.12-.32.08-.1.2-.21.36-.32l1.92-1.31v1.43h2.91v.92h-2.91v5.27c0,.57.1.97.3,1.21s.51.36.93.36c.23,0,.45-.03.66-.08s.44-.13.68-.22v.92Z"/>
    <path class="cls-5" d="m364.72,557.9c-1.31,0-2.34-.38-3.08-1.14s-1.1-1.81-1.1-3.15c0-.93.18-1.74.53-2.43.35-.69.84-1.23,1.46-1.62.62-.38,1.33-.58,2.12-.58.63,0,1.18.12,1.64.35.47.23.83.55,1.09.94.26.4.39.83.39,1.31s-.12.84-.35,1.16c-.23.32-.56.57-.99.75-.42.18-.92.3-1.48.36-.57.06-1.17.05-1.82,0-.65-.06-1.33-.17-2.02-.33v-.78c.66.15,1.32.25,1.98.3.66.05,1.26.04,1.81-.03.55-.07.99-.23,1.32-.46.33-.23.5-.57.5-1.01s-.18-.81-.53-1.15c-.35-.33-.86-.5-1.53-.5-.59,0-1.12.15-1.58.45-.46.3-.82.72-1.08,1.27-.26.54-.39,1.19-.39,1.94s.12,1.33.37,1.84c.25.51.6.9,1.07,1.17.47.27,1.04.41,1.73.41.45,0,.9-.06,1.38-.19.47-.12.96-.32,1.45-.58v.92c-.33.2-.73.39-1.2.55-.47.17-1.03.25-1.68.25Z"/>
    <path class="cls-5" d="m372.1,557.9c-.78,0-1.41-.21-1.9-.62-.49-.41-.74-1-.74-1.76,0-.66.21-1.18.62-1.57.42-.39,1.04-.68,1.88-.86l1.44-.31c.64-.14,1.05-.28,1.24-.43.19-.15.28-.37.28-.68v1.33c-.09.1-.24.2-.44.3-.2.1-.5.19-.9.28l-1.37.29c-.49.1-.89.28-1.2.52-.31.24-.46.61-.46,1.1s.16.87.47,1.15c.31.28.73.42,1.24.42.45,0,.87-.1,1.28-.31s.74-.52.99-.92c.26-.4.38-.88.38-1.44l.29,1.29c-.24.79-.65,1.36-1.24,1.71s-1.21.52-1.88.52Zm4.28-.2h-1.03c-.08-.18-.15-.45-.21-.79s-.09-.69-.09-1.05l-.12-.32v-3.93c0-.66-.19-1.11-.57-1.34s-.87-.36-1.45-.36c-.51,0-.92.06-1.21.19s-.52.27-.68.44c-.16.17-.3.32-.41.44-.11.12-.26.19-.43.19-.12,0-.21-.03-.29-.1-.08-.07-.12-.17-.12-.31,0-.1.03-.22.09-.36.06-.14.16-.28.31-.44.62-.65,1.53-.97,2.74-.97.58,0,1.1.08,1.56.25.46.16.82.44,1.09.82.27.39.4.9.4,1.55v3.74c0,.49.04.94.13,1.35s.19.75.3,1Z"/>
    <path class="cls-5" d="m378.86,557.7v-8.5h1.03v8.5h-1.03Zm5.86,0v-5.15c0-.94-.21-1.61-.63-2.01s-.93-.6-1.55-.6c-.45,0-.87.1-1.28.29-.41.19-.74.49-.99.89-.26.4-.39.92-.39,1.56l-.41-1.34c.21-.55.49-1.01.84-1.35.35-.35.74-.6,1.17-.76s.85-.24,1.28-.24c.55,0,1.05.12,1.5.37.45.25.81.62,1.08,1.12.27.5.4,1.12.4,1.87v5.34h-1.03Zm5.86,0v-5.15c0-.94-.21-1.61-.62-2.01-.42-.4-.93-.6-1.55-.6-.45,0-.87.1-1.28.29-.41.19-.74.49-.99.89-.26.4-.38.92-.38,1.56l-.57-1.34c.23-.55.53-1.01.91-1.35s.79-.6,1.23-.76.88-.24,1.3-.24c.55,0,1.05.13,1.5.38s.81.64,1.08,1.17c.27.52.4,1.18.4,1.99v5.17h-1.03Z"/>
    <path class="cls-5" d="m395.11,557.9c-.29,0-.5-.08-.64-.25-.14-.16-.21-.35-.21-.57,0-.23.07-.42.21-.58.14-.16.36-.24.64-.24s.5.08.64.24c.14.16.21.35.21.58s-.07.41-.21.57c-.14.17-.36.25-.64.25Z"/>
    <path class="cls-5" d="m403.27,557.7v-10.82c0-.28.06-.5.18-.64.12-.14.29-.21.51-.21.19,0,.36.06.5.17s.28.27.43.48l7.16,10.05-.51.08v-10.68h.99v11.57h-1.08l-7.54-10.6.36-.1v10.7h-.99Z"/>
    <path class="cls-5" d="m415.13,553.54c0-.92.17-1.72.52-2.4.35-.68.83-1.21,1.46-1.59.62-.38,1.34-.57,2.15-.57s1.48.18,2.09.54c.61.36,1.08.86,1.42,1.5.34.65.51,1.42.51,2.31s-.17,1.7-.52,2.39c-.35.69-.83,1.22-1.45,1.6-.62.38-1.34.57-2.16.57s-1.49-.18-2.09-.54c-.61-.36-1.08-.86-1.42-1.51-.34-.65-.51-1.42-.51-2.3Zm1.06-.05c0,.73.13,1.35.39,1.88.26.53.61.93,1.06,1.22s.96.42,1.52.42,1.1-.15,1.57-.44.83-.71,1.1-1.26c.27-.54.4-1.18.4-1.92s-.13-1.35-.39-1.88c-.26-.53-.61-.93-1.05-1.22s-.95-.42-1.53-.42-1.1.15-1.57.44c-.46.29-.83.71-1.1,1.25-.27.54-.4,1.18-.4,1.93Z"/>
    <path class="cls-5" d="m429.96,557.7v-8.5h1.03v8.5h-1.03Zm5.86,0v-5.15c0-.94-.21-1.61-.63-2.01s-.93-.6-1.55-.6c-.45,0-.87.1-1.28.29-.41.19-.74.49-.99.89-.26.4-.39.92-.39,1.56l-.41-1.34c.21-.55.49-1.01.84-1.35.35-.35.74-.6,1.17-.76s.85-.24,1.28-.24c.55,0,1.05.12,1.5.37.45.25.81.62,1.08,1.12.27.5.4,1.12.4,1.87v5.34h-1.03Zm5.86,0v-5.15c0-.94-.21-1.61-.62-2.01-.42-.4-.93-.6-1.55-.6-.45,0-.87.1-1.28.29-.41.19-.74.49-.99.89-.26.4-.38.92-.38,1.56l-.57-1.34c.23-.55.53-1.01.91-1.35s.79-.6,1.23-.76.88-.24,1.3-.24c.55,0,1.05.13,1.5.38s.81.64,1.08,1.17c.27.52.4,1.18.4,1.99v5.17h-1.03Z"/>
    <path class="cls-5" d="m444.91,553.54c0-.92.17-1.72.52-2.4.35-.68.83-1.21,1.46-1.59.62-.38,1.34-.57,2.15-.57s1.48.18,2.09.54c.61.36,1.08.86,1.42,1.5.34.65.51,1.42.51,2.31s-.17,1.7-.52,2.39c-.35.69-.83,1.22-1.45,1.6-.62.38-1.34.57-2.16.57s-1.49-.18-2.09-.54c-.61-.36-1.08-.86-1.42-1.51-.34-.65-.51-1.42-.51-2.3Zm1.06-.05c0,.73.13,1.35.39,1.88s.61.93,1.06,1.22.96.42,1.52.42,1.1-.15,1.57-.44.83-.71,1.1-1.26c.27-.54.4-1.18.4-1.92s-.13-1.35-.38-1.88-.61-.93-1.05-1.22-.95-.42-1.52-.42-1.1.15-1.57.44c-.46.29-.83.71-1.1,1.25-.27.54-.4,1.18-.4,1.93Z"/>
    <path class="cls-5" d="m455.44,557.7v-8.5h1.03v8.5h-1.03Zm1.03-5.02l-.41-1.34c.31-.84.69-1.44,1.15-1.8.46-.36.92-.54,1.4-.54.22,0,.4.03.56.09s.27.14.36.25c.09.1.13.23.13.37,0,.14-.04.25-.13.33-.08.08-.21.13-.38.13-.14,0-.27-.02-.4-.06-.13-.04-.28-.06-.44-.06-.54,0-.98.25-1.32.76-.34.5-.51,1.13-.51,1.88Z"/>
    <path class="cls-5" d="m464.67,557.9c-1.31,0-2.34-.38-3.08-1.14s-1.1-1.81-1.1-3.15c0-.93.18-1.74.53-2.43.35-.69.84-1.23,1.46-1.62.62-.38,1.33-.58,2.12-.58.63,0,1.18.12,1.64.35.47.23.83.55,1.09.94.26.4.39.83.39,1.31s-.12.84-.35,1.16c-.23.32-.56.57-.99.75-.42.18-.92.3-1.48.36-.57.06-1.17.05-1.82,0-.65-.06-1.33-.17-2.02-.33v-.78c.66.15,1.32.25,1.98.3.66.05,1.26.04,1.81-.03.55-.07.99-.23,1.32-.46.33-.23.5-.57.5-1.01s-.18-.81-.53-1.15c-.35-.33-.86-.5-1.53-.5-.59,0-1.12.15-1.58.45-.46.3-.82.72-1.08,1.27-.26.54-.39,1.19-.39,1.94s.12,1.33.37,1.84c.25.51.6.9,1.07,1.17.47.27,1.04.41,1.73.41.45,0,.9-.06,1.38-.19.47-.12.96-.32,1.45-.58v.92c-.33.2-.73.39-1.2.55-.47.17-1.03.25-1.68.25Z"/>
    <path class="cls-5" d="m74.48,565.86v10.29c0,.46.07.78.21.95.14.17.37.26.69.26.14,0,.27-.01.39-.03s.26-.06.41-.1v.85c-.33.16-.68.24-1.04.24-.62,0-1.05-.19-1.31-.58-.26-.39-.39-.87-.39-1.46v-10.41h1.03Z"/>
    <path class="cls-5" d="m81.52,578.31c-1.31,0-2.34-.38-3.07-1.14-.74-.76-1.1-1.81-1.1-3.15,0-.93.18-1.74.53-2.43.35-.69.84-1.23,1.46-1.62.62-.38,1.33-.58,2.12-.58.63,0,1.18.12,1.64.35.47.23.83.55,1.09.94.26.4.39.83.39,1.31s-.12.84-.35,1.16c-.23.32-.56.57-.99.75-.42.18-.92.3-1.48.36-.56.06-1.17.05-1.82,0-.65-.06-1.32-.17-2.02-.33v-.78c.66.15,1.32.25,1.98.3.66.05,1.26.04,1.81-.03.55-.07.99-.23,1.32-.46s.5-.57.5-1.01-.18-.81-.53-1.15c-.35-.33-.86-.5-1.52-.5-.59,0-1.12.15-1.58.45-.46.3-.82.72-1.08,1.27-.26.54-.39,1.19-.39,1.94s.12,1.33.37,1.84.6.9,1.07,1.17c.47.27,1.04.41,1.73.41.45,0,.9-.06,1.38-.19.47-.12.96-.32,1.45-.58v.92c-.33.2-.73.39-1.2.55-.47.17-1.03.25-1.68.25Z"/>
    <path class="cls-5" d="m88.9,578.31c-.78,0-1.41-.21-1.9-.62-.49-.41-.74-1-.74-1.76,0-.66.21-1.18.62-1.57.42-.39,1.04-.68,1.88-.86l1.44-.31c.64-.14,1.05-.28,1.24-.43.19-.15.28-.37.28-.68v1.33c-.09.1-.24.2-.44.3s-.5.19-.9.28l-1.37.29c-.49.1-.89.28-1.2.52-.31.24-.46.61-.46,1.1s.16.87.47,1.15c.31.28.73.42,1.24.42.45,0,.87-.1,1.28-.31s.74-.52.99-.92c.26-.4.39-.88.39-1.44l.29,1.29c-.24.79-.65,1.36-1.24,1.71-.59.35-1.21.52-1.88.52Zm4.28-.2h-1.03c-.08-.18-.15-.45-.21-.79s-.09-.69-.09-1.05l-.12-.32v-3.93c0-.66-.19-1.11-.57-1.34-.38-.24-.87-.36-1.45-.36-.51,0-.92.06-1.21.19-.29.12-.52.27-.68.44-.16.17-.3.32-.41.44-.11.12-.26.19-.43.19-.11,0-.21-.03-.29-.1-.08-.07-.12-.17-.12-.31,0-.1.03-.22.09-.36.06-.14.16-.28.31-.44.62-.65,1.53-.97,2.74-.97.58,0,1.1.08,1.56.25.46.16.82.44,1.09.82.27.39.4.9.4,1.55v3.74c0,.49.04.94.13,1.35.09.41.19.75.3,1Z"/>
    <path class="cls-5" d="m102.34,575.96c-.29.73-.71,1.3-1.28,1.72-.57.42-1.26.63-2.07.63-.74,0-1.41-.18-2.01-.54-.6-.36-1.07-.88-1.41-1.54-.34-.66-.51-1.44-.51-2.34s.17-1.68.51-2.35c.34-.67.81-1.19,1.41-1.57.6-.38,1.3-.57,2.09-.57s1.43.18,1.97.55c.54.37.91.89,1.11,1.56l-.21,1.58c0-.52-.12-.99-.36-1.4-.24-.41-.56-.74-.98-.98s-.89-.36-1.42-.36c-.59,0-1.12.15-1.58.45-.46.3-.81.71-1.07,1.24-.26.53-.39,1.14-.39,1.85s.13,1.3.39,1.82c.26.52.61.93,1.07,1.22.46.29.99.43,1.61.43.81,0,1.47-.25,1.97-.76.5-.5.75-1.17.75-1.98l.41,1.34Zm.62-10.1v12.25h-1.03v-12.25h1.03Z"/>
    <path class="cls-5" d="m108.39,578.31c-.67,0-1.26-.09-1.76-.26s-.9-.38-1.18-.62v-1.04c.47.36.95.63,1.45.81s1,.26,1.52.26c.73,0,1.26-.15,1.58-.44.33-.29.49-.64.49-1.04,0-.37-.12-.67-.36-.89-.24-.22-.55-.4-.92-.54s-.78-.26-1.2-.38c-.42-.12-.82-.26-1.2-.43s-.69-.41-.92-.71c-.24-.3-.36-.69-.36-1.18,0-.44.11-.85.33-1.22.22-.37.54-.67.98-.89.44-.22.98-.33,1.64-.33.54,0,1.01.07,1.42.22.41.15.73.34.97.58.23.24.35.49.35.76,0,.15-.04.26-.11.34-.07.08-.17.12-.28.12-.16,0-.29-.06-.39-.18-.1-.12-.22-.26-.36-.41-.14-.15-.33-.29-.57-.41s-.59-.18-1.02-.18c-.69,0-1.18.15-1.49.46-.31.31-.46.65-.46,1.02s.12.65.36.86c.24.21.55.38.93.51.38.13.78.25,1.2.37s.82.27,1.2.45.69.43.92.74c.24.31.36.73.36,1.25,0,.43-.11.83-.32,1.2-.21.37-.54.66-.99.88-.45.22-1.04.32-1.77.32Z"/>
    <path class="cls-5" d="m120.49,578.31c-.67,0-1.26-.09-1.76-.26s-.9-.38-1.18-.62v-1.04c.47.36.95.63,1.45.81s1,.26,1.52.26c.73,0,1.26-.15,1.58-.44.33-.29.49-.64.49-1.04,0-.37-.12-.67-.36-.89-.24-.22-.55-.4-.92-.54s-.78-.26-1.2-.38c-.42-.12-.82-.26-1.2-.43s-.69-.41-.92-.71c-.24-.3-.36-.69-.36-1.18,0-.44.11-.85.33-1.22.22-.37.54-.67.98-.89.44-.22.98-.33,1.64-.33.54,0,1.01.07,1.42.22.41.15.73.34.97.58.23.24.35.49.35.76,0,.15-.04.26-.11.34-.07.08-.17.12-.28.12-.16,0-.29-.06-.39-.18-.1-.12-.22-.26-.36-.41-.14-.15-.33-.29-.57-.41s-.59-.18-1.02-.18c-.69,0-1.18.15-1.49.46-.31.31-.46.65-.46,1.02s.12.65.36.86c.24.21.55.38.93.51.38.13.78.25,1.2.37s.82.27,1.2.45.69.43.92.74c.24.31.36.73.36,1.25,0,.43-.11.83-.32,1.2-.21.37-.54.66-.99.88-.45.22-1.04.32-1.77.32Z"/>
    <path class="cls-5" d="m126.89,565.86v10.29c0,.46.07.78.21.95.14.17.37.26.69.26.14,0,.27-.01.39-.03s.26-.06.41-.1v.85c-.33.16-.68.24-1.04.24-.62,0-1.05-.19-1.31-.58-.26-.39-.39-.87-.39-1.46v-10.41h1.03Z"/>
    <path class="cls-5" d="m131.07,567.83c-.25,0-.44-.07-.57-.22-.13-.15-.19-.32-.19-.53s.06-.38.19-.53c.13-.15.31-.22.57-.22s.44.07.57.22c.13.15.19.32.19.53s-.06.38-.19.53c-.13.15-.31.22-.57.22Zm-.51,10.27v-8.5c.34.03.69.03,1.03,0v8.5h-1.03Z"/>
    <path class="cls-5" d="m134.54,581.51v-11.91h1.03v11.91h-1.03Zm.62-9.76c.3-.74.73-1.31,1.3-1.73.57-.41,1.26-.62,2.06-.62.75,0,1.43.18,2.02.54.59.36,1.06.87,1.4,1.53.34.66.51,1.44.51,2.35s-.17,1.66-.51,2.34-.8,1.2-1.4,1.58c-.6.38-1.3.57-2.1.57s-1.43-.19-1.97-.56c-.54-.37-.91-.89-1.11-1.55l.21-1.58c0,.52.12.99.36,1.4s.57.74.98.98c.42.24.89.36,1.41.36.59,0,1.12-.15,1.58-.45.46-.3.81-.72,1.07-1.25s.39-1.15.39-1.84-.13-1.3-.39-1.82-.61-.93-1.07-1.22-.99-.43-1.61-.43c-.8,0-1.45.25-1.96.76-.51.5-.76,1.17-.76,1.98l-.41-1.34Z"/>
    <path class="cls-5" d="m144.84,581.51v-11.91h1.03v11.91h-1.03Zm.62-9.76c.3-.74.73-1.31,1.3-1.73.57-.41,1.26-.62,2.06-.62.75,0,1.43.18,2.02.54.59.36,1.06.87,1.4,1.53.34.66.51,1.44.51,2.35s-.17,1.66-.51,2.34-.8,1.2-1.4,1.58c-.6.38-1.3.57-2.1.57s-1.43-.19-1.97-.56c-.54-.37-.91-.89-1.11-1.55l.21-1.58c0,.52.12.99.36,1.4s.57.74.98.98c.42.24.89.36,1.41.36.59,0,1.12-.15,1.58-.45.46-.3.81-.72,1.07-1.25s.39-1.15.39-1.84-.13-1.3-.39-1.82-.61-.93-1.07-1.22-.99-.43-1.61-.43c-.8,0-1.45.25-1.96.76-.51.5-.76,1.17-.76,1.98l-.41-1.34Z"/>
    <path class="cls-5" d="m155.63,567.83c-.25,0-.44-.07-.57-.22-.13-.15-.19-.32-.19-.53s.06-.38.19-.53c.13-.15.31-.22.57-.22s.44.07.57.22c.13.15.19.32.19.53s-.06.38-.19.53c-.13.15-.31.22-.57.22Zm-.51,10.27v-8.5c.34.03.69.03,1.03,0v8.5h-1.03Z"/>
    <path class="cls-5" d="m159.1,578.1v-8.5h1.03v8.5h-1.03Zm6.03,0v-5.15c0-.62-.11-1.12-.33-1.5-.22-.38-.51-.66-.87-.83-.36-.18-.75-.26-1.16-.26-.45,0-.87.1-1.28.29-.41.19-.74.49-.99.89-.26.4-.39.92-.39,1.56l-.41-1.34c.21-.55.49-1.01.85-1.35s.76-.6,1.2-.76.87-.24,1.29-.24c.55,0,1.06.12,1.53.37.47.25.85.63,1.14,1.15.29.52.43,1.18.43,1.98v5.2h-1.03Z"/>
    <path class="cls-5" d="m172.22,581.71c-.74,0-1.38-.07-1.92-.2-.54-.13-.95-.3-1.23-.52-.13-.09-.22-.19-.29-.29-.07-.1-.1-.21-.1-.32s.04-.21.11-.3c.07-.08.19-.13.33-.13.16,0,.31.04.44.13s.29.19.48.31c.19.12.45.22.8.31.34.08.81.13,1.4.13.88,0,1.61-.13,2.19-.4.58-.27.87-.7.87-1.3,0-.36-.14-.66-.43-.88-.29-.23-.82-.34-1.59-.34h-2.62c-.58,0-1.03-.08-1.34-.23s-.53-.35-.66-.6c-.13-.24-.19-.5-.19-.76,0-.49.17-.88.51-1.17.34-.29.82-.48,1.46-.57l1.54.42c-.71,0-1.24.06-1.61.18-.37.12-.61.27-.74.45s-.19.36-.19.54c0,.27.11.47.33.59s.6.18,1.12.18h2.6c.85,0,1.52.17,2.03.5.51.33.76.88.76,1.64,0,.85-.34,1.5-1.02,1.95-.68.45-1.7.67-3.06.67Zm-.24-6.7c-.98,0-1.78-.24-2.41-.73-.62-.49-.93-1.16-.93-2.01,0-.58.15-1.08.45-1.51.3-.43.71-.76,1.23-1,.53-.24,1.12-.36,1.8-.36l2,.65c.33.16.6.35.8.57.2.22.35.46.44.73.09.27.14.55.14.84,0,.57-.15,1.06-.45,1.49-.3.43-.71.75-1.23.99-.53.23-1.14.35-1.83.35Zm.03-.88c.73,0,1.33-.17,1.79-.5s.69-.82.69-1.45-.22-1.09-.67-1.41-1.02-.48-1.73-.48-1.31.17-1.77.5c-.46.33-.69.82-.69,1.45s.22,1.09.67,1.41,1.02.48,1.71.48Zm4.64-3.61c-.49,0-.93-.02-1.31-.06-.38-.04-.86-.12-1.43-.23l-1.8-.83c.79,0,1.55.03,2.29.1.74.07,1.49.1,2.25.1v.92Z"/>
    <path class="cls-5" d="m186.62,577.97c-.24.1-.48.18-.71.25-.23.06-.5.09-.8.09-.65,0-1.16-.19-1.53-.57-.37-.38-.56-1-.56-1.86v-5.36h-.84c-.19,0-.33-.04-.41-.12-.08-.08-.12-.17-.12-.27,0-.11.04-.22.12-.32.08-.1.2-.21.36-.32l1.92-1.31v1.43h2.91v.92h-2.91v5.27c0,.57.1.97.3,1.21s.51.36.93.36c.23,0,.45-.03.66-.08.21-.06.44-.13.68-.22v.92Z"/>
    <path class="cls-5" d="m188.76,578.1v-12.25h1.03v12.25h-1.03Zm6.03,0v-5.15c0-.62-.11-1.12-.33-1.5-.22-.38-.51-.66-.87-.83-.36-.18-.75-.26-1.16-.26-.45,0-.87.1-1.28.29-.41.19-.74.49-.99.89-.26.4-.39.92-.39,1.56l-.41-1.34c.22-.55.51-1.01.87-1.35s.76-.6,1.19-.76c.43-.16.86-.24,1.28-.24.55,0,1.06.12,1.53.37.47.25.85.63,1.14,1.15.29.52.43,1.18.43,1.98v5.2h-1.03Z"/>
    <path class="cls-5" d="m198.61,578.1v-8.5h1.03v8.5h-1.03Zm1.03-5.02l-.41-1.34c.31-.84.69-1.44,1.15-1.8.46-.36.92-.54,1.4-.54.22,0,.4.03.56.09.15.06.27.14.36.25.09.1.13.23.13.37,0,.14-.04.25-.13.33s-.21.13-.39.13c-.14,0-.27-.02-.4-.06s-.28-.06-.44-.06c-.54,0-.98.25-1.32.76-.34.5-.51,1.13-.51,1.88Z"/>
    <path class="cls-5" d="m203.68,573.95c0-.92.17-1.72.52-2.4.35-.68.83-1.21,1.46-1.59.62-.38,1.34-.57,2.15-.57s1.48.18,2.09.54c.6.36,1.08.86,1.42,1.5.34.65.51,1.42.51,2.31s-.17,1.7-.52,2.39c-.35.69-.83,1.22-1.45,1.6-.62.38-1.34.57-2.16.57s-1.48-.18-2.09-.54c-.61-.36-1.08-.86-1.42-1.51-.34-.65-.51-1.42-.51-2.3Zm1.06-.05c0,.73.13,1.35.39,1.88.26.53.61.93,1.06,1.22s.96.42,1.52.42,1.1-.15,1.57-.44c.46-.29.83-.71,1.1-1.26.27-.54.4-1.18.4-1.92s-.13-1.35-.39-1.88-.61-.93-1.05-1.22-.95-.42-1.52-.42-1.1.15-1.57.44c-.46.29-.83.71-1.1,1.25-.27.54-.4,1.18-.4,1.93Z"/>
    <path class="cls-5" d="m217.5,578.31c-1.03,0-1.87-.29-2.52-.88s-.98-1.49-.98-2.73v-5.1h1.03v5.08c0,.9.22,1.57.66,2.01.44.44,1.04.66,1.81.66s1.38-.22,1.82-.66c.43-.44.65-1.11.65-2.01v-5.08h1.03v5.1c0,1.24-.33,2.15-.98,2.73s-1.49.88-2.52.88Z"/>
    <path class="cls-5" d="m227,581.71c-.74,0-1.38-.07-1.92-.2-.54-.13-.95-.3-1.23-.52-.13-.09-.22-.19-.29-.29-.07-.1-.1-.21-.1-.32s.04-.21.11-.3c.07-.08.19-.13.33-.13.16,0,.31.04.44.13s.29.19.48.31c.19.12.45.22.8.31.34.08.81.13,1.4.13.88,0,1.61-.13,2.19-.4.58-.27.87-.7.87-1.3,0-.36-.14-.66-.43-.88-.29-.23-.82-.34-1.59-.34h-2.62c-.58,0-1.03-.08-1.34-.23s-.53-.35-.66-.6c-.13-.24-.19-.5-.19-.76,0-.49.17-.88.51-1.17.34-.29.82-.48,1.46-.57l1.54.42c-.71,0-1.24.06-1.61.18-.37.12-.61.27-.74.45s-.19.36-.19.54c0,.27.11.47.33.59s.6.18,1.12.18h2.6c.85,0,1.52.17,2.03.5.51.33.76.88.76,1.64,0,.85-.34,1.5-1.02,1.95-.68.45-1.7.67-3.06.67Zm-.24-6.7c-.98,0-1.78-.24-2.41-.73-.62-.49-.93-1.16-.93-2.01,0-.58.15-1.08.45-1.51.3-.43.71-.76,1.23-1,.53-.24,1.12-.36,1.8-.36l2,.65c.33.16.6.35.8.57.2.22.35.46.44.73.09.27.14.55.14.84,0,.57-.15,1.06-.45,1.49-.3.43-.71.75-1.23.99-.53.23-1.14.35-1.83.35Zm.03-.88c.73,0,1.33-.17,1.79-.5s.69-.82.69-1.45-.22-1.09-.67-1.41-1.02-.48-1.73-.48-1.31.17-1.77.5c-.46.33-.69.82-.69,1.45s.22,1.09.67,1.41,1.02.48,1.71.48Zm4.64-3.61c-.49,0-.93-.02-1.31-.06-.38-.04-.86-.12-1.43-.23l-1.8-.83c.79,0,1.55.03,2.29.1.74.07,1.49.1,2.25.1v.92Z"/>
    <path class="cls-5" d="m233.33,578.1v-12.25h1.03v12.25h-1.03Zm6.03,0v-5.15c0-.62-.11-1.12-.33-1.5-.22-.38-.51-.66-.87-.83-.36-.18-.75-.26-1.16-.26-.45,0-.87.1-1.28.29-.41.19-.74.49-.99.89-.26.4-.39.92-.39,1.56l-.41-1.34c.22-.55.51-1.01.87-1.35s.76-.6,1.19-.76c.43-.16.86-.24,1.28-.24.55,0,1.06.12,1.53.37.47.25.85.63,1.14,1.15.29.52.43,1.18.43,1.98v5.2h-1.03Z"/>
    <path class="cls-5" d="m251.35,577.97c-.24.1-.48.18-.71.25-.23.06-.5.09-.8.09-.65,0-1.16-.19-1.53-.57-.37-.38-.56-1-.56-1.86v-5.36h-.84c-.19,0-.33-.04-.41-.12-.08-.08-.12-.17-.12-.27,0-.11.04-.22.12-.32.08-.1.2-.21.36-.32l1.92-1.31v1.43h2.91v.92h-2.91v5.27c0,.57.1.97.3,1.21s.51.36.93.36c.23,0,.45-.03.66-.08.21-.06.44-.13.68-.22v.92Z"/>
    <path class="cls-5" d="m253.48,578.1v-12.25h1.03v12.25h-1.03Zm6.03,0v-5.15c0-.62-.11-1.12-.33-1.5-.22-.38-.51-.66-.87-.83-.36-.18-.75-.26-1.16-.26-.45,0-.87.1-1.28.29-.41.19-.74.49-.99.89-.26.4-.39.92-.39,1.56l-.41-1.34c.22-.55.51-1.01.87-1.35s.76-.6,1.19-.76c.43-.16.86-.24,1.28-.24.55,0,1.06.12,1.53.37.47.25.85.63,1.14,1.15.29.52.43,1.18.43,1.98v5.2h-1.03Z"/>
    <path class="cls-5" d="m266.93,578.31c-1.31,0-2.34-.38-3.07-1.14-.74-.76-1.1-1.81-1.1-3.15,0-.93.18-1.74.53-2.43.35-.69.84-1.23,1.46-1.62.62-.38,1.33-.58,2.12-.58.63,0,1.18.12,1.64.35.47.23.83.55,1.09.94.26.4.39.83.39,1.31s-.12.84-.35,1.16c-.23.32-.56.57-.99.75-.42.18-.92.3-1.48.36-.56.06-1.17.05-1.82,0-.65-.06-1.32-.17-2.02-.33v-.78c.66.15,1.32.25,1.98.3.66.05,1.26.04,1.81-.03.55-.07.99-.23,1.32-.46s.5-.57.5-1.01-.18-.81-.53-1.15c-.35-.33-.86-.5-1.52-.5-.59,0-1.12.15-1.58.45-.46.3-.82.72-1.08,1.27-.26.54-.39,1.19-.39,1.94s.12,1.33.37,1.84.6.9,1.07,1.17c.47.27,1.04.41,1.73.41.45,0,.9-.06,1.38-.19.47-.12.96-.32,1.45-.58v.92c-.33.2-.73.39-1.2.55-.47.17-1.03.25-1.68.25Z"/>
    <path class="cls-5" d="m282.82,571.1c0,.15-.04.26-.13.34-.09.08-.19.12-.32.12-.18,0-.33-.07-.45-.2-.11-.13-.24-.28-.39-.44-.14-.16-.34-.31-.58-.44-.25-.13-.59-.2-1.04-.2-.94,0-1.67.33-2.2.99-.53.66-.8,1.53-.8,2.62,0,.74.13,1.36.38,1.88.25.52.61.91,1.08,1.18.47.27,1.03.41,1.68.41.43,0,.86-.06,1.29-.19s.87-.32,1.33-.58v.92c-.31.2-.67.39-1.1.55-.42.17-.95.25-1.58.25-1.29,0-2.31-.39-3.06-1.17-.75-.78-1.12-1.84-1.12-3.18,0-.91.17-1.7.52-2.39.35-.69.83-1.22,1.45-1.6.62-.38,1.33-.57,2.14-.57.61,0,1.12.1,1.54.29.42.19.75.41.98.66.24.25.36.5.36.75Z"/>
    <path class="cls-5" d="m284.85,578.1v-8.5h1.03v8.5h-1.03Zm1.03-5.02l-.41-1.34c.31-.84.69-1.44,1.15-1.8.46-.36.92-.54,1.4-.54.22,0,.4.03.56.09s.27.14.36.25c.09.1.13.23.13.37,0,.14-.04.25-.13.33-.08.08-.21.13-.38.13-.14,0-.27-.02-.4-.06-.13-.04-.28-.06-.44-.06-.54,0-.98.25-1.32.76-.34.5-.51,1.13-.51,1.88Z"/>
    <path class="cls-5" d="m292.93,578.31c-.78,0-1.41-.21-1.9-.62-.49-.41-.74-1-.74-1.76,0-.66.21-1.18.62-1.57.42-.39,1.04-.68,1.88-.86l1.44-.31c.64-.14,1.05-.28,1.24-.43.19-.15.28-.37.28-.68v1.33c-.09.1-.24.2-.44.3-.2.1-.5.19-.9.28l-1.37.29c-.49.1-.89.28-1.2.52-.31.24-.46.61-.46,1.1s.16.87.47,1.15c.31.28.73.42,1.24.42.45,0,.87-.1,1.28-.31s.74-.52.99-.92c.26-.4.38-.88.38-1.44l.29,1.29c-.24.79-.65,1.36-1.24,1.71s-1.21.52-1.88.52Zm4.28-.2h-1.03c-.08-.18-.15-.45-.21-.79s-.09-.69-.09-1.05l-.12-.32v-3.93c0-.66-.19-1.11-.57-1.34s-.87-.36-1.45-.36c-.51,0-.92.06-1.21.19s-.52.27-.68.44c-.16.17-.3.32-.41.44-.11.12-.26.19-.43.19-.12,0-.21-.03-.29-.1-.08-.07-.12-.17-.12-.31,0-.1.03-.22.09-.36.06-.14.16-.28.31-.44.62-.65,1.53-.97,2.74-.97.58,0,1.1.08,1.56.25.46.16.82.44,1.09.82.27.39.4.9.4,1.55v3.74c0,.49.04.94.13,1.35s.19.75.3,1Z"/>
    <path class="cls-5" d="m306.05,571.1c0,.15-.04.26-.13.34-.08.08-.19.12-.32.12-.18,0-.33-.07-.45-.2-.11-.13-.24-.28-.38-.44-.14-.16-.34-.31-.58-.44-.25-.13-.59-.2-1.04-.2-.94,0-1.67.33-2.2.99s-.8,1.53-.8,2.62c0,.74.13,1.36.38,1.88.25.52.61.91,1.08,1.18.47.27,1.03.41,1.68.41.43,0,.87-.06,1.29-.19.43-.12.87-.32,1.33-.58v.92c-.31.2-.67.39-1.1.55-.42.17-.95.25-1.58.25-1.29,0-2.31-.39-3.06-1.17-.75-.78-1.12-1.84-1.12-3.18,0-.91.17-1.7.52-2.39.35-.69.83-1.22,1.45-1.6.62-.38,1.33-.57,2.14-.57.61,0,1.12.1,1.54.29.42.19.75.41.98.66.24.25.36.5.36.75Z"/>
    <path class="cls-5" d="m308.08,578.1v-12.25h1.03v12.25h-1.03Zm.67-4.54l4.33-3.79c.15-.12.27-.22.38-.28.1-.06.21-.09.33-.09.14,0,.24.04.32.12s.11.18.11.31c0,.1-.03.2-.09.28s-.14.17-.24.26l-4.2,3.59-.02-.88c.79.98,1.44,1.76,1.94,2.35.51.59.94,1.03,1.29,1.32s.66.47.94.54c.28.07.58.06.92-.02v.85c-.11.04-.23.08-.35.1-.12.02-.25.03-.4.03-.39,0-.76-.09-1.12-.28-.36-.19-.73-.47-1.12-.86-.39-.38-.83-.87-1.31-1.46s-1.05-1.28-1.7-2.08Z"/>
    <path class="cls-5" d="m319.22,578.31c-.67,0-1.26-.09-1.76-.26-.5-.18-.9-.38-1.18-.62v-1.04c.47.36.95.63,1.45.81.5.18,1,.26,1.52.26.73,0,1.26-.15,1.58-.44.33-.29.49-.64.49-1.04,0-.37-.12-.67-.36-.89-.24-.22-.55-.4-.93-.54s-.78-.26-1.2-.38-.82-.26-1.2-.43-.68-.41-.92-.71c-.24-.3-.36-.69-.36-1.18,0-.44.11-.85.33-1.22.22-.37.54-.67.99-.89.44-.22.98-.33,1.63-.33.54,0,1.01.07,1.42.22.41.15.73.34.97.58.23.24.35.49.35.76,0,.15-.04.26-.11.34-.07.08-.17.12-.28.12-.16,0-.29-.06-.39-.18-.1-.12-.22-.26-.36-.41-.14-.15-.33-.29-.57-.41s-.59-.18-1.02-.18c-.68,0-1.18.15-1.49.46-.31.31-.46.65-.46,1.02s.12.65.36.86c.24.21.55.38.92.51.38.13.78.25,1.2.37s.82.27,1.2.45.69.43.92.74c.24.31.36.73.36,1.25,0,.43-.11.83-.32,1.2-.21.37-.54.66-.99.88-.45.22-1.04.32-1.77.32Z"/>
    <path class="cls-5" d="m325.38,578.31c-.29,0-.5-.08-.64-.25-.14-.16-.21-.35-.21-.57,0-.23.07-.42.21-.58s.36-.24.64-.24.5.08.64.24.21.35.21.58-.07.41-.21.57c-.14.17-.36.25-.64.25Z"/>
  </g>
  <g>
    <path class="cls-5" d="m80.77,449.86c-1.39,0-2.64-.23-3.76-.7-1.12-.47-2.09-1.14-2.89-2.03-.77-.87-1.35-1.87-1.73-3.01-.39-1.14-.58-2.33-.58-3.57,0-1.41.23-2.7.69-3.85.46-1.16,1.1-2.14,1.9-2.96.84-.83,1.83-1.48,2.97-1.94,1.14-.46,2.38-.69,3.71-.69.72,0,1.41.06,2.07.18.66.12,1.31.29,1.94.5.63.21,1.26.45,1.88.7v1.99l-1.8-.2c-.51-.22-1.11-.41-1.79-.56-.68-.15-1.38-.23-2.12-.23-1.34,0-2.5.29-3.49.88-.99.59-1.76,1.41-2.29,2.46-.53,1.05-.8,2.29-.8,3.7,0,1.33.24,2.51.72,3.56s1.2,1.88,2.17,2.49c.97.61,2.15.92,3.56.92.79,0,1.52-.12,2.21-.36s1.35-.65,2-1.22c.09-.07.17-.12.24-.15.08-.03.16-.05.24-.05.15,0,.28.06.39.18l1.1,1.2c-.69.82-1.57,1.48-2.66,2-1.09.52-2.39.78-3.89.78Zm3.96-16.02l2.24.64v2.3h-1.23c-.17,0-.31-.04-.41-.13-.1-.08-.17-.21-.21-.38l-.39-2.42Z"/>
    <path class="cls-5" d="m92.87,449.86c-.7,0-1.34-.13-1.9-.4-.56-.26-1.01-.65-1.34-1.17-.33-.52-.49-1.15-.49-1.9,0-.51.14-1,.42-1.48.28-.48.73-.9,1.35-1.28.63-.36,1.46-.66,2.47-.91,1.01-.25,2.26-.39,3.75-.42v-.92c0-.97-.21-1.7-.63-2.18-.42-.48-1.02-.73-1.81-.73-.46,0-.93.11-1.4.33-.47.22-.9.44-1.3.65-.39.21-.72.32-.98.32-.19,0-.34-.05-.46-.14-.12-.09-.22-.2-.31-.32l-.46-.82c.74-.7,1.53-1.22,2.39-1.56.86-.34,1.8-.51,2.83-.51s1.83.2,2.52.61,1.21.99,1.58,1.73c.37.75.55,1.62.55,2.6v8.27h-1.16c-.24,0-.43-.04-.58-.12-.15-.08-.25-.23-.32-.47l-.26-1.12c-.69.61-1.37,1.08-2.04,1.42-.68.33-1.49.5-2.43.5Zm.77-1.79c.72,0,1.35-.14,1.9-.42.55-.28,1.08-.68,1.59-1.21v-2.53c-.86.02-1.62.08-2.3.18-.68.1-1.25.25-1.73.43-.48.19-.84.42-1.09.7-.25.28-.37.63-.37,1.03,0,.65.19,1.11.57,1.39.38.28.86.42,1.44.42Zm5.27,1.58l.31-2.17,1.8.38c.15.03.28.1.37.2.09.1.14.24.14.41v1.17h-2.62Z"/>
    <path class="cls-5" d="m105.2,436.67l-.31,2.17-1.77-.38c-.17-.03-.3-.1-.39-.2-.09-.1-.13-.24-.13-.41v-1.17h2.6Zm-2.6,17.35v-1.17c0-.19.04-.33.13-.43.09-.1.21-.16.39-.18l1.77-.38.31,2.17h-2.6Zm1.88,0v-17.35h1.54c.36,0,.58.17.67.51l.23,1.43c.55-.65,1.18-1.17,1.89-1.57.71-.4,1.52-.6,2.43-.6,1.06,0,1.96.27,2.69.82.73.54,1.28,1.31,1.67,2.31s.58,2.16.58,3.51c0,1.24-.23,2.38-.68,3.41-.45,1.03-1.1,1.84-1.94,2.45-.84.6-1.85.91-3.03.91-.79,0-1.46-.12-2-.37-.55-.25-1.04-.61-1.46-1.08v5.64h-2.57Zm1.82,0l.31-2.17,1.8.38c.15.02.27.08.36.18.09.1.13.25.13.43v1.17h-2.6Zm3.62-6.12c.79,0,1.44-.19,1.97-.56.52-.37.92-.92,1.19-1.65.27-.72.41-1.59.41-2.62,0-1.51-.26-2.66-.77-3.43-.51-.77-1.29-1.16-2.34-1.16-.72,0-1.34.16-1.88.47-.53.31-1.02.77-1.46,1.37v6.15c.39.51.83.88,1.31,1.1.48.22,1,.33,1.57.33Z"/>
    <path class="cls-5" d="m122.65,449.86c-1.06,0-1.88-.3-2.47-.89-.58-.6-.87-1.44-.87-2.53v-7.73h-1.49c-.15,0-.28-.04-.39-.13-.1-.08-.15-.22-.15-.41v-1.02l2.13-.31.59-3.83c.05-.32.24-.48.57-.48h1.31v4.34h3.65v1.84h-3.65v7.58c0,.49.12.87.37,1.12.25.25.58.38.99.38.19,0,.38-.05.58-.14.2-.09.38-.19.55-.28.17-.09.31-.14.41-.14.12,0,.23.08.33.23l.77,1.22c-.43.36-.93.64-1.49.85-.57.21-1.15.32-1.75.32Z"/>
    <path class="cls-5" d="m129.2,436.67l-.31,2.17-1.8-.38c-.15-.03-.28-.1-.37-.2-.09-.1-.14-.24-.14-.41v-1.17h2.62Zm3.65,13.19c-.94,0-1.74-.21-2.39-.64-.65-.42-1.15-1-1.49-1.74-.34-.73-.51-1.58-.51-2.55v-8.27h2.57v8.27c0,.94.21,1.65.64,2.16.43.5,1.08.75,1.95.75.63,0,1.23-.14,1.79-.43.56-.29,1.07-.7,1.53-1.22v-9.52h2.57v12.99h-1.54c-.38,0-.6-.17-.67-.51l-.21-1.28c-.55.6-1.17,1.08-1.85,1.44-.69.37-1.48.55-2.39.55Zm4.83-13.19l-.31,2.17-1.8-.38c-.15-.03-.28-.1-.37-.2-.09-.1-.14-.24-.14-.41v-1.17h2.62Zm1.1,12.99l.31-2.17,1.77.38c.17.03.3.1.39.2.09.1.13.24.13.41v1.17h-2.59Z"/>
    <path class="cls-5" d="m145.05,436.67l-.31,2.17-1.77-.38c-.17-.03-.3-.1-.39-.2-.09-.1-.13-.24-.13-.41v-1.17h2.6Zm-2.6,12.99v-1.17c0-.17.04-.31.13-.41.09-.1.21-.17.39-.2l1.77-.38.31,2.17h-2.6Zm1.88,0v-12.99h1.46c.29,0,.49.05.6.15.11.1.18.28.19.54l.18,1.89c.45-.88.99-1.57,1.63-2.07.64-.49,1.4-.74,2.27-.74.34,0,.66.04.94.13.28.09.54.2.78.33l-.33,1.91c-.02.1-.07.18-.15.24-.09.06-.18.09-.28.09-.12,0-.34-.03-.67-.1-.33-.07-.62-.1-.87-.1-.75,0-1.39.21-1.9.64-.51.43-.94,1.05-1.28,1.86v8.21h-2.57Zm1.82,0l.31-2.17,1.8.38c.15.03.27.1.36.2.09.1.13.24.13.41v1.17h-2.6Z"/>
    <path class="cls-5" d="m159.83,449.83c-1.27,0-2.38-.29-3.33-.85-.95-.57-1.69-1.37-2.21-2.41-.52-1.04-.78-2.26-.78-3.67,0-1.21.25-2.3.76-3.28.51-.98,1.22-1.75,2.16-2.31s2.03-.84,3.28-.84c1.1,0,2.06.24,2.88.71.82.48,1.46,1.15,1.93,2.02s.69,1.91.69,3.11c0,.39-.04.66-.13.79-.09.14-.26.2-.51.2h-8.48v.31c.1,1.36.5,2.41,1.18,3.14s1.61,1.1,2.77,1.1c.51,0,1.02-.1,1.53-.31.5-.2.96-.4,1.36-.6.4-.2.7-.29.89-.29.21,0,.37.07.49.2l.72.94c-.38.48-.86.87-1.44,1.17-.58.31-1.2.53-1.85.66s-1.28.2-1.9.2Zm-3.67-8.11h6.73c0-.99-.27-1.8-.82-2.44-.55-.64-1.32-.96-2.31-.96-1.06,0-1.89.3-2.49.89-.6.6-.97,1.43-1.1,2.5Z"/>
    <path class="cls-5" d="m77.51,480.47c-.94,0-1.85-.22-2.71-.65-.87-.43-1.56-1.03-2.09-1.8s-.8-1.67-.8-2.7c0-.78.18-1.51.53-2.18.35-.67.82-1.27,1.41-1.8s1.26-.95,2.02-1.28c-.5-.65-.86-1.28-1.1-1.89-.24-.61-.36-1.24-.36-1.89,0-.88.21-1.67.63-2.35.42-.68,1.01-1.22,1.76-1.62.75-.4,1.64-.6,2.65-.6.89,0,1.68.18,2.38.54.69.36,1.25.84,1.68,1.44.43.6.67,1.27.72,2l-1.75.33c-.14.02-.26-.01-.36-.09-.1-.08-.18-.19-.23-.34-.07-.34-.21-.65-.44-.93-.22-.28-.5-.51-.83-.7s-.72-.28-1.17-.28c-.79,0-1.43.24-1.91.73-.49.48-.73,1.1-.73,1.85,0,.56.15,1.11.46,1.66.31.54.74,1.1,1.28,1.66l5.19,5.26c.31-.56.55-1.15.73-1.76.18-.61.3-1.23.37-1.86.02-.17.07-.3.17-.4.09-.09.23-.14.4-.14h1.59c-.02,1-.18,1.99-.48,2.96-.3.97-.74,1.87-1.32,2.7l3.88,3.93h-2.52c-.26,0-.47-.03-.64-.1-.17-.07-.36-.2-.56-.41l-1.67-1.68c-.81.75-1.73,1.34-2.76,1.76-1.04.42-2.17.64-3.4.64Zm.46-2.07c.89,0,1.69-.16,2.4-.47.71-.31,1.35-.74,1.91-1.26l-5.27-5.28c-.55.31-1.01.65-1.37,1.05-.37.39-.64.81-.82,1.26-.18.45-.27.93-.27,1.44,0,.66.16,1.24.48,1.73.32.49.74.87,1.26,1.14.52.26,1.08.4,1.68.4Z"/>
    <path class="cls-5" d="m113.66,483.99c-.34,0-.65-.05-.91-.14-.27-.09-.51-.25-.73-.47l-3.08-3.37c-.46.14-.95.25-1.45.33s-1.03.13-1.58.13c-1.37,0-2.62-.23-3.74-.7-1.12-.47-2.09-1.12-2.89-1.95-.81-.82-1.44-1.8-1.89-2.95-.45-1.15-.68-2.4-.68-3.76s.23-2.64.68-3.78c.45-1.14,1.08-2.13,1.89-2.96.8-.85,1.77-1.51,2.89-1.96,1.12-.46,2.37-.69,3.74-.69s2.62.23,3.76.7c1.14.47,2.11,1.12,2.92,1.95.8.83,1.43,1.82,1.86,2.96.44,1.14.66,2.4.66,3.78,0,1.63-.34,3.14-1.02,4.52-.68,1.38-1.62,2.47-2.84,3.29l4.73,5.08h-2.31Zm-7.76-5.92c1.32,0,2.45-.28,3.39-.84.94-.56,1.67-1.37,2.17-2.42.5-1.05.76-2.29.76-3.7s-.25-2.67-.76-3.71c-.51-1.05-1.23-1.86-2.17-2.44-.94-.58-2.07-.87-3.39-.87s-2.42.29-3.37.87-1.67,1.39-2.18,2.44c-.51,1.05-.77,2.28-.77,3.71s.26,2.64.77,3.69c.51,1.05,1.24,1.85,2.18,2.42.94.57,2.06.85,3.37.85Z"/>
    <path class="cls-5" d="m118.56,467.28l-.31,2.17-1.8-.38c-.15-.03-.28-.1-.37-.2-.09-.1-.14-.24-.14-.41v-1.17h2.62Zm3.65,13.19c-.94,0-1.74-.21-2.39-.64-.65-.42-1.15-1-1.49-1.74-.34-.73-.51-1.58-.51-2.55v-8.27h2.57v8.27c0,.94.21,1.65.64,2.16.43.5,1.08.75,1.95.75.63,0,1.23-.14,1.79-.43.56-.29,1.07-.7,1.53-1.22v-9.52h2.57v12.99h-1.54c-.38,0-.6-.17-.67-.51l-.21-1.28c-.55.6-1.17,1.08-1.85,1.44-.69.37-1.48.55-2.39.55Zm4.83-13.19l-.31,2.17-1.8-.38c-.15-.03-.28-.1-.37-.2-.09-.1-.14-.24-.14-.41v-1.17h2.62Zm1.1,12.99l.31-2.17,1.77.38c.17.03.3.1.39.2.09.1.13.24.13.41v1.17h-2.59Z"/>
    <path class="cls-5" d="m135.68,480.47c-.7,0-1.34-.13-1.9-.4-.56-.26-1.01-.65-1.34-1.17-.33-.52-.49-1.15-.49-1.9,0-.51.14-1,.42-1.48.28-.48.73-.9,1.35-1.28.63-.36,1.46-.66,2.47-.91,1.01-.25,2.26-.39,3.75-.42v-.92c0-.97-.21-1.7-.63-2.18-.42-.48-1.02-.73-1.81-.73-.46,0-.93.11-1.4.33-.47.22-.9.44-1.3.65-.39.21-.72.32-.98.32-.19,0-.34-.05-.46-.14-.12-.09-.22-.2-.31-.32l-.46-.82c.74-.7,1.53-1.22,2.39-1.56.86-.34,1.8-.51,2.83-.51s1.83.2,2.52.61,1.21.99,1.58,1.73c.37.75.55,1.62.55,2.6v8.27h-1.16c-.24,0-.43-.04-.58-.12-.15-.08-.25-.23-.32-.47l-.26-1.12c-.69.61-1.37,1.08-2.04,1.42-.68.33-1.49.5-2.43.5Zm.77-1.79c.72,0,1.35-.14,1.9-.42.55-.28,1.08-.68,1.59-1.21v-2.53c-.86.02-1.62.08-2.3.18-.68.1-1.25.25-1.73.43-.48.19-.84.42-1.09.7-.25.28-.37.63-.37,1.03,0,.65.19,1.11.57,1.39.38.28.86.42,1.44.42Zm5.27,1.58l.31-2.17,1.8.38c.15.03.28.1.37.2.09.1.14.24.14.41v1.17h-2.62Z"/>
    <path class="cls-5" d="m148.01,461.42l-.31,2.17-1.77-.38c-.17-.03-.3-.1-.39-.2-.09-.1-.13-.24-.13-.41v-1.17h2.6Zm-2.6,18.85v-1.17c0-.17.04-.31.13-.41.09-.1.21-.17.39-.2l1.77-.38.31,2.17h-2.6Zm1.88,0v-18.85h2.57v18.85h-2.57Zm1.82,0l.31-2.17,1.8.38c.15.03.27.1.36.2.09.1.13.24.13.41v1.17h-2.6Z"/>
    <path class="cls-5" d="m155.51,467.28l-.31,2.17-1.77-.38c-.17-.03-.3-.1-.39-.2-.09-.1-.13-.24-.13-.41v-1.17h2.6Zm-2.6,12.99v-1.17c0-.17.04-.31.13-.41.09-.1.21-.17.39-.2l1.77-.38.31,2.17h-2.6Zm3.13-15.26c-.46,0-.87-.17-1.22-.51-.35-.34-.53-.74-.53-1.2s.18-.89.53-1.24c.35-.35.76-.52,1.22-.52s.89.17,1.25.52c.35.35.53.76.53,1.24s-.18.86-.53,1.2c-.35.34-.77.51-1.25.51Zm-1.26,15.26v-12.99h2.57v12.99h-2.57Zm1.82,0l.31-2.17,1.8.38c.15.03.27.1.36.2.09.1.13.24.13.41v1.17h-2.6Z"/>
    <path class="cls-5" d="m162.35,480.27v-10.92l-1.34-.15c-.19-.05-.35-.12-.49-.22-.14-.09-.21-.23-.21-.42v-1.07h2.03v-1.15c0-1.48.42-2.63,1.25-3.46.83-.82,1.96-1.24,3.38-1.24.29,0,.57.02.85.06.27.04.54.11.8.19l-.05,1.28c-.02.17-.07.28-.17.33-.09.05-.21.08-.35.08h-.64c-.84,0-1.47.22-1.9.66s-.64,1.17-.64,2.17v1.07h3.65v1.84h-3.57v10.94h-2.6Zm-1.88,0v-1.17c0-.17.05-.31.14-.41.09-.1.22-.17.37-.2l1.8-.38.28,2.17h-2.6Zm3.75,0l.28-2.17,1.8.38c.17.03.3.1.39.2.09.1.13.24.13.41v1.17h-2.6Z"/>
    <path class="cls-5" d="m172.26,467.28l-.31,2.17-1.77-.38c-.17-.03-.3-.1-.39-.2-.09-.1-.13-.24-.13-.41v-1.17h2.59Zm1.08,17.35l2.42-5.2-5.37-12.14h2.24c.22,0,.39.06.51.17.12.11.21.23.26.34l3.26,7.73c.05.15.12.34.19.57.08.23.14.44.19.62.03-.12.07-.25.12-.38.04-.14.09-.28.15-.42.06-.14.11-.29.14-.42l3.13-7.71c.05-.14.15-.25.3-.36.15-.1.3-.15.45-.15h2.06l-7.22,16.74c-.09.19-.19.34-.32.45s-.32.17-.58.17h-1.93Zm-1.05-16.66v-.69h1.9v.69h-1.9Zm3.34-.69v1.17c0,.17-.04.31-.13.41-.09.1-.21.17-.39.2l-1.8.38-.28-2.17h2.59Zm5.11,0l-.31,2.17-1.77-.38c-.17-.03-.3-.1-.39-.2-.09-.1-.13-.24-.13-.41v-1.17h2.59Zm-.75.69v-.69h1.9v.69h-1.9Zm4.11-.69v1.17c0,.17-.04.31-.13.41-.09.1-.21.17-.39.2l-1.8.38-.28-2.17h2.59Z"/>
  </g>
  <path class="cls-6" d="m398.88,206.68c0-.06-.01-.11-.02-.16,0-.11,0-.21-.02-.31-.01-.11-.03-.23-.05-.34-.02-.11-.04-.22-.06-.33-.02-.09-.05-.18-.07-.28-.03-.11-.07-.21-.11-.32-.04-.11-.08-.22-.13-.32-.04-.1-.09-.19-.14-.28-.03-.05-.04-.1-.07-.15s-.07-.09-.1-.13c-.06-.09-.11-.18-.17-.26-.07-.09-.14-.18-.21-.27-.07-.09-.15-.18-.22-.26-.07-.07-.13-.14-.2-.2-.08-.08-.17-.15-.25-.22-.09-.07-.18-.15-.28-.22-.09-.06-.17-.12-.26-.17-.05-.03-.08-.07-.13-.1l-129.9-75s-.1-.04-.15-.07c-.16-.09-.33-.15-.49-.22-.14-.06-.28-.12-.43-.16-.16-.05-.32-.08-.48-.11-.16-.03-.32-.06-.47-.08-.16-.02-.32-.01-.48-.01-.16,0-.32,0-.47.01-.16.02-.32.05-.48.08-.16.03-.32.06-.47.11-.14.04-.28.1-.43.16-.17.07-.34.14-.5.22-.05.03-.1.04-.15.07l-86.6,50s-.09.07-.13.1c-.09.06-.18.11-.26.17-.09.07-.18.14-.27.22-.09.07-.17.14-.26.22-.07.07-.14.13-.2.2-.08.08-.15.17-.22.26-.07.09-.15.18-.21.27-.06.09-.12.17-.17.26-.03.05-.07.08-.1.13-.03.05-.04.1-.07.15-.05.09-.1.19-.14.28-.05.1-.09.21-.13.32-.04.11-.08.21-.11.32-.03.09-.05.18-.07.28-.03.11-.05.22-.06.33-.02.11-.04.23-.05.34-.01.1-.01.21-.02.31,0,.06-.02.11-.02.16v150c0,.06.01.11.02.16,0,.18.03.36.05.54.02.15.04.31.08.45.04.16.09.31.14.46.05.15.1.31.17.45.07.15.15.28.23.42.08.14.16.28.25.41.09.13.2.25.31.38.11.12.21.24.33.35.11.11.23.2.36.29.14.11.28.22.44.31.05.03.08.07.13.1l86.6,50s0,0,.01,0c.14.08.29.15.44.22,0,0,0,0,.01,0,.04.02.07.04.11.05.01,0,.02.01.04.02.06.03.13.04.19.07.2.07.4.13.6.18.06.01.13.03.19.04.3.05.6.09.9.09,0,0,0,0,0,0s0,0,0,0c.3,0,.6-.04.9-.09.06-.01.13-.02.19-.04.23-.05.46-.12.68-.2.04-.01.08-.02.11-.04.01,0,.03-.01.04-.02.04-.02.07-.04.11-.05.02,0,.04-.02.05-.03.14-.06.27-.12.4-.2,0,0,0,0,.01,0l129.9-75s.09-.07.13-.1c.15-.1.3-.2.44-.32.12-.1.24-.19.35-.29.12-.11.22-.23.33-.36.11-.12.22-.24.31-.37.09-.13.17-.27.25-.41.08-.14.16-.27.23-.42.07-.15.12-.3.17-.46.05-.15.11-.3.14-.46.04-.15.05-.3.08-.45.03-.18.05-.36.05-.54,0-.06.02-.11.02-.16v-100Zm-178.21-44.23l33.3,19.23-33.3,19.23-33.3-19.23,33.3-19.23Zm43.3-25l119.9,69.23-33.3,19.23-119.9-69.23,33.3-19.23Zm0,188.45l-33.3-19.23,76.6-44.23,33.3,19.23-76.6,44.23Zm81.6-52.89l-76.6-44.23v-38.45l76.6,44.23v38.45Zm-76.6-32.68l28.3,16.34-28.3,16.34v-32.68Zm-10,38.45l-33.3,19.23v-88.45l33.3-19.23v88.45Zm96.6-44.23l33.3-19.23v38.45l-33.3,19.23v-38.45Zm-173.21-44.23l33.3,19.23v138.45l-33.3-19.23v-138.45Zm43.3,125l33.3,19.23v38.45l-33.3-19.23v-38.45Zm43.3,19.23l84.05-48.53s.02-.01.03-.02l35.82-20.68v38.45l-119.9,69.23v-38.45Z"/>
</svg>