<?xml version="1.0" encoding="UTF-8"?>
<svg id="Layer_1" data-name="Layer 1" xmlns="http://www.w3.org/2000/svg" xmlns:xlink="http://www.w3.org/1999/xlink" viewBox="0 0 502.29 560.14">
  <defs>
    <style>
      .cls-1, .cls-2 {
        fill: none;
      }

      .cls-3 {
        font-family: Aleo-Medium, Aleo;
        font-size: 25.51px;
        font-variation-settings: 'wght' 500;
        font-weight: 500;
      }

      .cls-3, .cls-4 {
        fill: #471b52;
      }

      .cls-5 {
        fill: #e65e03;
        opacity: .6;
      }

      .cls-2 {
        clip-path: url(#clippath);
      }

      .cls-6 {
        fill: url(#linear-gradient);
      }

      .cls-7 {
        fill: #fff;
        font-family: Aleo-Black, Aleo;
        font-size: 425.2px;
        font-variation-settings: 'wght' 900;
        font-weight: 800;
        opacity: .7;
      }

      .cls-4 {
        font-family: AlanSans-Light, 'Alan Sans';
        font-size: 17.01px;
        font-variation-settings: 'wght' 300;
        font-weight: 300;
      }
    </style>
    <linearGradient id="linear-gradient" x1="121.91" y1="-35.37" x2="344.19" y2="575.37" gradientUnits="userSpaceOnUse">
      <stop offset="0" stop-color="#e65e03" stop-opacity="0"/>
      <stop offset="1" stop-color="#e65e03"/>
    </linearGradient>
    <clipPath id="clippath">
      <rect class="cls-1" x=".05" width="466" height="540" rx="30" ry="30"/>
    </clipPath>
  </defs>
  <rect class="cls-6" x=".05" width="466" height="540" rx="30" ry="30"/>
  <g class="cls-2">
    <text class="cls-7" transform="translate(0 417.69)"><tspan x="0" y="0">02</tspan></text>
  </g>
  <text class="cls-3" transform="translate(16.84 58.55)"><tspan x="0" y="0">Engage</tspan><tspan x="0" y="30.61">&amp; Support</tspan></text>
  <text class="cls-4" transform="translate(17.64 450.2)"><tspan x="0" y="0">Answer FAQs, handle complaints, provide order </tspan><tspan x="0" y="20.41">updates, book appointments. All automatically, all in </tspan><tspan x="0" y="40.82">your brand&apos;s voice, all without hiring another support </tspan><tspan x="0" y="61.23">rep.</tspan></text>
  <path class="cls-5" d="m367.95,245c0-.06-.01-.11-.02-.16,0-.11,0-.21-.02-.31-.01-.11-.03-.23-.05-.34-.02-.11-.04-.22-.06-.33-.02-.09-.05-.18-.07-.28-.03-.11-.07-.21-.11-.32-.04-.11-.08-.22-.13-.32-.04-.1-.09-.19-.14-.28-.03-.05-.04-.1-.07-.15-.03-.05-.07-.09-.1-.13-.06-.09-.11-.18-.17-.26-.07-.09-.14-.18-.21-.27-.07-.09-.15-.18-.22-.26-.07-.07-.13-.14-.2-.2-.08-.08-.17-.15-.25-.22-.09-.08-.18-.15-.28-.22-.09-.06-.17-.11-.26-.17-.05-.03-.08-.07-.13-.1l-40.8-23.56v-47.11c0-.06-.01-.11-.02-.16,0-.11,0-.21-.02-.31-.01-.11-.03-.23-.05-.34-.02-.11-.04-.22-.06-.33-.02-.09-.05-.18-.07-.28-.03-.11-.07-.21-.11-.32-.04-.11-.08-.22-.13-.32-.04-.1-.09-.19-.14-.28-.03-.05-.04-.1-.07-.15s-.07-.09-.1-.13c-.06-.09-.11-.18-.17-.26-.07-.09-.14-.18-.21-.27-.07-.09-.15-.18-.22-.26-.07-.07-.13-.14-.2-.2-.08-.08-.17-.15-.26-.22-.09-.07-.18-.15-.27-.22-.09-.06-.17-.12-.26-.17-.05-.03-.08-.07-.13-.1l-43.3-25s-.1-.04-.15-.07c-.16-.09-.33-.15-.49-.22-.14-.06-.28-.12-.43-.16-.16-.05-.31-.08-.47-.11-.16-.03-.32-.06-.48-.08-.16-.02-.32-.01-.48-.01-.16,0-.32,0-.48.01-.16.02-.32.05-.48.08-.16.03-.32.06-.48.11-.14.04-.28.1-.42.16-.17.07-.34.14-.5.22-.05.03-.1.04-.15.07l-40.8,23.56-40.8-23.56s-.1-.04-.15-.07c-.16-.08-.32-.15-.48-.22-.15-.06-.29-.12-.44-.16-.15-.05-.3-.07-.46-.1-.16-.03-.33-.07-.49-.08-.15-.01-.31-.01-.46-.01-.16,0-.33,0-.49.01-.16.02-.31.05-.47.08-.16.03-.32.06-.48.11-.14.04-.28.1-.42.16-.17.07-.33.14-.5.22-.05.03-.1.04-.15.07l-43.3,25s-.09.07-.13.1c-.09.06-.18.11-.26.17-.09.07-.18.14-.27.21-.09.07-.17.14-.26.22-.07.07-.14.13-.2.2-.08.08-.15.17-.22.26-.07.09-.15.18-.21.27-.06.09-.12.17-.17.26-.03.05-.07.08-.1.13-.03.05-.04.1-.07.15-.05.09-.1.19-.14.28-.05.1-.09.21-.13.32-.04.11-.08.21-.11.32-.03.09-.05.18-.07.28-.03.11-.05.22-.06.33-.02.11-.04.23-.05.34-.01.1-.01.21-.02.31,0,.06-.02.11-.02.16v47.11l-40.8,23.56s-.09.07-.13.1c-.09.06-.18.11-.26.17-.1.07-.18.14-.28.22-.09.07-.17.14-.26.22-.07.07-.13.13-.2.2-.08.08-.15.17-.22.26-.07.09-.15.18-.21.27-.06.09-.12.17-.17.26-.03.05-.07.09-.1.13-.03.05-.04.1-.07.15-.05.09-.1.19-.14.28-.05.1-.09.21-.13.32-.04.11-.08.21-.11.32-.03.09-.05.18-.07.28-.03.11-.05.22-.06.33-.02.11-.04.23-.05.34-.01.1-.01.21-.02.31,0,.06-.02.11-.02.16v50c0,.06.01.11.02.16,0,.18.03.36.05.54.02.15.04.31.08.45.04.16.09.31.14.46.05.15.1.31.17.46.07.15.15.28.23.42.08.14.16.28.25.41.09.13.2.25.31.37.11.12.21.24.33.36.11.1.23.2.35.29.14.11.28.22.44.32.05.03.08.07.13.1l40.8,23.56v47.11c0,.06.01.11.02.16,0,.18.03.36.05.54.02.15.04.31.08.45.04.16.09.31.14.46.05.15.1.31.17.46.07.15.15.28.23.42.08.14.16.28.25.41.09.13.2.25.31.37.11.12.21.24.33.36.11.1.23.2.35.29.14.11.28.22.44.32.05.03.08.07.13.1l43.3,25s0,0,.01,0c.14.08.29.15.44.22,0,0,0,0,.01,0,.04.02.07.04.11.05.01,0,.02.01.04.02.06.03.13.04.19.07.2.07.4.13.6.18.06.01.13.03.19.04.3.05.6.09.9.09,0,0,0,0,0,0s0,0,0,0c.3,0,.6-.04.9-.09.06-.01.13-.02.19-.04.23-.05.46-.12.68-.2.04-.01.08-.02.11-.04.01,0,.03-.01.04-.02.04-.02.07-.04.11-.05.02,0,.04-.02.05-.03.14-.06.27-.12.4-.2,0,0,0,0,.01,0l40.8-23.56,40.8,23.56s0,0,.01,0c.14.08.29.15.44.22,0,0,0,0,.01,0,.04.02.07.04.11.05.01,0,.02.01.04.02.06.03.13.04.2.07.2.07.4.13.6.18.06.01.13.03.19.04.3.05.6.09.9.09,0,0,0,0,0,0s0,0,0,0c.3,0,.6-.04.9-.09.06-.01.13-.02.19-.04.22-.05.44-.11.65-.19.05-.02.09-.03.14-.05.01,0,.02-.01.04-.02.04-.02.07-.04.11-.05.01,0,.03-.01.04-.02.14-.06.28-.13.41-.2,0,0,0,0,.01,0l43.3-25s.09-.07.13-.1c.15-.1.3-.2.44-.32.12-.09.24-.19.35-.29.12-.11.22-.23.33-.36.11-.12.21-.24.31-.37.09-.13.17-.27.25-.41.08-.14.16-.27.23-.42.07-.15.12-.3.17-.46.05-.15.11-.3.14-.46.04-.15.05-.3.08-.45.03-.18.05-.36.05-.54,0-.06.02-.11.02-.16v-47.11l40.8-23.56s.09-.07.13-.1c.15-.1.3-.2.44-.32.12-.09.24-.19.35-.29.12-.11.22-.23.33-.36.11-.12.21-.24.31-.37.09-.13.17-.27.25-.41.08-.14.16-.27.23-.42.07-.15.12-.3.17-.46.05-.15.11-.3.14-.46.04-.15.05-.3.08-.45.03-.18.05-.36.05-.54,0-.06.02-.11.02-.16v-50Zm-50.8,70.67s-.09.07-.13.1c-.15.1-.3.2-.44.32-.12.09-.24.19-.35.29-.12.11-.22.23-.33.36-.11.12-.21.24-.31.37-.09.13-.17.27-.25.41-.08.14-.16.27-.23.42-.07.15-.12.3-.17.46-.05.15-.11.3-.14.46-.04.15-.05.3-.08.45-.03.18-.05.36-.05.54,0,.06-.02.11-.02.16v47.11l-33.3,19.23v-41.34c0-.1-.02-.18-.03-.28,0-.18-.02-.36-.05-.54-.03-.16-.06-.32-.11-.47-.04-.15-.09-.31-.14-.46-.06-.17-.14-.34-.22-.5-.04-.08-.07-.17-.11-.25-.03-.05-.07-.09-.1-.13-.1-.15-.2-.29-.31-.44-.1-.12-.19-.25-.29-.36-.11-.12-.23-.22-.35-.32-.13-.11-.25-.22-.38-.32-.12-.09-.26-.16-.39-.24-.15-.08-.29-.17-.44-.24-.14-.06-.28-.11-.43-.16-.16-.06-.33-.11-.49-.15-.14-.03-.28-.05-.42-.07-.19-.03-.38-.05-.57-.06-.05,0-.1-.02-.15-.02-.09,0-.17.02-.26.03-.19,0-.38.03-.58.06-.15.03-.3.06-.44.1-.16.04-.32.09-.48.15-.17.06-.33.14-.49.22-.08.04-.17.07-.26.12l-35.8,20.67v-38.45l40.76-23.53s.01,0,.02,0l.03-.02s.02-.02.03-.02c.05-.03.11-.07.16-.1.06-.04.12-.07.17-.11.13-.09.25-.18.37-.28.05-.04.1-.09.15-.13.05-.04.1-.08.15-.13.01-.01.03-.03.04-.04.14-.14.28-.3.4-.46.03-.04.05-.08.08-.12,0,0,.01-.02.02-.03.05-.07.09-.14.14-.21.04-.06.09-.12.12-.18.03-.05.04-.1.07-.15.05-.09.1-.18.14-.28.05-.11.09-.21.13-.32.04-.11.08-.21.11-.32.03-.09.05-.18.07-.28.03-.11.05-.22.06-.33.02-.11.04-.23.05-.34.01-.1.01-.21.02-.31,0-.06.02-.11.02-.16v-47.11l33.3-19.23v41.34c0,.1.02.18.03.28,0,.18.02.36.05.54.03.16.06.32.11.47.04.15.09.31.14.46.06.17.14.34.22.5.04.08.07.17.11.25.04.06.08.12.12.18.04.07.09.14.14.21.16.22.32.43.51.62.01.01.02.03.03.04.21.21.43.39.67.55.05.04.11.07.17.11.21.14.43.26.66.36.04.02.08.04.12.06.26.11.53.19.81.25.07.02.14.03.21.04.3.05.59.09.9.09s.6-.04.9-.09c.06-.01.13-.02.19-.04.28-.06.56-.14.83-.26.04-.02.07-.04.11-.05.16-.07.31-.14.47-.23l35.8-20.67v38.45l-40.8,23.56Zm-124.9,25c-.08-.05-.17-.07-.26-.12-.16-.08-.32-.16-.49-.22-.15-.06-.31-.1-.47-.15-.15-.04-.3-.08-.46-.1-.18-.03-.37-.05-.55-.06-.09,0-.18-.03-.27-.03-.05,0-.1.01-.16.02-.19,0-.37.03-.55.06-.15.02-.3.04-.44.07-.16.04-.32.09-.47.15-.15.05-.3.1-.45.17-.15.07-.28.15-.43.23-.14.08-.27.16-.4.25-.13.09-.25.2-.38.31-.12.11-.24.21-.35.33-.1.11-.2.23-.29.35-.11.14-.22.28-.32.44-.03.05-.07.08-.1.13-.05.08-.07.17-.11.25-.08.16-.16.32-.22.5-.06.15-.1.3-.14.46-.04.16-.08.31-.11.47-.03.18-.04.36-.05.54,0,.09-.03.18-.03.28v41.34l-33.3-19.23v-47.11c0-.06-.01-.11-.02-.16,0-.18-.03-.36-.05-.54-.02-.15-.04-.31-.08-.45-.04-.16-.09-.31-.14-.46-.05-.15-.1-.31-.17-.46-.07-.15-.15-.28-.23-.42-.08-.14-.16-.28-.25-.41-.09-.13-.2-.25-.31-.37-.11-.12-.21-.24-.33-.36-.11-.1-.23-.2-.35-.29-.14-.11-.28-.22-.44-.32-.05-.03-.08-.07-.13-.1l-40.8-23.56v-38.45l35.8,20.67c.15.09.31.16.47.23.04.02.07.04.11.05.27.11.55.19.83.26.06.01.13.03.19.04.3.05.6.09.9.09s.6-.04.89-.09c.07-.01.14-.03.21-.04.28-.06.55-.14.81-.25.04-.02.08-.04.13-.06.23-.1.44-.22.65-.35.06-.04.12-.07.17-.11.23-.16.46-.34.66-.55.01-.01.02-.03.04-.04.18-.19.35-.39.5-.61.05-.07.09-.14.14-.21.04-.06.09-.12.12-.18.05-.08.07-.17.11-.25.08-.16.16-.32.22-.5.06-.15.1-.3.14-.46.04-.16.08-.31.11-.47.03-.18.04-.36.05-.54,0-.09.03-.18.03-.28v-41.34l33.3,19.23v47.11c0,.06.01.11.02.16,0,.11,0,.21.02.31.01.11.03.23.05.34.02.11.04.22.06.33.02.09.05.18.07.28.03.11.07.21.11.32.04.11.08.22.13.32.04.1.09.19.14.28.03.05.04.1.07.15.04.06.08.12.12.18.04.07.09.14.14.21,0,0,.01.02.02.03.03.04.05.08.08.12.13.17.26.32.41.47.01.01.02.03.03.04.05.05.1.09.15.13.05.04.1.09.15.13.12.1.24.2.37.29.05.04.11.07.17.11.06.04.11.08.17.11.01,0,.02.01.03.02h.02s.02.02.02.03l40.75,23.53v38.45l-35.8-20.67Zm-.05-141.31s.01,0,.02-.01l.03-.02s.02-.02.03-.02c.25-.14.48-.32.7-.5.05-.04.1-.08.15-.13.21-.19.41-.4.59-.64.03-.04.05-.08.08-.12.1-.14.2-.27.28-.42.03-.05.04-.1.07-.15.09-.16.15-.32.22-.49.06-.14.12-.28.16-.43.05-.16.08-.31.11-.47.03-.16.07-.32.08-.48.02-.16.01-.32.01-.48,0-.16,0-.32-.01-.48-.02-.16-.05-.32-.08-.48-.03-.16-.06-.32-.11-.47-.04-.15-.1-.29-.16-.43-.07-.17-.14-.33-.22-.49-.03-.05-.04-.1-.07-.15-.05-.08-.11-.15-.16-.23-.1-.15-.2-.3-.32-.44-.1-.13-.21-.24-.33-.35-.11-.11-.23-.23-.36-.33-.14-.12-.29-.22-.44-.32-.08-.05-.15-.12-.23-.17l-35.8-20.67,33.3-19.23,40.8,23.56s0,0,.01,0c.14.08.29.15.44.22.05.02.11.05.16.08.07.03.14.05.22.07.55.19,1.11.3,1.67.3,0,0,0,0,0,0s0,0,0,0c.56,0,1.13-.1,1.67-.3.07-.02.14-.04.21-.07.05-.02.11-.05.16-.08.15-.07.3-.14.44-.22,0,0,0,0,.01,0l40.8-23.56,33.3,19.23-35.8,20.67c-.08.05-.14.11-.22.16-.16.1-.31.21-.45.33-.12.1-.23.21-.34.32-.12.12-.23.23-.33.36-.12.14-.22.29-.31.44-.05.08-.12.15-.16.23-.03.05-.04.1-.07.15-.09.16-.15.32-.22.49-.06.14-.12.28-.16.43-.05.16-.08.31-.11.47-.03.16-.07.32-.08.48-.02.16-.01.32-.01.48,0,.16,0,.32.01.48.02.16.05.32.08.48.03.16.06.32.11.47.04.15.1.29.16.43.07.17.14.33.22.49.03.05.04.1.07.15.09.15.18.28.28.42.03.04.05.08.08.12.18.23.38.44.59.64.05.04.1.09.15.13.22.19.45.36.7.51.01,0,.02.01.03.02h.02s.01.02.02.03l35.76,20.64-33.3,19.23-40.8-23.56s-.1-.04-.15-.07c-.09-.05-.19-.1-.28-.14-.1-.05-.21-.09-.32-.13-.11-.04-.21-.08-.32-.11-.09-.03-.18-.05-.27-.07-.11-.03-.22-.05-.33-.06-.12-.02-.23-.04-.34-.05-.1-.01-.21-.01-.31-.02-.06,0-.11-.02-.16-.02s-.11.01-.16.02c-.11,0-.21,0-.32.02-.11.01-.23.03-.34.05-.11.02-.22.04-.33.06-.09.02-.19.05-.28.07-.11.03-.21.07-.32.11-.11.04-.22.08-.32.13-.1.04-.19.09-.28.14-.05.03-.1.04-.15.07l-40.8,23.56-33.3-19.23,35.76-20.64Zm40.85,114.87l-33.3-19.23,33.3-19.23,33.3,19.23-33.3,19.23Zm38.3-27.89l-33.3-19.23v-38.45l33.3,19.23v38.45Zm-43.3-19.23l-33.3,19.23v-38.45l33.3-19.23v38.45Zm124.9-22.11l-28.3,16.34v-32.68l28.3,16.34Zm-66.6-50l28.3-16.34v32.68l-28.3-16.34Zm-134.9-16.34l28.3,16.34-28.3,16.34v-32.68Zm-10,82.68l-28.3-16.34,28.3-16.34v32.68Zm53.3,125v-32.68l28.3,16.34-28.3,16.34Zm76.6-32.68v32.68l-28.3-16.34,28.3-16.34Z"/>
</svg>