<?xml version="1.0" encoding="UTF-8"?>
<svg id="Layer_1" data-name="Layer 1" xmlns="http://www.w3.org/2000/svg" xmlns:xlink="http://www.w3.org/1999/xlink" viewBox="0 0 466 540">
  <defs>
    <style>
      .cls-1 {
        fill: #fff;
      }

      .cls-2 {
        opacity: .7;
      }

      .cls-2, .cls-3, .cls-4 {
        fill: none;
      }

      .cls-5 {
        fill: #471b52;
      }

      .cls-6 {
        fill: #e65e03;
        opacity: .6;
      }

      .cls-4 {
        clip-path: url(#clippath);
      }

      .cls-7 {
        fill: url(#linear-gradient);
      }
    </style>
    <linearGradient id="linear-gradient" x1="121.86" y1="-35.37" x2="344.14" y2="575.37" gradientUnits="userSpaceOnUse">
      <stop offset="0" stop-color="#e65e03" stop-opacity="0"/>
      <stop offset="1" stop-color="#e65e03"/>
    </linearGradient>
    <clipPath id="clippath">
      <rect class="cls-3" width="466" height="540" rx="30" ry="30"/>
    </clipPath>
  </defs>
  <rect class="cls-7" x="0" width="466" height="540" rx="30" ry="30"/>
  <g class="cls-4">
    <g class="cls-2">
      <path class="cls-1" d="m237.61,262.5c0,27.21-2.93,50.75-8.78,70.58-5.85,19.84-13.92,36.29-24.19,49.32-10.28,13.04-22.55,22.75-36.83,29.13-14.28,6.38-29.69,9.57-46.25,9.57s-31.83-3.19-45.82-9.57c-13.99-6.38-26.12-16.08-36.4-29.13-10.28-13.04-18.35-29.48-24.19-49.32-5.85-19.84-8.78-43.37-8.78-70.58s2.92-50.31,8.78-70.16c5.85-19.84,13.92-36.28,24.19-49.32,10.28-13.04,22.41-22.75,36.4-29.13,13.98-6.38,29.26-9.57,45.82-9.57s31.97,3.19,46.25,9.57c14.27,6.38,26.55,16.09,36.83,29.13,10.28,13.04,18.34,29.48,24.19,49.32,5.85,19.84,8.78,43.23,8.78,70.16Zm-68.51.43c0-21.54-1.36-39.18-4.07-52.94-2.72-13.75-6.21-24.59-10.49-32.53-4.57-7.65-9.71-12.9-15.42-15.73-5.71-2.83-11.56-4.25-17.56-4.25s-11.42,1.42-17.13,4.25c-5.71,2.84-10.71,8.23-14.99,16.16-4.28,7.65-7.78,18.36-10.49,32.1-2.72,13.75-4.07,31.4-4.07,52.94s1.35,38.69,4.07,52.3c2.71,13.61,6.21,24.38,10.49,32.32,4.28,7.94,9.27,13.33,14.99,16.16,5.71,2.84,11.56,4.25,17.56,4.25s11.41-1.42,17.13-4.25c5.71-2.83,10.85-8.22,15.42-16.16,4.28-7.93,7.77-18.71,10.49-32.32,2.71-13.61,4.07-31.04,4.07-52.3Z"/>
      <path class="cls-1" d="m262.87,417.69v-21.26c0-4.25.86-8.72,2.57-13.39,1.71-4.68,4.71-8.86,8.99-12.54l89.92-90.14c9.42-9.63,17.48-18.85,24.19-27.64,6.7-8.78,11.92-17.79,15.63-27,3.71-9.21,5.57-18.92,5.57-29.13,0-8.5-1.28-15.59-3.85-21.26-2.57-5.67-6.5-9.92-11.78-12.76-5.29-2.83-12.06-4.25-20.34-4.25-9.14,0-17.13,2.55-23.98,7.65s-11.85,11.48-14.99,19.13c-2.29,6.52-5.14,11.2-8.56,14.03-3.43,2.84-8.14,4.25-14.13,4.25-2.86,0-7.35-.49-13.49-1.49-6.14-.99-16.63-2.9-31.47-5.74,4.56-30.04,16.91-52.86,37.04-68.46,20.13-15.59,44.6-23.39,73.44-23.39,20.27,0,37.9,3.76,52.88,11.27,14.99,7.51,26.62,18,34.9,31.46,8.28,13.47,12.42,29.27,12.42,47.41,0,14.74-2.78,28.28-8.35,40.61s-12.92,23.96-22.05,34.87c-9.14,10.92-19.27,22.04-30.4,33.38l-60.81,62.08c7.71-2.27,15.42-4.04,23.12-5.32,7.71-1.28,14.84-1.91,21.41-1.91h81.36v59.53h-219.24Zm173-47.2l6-28.91c1.14-5.1,2.92-9.14,5.35-12.12,2.42-2.98,6.06-4.46,10.92-4.46h23.98v33.17l-46.25,12.33Z"/>
    </g>
  </g>
  <g>
    <path class="cls-5" d="m20.18,40.2l-.28,2.17-1.8-.38c-.17-.03-.3-.1-.39-.2-.09-.1-.13-.24-.13-.41v-1.17h2.6Zm-2.6,18.34v-1.17c0-.17.04-.31.13-.41.09-.1.21-.17.39-.2l1.77-.38.31,2.17h-2.6Zm1.88,0v-18.34h11.46v2.25h-8.63v5.79h6.6v2.14h-6.6v5.92h8.63v2.25h-11.46Zm9.25-16.74l2.21.64v2.3h-1.21c-.17,0-.31-.04-.41-.13-.1-.08-.17-.21-.21-.38l-.39-2.42Zm0,15.13l.39-2.42c.03-.17.1-.3.21-.38.1-.08.24-.13.41-.13h1.21v2.3l-2.21.64Z"/>
    <path class="cls-5" d="m35.34,45.56l-.31,2.17-1.77-.38c-.17-.03-.3-.1-.39-.2-.09-.1-.13-.24-.13-.41v-1.17h2.6Zm-2.6,12.99v-1.17c0-.17.04-.31.13-.41.09-.1.21-.17.39-.2l1.77-.38.31,2.17h-2.6Zm1.88,0v-12.99h1.54c.36,0,.58.17.67.51l.18,1.3c.57-.61,1.19-1.1,1.88-1.47.69-.37,1.48-.55,2.39-.55.96,0,1.76.2,2.4.61.64.41,1.13.99,1.48,1.73.34.75.51,1.61.51,2.58v8.27h-2.59v-8.27c0-.92-.21-1.63-.63-2.14-.42-.51-1.07-.76-1.94-.76-.63,0-1.23.15-1.79.45s-1.07.71-1.53,1.24v9.49h-2.57Zm1.82,0l.31-2.17,1.8.38c.15.03.27.1.36.2.09.1.13.24.13.41v1.17h-2.6Zm8.48,0l.31-2.17,1.8.38c.15.03.27.1.36.2.09.1.13.24.13.41v1.17h-2.59Z"/>
    <path class="cls-5" d="m53.89,45.36c.57,0,1.09.06,1.58.18s.94.29,1.35.51h3.6v.94c0,.15-.04.28-.13.38-.09.1-.24.17-.46.2l-1.36.2c.26.54.39,1.13.39,1.76,0,.85-.22,1.59-.66,2.21-.44.62-1.03,1.11-1.79,1.45-.75.35-1.59.52-2.52.52-.29,0-.57-.02-.85-.05-.27-.03-.54-.08-.8-.13-.26.15-.45.32-.58.5s-.19.35-.19.52c0,.31.13.53.4.68.27.14.62.24,1.05.29.44.05.91.09,1.41.1.5.02.99.04,1.45.08.79.07,1.51.19,2.16.37.65.18,1.18.48,1.58.89.4.42.6,1.03.6,1.82s-.27,1.56-.81,2.22-1.28,1.19-2.21,1.58c-.93.39-1.99.59-3.17.59s-2.15-.15-3.02-.43c-.87-.29-1.54-.69-2.02-1.2-.48-.51-.72-1.11-.72-1.79s.2-1.19.6-1.63.95-.78,1.63-1.02c-.36-.19-.65-.42-.86-.71-.21-.29-.32-.67-.32-1.15,0-.39.15-.79.46-1.21.31-.42.72-.75,1.23-1.01-.65-.36-1.16-.83-1.53-1.43-.37-.59-.55-1.28-.55-2.07,0-.88.22-1.64.66-2.26.44-.62,1.04-1.1,1.8-1.43.76-.33,1.62-.5,2.58-.5Zm3.85,13.85c0-.46-.19-.79-.58-.98-.39-.2-.84-.33-1.37-.39-.19-.03-.45-.06-.77-.08-.33-.02-.69-.04-1.08-.06s-.77-.05-1.13-.09c-.36-.03-.65-.06-.87-.08-.45.22-.81.48-1.09.79-.28.31-.42.68-.42,1.12,0,.39.15.74.44,1.03.29.3.71.52,1.25.66.54.14,1.16.22,1.86.22s1.39-.08,1.95-.24c.57-.16,1.01-.4,1.34-.71.33-.31.49-.71.49-1.19Zm-3.85-7.17c.84,0,1.49-.22,1.95-.68.46-.45.69-1.04.69-1.77s-.22-1.32-.67-1.76c-.45-.44-1.1-.66-1.98-.66s-1.56.22-2,.66c-.45.44-.67,1.03-.67,1.76s.23,1.32.69,1.77c.46.45,1.12.68,1.98.68Z"/>
    <path class="cls-5" d="m65.51,58.75c-.7,0-1.34-.13-1.9-.4-.56-.26-1.01-.65-1.34-1.17-.33-.52-.49-1.15-.49-1.9,0-.51.14-1,.42-1.48.28-.48.73-.9,1.35-1.28.63-.36,1.46-.66,2.47-.91,1.01-.25,2.26-.39,3.75-.42v-.92c0-.97-.21-1.7-.63-2.18-.42-.48-1.02-.73-1.81-.73-.46,0-.93.11-1.4.33-.47.22-.9.44-1.3.65-.39.21-.72.32-.98.32-.19,0-.34-.05-.46-.14-.12-.09-.22-.2-.31-.32l-.46-.82c.74-.7,1.53-1.22,2.39-1.56.86-.34,1.8-.51,2.83-.51s1.83.2,2.52.61,1.21.99,1.58,1.73c.37.75.55,1.62.55,2.6v8.27h-1.16c-.24,0-.43-.04-.58-.12-.15-.08-.25-.23-.32-.47l-.26-1.12c-.69.61-1.37,1.08-2.04,1.42-.68.33-1.49.5-2.43.5Zm.77-1.79c.72,0,1.35-.14,1.9-.42.55-.28,1.08-.68,1.59-1.21v-2.53c-.86.02-1.62.08-2.3.18-.68.1-1.25.25-1.73.43-.48.19-.84.42-1.09.7-.25.28-.37.63-.37,1.03,0,.65.19,1.11.57,1.39.38.28.86.42,1.44.42Zm5.27,1.58l.31-2.17,1.8.38c.15.03.28.1.37.2.09.1.14.24.14.41v1.17h-2.62Z"/>
    <path class="cls-5" d="m80.51,45.36c.57,0,1.09.06,1.58.18s.94.29,1.35.51h3.6v.94c0,.15-.04.28-.13.38-.09.1-.24.17-.46.2l-1.36.2c.26.54.39,1.13.39,1.76,0,.85-.22,1.59-.66,2.21-.44.62-1.03,1.11-1.79,1.45-.75.35-1.59.52-2.52.52-.29,0-.57-.02-.85-.05-.27-.03-.54-.08-.8-.13-.26.15-.45.32-.58.5s-.19.35-.19.52c0,.31.13.53.4.68.27.14.62.24,1.05.29.44.05.91.09,1.41.1.5.02.99.04,1.45.08.79.07,1.51.19,2.16.37.65.18,1.18.48,1.58.89.4.42.6,1.03.6,1.82s-.27,1.56-.81,2.22-1.28,1.19-2.21,1.58c-.93.39-1.99.59-3.17.59s-2.15-.15-3.02-.43c-.87-.29-1.54-.69-2.02-1.2-.48-.51-.72-1.11-.72-1.79s.2-1.19.6-1.63.95-.78,1.63-1.02c-.36-.19-.65-.42-.86-.71-.21-.29-.32-.67-.32-1.15,0-.39.15-.79.46-1.21.31-.42.72-.75,1.23-1.01-.65-.36-1.16-.83-1.53-1.43-.37-.59-.55-1.28-.55-2.07,0-.88.22-1.64.66-2.26.44-.62,1.04-1.1,1.8-1.43.76-.33,1.62-.5,2.58-.5Zm3.85,13.85c0-.46-.19-.79-.58-.98-.39-.2-.84-.33-1.37-.39-.19-.03-.45-.06-.77-.08-.33-.02-.69-.04-1.08-.06s-.77-.05-1.13-.09c-.36-.03-.65-.06-.87-.08-.45.22-.81.48-1.09.79-.28.31-.42.68-.42,1.12,0,.39.15.74.44,1.03.29.3.71.52,1.25.66.54.14,1.16.22,1.86.22s1.39-.08,1.95-.24c.57-.16,1.01-.4,1.34-.71.33-.31.49-.71.49-1.19Zm-3.85-7.17c.84,0,1.49-.22,1.95-.68.46-.45.69-1.04.69-1.77s-.22-1.32-.67-1.76c-.45-.44-1.1-.66-1.98-.66s-1.56.22-2,.66c-.45.44-.67,1.03-.67,1.76s.23,1.32.69,1.77c.46.45,1.12.68,1.98.68Z"/>
    <path class="cls-5" d="m94.67,58.73c-1.27,0-2.38-.29-3.33-.85-.95-.57-1.69-1.37-2.21-2.41-.52-1.04-.78-2.26-.78-3.67,0-1.21.25-2.3.76-3.28.51-.98,1.22-1.75,2.16-2.31s2.03-.84,3.28-.84c1.1,0,2.06.24,2.88.71.82.48,1.46,1.15,1.93,2.02s.69,1.91.69,3.11c0,.39-.04.66-.13.79-.09.14-.26.2-.51.2h-8.48v.31c.1,1.36.5,2.41,1.18,3.14s1.61,1.1,2.77,1.1c.51,0,1.02-.1,1.53-.31.5-.2.96-.4,1.36-.6.4-.2.7-.29.89-.29.21,0,.37.07.49.2l.72.94c-.38.48-.86.87-1.44,1.17-.58.31-1.2.53-1.85.66s-1.28.2-1.9.2Zm-3.67-8.11h6.73c0-.99-.27-1.8-.82-2.44-.55-.64-1.32-.96-2.31-.96-1.06,0-1.89.3-2.49.89-.6.6-.97,1.43-1.1,2.5Z"/>
    <path class="cls-5" d="m23.19,89.37c-.94,0-1.85-.22-2.71-.65-.87-.43-1.56-1.03-2.09-1.8s-.8-1.67-.8-2.7c0-.78.18-1.51.53-2.18.35-.67.82-1.27,1.41-1.8s1.26-.95,2.02-1.28c-.5-.65-.86-1.28-1.1-1.89-.24-.61-.36-1.24-.36-1.89,0-.88.21-1.67.63-2.35.42-.68,1.01-1.22,1.76-1.62.75-.4,1.64-.6,2.65-.6.89,0,1.68.18,2.38.54.69.36,1.25.84,1.68,1.44.43.6.67,1.27.72,2l-1.75.33c-.14.02-.26-.01-.36-.09-.1-.08-.18-.19-.23-.34-.07-.34-.21-.65-.44-.93-.22-.28-.5-.51-.83-.7s-.72-.28-1.17-.28c-.79,0-1.43.24-1.91.73-.49.48-.73,1.1-.73,1.85,0,.56.15,1.11.46,1.66.31.54.74,1.1,1.28,1.66l5.19,5.26c.31-.56.55-1.15.73-1.76.18-.61.3-1.23.37-1.86.02-.17.07-.3.17-.4.09-.09.23-.14.4-.14h1.59c-.02,1-.18,1.99-.48,2.96-.3.97-.74,1.87-1.32,2.7l3.88,3.93h-2.52c-.26,0-.47-.03-.64-.1-.17-.07-.36-.2-.56-.41l-1.67-1.68c-.81.75-1.73,1.34-2.76,1.76-1.04.42-2.17.64-3.4.64Zm.46-2.07c.89,0,1.69-.16,2.4-.47.71-.31,1.35-.74,1.91-1.26l-5.27-5.28c-.55.31-1.01.65-1.37,1.05-.37.39-.64.81-.82,1.26-.18.45-.27.93-.27,1.44,0,.66.16,1.24.48,1.73.32.49.74.87,1.26,1.14.52.26,1.08.4,1.68.4Z"/>
    <path class="cls-5" d="m48.32,89.37c-.67,0-1.34-.05-2-.15-.67-.1-1.29-.23-1.88-.38-.58-.15-1.07-.3-1.46-.43v-2.35l1.88.28c.72.29,1.35.49,1.89.59.54.1,1.13.15,1.79.15.72,0,1.34-.13,1.86-.38s.93-.61,1.22-1.07c.29-.46.44-1,.44-1.61,0-.56-.12-1.02-.37-1.38-.25-.36-.59-.65-1.01-.87-.43-.22-.9-.41-1.41-.57-.51-.16-1.04-.33-1.59-.5-.72-.25-1.41-.57-2.08-.93-.67-.37-1.21-.85-1.63-1.47-.42-.61-.63-1.43-.63-2.45s.24-1.9.73-2.69c.49-.79,1.17-1.41,2.04-1.86.87-.45,1.9-.68,3.08-.68.79,0,1.64.1,2.54.31s1.76.49,2.54.87v1.91l-1.93-.25c-.55-.17-1.09-.3-1.63-.4s-1.05-.14-1.53-.14c-.99,0-1.78.24-2.36.73-.58.49-.87,1.12-.87,1.9,0,.68.22,1.21.66,1.58.44.38.99.68,1.66.91s1.35.47,2.06.73c.81.27,1.54.6,2.2.97.66.37,1.19.87,1.59,1.48s.6,1.42.6,2.42c0,1.09-.26,2.07-.77,2.93-.51.87-1.24,1.55-2.18,2.05-.94.5-2.08.75-3.42.75Zm-3.13-2.7l-2.21-.61v-2.3h1.23c.15,0,.29.04.4.11.11.08.18.21.19.4l.39,2.4Zm6.86-13.57l2.21.61v2.32h-1.23c-.15,0-.28-.04-.39-.13-.1-.08-.17-.21-.21-.38l-.39-2.42Z"/>
    <path class="cls-5" d="m58.57,76.18l-.31,2.17-1.8-.38c-.15-.03-.28-.1-.37-.2-.09-.1-.14-.24-.14-.41v-1.17h2.62Zm3.65,13.19c-.94,0-1.74-.21-2.39-.64-.65-.42-1.15-1-1.49-1.74-.34-.73-.51-1.58-.51-2.55v-8.27h2.57v8.27c0,.94.21,1.65.64,2.16.43.5,1.08.75,1.95.75.63,0,1.23-.14,1.79-.43.56-.29,1.07-.7,1.53-1.22v-9.52h2.57v12.99h-1.54c-.38,0-.6-.17-.67-.51l-.21-1.28c-.55.6-1.17,1.08-1.85,1.44-.69.37-1.48.55-2.39.55Zm4.83-13.19l-.31,2.17-1.8-.38c-.15-.03-.28-.1-.37-.2-.09-.1-.14-.24-.14-.41v-1.17h2.62Zm1.1,12.99l.31-2.17,1.77.38c.17.03.3.1.39.2.09.1.13.24.13.41v1.17h-2.59Z"/>
    <path class="cls-5" d="m74.42,76.18l-.31,2.17-1.77-.38c-.17-.03-.3-.1-.39-.2-.09-.1-.13-.24-.13-.41v-1.17h2.6Zm-2.6,17.35v-1.17c0-.19.04-.33.13-.43.09-.1.21-.16.39-.18l1.77-.38.31,2.17h-2.6Zm1.88,0v-17.35h1.54c.36,0,.58.17.67.51l.23,1.43c.55-.65,1.18-1.17,1.89-1.57.71-.4,1.52-.6,2.43-.6,1.06,0,1.96.27,2.69.82.73.54,1.28,1.31,1.67,2.31s.58,2.16.58,3.51c0,1.24-.23,2.38-.68,3.41-.45,1.03-1.1,1.84-1.94,2.45-.84.6-1.85.91-3.03.91-.79,0-1.46-.12-2-.37-.55-.25-1.04-.61-1.46-1.08v5.64h-2.57Zm1.82,0l.31-2.17,1.8.38c.15.02.27.08.36.18.09.1.13.25.13.43v1.17h-2.6Zm3.62-6.12c.79,0,1.44-.19,1.97-.56.52-.37.92-.92,1.19-1.65.27-.72.41-1.59.41-2.62,0-1.51-.26-2.66-.77-3.43-.51-.77-1.29-1.16-2.34-1.16-.72,0-1.34.16-1.88.47-.53.31-1.02.77-1.46,1.37v6.15c.39.51.83.88,1.31,1.1.48.22,1,.33,1.57.33Z"/>
    <path class="cls-5" d="m89.5,76.18l-.31,2.17-1.77-.38c-.17-.03-.3-.1-.39-.2-.09-.1-.13-.24-.13-.41v-1.17h2.6Zm-2.6,17.35v-1.17c0-.19.04-.33.13-.43.09-.1.21-.16.39-.18l1.77-.38.31,2.17h-2.6Zm1.88,0v-17.35h1.54c.36,0,.58.17.67.51l.23,1.43c.55-.65,1.18-1.17,1.89-1.57.71-.4,1.52-.6,2.43-.6,1.06,0,1.96.27,2.69.82.73.54,1.28,1.31,1.67,2.31s.58,2.16.58,3.51c0,1.24-.23,2.38-.68,3.41-.45,1.03-1.1,1.84-1.94,2.45-.84.6-1.85.91-3.03.91-.79,0-1.46-.12-2-.37-.55-.25-1.04-.61-1.46-1.08v5.64h-2.57Zm1.82,0l.31-2.17,1.8.38c.15.02.27.08.36.18.09.1.13.25.13.43v1.17h-2.6Zm3.62-6.12c.79,0,1.44-.19,1.97-.56.52-.37.92-.92,1.19-1.65.27-.72.41-1.59.41-2.62,0-1.51-.26-2.66-.77-3.43-.51-.77-1.29-1.16-2.34-1.16-.72,0-1.34.16-1.88.47-.53.31-1.02.77-1.46,1.37v6.15c.39.51.83.88,1.31,1.1.48.22,1,.33,1.57.33Z"/>
    <path class="cls-5" d="m108.41,75.97c1.3,0,2.42.28,3.35.83.93.55,1.65,1.33,2.16,2.33.5,1,.76,2.18.76,3.52s-.25,2.5-.76,3.51c-.51,1.01-1.23,1.79-2.16,2.35-.93.55-2.05.83-3.35.83s-2.4-.28-3.35-.83-1.69-1.33-2.21-2.35c-.52-1.01-.78-2.18-.78-3.51s.26-2.52.78-3.52c.52-1,1.26-1.78,2.21-2.33s2.07-.83,3.35-.83Zm0,11.4c1.22,0,2.12-.41,2.72-1.22.6-.82.9-1.97.9-3.47,0-1.02-.13-1.88-.4-2.58-.27-.7-.67-1.23-1.21-1.59-.54-.37-1.21-.55-2.02-.55s-1.53.19-2.08.56c-.55.38-.95.92-1.21,1.62-.26.71-.39,1.55-.39,2.54,0,1.45.3,2.59.9,3.43s1.52,1.26,2.77,1.26Z"/>
    <path class="cls-5" d="m118.82,76.18l-.31,2.17-1.77-.38c-.17-.03-.3-.1-.39-.2-.09-.1-.13-.24-.13-.41v-1.17h2.6Zm-2.6,12.99v-1.17c0-.17.04-.31.13-.41.09-.1.21-.17.39-.2l1.77-.38.31,2.17h-2.6Zm1.88,0v-12.99h1.46c.29,0,.49.05.6.15.11.1.18.28.19.54l.18,1.89c.45-.88.99-1.57,1.63-2.07.64-.49,1.4-.74,2.27-.74.34,0,.66.04.94.13.28.09.54.2.78.33l-.33,1.91c-.02.1-.07.18-.15.24-.09.06-.18.09-.28.09-.12,0-.34-.03-.67-.1-.33-.07-.62-.1-.87-.1-.75,0-1.39.21-1.9.64-.51.43-.94,1.05-1.28,1.86v8.21h-2.57Zm1.82,0l.31-2.17,1.8.38c.15.03.27.1.36.2.09.1.13.24.13.41v1.17h-2.6Z"/>
    <path class="cls-5" d="m132.15,89.37c-1.06,0-1.88-.3-2.47-.89-.58-.6-.87-1.44-.87-2.53v-7.73h-1.49c-.15,0-.28-.04-.39-.13-.1-.08-.15-.22-.15-.41v-1.02l2.13-.31.59-3.83c.05-.32.24-.48.57-.48h1.31v4.34h3.65v1.84h-3.65v7.58c0,.49.12.87.37,1.12.25.25.58.38.99.38.19,0,.38-.05.58-.14.2-.09.38-.19.55-.28.17-.09.31-.14.41-.14.12,0,.23.08.33.23l.77,1.22c-.43.36-.93.64-1.49.85-.57.21-1.15.32-1.75.32Z"/>
  </g>
  <g>
    <path class="cls-5" d="m17.9,450.2l4.45-11.02c.1-.26.23-.45.37-.57.14-.12.31-.18.49-.18.19,0,.36.06.5.18.14.12.26.31.36.57l4.42,11.02h-1.13l-4.44-11.23h.58l-4.45,11.23h-1.15Zm2.36-3.47v-.95h5.88v.95h-5.88Z"/>
    <path class="cls-5" d="m30.41,450.2v-8.5h1.03v8.5h-1.03Zm6.03,0v-5.15c0-.62-.11-1.12-.33-1.5-.22-.38-.51-.66-.87-.83-.36-.18-.75-.26-1.16-.26-.45,0-.87.1-1.28.29-.41.19-.74.49-.99.89-.26.4-.39.92-.39,1.56l-.41-1.34c.21-.55.49-1.01.85-1.35s.76-.6,1.2-.76.87-.24,1.29-.24c.55,0,1.06.12,1.53.37.47.25.85.63,1.14,1.15.29.52.43,1.18.43,1.98v5.2h-1.03Z"/>
    <path class="cls-5" d="m42.72,450.4c-.67,0-1.26-.09-1.76-.26s-.9-.38-1.18-.62v-1.04c.47.36.95.63,1.45.81s1,.26,1.52.26c.73,0,1.26-.15,1.58-.44.33-.29.49-.64.49-1.04,0-.37-.12-.67-.36-.89-.24-.22-.55-.4-.92-.54s-.78-.26-1.2-.38c-.42-.12-.82-.26-1.2-.43s-.69-.41-.92-.71c-.24-.3-.36-.69-.36-1.18,0-.44.11-.85.33-1.22.22-.37.54-.67.98-.89.44-.22.98-.33,1.64-.33.54,0,1.01.07,1.42.22.41.15.73.34.97.58.23.24.35.49.35.76,0,.15-.04.26-.11.34-.07.08-.17.12-.28.12-.16,0-.29-.06-.39-.18-.1-.12-.22-.26-.36-.41-.14-.15-.33-.29-.57-.41s-.59-.18-1.02-.18c-.69,0-1.18.15-1.49.46-.31.31-.46.65-.46,1.02s.12.65.36.86c.24.21.55.38.93.51.38.13.78.25,1.2.37s.82.27,1.2.45.69.43.92.74c.24.31.36.73.36,1.25,0,.43-.11.83-.32,1.2-.21.37-.54.66-.99.88-.45.22-1.04.32-1.77.32Z"/>
    <path class="cls-5" d="m49.59,450.2l-2.64-8.5h1.11l2.45,8.5h-.92Zm.07,0l2.69-7.91c.09-.27.2-.47.33-.6.13-.13.28-.2.46-.2s.34.07.46.2c.13.13.23.33.33.6l2.69,7.91h-.96l-2.83-8.2h.62l-2.83,8.2h-.96Zm6.1,0l2.45-8.5h1.11l-2.64,8.5h-.93Z"/>
    <path class="cls-5" d="m64.48,450.4c-1.31,0-2.34-.38-3.07-1.14-.74-.76-1.1-1.81-1.1-3.15,0-.93.18-1.74.53-2.43.35-.69.84-1.23,1.46-1.62.62-.38,1.33-.58,2.12-.58.63,0,1.18.12,1.64.35.47.23.83.55,1.09.94.26.4.39.83.39,1.31s-.12.84-.35,1.16c-.23.32-.56.57-.99.75-.42.18-.92.3-1.48.36-.56.06-1.17.05-1.82,0-.65-.06-1.32-.17-2.02-.33v-.78c.66.15,1.32.25,1.98.3.66.05,1.26.04,1.81-.03.55-.07.99-.23,1.32-.46s.5-.57.5-1.01-.18-.81-.53-1.15c-.35-.33-.86-.5-1.52-.5-.59,0-1.12.15-1.58.45-.46.3-.82.72-1.08,1.27-.26.54-.39,1.19-.39,1.94s.12,1.33.37,1.84.6.9,1.07,1.17c.47.27,1.04.41,1.73.41.45,0,.9-.06,1.38-.19.47-.12.96-.32,1.45-.58v.92c-.33.2-.73.39-1.2.55-.47.17-1.03.25-1.68.25Z"/>
    <path class="cls-5" d="m69.78,450.2v-8.5h1.03v8.5h-1.03Zm1.03-5.02l-.41-1.34c.31-.84.69-1.44,1.15-1.8.46-.36.92-.54,1.4-.54.22,0,.4.03.56.09.15.06.27.14.36.25.09.1.13.23.13.37,0,.14-.04.25-.13.33s-.21.13-.39.13c-.14,0-.27-.02-.4-.06s-.28-.06-.44-.06c-.54,0-.98.25-1.32.76-.34.5-.51,1.13-.51,1.88Z"/>
    <path class="cls-5" d="m80.09,450.2v-11.57h1.1v11.57h-1.1Zm.51-10.61v-.95h7.67v.95h-7.67Zm0,4.95v-.95h6.41c.17,0,.31.04.42.12.11.08.16.2.16.36,0,.15-.05.26-.16.35-.11.08-.25.13-.42.13h-6.41Z"/>
    <path class="cls-5" d="m88.17,450.2l4.45-11.02c.1-.26.23-.45.37-.57.14-.12.31-.18.49-.18.19,0,.36.06.5.18.14.12.26.31.36.57l4.42,11.02h-1.13l-4.44-11.23h.58l-4.45,11.23h-1.15Zm2.36-3.47v-.95h5.88v.95h-5.88Z"/>
    <path class="cls-5" d="m99.65,444.59c0-1.2.23-2.26.69-3.19.46-.92,1.12-1.65,1.99-2.18.86-.53,1.89-.79,3.07-.79s2.17.24,3.01.73,1.5,1.17,1.95,2.04.69,1.89.69,3.06-.23,2.25-.69,3.17-1.12,1.65-1.98,2.18-1.88.79-3.08.79-2.16-.24-3.01-.72c-.85-.48-1.5-1.16-1.96-2.03-.46-.87-.69-1.89-.69-3.06Zm1.16-.03c0,.99.19,1.85.56,2.59.37.74.89,1.32,1.57,1.73s1.47.61,2.38.61c.96,0,1.78-.22,2.47-.66s1.21-1.05,1.57-1.84c.36-.78.54-1.68.54-2.69s-.19-1.85-.56-2.59c-.37-.74-.89-1.32-1.57-1.74-.67-.41-1.47-.62-2.38-.62-.96,0-1.78.22-2.46.66s-1.2,1.05-1.57,1.84c-.37.78-.55,1.68-.55,2.7Zm4.45,5.25l1.13.26c.27.65.55,1.11.83,1.4.28.29.55.47.81.54s.49.1.69.1c.37,0,.6.05.71.14.11.1.16.21.16.33,0,.17-.08.31-.24.43-.16.11-.42.17-.79.17-.42,0-.84-.1-1.24-.3-.41-.2-.78-.54-1.13-1.04-.35-.49-.66-1.17-.93-2.03Z"/>
    <path class="cls-5" d="m116.03,450.4c-.67,0-1.26-.09-1.76-.26s-.9-.38-1.18-.62v-1.04c.47.36.95.63,1.45.81s1,.26,1.52.26c.73,0,1.26-.15,1.58-.44.33-.29.49-.64.49-1.04,0-.37-.12-.67-.36-.89-.24-.22-.55-.4-.92-.54s-.78-.26-1.2-.38c-.42-.12-.82-.26-1.2-.43s-.69-.41-.92-.71c-.24-.3-.36-.69-.36-1.18,0-.44.11-.85.33-1.22.22-.37.54-.67.98-.89.44-.22.98-.33,1.64-.33.54,0,1.01.07,1.42.22.41.15.73.34.97.58.23.24.35.49.35.76,0,.15-.04.26-.11.34-.07.08-.17.12-.28.12-.16,0-.29-.06-.39-.18-.1-.12-.22-.26-.36-.41-.14-.15-.33-.29-.57-.41s-.59-.18-1.02-.18c-.69,0-1.18.15-1.49.46-.31.31-.46.65-.46,1.02s.12.65.36.86c.24.21.55.38.93.51.38.13.78.25,1.2.37s.82.27,1.2.45.69.43.92.74c.24.31.36.73.36,1.25,0,.43-.11.83-.32,1.2-.21.37-.54.66-.99.88-.45.22-1.04.32-1.77.32Z"/>
    <path class="cls-5" d="m122.19,450.4c-.29,0-.5-.08-.64-.25-.14-.16-.21-.35-.21-.57,0-.23.07-.42.21-.58.14-.16.36-.24.64-.24s.5.08.64.24c.14.16.21.35.21.58s-.07.41-.21.57c-.14.17-.36.25-.64.25Zm-.86,1.97c.23-.46.39-.89.47-1.28.09-.39.11-.79.08-1.2l1.16-.31c0,.43-.1.91-.31,1.44s-.46.98-.75,1.35h-.65Z"/>
    <path class="cls-5" d="m130.17,450.2v-12.25h1.03v12.25h-1.03Zm6.03,0v-5.15c0-.62-.11-1.12-.33-1.5-.22-.38-.51-.66-.87-.83-.36-.18-.75-.26-1.16-.26-.45,0-.87.1-1.28.29-.41.19-.74.49-.99.89-.26.4-.39.92-.39,1.56l-.41-1.34c.22-.55.51-1.01.87-1.35s.76-.6,1.19-.76c.43-.16.86-.24,1.28-.24.55,0,1.06.12,1.53.37.47.25.85.63,1.14,1.15.29.52.43,1.18.43,1.98v5.2h-1.03Z"/>
    <path class="cls-5" d="m142.08,450.4c-.78,0-1.41-.21-1.9-.62-.49-.41-.74-1-.74-1.76,0-.66.21-1.18.62-1.57.42-.39,1.04-.68,1.88-.86l1.44-.31c.64-.14,1.05-.28,1.24-.43.19-.15.28-.37.28-.68v1.33c-.09.1-.24.2-.44.3s-.5.19-.9.28l-1.37.29c-.49.1-.89.28-1.2.52-.31.24-.46.61-.46,1.1s.16.87.47,1.15c.31.28.73.42,1.24.42.45,0,.87-.1,1.28-.31s.74-.52.99-.92c.26-.4.39-.88.39-1.44l.29,1.29c-.24.79-.65,1.36-1.24,1.71-.59.35-1.21.52-1.88.52Zm4.28-.2h-1.03c-.08-.18-.15-.45-.21-.79s-.09-.69-.09-1.05l-.12-.32v-3.93c0-.66-.19-1.11-.57-1.34-.38-.24-.87-.36-1.45-.36-.51,0-.92.06-1.21.19-.29.12-.52.27-.68.44-.16.17-.3.32-.41.44-.11.12-.26.19-.43.19-.11,0-.21-.03-.29-.1-.08-.07-.12-.17-.12-.31,0-.1.03-.22.09-.36.06-.14.16-.28.31-.44.62-.65,1.53-.97,2.74-.97.58,0,1.1.08,1.56.25.46.16.82.44,1.09.82.27.39.4.9.4,1.55v3.74c0,.49.04.94.13,1.35.09.41.19.75.3,1Z"/>
    <path class="cls-5" d="m148.84,450.2v-8.5h1.03v8.5h-1.03Zm6.03,0v-5.15c0-.62-.11-1.12-.33-1.5-.22-.38-.51-.66-.87-.83-.36-.18-.75-.26-1.16-.26-.45,0-.87.1-1.28.29-.41.19-.74.49-.99.89-.26.4-.39.92-.39,1.56l-.41-1.34c.21-.55.49-1.01.85-1.35s.76-.6,1.2-.76.87-.24,1.29-.24c.55,0,1.06.12,1.53.37.47.25.85.63,1.14,1.15.29.52.43,1.18.43,1.98v5.2h-1.03Z"/>
    <path class="cls-5" d="m165.4,448.06c-.29.73-.71,1.3-1.28,1.72-.57.42-1.26.63-2.07.63-.74,0-1.41-.18-2.01-.54-.6-.36-1.07-.88-1.41-1.54-.34-.66-.51-1.44-.51-2.34s.17-1.68.51-2.35c.34-.67.81-1.19,1.41-1.57.6-.38,1.3-.57,2.09-.57s1.43.18,1.97.55c.54.37.91.89,1.11,1.56l-.21,1.58c0-.52-.12-.99-.36-1.4-.24-.41-.56-.74-.98-.98s-.89-.36-1.42-.36c-.59,0-1.12.15-1.58.45-.46.3-.81.71-1.07,1.24-.26.53-.39,1.14-.39,1.85s.13,1.3.39,1.82c.26.52.61.93,1.07,1.22.46.29.99.43,1.61.43.81,0,1.47-.25,1.97-.76.5-.5.75-1.17.75-1.98l.41,1.34Zm.62-10.1v12.25h-1.03v-12.25h1.03Z"/>
    <path class="cls-5" d="m169.99,437.95v10.29c0,.46.07.78.21.95.14.17.37.26.69.26.14,0,.27-.01.39-.03s.26-.06.41-.1v.85c-.33.16-.68.24-1.04.24-.62,0-1.05-.19-1.31-.58-.26-.39-.39-.87-.39-1.46v-10.41h1.03Z"/>
    <path class="cls-5" d="m177.03,450.4c-1.31,0-2.34-.38-3.07-1.14-.74-.76-1.1-1.81-1.1-3.15,0-.93.18-1.74.53-2.43.35-.69.84-1.23,1.46-1.62.62-.38,1.33-.58,2.12-.58.63,0,1.18.12,1.64.35.47.23.83.55,1.09.94.26.4.39.83.39,1.31s-.12.84-.35,1.16c-.23.32-.56.57-.99.75-.42.18-.92.3-1.48.36-.56.06-1.17.05-1.82,0-.65-.06-1.32-.17-2.02-.33v-.78c.66.15,1.32.25,1.98.3.66.05,1.26.04,1.81-.03.55-.07.99-.23,1.32-.46s.5-.57.5-1.01-.18-.81-.53-1.15c-.35-.33-.86-.5-1.52-.5-.59,0-1.12.15-1.58.45-.46.3-.82.72-1.08,1.27-.26.54-.39,1.19-.39,1.94s.12,1.33.37,1.84.6.9,1.07,1.17c.47.27,1.04.41,1.73.41.45,0,.9-.06,1.38-.19.47-.12.96-.32,1.45-.58v.92c-.33.2-.73.39-1.2.55-.47.17-1.03.25-1.68.25Z"/>
    <path class="cls-5" d="m192.93,443.19c0,.15-.04.26-.13.34-.09.08-.19.12-.32.12-.18,0-.33-.07-.45-.2-.11-.13-.24-.28-.39-.44-.14-.16-.34-.31-.58-.44-.25-.13-.59-.2-1.04-.2-.94,0-1.67.33-2.2.99-.53.66-.8,1.53-.8,2.62,0,.74.13,1.36.38,1.88.25.52.61.91,1.08,1.18.47.27,1.03.41,1.68.41.43,0,.86-.06,1.29-.19s.87-.32,1.33-.58v.92c-.31.2-.67.39-1.1.55-.42.17-.95.25-1.58.25-1.29,0-2.31-.39-3.06-1.17-.75-.78-1.12-1.84-1.12-3.18,0-.91.17-1.7.52-2.39.35-.69.83-1.22,1.45-1.6.62-.38,1.33-.57,2.14-.57.61,0,1.12.1,1.54.29.42.19.75.41.98.66.24.25.36.5.36.75Z"/>
    <path class="cls-5" d="m194.34,446.05c0-.92.17-1.72.52-2.4.35-.68.83-1.21,1.46-1.59.62-.38,1.34-.57,2.15-.57s1.48.18,2.09.54c.6.36,1.08.86,1.42,1.5.34.65.51,1.42.51,2.31s-.17,1.7-.52,2.39c-.35.69-.83,1.22-1.45,1.6-.62.38-1.34.57-2.16.57s-1.48-.18-2.09-.54c-.61-.36-1.08-.86-1.42-1.51-.34-.65-.51-1.42-.51-2.3Zm1.06-.05c0,.73.13,1.35.39,1.88.26.53.61.93,1.06,1.22s.96.42,1.52.42,1.1-.15,1.57-.44c.46-.29.83-.71,1.1-1.26.27-.54.4-1.18.4-1.92s-.13-1.35-.39-1.88-.61-.93-1.05-1.22-.95-.42-1.52-.42-1.1.15-1.57.44c-.46.29-.83.71-1.1,1.25-.27.54-.4,1.18-.4,1.93Z"/>
    <path class="cls-5" d="m204.87,450.2v-8.5h1.03v8.5h-1.03Zm5.86,0v-5.15c0-.94-.21-1.61-.63-2.01s-.93-.6-1.55-.6c-.45,0-.87.1-1.28.29-.41.19-.74.49-.99.89-.26.4-.39.92-.39,1.56l-.41-1.34c.21-.55.49-1.01.84-1.35s.75-.6,1.17-.76.85-.24,1.28-.24c.55,0,1.05.12,1.5.37.45.25.81.62,1.08,1.12.27.5.4,1.12.4,1.87v5.34h-1.03Zm5.86,0v-5.15c0-.94-.21-1.61-.63-2.01s-.93-.6-1.55-.6c-.45,0-.87.1-1.28.29-.41.19-.74.49-.99.89-.26.4-.39.92-.39,1.56l-.56-1.34c.23-.55.53-1.01.91-1.35s.79-.6,1.23-.76.88-.24,1.3-.24c.55,0,1.05.13,1.5.38s.81.64,1.08,1.17c.27.52.4,1.18.4,1.99v5.17h-1.03Z"/>
    <path class="cls-5" d="m220.41,453.6v-11.91h1.03v11.91h-1.03Zm.62-9.76c.3-.74.73-1.31,1.3-1.73.57-.41,1.26-.62,2.06-.62.75,0,1.43.18,2.02.54.59.36,1.06.87,1.4,1.53.34.66.51,1.44.51,2.35s-.17,1.66-.51,2.34-.8,1.2-1.4,1.58c-.6.38-1.3.57-2.1.57s-1.43-.19-1.97-.56c-.54-.37-.91-.89-1.11-1.55l.21-1.58c0,.52.12.99.36,1.4s.57.74.98.98c.42.24.89.36,1.41.36.59,0,1.12-.15,1.58-.45.46-.3.81-.72,1.07-1.25s.39-1.15.39-1.84-.13-1.3-.39-1.82-.61-.93-1.07-1.22-.99-.43-1.61-.43c-.8,0-1.45.25-1.96.76-.51.5-.76,1.17-.76,1.98l-.41-1.34Z"/>
    <path class="cls-5" d="m231.75,437.95v10.29c0,.46.07.78.21.95.14.17.37.26.69.26.14,0,.27-.01.39-.03s.26-.06.41-.1v.85c-.33.16-.68.24-1.04.24-.62,0-1.05-.19-1.31-.58-.26-.39-.39-.87-.39-1.46v-10.41h1.03Z"/>
    <path class="cls-5" d="m237.63,450.4c-.78,0-1.41-.21-1.9-.62-.49-.41-.74-1-.74-1.76,0-.66.21-1.18.62-1.57.42-.39,1.04-.68,1.88-.86l1.44-.31c.64-.14,1.05-.28,1.24-.43.19-.15.28-.37.28-.68v1.33c-.09.1-.24.2-.44.3-.2.1-.5.19-.9.28l-1.37.29c-.49.1-.89.28-1.2.52-.31.24-.46.61-.46,1.1s.16.87.47,1.15c.31.28.73.42,1.24.42.45,0,.87-.1,1.28-.31s.74-.52.99-.92c.26-.4.38-.88.38-1.44l.29,1.29c-.24.79-.65,1.36-1.24,1.71-.59.35-1.21.52-1.88.52Zm4.28-.2h-1.03c-.08-.18-.15-.45-.21-.79-.06-.35-.09-.69-.09-1.05l-.12-.32v-3.93c0-.66-.19-1.11-.57-1.34-.38-.24-.87-.36-1.45-.36-.51,0-.92.06-1.21.19s-.52.27-.68.44-.3.32-.41.44-.26.19-.43.19c-.11,0-.21-.03-.29-.1-.08-.07-.12-.17-.12-.31,0-.1.03-.22.08-.36.06-.14.16-.28.31-.44.62-.65,1.53-.97,2.74-.97.58,0,1.1.08,1.56.25.46.16.82.44,1.09.82.27.39.4.9.4,1.55v3.74c0,.49.04.94.13,1.35s.19.75.3,1Z"/>
    <path class="cls-5" d="m244.91,439.93c-.25,0-.44-.07-.57-.22-.12-.15-.19-.32-.19-.53s.06-.38.19-.53c.13-.15.31-.22.57-.22s.44.07.57.22c.13.15.19.32.19.53s-.06.38-.19.53c-.13.15-.31.22-.57.22Zm-.51,10.27v-8.5c.34.03.69.03,1.03,0v8.5h-1.03Z"/>
    <path class="cls-5" d="m248.38,450.2v-8.5h1.03v8.5h-1.03Zm6.03,0v-5.15c0-.62-.11-1.12-.33-1.5s-.5-.66-.87-.83c-.36-.18-.75-.26-1.16-.26-.45,0-.87.1-1.28.29-.41.19-.74.49-.99.89-.26.4-.39.92-.39,1.56l-.41-1.34c.21-.55.49-1.01.85-1.35.36-.35.76-.6,1.2-.76s.87-.24,1.29-.24c.55,0,1.06.12,1.53.37.47.25.85.63,1.14,1.15s.43,1.18.43,1.98v5.2h-1.03Z"/>
    <path class="cls-5" d="m261.98,450.06c-.24.1-.48.18-.71.25s-.5.09-.8.09c-.65,0-1.16-.19-1.53-.57-.37-.38-.56-1-.56-1.86v-5.36h-.84c-.19,0-.33-.04-.41-.12-.08-.08-.12-.17-.12-.27,0-.11.04-.22.12-.32.08-.1.2-.21.36-.32l1.92-1.31v1.43h2.91v.92h-2.91v5.27c0,.57.1.97.3,1.21.2.24.51.36.93.36.23,0,.45-.03.66-.08s.44-.13.68-.22v.92Z"/>
    <path class="cls-5" d="m266.63,450.4c-.67,0-1.26-.09-1.76-.26-.5-.18-.9-.38-1.18-.62v-1.04c.47.36.95.63,1.45.81.5.18,1,.26,1.52.26.73,0,1.26-.15,1.58-.44.33-.29.49-.64.49-1.04,0-.37-.12-.67-.36-.89-.24-.22-.55-.4-.92-.54s-.78-.26-1.2-.38-.82-.26-1.2-.43-.68-.41-.92-.71c-.24-.3-.36-.69-.36-1.18,0-.44.11-.85.33-1.22s.54-.67.99-.89c.44-.22.98-.33,1.64-.33.54,0,1.01.07,1.42.22.41.15.73.34.97.58.23.24.35.49.35.76,0,.15-.04.26-.11.34-.07.08-.17.12-.28.12-.16,0-.29-.06-.39-.18s-.22-.26-.36-.41c-.14-.15-.33-.29-.57-.41-.25-.12-.58-.18-1.02-.18-.69,0-1.18.15-1.49.46-.31.31-.46.65-.46,1.02s.12.65.36.86c.24.21.55.38.93.51.38.13.78.25,1.2.37.42.12.82.27,1.2.45s.69.43.92.74c.24.31.36.73.36,1.25,0,.43-.11.83-.32,1.2-.21.37-.54.66-.99.88-.45.22-1.04.32-1.77.32Z"/>
    <path class="cls-5" d="m272.78,450.4c-.29,0-.5-.08-.64-.25-.14-.16-.21-.35-.21-.57,0-.23.07-.42.21-.58.14-.16.36-.24.64-.24s.5.08.64.24.21.35.21.58-.07.41-.21.57c-.14.17-.36.25-.64.25Zm-.86,1.97c.23-.46.39-.89.47-1.28.08-.39.11-.79.08-1.2l1.16-.31c0,.43-.1.91-.31,1.44-.21.53-.46.98-.75,1.35h-.65Z"/>
    <path class="cls-5" d="m280.76,453.6v-11.91h1.03v11.91h-1.03Zm.62-9.76c.3-.74.73-1.31,1.3-1.73s1.26-.62,2.06-.62c.75,0,1.43.18,2.02.54.59.36,1.06.87,1.41,1.53.34.66.51,1.44.51,2.35s-.17,1.66-.51,2.34-.8,1.2-1.4,1.58c-.6.38-1.3.57-2.1.57s-1.43-.19-1.97-.56c-.54-.37-.91-.89-1.11-1.55l.21-1.58c0,.52.12.99.36,1.4.24.41.57.74.99.98.42.24.89.36,1.41.36.59,0,1.12-.15,1.58-.45.46-.3.81-.72,1.07-1.25s.38-1.15.38-1.84-.13-1.3-.38-1.82-.61-.93-1.07-1.22c-.46-.29-.99-.43-1.61-.43-.8,0-1.45.25-1.96.76-.51.5-.76,1.17-.76,1.98l-.41-1.34Z"/>
    <path class="cls-5" d="m291.07,450.2v-8.5h1.03v8.5h-1.03Zm1.03-5.02l-.41-1.34c.31-.84.69-1.44,1.15-1.8.46-.36.92-.54,1.4-.54.22,0,.4.03.56.09.15.06.27.14.36.25.08.1.13.23.13.37,0,.14-.04.25-.13.33-.09.08-.21.13-.39.13-.14,0-.27-.02-.4-.06-.13-.04-.28-.06-.44-.06-.54,0-.98.25-1.32.76s-.51,1.13-.51,1.88Z"/>
    <path class="cls-5" d="m296.14,446.05c0-.92.17-1.72.52-2.4.35-.68.83-1.21,1.46-1.59.62-.38,1.34-.57,2.15-.57s1.48.18,2.09.54c.6.36,1.08.86,1.42,1.5.34.65.51,1.42.51,2.31s-.17,1.7-.52,2.39c-.35.69-.83,1.22-1.45,1.6-.62.38-1.34.57-2.16.57s-1.49-.18-2.09-.54c-.61-.36-1.08-.86-1.42-1.51-.34-.65-.51-1.42-.51-2.3Zm1.06-.05c0,.73.13,1.35.39,1.88s.61.93,1.06,1.22.96.42,1.52.42,1.1-.15,1.57-.44c.46-.29.83-.71,1.1-1.26.27-.54.4-1.18.4-1.92s-.13-1.35-.38-1.88-.61-.93-1.05-1.22-.95-.42-1.52-.42-1.1.15-1.57.44c-.46.29-.83.71-1.1,1.25-.27.54-.4,1.18-.4,1.93Z"/>
    <path class="cls-5" d="m308.77,450.2l-3.6-8.5h1.11l3.48,8.5h-.99Zm1.03,0h-.99l3.48-8.5h1.11l-3.6,8.5Z"/>
    <path class="cls-5" d="m315.7,439.93c-.25,0-.44-.07-.57-.22-.13-.15-.19-.32-.19-.53s.06-.38.19-.53c.12-.15.31-.22.57-.22s.44.07.57.22c.12.15.19.32.19.53s-.06.38-.19.53c-.13.15-.31.22-.57.22Zm-.51,10.27v-8.5c.34.03.68.03,1.03,0v8.5h-1.03Z"/>
    <path class="cls-5" d="m325.87,448.06c-.29.73-.71,1.3-1.29,1.72-.57.42-1.26.63-2.07.63-.74,0-1.41-.18-2.01-.54-.6-.36-1.07-.88-1.41-1.54-.34-.66-.51-1.44-.51-2.34s.17-1.68.5-2.35c.34-.67.81-1.19,1.41-1.57.61-.38,1.3-.57,2.09-.57s1.43.18,1.97.55.91.89,1.11,1.56l-.21,1.58c0-.52-.12-.99-.36-1.4-.24-.41-.56-.74-.98-.98s-.89-.36-1.42-.36c-.59,0-1.12.15-1.58.45s-.81.71-1.07,1.24-.39,1.14-.39,1.85.13,1.3.39,1.82c.26.52.61.93,1.07,1.22s.99.43,1.61.43c.81,0,1.47-.25,1.97-.76.5-.5.75-1.17.75-1.98l.41,1.34Zm.62-10.1v12.25h-1.03v-12.25h1.03Z"/>
    <path class="cls-5" d="m333.06,450.4c-1.31,0-2.34-.38-3.07-1.14-.74-.76-1.11-1.81-1.11-3.15,0-.93.18-1.74.53-2.43s.84-1.23,1.46-1.62c.62-.38,1.33-.58,2.12-.58.63,0,1.18.12,1.64.35.47.23.83.55,1.09.94.26.4.39.83.39,1.31s-.12.84-.35,1.16c-.23.32-.56.57-.99.75-.42.18-.92.3-1.48.36s-1.17.05-1.82,0c-.65-.06-1.33-.17-2.02-.33v-.78c.66.15,1.32.25,1.98.3.66.05,1.26.04,1.81-.03.55-.07.99-.23,1.32-.46s.5-.57.5-1.01-.18-.81-.53-1.15c-.35-.33-.86-.5-1.52-.5-.59,0-1.12.15-1.58.45-.46.3-.82.72-1.08,1.27-.26.54-.39,1.19-.39,1.94s.12,1.33.37,1.84c.25.51.6.9,1.07,1.17.47.27,1.04.41,1.73.41.45,0,.9-.06,1.38-.19.47-.12.96-.32,1.45-.58v.92c-.33.2-.73.39-1.2.55-.47.17-1.03.25-1.68.25Z"/>
    <path class="cls-5" d="m341.97,446.05c0-.92.17-1.72.52-2.4.35-.68.83-1.21,1.46-1.59.62-.38,1.34-.57,2.15-.57s1.48.18,2.09.54c.6.36,1.08.86,1.42,1.5.34.65.51,1.42.51,2.31s-.17,1.7-.52,2.39c-.35.69-.83,1.22-1.45,1.6-.62.38-1.34.57-2.16.57s-1.49-.18-2.09-.54c-.61-.36-1.08-.86-1.42-1.51-.34-.65-.51-1.42-.51-2.3Zm1.06-.05c0,.73.13,1.35.39,1.88s.61.93,1.06,1.22.96.42,1.52.42,1.1-.15,1.57-.44c.46-.29.83-.71,1.1-1.26.27-.54.4-1.18.4-1.92s-.13-1.35-.38-1.88-.61-.93-1.05-1.22-.95-.42-1.52-.42-1.1.15-1.57.44c-.46.29-.83.71-1.1,1.25-.27.54-.4,1.18-.4,1.93Z"/>
    <path class="cls-5" d="m352.5,450.2v-8.5h1.03v8.5h-1.03Zm1.03-5.02l-.41-1.34c.31-.84.69-1.44,1.15-1.8.46-.36.92-.54,1.4-.54.22,0,.4.03.56.09s.27.14.36.25c.09.1.13.23.13.37,0,.14-.04.25-.13.33-.08.08-.21.13-.38.13-.14,0-.27-.02-.4-.06-.13-.04-.28-.06-.44-.06-.54,0-.98.25-1.32.76-.34.5-.51,1.13-.51,1.88Z"/>
    <path class="cls-5" d="m364.88,448.06c-.29.73-.71,1.3-1.29,1.72-.57.42-1.26.63-2.07.63-.74,0-1.41-.18-2.01-.54-.6-.36-1.07-.88-1.41-1.54-.34-.66-.51-1.44-.51-2.34s.17-1.68.5-2.35c.34-.67.81-1.19,1.41-1.57.61-.38,1.3-.57,2.09-.57s1.43.18,1.97.55.91.89,1.11,1.56l-.21,1.58c0-.52-.12-.99-.36-1.4-.24-.41-.56-.74-.98-.98s-.89-.36-1.42-.36c-.59,0-1.12.15-1.58.45s-.81.71-1.07,1.24-.39,1.14-.39,1.85.13,1.3.39,1.82c.26.52.61.93,1.07,1.22s.99.43,1.61.43c.81,0,1.47-.25,1.97-.76.5-.5.75-1.17.75-1.98l.41,1.34Zm.62-10.1v12.25h-1.03v-12.25h1.03Z"/>
    <path class="cls-5" d="m372.08,450.4c-1.31,0-2.34-.38-3.07-1.14-.74-.76-1.11-1.81-1.11-3.15,0-.93.18-1.74.53-2.43s.84-1.23,1.46-1.62c.62-.38,1.33-.58,2.12-.58.63,0,1.18.12,1.64.35.47.23.83.55,1.09.94.26.4.39.83.39,1.31s-.12.84-.35,1.16c-.23.32-.56.57-.99.75-.42.18-.92.3-1.48.36s-1.17.05-1.82,0c-.65-.06-1.33-.17-2.02-.33v-.78c.66.15,1.32.25,1.98.3.66.05,1.26.04,1.81-.03.55-.07.99-.23,1.32-.46s.5-.57.5-1.01-.18-.81-.53-1.15c-.35-.33-.86-.5-1.52-.5-.59,0-1.12.15-1.58.45-.46.3-.82.72-1.08,1.27-.26.54-.39,1.19-.39,1.94s.12,1.33.37,1.84c.25.51.6.9,1.07,1.17.47.27,1.04.41,1.73.41.45,0,.9-.06,1.38-.19.47-.12.96-.32,1.45-.58v.92c-.33.2-.73.39-1.2.55-.47.17-1.03.25-1.68.25Z"/>
    <path class="cls-5" d="m377.38,450.2v-8.5h1.03v8.5h-1.03Zm1.03-5.02l-.41-1.34c.31-.84.69-1.44,1.15-1.8.46-.36.92-.54,1.4-.54.22,0,.4.03.56.09s.27.14.36.25c.09.1.13.23.13.37,0,.14-.04.25-.13.33-.08.08-.21.13-.38.13-.14,0-.27-.02-.4-.06-.13-.04-.28-.06-.44-.06-.54,0-.98.25-1.32.76-.34.5-.51,1.13-.51,1.88Z"/>
    <path class="cls-5" d="m22.45,470.81c-1.03,0-1.87-.29-2.52-.88s-.98-1.49-.98-2.73v-5.1h1.03v5.08c0,.9.22,1.57.66,2.01.44.44,1.04.66,1.81.66s1.38-.22,1.82-.66c.43-.44.65-1.11.65-2.01v-5.08h1.03v5.1c0,1.24-.33,2.15-.98,2.73s-1.49.88-2.52.88Z"/>
    <path class="cls-5" d="m28.74,474.01v-11.91h1.03v11.91h-1.03Zm.62-9.76c.3-.74.73-1.31,1.3-1.73.57-.41,1.26-.62,2.06-.62.75,0,1.43.18,2.02.54.59.36,1.06.87,1.4,1.53.34.66.51,1.44.51,2.35s-.17,1.66-.51,2.34-.8,1.2-1.4,1.58c-.6.38-1.3.57-2.1.57s-1.43-.19-1.97-.56c-.54-.37-.91-.89-1.11-1.55l.21-1.58c0,.52.12.99.36,1.4s.57.74.98.98c.42.24.89.36,1.41.36.59,0,1.12-.15,1.58-.45.46-.3.81-.72,1.07-1.25s.39-1.15.39-1.84-.13-1.3-.39-1.82-.61-.93-1.07-1.22-.99-.43-1.61-.43c-.8,0-1.45.25-1.96.76-.51.5-.76,1.17-.76,1.98l-.41-1.34Z"/>
    <path class="cls-5" d="m45.76,468.47c-.29.73-.71,1.3-1.28,1.72-.57.42-1.26.63-2.07.63-.74,0-1.41-.18-2.01-.54-.6-.36-1.07-.88-1.41-1.54-.34-.66-.51-1.44-.51-2.34s.17-1.68.51-2.35c.34-.67.81-1.19,1.41-1.57.6-.38,1.3-.57,2.09-.57s1.43.18,1.97.55c.54.37.91.89,1.11,1.56l-.21,1.58c0-.52-.12-.99-.36-1.4-.24-.41-.56-.74-.98-.98s-.89-.36-1.42-.36c-.59,0-1.12.15-1.58.45-.46.3-.81.71-1.07,1.24-.26.53-.39,1.14-.39,1.85s.13,1.3.39,1.82c.26.52.61.93,1.07,1.22.46.29.99.43,1.61.43.81,0,1.47-.25,1.97-.76.5-.5.75-1.17.75-1.98l.41,1.34Zm.62-10.1v12.25h-1.03v-12.25h1.03Z"/>
    <path class="cls-5" d="m51.42,470.81c-.78,0-1.41-.21-1.9-.62-.49-.41-.74-1-.74-1.76,0-.66.21-1.18.62-1.57.42-.39,1.04-.68,1.88-.86l1.44-.31c.64-.14,1.05-.28,1.24-.43.19-.15.28-.37.28-.68v1.33c-.09.1-.24.2-.44.3s-.5.19-.9.28l-1.37.29c-.49.1-.89.28-1.2.52-.31.24-.46.61-.46,1.1s.16.87.47,1.15c.31.28.73.42,1.24.42.45,0,.87-.1,1.28-.31s.74-.52.99-.92c.26-.4.39-.88.39-1.44l.29,1.29c-.24.79-.65,1.36-1.24,1.71-.59.35-1.21.52-1.88.52Zm4.28-.2h-1.03c-.08-.18-.15-.45-.21-.79s-.09-.69-.09-1.05l-.12-.32v-3.93c0-.66-.19-1.11-.57-1.34-.38-.24-.87-.36-1.45-.36-.51,0-.92.06-1.21.19-.29.12-.52.27-.68.44-.16.17-.3.32-.41.44-.11.12-.26.19-.43.19-.11,0-.21-.03-.29-.1-.08-.07-.12-.17-.12-.31,0-.1.03-.22.09-.36.06-.14.16-.28.31-.44.62-.65,1.53-.97,2.74-.97.58,0,1.1.08,1.56.25.46.16.82.44,1.09.82.27.39.4.9.4,1.55v3.74c0,.49.04.94.13,1.35.09.41.19.75.3,1Z"/>
    <path class="cls-5" d="m61.99,470.47c-.24.1-.48.18-.71.25-.23.06-.5.09-.8.09-.65,0-1.16-.19-1.53-.57-.37-.38-.56-1-.56-1.86v-5.36h-.84c-.19,0-.33-.04-.41-.12-.08-.08-.12-.17-.12-.27,0-.11.04-.22.12-.32.08-.1.2-.21.36-.32l1.92-1.31v1.43h2.91v.92h-2.91v5.27c0,.57.1.97.3,1.21s.51.36.93.36c.23,0,.45-.03.66-.08.21-.06.44-.13.68-.22v.92Z"/>
    <path class="cls-5" d="m67.42,470.81c-1.31,0-2.34-.38-3.07-1.14-.74-.76-1.1-1.81-1.1-3.15,0-.93.18-1.74.53-2.43.35-.69.84-1.23,1.46-1.62.62-.38,1.33-.58,2.12-.58.63,0,1.18.12,1.64.35.47.23.83.55,1.09.94.26.4.39.83.39,1.31s-.12.84-.35,1.16c-.23.32-.56.57-.99.75-.42.18-.92.3-1.48.36-.56.06-1.17.05-1.82,0-.65-.06-1.32-.17-2.02-.33v-.78c.66.15,1.32.25,1.98.3.66.05,1.26.04,1.81-.03.55-.07.99-.23,1.32-.46s.5-.57.5-1.01-.18-.81-.53-1.15c-.35-.33-.86-.5-1.52-.5-.59,0-1.12.15-1.58.45-.46.3-.82.72-1.08,1.27-.26.54-.39,1.19-.39,1.94s.12,1.33.37,1.84.6.9,1.07,1.17c.47.27,1.04.41,1.73.41.45,0,.9-.06,1.38-.19.47-.12.96-.32,1.45-.58v.92c-.33.2-.73.39-1.2.55-.47.17-1.03.25-1.68.25Z"/>
    <path class="cls-5" d="m75.21,470.81c-.67,0-1.26-.09-1.76-.26s-.9-.38-1.18-.62v-1.04c.47.36.95.63,1.45.81s1,.26,1.52.26c.73,0,1.26-.15,1.58-.44.33-.29.49-.64.49-1.04,0-.37-.12-.67-.36-.89-.24-.22-.55-.4-.92-.54s-.78-.26-1.2-.38c-.42-.12-.82-.26-1.2-.43s-.69-.41-.92-.71c-.24-.3-.36-.69-.36-1.18,0-.44.11-.85.33-1.22.22-.37.54-.67.98-.89.44-.22.98-.33,1.64-.33.54,0,1.01.07,1.42.22.41.15.73.34.97.58.23.24.35.49.35.76,0,.15-.04.26-.11.34-.07.08-.17.12-.28.12-.16,0-.29-.06-.39-.18-.1-.12-.22-.26-.36-.41-.14-.15-.33-.29-.57-.41s-.59-.18-1.02-.18c-.69,0-1.18.15-1.49.46-.31.31-.46.65-.46,1.02s.12.65.36.86c.24.21.55.38.93.51.38.13.78.25,1.2.37s.82.27,1.2.45.69.43.92.74c.24.31.36.73.36,1.25,0,.43-.11.83-.32,1.2-.21.37-.54.66-.99.88-.45.22-1.04.32-1.77.32Z"/>
    <path class="cls-5" d="m81.37,470.81c-.29,0-.5-.08-.64-.25-.14-.16-.21-.35-.21-.57,0-.23.07-.42.21-.58.14-.16.36-.24.64-.24s.5.08.64.24c.14.16.21.35.21.58s-.07.41-.21.57c-.14.17-.36.25-.64.25Zm-.86,1.97c.23-.46.39-.89.47-1.28.09-.39.11-.79.08-1.2l1.16-.31c0,.43-.1.91-.31,1.44s-.46.98-.75,1.35h-.65Z"/>
    <path class="cls-5" d="m90.38,467.55l-1.03-.66v-8.52h1.03v9.18Zm2.81,3.27c-1.18,0-2.11-.35-2.8-1.06-.69-.71-1.04-1.66-1.04-2.87h1.03c0,.87.26,1.59.78,2.14.52.56,1.2.83,2.03.83.9,0,1.62-.32,2.17-.97.54-.65.81-1.5.81-2.57,0-.69-.13-1.3-.39-1.82s-.61-.93-1.07-1.22-.99-.43-1.61-.43c-.8,0-1.45.25-1.96.76-.51.5-.76,1.17-.76,1.98l-.41-1.34c.3-.74.73-1.31,1.3-1.73.57-.41,1.26-.62,2.06-.62.75,0,1.43.18,2.02.54.59.36,1.06.87,1.4,1.53.34.66.51,1.44.51,2.35s-.17,1.66-.5,2.34c-.33.67-.8,1.2-1.41,1.58-.61.38-1.33.57-2.17.57Z"/>
    <path class="cls-5" d="m99.07,466.46c0-.92.17-1.72.52-2.4.35-.68.83-1.21,1.46-1.59.62-.38,1.34-.57,2.15-.57s1.48.18,2.09.54c.6.36,1.08.86,1.42,1.5.34.65.51,1.42.51,2.31s-.17,1.7-.52,2.39c-.35.69-.83,1.22-1.45,1.6-.62.38-1.34.57-2.16.57s-1.48-.18-2.09-.54c-.61-.36-1.08-.86-1.42-1.51-.34-.65-.51-1.42-.51-2.3Zm1.06-.05c0,.73.13,1.35.39,1.88.26.53.61.93,1.06,1.22s.96.42,1.52.42,1.1-.15,1.57-.44c.46-.29.83-.71,1.1-1.26.27-.54.4-1.18.4-1.92s-.13-1.35-.39-1.88-.61-.93-1.05-1.22-.95-.42-1.52-.42-1.1.15-1.57.44c-.46.29-.83.71-1.1,1.25-.27.54-.4,1.18-.4,1.93Z"/>
    <path class="cls-5" d="m109.04,466.46c0-.92.17-1.72.52-2.4.35-.68.83-1.21,1.46-1.59.62-.38,1.34-.57,2.15-.57s1.48.18,2.09.54c.6.36,1.08.86,1.42,1.5.34.65.51,1.42.51,2.31s-.17,1.7-.52,2.39c-.35.69-.83,1.22-1.45,1.6-.62.38-1.34.57-2.16.57s-1.48-.18-2.09-.54c-.61-.36-1.08-.86-1.42-1.51-.34-.65-.51-1.42-.51-2.3Zm1.06-.05c0,.73.13,1.35.39,1.88.26.53.61.93,1.06,1.22s.96.42,1.52.42,1.1-.15,1.57-.44c.46-.29.83-.71,1.1-1.26.27-.54.4-1.18.4-1.92s-.13-1.35-.39-1.88-.61-.93-1.05-1.22-.95-.42-1.52-.42-1.1.15-1.57.44c-.46.29-.83.71-1.1,1.25-.27.54-.4,1.18-.4,1.93Z"/>
    <path class="cls-5" d="m119.57,470.61v-12.25h1.03v12.25h-1.03Zm.67-4.54l4.33-3.79c.15-.12.27-.22.38-.28.1-.06.21-.09.33-.09.14,0,.24.04.32.12s.11.18.11.31c0,.1-.03.2-.09.28-.06.08-.14.17-.24.26l-4.2,3.59-.02-.88c.79.98,1.44,1.76,1.94,2.35.51.59.94,1.03,1.28,1.32s.66.47.94.54c.28.07.58.06.92-.02v.85c-.11.04-.23.08-.35.1-.12.02-.25.03-.4.03-.39,0-.76-.09-1.12-.28-.36-.19-.73-.47-1.12-.86-.39-.38-.83-.87-1.31-1.46s-1.05-1.28-1.7-2.08Z"/>
    <path class="cls-5" d="m134.16,470.81c-.78,0-1.41-.21-1.9-.62-.49-.41-.74-1-.74-1.76,0-.66.21-1.18.62-1.57.42-.39,1.04-.68,1.88-.86l1.44-.31c.64-.14,1.05-.28,1.24-.43.19-.15.28-.37.28-.68v1.33c-.09.1-.24.2-.44.3s-.5.19-.9.28l-1.37.29c-.49.1-.89.28-1.2.52-.31.24-.46.61-.46,1.1s.16.87.47,1.15c.31.28.73.42,1.24.42.45,0,.87-.1,1.28-.31s.74-.52.99-.92c.26-.4.39-.88.39-1.44l.29,1.29c-.24.79-.65,1.36-1.24,1.71-.59.35-1.21.52-1.88.52Zm4.28-.2h-1.03c-.08-.18-.15-.45-.21-.79s-.09-.69-.09-1.05l-.12-.32v-3.93c0-.66-.19-1.11-.57-1.34-.38-.24-.87-.36-1.45-.36-.51,0-.92.06-1.21.19-.29.12-.52.27-.68.44-.16.17-.3.32-.41.44-.11.12-.26.19-.43.19-.11,0-.21-.03-.29-.1-.08-.07-.12-.17-.12-.31,0-.1.03-.22.09-.36.06-.14.16-.28.31-.44.62-.65,1.53-.97,2.74-.97.58,0,1.1.08,1.56.25.46.16.82.44,1.09.82.27.39.4.9.4,1.55v3.74c0,.49.04.94.13,1.35.09.41.19.75.3,1Z"/>
    <path class="cls-5" d="m140.92,474.01v-11.91h1.03v11.91h-1.03Zm.62-9.76c.3-.74.73-1.31,1.3-1.73.57-.41,1.26-.62,2.06-.62.75,0,1.43.18,2.02.54.59.36,1.06.87,1.4,1.53.34.66.51,1.44.51,2.35s-.17,1.66-.51,2.34-.8,1.2-1.4,1.58c-.6.38-1.3.57-2.1.57s-1.43-.19-1.97-.56c-.54-.37-.91-.89-1.11-1.55l.21-1.58c0,.52.12.99.36,1.4s.57.74.98.98c.42.24.89.36,1.41.36.59,0,1.12-.15,1.58-.45.46-.3.81-.72,1.07-1.25s.39-1.15.39-1.84-.13-1.3-.39-1.82-.61-.93-1.07-1.22-.99-.43-1.61-.43c-.8,0-1.45.25-1.96.76-.51.5-.76,1.17-.76,1.98l-.41-1.34Z"/>
    <path class="cls-5" d="m151.23,474.01v-11.91h1.03v11.91h-1.03Zm.62-9.76c.3-.74.73-1.31,1.3-1.73.57-.41,1.26-.62,2.06-.62.75,0,1.43.18,2.02.54.59.36,1.06.87,1.4,1.53.34.66.51,1.44.51,2.35s-.17,1.66-.51,2.34-.8,1.2-1.4,1.58c-.6.38-1.3.57-2.1.57s-1.43-.19-1.97-.56c-.54-.37-.91-.89-1.11-1.55l.21-1.58c0,.52.12.99.36,1.4s.57.74.98.98c.42.24.89.36,1.41.36.59,0,1.12-.15,1.58-.45.46-.3.81-.72,1.07-1.25s.39-1.15.39-1.84-.13-1.3-.39-1.82-.61-.93-1.07-1.22-.99-.43-1.61-.43c-.8,0-1.45.25-1.96.76-.51.5-.76,1.17-.76,1.98l-.41-1.34Z"/>
    <path class="cls-5" d="m160.95,466.46c0-.92.17-1.72.52-2.4.35-.68.83-1.21,1.46-1.59.62-.38,1.34-.57,2.15-.57s1.48.18,2.09.54c.6.36,1.08.86,1.42,1.5.34.65.51,1.42.51,2.31s-.17,1.7-.52,2.39c-.35.69-.83,1.22-1.45,1.6-.62.38-1.34.57-2.16.57s-1.48-.18-2.09-.54c-.61-.36-1.08-.86-1.42-1.51-.34-.65-.51-1.42-.51-2.3Zm1.06-.05c0,.73.13,1.35.39,1.88.26.53.61.93,1.06,1.22s.96.42,1.52.42,1.1-.15,1.57-.44c.46-.29.83-.71,1.1-1.26.27-.54.4-1.18.4-1.92s-.13-1.35-.39-1.88-.61-.93-1.05-1.22-.95-.42-1.52-.42-1.1.15-1.57.44c-.46.29-.83.71-1.1,1.25-.27.54-.4,1.18-.4,1.93Z"/>
    <path class="cls-5" d="m171.95,460.34c-.25,0-.44-.07-.57-.22-.13-.15-.19-.32-.19-.53s.06-.38.19-.53c.13-.15.31-.22.57-.22s.44.07.57.22c.13.15.19.32.19.53s-.06.38-.19.53c-.13.15-.31.22-.57.22Zm-.51,10.27v-8.5c.34.03.69.03,1.03,0v8.5h-1.03Z"/>
    <path class="cls-5" d="m175.42,470.61v-8.5h1.03v8.5h-1.03Zm6.03,0v-5.15c0-.62-.11-1.12-.33-1.5-.22-.38-.51-.66-.87-.83-.36-.18-.75-.26-1.16-.26-.45,0-.87.1-1.28.29-.41.19-.74.49-.99.89-.26.4-.39.92-.39,1.56l-.41-1.34c.21-.55.49-1.01.85-1.35s.76-.6,1.2-.76.87-.24,1.29-.24c.55,0,1.06.12,1.53.37.47.25.85.63,1.14,1.15.29.52.43,1.18.43,1.98v5.2h-1.03Z"/>
    <path class="cls-5" d="m189.02,470.47c-.24.1-.48.18-.71.25-.23.06-.5.09-.8.09-.65,0-1.16-.19-1.53-.57-.37-.38-.56-1-.56-1.86v-5.36h-.84c-.19,0-.33-.04-.41-.12-.08-.08-.12-.17-.12-.27,0-.11.04-.22.12-.32.08-.1.2-.21.36-.32l1.92-1.31v1.43h2.91v.92h-2.91v5.27c0,.57.1.97.3,1.21s.51.36.93.36c.23,0,.45-.03.66-.08.21-.06.44-.13.68-.22v.92Z"/>
    <path class="cls-5" d="m191.16,470.61v-8.5h1.03v8.5h-1.03Zm5.86,0v-5.15c0-.94-.21-1.61-.63-2.01s-.93-.6-1.55-.6c-.45,0-.87.1-1.28.29-.41.19-.74.49-.99.89-.26.4-.39.92-.39,1.56l-.41-1.34c.21-.55.49-1.01.84-1.35s.75-.6,1.17-.76.85-.24,1.28-.24c.55,0,1.05.12,1.5.37.45.25.81.62,1.08,1.12.27.5.4,1.12.4,1.87v5.34h-1.03Zm5.86,0v-5.15c0-.94-.21-1.61-.63-2.01s-.93-.6-1.55-.6c-.45,0-.87.1-1.28.29-.41.19-.74.49-.99.89-.26.4-.39.92-.39,1.56l-.56-1.34c.23-.55.53-1.01.91-1.35s.79-.6,1.23-.76.88-.24,1.3-.24c.55,0,1.05.13,1.5.38s.81.64,1.08,1.17c.27.52.4,1.18.4,1.99v5.17h-1.03Z"/>
    <path class="cls-5" d="m210.32,470.81c-1.31,0-2.34-.38-3.07-1.14-.74-.76-1.1-1.81-1.1-3.15,0-.93.18-1.74.53-2.43.35-.69.84-1.23,1.46-1.62.62-.38,1.33-.58,2.12-.58.63,0,1.18.12,1.64.35.47.23.83.55,1.09.94.26.4.39.83.39,1.31s-.12.84-.35,1.16c-.23.32-.56.57-.99.75-.42.18-.92.3-1.48.36-.56.06-1.17.05-1.82,0-.65-.06-1.32-.17-2.02-.33v-.78c.66.15,1.32.25,1.98.3.66.05,1.26.04,1.81-.03.55-.07.99-.23,1.32-.46s.5-.57.5-1.01-.18-.81-.53-1.15c-.35-.33-.86-.5-1.52-.5-.59,0-1.12.15-1.58.45-.46.3-.82.72-1.08,1.27-.26.54-.39,1.19-.39,1.94s.12,1.33.37,1.84.6.9,1.07,1.17c.47.27,1.04.41,1.73.41.45,0,.9-.06,1.38-.19.47-.12.96-.32,1.45-.58v.92c-.33.2-.73.39-1.2.55-.47.17-1.03.25-1.68.25Z"/>
    <path class="cls-5" d="m215.62,470.61v-8.5h1.03v8.5h-1.03Zm6.03,0v-5.15c0-.62-.11-1.12-.33-1.5-.22-.38-.51-.66-.87-.83-.36-.18-.75-.26-1.16-.26-.45,0-.87.1-1.28.29-.41.19-.74.49-.99.89-.26.4-.39.92-.39,1.56l-.41-1.34c.21-.55.49-1.01.85-1.35s.76-.6,1.2-.76.87-.24,1.29-.24c.55,0,1.06.12,1.53.37.47.25.85.63,1.14,1.15.29.52.43,1.18.43,1.98v5.2h-1.03Z"/>
    <path class="cls-5" d="m229.22,470.47c-.24.1-.48.18-.71.25-.23.06-.5.09-.8.09-.65,0-1.16-.19-1.53-.57-.37-.38-.56-1-.56-1.86v-5.36h-.84c-.19,0-.33-.04-.41-.12-.08-.08-.12-.17-.12-.27,0-.11.04-.22.12-.32.08-.1.2-.21.36-.32l1.92-1.31v1.43h2.91v.92h-2.91v5.27c0,.57.1.97.3,1.21s.51.36.93.36c.23,0,.45-.03.66-.08.21-.06.44-.13.68-.22v.92Z"/>
    <path class="cls-5" d="m233.87,470.81c-.67,0-1.26-.09-1.76-.26s-.9-.38-1.18-.62v-1.04c.47.36.95.63,1.45.81s1,.26,1.52.26c.73,0,1.26-.15,1.58-.44.33-.29.49-.64.49-1.04,0-.37-.12-.67-.36-.89-.24-.22-.55-.4-.92-.54s-.78-.26-1.2-.38c-.42-.12-.82-.26-1.2-.43s-.69-.41-.92-.71c-.24-.3-.36-.69-.36-1.18,0-.44.11-.85.33-1.22.22-.37.54-.67.98-.89.44-.22.98-.33,1.64-.33.54,0,1.01.07,1.42.22.41.15.73.34.97.58.23.24.35.49.35.76,0,.15-.04.26-.11.34-.07.08-.17.12-.28.12-.16,0-.29-.06-.39-.18-.1-.12-.22-.26-.36-.41-.14-.15-.33-.29-.57-.41-.25-.12-.59-.18-1.02-.18-.69,0-1.18.15-1.49.46-.31.31-.46.65-.46,1.02s.12.65.36.86c.24.21.55.38.93.51.38.13.78.25,1.2.37.42.12.82.27,1.2.45s.68.43.92.74c.24.31.36.73.36,1.25,0,.43-.11.83-.32,1.2-.21.37-.54.66-.99.88-.45.22-1.04.32-1.77.32Z"/>
    <path class="cls-5" d="m240.02,470.81c-.29,0-.5-.08-.64-.25-.14-.16-.21-.35-.21-.57,0-.23.07-.42.21-.58s.36-.24.64-.24.5.08.64.24c.14.16.21.35.21.58s-.07.41-.21.57c-.14.17-.36.25-.64.25Z"/>
    <path class="cls-5" d="m246.67,470.61l4.45-11.02c.1-.26.22-.45.37-.57.14-.12.31-.18.49-.18.19,0,.36.06.5.18.14.12.26.31.36.57l4.42,11.02h-1.13l-4.44-11.23h.58l-4.45,11.23h-1.15Zm2.36-3.47v-.95h5.88v.95h-5.88Z"/>
    <path class="cls-5" d="m260.04,458.36v10.29c0,.46.07.78.21.95.14.17.37.26.69.26.14,0,.27-.01.39-.03.13-.02.26-.06.41-.1v.85c-.33.16-.68.24-1.04.24-.62,0-1.05-.19-1.31-.58-.26-.39-.39-.87-.39-1.46v-10.41h1.03Z"/>
    <path class="cls-5" d="m264.7,458.36v10.29c0,.46.07.78.21.95.14.17.37.26.69.26.14,0,.27-.01.39-.03.12-.02.26-.06.41-.1v.85c-.33.16-.68.24-1.04.24-.62,0-1.05-.19-1.31-.58-.26-.39-.38-.87-.38-1.46v-10.41h1.03Z"/>
    <path class="cls-5" d="m274.63,470.81c-.78,0-1.41-.21-1.9-.62-.49-.41-.74-1-.74-1.76,0-.66.21-1.18.62-1.57.42-.39,1.04-.68,1.88-.86l1.44-.31c.64-.14,1.05-.28,1.24-.43.19-.15.28-.37.28-.68v1.33c-.09.1-.24.2-.44.3-.2.1-.5.19-.9.28l-1.37.29c-.49.1-.89.28-1.2.52-.31.24-.46.61-.46,1.1s.16.87.47,1.15c.31.28.73.42,1.24.42.45,0,.87-.1,1.28-.31s.74-.52.99-.92.39-.88.39-1.44l.29,1.29c-.24.79-.65,1.36-1.24,1.71s-1.21.52-1.88.52Zm4.28-.2h-1.03c-.08-.18-.15-.45-.21-.79-.06-.35-.09-.69-.09-1.05l-.12-.32v-3.93c0-.66-.19-1.11-.57-1.34s-.87-.36-1.45-.36c-.51,0-.92.06-1.21.19-.29.12-.52.27-.68.44-.16.17-.3.32-.41.44-.11.12-.26.19-.43.19-.11,0-.21-.03-.29-.1-.08-.07-.12-.17-.12-.31,0-.1.03-.22.09-.36.06-.14.16-.28.31-.44.62-.65,1.53-.97,2.74-.97.58,0,1.1.08,1.56.25.46.16.82.44,1.09.82.27.39.4.9.4,1.55v3.74c0,.49.04.94.13,1.35.08.41.18.75.3,1Z"/>
    <path class="cls-5" d="m284.63,470.81c-1.03,0-1.87-.29-2.52-.88-.65-.58-.98-1.49-.98-2.73v-5.1h1.03v5.08c0,.9.22,1.57.66,2.01.44.44,1.04.66,1.81.66s1.38-.22,1.82-.66c.43-.44.65-1.11.65-2.01v-5.08h1.03v5.1c0,1.24-.33,2.15-.98,2.73-.65.58-1.49.88-2.52.88Z"/>
    <path class="cls-5" d="m294.93,470.47c-.24.1-.48.18-.71.25-.23.06-.5.09-.8.09-.65,0-1.16-.19-1.53-.57-.37-.38-.56-1-.56-1.86v-5.36h-.84c-.19,0-.33-.04-.41-.12s-.12-.17-.12-.27c0-.11.04-.22.12-.32.08-.1.2-.21.36-.32l1.92-1.31v1.43h2.91v.92h-2.91v5.27c0,.57.1.97.3,1.21.2.24.51.36.93.36.23,0,.45-.03.66-.08.21-.06.44-.13.68-.22v.92Z"/>
    <path class="cls-5" d="m296.2,466.46c0-.92.17-1.72.52-2.4.35-.68.83-1.21,1.46-1.59.62-.38,1.34-.57,2.15-.57s1.48.18,2.09.54c.6.36,1.08.86,1.42,1.5.34.65.51,1.42.51,2.31s-.17,1.7-.52,2.39c-.35.69-.83,1.22-1.45,1.6-.62.38-1.34.57-2.16.57s-1.49-.18-2.09-.54c-.61-.36-1.08-.86-1.42-1.51-.34-.65-.51-1.42-.51-2.3Zm1.06-.05c0,.73.13,1.35.39,1.88s.61.93,1.06,1.22.96.42,1.52.42,1.1-.15,1.57-.44c.46-.29.83-.71,1.1-1.26.27-.54.4-1.18.4-1.92s-.13-1.35-.38-1.88-.61-.93-1.05-1.22-.95-.42-1.52-.42-1.1.15-1.57.44c-.46.29-.83.71-1.1,1.25-.27.54-.4,1.18-.4,1.93Z"/>
    <path class="cls-5" d="m306.72,470.61v-8.5h1.03v8.5h-1.03Zm5.86,0v-5.15c0-.94-.21-1.61-.63-2.01s-.93-.6-1.55-.6c-.45,0-.87.1-1.28.29-.41.19-.74.49-.99.89s-.39.92-.39,1.56l-.41-1.34c.21-.55.49-1.01.84-1.35.35-.35.75-.6,1.17-.76.43-.16.85-.24,1.28-.24.55,0,1.05.12,1.5.37.45.25.81.62,1.08,1.12.27.5.4,1.12.4,1.87v5.34h-1.03Zm5.86,0v-5.15c0-.94-.21-1.61-.62-2.01s-.93-.6-1.55-.6c-.45,0-.87.1-1.28.29-.41.19-.74.49-.99.89-.26.4-.39.92-.39,1.56l-.57-1.34c.23-.55.53-1.01.91-1.35s.79-.6,1.23-.76.88-.24,1.3-.24c.55,0,1.05.13,1.5.38s.81.64,1.08,1.17.4,1.18.4,1.99v5.17h-1.03Z"/>
    <path class="cls-5" d="m324.32,470.81c-.78,0-1.41-.21-1.9-.62-.49-.41-.74-1-.74-1.76,0-.66.21-1.18.62-1.57.42-.39,1.04-.68,1.88-.86l1.44-.31c.64-.14,1.05-.28,1.24-.43.19-.15.28-.37.28-.68v1.33c-.09.1-.24.2-.44.3-.2.1-.5.19-.9.28l-1.37.29c-.49.1-.89.28-1.2.52-.31.24-.46.61-.46,1.1s.16.87.47,1.15c.31.28.73.42,1.24.42.45,0,.87-.1,1.28-.31s.74-.52.99-.92.39-.88.39-1.44l.29,1.29c-.24.79-.65,1.36-1.24,1.71s-1.21.52-1.88.52Zm4.28-.2h-1.03c-.08-.18-.15-.45-.21-.79-.06-.35-.09-.69-.09-1.05l-.12-.32v-3.93c0-.66-.19-1.11-.57-1.34s-.87-.36-1.45-.36c-.51,0-.92.06-1.21.19-.29.12-.52.27-.68.44-.16.17-.3.32-.41.44-.11.12-.26.19-.43.19-.11,0-.21-.03-.29-.1-.08-.07-.12-.17-.12-.31,0-.1.03-.22.09-.36.06-.14.16-.28.31-.44.62-.65,1.53-.97,2.74-.97.58,0,1.1.08,1.56.25.46.16.82.44,1.09.82.27.39.4.9.4,1.55v3.74c0,.49.04.94.13,1.35.08.41.18.75.3,1Z"/>
    <path class="cls-5" d="m334.88,470.47c-.24.1-.48.18-.71.25-.23.06-.5.09-.8.09-.65,0-1.16-.19-1.53-.57-.37-.38-.56-1-.56-1.86v-5.36h-.84c-.19,0-.33-.04-.41-.12s-.12-.17-.12-.27c0-.11.04-.22.12-.32.08-.1.2-.21.36-.32l1.92-1.31v1.43h2.91v.92h-2.91v5.27c0,.57.1.97.3,1.21.2.24.51.36.93.36.23,0,.45-.03.66-.08.21-.06.44-.13.68-.22v.92Z"/>
    <path class="cls-5" d="m337.54,460.34c-.25,0-.44-.07-.57-.22-.13-.15-.19-.32-.19-.53s.06-.38.19-.53c.12-.15.31-.22.57-.22s.44.07.57.22c.12.15.19.32.19.53s-.06.38-.19.53c-.13.15-.31.22-.57.22Zm-.51,10.27v-8.5c.34.03.68.03,1.03,0v8.5h-1.03Z"/>
    <path class="cls-5" d="m347.4,463.6c0,.15-.04.26-.13.34-.08.08-.19.12-.32.12-.18,0-.33-.07-.45-.2-.11-.13-.24-.28-.39-.44s-.34-.31-.58-.44c-.25-.13-.59-.2-1.04-.2-.94,0-1.67.33-2.2.99s-.8,1.53-.8,2.62c0,.74.13,1.36.38,1.88.25.52.61.91,1.08,1.18.47.27,1.03.41,1.68.41.43,0,.87-.06,1.29-.19.43-.12.87-.32,1.33-.58v.92c-.31.2-.67.39-1.1.55-.42.17-.95.25-1.58.25-1.29,0-2.31-.39-3.06-1.17-.75-.78-1.12-1.84-1.12-3.18,0-.91.17-1.7.52-2.39.35-.69.83-1.22,1.45-1.6.62-.38,1.33-.57,2.14-.57.61,0,1.12.1,1.54.29.42.19.75.41.98.66.24.25.36.5.36.75Z"/>
    <path class="cls-5" d="m351.67,470.81c-.78,0-1.41-.21-1.9-.62-.49-.41-.74-1-.74-1.76,0-.66.21-1.18.62-1.57.42-.39,1.04-.68,1.88-.86l1.44-.31c.64-.14,1.05-.28,1.24-.43.19-.15.28-.37.28-.68v1.33c-.09.1-.24.2-.44.3-.2.1-.5.19-.9.28l-1.37.29c-.49.1-.89.28-1.2.52-.31.24-.46.61-.46,1.1s.16.87.47,1.15c.31.28.73.42,1.24.42.45,0,.87-.1,1.28-.31s.74-.52.99-.92c.26-.4.38-.88.38-1.44l.29,1.29c-.24.79-.65,1.36-1.24,1.71-.59.35-1.21.52-1.88.52Zm4.28-.2h-1.03c-.08-.18-.15-.45-.21-.79-.06-.35-.09-.69-.09-1.05l-.12-.32v-3.93c0-.66-.19-1.11-.57-1.34-.38-.24-.87-.36-1.45-.36-.51,0-.92.06-1.21.19s-.52.27-.68.44-.3.32-.41.44-.26.19-.43.19c-.11,0-.21-.03-.29-.1-.08-.07-.12-.17-.12-.31,0-.1.03-.22.08-.36.06-.14.16-.28.31-.44.62-.65,1.53-.97,2.74-.97.58,0,1.1.08,1.56.25.46.16.82.44,1.09.82.27.39.4.9.4,1.55v3.74c0,.49.04.94.13,1.35s.19.75.3,1Z"/>
    <path class="cls-5" d="m359.42,458.36v10.29c0,.46.07.78.21.95.14.17.37.26.69.26.14,0,.27-.01.39-.03.13-.02.26-.06.41-.1v.85c-.33.16-.68.24-1.04.24-.62,0-1.05-.19-1.31-.58-.26-.39-.39-.87-.39-1.46v-10.41h1.03Z"/>
    <path class="cls-5" d="m364.09,458.36v10.29c0,.46.07.78.21.95.14.17.37.26.69.26.14,0,.27-.01.39-.03.12-.02.26-.06.41-.1v.85c-.33.16-.68.24-1.04.24-.62,0-1.05-.19-1.31-.58-.26-.39-.38-.87-.38-1.46v-10.41h1.03Z"/>
    <path class="cls-5" d="m369.75,470.61l-3.6-8.5h1.11l3.48,8.5h-.99Zm-2.28,3.61c-.19,0-.39-.02-.57-.07-.19-.05-.34-.12-.46-.21-.12-.1-.18-.22-.18-.38,0-.12.04-.22.12-.29s.18-.1.31-.1c.15,0,.29.03.41.08.12.06.27.09.45.09.19,0,.4-.07.62-.21s.46-.41.72-.8c.26-.39.55-.96.87-1.71l4.62-8.5-3.8,8.98c-.47,1.11-.94,1.91-1.41,2.4s-1.04.73-1.69.73Zm3.31-3.61h-.99l3.48-8.5h1.11l-3.6,8.5Z"/>
    <path class="cls-5" d="m375.68,470.81c-.29,0-.5-.08-.64-.25-.14-.16-.21-.35-.21-.57,0-.23.07-.42.21-.58.14-.16.36-.24.64-.24s.5.08.64.24.21.35.21.58-.07.41-.21.57c-.14.17-.36.25-.64.25Zm-.86,1.97c.23-.46.39-.89.47-1.28.08-.39.11-.79.08-1.2l1.16-.31c0,.43-.1.91-.31,1.44-.21.53-.46.98-.75,1.35h-.65Z"/>
    <path class="cls-5" d="m385.65,470.81c-.78,0-1.41-.21-1.9-.62-.49-.41-.74-1-.74-1.76,0-.66.21-1.18.62-1.57.42-.39,1.04-.68,1.88-.86l1.44-.31c.64-.14,1.05-.28,1.24-.43.19-.15.28-.37.28-.68v1.33c-.09.1-.24.2-.44.3-.2.1-.5.19-.9.28l-1.37.29c-.49.1-.89.28-1.2.52-.31.24-.46.61-.46,1.1s.16.87.47,1.15c.31.28.73.42,1.24.42.45,0,.87-.1,1.28-.31s.74-.52.99-.92.39-.88.39-1.44l.29,1.29c-.24.79-.65,1.36-1.24,1.71s-1.21.52-1.88.52Zm4.28-.2h-1.03c-.08-.18-.15-.45-.21-.79-.06-.35-.09-.69-.09-1.05l-.12-.32v-3.93c0-.66-.19-1.11-.57-1.34s-.87-.36-1.45-.36c-.51,0-.92.06-1.21.19-.29.12-.52.27-.68.44-.16.17-.3.32-.41.44-.11.12-.26.19-.43.19-.11,0-.21-.03-.29-.1-.08-.07-.12-.17-.12-.31,0-.1.03-.22.09-.36.06-.14.16-.28.31-.44.62-.65,1.53-.97,2.74-.97.58,0,1.1.08,1.56.25.46.16.82.44,1.09.82.27.39.4.9.4,1.55v3.74c0,.49.04.94.13,1.35.08.41.18.75.3,1Z"/>
    <path class="cls-5" d="m393.41,458.36v10.29c0,.46.07.78.21.95.14.17.37.26.69.26.14,0,.27-.01.39-.03.12-.02.26-.06.41-.1v.85c-.33.16-.68.24-1.04.24-.62,0-1.05-.19-1.31-.58-.26-.39-.38-.87-.38-1.46v-10.41h1.03Z"/>
    <path class="cls-5" d="m398.07,458.36v10.29c0,.46.07.78.21.95.14.17.37.26.69.26.14,0,.27-.01.39-.03.13-.02.26-.06.41-.1v.85c-.33.16-.68.24-1.04.24-.62,0-1.05-.19-1.31-.58-.26-.39-.39-.87-.39-1.46v-10.41h1.03Z"/>
    <path class="cls-5" d="m406.54,460.34c-.25,0-.44-.07-.57-.22-.12-.15-.19-.32-.19-.53s.06-.38.19-.53c.13-.15.31-.22.57-.22s.44.07.57.22c.13.15.19.32.19.53s-.06.38-.19.53c-.13.15-.31.22-.57.22Zm-.51,10.27v-8.5c.34.03.69.03,1.03,0v8.5h-1.03Z"/>
    <path class="cls-5" d="m410.01,470.61v-8.5h1.03v8.5h-1.03Zm6.03,0v-5.15c0-.62-.11-1.12-.33-1.5s-.5-.66-.87-.83c-.36-.18-.75-.26-1.16-.26-.45,0-.87.1-1.28.29-.41.19-.74.49-.99.89-.26.4-.39.92-.39,1.56l-.41-1.34c.21-.55.49-1.01.85-1.35.36-.35.76-.6,1.2-.76s.87-.24,1.29-.24c.55,0,1.06.12,1.53.37.47.25.85.63,1.14,1.15s.43,1.18.43,1.98v5.2h-1.03Z"/>
    <path class="cls-5" d="m21.36,491.02l-3.6-8.5h1.11l3.48,8.5h-.99Zm-2.28,3.61c-.19,0-.39-.02-.57-.07-.19-.05-.34-.12-.46-.21-.12-.1-.18-.22-.18-.38,0-.12.04-.22.12-.29.08-.07.18-.1.31-.1.15,0,.29.03.41.08s.27.09.45.09c.19,0,.4-.07.62-.21s.46-.41.72-.8c.26-.39.55-.96.87-1.71l4.62-8.5-3.8,8.98c-.47,1.11-.94,1.91-1.41,2.4-.47.49-1.04.73-1.69.73Zm3.31-3.61h-.99l3.48-8.5h1.11l-3.6,8.5Z"/>
    <path class="cls-5" d="m26.82,486.87c0-.92.17-1.72.52-2.4.35-.68.83-1.21,1.46-1.59.62-.38,1.34-.57,2.15-.57s1.48.18,2.09.54c.6.36,1.08.86,1.42,1.5.34.65.51,1.42.51,2.31s-.17,1.7-.52,2.39c-.35.69-.83,1.22-1.45,1.6-.62.38-1.34.57-2.16.57s-1.48-.18-2.09-.54c-.61-.36-1.08-.86-1.42-1.51-.34-.65-.51-1.42-.51-2.3Zm1.06-.05c0,.73.13,1.35.39,1.88.26.53.61.93,1.06,1.22s.96.42,1.52.42,1.1-.15,1.57-.44c.46-.29.83-.71,1.1-1.26.27-.54.4-1.18.4-1.92s-.13-1.35-.39-1.88-.61-.93-1.05-1.22-.95-.42-1.52-.42-1.1.15-1.57.44c-.46.29-.83.71-1.1,1.25-.27.54-.4,1.18-.4,1.93Z"/>
    <path class="cls-5" d="m40.65,491.22c-1.03,0-1.87-.29-2.52-.88s-.98-1.49-.98-2.73v-5.1h1.03v5.08c0,.9.22,1.57.66,2.01.44.44,1.04.66,1.81.66s1.38-.22,1.82-.66c.43-.44.65-1.11.65-2.01v-5.08h1.03v5.1c0,1.24-.33,2.15-.98,2.73s-1.49.88-2.52.88Z"/>
    <path class="cls-5" d="m46.93,491.02v-8.5h1.03v8.5h-1.03Zm1.03-5.02l-.41-1.34c.31-.84.69-1.44,1.15-1.8.46-.36.92-.54,1.4-.54.22,0,.4.03.56.09.15.06.27.14.36.25.09.1.13.23.13.37,0,.14-.04.25-.13.33s-.21.13-.39.13c-.14,0-.27-.02-.4-.06s-.28-.06-.44-.06c-.54,0-.98.25-1.32.76-.34.5-.51,1.13-.51,1.88Z"/>
    <path class="cls-5" d="m58.1,487.96l-1.03-.66v-8.52h1.03v9.18Zm2.81,3.27c-1.18,0-2.11-.35-2.8-1.06-.69-.71-1.04-1.66-1.04-2.87h1.03c0,.87.26,1.59.78,2.14.52.56,1.2.83,2.03.83.9,0,1.62-.32,2.17-.97.54-.65.81-1.5.81-2.57,0-.69-.13-1.3-.39-1.82s-.61-.93-1.07-1.22-.99-.43-1.61-.43c-.8,0-1.45.25-1.96.76-.51.5-.76,1.17-.76,1.98l-.41-1.34c.3-.74.73-1.31,1.3-1.73.57-.41,1.26-.62,2.06-.62.75,0,1.43.18,2.02.54.59.36,1.06.87,1.4,1.53.34.66.51,1.44.51,2.35s-.17,1.66-.5,2.34c-.33.67-.8,1.2-1.41,1.58-.61.38-1.33.57-2.17.57Z"/>
    <path class="cls-5" d="m67.38,491.02v-8.5h1.03v8.5h-1.03Zm1.03-5.02l-.41-1.34c.31-.84.69-1.44,1.15-1.8.46-.36.92-.54,1.4-.54.22,0,.4.03.56.09.15.06.27.14.36.25.09.1.13.23.13.37,0,.14-.04.25-.13.33s-.21.13-.39.13c-.14,0-.27-.02-.4-.06s-.28-.06-.44-.06c-.54,0-.98.25-1.32.76-.34.5-.51,1.13-.51,1.88Z"/>
    <path class="cls-5" d="m75.45,491.22c-.78,0-1.41-.21-1.9-.62-.49-.41-.74-1-.74-1.76,0-.66.21-1.18.62-1.57.42-.39,1.04-.68,1.88-.86l1.44-.31c.64-.14,1.05-.28,1.24-.43.19-.15.28-.37.28-.68v1.33c-.09.1-.24.2-.44.3s-.5.19-.9.28l-1.37.29c-.49.1-.89.28-1.2.52-.31.24-.46.61-.46,1.1s.16.87.47,1.15c.31.28.73.42,1.24.42.45,0,.87-.1,1.28-.31s.74-.52.99-.92c.26-.4.39-.88.39-1.44l.29,1.29c-.24.79-.65,1.36-1.24,1.71-.59.35-1.21.52-1.88.52Zm4.28-.2h-1.03c-.08-.18-.15-.45-.21-.79s-.09-.69-.09-1.05l-.12-.32v-3.93c0-.66-.19-1.11-.57-1.34-.38-.24-.87-.36-1.45-.36-.51,0-.92.06-1.21.19-.29.12-.52.27-.68.44-.16.17-.3.32-.41.44-.11.12-.26.19-.43.19-.11,0-.21-.03-.29-.1-.08-.07-.12-.17-.12-.31,0-.1.03-.22.09-.36.06-.14.16-.28.31-.44.62-.65,1.53-.97,2.74-.97.58,0,1.1.08,1.56.25.46.16.82.44,1.09.82.27.39.4.9.4,1.55v3.74c0,.49.04.94.13,1.35.09.41.19.75.3,1Z"/>
    <path class="cls-5" d="m82.21,491.02v-8.5h1.03v8.5h-1.03Zm6.03,0v-5.15c0-.62-.11-1.12-.33-1.5-.22-.38-.51-.66-.87-.83-.36-.18-.75-.26-1.16-.26-.45,0-.87.1-1.28.29-.41.19-.74.49-.99.89-.26.4-.39.92-.39,1.56l-.41-1.34c.21-.55.49-1.01.85-1.35s.76-.6,1.2-.76.87-.24,1.29-.24c.55,0,1.06.12,1.53.37.47.25.85.63,1.14,1.15.29.52.43,1.18.43,1.98v5.2h-1.03Z"/>
    <path class="cls-5" d="m98.77,488.88c-.29.73-.71,1.3-1.28,1.72-.57.42-1.26.63-2.07.63-.74,0-1.41-.18-2.01-.54-.6-.36-1.07-.88-1.41-1.54-.34-.66-.51-1.44-.51-2.34s.17-1.68.51-2.35c.34-.67.81-1.19,1.41-1.57.6-.38,1.3-.57,2.09-.57s1.43.18,1.97.55c.54.37.91.89,1.11,1.56l-.21,1.58c0-.52-.12-.99-.36-1.4-.24-.41-.56-.74-.98-.98s-.89-.36-1.42-.36c-.59,0-1.12.15-1.58.45-.46.3-.81.71-1.07,1.24-.26.53-.39,1.14-.39,1.85s.13,1.3.39,1.82c.26.52.61.93,1.07,1.22.46.29.99.43,1.61.43.81,0,1.47-.25,1.97-.76.5-.5.75-1.17.75-1.98l.41,1.34Zm.62-10.1v12.25h-1.03v-12.25h1.03Z"/>
    <path class="cls-5" d="m102.42,482.51l-.43-2.52c-.05-.26-.04-.47.03-.63.06-.16.16-.27.28-.35.13-.07.26-.11.41-.11s.29.04.41.11c.13.07.22.19.28.35.06.16.07.37.03.63l-.43,2.52h-.58Z"/>
    <path class="cls-5" d="m108.26,491.22c-.67,0-1.26-.09-1.76-.26s-.9-.38-1.18-.62v-1.04c.47.36.95.63,1.45.81s1,.26,1.52.26c.73,0,1.26-.15,1.58-.44.33-.29.49-.64.49-1.04,0-.37-.12-.67-.36-.89-.24-.22-.55-.4-.92-.54s-.78-.26-1.2-.38c-.42-.12-.82-.26-1.2-.43s-.69-.41-.92-.71c-.24-.3-.36-.69-.36-1.18,0-.44.11-.85.33-1.22.22-.37.54-.67.98-.89.44-.22.98-.33,1.64-.33.54,0,1.01.07,1.42.22.41.15.73.34.97.58.23.24.35.49.35.76,0,.15-.04.26-.11.34-.07.08-.17.12-.28.12-.16,0-.29-.06-.39-.18-.1-.12-.22-.26-.36-.41-.14-.15-.33-.29-.57-.41s-.59-.18-1.02-.18c-.69,0-1.18.15-1.49.46-.31.31-.46.65-.46,1.02s.12.65.36.86c.24.21.55.38.93.51.38.13.78.25,1.2.37s.82.27,1.2.45.69.43.92.74c.24.31.36.73.36,1.25,0,.43-.11.83-.32,1.2-.21.37-.54.66-.99.88-.45.22-1.04.32-1.77.32Z"/>
    <path class="cls-5" d="m120.11,491.02l-3.6-8.5h1.11l3.48,8.5h-.99Zm1.03,0h-.99l3.48-8.5h1.11l-3.6,8.5Z"/>
    <path class="cls-5" d="m125.58,486.87c0-.92.17-1.72.52-2.4.35-.68.83-1.21,1.46-1.59.62-.38,1.34-.57,2.15-.57s1.48.18,2.09.54c.6.36,1.08.86,1.42,1.5.34.65.51,1.42.51,2.31s-.17,1.7-.52,2.39c-.35.69-.83,1.22-1.45,1.6-.62.38-1.34.57-2.16.57s-1.48-.18-2.09-.54c-.61-.36-1.08-.86-1.42-1.51-.34-.65-.51-1.42-.51-2.3Zm1.06-.05c0,.73.13,1.35.39,1.88.26.53.61.93,1.06,1.22s.96.42,1.52.42,1.1-.15,1.57-.44c.46-.29.83-.71,1.1-1.26.27-.54.4-1.18.4-1.92s-.13-1.35-.39-1.88-.61-.93-1.05-1.22-.95-.42-1.52-.42-1.1.15-1.57.44c-.46.29-.83.71-1.1,1.25-.27.54-.4,1.18-.4,1.93Z"/>
    <path class="cls-5" d="m136.58,480.75c-.25,0-.44-.07-.57-.22-.13-.15-.19-.32-.19-.53s.06-.38.19-.53c.13-.15.31-.22.57-.22s.44.07.57.22c.13.15.19.32.19.53s-.06.38-.19.53c-.13.15-.31.22-.57.22Zm-.51,10.27v-8.5c.34.03.69.03,1.03,0v8.5h-1.03Z"/>
    <path class="cls-5" d="m146.44,484.01c0,.15-.04.26-.13.34-.09.08-.19.12-.32.12-.18,0-.33-.07-.45-.2-.11-.13-.24-.28-.39-.44-.14-.16-.34-.31-.58-.44-.25-.13-.59-.2-1.04-.2-.94,0-1.67.33-2.2.99-.53.66-.8,1.53-.8,2.62,0,.74.13,1.36.38,1.88.25.52.61.91,1.08,1.18.47.27,1.03.41,1.68.41.43,0,.86-.06,1.29-.19s.87-.32,1.33-.58v.92c-.31.2-.67.39-1.1.55-.42.17-.95.25-1.58.25-1.29,0-2.31-.39-3.06-1.17-.75-.78-1.12-1.84-1.12-3.18,0-.91.17-1.7.52-2.39.35-.69.83-1.22,1.45-1.6.62-.38,1.33-.57,2.14-.57.61,0,1.12.1,1.54.29.42.19.75.41.98.66.24.25.36.5.36.75Z"/>
    <path class="cls-5" d="m152.03,491.22c-1.31,0-2.34-.38-3.07-1.14-.74-.76-1.1-1.81-1.1-3.15,0-.93.18-1.74.53-2.43.35-.69.84-1.23,1.46-1.62.62-.38,1.33-.58,2.12-.58.63,0,1.18.12,1.64.35.47.23.83.55,1.09.94.26.4.39.83.39,1.31s-.12.84-.35,1.16c-.23.32-.56.57-.99.75-.42.18-.92.3-1.48.36-.56.06-1.17.05-1.82,0-.65-.06-1.32-.17-2.02-.33v-.78c.66.15,1.32.25,1.98.3.66.05,1.26.04,1.81-.03.55-.07.99-.23,1.32-.46s.5-.57.5-1.01-.18-.81-.53-1.15c-.35-.33-.86-.5-1.52-.5-.59,0-1.12.15-1.58.45-.46.3-.82.72-1.08,1.27-.26.54-.39,1.19-.39,1.94s.12,1.33.37,1.84.6.9,1.07,1.17c.47.27,1.04.41,1.73.41.45,0,.9-.06,1.38-.19.47-.12.96-.32,1.45-.58v.92c-.33.2-.73.39-1.2.55-.47.17-1.03.25-1.68.25Z"/>
    <path class="cls-5" d="m157.97,491.22c-.29,0-.5-.08-.64-.25-.14-.16-.21-.35-.21-.57,0-.23.07-.42.21-.58.14-.16.36-.24.64-.24s.5.08.64.24c.14.16.21.35.21.58s-.07.41-.21.57c-.14.17-.36.25-.64.25Zm-.86,1.97c.23-.46.39-.89.47-1.28.09-.39.11-.79.08-1.2l1.16-.31c0,.43-.1.91-.31,1.44s-.46.98-.75,1.35h-.65Z"/>
    <path class="cls-5" d="m167.94,491.22c-.78,0-1.41-.21-1.9-.62-.49-.41-.74-1-.74-1.76,0-.66.21-1.18.62-1.57.42-.39,1.04-.68,1.88-.86l1.44-.31c.64-.14,1.05-.28,1.24-.43.19-.15.28-.37.28-.68v1.33c-.09.1-.24.2-.44.3s-.5.19-.9.28l-1.37.29c-.49.1-.89.28-1.2.52-.31.24-.46.61-.46,1.1s.16.87.47,1.15c.31.28.73.42,1.24.42.45,0,.87-.1,1.28-.31s.74-.52.99-.92c.26-.4.39-.88.39-1.44l.29,1.29c-.24.79-.65,1.36-1.24,1.71-.59.35-1.21.52-1.88.52Zm4.28-.2h-1.03c-.08-.18-.15-.45-.21-.79s-.09-.69-.09-1.05l-.12-.32v-3.93c0-.66-.19-1.11-.57-1.34-.38-.24-.87-.36-1.45-.36-.51,0-.92.06-1.21.19-.29.12-.52.27-.68.44-.16.17-.3.32-.41.44-.11.12-.26.19-.43.19-.11,0-.21-.03-.29-.1-.08-.07-.12-.17-.12-.31,0-.1.03-.22.09-.36.06-.14.16-.28.31-.44.62-.65,1.53-.97,2.74-.97.58,0,1.1.08,1.56.25.46.16.82.44,1.09.82.27.39.4.9.4,1.55v3.74c0,.49.04.94.13,1.35.09.41.19.75.3,1Z"/>
    <path class="cls-5" d="m175.69,478.77v10.29c0,.46.07.78.21.95.14.17.37.26.69.26.14,0,.27-.01.39-.03s.26-.06.41-.1v.85c-.33.16-.68.24-1.04.24-.62,0-1.05-.19-1.31-.58-.26-.39-.39-.87-.39-1.46v-10.41h1.03Z"/>
    <path class="cls-5" d="m180.36,478.77v10.29c0,.46.07.78.21.95.14.17.37.26.69.26.14,0,.27-.01.39-.03s.26-.06.41-.1v.85c-.33.16-.68.24-1.04.24-.62,0-1.05-.19-1.31-.58-.26-.39-.39-.87-.39-1.46v-10.41h1.03Z"/>
    <path class="cls-5" d="m189.47,491.02l-2.64-8.5h1.11l2.45,8.5h-.92Zm.07,0l2.69-7.91c.09-.27.2-.47.33-.6.13-.13.28-.2.46-.2s.34.07.46.2c.13.13.23.33.33.6l2.69,7.91h-.96l-2.83-8.2h.62l-2.83,8.2h-.96Zm6.1,0l2.45-8.5h1.11l-2.64,8.5h-.93Z"/>
    <path class="cls-5" d="m201.51,480.75c-.25,0-.44-.07-.57-.22-.13-.15-.19-.32-.19-.53s.06-.38.19-.53c.13-.15.31-.22.57-.22s.44.07.57.22c.13.15.19.32.19.53s-.06.38-.19.53c-.13.15-.31.22-.57.22Zm-.51,10.27v-8.5c.34.03.69.03,1.03,0v8.5h-1.03Z"/>
    <path class="cls-5" d="m208.96,490.88c-.24.1-.48.18-.71.25-.23.06-.5.09-.8.09-.65,0-1.16-.19-1.53-.57-.37-.38-.56-1-.56-1.86v-5.36h-.84c-.19,0-.33-.04-.41-.12-.08-.08-.12-.17-.12-.27,0-.11.04-.22.12-.32.08-.1.2-.21.36-.32l1.92-1.31v1.43h2.91v.92h-2.91v5.27c0,.57.1.97.3,1.21s.51.36.93.36c.23,0,.45-.03.66-.08.21-.06.44-.13.68-.22v.92Z"/>
    <path class="cls-5" d="m211.09,491.02v-12.25h1.03v12.25h-1.03Zm6.03,0v-5.15c0-.62-.11-1.12-.33-1.5-.22-.38-.51-.66-.87-.83-.36-.18-.75-.26-1.16-.26-.45,0-.87.1-1.28.29-.41.19-.74.49-.99.89-.26.4-.39.92-.39,1.56l-.41-1.34c.22-.55.51-1.01.87-1.35s.76-.6,1.19-.76c.43-.16.86-.24,1.28-.24.55,0,1.06.12,1.53.37.47.25.85.63,1.14,1.15.29.52.43,1.18.43,1.98v5.2h-1.03Z"/>
    <path class="cls-5" d="m220.36,486.87c0-.92.17-1.72.52-2.4.35-.68.83-1.21,1.46-1.59.62-.38,1.34-.57,2.15-.57s1.48.18,2.09.54c.6.36,1.08.86,1.42,1.5.34.65.51,1.42.51,2.31s-.17,1.7-.52,2.39c-.35.69-.83,1.22-1.45,1.6-.62.38-1.34.57-2.16.57s-1.48-.18-2.09-.54c-.61-.36-1.08-.86-1.42-1.51-.34-.65-.51-1.42-.51-2.3Zm1.06-.05c0,.73.13,1.35.39,1.88.26.53.61.93,1.06,1.22s.96.42,1.52.42,1.1-.15,1.57-.44c.46-.29.83-.71,1.1-1.26.27-.54.4-1.18.4-1.92s-.13-1.35-.39-1.88-.61-.93-1.05-1.22-.95-.42-1.52-.42-1.1.15-1.57.44c-.46.29-.83.71-1.1,1.25-.27.54-.4,1.18-.4,1.93Z"/>
    <path class="cls-5" d="m234.18,491.22c-1.03,0-1.87-.29-2.52-.88s-.98-1.49-.98-2.73v-5.1h1.03v5.08c0,.9.22,1.57.66,2.01.44.44,1.04.66,1.81.66s1.38-.22,1.82-.66c.43-.44.65-1.11.65-2.01v-5.08h1.03v5.1c0,1.24-.33,2.15-.98,2.73-.65.58-1.49.88-2.52.88Z"/>
    <path class="cls-5" d="m244.48,490.88c-.24.1-.48.18-.71.25s-.5.09-.8.09c-.65,0-1.16-.19-1.53-.57-.37-.38-.56-1-.56-1.86v-5.36h-.84c-.19,0-.33-.04-.41-.12-.08-.08-.12-.17-.12-.27,0-.11.04-.22.12-.32.08-.1.2-.21.36-.32l1.92-1.31v1.43h2.91v.92h-2.91v5.27c0,.57.1.97.3,1.21.2.24.51.36.93.36.23,0,.45-.03.66-.08s.44-.13.68-.22v.92Z"/>
    <path class="cls-5" d="m250.75,491.02v-12.25h1.03v12.25h-1.03Zm6.03,0v-5.15c0-.62-.11-1.12-.33-1.5-.22-.38-.51-.66-.87-.83s-.75-.26-1.16-.26c-.45,0-.87.1-1.28.29-.41.19-.74.49-.99.89s-.39.92-.39,1.56l-.41-1.34c.22-.55.51-1.01.87-1.35.36-.35.76-.6,1.19-.76s.86-.24,1.29-.24c.55,0,1.06.12,1.53.37.47.25.85.63,1.14,1.15.29.52.43,1.18.43,1.98v5.2h-1.03Z"/>
    <path class="cls-5" d="m261.09,480.75c-.25,0-.44-.07-.57-.22-.12-.15-.19-.32-.19-.53s.06-.38.19-.53c.13-.15.31-.22.57-.22s.44.07.57.22c.13.15.19.32.19.53s-.06.38-.19.53c-.13.15-.31.22-.57.22Zm-.51,10.27v-8.5c.34.03.69.03,1.03,0v8.5h-1.03Z"/>
    <path class="cls-5" d="m264.56,491.02v-8.5h1.03v8.5h-1.03Zm1.03-5.02l-.41-1.34c.31-.84.69-1.44,1.15-1.8.46-.36.92-.54,1.4-.54.22,0,.4.03.56.09.15.06.27.14.36.25.08.1.13.23.13.37,0,.14-.04.25-.13.33-.09.08-.21.13-.39.13-.14,0-.27-.02-.4-.06-.13-.04-.28-.06-.44-.06-.54,0-.98.25-1.32.76s-.51,1.13-.51,1.88Z"/>
    <path class="cls-5" d="m271.08,480.75c-.25,0-.44-.07-.57-.22-.13-.15-.19-.32-.19-.53s.06-.38.19-.53c.12-.15.31-.22.57-.22s.44.07.57.22c.12.15.19.32.19.53s-.06.38-.19.53c-.13.15-.31.22-.57.22Zm-.51,10.27v-8.5c.34.03.68.03,1.03,0v8.5h-1.03Z"/>
    <path class="cls-5" d="m274.55,491.02v-8.5h1.03v8.5h-1.03Zm6.03,0v-5.15c0-.62-.11-1.12-.33-1.5-.22-.38-.51-.66-.87-.83s-.75-.26-1.16-.26c-.45,0-.87.1-1.28.29-.41.19-.74.49-.99.89s-.39.92-.39,1.56l-.41-1.34c.21-.55.49-1.01.85-1.35.36-.35.76-.6,1.2-.76s.87-.24,1.29-.24c.55,0,1.06.12,1.53.37.47.25.85.63,1.14,1.15.29.52.43,1.18.43,1.98v5.2h-1.03Z"/>
    <path class="cls-5" d="m287.67,494.62c-.74,0-1.38-.07-1.92-.2-.54-.13-.95-.3-1.23-.52-.13-.09-.22-.19-.29-.29-.07-.1-.1-.21-.1-.32s.04-.21.11-.3c.07-.08.19-.13.33-.13.16,0,.3.04.44.13.13.08.29.19.48.31.19.12.45.22.8.31.34.08.81.13,1.4.13.88,0,1.61-.13,2.19-.4s.87-.7.87-1.3c0-.36-.14-.66-.43-.88s-.82-.34-1.59-.34h-2.62c-.58,0-1.03-.08-1.34-.23-.31-.15-.53-.35-.66-.6-.13-.24-.19-.5-.19-.76,0-.49.17-.88.51-1.17.34-.29.82-.48,1.46-.57l1.54.42c-.71,0-1.25.06-1.61.18s-.61.27-.74.45c-.13.18-.19.36-.19.54,0,.27.11.47.33.59s.6.18,1.12.18h2.6c.84,0,1.52.17,2.03.5.51.33.76.88.76,1.64,0,.85-.34,1.5-1.02,1.95s-1.7.67-3.06.67Zm-.24-6.7c-.98,0-1.78-.24-2.41-.73-.62-.49-.93-1.16-.93-2.01,0-.58.15-1.08.45-1.51.3-.43.71-.76,1.23-1,.53-.24,1.12-.36,1.8-.36l2,.65c.33.16.6.35.8.57.2.22.34.46.44.73s.14.55.14.84c0,.57-.15,1.06-.45,1.49-.3.43-.71.75-1.23.99-.53.23-1.14.35-1.83.35Zm.03-.88c.73,0,1.33-.17,1.79-.5.46-.33.69-.82.69-1.45s-.22-1.09-.67-1.41-1.02-.48-1.73-.48-1.31.17-1.77.5c-.46.33-.69.82-.69,1.45s.22,1.09.67,1.41,1.02.48,1.71.48Zm4.64-3.61c-.49,0-.93-.02-1.31-.06-.38-.04-.86-.12-1.43-.23l-1.8-.83c.79,0,1.55.03,2.29.1.74.07,1.49.1,2.25.1v.92Z"/>
    <path class="cls-5" d="m300.22,491.22c-.78,0-1.41-.21-1.9-.62-.49-.41-.74-1-.74-1.76,0-.66.21-1.18.62-1.57.42-.39,1.04-.68,1.88-.86l1.44-.31c.64-.14,1.05-.28,1.24-.43.19-.15.28-.37.28-.68v1.33c-.09.1-.24.2-.44.3-.2.1-.5.19-.9.28l-1.37.29c-.49.1-.89.28-1.2.52-.31.24-.46.61-.46,1.1s.16.87.47,1.15c.31.28.73.42,1.24.42.45,0,.87-.1,1.28-.31s.74-.52.99-.92c.26-.4.38-.88.38-1.44l.29,1.29c-.24.79-.65,1.36-1.24,1.71-.59.35-1.21.52-1.88.52Zm4.28-.2h-1.03c-.08-.18-.15-.45-.21-.79-.06-.35-.09-.69-.09-1.05l-.12-.32v-3.93c0-.66-.19-1.11-.57-1.34-.38-.24-.87-.36-1.45-.36-.51,0-.92.06-1.21.19s-.52.27-.68.44-.3.32-.41.44-.26.19-.43.19c-.11,0-.21-.03-.29-.1-.08-.07-.12-.17-.12-.31,0-.1.03-.22.08-.36.06-.14.16-.28.31-.44.62-.65,1.53-.97,2.74-.97.58,0,1.1.08,1.56.25.46.16.82.44,1.09.82.27.39.4.9.4,1.55v3.74c0,.49.04.94.13,1.35s.19.75.3,1Z"/>
    <path class="cls-5" d="m306.98,491.02v-8.5h1.03v8.5h-1.03Zm6.03,0v-5.15c0-.62-.11-1.12-.33-1.5-.22-.38-.51-.66-.87-.83s-.75-.26-1.16-.26c-.45,0-.87.1-1.28.29-.41.19-.74.49-.99.89s-.39.92-.39,1.56l-.41-1.34c.21-.55.49-1.01.85-1.35.36-.35.76-.6,1.2-.76s.87-.24,1.29-.24c.55,0,1.06.12,1.53.37.47.25.85.63,1.14,1.15.29.52.43,1.18.43,1.98v5.2h-1.03Z"/>
    <path class="cls-5" d="m316.24,486.87c0-.92.17-1.72.52-2.4.35-.68.83-1.21,1.46-1.59.62-.38,1.34-.57,2.15-.57s1.48.18,2.09.54c.61.36,1.08.86,1.42,1.5s.51,1.42.51,2.31-.17,1.7-.52,2.39c-.35.69-.83,1.22-1.45,1.6-.62.38-1.34.57-2.16.57s-1.48-.18-2.09-.54c-.61-.36-1.08-.86-1.42-1.51-.34-.65-.51-1.42-.51-2.3Zm1.06-.05c0,.73.13,1.35.38,1.88.26.53.61.93,1.06,1.22s.96.42,1.52.42,1.1-.15,1.57-.44.83-.71,1.1-1.26c.27-.54.4-1.18.4-1.92s-.13-1.35-.39-1.88-.61-.93-1.05-1.22-.95-.42-1.52-.42-1.1.15-1.57.44c-.46.29-.83.71-1.1,1.25-.27.54-.4,1.18-.4,1.93Z"/>
    <path class="cls-5" d="m330.51,490.88c-.24.1-.48.18-.71.25-.23.06-.5.09-.8.09-.65,0-1.16-.19-1.53-.57-.37-.38-.56-1-.56-1.86v-5.36h-.84c-.19,0-.33-.04-.41-.12s-.12-.17-.12-.27c0-.11.04-.22.12-.32.08-.1.2-.21.36-.32l1.92-1.31v1.43h2.91v.92h-2.91v5.27c0,.57.1.97.3,1.21.2.24.51.36.93.36.23,0,.45-.03.66-.08.21-.06.44-.13.68-.22v.92Z"/>
    <path class="cls-5" d="m332.65,491.02v-12.25h1.03v12.25h-1.03Zm6.03,0v-5.15c0-.62-.11-1.12-.33-1.5s-.5-.66-.87-.83c-.36-.18-.75-.26-1.16-.26-.45,0-.87.1-1.28.29-.41.19-.74.49-.99.89-.26.4-.39.92-.39,1.56l-.41-1.34c.22-.55.5-1.01.87-1.35.36-.35.76-.6,1.19-.76.43-.16.86-.24,1.28-.24.55,0,1.06.12,1.53.37.47.25.85.63,1.14,1.15s.43,1.18.43,1.98v5.2h-1.03Z"/>
    <path class="cls-5" d="m346.09,491.22c-1.31,0-2.34-.38-3.08-1.14s-1.1-1.81-1.1-3.15c0-.93.18-1.74.53-2.43.35-.69.84-1.23,1.46-1.62.62-.38,1.33-.58,2.12-.58.63,0,1.18.12,1.64.35s.83.55,1.09.94c.26.4.39.83.39,1.31s-.12.84-.35,1.16-.56.57-.99.75c-.42.18-.92.3-1.48.36-.56.06-1.17.05-1.82,0-.65-.06-1.32-.17-2.02-.33v-.78c.66.15,1.32.25,1.98.3.66.05,1.26.04,1.81-.03.55-.07.99-.23,1.32-.46s.5-.57.5-1.01-.18-.81-.53-1.15c-.35-.33-.86-.5-1.52-.5-.59,0-1.12.15-1.58.45-.46.3-.82.72-1.08,1.27-.26.54-.39,1.19-.39,1.94s.12,1.33.37,1.84c.25.51.6.9,1.07,1.17.47.27,1.04.41,1.73.41.45,0,.91-.06,1.38-.19s.96-.32,1.45-.58v.92c-.33.2-.73.39-1.2.55-.47.17-1.03.25-1.68.25Z"/>
    <path class="cls-5" d="m351.4,491.02v-8.5h1.03v8.5h-1.03Zm1.03-5.02l-.41-1.34c.31-.84.69-1.44,1.15-1.8.46-.36.92-.54,1.4-.54.22,0,.4.03.56.09s.27.14.36.25c.09.1.13.23.13.37,0,.14-.04.25-.13.33-.08.08-.21.13-.38.13-.14,0-.27-.02-.4-.06-.13-.04-.28-.06-.44-.06-.54,0-.98.25-1.32.76-.34.5-.51,1.13-.51,1.88Z"/>
    <path class="cls-5" d="m363.9,491.22c-.67,0-1.26-.09-1.76-.26-.5-.18-.9-.38-1.18-.62v-1.04c.47.36.95.63,1.45.81.5.18,1,.26,1.52.26.73,0,1.26-.15,1.58-.44.33-.29.49-.64.49-1.04,0-.37-.12-.67-.36-.89-.24-.22-.55-.4-.92-.54s-.78-.26-1.2-.38-.82-.26-1.2-.43-.68-.41-.92-.71c-.24-.3-.36-.69-.36-1.18,0-.44.11-.85.33-1.22s.54-.67.99-.89c.44-.22.98-.33,1.64-.33.54,0,1.01.07,1.42.22.41.15.73.34.97.58.23.24.35.49.35.76,0,.15-.04.26-.11.34-.07.08-.17.12-.28.12-.16,0-.29-.06-.39-.18s-.22-.26-.36-.41c-.14-.15-.33-.29-.57-.41-.25-.12-.58-.18-1.02-.18-.69,0-1.18.15-1.49.46-.31.31-.46.65-.46,1.02s.12.65.36.86c.24.21.55.38.93.51.38.13.78.25,1.2.37.42.12.82.27,1.2.45s.69.43.92.74c.24.31.36.73.36,1.25,0,.43-.11.83-.32,1.2-.21.37-.54.66-.99.88-.45.22-1.04.32-1.77.32Z"/>
    <path class="cls-5" d="m372.54,491.22c-1.03,0-1.87-.29-2.52-.88-.65-.58-.98-1.49-.98-2.73v-5.1h1.03v5.08c0,.9.22,1.57.66,2.01.44.44,1.04.66,1.81.66s1.38-.22,1.82-.66c.43-.44.65-1.11.65-2.01v-5.08h1.03v5.1c0,1.24-.33,2.15-.98,2.73-.65.58-1.49.88-2.52.88Z"/>
    <path class="cls-5" d="m378.82,494.42v-11.91h1.03v11.91h-1.03Zm.62-9.76c.3-.74.73-1.31,1.3-1.73.57-.41,1.26-.62,2.06-.62.75,0,1.43.18,2.02.54.59.36,1.06.87,1.4,1.53.34.66.51,1.44.51,2.35s-.17,1.66-.5,2.34-.8,1.2-1.4,1.58c-.6.38-1.3.57-2.1.57s-1.43-.19-1.97-.56c-.54-.37-.91-.89-1.11-1.55l.21-1.58c0,.52.12.99.36,1.4.24.41.57.74.98.98s.89.36,1.41.36c.59,0,1.12-.15,1.58-.45.46-.3.81-.72,1.07-1.25s.39-1.15.39-1.84-.13-1.3-.39-1.82-.61-.93-1.07-1.22c-.46-.29-.99-.43-1.61-.43-.8,0-1.45.25-1.96.76-.51.5-.76,1.17-.76,1.98l-.41-1.34Z"/>
    <path class="cls-5" d="m389.13,494.42v-11.91h1.03v11.91h-1.03Zm.62-9.76c.3-.74.73-1.31,1.3-1.73s1.26-.62,2.06-.62c.75,0,1.43.18,2.02.54.59.36,1.06.87,1.41,1.53.34.66.51,1.44.51,2.35s-.17,1.66-.51,2.34-.8,1.2-1.4,1.58c-.6.38-1.3.57-2.1.57s-1.43-.19-1.97-.56c-.54-.37-.91-.89-1.11-1.55l.21-1.58c0,.52.12.99.36,1.4.24.41.57.74.99.98.42.24.89.36,1.41.36.59,0,1.12-.15,1.58-.45.46-.3.81-.72,1.07-1.25s.38-1.15.38-1.84-.13-1.3-.38-1.82-.61-.93-1.07-1.22c-.46-.29-.99-.43-1.61-.43-.8,0-1.45.25-1.96.76-.51.5-.76,1.17-.76,1.98l-.41-1.34Z"/>
    <path class="cls-5" d="m398.85,486.87c0-.92.17-1.72.52-2.4.35-.68.83-1.21,1.46-1.59.62-.38,1.34-.57,2.15-.57s1.48.18,2.09.54c.6.36,1.08.86,1.42,1.5.34.65.51,1.42.51,2.31s-.17,1.7-.52,2.39c-.35.69-.83,1.22-1.45,1.6-.62.38-1.34.57-2.16.57s-1.49-.18-2.09-.54c-.61-.36-1.08-.86-1.42-1.51-.34-.65-.51-1.42-.51-2.3Zm1.06-.05c0,.73.13,1.35.39,1.88s.61.93,1.06,1.22.96.42,1.52.42,1.1-.15,1.57-.44c.46-.29.83-.71,1.1-1.26.27-.54.4-1.18.4-1.92s-.13-1.35-.38-1.88-.61-.93-1.05-1.22-.95-.42-1.52-.42-1.1.15-1.57.44c-.46.29-.83.71-1.1,1.25-.27.54-.4,1.18-.4,1.93Z"/>
    <path class="cls-5" d="m409.38,491.02v-8.5h1.03v8.5h-1.03Zm1.03-5.02l-.41-1.34c.31-.84.69-1.44,1.15-1.8.46-.36.92-.54,1.4-.54.22,0,.4.03.56.09s.27.14.36.25c.09.1.13.23.13.37,0,.14-.04.25-.13.33-.08.08-.21.13-.38.13-.14,0-.27-.02-.4-.06-.13-.04-.28-.06-.44-.06-.54,0-.98.25-1.32.76-.34.5-.51,1.13-.51,1.88Z"/>
    <path class="cls-5" d="m419.79,490.88c-.24.1-.48.18-.71.25s-.5.09-.8.09c-.65,0-1.16-.19-1.53-.57-.37-.38-.56-1-.56-1.86v-5.36h-.84c-.19,0-.33-.04-.41-.12-.08-.08-.12-.17-.12-.27,0-.11.04-.22.12-.32.08-.1.2-.21.36-.32l1.92-1.31v1.43h2.91v.92h-2.91v5.27c0,.57.1.97.3,1.21.2.24.51.36.93.36.23,0,.45-.03.66-.08s.44-.13.68-.22v.92Z"/>
    <path class="cls-5" d="m19.23,511.43v-8.5h1.03v8.5h-1.03Zm1.03-5.02l-.41-1.34c.31-.84.69-1.44,1.15-1.8.46-.36.92-.54,1.4-.54.22,0,.4.03.56.09.15.06.27.14.36.25.09.1.13.23.13.37,0,.14-.04.25-.13.33s-.21.13-.39.13c-.14,0-.27-.02-.4-.06s-.28-.06-.44-.06c-.54,0-.98.25-1.32.76-.34.5-.51,1.13-.51,1.88Z"/>
    <path class="cls-5" d="m28.47,511.63c-1.31,0-2.34-.38-3.07-1.14-.74-.76-1.1-1.81-1.1-3.15,0-.93.18-1.74.53-2.43.35-.69.84-1.23,1.46-1.62.62-.38,1.33-.58,2.12-.58.63,0,1.18.12,1.64.35.47.23.83.55,1.09.94.26.4.39.83.39,1.31s-.12.84-.35,1.16c-.23.32-.56.57-.99.75-.42.18-.92.3-1.48.36-.56.06-1.17.05-1.82,0-.65-.06-1.32-.17-2.02-.33v-.78c.66.15,1.32.25,1.98.3.66.05,1.26.04,1.81-.03.55-.07.99-.23,1.32-.46s.5-.57.5-1.01-.18-.81-.53-1.15c-.35-.33-.86-.5-1.52-.5-.59,0-1.12.15-1.58.45-.46.3-.82.72-1.08,1.27-.26.54-.39,1.19-.39,1.94s.12,1.33.37,1.84.6.9,1.07,1.17c.47.27,1.04.41,1.73.41.45,0,.9-.06,1.38-.19.47-.12.96-.32,1.45-.58v.92c-.33.2-.73.39-1.2.55-.47.17-1.03.25-1.68.25Z"/>
    <path class="cls-5" d="m33.77,514.83v-11.91h1.03v11.91h-1.03Zm.62-9.76c.3-.74.73-1.31,1.3-1.73.57-.41,1.26-.62,2.06-.62.75,0,1.43.18,2.02.54.59.36,1.06.87,1.4,1.53.34.66.51,1.44.51,2.35s-.17,1.66-.51,2.34-.8,1.2-1.4,1.58c-.6.38-1.3.57-2.1.57s-1.43-.19-1.97-.56c-.54-.37-.91-.89-1.11-1.55l.21-1.58c0,.52.12.99.36,1.4s.57.74.98.98c.42.24.89.36,1.41.36.59,0,1.12-.15,1.58-.45.46-.3.81-.72,1.07-1.25s.39-1.15.39-1.84-.13-1.3-.39-1.82-.61-.93-1.07-1.22-.99-.43-1.61-.43c-.8,0-1.45.25-1.96.76-.51.5-.76,1.17-.76,1.98l-.41-1.34Z"/>
    <path class="cls-5" d="m44.41,511.63c-.29,0-.5-.08-.64-.25-.14-.16-.21-.35-.21-.57,0-.23.07-.42.21-.58.14-.16.36-.24.64-.24s.5.08.64.24c.14.16.21.35.21.58s-.07.41-.21.57c-.14.17-.36.25-.64.25Z"/>
  </g>
  <path class="cls-6" d="m367.9,245c0-.06-.01-.11-.02-.16,0-.11,0-.21-.02-.31-.01-.11-.03-.23-.05-.34-.02-.11-.04-.22-.06-.33-.02-.09-.05-.18-.07-.28-.03-.11-.07-.21-.11-.32-.04-.11-.08-.22-.13-.32-.04-.1-.09-.19-.14-.28-.03-.05-.04-.1-.07-.15-.03-.05-.07-.09-.1-.13-.06-.09-.11-.18-.17-.26-.07-.09-.14-.18-.21-.27-.07-.09-.15-.18-.22-.26-.07-.07-.13-.14-.2-.2-.08-.08-.17-.15-.25-.22-.09-.08-.18-.15-.28-.22-.09-.06-.17-.11-.26-.17-.05-.03-.08-.07-.13-.1l-40.8-23.56v-47.11c0-.06-.01-.11-.02-.16,0-.11,0-.21-.02-.31-.01-.11-.03-.23-.05-.34-.02-.11-.04-.22-.06-.33-.02-.09-.05-.18-.07-.28-.03-.11-.07-.21-.11-.32-.04-.11-.08-.22-.13-.32-.04-.1-.09-.19-.14-.28-.03-.05-.04-.1-.07-.15s-.07-.09-.1-.13c-.06-.09-.11-.18-.17-.26-.07-.09-.14-.18-.21-.27-.07-.09-.15-.18-.22-.26-.07-.07-.13-.14-.2-.2-.08-.08-.17-.15-.26-.22-.09-.07-.18-.15-.27-.22-.09-.06-.17-.12-.26-.17-.05-.03-.08-.07-.13-.1l-43.3-25s-.1-.04-.15-.07c-.16-.09-.33-.15-.49-.22-.14-.06-.28-.12-.43-.16-.16-.05-.31-.08-.47-.11-.16-.03-.32-.06-.48-.08-.16-.02-.32-.01-.48-.01-.16,0-.32,0-.48.01-.16.02-.32.05-.48.08-.16.03-.32.06-.48.11-.14.04-.28.1-.42.16-.17.07-.34.14-.5.22-.05.03-.1.04-.15.07l-40.8,23.56-40.8-23.56s-.1-.04-.15-.07c-.16-.08-.32-.15-.48-.22-.15-.06-.29-.12-.44-.16-.15-.05-.3-.07-.46-.1-.16-.03-.33-.07-.49-.08-.15-.01-.31-.01-.46-.01-.16,0-.33,0-.49.01-.16.02-.31.05-.47.08-.16.03-.32.06-.48.11-.14.04-.28.1-.42.16-.17.07-.33.14-.5.22-.05.03-.1.04-.15.07l-43.3,25s-.09.07-.13.1c-.09.06-.18.11-.26.17-.09.07-.18.14-.27.21-.09.07-.17.14-.26.22-.07.07-.14.13-.2.2-.08.08-.15.17-.22.26-.07.09-.15.18-.21.27-.06.09-.12.17-.17.26-.03.05-.07.08-.1.13-.03.05-.04.1-.07.15-.05.09-.1.19-.14.28-.05.1-.09.21-.13.32-.04.11-.08.21-.11.32-.03.09-.05.18-.07.28-.03.11-.05.22-.06.33-.02.11-.04.23-.05.34-.01.1-.01.21-.02.31,0,.06-.02.11-.02.16v47.11l-40.8,23.56s-.09.07-.13.1c-.09.06-.18.11-.26.17-.1.07-.18.14-.28.22-.09.07-.17.14-.26.22-.07.07-.13.13-.2.2-.08.08-.15.17-.22.26-.07.09-.15.18-.21.27-.06.09-.12.17-.17.26-.03.05-.07.09-.1.13-.03.05-.04.1-.07.15-.05.09-.1.19-.14.28-.05.1-.09.21-.13.32-.04.11-.08.21-.11.32-.03.09-.05.18-.07.28-.03.11-.05.22-.06.33-.02.11-.04.23-.05.34-.01.1-.01.21-.02.31,0,.06-.02.11-.02.16v50c0,.06.01.11.02.16,0,.18.03.36.05.54.02.15.04.31.08.45.04.16.09.31.14.46.05.15.1.31.17.46.07.15.15.28.23.42.08.14.16.28.25.41.09.13.2.25.31.37.11.12.21.24.33.36.11.1.23.2.35.29.14.11.28.22.44.32.05.03.08.07.13.1l40.8,23.56v47.11c0,.06.01.11.02.16,0,.18.03.36.05.54.02.15.04.31.08.45.04.16.09.31.14.46.05.15.1.31.17.46.07.15.15.28.23.42.08.14.16.28.25.41.09.13.2.25.31.37.11.12.21.24.33.36.11.1.23.2.35.29.14.11.28.22.44.32.05.03.08.07.13.1l43.3,25s0,0,.01,0c.14.08.29.15.44.22,0,0,0,0,.01,0,.04.02.07.04.11.05.01,0,.02.01.04.02.06.03.13.04.19.07.2.07.4.13.6.18.06.01.13.03.19.04.3.05.6.09.9.09,0,0,0,0,0,0s0,0,0,0c.3,0,.6-.04.9-.09.06-.01.13-.02.19-.04.23-.05.46-.12.68-.2.04-.01.08-.02.11-.04.01,0,.03-.01.04-.02.04-.02.07-.04.11-.05.02,0,.04-.02.05-.03.14-.06.27-.12.4-.2,0,0,0,0,.01,0l40.8-23.56,40.8,23.56s0,0,.01,0c.14.08.29.15.44.22,0,0,0,0,.01,0,.04.02.07.04.11.05.01,0,.02.01.04.02.06.03.13.04.2.07.2.07.4.13.6.18.06.01.13.03.19.04.3.05.6.09.9.09,0,0,0,0,0,0s0,0,0,0c.3,0,.6-.04.9-.09.06-.01.13-.02.19-.04.22-.05.44-.11.65-.19.05-.02.09-.03.14-.05.01,0,.02-.01.04-.02.04-.02.07-.04.11-.05.01,0,.03-.01.04-.02.14-.06.28-.13.41-.2,0,0,0,0,.01,0l43.3-25s.09-.07.13-.1c.15-.1.3-.2.44-.32.12-.09.24-.19.35-.29.12-.11.22-.23.33-.36.11-.12.21-.24.31-.37.09-.13.17-.27.25-.41.08-.14.16-.27.23-.42.07-.15.12-.3.17-.46.05-.15.11-.3.14-.46.04-.15.05-.3.08-.45.03-.18.05-.36.05-.54,0-.06.02-.11.02-.16v-47.11l40.8-23.56s.09-.07.13-.1c.15-.1.3-.2.44-.32.12-.09.24-.19.35-.29.12-.11.22-.23.33-.36.11-.12.21-.24.31-.37.09-.13.17-.27.25-.41.08-.14.16-.27.23-.42.07-.15.12-.3.17-.46.05-.15.11-.3.14-.46.04-.15.05-.3.08-.45.03-.18.05-.36.05-.54,0-.06.02-.11.02-.16v-50Zm-50.8,70.67s-.09.07-.13.1c-.15.1-.3.2-.44.32-.12.09-.24.19-.35.29-.12.11-.22.23-.33.36-.11.12-.21.24-.31.37-.09.13-.17.27-.25.41-.08.14-.16.27-.23.42-.07.15-.12.3-.17.46-.05.15-.11.3-.14.46-.04.15-.05.3-.08.45-.03.18-.05.36-.05.54,0,.06-.02.11-.02.16v47.11l-33.3,19.23v-41.34c0-.1-.02-.18-.03-.28,0-.18-.02-.36-.05-.54-.03-.16-.06-.32-.11-.47-.04-.15-.09-.31-.14-.46-.06-.17-.14-.34-.22-.5-.04-.08-.07-.17-.11-.25-.03-.05-.07-.09-.1-.13-.1-.15-.2-.29-.31-.44-.1-.12-.19-.25-.29-.36-.11-.12-.23-.22-.35-.32-.13-.11-.25-.22-.38-.32-.12-.09-.26-.16-.39-.24-.15-.08-.29-.17-.44-.24-.14-.06-.28-.11-.43-.16-.16-.06-.33-.11-.49-.15-.14-.03-.28-.05-.42-.07-.19-.03-.38-.05-.57-.06-.05,0-.1-.02-.15-.02-.09,0-.17.02-.26.03-.19,0-.38.03-.58.06-.15.03-.3.06-.44.1-.16.04-.32.09-.48.15-.17.06-.33.14-.49.22-.08.04-.17.07-.26.12l-35.8,20.67v-38.45l40.76-23.53s.01,0,.02,0l.03-.02s.02-.02.03-.02c.05-.03.11-.07.16-.1.06-.04.12-.07.17-.11.13-.09.25-.18.37-.28.05-.04.1-.09.15-.13.05-.04.1-.08.15-.13.01-.01.03-.03.04-.04.14-.14.28-.3.4-.46.03-.04.05-.08.08-.12,0,0,.01-.02.02-.03.05-.07.09-.14.14-.21.04-.06.09-.12.12-.18.03-.05.04-.1.07-.15.05-.09.1-.18.14-.28.05-.11.09-.21.13-.32.04-.11.08-.21.11-.32.03-.09.05-.18.07-.28.03-.11.05-.22.06-.33.02-.11.04-.23.05-.34.01-.1.01-.21.02-.31,0-.06.02-.11.02-.16v-47.11l33.3-19.23v41.34c0,.1.02.18.03.28,0,.18.02.36.05.54.03.16.06.32.11.47.04.15.09.31.14.46.06.17.14.34.22.5.04.08.07.17.11.25.04.06.08.12.12.18.04.07.09.14.14.21.16.22.32.43.51.62.01.01.02.03.03.04.21.21.43.39.67.55.05.04.11.07.17.11.21.14.43.26.66.36.04.02.08.04.12.06.26.11.53.19.81.25.07.02.14.03.21.04.3.05.59.09.9.09s.6-.04.9-.09c.06-.01.13-.02.19-.04.28-.06.56-.14.83-.26.04-.02.07-.04.11-.05.16-.07.31-.14.47-.23l35.8-20.67v38.45l-40.8,23.56Zm-124.9,25c-.08-.05-.17-.07-.26-.12-.16-.08-.32-.16-.49-.22-.15-.06-.31-.1-.47-.15-.15-.04-.3-.08-.46-.1-.18-.03-.37-.05-.55-.06-.09,0-.18-.03-.27-.03-.05,0-.1.01-.16.02-.19,0-.37.03-.55.06-.15.02-.3.04-.44.07-.16.04-.32.09-.47.15-.15.05-.3.1-.45.17-.15.07-.28.15-.43.23-.14.08-.27.16-.4.25-.13.09-.25.2-.38.31-.12.11-.24.21-.35.33-.1.11-.2.23-.29.35-.11.14-.22.28-.32.44-.03.05-.07.08-.1.13-.05.08-.07.17-.11.25-.08.16-.16.32-.22.5-.06.15-.1.3-.14.46-.04.16-.08.31-.11.47-.03.18-.04.36-.05.54,0,.09-.03.18-.03.28v41.34l-33.3-19.23v-47.11c0-.06-.01-.11-.02-.16,0-.18-.03-.36-.05-.54-.02-.15-.04-.31-.08-.45-.04-.16-.09-.31-.14-.46-.05-.15-.1-.31-.17-.46-.07-.15-.15-.28-.23-.42-.08-.14-.16-.28-.25-.41-.09-.13-.2-.25-.31-.37-.11-.12-.21-.24-.33-.36-.11-.1-.23-.2-.35-.29-.14-.11-.28-.22-.44-.32-.05-.03-.08-.07-.13-.1l-40.8-23.56v-38.45l35.8,20.67c.15.09.31.16.47.23.04.02.07.04.11.05.27.11.55.19.83.26.06.01.13.03.19.04.3.05.6.09.9.09s.6-.04.89-.09c.07-.01.14-.03.21-.04.28-.06.55-.14.81-.25.04-.02.08-.04.13-.06.23-.1.44-.22.65-.35.06-.04.12-.07.17-.11.23-.16.46-.34.66-.55.01-.01.02-.03.04-.04.18-.19.35-.39.5-.61.05-.07.09-.14.14-.21.04-.06.09-.12.12-.18.05-.08.07-.17.11-.25.08-.16.16-.32.22-.5.06-.15.1-.3.14-.46.04-.16.08-.31.11-.47.03-.18.04-.36.05-.54,0-.09.03-.18.03-.28v-41.34l33.3,19.23v47.11c0,.06.01.11.02.16,0,.11,0,.21.02.31.01.11.03.23.05.34.02.11.04.22.06.33.02.09.05.18.07.28.03.11.07.21.11.32.04.11.08.22.13.32.04.1.09.19.14.28.03.05.04.1.07.15.04.06.08.12.12.18.04.07.09.14.14.21,0,0,.01.02.02.03.03.04.05.08.08.12.13.17.26.32.41.47.01.01.02.03.03.04.05.05.1.09.15.13.05.04.1.09.15.13.12.1.24.2.37.29.05.04.11.07.17.11.06.04.11.08.17.11.01,0,.02.01.03.02h.02s.02.02.02.03l40.75,23.53v38.45l-35.8-20.67Zm-.05-141.31s.01,0,.02-.01l.03-.02s.02-.02.03-.02c.25-.14.48-.32.7-.5.05-.04.1-.08.15-.13.21-.19.41-.4.59-.64.03-.04.05-.08.08-.12.1-.14.2-.27.28-.42.03-.05.04-.1.07-.15.09-.16.15-.32.22-.49.06-.14.12-.28.16-.43.05-.16.08-.31.11-.47.03-.16.07-.32.08-.48.02-.16.01-.32.01-.48,0-.16,0-.32-.01-.48-.02-.16-.05-.32-.08-.48-.03-.16-.06-.32-.11-.47-.04-.15-.1-.29-.16-.43-.07-.17-.14-.33-.22-.49-.03-.05-.04-.1-.07-.15-.05-.08-.11-.15-.16-.23-.1-.15-.2-.3-.32-.44-.1-.13-.21-.24-.33-.35-.11-.11-.23-.23-.36-.33-.14-.12-.29-.22-.44-.32-.08-.05-.15-.12-.23-.17l-35.8-20.67,33.3-19.23,40.8,23.56s0,0,.01,0c.14.08.29.15.44.22.05.02.11.05.16.08.07.03.14.05.22.07.55.19,1.11.3,1.67.3,0,0,0,0,0,0s0,0,0,0c.56,0,1.13-.1,1.67-.3.07-.02.14-.04.21-.07.05-.02.11-.05.16-.08.15-.07.3-.14.44-.22,0,0,0,0,.01,0l40.8-23.56,33.3,19.23-35.8,20.67c-.08.05-.14.11-.22.16-.16.1-.31.21-.45.33-.12.1-.23.21-.34.32-.12.12-.23.23-.33.36-.12.14-.22.29-.31.44-.05.08-.12.15-.16.23-.03.05-.04.1-.07.15-.09.16-.15.32-.22.49-.06.14-.12.28-.16.43-.05.16-.08.31-.11.47-.03.16-.07.32-.08.48-.02.16-.01.32-.01.48,0,.16,0,.32.01.48.02.16.05.32.08.48.03.16.06.32.11.47.04.15.1.29.16.43.07.17.14.33.22.49.03.05.04.1.07.15.09.15.18.28.28.42.03.04.05.08.08.12.18.23.38.44.59.64.05.04.1.09.15.13.22.19.45.36.7.51.01,0,.02.01.03.02h.02s.01.02.02.03l35.76,20.64-33.3,19.23-40.8-23.56s-.1-.04-.15-.07c-.09-.05-.19-.1-.28-.14-.1-.05-.21-.09-.32-.13-.11-.04-.21-.08-.32-.11-.09-.03-.18-.05-.27-.07-.11-.03-.22-.05-.33-.06-.12-.02-.23-.04-.34-.05-.1-.01-.21-.01-.31-.02-.06,0-.11-.02-.16-.02s-.11.01-.16.02c-.11,0-.21,0-.32.02-.11.01-.23.03-.34.05-.11.02-.22.04-.33.06-.09.02-.19.05-.28.07-.11.03-.21.07-.32.11-.11.04-.22.08-.32.13-.1.04-.19.09-.28.14-.05.03-.1.04-.15.07l-40.8,23.56-33.3-19.23,35.76-20.64Zm40.85,114.87l-33.3-19.23,33.3-19.23,33.3,19.23-33.3,19.23Zm38.3-27.89l-33.3-19.23v-38.45l33.3,19.23v38.45Zm-43.3-19.23l-33.3,19.23v-38.45l33.3-19.23v38.45Zm124.9-22.11l-28.3,16.34v-32.68l28.3,16.34Zm-66.6-50l28.3-16.34v32.68l-28.3-16.34Zm-134.9-16.34l28.3,16.34-28.3,16.34v-32.68Zm-10,82.68l-28.3-16.34,28.3-16.34v32.68Zm53.3,125v-32.68l28.3,16.34-28.3,16.34Zm76.6-32.68v32.68l-28.3-16.34,28.3-16.34Z"/>
</svg>