<?xml version="1.0" encoding="UTF-8"?>
<svg id="Layer_1" data-name="Layer 1" xmlns="http://www.w3.org/2000/svg" xmlns:xlink="http://www.w3.org/1999/xlink" viewBox="0 0 466 540">
  <defs>
    <style>
      .cls-1 {
        fill: #fff;
      }

      .cls-2 {
        fill: #471b52;
      }

      .cls-3 {
        fill: #ffb979;
        opacity: .9;
      }

      .cls-4 {
        fill: none;
        opacity: .7;
      }

      .cls-5 {
        fill: url(#linear-gradient);
      }
    </style>
    <linearGradient id="linear-gradient" x1="121.86" y1="-35.37" x2="344.14" y2="575.37" gradientUnits="userSpaceOnUse">
      <stop offset="0" stop-color="#ffb979" stop-opacity="0"/>
      <stop offset=".06" stop-color="#ffb979" stop-opacity=".14"/>
      <stop offset=".16" stop-color="#ffb979" stop-opacity=".34"/>
      <stop offset=".26" stop-color="#ffb979" stop-opacity=".52"/>
      <stop offset=".37" stop-color="#ffb979" stop-opacity=".67"/>
      <stop offset=".48" stop-color="#ffb979" stop-opacity=".79"/>
      <stop offset=".59" stop-color="#ffb979" stop-opacity=".88"/>
      <stop offset=".71" stop-color="#ffb979" stop-opacity=".95"/>
      <stop offset=".84" stop-color="#ffb979" stop-opacity=".99"/>
      <stop offset="1" stop-color="#ffb979"/>
    </linearGradient>
  </defs>
  <rect class="cls-5" y="0" width="466" height="540" rx="30" ry="30"/>
  <g class="cls-4">
    <path class="cls-1" d="m228.37,0l-21.07,17.51,20.98,27.64c1.42,1.99,3.64,3.76,6.64,5.31,3,1.56,6.35,2.34,10.06,2.34,1.99,0,4.13-.35,6.42-1.06,2.28-.7,4.56-2.05,6.85-4.04l35.54-28.91c-.29,3.97-.5,7.94-.64,11.91-.15,3.97-.21,7.94-.21,11.91v155.62l-45.82,5.95c-9.42,1.42-14.13,6.66-14.13,15.73v26.79h177.71v-26.79c0-9.35-4.57-14.74-13.7-16.16l-37.68-5.53V0h-130.94Z"/>
    <path class="cls-1" d="m16.74,240.53c13.98,6.38,29.26,9.57,45.82,9.57s31.97-3.19,46.25-9.57c14.27-6.38,26.55-16.08,36.83-29.13,10.28-13.04,18.34-29.48,24.19-49.32,5.85-19.84,8.78-43.37,8.78-70.58s-2.93-50.31-8.78-70.16c-2.25-7.61-4.82-14.72-7.72-21.34h-71.04c1.54,1.93,3.04,4.06,4.47,6.46,4.28,7.94,7.77,18.78,10.49,32.53,2.71,13.75,4.07,31.4,4.07,52.94s-1.36,38.69-4.07,52.3c-2.72,13.61-6.21,24.38-10.49,32.32-4.57,7.94-9.71,13.33-15.42,16.16-5.71,2.84-11.42,4.25-17.13,4.25-5.99,0-11.85-1.42-17.56-4.25-5.71-2.83-10.71-8.22-14.99-16.16-4.28-7.93-7.78-18.71-10.49-32.32-2.72-13.61-4.07-31.04-4.07-52.3s1.35-39.18,4.07-52.94c2.71-13.75,6.21-24.45,10.49-32.1,1.38-2.56,2.84-4.85,4.37-6.88h-4.82C13.43,0,0,13.43,0,30v200.65c5.25,3.89,10.83,7.19,16.74,9.88Z"/>
  </g>
  <g>
    <path class="cls-2" d="m22.45,470.61h.98l3.25-7.72,3.25,7.72h1.13l2.6-11.57h-1.13l-2.17,10.12-2.78-6.77c-.09-.23-.22-.4-.38-.53-.16-.12-.34-.19-.53-.19s-.37.06-.53.19c-.16.12-.29.3-.38.53l-2.79,6.8-2.16-10.15h-1.13l2.6,11.57h.15Z"/>
    <path class="cls-2" d="m38.95,470.81c.65,0,1.21-.08,1.68-.25.47-.16.87-.35,1.2-.55v-.92c-.49.26-.97.45-1.45.58-.47.12-.93.19-1.38.19-.69,0-1.26-.14-1.73-.41-.47-.27-.83-.66-1.07-1.17-.24-.49-.35-1.08-.36-1.75.52.1,1.03.19,1.52.23.65.06,1.26.07,1.82,0,.57-.06,1.06-.18,1.48-.36.42-.18.75-.43.99-.75.23-.32.35-.7.35-1.16,0-.48-.13-.91-.39-1.31-.26-.4-.62-.71-1.09-.94-.47-.23-1.02-.35-1.64-.35-.79,0-1.49.19-2.12.58-.62.39-1.11.92-1.46,1.62-.35.69-.53,1.5-.53,2.43,0,1.34.37,2.39,1.1,3.15.74.76,1.76,1.14,3.07,1.14Zm-2.72-6.31c.26-.54.62-.97,1.08-1.27.46-.3.98-.45,1.58-.45.66,0,1.17.17,1.52.5.35.33.53.72.53,1.15s-.17.78-.5,1.01-.77.39-1.32.46c-.55.07-1.15.09-1.81.03-.47-.04-.94-.11-1.42-.19.06-.45.15-.88.33-1.24Z"/>
    <path class="cls-2" d="m50.94,470.81c.73,0,1.32-.11,1.77-.32.45-.21.78-.51.99-.88.21-.37.32-.77.32-1.2,0-.52-.12-.94-.36-1.25-.24-.31-.55-.56-.92-.74s-.78-.33-1.2-.45-.82-.24-1.2-.37c-.38-.13-.69-.3-.93-.51-.24-.21-.36-.5-.36-.86s.15-.71.46-1.02c.31-.31.81-.46,1.49-.46.43,0,.77.06,1.02.18s.44.25.57.41c.14.15.26.29.36.41.1.12.23.18.39.18.11,0,.21-.04.28-.12.07-.08.11-.19.11-.34,0-.27-.12-.53-.35-.76-.23-.24-.56-.43-.97-.58-.41-.15-.88-.22-1.42-.22-.65,0-1.2.11-1.64.33-.44.22-.77.52-.98.89-.22.37-.33.78-.33,1.22,0,.49.12.88.36,1.18.24.3.55.54.92.71s.78.31,1.2.43c.42.12.82.25,1.2.38s.69.31.92.54c.24.22.36.52.36.89,0,.4-.16.74-.49,1.04-.33.29-.85.44-1.58.44-.51,0-1.02-.09-1.52-.26s-.98-.44-1.45-.81v1.04c.29.24.68.45,1.18.62s1.09.26,1.76.26Z"/>
    <path class="cls-2" d="m55.97,463.02h.84v5.36c0,.86.19,1.48.56,1.86.37.38.88.57,1.53.57.3,0,.56-.03.8-.09.23-.06.47-.14.71-.25v-.92c-.24.09-.47.17-.68.22-.21.06-.43.08-.66.08-.42,0-.73-.12-.93-.36s-.3-.64-.3-1.21v-5.27h2.91v-.92h-2.91v-1.43l-1.92,1.31c-.16.11-.28.22-.36.32-.08.1-.12.21-.12.32,0,.1.04.19.12.27.08.08.22.12.41.12Z"/>
    <path class="cls-2" d="m65.9,470.81c1.03,0,1.87-.29,2.52-.88s.98-1.49.98-2.73v-5.1h-1.03v5.08c0,.9-.22,1.57-.65,2.01-.43.44-1.04.66-1.82.66s-1.37-.22-1.81-.66c-.44-.44-.66-1.11-.66-2.01v-5.08h-1.03v5.1c0,1.24.33,2.15.98,2.73s1.49.88,2.52.88Z"/>
    <path class="cls-2" d="m73.53,470.27c.6.36,1.27.54,2.01.54.81,0,1.5-.21,2.07-.63.35-.25.63-.57.87-.94v1.36h1.03v-12.25h-1.03v5.14c-.22-.43-.52-.78-.91-1.05-.54-.37-1.19-.55-1.97-.55s-1.48.19-2.09.57c-.61.38-1.08.9-1.41,1.57-.34.67-.51,1.45-.51,2.35s.17,1.67.51,2.34c.34.66.81,1.18,1.41,1.54Zm-.45-5.72c.26-.53.61-.94,1.07-1.24.46-.3.98-.45,1.58-.45.54,0,1.01.12,1.42.36s.74.56.98.98c.24.41.36.88.36,1.4v1.53c0,.82-.25,1.48-.75,1.98-.5.5-1.16.76-1.97.76-.62,0-1.15-.14-1.61-.43-.46-.29-.81-.69-1.07-1.22-.26-.52-.39-1.13-.39-1.82s.13-1.32.39-1.85Z"/>
    <path class="cls-2" d="m84.04,472.32c-.26.39-.5.66-.72.8s-.42.21-.62.21c-.17,0-.32-.03-.45-.09s-.26-.08-.41-.08c-.13,0-.23.03-.31.1-.08.07-.12.16-.12.29,0,.16.06.29.18.38.12.1.27.17.46.21.19.04.38.07.57.07.65,0,1.21-.24,1.69-.73.47-.49.94-1.29,1.41-2.4l.2-.48h0l3.6-8.5h-1.11l-3,7.33-3-7.33h-1.11l3.6,8.5c-.32.75-.61,1.32-.87,1.71Z"/>
    <path class="cls-2" d="m96.72,472.32c-.26.39-.5.66-.72.8s-.42.21-.62.21c-.17,0-.32-.03-.45-.09s-.26-.08-.41-.08c-.13,0-.23.03-.31.1-.08.07-.12.16-.12.29,0,.16.06.29.18.38.12.1.27.17.46.21.19.04.38.07.57.07.65,0,1.21-.24,1.69-.73.47-.49.94-1.29,1.41-2.4l.2-.48h0l3.6-8.5h-1.11l-3,7.33-3-7.33h-1.11l3.6,8.5c-.32.75-.61,1.32-.87,1.71Z"/>
    <path class="cls-2" d="m104.99,470.28c.6.36,1.3.54,2.09.54s1.54-.19,2.16-.57c.62-.38,1.1-.91,1.45-1.6.35-.69.52-1.48.52-2.39s-.17-1.67-.51-2.31c-.34-.65-.82-1.15-1.42-1.5-.61-.36-1.3-.54-2.09-.54s-1.53.19-2.15.57c-.62.38-1.11.91-1.46,1.59-.35.68-.52,1.48-.52,2.4s.17,1.65.51,2.3c.34.65.82,1.16,1.42,1.51Zm-.47-5.8c.27-.54.63-.96,1.1-1.25.46-.29.98-.44,1.57-.44s1.08.14,1.52.42.8.69,1.05,1.22.39,1.15.39,1.88-.13,1.38-.4,1.92c-.27.54-.63.96-1.1,1.26-.46.29-.98.44-1.57.44s-1.06-.14-1.52-.42-.8-.69-1.06-1.22c-.26-.53-.39-1.15-.39-1.88s.13-1.39.4-1.93Z"/>
    <path class="cls-2" d="m119.35,467.19c0,.9-.22,1.57-.65,2.01-.43.44-1.04.66-1.82.66s-1.37-.22-1.81-.66c-.44-.44-.66-1.11-.66-2.01v-5.08h-1.03v5.1c0,1.24.33,2.15.98,2.73s1.49.88,2.52.88,1.87-.29,2.52-.88.98-1.49.98-2.73v-5.1h-1.03v5.08Z"/>
    <path class="cls-2" d="m124.19,465.59c0-.75.17-1.37.51-1.88.34-.5.78-.76,1.32-.76.16,0,.31.02.44.06s.27.06.4.06c.17,0,.3-.04.39-.13s.13-.2.13-.33c0-.15-.04-.27-.13-.37-.09-.1-.21-.18-.36-.25-.15-.06-.34-.09-.56-.09-.48,0-.95.18-1.4.54-.27.22-.52.53-.74.92v-1.26h-1.03v8.5h1.03v-5.02Z"/>
    <path class="cls-2" d="m140.72,468.66c.33-.67.5-1.45.5-2.34s-.17-1.69-.51-2.35c-.34-.66-.81-1.17-1.4-1.53-.59-.36-1.27-.54-2.02-.54-.8,0-1.48.21-2.06.62-.35.25-.64.58-.89.95v-5.11h-1.03v8.52c0,1.2.35,2.16,1.04,2.87.69.71,1.62,1.06,2.8,1.06.83,0,1.56-.19,2.17-.57.61-.38,1.08-.91,1.41-1.58Zm-5.61.37c-.52-.55-.78-1.27-.78-2.14v-1.29c0-.82.25-1.48.76-1.98.51-.5,1.16-.76,1.96-.76.62,0,1.15.14,1.61.43s.81.7,1.07,1.22.39,1.13.39,1.82c0,1.07-.27,1.92-.81,2.57-.54.65-1.27.97-2.17.97-.83,0-1.51-.28-2.03-.83Z"/>
    <path class="cls-2" d="m150.41,467.21v-5.1h-1.03v5.08c0,.9-.22,1.57-.65,2.01-.43.44-1.04.66-1.82.66s-1.37-.22-1.81-.66c-.44-.44-.66-1.11-.66-2.01v-5.08h-1.03v5.1c0,1.24.33,2.15.98,2.73s1.49.88,2.52.88,1.87-.29,2.52-.88.98-1.49.98-2.73Z"/>
    <path class="cls-2" d="m155.6,470.81c.73,0,1.32-.11,1.77-.32.45-.21.78-.51.99-.88.21-.37.32-.77.32-1.2,0-.52-.12-.94-.36-1.25-.24-.31-.55-.56-.92-.74s-.78-.33-1.2-.45-.82-.24-1.2-.37c-.38-.13-.69-.3-.93-.51-.24-.21-.36-.5-.36-.86s.15-.71.46-1.02c.31-.31.81-.46,1.49-.46.43,0,.77.06,1.02.18s.44.25.57.41c.14.15.26.29.36.41.1.12.23.18.39.18.11,0,.21-.04.28-.12.07-.08.11-.19.11-.34,0-.27-.12-.53-.35-.76-.23-.24-.56-.43-.97-.58-.41-.15-.88-.22-1.42-.22-.65,0-1.2.11-1.64.33-.44.22-.77.52-.98.89-.22.37-.33.78-.33,1.22,0,.49.12.88.36,1.18.24.3.55.54.92.71s.78.31,1.2.43c.42.12.82.25,1.2.38s.69.31.92.54c.24.22.36.52.36.89,0,.4-.16.74-.49,1.04-.33.29-.85.44-1.58.44-.51,0-1.02-.09-1.52-.26s-.98-.44-1.45-.81v1.04c.29.24.68.45,1.18.62s1.09.26,1.76.26Z"/>
    <path class="cls-2" d="m161.48,458.84c-.25,0-.44.07-.57.22-.13.15-.19.32-.19.53s.06.38.19.53c.13.15.31.22.57.22s.44-.07.57-.22c.13-.15.19-.32.19-.53s-.06-.38-.19-.53c-.13-.15-.31-.22-.57-.22Z"/>
    <path class="cls-2" d="m160.96,470.61h1.03v-8.5c-.34.03-.69.03-1.03,0v8.5Z"/>
    <path class="cls-2" d="m165.98,465.59c0-.63.13-1.15.39-1.56.26-.4.59-.7.99-.89.41-.19.83-.29,1.28-.29.41,0,.8.09,1.16.26.36.18.65.45.87.83.22.38.33.88.33,1.5v5.15h1.03v-5.2c0-.81-.14-1.47-.43-1.98-.29-.52-.67-.9-1.14-1.15-.47-.25-.98-.37-1.53-.37-.42,0-.85.08-1.29.24s-.84.41-1.2.76c-.16.16-.31.34-.44.54v-1.33h-1.03v8.5h1.03v-5.02Z"/>
    <path class="cls-2" d="m178.4,470.81c.65,0,1.21-.08,1.68-.25.47-.16.87-.35,1.2-.55v-.92c-.49.26-.97.45-1.45.58-.47.12-.93.19-1.38.19-.69,0-1.26-.14-1.73-.41-.47-.27-.83-.66-1.07-1.17-.24-.49-.35-1.08-.36-1.75.52.1,1.03.19,1.52.23.65.06,1.26.07,1.82,0,.57-.06,1.06-.18,1.48-.36.42-.18.75-.43.99-.75.23-.32.35-.7.35-1.16,0-.48-.13-.91-.39-1.31-.26-.4-.62-.71-1.09-.94-.47-.23-1.02-.35-1.64-.35-.79,0-1.49.19-2.12.58-.62.39-1.11.92-1.46,1.62-.35.69-.53,1.5-.53,2.43,0,1.34.37,2.39,1.1,3.15.74.76,1.76,1.14,3.07,1.14Zm-2.72-6.31c.26-.54.62-.97,1.08-1.27.46-.3.98-.45,1.58-.45.66,0,1.17.17,1.52.5.35.33.53.72.53,1.15s-.17.78-.5,1.01-.77.39-1.32.46c-.55.07-1.15.09-1.81.03-.47-.04-.94-.11-1.42-.19.06-.45.15-.88.33-1.24Z"/>
    <path class="cls-2" d="m186.18,470.81c.73,0,1.32-.11,1.77-.32.45-.21.78-.51.99-.88.21-.37.32-.77.32-1.2,0-.52-.12-.94-.36-1.25-.24-.31-.55-.56-.92-.74s-.78-.33-1.2-.45-.82-.24-1.2-.37c-.38-.13-.69-.3-.93-.51-.24-.21-.36-.5-.36-.86s.15-.71.46-1.02c.31-.31.81-.46,1.49-.46.43,0,.77.06,1.02.18s.44.25.57.41c.14.15.26.29.36.41.1.12.23.18.39.18.11,0,.21-.04.28-.12.07-.08.11-.19.11-.34,0-.27-.12-.53-.35-.76-.23-.24-.56-.43-.97-.58-.41-.15-.88-.22-1.42-.22-.65,0-1.2.11-1.64.33-.44.22-.77.52-.98.89-.22.37-.33.78-.33,1.22,0,.49.12.88.36,1.18.24.3.55.54.92.71s.78.31,1.2.43c.42.12.82.25,1.2.38s.69.31.92.54c.24.22.36.52.36.89,0,.4-.16.74-.49,1.04-.33.29-.85.44-1.58.44-.51,0-1.02-.09-1.52-.26s-.98-.44-1.45-.81v1.04c.29.24.68.45,1.18.62s1.09.26,1.76.26Z"/>
    <path class="cls-2" d="m195.87,466.43c-.38-.18-.78-.33-1.2-.45s-.82-.24-1.2-.37c-.38-.13-.69-.3-.93-.51-.24-.21-.36-.5-.36-.86s.15-.71.46-1.02c.31-.31.81-.46,1.49-.46.43,0,.77.06,1.02.18s.44.25.57.41c.14.15.26.29.36.41.1.12.23.18.39.18.11,0,.21-.04.28-.12.07-.08.11-.19.11-.34,0-.27-.12-.53-.35-.76-.23-.24-.56-.43-.97-.58-.41-.15-.88-.22-1.42-.22-.65,0-1.2.11-1.64.33-.44.22-.77.52-.98.89-.22.37-.33.78-.33,1.22,0,.49.12.88.36,1.18.24.3.55.54.92.71s.78.31,1.2.43c.42.12.82.25,1.2.38s.69.31.92.54c.24.22.36.52.36.89,0,.4-.16.74-.49,1.04-.33.29-.85.44-1.58.44-.51,0-1.02-.09-1.52-.26s-.98-.44-1.45-.81v1.04c.29.24.68.45,1.18.62s1.09.26,1.76.26c.73,0,1.32-.11,1.77-.32.45-.21.78-.51.99-.88.21-.37.32-.77.32-1.2,0-.52-.12-.94-.36-1.25-.24-.31-.55-.56-.92-.74Z"/>
    <path class="cls-2" d="m213.34,462.85c.62,0,1.13.2,1.55.6s.63,1.07.63,2.01v5.15h1.03v-5.17c0-.81-.13-1.47-.4-1.99-.27-.52-.63-.91-1.08-1.17s-.95-.38-1.5-.38c-.42,0-.86.08-1.3.24s-.86.41-1.23.76c-.25.22-.45.51-.63.82-.04-.1-.06-.23-.12-.32-.27-.5-.63-.87-1.08-1.12-.45-.25-.95-.37-1.5-.37-.42,0-.85.08-1.28.24s-.82.41-1.17.76c-.16.16-.3.34-.43.54v-1.33h-1.03v8.5h1.03v-5.02c0-.63.13-1.15.39-1.56.26-.4.59-.7.99-.89.41-.19.83-.29,1.28-.29.62,0,1.13.2,1.55.6s.63,1.07.63,2.01v5.15h1.03v-5.02c0-.63.13-1.15.39-1.56.26-.4.59-.7.99-.89.41-.19.83-.29,1.28-.29Z"/>
    <path class="cls-2" d="m224.94,470.24c.62-.38,1.1-.91,1.45-1.6.35-.69.52-1.48.52-2.39s-.17-1.67-.51-2.31c-.34-.65-.82-1.15-1.42-1.5-.61-.36-1.3-.54-2.09-.54s-1.53.19-2.15.57c-.62.38-1.11.91-1.46,1.59-.35.68-.52,1.48-.52,2.4s.17,1.65.51,2.3c.34.65.82,1.16,1.42,1.51.6.36,1.3.54,2.09.54s1.54-.19,2.16-.57Zm-4.74-1.96c-.26-.53-.39-1.15-.39-1.88s.13-1.39.4-1.93c.27-.54.63-.96,1.1-1.25.46-.29.98-.44,1.57-.44s1.08.14,1.52.42.8.69,1.05,1.22.39,1.15.39,1.88-.13,1.38-.4,1.92c-.27.54-.63.96-1.1,1.26-.46.29-.98.44-1.57.44s-1.06-.14-1.52-.42-.8-.69-1.06-1.22Z"/>
    <path class="cls-2" d="m235.61,469.25v1.36h1.03v-12.25h-1.03v5.14c-.22-.43-.52-.78-.91-1.05-.54-.37-1.19-.55-1.97-.55s-1.48.19-2.09.57c-.61.38-1.08.9-1.41,1.57-.34.67-.51,1.45-.51,2.35s.17,1.67.51,2.34c.34.66.81,1.18,1.41,1.54.6.36,1.27.54,2.01.54.81,0,1.5-.21,2.07-.63.35-.25.63-.57.87-.94Zm-2.72.61c-.62,0-1.15-.14-1.61-.43-.46-.29-.81-.69-1.07-1.22-.26-.52-.39-1.13-.39-1.82s.13-1.32.39-1.85c.26-.53.61-.94,1.07-1.24.46-.3.98-.45,1.58-.45.54,0,1.01.12,1.42.36s.74.56.98.98c.24.41.36.88.36,1.4v1.53c0,.82-.25,1.48-.75,1.98-.5.5-1.16.76-1.97.76Z"/>
    <path class="cls-2" d="m243.45,466.77c.57-.06,1.06-.18,1.48-.36.42-.18.75-.43.99-.75.23-.32.35-.7.35-1.16,0-.48-.13-.91-.39-1.31-.26-.4-.62-.71-1.09-.94-.47-.23-1.02-.35-1.64-.35-.79,0-1.49.19-2.12.58-.62.39-1.11.92-1.46,1.62-.35.69-.53,1.5-.53,2.43,0,1.34.37,2.39,1.1,3.15.74.76,1.76,1.14,3.07,1.14.65,0,1.21-.08,1.68-.25.47-.16.87-.35,1.2-.55v-.92c-.49.26-.97.45-1.45.58-.47.12-.93.19-1.38.19-.69,0-1.26-.14-1.73-.41-.47-.27-.83-.66-1.07-1.17-.24-.49-.35-1.08-.36-1.75.52.1,1.03.19,1.52.23.65.06,1.26.07,1.82,0Zm-3.28-1.02c.06-.45.15-.88.33-1.24.26-.54.62-.97,1.08-1.27.46-.3.98-.45,1.58-.45.66,0,1.17.17,1.52.5.35.33.53.72.53,1.15s-.17.78-.5,1.01-.77.39-1.32.46c-.55.07-1.15.09-1.81.03-.47-.04-.94-.11-1.42-.19Z"/>
    <path class="cls-2" d="m250.22,470.81c.37,0,.71-.08,1.04-.24v-.85c-.15.05-.29.08-.41.1s-.26.03-.39.03c-.32,0-.55-.08-.69-.26-.14-.17-.21-.49-.21-.95v-10.29h-1.03v10.41c0,.59.13,1.08.39,1.46.26.38.69.58,1.31.58Z"/>
    <path class="cls-2" d="m253.67,471.5c-.09.39-.24.82-.47,1.28h.65c.3-.37.55-.82.75-1.35s.31-1.01.31-1.44c0-.23-.07-.42-.21-.58-.14-.16-.36-.24-.64-.24s-.5.08-.64.24c-.14.16-.21.35-.21.58s.07.41.21.57c.08.1.2.16.34.2,0,.25-.03.5-.08.74Z"/>
    <path class="cls-2" d="m262.04,470.61h1.03v-8.5c-.34.03-.69.03-1.03,0v8.5Z"/>
    <path class="cls-2" d="m262.55,460.34c.25,0,.44-.07.57-.22.13-.15.19-.32.19-.53s-.06-.38-.19-.53c-.13-.15-.31-.22-.57-.22s-.44.07-.57.22c-.13.15-.19.32-.19.53s.06.38.19.53c.13.15.31.22.57.22Z"/>
    <path class="cls-2" d="m273.34,470.61v-12.25h-1.03v5.14c-.22-.43-.52-.78-.91-1.05-.54-.37-1.19-.55-1.97-.55s-1.48.19-2.09.57c-.61.38-1.08.9-1.41,1.57-.34.67-.51,1.45-.51,2.35s.17,1.67.51,2.34c.34.66.81,1.18,1.41,1.54.6.36,1.27.54,2.01.54.81,0,1.5-.21,2.07-.63.35-.25.63-.57.87-.94v1.36h1.03Zm-1.78-1.5c-.5.5-1.16.76-1.97.76-.62,0-1.15-.14-1.61-.43-.46-.29-.81-.69-1.07-1.22-.26-.52-.39-1.13-.39-1.82s.13-1.32.39-1.85c.26-.53.61-.94,1.07-1.24.46-.3.98-.45,1.58-.45.54,0,1.01.12,1.42.36s.74.56.98.98c.24.41.36.88.36,1.4v1.53c0,.82-.25,1.48-.75,1.98Z"/>
    <path class="cls-2" d="m282.8,469.1c-.49.26-.97.45-1.45.58-.47.12-.93.19-1.38.19-.69,0-1.26-.14-1.73-.41-.47-.27-.83-.66-1.07-1.17-.24-.49-.35-1.08-.36-1.75.52.1,1.03.19,1.52.23.65.06,1.26.07,1.82,0,.57-.06,1.06-.18,1.48-.36.42-.18.75-.43.99-.75.23-.32.35-.7.35-1.16,0-.48-.13-.91-.39-1.31-.26-.4-.62-.71-1.09-.94-.47-.23-1.02-.35-1.64-.35-.79,0-1.49.19-2.12.58-.62.39-1.11.92-1.46,1.62-.35.69-.53,1.5-.53,2.43,0,1.34.37,2.39,1.1,3.15.74.76,1.76,1.14,3.07,1.14.65,0,1.21-.08,1.68-.25.47-.16.87-.35,1.2-.55v-.92Zm-5.6-4.59c.26-.54.62-.97,1.08-1.27.46-.3.98-.45,1.58-.45.66,0,1.17.17,1.52.5.35.33.53.72.53,1.15s-.17.78-.5,1.01-.77.39-1.32.46c-.55.07-1.15.09-1.81.03-.47-.04-.94-.11-1.42-.19.06-.45.15-.88.33-1.24Z"/>
    <path class="cls-2" d="m290.71,462.27c-.47-.25-.98-.37-1.53-.37-.42,0-.85.08-1.29.24s-.84.41-1.2.76c-.16.16-.31.34-.44.54v-1.33h-1.03v8.5h1.03v-5.02c0-.63.13-1.15.39-1.56.26-.4.59-.7.99-.89.41-.19.83-.29,1.28-.29.41,0,.8.09,1.16.26.36.18.65.45.87.83.22.38.33.88.33,1.5v5.15h1.03v-5.2c0-.81-.14-1.47-.43-1.98-.29-.52-.67-.9-1.14-1.15Z"/>
    <path class="cls-2" d="m298.11,470.72c.23-.06.47-.14.71-.25v-.92c-.24.09-.47.17-.68.22-.21.06-.43.08-.66.08-.42,0-.73-.12-.93-.36s-.3-.64-.3-1.21v-5.27h2.91v-.92h-2.91v-1.43l-1.92,1.31c-.16.11-.28.22-.36.32-.08.1-.12.21-.12.32,0,.1.04.19.12.27.08.08.22.12.41.12h.84v5.36c0,.86.19,1.48.56,1.86.37.38.88.57,1.53.57.3,0,.56-.03.8-.09Z"/>
    <path class="cls-2" d="m300.96,470.61h1.03v-8.5c-.34.03-.69.03-1.03,0v8.5Z"/>
    <path class="cls-2" d="m301.47,460.34c.25,0,.44-.07.57-.22.13-.15.19-.32.19-.53s-.06-.38-.19-.53c-.13-.15-.31-.22-.57-.22s-.44.07-.57.22c-.13.15-.19.32-.19.53s.06.38.19.53c.13.15.31.22.57.22Z"/>
    <path class="cls-2" d="m306.35,470.61v-7.59h2.91v-.92h-2.91v-1.29c0-.65.16-1.1.48-1.37.32-.27.67-.4,1.06-.4.26,0,.48.04.65.11.17.07.33.11.48.11.13,0,.23-.04.3-.12.07-.08.11-.18.11-.29,0-.22-.12-.39-.36-.51s-.58-.19-1.03-.19c-.53,0-.99.1-1.4.3-.41.2-.73.49-.97.88-.23.39-.35.88-.35,1.47v1.29h-.79c-.18,0-.33.04-.43.12-.1.08-.15.19-.15.34s.05.26.15.34c.1.08.25.12.43.12h.79v7.59h1.03Z"/>
    <path class="cls-2" d="m318.54,462.1h-1.11l-3,7.33-3-7.33h-1.11l3.6,8.5c-.32.75-.61,1.32-.87,1.71-.26.39-.5.66-.72.8s-.42.21-.62.21c-.17,0-.32-.03-.45-.09s-.26-.08-.41-.08c-.13,0-.23.03-.31.1-.08.07-.12.16-.12.29,0,.16.06.29.18.38.12.1.27.17.46.21.19.04.38.07.57.07.65,0,1.21-.24,1.69-.73.47-.49.94-1.29,1.41-2.4l.2-.48h0l3.6-8.5Z"/>
    <path class="cls-2" d="m331.7,470.61h1.03l2.64-8.5h-1.11l-2.06,7.14-2.23-6.54c-.09-.27-.2-.47-.33-.6-.13-.13-.28-.2-.46-.2s-.34.07-.46.2c-.13.13-.23.33-.33.6l-2.23,6.54-2.06-7.14h-1.11l2.64,8.5h1.03l2.52-7.3,2.52,7.3Z"/>
    <path class="cls-2" d="m342,463.12c.36.18.65.45.87.83.22.38.33.88.33,1.5v5.15h1.03v-5.2c0-.81-.14-1.47-.43-1.98-.29-.52-.67-.9-1.14-1.15-.47-.25-.98-.37-1.53-.37-.42,0-.85.08-1.28.24-.43.16-.83.41-1.19.76-.17.16-.32.35-.45.56v-5.09h-1.03v12.25h1.03v-5.02c0-.63.13-1.15.39-1.56.26-.4.59-.7.99-.89.41-.19.83-.29,1.28-.29.41,0,.8.09,1.16.26Z"/>
    <path class="cls-2" d="m352.04,468.98c.01.28.02.56.08.84.06.35.13.61.21.79h1.03c-.11-.25-.21-.58-.3-1-.09-.41-.13-.86-.13-1.35v-3.74c0-.65-.13-1.16-.4-1.55-.27-.38-.63-.66-1.09-.82-.46-.17-.98-.25-1.56-.25-1.21,0-2.12.32-2.74.97-.15.16-.25.31-.31.44-.06.14-.09.25-.09.36,0,.14.04.24.12.31.08.07.18.1.29.1.17,0,.31-.06.43-.19.11-.12.25-.27.41-.44.16-.17.39-.32.68-.44.29-.12.69-.19,1.21-.19.58,0,1.06.12,1.45.36.38.24.57.69.57,1.34v.07c0,.31-.09.53-.28.68-.19.15-.6.29-1.24.43l-1.44.31c-.83.18-1.46.47-1.88.86-.42.39-.62.92-.62,1.57,0,.76.25,1.35.74,1.76.49.41,1.12.62,1.9.62.66,0,1.29-.17,1.88-.52.48-.28.84-.73,1.09-1.31Zm-2.79.98c-.51,0-.93-.14-1.24-.42-.31-.28-.47-.66-.47-1.15s.15-.85.46-1.1c.31-.24.71-.42,1.2-.52l1.37-.29c.4-.09.7-.18.9-.28s.35-.2.44-.3v1.38c0,.56-.13,1.04-.39,1.44-.26.4-.59.71-.99.92s-.83.31-1.28.31Z"/>
    <path class="cls-2" d="m359.64,469.55c-.24.09-.47.17-.68.22-.21.06-.43.08-.66.08-.42,0-.73-.12-.93-.36s-.3-.64-.3-1.21v-5.27h2.91v-.92h-2.91v-1.43l-1.92,1.31c-.16.11-.28.22-.36.32-.08.1-.12.21-.12.32,0,.1.04.19.12.27.08.08.22.12.41.12h.84v5.36c0,.86.19,1.48.56,1.86.37.38.88.57,1.53.57.3,0,.56-.03.8-.09.23-.06.47-.14.71-.25v-.92Z"/>
    <path class="cls-2" d="m362,462.1h.58l.43-2.52c.05-.26.04-.47-.03-.63-.06-.16-.16-.27-.28-.35-.13-.07-.26-.11-.41-.11s-.29.04-.41.11c-.13.07-.22.19-.28.35-.06.16-.07.37-.03.63l.43,2.52Z"/>
    <path class="cls-2" d="m370.61,469.61c.21-.37.32-.77.32-1.2,0-.52-.12-.94-.36-1.25-.24-.31-.55-.56-.92-.74s-.78-.33-1.2-.45-.82-.24-1.2-.37c-.38-.13-.69-.3-.93-.51-.24-.21-.36-.5-.36-.86s.15-.71.46-1.02c.31-.31.81-.46,1.49-.46.43,0,.77.06,1.02.18s.44.25.57.41c.14.15.26.29.36.41.1.12.23.18.39.18.11,0,.21-.04.28-.12.07-.08.11-.19.11-.34,0-.27-.12-.53-.35-.76-.23-.24-.56-.43-.97-.58-.41-.15-.88-.22-1.42-.22-.65,0-1.2.11-1.64.33-.44.22-.77.52-.98.89-.22.37-.33.78-.33,1.22,0,.49.12.88.36,1.18.24.3.55.54.92.71s.78.31,1.2.43c.42.12.82.25,1.2.38s.69.31.92.54c.24.22.36.52.36.89,0,.4-.16.74-.49,1.04-.33.29-.85.44-1.58.44-.51,0-1.02-.09-1.52-.26s-.98-.44-1.45-.81v1.04c.29.24.68.45,1.18.62s1.09.26,1.76.26c.73,0,1.32-.11,1.77-.32.45-.21.78-.51.99-.88Z"/>
    <path class="cls-2" d="m381.74,466.43c-.38-.18-.78-.33-1.2-.45s-.82-.24-1.2-.37c-.38-.13-.69-.3-.93-.51-.24-.21-.36-.5-.36-.86s.15-.71.46-1.02c.31-.31.81-.46,1.49-.46.43,0,.77.06,1.02.18s.44.25.57.41c.14.15.26.29.36.41.1.12.23.18.39.18.11,0,.21-.04.28-.12.07-.08.11-.19.11-.34,0-.27-.12-.53-.35-.76-.23-.24-.56-.43-.97-.58-.41-.15-.88-.22-1.42-.22-.65,0-1.2.11-1.64.33-.44.22-.77.52-.98.89-.22.37-.33.78-.33,1.22,0,.49.12.88.36,1.18.24.3.55.54.92.71s.78.31,1.2.43c.42.12.82.25,1.2.38s.69.31.92.54c.24.22.36.52.36.89,0,.4-.16.74-.49,1.04-.33.29-.85.44-1.58.44-.51,0-1.02-.09-1.52-.26s-.98-.44-1.45-.81v1.04c.29.24.68.45,1.18.62s1.09.26,1.76.26c.73,0,1.32-.11,1.77-.32.45-.21.78-.51.99-.88.21-.37.32-.77.32-1.2,0-.52-.12-.94-.36-1.25-.24-.31-.55-.56-.92-.74Z"/>
    <path class="cls-2" d="m387.02,470.81c.37,0,.71-.08,1.04-.24v-.85c-.15.05-.29.08-.41.1s-.26.03-.39.03c-.32,0-.55-.08-.69-.26-.14-.17-.21-.49-.21-.95v-10.29h-1.03v10.41c0,.59.13,1.08.39,1.46.26.38.69.58,1.31.58Z"/>
    <path class="cls-2" d="m396.81,468.64c.35-.69.52-1.48.52-2.39s-.17-1.67-.51-2.31c-.34-.65-.82-1.15-1.42-1.5-.61-.36-1.3-.54-2.09-.54s-1.53.19-2.15.57c-.62.38-1.11.91-1.46,1.59-.35.68-.52,1.48-.52,2.4s.17,1.65.51,2.3c.34.65.82,1.16,1.42,1.51.6.36,1.3.54,2.09.54s1.54-.19,2.16-.57c.62-.38,1.1-.91,1.45-1.6Zm-3.61,1.28c-.56,0-1.06-.14-1.52-.42s-.8-.69-1.06-1.22c-.26-.53-.39-1.15-.39-1.88s.13-1.39.4-1.93c.27-.54.63-.96,1.1-1.25.46-.29.98-.44,1.57-.44s1.08.14,1.52.42.8.69,1.05,1.22.39,1.15.39,1.88-.13,1.38-.4,1.92c-.27.54-.63.96-1.1,1.26-.46.29-.98.44-1.57.44Z"/>
    <path class="cls-2" d="m407.52,469.25l-2.23-6.54c-.09-.27-.2-.47-.33-.6-.13-.13-.28-.2-.46-.2s-.34.07-.46.2c-.13.13-.23.33-.33.6l-2.23,6.54-2.06-7.14h-1.11l2.64,8.5h1.03l2.52-7.3,2.52,7.3h1.03l2.64-8.5h-1.11l-2.06,7.14Z"/>
    <path class="cls-2" d="m413.01,460.34c.25,0,.44-.07.57-.22.13-.15.19-.32.19-.53s-.06-.38-.19-.53c-.13-.15-.31-.22-.57-.22s-.44.07-.57.22c-.13.15-.19.32-.19.53s.06.38.19.53c.13.15.31.22.57.22Z"/>
    <path class="cls-2" d="m412.49,470.61h1.03v-8.5c-.34.03-.69.03-1.03,0v8.5Z"/>
    <path class="cls-2" d="m422.18,463.95c.22.38.33.88.33,1.5v5.15h1.03v-5.2c0-.81-.14-1.47-.43-1.98-.29-.52-.67-.9-1.14-1.15-.47-.25-.98-.37-1.53-.37-.42,0-.85.08-1.29.24s-.84.41-1.2.76c-.16.16-.31.34-.44.54v-1.33h-1.03v8.5h1.03v-5.02c0-.63.13-1.15.39-1.56.26-.4.59-.7.99-.89.41-.19.83-.29,1.28-.29.41,0,.8.09,1.16.26.36.18.65.45.87.83Z"/>
    <path class="cls-2" d="m433.67,471.6c0-.76-.25-1.31-.76-1.64-.51-.33-1.18-.5-2.03-.5h-2.6c-.53,0-.9-.06-1.12-.18s-.33-.31-.33-.59c0-.18.06-.36.19-.54s.37-.33.74-.45c.37-.12.9-.18,1.61-.18s1.31-.12,1.83-.35c.52-.23.94-.56,1.23-.99.3-.42.45-.92.45-1.49,0-.29-.05-.58-.14-.84-.09-.27-.24-.51-.44-.73-.08-.09-.18-.17-.29-.25.26.04.51.08.71.1.38.04.82.06,1.31.06v-.92c-.77,0-1.52-.03-2.25-.1-.74-.07-1.5-.1-2.29-.1-.67,0-1.27.12-1.8.36-.52.24-.94.57-1.23,1-.3.43-.45.94-.45,1.51,0,.85.31,1.52.93,2.01.18.14.38.26.6.36-.51.1-.91.27-1.19.52-.34.29-.51.68-.51,1.17,0,.26.06.51.19.76.13.24.35.44.66.6s.76.23,1.34.23h2.62c.78,0,1.31.11,1.59.34.29.23.43.52.43.88,0,.6-.29,1.03-.87,1.3-.58.27-1.31.4-2.19.4-.59,0-1.06-.04-1.4-.13-.34-.08-.61-.19-.8-.31-.19-.12-.35-.22-.48-.31s-.28-.13-.44-.13c-.15,0-.26.04-.33.13-.07.08-.11.18-.11.3s.03.22.1.32c.07.1.17.2.29.29.29.21.7.39,1.23.52.54.13,1.18.2,1.92.2,1.36,0,2.38-.22,3.06-.67.68-.45,1.02-1.1,1.02-1.95Zm-6.66-6.85c0-.63.23-1.12.69-1.45.46-.33,1.05-.5,1.77-.5s1.28.16,1.73.48.67.79.67,1.41-.23,1.12-.69,1.45-1.06.5-1.79.5-1.27-.16-1.71-.48-.67-.79-.67-1.41Z"/>
    <path class="cls-2" d="m23.77,491.5l.2-.48h0l3.6-8.5h-1.11l-3,7.33-3-7.33h-1.11l3.6,8.5c-.32.75-.61,1.32-.87,1.71-.26.39-.5.66-.72.8s-.42.21-.62.21c-.17,0-.32-.03-.45-.09s-.26-.08-.41-.08c-.13,0-.23.03-.31.1-.08.07-.12.16-.12.29,0,.16.06.29.18.38.12.1.27.17.46.21.19.04.38.07.57.07.65,0,1.21-.24,1.69-.73.47-.49.94-1.29,1.41-2.4Z"/>
    <path class="cls-2" d="m36.04,489.05c.35-.69.52-1.48.52-2.39s-.17-1.67-.51-2.31c-.34-.65-.82-1.15-1.42-1.5-.61-.36-1.3-.54-2.09-.54s-1.53.19-2.15.57c-.62.38-1.11.91-1.46,1.59-.35.68-.52,1.48-.52,2.4s.17,1.65.51,2.3c.34.65.82,1.16,1.42,1.51.6.36,1.3.54,2.09.54s1.54-.19,2.16-.57c.62-.38,1.1-.91,1.45-1.6Zm-2.04.84c-.46.29-.98.44-1.57.44s-1.06-.14-1.52-.42-.8-.69-1.06-1.22c-.26-.53-.39-1.15-.39-1.88s.13-1.39.4-1.93c.27-.54.63-.96,1.1-1.25.46-.29.98-.44,1.57-.44s1.08.14,1.52.42.8.69,1.05,1.22.39,1.15.39,1.88-.13,1.38-.4,1.92c-.27.54-.63.96-1.1,1.26Z"/>
    <path class="cls-2" d="m45.73,482.52h-1.03v5.08c0,.9-.22,1.57-.65,2.01-.43.44-1.04.66-1.82.66s-1.37-.22-1.81-.66c-.44-.44-.66-1.11-.66-2.01v-5.08h-1.03v5.1c0,1.24.33,2.15.98,2.73s1.49.88,2.52.88,1.87-.29,2.52-.88.98-1.49.98-2.73v-5.1Z"/>
    <path class="cls-2" d="m60.05,491.02v-12.25h-1.03v5.14c-.22-.43-.52-.78-.91-1.05-.54-.37-1.19-.55-1.97-.55s-1.48.19-2.09.57c-.61.38-1.08.9-1.41,1.57-.34.67-.51,1.45-.51,2.35s.17,1.67.51,2.34c.34.66.81,1.18,1.41,1.54.6.36,1.27.54,2.01.54.81,0,1.5-.21,2.07-.63.35-.25.63-.57.87-.94v1.36h1.03Zm-1.78-1.5c-.5.5-1.16.76-1.97.76-.62,0-1.15-.14-1.61-.43-.46-.29-.81-.69-1.07-1.22-.26-.52-.39-1.13-.39-1.82s.13-1.32.39-1.85c.26-.53.61-.94,1.07-1.24.46-.3.98-.45,1.58-.45.54,0,1.01.12,1.42.36s.74.56.98.98c.24.41.36.88.36,1.4v1.53c0,.82-.25,1.48-.75,1.98Z"/>
    <path class="cls-2" d="m66.47,491.22c.82,0,1.54-.19,2.16-.57.62-.38,1.1-.91,1.45-1.6.35-.69.52-1.48.52-2.39s-.17-1.67-.51-2.31c-.34-.65-.82-1.15-1.42-1.5-.61-.36-1.3-.54-2.09-.54s-1.53.19-2.15.57c-.62.38-1.11.91-1.46,1.59-.35.68-.52,1.48-.52,2.4s.17,1.65.51,2.3c.34.65.82,1.16,1.42,1.51.6.36,1.3.54,2.09.54Zm-2.58-2.53c-.26-.53-.39-1.15-.39-1.88s.13-1.39.4-1.93c.27-.54.63-.96,1.1-1.25.46-.29.98-.44,1.57-.44s1.08.14,1.52.42.8.69,1.05,1.22.39,1.15.39,1.88-.13,1.38-.4,1.92c-.27.54-.63.96-1.1,1.26-.46.29-.98.44-1.57.44s-1.06-.14-1.52-.42-.8-.69-1.06-1.22Z"/>
    <path class="cls-2" d="m74.3,491.02h.96l2.52-7.3,2.52,7.3h1.03l2.64-8.5h-1.11l-2.06,7.14-2.23-6.54c-.09-.27-.2-.47-.33-.6-.13-.13-.28-.2-.46-.2s-.34.07-.46.2c-.13.13-.23.33-.33.6l-2.23,6.54-2.06-7.14h-1.11l2.64,8.5h.07Z"/>
    <path class="cls-2" d="m90.6,483.53c.36.18.65.45.87.83.22.38.33.88.33,1.5v5.15h1.03v-5.2c0-.81-.14-1.47-.43-1.98-.29-.52-.67-.9-1.14-1.15-.47-.25-.98-.37-1.53-.37-.42,0-.85.08-1.29.24s-.84.41-1.2.76c-.16.16-.31.34-.44.54v-1.33h-1.03v8.5h1.03v-5.02c0-.63.13-1.15.39-1.56.26-.4.59-.7.99-.89.41-.19.83-.29,1.28-.29.41,0,.8.09,1.16.26Z"/>
    <path class="cls-2" d="m96.32,489.59c-.29,0-.5.08-.64.24-.14.16-.21.35-.21.58s.07.41.21.57c.08.1.2.16.34.2,0,.25-.03.5-.08.74-.09.39-.24.82-.47,1.28h.65c.3-.37.55-.82.75-1.35s.31-1.01.31-1.44c0-.23-.07-.42-.21-.58-.14-.16-.36-.24-.64-.24Z"/>
    <path class="cls-2" d="m107.68,483.2c.45,0,.79.07,1.04.2.25.13.44.28.58.44.14.16.27.31.39.44.11.13.26.2.45.2.13,0,.23-.04.32-.12.09-.08.13-.19.13-.34,0-.25-.12-.5-.36-.75-.23-.25-.55-.47-.98-.66-.42-.19-.94-.29-1.54-.29-.81,0-1.52.19-2.14.57-.62.38-1.1.91-1.45,1.6-.35.69-.52,1.48-.52,2.39,0,1.34.37,2.4,1.12,3.18.75.78,1.77,1.17,3.06,1.17.63,0,1.15-.08,1.58-.25.42-.16.79-.35,1.1-.55v-.92c-.46.26-.9.45-1.33.58s-.86.19-1.29.19c-.65,0-1.21-.14-1.68-.41-.47-.27-.83-.67-1.08-1.18-.25-.52-.38-1.14-.38-1.88,0-1.09.27-1.96.8-2.62.53-.66,1.26-.99,2.2-.99Z"/>
    <path class="cls-2" d="m116.72,490.7c.48-.28.84-.73,1.09-1.31.01.28.02.56.08.84.06.35.13.61.21.79h1.03c-.11-.25-.21-.58-.3-1-.09-.41-.13-.86-.13-1.35v-3.74c0-.65-.13-1.16-.4-1.55-.27-.38-.63-.66-1.09-.82-.46-.17-.98-.25-1.56-.25-1.21,0-2.12.32-2.74.97-.15.16-.25.31-.31.44-.06.14-.09.25-.09.36,0,.14.04.24.12.31.08.07.18.1.29.1.17,0,.31-.06.43-.19.11-.12.25-.27.41-.44.16-.17.39-.32.68-.44.29-.12.69-.19,1.21-.19.58,0,1.06.12,1.45.36.38.24.57.69.57,1.34v.07c0,.31-.09.53-.28.68-.19.15-.6.29-1.24.43l-1.44.31c-.83.18-1.46.47-1.88.86-.42.39-.62.92-.62,1.57,0,.76.25,1.35.74,1.76.49.41,1.12.62,1.9.62.66,0,1.29-.17,1.88-.52Zm-3.42-1.9c0-.49.15-.85.46-1.1.31-.24.71-.42,1.2-.52l1.37-.29c.4-.09.7-.18.9-.28s.35-.2.44-.3v1.38c0,.56-.13,1.04-.39,1.44-.26.4-.59.71-.99.92s-.83.31-1.28.31c-.51,0-.93-.14-1.24-.42-.31-.28-.47-.66-.47-1.15Z"/>
    <path class="cls-2" d="m127.59,482.85c-.59-.36-1.27-.54-2.02-.54-.8,0-1.48.21-2.06.62-.35.25-.64.58-.89.95v-1.37h-1.03v11.91h1.03v-4.81c.22.42.52.77.91,1.05.54.37,1.19.56,1.97.56s1.5-.19,2.1-.57c.6-.38,1.07-.91,1.4-1.58s.51-1.45.51-2.34-.17-1.69-.51-2.35c-.34-.66-.81-1.17-1.4-1.53Zm.44,5.71c-.26.53-.61.95-1.07,1.25-.46.3-.98.45-1.58.45-.53,0-1-.12-1.41-.36-.42-.24-.75-.56-.98-.98s-.36-.88-.36-1.4v-1.53c0-.82.25-1.48.76-1.98.51-.5,1.16-.76,1.96-.76.62,0,1.15.14,1.61.43s.81.7,1.07,1.22.39,1.13.39,1.82-.13,1.3-.39,1.84Z"/>
    <path class="cls-2" d="m133.05,481.09l-1.92,1.31c-.16.11-.28.22-.36.32-.08.1-.12.21-.12.32,0,.1.04.19.12.27.08.08.22.12.41.12h.84v5.36c0,.86.19,1.48.56,1.86.37.38.88.57,1.53.57.3,0,.56-.03.8-.09.23-.06.47-.14.71-.25v-.92c-.24.09-.47.17-.68.22-.21.06-.43.08-.66.08-.42,0-.73-.12-.93-.36s-.3-.64-.3-1.21v-5.27h2.91v-.92h-2.91v-1.43Z"/>
    <path class="cls-2" d="m143.58,487.6c0,.9-.22,1.57-.65,2.01-.43.44-1.04.66-1.82.66s-1.37-.22-1.81-.66c-.44-.44-.66-1.11-.66-2.01v-5.08h-1.03v5.1c0,1.24.33,2.15.98,2.73s1.49.88,2.52.88,1.87-.29,2.52-.88.98-1.49.98-2.73v-5.1h-1.03v5.08Z"/>
    <path class="cls-2" d="m151.12,482.4c-.15-.06-.34-.09-.56-.09-.48,0-.95.18-1.4.54-.27.22-.52.53-.74.92v-1.26h-1.03v8.5h1.03v-5.02c0-.75.17-1.37.51-1.88.34-.5.78-.76,1.32-.76.16,0,.31.02.44.06s.27.06.4.06c.17,0,.3-.04.39-.13s.13-.2.13-.33c0-.15-.04-.27-.13-.37-.09-.1-.21-.18-.36-.25Z"/>
    <path class="cls-2" d="m156.86,487.18c.57-.06,1.06-.18,1.48-.36.42-.18.75-.43.99-.75.23-.32.35-.7.35-1.16,0-.48-.13-.91-.39-1.31-.26-.4-.62-.71-1.09-.94-.47-.23-1.02-.35-1.64-.35-.79,0-1.49.19-2.12.58-.62.39-1.11.92-1.46,1.62-.35.69-.53,1.5-.53,2.43,0,1.34.37,2.39,1.1,3.15.74.76,1.76,1.14,3.07,1.14.65,0,1.21-.08,1.68-.25.47-.16.87-.35,1.2-.55v-.92c-.49.26-.97.45-1.45.58-.47.12-.93.19-1.38.19-.69,0-1.26-.14-1.73-.41-.47-.27-.83-.66-1.07-1.17-.24-.49-.35-1.08-.36-1.75.52.1,1.03.19,1.52.23.65.06,1.26.07,1.82,0Zm-3.28-1.02c.06-.45.15-.88.33-1.24.26-.54.62-.97,1.08-1.27.46-.3.98-.45,1.58-.45.66,0,1.17.17,1.52.5.35.33.53.72.53,1.15s-.17.78-.5,1.01-.77.39-1.32.46c-.55.07-1.15.09-1.81.03-.47-.04-.94-.11-1.42-.19Z"/>
    <path class="cls-2" d="m169.95,487.18c.57-.06,1.06-.18,1.48-.36.42-.18.75-.43.99-.75.23-.32.35-.7.35-1.16,0-.48-.13-.91-.39-1.31-.26-.4-.62-.71-1.09-.94-.47-.23-1.02-.35-1.64-.35-.79,0-1.49.19-2.12.58-.62.39-1.11.92-1.46,1.62-.35.69-.53,1.5-.53,2.43,0,1.34.37,2.39,1.1,3.15.74.76,1.76,1.14,3.07,1.14.65,0,1.21-.08,1.68-.25.47-.16.87-.35,1.2-.55v-.92c-.49.26-.97.45-1.45.58-.47.12-.93.19-1.38.19-.69,0-1.26-.14-1.73-.41-.47-.27-.83-.66-1.07-1.17-.24-.49-.35-1.08-.36-1.75.52.1,1.03.19,1.52.23.65.06,1.26.07,1.82,0Zm-3.28-1.02c.06-.45.15-.88.33-1.24.26-.54.62-.97,1.08-1.27.46-.3.98-.45,1.58-.45.66,0,1.17.17,1.52.5.35.33.53.72.53,1.15s-.17.78-.5,1.01-.77.39-1.32.46c-.55.07-1.15.09-1.81.03-.47-.04-.94-.11-1.42-.19Z"/>
    <polygon class="cls-2" points="177.94 489.85 174.94 482.52 173.83 482.52 177.42 491.02 177.46 491.02 178.42 491.02 178.45 491.02 182.05 482.52 180.93 482.52 177.94 489.85"/>
    <path class="cls-2" d="m187.29,487.18c.57-.06,1.06-.18,1.48-.36.42-.18.75-.43.99-.75.23-.32.35-.7.35-1.16,0-.48-.13-.91-.39-1.31-.26-.4-.62-.71-1.09-.94-.47-.23-1.02-.35-1.64-.35-.79,0-1.49.19-2.12.58-.62.39-1.11.92-1.46,1.62-.35.69-.53,1.5-.53,2.43,0,1.34.37,2.39,1.1,3.15.74.76,1.76,1.14,3.07,1.14.65,0,1.21-.08,1.68-.25.47-.16.87-.35,1.2-.55v-.92c-.49.26-.97.45-1.45.58-.47.12-.93.19-1.38.19-.69,0-1.26-.14-1.73-.41-.47-.27-.83-.66-1.07-1.17-.24-.49-.35-1.08-.36-1.75.52.1,1.03.19,1.52.23.65.06,1.26.07,1.82,0Zm-3.28-1.02c.06-.45.15-.88.33-1.24.26-.54.62-.97,1.08-1.27.46-.3.98-.45,1.58-.45.66,0,1.17.17,1.52.5.35.33.53.72.53,1.15s-.17.78-.5,1.01-.77.39-1.32.46c-.55.07-1.15.09-1.81.03-.47-.04-.94-.11-1.42-.19Z"/>
    <path class="cls-2" d="m196.08,482.4c-.15-.06-.34-.09-.56-.09-.48,0-.95.18-1.4.54-.27.22-.52.53-.74.92v-1.26h-1.03v8.5h1.03v-5.02c0-.75.17-1.37.51-1.88.34-.5.78-.76,1.32-.76.16,0,.31.02.44.06s.27.06.4.06c.17,0,.3-.04.39-.13s.13-.2.13-.33c0-.15-.04-.27-.13-.37-.09-.1-.21-.18-.36-.25Z"/>
    <path class="cls-2" d="m201.71,489.85l-3-7.33h-1.11l3.6,8.5c-.32.75-.61,1.32-.87,1.71-.26.39-.5.66-.72.8s-.42.21-.62.21c-.17,0-.32-.03-.45-.09s-.26-.08-.41-.08c-.13,0-.23.03-.31.1-.08.07-.12.16-.12.29,0,.16.06.29.18.38.12.1.27.17.46.21.19.04.38.07.57.07.65,0,1.21-.24,1.69-.73.47-.49.94-1.29,1.41-2.4l.2-.48h0l3.6-8.5h-1.11l-3,7.33Z"/>
    <path class="cls-2" d="m217.75,482.85c-.59-.36-1.27-.54-2.02-.54-.8,0-1.48.21-2.06.62-.35.25-.64.58-.89.95v-1.37h-1.03v11.91h1.03v-4.81c.22.42.52.77.91,1.05.54.37,1.19.56,1.97.56s1.5-.19,2.1-.57c.6-.38,1.07-.91,1.4-1.58s.51-1.45.51-2.34-.17-1.69-.51-2.35c-.34-.66-.81-1.17-1.4-1.53Zm.44,5.71c-.26.53-.61.95-1.07,1.25-.46.3-.98.45-1.58.45-.53,0-1-.12-1.41-.36-.42-.24-.75-.56-.98-.98s-.36-.88-.36-1.4v-1.53c0-.82.25-1.48.76-1.98.51-.5,1.16-.76,1.96-.76.62,0,1.15.14,1.61.43s.81.7,1.07,1.22.39,1.13.39,1.82-.13,1.3-.39,1.84Z"/>
    <path class="cls-2" d="m227.92,488.67v-3.74c0-.65-.13-1.16-.4-1.55-.27-.38-.63-.66-1.09-.82-.46-.17-.98-.25-1.56-.25-1.21,0-2.12.32-2.74.97-.15.16-.25.31-.31.44-.06.14-.09.25-.09.36,0,.14.04.24.12.31.08.07.18.1.29.1.17,0,.31-.06.43-.19.11-.12.25-.27.41-.44.16-.17.39-.32.68-.44.29-.12.69-.19,1.21-.19.58,0,1.06.12,1.45.36.38.24.57.69.57,1.34v.07c0,.31-.09.53-.28.68-.19.15-.6.29-1.24.43l-1.44.31c-.83.18-1.46.47-1.88.86-.42.39-.62.92-.62,1.57,0,.76.25,1.35.74,1.76.49.41,1.12.62,1.9.62.66,0,1.29-.17,1.88-.52.48-.28.84-.73,1.09-1.31.01.28.02.56.08.84.06.35.13.61.21.79h1.03c-.11-.25-.21-.58-.3-1-.09-.41-.13-.86-.13-1.35Zm-2.41,1.39c-.41.21-.83.31-1.28.31-.51,0-.93-.14-1.24-.42-.31-.28-.47-.66-.47-1.15s.15-.85.46-1.1c.31-.24.71-.42,1.2-.52l1.37-.29c.4-.09.7-.18.9-.28s.35-.2.44-.3v1.38c0,.56-.13,1.04-.39,1.44-.26.4-.59.71-.99.92Z"/>
    <path class="cls-2" d="m231.34,479.25c-.25,0-.44.07-.57.22-.13.15-.19.32-.19.53s.06.38.19.53c.13.15.31.22.57.22s.44-.07.57-.22c.13-.15.19-.32.19-.53s-.06-.38-.19-.53c-.13-.15-.31-.22-.57-.22Z"/>
    <path class="cls-2" d="m230.82,491.02h1.03v-8.5c-.34.03-.69.03-1.03,0v8.5Z"/>
    <path class="cls-2" d="m240.3,482.69c-.47-.25-.98-.37-1.53-.37-.42,0-.85.08-1.29.24s-.84.41-1.2.76c-.16.16-.31.34-.44.54v-1.33h-1.03v8.5h1.03v-5.02c0-.63.13-1.15.39-1.56.26-.4.59-.7.99-.89.41-.19.83-.29,1.28-.29.41,0,.8.09,1.16.26.36.18.65.45.87.83.22.38.33.88.33,1.5v5.15h1.03v-5.2c0-.81-.14-1.47-.43-1.98-.29-.52-.67-.9-1.14-1.15Z"/>
    <path class="cls-2" d="m254.98,482.85c-.59-.36-1.27-.54-2.02-.54-.8,0-1.48.21-2.06.62-.35.25-.64.58-.89.95v-1.37h-1.03v11.91h1.03v-4.81c.22.42.52.77.91,1.05.54.37,1.19.56,1.97.56s1.5-.19,2.1-.57c.6-.38,1.07-.91,1.4-1.58s.51-1.45.51-2.34-.17-1.69-.51-2.35c-.34-.66-.81-1.17-1.4-1.53Zm.44,5.71c-.26.53-.61.95-1.07,1.25-.46.3-.98.45-1.58.45-.53,0-1-.12-1.41-.36-.42-.24-.75-.56-.98-.98s-.36-.88-.36-1.4v-1.53c0-.82.25-1.48.76-1.98.51-.5,1.16-.76,1.96-.76.62,0,1.15.14,1.61.43s.81.7,1.07,1.22.39,1.13.39,1.82-.13,1.3-.39,1.84Z"/>
    <path class="cls-2" d="m264.93,482.85c-.61-.36-1.3-.54-2.09-.54s-1.53.19-2.15.57c-.62.38-1.11.91-1.46,1.59-.35.68-.52,1.48-.52,2.4s.17,1.65.51,2.3c.34.65.82,1.16,1.42,1.51.6.36,1.3.54,2.09.54s1.54-.19,2.16-.57c.62-.38,1.1-.91,1.45-1.6.35-.69.52-1.48.52-2.39s-.17-1.67-.51-2.31c-.34-.65-.82-1.15-1.42-1.5Zm.47,5.79c-.27.54-.63.96-1.1,1.26-.46.29-.98.44-1.57.44s-1.06-.14-1.52-.42-.8-.69-1.06-1.22c-.26-.53-.39-1.15-.39-1.88s.13-1.39.4-1.93c.27-.54.63-.96,1.1-1.25.46-.29.98-.44,1.57-.44s1.08.14,1.52.42.8.69,1.05,1.22.39,1.15.39,1.88-.13,1.38-.4,1.92Z"/>
    <path class="cls-2" d="m269.72,479.25c-.25,0-.44.07-.57.22-.13.15-.19.32-.19.53s.06.38.19.53c.13.15.31.22.57.22s.44-.07.57-.22c.13-.15.19-.32.19-.53s-.06-.38-.19-.53c-.13-.15-.31-.22-.57-.22Z"/>
    <path class="cls-2" d="m269.2,491.02h1.03v-8.5c-.34.03-.69.03-1.03,0v8.5Z"/>
    <path class="cls-2" d="m278.68,482.69c-.47-.25-.98-.37-1.53-.37-.42,0-.85.08-1.29.24s-.84.41-1.2.76c-.16.16-.31.34-.44.54v-1.33h-1.03v8.5h1.03v-5.02c0-.63.13-1.15.39-1.56.26-.4.59-.7.99-.89.41-.19.83-.29,1.28-.29.41,0,.8.09,1.16.26.36.18.65.45.87.83.22.38.33.88.33,1.5v5.15h1.03v-5.2c0-.81-.14-1.47-.43-1.98-.29-.52-.67-.9-1.14-1.15Z"/>
    <path class="cls-2" d="m284.22,481.09l-1.92,1.31c-.16.11-.28.22-.36.32-.08.1-.12.21-.12.32,0,.1.04.19.12.27.08.08.22.12.41.12h.84v5.36c0,.86.19,1.48.56,1.86.37.38.88.57,1.53.57.3,0,.56-.03.8-.09.23-.06.47-.14.71-.25v-.92c-.24.09-.47.17-.68.22-.21.06-.43.08-.66.08-.42,0-.73-.12-.93-.36s-.3-.64-.3-1.21v-5.27h2.91v-.92h-2.91v-1.43Z"/>
    <path class="cls-2" d="m289.53,489.59c-.29,0-.5.08-.64.24-.14.16-.21.35-.21.58s.07.41.21.57c.08.1.2.16.34.2,0,.25-.03.5-.08.74-.09.39-.24.82-.47,1.28h.65c.3-.37.55-.82.75-1.35s.31-1.01.31-1.44c0-.23-.07-.42-.21-.58-.14-.16-.36-.24-.64-.24Z"/>
    <path class="cls-2" d="m303.36,488.67v-3.74c0-.65-.13-1.16-.4-1.55-.27-.38-.63-.66-1.09-.82-.46-.17-.98-.25-1.56-.25-1.21,0-2.12.32-2.74.97-.15.16-.25.31-.31.44-.06.14-.09.25-.09.36,0,.14.04.24.12.31.08.07.18.1.29.1.17,0,.31-.06.43-.19.11-.12.25-.27.41-.44.16-.17.39-.32.68-.44.29-.12.69-.19,1.21-.19.58,0,1.06.12,1.45.36.38.24.57.69.57,1.34v.07c0,.31-.09.53-.28.68-.19.15-.6.29-1.24.43l-1.44.31c-.83.18-1.46.47-1.88.86-.42.39-.62.92-.62,1.57,0,.76.25,1.35.74,1.76.49.41,1.12.62,1.9.62.66,0,1.29-.17,1.88-.52.48-.28.84-.73,1.09-1.31.01.28.02.56.08.84.06.35.13.61.21.79h1.03c-.11-.25-.21-.58-.3-1-.09-.41-.13-.86-.13-1.35Zm-2.41,1.39c-.41.21-.83.31-1.28.31-.51,0-.93-.14-1.24-.42-.31-.28-.47-.66-.47-1.15s.15-.85.46-1.1c.31-.24.71-.42,1.2-.52l1.37-.29c.4-.09.7-.18.9-.28s.35-.2.44-.3v1.38c0,.56-.13,1.04-.39,1.44-.26.4-.59.71-.99.92Z"/>
    <path class="cls-2" d="m311.75,482.69c-.47-.25-.98-.37-1.53-.37-.42,0-.85.08-1.29.24s-.84.41-1.2.76c-.16.16-.31.34-.44.54v-1.33h-1.03v8.5h1.03v-5.02c0-.63.13-1.15.39-1.56.26-.4.59-.7.99-.89.41-.19.83-.29,1.28-.29.41,0,.8.09,1.16.26.36.18.65.45.87.83.22.38.33.88.33,1.5v5.15h1.03v-5.2c0-.81-.14-1.47-.43-1.98-.29-.52-.67-.9-1.14-1.15Z"/>
    <path class="cls-2" d="m322.41,483.91c-.22-.43-.52-.78-.91-1.05-.54-.37-1.19-.55-1.97-.55s-1.48.19-2.09.57c-.61.38-1.08.9-1.41,1.57-.34.67-.51,1.45-.51,2.35s.17,1.67.51,2.34c.34.66.81,1.18,1.41,1.54.6.36,1.27.54,2.01.54.81,0,1.5-.21,2.07-.63.35-.25.63-.57.87-.94v1.36h1.03v-12.25h-1.03v5.14Zm-.75,5.6c-.5.5-1.16.76-1.97.76-.62,0-1.15-.14-1.61-.43-.46-.29-.81-.69-1.07-1.22-.26-.52-.39-1.13-.39-1.82s.13-1.32.39-1.85c.26-.53.61-.94,1.07-1.24.46-.3.98-.45,1.58-.45.54,0,1.01.12,1.42.36s.74.56.98.98c.24.41.36.88.36,1.4v1.53c0,.82-.25,1.48-.75,1.98Z"/>
    <path class="cls-2" d="m337.01,483.91c-.22-.43-.52-.78-.91-1.05-.54-.37-1.19-.55-1.97-.55s-1.48.19-2.09.57c-.61.38-1.08.9-1.41,1.57-.34.67-.51,1.45-.51,2.35s.17,1.67.51,2.34c.34.66.81,1.18,1.41,1.54.6.36,1.27.54,2.01.54.81,0,1.5-.21,2.07-.63.35-.25.63-.57.87-.94v1.36h1.03v-12.25h-1.03v5.14Zm-.75,5.6c-.5.5-1.16.76-1.97.76-.62,0-1.15-.14-1.61-.43-.46-.29-.81-.69-1.07-1.22-.26-.52-.39-1.13-.39-1.82s.13-1.32.39-1.85c.26-.53.61-.94,1.07-1.24.46-.3.98-.45,1.58-.45.54,0,1.01.12,1.42.36s.74.56.98.98c.24.41.36.88.36,1.4v1.53c0,.82-.25,1.48-.75,1.98Z"/>
    <path class="cls-2" d="m346.65,482.85c-.61-.36-1.3-.54-2.09-.54s-1.53.19-2.15.57c-.62.38-1.11.91-1.46,1.59-.35.68-.52,1.48-.52,2.4s.17,1.65.51,2.3c.34.65.82,1.16,1.42,1.51.6.36,1.3.54,2.09.54s1.54-.19,2.16-.57c.62-.38,1.1-.91,1.45-1.6.35-.69.52-1.48.52-2.39s-.17-1.67-.51-2.31c-.34-.65-.82-1.15-1.42-1.5Zm.47,5.79c-.27.54-.63.96-1.1,1.26-.46.29-.98.44-1.57.44s-1.06-.14-1.52-.42-.8-.69-1.06-1.22c-.26-.53-.39-1.15-.39-1.88s.13-1.39.4-1.93c.27-.54.63-.96,1.1-1.25.46-.29.98-.44,1.57-.44s1.08.14,1.52.42.8.69,1.05,1.22.39,1.15.39,1.88-.13,1.38-.4,1.92Z"/>
    <path class="cls-2" d="m356.06,482.6c-.42-.19-.94-.29-1.54-.29-.81,0-1.52.19-2.14.57-.62.38-1.1.91-1.45,1.6-.35.69-.52,1.48-.52,2.39,0,1.34.37,2.4,1.12,3.18.75.78,1.77,1.17,3.06,1.17.63,0,1.15-.08,1.58-.25.42-.16.79-.35,1.1-.55v-.92c-.46.26-.9.45-1.33.58s-.86.19-1.29.19c-.65,0-1.21-.14-1.68-.41-.47-.27-.83-.67-1.08-1.18-.25-.52-.38-1.14-.38-1.88,0-1.09.27-1.96.8-2.62.53-.66,1.26-.99,2.2-.99.45,0,.79.07,1.04.2.25.13.44.28.58.44.14.16.27.31.39.44.11.13.26.2.45.2.13,0,.23-.04.32-.12.09-.08.13-.19.13-.34,0-.25-.12-.5-.36-.75-.23-.25-.55-.47-.98-.66Z"/>
    <path class="cls-2" d="m365.25,487.6c0,.9-.22,1.57-.65,2.01-.43.44-1.04.66-1.82.66s-1.37-.22-1.81-.66c-.44-.44-.66-1.11-.66-2.01v-5.08h-1.03v5.1c0,1.24.33,2.15.98,2.73s1.49.88,2.52.88,1.87-.29,2.52-.88.98-1.49.98-2.73v-5.1h-1.03v5.08Z"/>
    <path class="cls-2" d="m380.33,482.69c-.45-.25-.95-.38-1.5-.38-.42,0-.86.08-1.3.24s-.86.41-1.23.76c-.25.22-.45.51-.63.82-.04-.1-.06-.23-.12-.32-.27-.5-.63-.87-1.08-1.12-.45-.25-.95-.37-1.5-.37-.42,0-.85.08-1.28.24s-.82.41-1.17.76c-.16.16-.3.34-.43.54v-1.33h-1.03v8.5h1.03v-5.02c0-.63.13-1.15.39-1.56.26-.4.59-.7.99-.89.41-.19.83-.29,1.28-.29.62,0,1.13.2,1.55.6s.63,1.07.63,2.01v5.15h1.03v-5.02c0-.63.13-1.15.39-1.56.26-.4.59-.7.99-.89.41-.19.83-.29,1.28-.29.62,0,1.13.2,1.55.6s.63,1.07.63,2.01v5.15h1.03v-5.17c0-.81-.13-1.47-.4-1.99-.27-.52-.63-.91-1.08-1.17Z"/>
    <path class="cls-2" d="m388.46,487.18c.57-.06,1.06-.18,1.48-.36.42-.18.75-.43.99-.75.23-.32.35-.7.35-1.16,0-.48-.13-.91-.39-1.31-.26-.4-.62-.71-1.09-.94-.47-.23-1.02-.35-1.64-.35-.79,0-1.49.19-2.12.58-.62.39-1.11.92-1.46,1.62-.35.69-.53,1.5-.53,2.43,0,1.34.37,2.39,1.1,3.15.74.76,1.76,1.14,3.07,1.14.65,0,1.21-.08,1.68-.25.47-.16.87-.35,1.2-.55v-.92c-.49.26-.97.45-1.45.58-.47.12-.93.19-1.38.19-.69,0-1.26-.14-1.73-.41-.47-.27-.83-.66-1.07-1.17-.24-.49-.35-1.08-.36-1.75.52.1,1.03.19,1.52.23.65.06,1.26.07,1.82,0Zm-3.28-1.02c.06-.45.15-.88.33-1.24.26-.54.62-.97,1.08-1.27.46-.3.98-.45,1.58-.45.66,0,1.17.17,1.52.5.35.33.53.72.53,1.15s-.17.78-.5,1.01-.77.39-1.32.46c-.55.07-1.15.09-1.81.03-.47-.04-.94-.11-1.42-.19Z"/>
    <path class="cls-2" d="m399.02,482.69c-.47-.25-.98-.37-1.53-.37-.42,0-.85.08-1.29.24s-.84.41-1.2.76c-.16.16-.31.34-.44.54v-1.33h-1.03v8.5h1.03v-5.02c0-.63.13-1.15.39-1.56.26-.4.59-.7.99-.89.41-.19.83-.29,1.28-.29.41,0,.8.09,1.16.26.36.18.65.45.87.83.22.38.33.88.33,1.5v5.15h1.03v-5.2c0-.81-.14-1.47-.43-1.98-.29-.52-.67-.9-1.14-1.15Z"/>
    <path class="cls-2" d="m404.56,481.09l-1.92,1.31c-.16.11-.28.22-.36.32-.08.1-.12.21-.12.32,0,.1.04.19.12.27.08.08.22.12.41.12h.84v5.36c0,.86.19,1.48.56,1.86.37.38.88.57,1.53.57.3,0,.56-.03.8-.09.23-.06.47-.14.71-.25v-.92c-.24.09-.47.17-.68.22-.21.06-.43.08-.66.08-.42,0-.73-.12-.93-.36s-.3-.64-.3-1.21v-5.27h2.91v-.92h-2.91v-1.43Z"/>
    <path class="cls-2" d="m416.04,489.85l-3-7.33h-1.11l3.6,8.5c-.32.75-.61,1.32-.87,1.71-.26.39-.5.66-.72.8s-.42.21-.62.21c-.17,0-.32-.03-.45-.09s-.26-.08-.41-.08c-.13,0-.23.03-.31.1-.08.07-.12.16-.12.29,0,.16.06.29.18.38.12.1.27.17.46.21.19.04.38.07.57.07.65,0,1.21-.24,1.69-.73.47-.49.94-1.29,1.41-2.4l.2-.48h0l3.6-8.5h-1.11l-3,7.33Z"/>
    <path class="cls-2" d="m427.21,482.85c-.61-.36-1.3-.54-2.09-.54s-1.53.19-2.15.57c-.62.38-1.11.91-1.46,1.59-.35.68-.52,1.48-.52,2.4s.17,1.65.51,2.3c.34.65.82,1.16,1.42,1.51.6.36,1.3.54,2.09.54s1.54-.19,2.16-.57c.62-.38,1.1-.91,1.45-1.6.35-.69.52-1.48.52-2.39s-.17-1.67-.51-2.31c-.34-.65-.82-1.15-1.42-1.5Zm.47,5.79c-.27.54-.63.96-1.1,1.26-.46.29-.98.44-1.57.44s-1.06-.14-1.52-.42-.8-.69-1.06-1.22c-.26-.53-.39-1.15-.39-1.88s.13-1.39.4-1.93c.27-.54.63-.96,1.1-1.25.46-.29.98-.44,1.57-.44s1.08.14,1.52.42.8.69,1.05,1.22.39,1.15.39,1.88-.13,1.38-.4,1.92Z"/>
    <path class="cls-2" d="m437.28,487.6c0,.9-.22,1.57-.65,2.01-.43.44-1.04.66-1.82.66s-1.37-.22-1.81-.66c-.44-.44-.66-1.11-.66-2.01v-5.08h-1.03v5.1c0,1.24.33,2.15.98,2.73s1.49.88,2.52.88,1.87-.29,2.52-.88.98-1.49.98-2.73v-5.1h-1.03v5.08Z"/>
    <path class="cls-2" d="m445.19,482.65c-.09-.1-.21-.18-.36-.25-.15-.06-.34-.09-.56-.09-.48,0-.95.18-1.4.54-.27.22-.52.53-.74.92v-1.26h-1.03v8.5h1.03v-5.02c0-.75.17-1.37.51-1.88.34-.5.78-.76,1.32-.76.16,0,.31.02.44.06s.27.06.4.06c.17,0,.3-.04.39-.13s.13-.2.13-.33c0-.15-.04-.27-.13-.37Z"/>
    <path class="cls-2" d="m24.55,502.81c-.15-.06-.34-.09-.56-.09-.48,0-.95.18-1.4.54-.27.22-.52.53-.74.92v-1.26h-1.03v8.5h1.03v-5.02c0-.75.17-1.37.51-1.88.34-.5.78-.76,1.32-.76.16,0,.31.02.44.06s.27.06.4.06c.17,0,.3-.04.39-.13s.13-.2.13-.33c0-.15-.04-.27-.13-.37-.09-.1-.21-.18-.36-.25Z"/>
    <path class="cls-2" d="m30.29,507.58c.57-.06,1.06-.18,1.48-.36.42-.18.75-.43.99-.75.23-.32.35-.7.35-1.16,0-.48-.13-.91-.39-1.31-.26-.4-.62-.71-1.09-.94-.47-.23-1.02-.35-1.64-.35-.79,0-1.49.19-2.12.58-.62.39-1.11.92-1.46,1.62-.35.69-.53,1.5-.53,2.43,0,1.34.37,2.39,1.1,3.15.74.76,1.76,1.14,3.07,1.14.65,0,1.21-.08,1.68-.25.47-.16.87-.35,1.2-.55v-.92c-.49.26-.97.45-1.45.58-.47.12-.93.19-1.38.19-.69,0-1.26-.14-1.73-.41-.47-.27-.83-.66-1.07-1.17-.24-.49-.35-1.08-.36-1.75.52.1,1.03.19,1.52.23.65.06,1.26.07,1.82,0Zm-3.28-1.02c.06-.45.15-.88.33-1.24.26-.54.62-.97,1.08-1.27.46-.3.98-.45,1.58-.45.66,0,1.17.17,1.52.5.35.33.53.72.53,1.15s-.17.78-.5,1.01-.77.39-1.32.46c-.55.07-1.15.09-1.81.03-.47-.04-.94-.11-1.42-.19Z"/>
    <path class="cls-2" d="m41.69,504.32c-.22-.43-.52-.78-.91-1.05-.54-.37-1.19-.55-1.97-.55s-1.48.19-2.09.57c-.61.38-1.08.9-1.41,1.57-.34.67-.51,1.45-.51,2.35s.17,1.67.51,2.34c.34.66.81,1.18,1.41,1.54.6.36,1.27.54,2.01.54.81,0,1.5-.21,2.07-.63.35-.25.63-.57.87-.94v4.76h1.03v-11.91h-1.03v1.4Zm-.75,5.6c-.5.5-1.16.76-1.97.76-.62,0-1.15-.14-1.61-.43-.46-.29-.81-.69-1.07-1.22-.26-.52-.39-1.13-.39-1.82s.13-1.32.39-1.85c.26-.53.61-.94,1.07-1.24.46-.3.98-.45,1.58-.45.54,0,1.01.12,1.42.36s.74.56.98.98c.24.41.36.88.36,1.4v1.53c0,.82-.25,1.48-.75,1.98Z"/>
    <path class="cls-2" d="m51.47,508.01c0,.9-.22,1.57-.65,2.01-.43.44-1.04.66-1.82.66s-1.37-.22-1.81-.66c-.44-.44-.66-1.11-.66-2.01v-5.08h-1.03v5.1c0,1.24.33,2.15.98,2.73s1.49.88,2.52.88,1.87-.29,2.52-.88.98-1.49.98-2.73v-5.1h-1.03v5.08Z"/>
    <path class="cls-2" d="m55.78,499.66c-.25,0-.44.07-.57.22-.13.15-.19.32-.19.53s.06.38.19.53c.13.15.31.22.57.22s.44-.07.57-.22c.13-.15.19-.32.19-.53s-.06-.38-.19-.53c-.13-.15-.31-.22-.57-.22Z"/>
    <path class="cls-2" d="m55.26,511.43h1.03v-8.5c-.34.03-.69.03-1.03,0v8.5Z"/>
    <path class="cls-2" d="m62.97,502.81c-.15-.06-.34-.09-.56-.09-.48,0-.95.18-1.4.54-.27.22-.52.53-.74.92v-1.26h-1.03v8.5h1.03v-5.02c0-.75.17-1.37.51-1.88.34-.5.78-.76,1.32-.76.16,0,.31.02.44.06s.27.06.4.06c.17,0,.3-.04.39-.13s.13-.2.13-.33c0-.15-.04-.27-.13-.37-.09-.1-.21-.18-.36-.25Z"/>
    <path class="cls-2" d="m68.71,507.58c.57-.06,1.06-.18,1.48-.36.42-.18.75-.43.99-.75.23-.32.35-.7.35-1.16,0-.48-.13-.91-.39-1.31-.26-.4-.62-.71-1.09-.94-.47-.23-1.02-.35-1.64-.35-.79,0-1.49.19-2.12.58-.62.39-1.11.92-1.46,1.62-.35.69-.53,1.5-.53,2.43,0,1.34.37,2.39,1.1,3.15.74.76,1.76,1.14,3.07,1.14.65,0,1.21-.08,1.68-.25.47-.16.87-.35,1.2-.55v-.92c-.49.26-.97.45-1.45.58-.47.12-.93.19-1.38.19-.69,0-1.26-.14-1.73-.41-.47-.27-.83-.66-1.07-1.17-.24-.49-.35-1.08-.36-1.75.52.1,1.03.19,1.52.23.65.06,1.26.07,1.82,0Zm-3.28-1.02c.06-.45.15-.88.33-1.24.26-.54.62-.97,1.08-1.27.46-.3.98-.45,1.58-.45.66,0,1.17.17,1.52.5.35.33.53.72.53,1.15s-.17.78-.5,1.01-.77.39-1.32.46c-.55.07-1.15.09-1.81.03-.47-.04-.94-.11-1.42-.19Z"/>
    <path class="cls-2" d="m85.05,503.1c-.45-.25-.95-.38-1.5-.38-.42,0-.86.08-1.3.24s-.86.41-1.23.76c-.25.22-.45.51-.63.82-.04-.1-.06-.23-.12-.32-.27-.5-.63-.87-1.08-1.12-.45-.25-.95-.37-1.5-.37-.42,0-.85.08-1.28.24s-.82.41-1.17.76c-.16.16-.3.34-.43.54v-1.33h-1.03v8.5h1.03v-5.02c0-.63.13-1.15.39-1.56.26-.4.59-.7.99-.89.41-.19.83-.29,1.28-.29.62,0,1.13.2,1.55.6s.63,1.07.63,2.01v5.15h1.03v-5.02c0-.63.13-1.15.39-1.56.26-.4.59-.7.99-.89.41-.19.83-.29,1.28-.29.62,0,1.13.2,1.55.6s.63,1.07.63,2.01v5.15h1.03v-5.17c0-.81-.13-1.47-.4-1.99-.27-.52-.63-.91-1.08-1.17Z"/>
    <path class="cls-2" d="m93.18,507.58c.57-.06,1.06-.18,1.48-.36.42-.18.75-.43.99-.75.23-.32.35-.7.35-1.16,0-.48-.13-.91-.39-1.31-.26-.4-.62-.71-1.09-.94-.47-.23-1.02-.35-1.64-.35-.79,0-1.49.19-2.12.58-.62.39-1.11.92-1.46,1.62-.35.69-.53,1.5-.53,2.43,0,1.34.37,2.39,1.1,3.15.74.76,1.76,1.14,3.07,1.14.65,0,1.21-.08,1.68-.25.47-.16.87-.35,1.2-.55v-.92c-.49.26-.97.45-1.45.58-.47.12-.93.19-1.38.19-.69,0-1.26-.14-1.73-.41-.47-.27-.83-.66-1.07-1.17-.24-.49-.35-1.08-.36-1.75.52.1,1.03.19,1.52.23.65.06,1.26.07,1.82,0Zm-3.28-1.02c.06-.45.15-.88.33-1.24.26-.54.62-.97,1.08-1.27.46-.3.98-.45,1.58-.45.66,0,1.17.17,1.52.5.35.33.53.72.53,1.15s-.17.78-.5,1.01-.77.39-1.32.46c-.55.07-1.15.09-1.81.03-.47-.04-.94-.11-1.42-.19Z"/>
    <path class="cls-2" d="m103.74,503.09c-.47-.25-.98-.37-1.53-.37-.42,0-.85.08-1.29.24s-.84.41-1.2.76c-.16.16-.31.34-.44.54v-1.33h-1.03v8.5h1.03v-5.02c0-.63.13-1.15.39-1.56.26-.4.59-.7.99-.89.41-.19.83-.29,1.28-.29.41,0,.8.09,1.16.26.36.18.65.45.87.83.22.38.33.88.33,1.5v5.15h1.03v-5.2c0-.81-.14-1.47-.43-1.98-.29-.52-.67-.9-1.14-1.15Z"/>
    <path class="cls-2" d="m109.28,501.5l-1.92,1.31c-.16.11-.28.22-.36.32-.08.1-.12.21-.12.32,0,.1.04.19.12.27.08.08.22.12.41.12h.84v5.36c0,.86.19,1.48.56,1.86.37.38.88.57,1.53.57.3,0,.56-.03.8-.09.23-.06.47-.14.71-.25v-.92c-.24.09-.47.17-.68.22-.21.06-.43.08-.66.08-.42,0-.73-.12-.93-.36s-.3-.64-.3-1.21v-5.27h2.91v-.92h-2.91v-1.43Z"/>
    <path class="cls-2" d="m118.29,507.24c-.38-.18-.78-.33-1.2-.45s-.82-.24-1.2-.37c-.38-.13-.69-.3-.93-.51-.24-.21-.36-.5-.36-.86s.15-.71.46-1.02c.31-.31.81-.46,1.49-.46.43,0,.77.06,1.02.18s.44.25.57.41c.14.15.26.29.36.41.1.12.23.18.39.18.11,0,.21-.04.28-.12.07-.08.11-.19.11-.34,0-.27-.12-.53-.35-.76-.23-.24-.56-.43-.97-.58-.41-.15-.88-.22-1.42-.22-.65,0-1.2.11-1.64.33-.44.22-.77.52-.98.89-.22.37-.33.78-.33,1.22,0,.49.12.88.36,1.18.24.3.55.54.92.71s.78.31,1.2.43c.42.12.82.25,1.2.38s.69.31.92.54c.24.22.36.52.36.89,0,.4-.16.74-.49,1.04-.33.29-.85.44-1.58.44-.51,0-1.02-.09-1.52-.26s-.98-.44-1.45-.81v1.04c.29.24.68.45,1.18.62s1.09.26,1.76.26c.73,0,1.32-.11,1.77-.32.45-.21.78-.51.99-.88.21-.37.32-.77.32-1.2,0-.52-.12-.94-.36-1.25-.24-.31-.55-.56-.92-.74Z"/>
    <path class="cls-2" d="m122.65,510c-.29,0-.5.08-.64.24-.14.16-.21.35-.21.58s.07.41.21.57c.14.17.36.25.64.25s.5-.08.64-.25c.14-.16.21-.35.21-.57,0-.23-.07-.42-.21-.58-.14-.16-.36-.24-.64-.24Z"/>
  </g>
  <g>
    <path class="cls-2" d="m23.44,408.98h3.24c2.23,0,4.06-.37,5.49-1.12,1.43-.75,2.5-1.79,3.2-3.13.7-1.33,1.05-2.88,1.05-4.63,0-2.64-.81-4.71-2.43-6.21-1.62-1.51-4.08-2.26-7.39-2.26h-5.78v17.35h2.62Zm3.01-15.05c2.4,0,4.2.5,5.4,1.5,1.2,1,1.8,2.56,1.8,4.67,0,1.36-.26,2.53-.77,3.52-.51.99-1.3,1.74-2.36,2.27-1.06.53-2.42.79-4.06.79h-3.01v-12.76h3.01Z"/>
    <path class="cls-2" d="m50.06,408.06v-1.86c-.72.38-1.45.66-2.18.84-.74.19-1.46.28-2.18.28-.98,0-1.78-.18-2.42-.54-.63-.36-1.11-.88-1.44-1.56-.28-.58-.43-1.28-.47-2.09.68.14,1.35.26,2.01.33.96.1,1.86.12,2.71.04.85-.08,1.6-.25,2.25-.52s1.16-.65,1.52-1.14c.36-.48.54-1.08.54-1.8,0-.75-.2-1.44-.6-2.07-.4-.63-.99-1.13-1.75-1.51-.76-.37-1.67-.56-2.74-.56-1.27,0-2.39.29-3.35.87s-1.73,1.39-2.27,2.42c-.55,1.04-.82,2.25-.82,3.65,0,2.02.57,3.6,1.72,4.73,1.15,1.13,2.76,1.7,4.83,1.7,1.01,0,1.9-.12,2.67-.37.77-.25,1.43-.53,1.98-.85Zm-6.8-9.68c.59-.38,1.26-.57,2.02-.57.86,0,1.51.21,1.97.62.45.42.68.91.68,1.47s-.21.97-.63,1.28c-.42.31-.99.51-1.7.6-.71.09-1.51.1-2.4.03-.57-.05-1.16-.14-1.76-.26.08-.55.22-1.05.42-1.49.34-.73.81-1.29,1.4-1.67Z"/>
    <path class="cls-2" d="m59.6,403.5c.85-.08,1.6-.25,2.25-.52s1.16-.65,1.52-1.14c.36-.48.54-1.08.54-1.8,0-.75-.2-1.44-.6-2.07-.4-.63-.99-1.13-1.75-1.51-.76-.37-1.67-.56-2.74-.56-1.27,0-2.39.29-3.35.87s-1.73,1.39-2.27,2.42c-.55,1.04-.82,2.25-.82,3.65,0,2.02.57,3.6,1.72,4.73,1.15,1.13,2.76,1.7,4.83,1.7,1.01,0,1.9-.12,2.67-.37.77-.25,1.43-.53,1.98-.85v-1.86c-.72.38-1.45.66-2.18.84-.74.19-1.46.28-2.18.28-.98,0-1.78-.18-2.42-.54-.63-.36-1.11-.88-1.44-1.56-.28-.58-.43-1.28-.47-2.09.68.14,1.35.26,2.01.33.96.1,1.86.12,2.71.04Zm-4.65-1.97c.08-.55.22-1.05.42-1.49.34-.73.81-1.29,1.4-1.67.59-.38,1.26-.57,2.02-.57.86,0,1.51.21,1.97.62.45.42.68.91.68,1.47s-.21.97-.63,1.28c-.42.31-.99.51-1.7.6-.71.09-1.51.1-2.4.03-.57-.05-1.16-.14-1.76-.26Z"/>
    <path class="cls-2" d="m76.48,408.44c.88-.56,1.57-1.35,2.06-2.36s.73-2.19.73-3.53-.25-2.53-.75-3.52c-.5-.99-1.18-1.75-2.06-2.3-.87-.54-1.86-.82-2.95-.82s-2.11.3-2.94.89c-.51.37-.94.84-1.3,1.39v-1.98h-2.42v17.86h2.42v-7.06c.3.58.72,1.07,1.26,1.45.77.54,1.72.82,2.85.82s2.21-.28,3.1-.84Zm-5.47-1.73c-.54-.31-.96-.73-1.27-1.28s-.46-1.16-.46-1.84v-1.91c0-1.07.33-1.94.98-2.6s1.5-1,2.54-1c.79,0,1.47.19,2.06.56.58.37,1.04.9,1.36,1.57.33.67.49,1.46.49,2.36s-.16,1.7-.49,2.38c-.33.69-.78,1.23-1.36,1.62-.58.39-1.26.59-2.03.59-.67,0-1.27-.15-1.81-.46Z"/>
    <path class="cls-2" d="m103.6,404.73c.7-1.33,1.05-2.88,1.05-4.63,0-2.64-.81-4.71-2.43-6.21-1.62-1.51-4.08-2.26-7.39-2.26h-5.78v17.35h5.86c2.23,0,4.06-.37,5.49-1.12,1.43-.75,2.5-1.79,3.2-3.13Zm-4.86,1.16c-1.06.53-2.42.79-4.06.79h-3.01v-12.76h3.01c2.4,0,4.2.5,5.4,1.5,1.2,1,1.8,2.56,1.8,4.67,0,1.36-.26,2.53-.77,3.52-.51.99-1.3,1.74-2.36,2.27Z"/>
    <path class="cls-2" d="m107.69,396.2v12.78h2.42v-12.78c-.81.15-1.61.15-2.42,0Z"/>
    <path class="cls-2" d="m108.9,394c.51,0,.9-.14,1.16-.42.26-.28.39-.62.39-1.03s-.13-.75-.39-1.03c-.26-.28-.64-.42-1.16-.42s-.9.14-1.17.42c-.27.28-.4.62-.4,1.03s.13.75.4,1.03c.27.28.65.42,1.17.42Z"/>
    <polygon class="cls-2" points="118.04 408.98 119.76 408.98 120.15 408.98 125.42 396.22 122.74 396.22 118.9 406.66 114.99 396.22 112.29 396.22 117.55 408.98 118.04 408.98"/>
    <path class="cls-2" d="m133.39,403.5c.85-.08,1.6-.25,2.25-.52s1.16-.65,1.52-1.14c.36-.48.54-1.08.54-1.8,0-.75-.2-1.44-.6-2.07-.4-.63-.99-1.13-1.75-1.51-.76-.37-1.67-.56-2.74-.56-1.27,0-2.39.29-3.35.87s-1.73,1.39-2.27,2.42c-.55,1.04-.82,2.25-.82,3.65,0,2.02.57,3.6,1.72,4.73,1.15,1.13,2.76,1.7,4.83,1.7,1.01,0,1.9-.12,2.67-.37.77-.25,1.43-.53,1.98-.85v-1.86c-.72.38-1.45.66-2.18.84-.74.19-1.46.28-2.18.28-.98,0-1.78-.18-2.42-.54-.63-.36-1.11-.88-1.44-1.56-.28-.58-.43-1.28-.47-2.09.68.14,1.35.26,2.01.33.96.1,1.86.12,2.71.04Zm-4.65-1.97c.08-.55.22-1.05.42-1.49.34-.73.81-1.29,1.4-1.67.59-.38,1.26-.57,2.02-.57.86,0,1.51.21,1.97.62.45.42.68.91.68,1.47s-.21.97-.63,1.28c-.42.31-.99.51-1.7.6-.71.09-1.51.1-2.4.03-.57-.05-1.16-.14-1.76-.26Z"/>
    <path class="cls-2" d="m36.24,437.6c-.39,0-.8-.09-1.22-.28-.42-.19-.85-.49-1.3-.92l-.02-.02c.73-.7,1.36-1.42,1.87-2.17.63-.92,1.11-1.8,1.43-2.65.32-.85.48-1.59.48-2.22,0-.51-.11-.89-.32-1.13-.21-.25-.5-.37-.86-.37-.39,0-.69.13-.87.4-.19.26-.33.65-.41,1.16-.05.66-.23,1.36-.54,2.08-.31.72-.69,1.42-1.16,2.09-.34.5-.73.94-1.14,1.35l-4.56-4.39c1.46-.5,2.59-1.09,3.35-1.76.9-.8,1.35-1.79,1.35-2.96,0-.85-.22-1.59-.66-2.23-.44-.64-1.04-1.14-1.81-1.49-.77-.36-1.67-.54-2.7-.54-1.08,0-2.02.19-2.83.57s-1.43.91-1.88,1.57c-.45.66-.67,1.41-.67,2.24,0,.71.18,1.42.53,2.11.34.67.85,1.34,1.52,2.02-1.18.47-2.11,1.02-2.77,1.66-.94.91-1.41,2.02-1.41,3.33,0,1.46.55,2.64,1.64,3.53s2.6,1.34,4.5,1.34c1.4,0,2.71-.24,3.92-.73.81-.33,1.55-.74,2.22-1.23l.26.25c.51.51,1.09.9,1.72,1.16s1.25.4,1.85.4c.38,0,.75-.05,1.1-.15.36-.1.69-.24,1-.41v-2.02c-.24.14-.5.24-.78.32-.28.08-.56.11-.84.11Zm-11.25-13.46c.53-.45,1.25-.68,2.16-.68.86,0,1.53.22,2.03.66s.75,1.02.75,1.73c0,.48-.13.92-.4,1.31-.27.4-.7.78-1.31,1.13-.5.3-1.16.59-1.95.89l-.6-.58c-.5-.51-.87-.98-1.1-1.42-.24-.43-.36-.87-.36-1.31,0-.71.27-1.3.8-1.75Zm3.84,13.07c-.97.39-1.93.59-2.89.59-1.13,0-2.04-.27-2.74-.8-.69-.54-1.04-1.26-1.04-2.18,0-.8.33-1.54,1-2.21.46-.46,1.14-.87,2.03-1.23l5.17,5.04c-.49.31-.99.58-1.54.8Z"/>
    <path class="cls-2" d="m53.68,422.24h-5.78v17.35h5.86c2.23,0,4.06-.37,5.49-1.12,1.43-.75,2.5-1.79,3.2-3.13.7-1.33,1.05-2.88,1.05-4.63,0-2.64-.81-4.71-2.43-6.21-1.62-1.51-4.08-2.26-7.39-2.26Zm6.27,11.99c-.51.99-1.3,1.74-2.36,2.27-1.06.53-2.42.79-4.06.79h-3.01v-12.76h3.01c2.4,0,4.2.5,5.4,1.5,1.2,1,1.8,2.56,1.8,4.67,0,1.36-.26,2.53-.77,3.52Z"/>
    <path class="cls-2" d="m66.53,426.81v12.78h2.42v-12.78c-.81.15-1.61.15-2.42,0Z"/>
    <path class="cls-2" d="m67.74,421.71c-.51,0-.9.14-1.17.42-.27.28-.4.62-.4,1.03s.13.75.4,1.03c.27.28.65.42,1.17.42s.9-.14,1.16-.42c.26-.28.39-.62.39-1.03s-.13-.75-.39-1.03c-.26-.28-.64-.42-1.16-.42Z"/>
    <path class="cls-2" d="m79.93,433.1c-.56-.28-1.14-.51-1.76-.68s-1.2-.34-1.76-.52c-.56-.18-1.01-.41-1.36-.69-.35-.28-.53-.65-.53-1.11s.2-.9.59-1.28,1.01-.56,1.85-.56c.58,0,1.05.08,1.41.25.36.17.65.37.87.59.22.22.43.42.63.59.2.17.43.25.71.25s.49-.08.66-.24c.16-.16.24-.4.24-.7,0-.46-.19-.88-.57-1.25-.38-.37-.9-.67-1.55-.89-.66-.22-1.44-.33-2.33-.33-1.1,0-2.02.17-2.76.52s-1.31.82-1.68,1.4c-.38.59-.57,1.25-.57,1.98s.18,1.35.54,1.81.81.82,1.36,1.08c.55.26,1.13.48,1.75.65s1.2.35,1.76.54c.56.19,1.01.42,1.36.7.35.28.53.66.53,1.13s-.21.92-.62,1.28c-.41.36-1.08.54-2,.54-.75,0-1.54-.14-2.35-.43-.81-.29-1.61-.71-2.4-1.28v2.19c.53.34,1.19.63,1.98.88.79.25,1.69.37,2.7.37,1.18,0,2.15-.17,2.92-.5.76-.33,1.33-.79,1.71-1.38.38-.59.57-1.23.57-1.93,0-.78-.18-1.41-.53-1.88s-.81-.84-1.36-1.12Z"/>
    <path class="cls-2" d="m92.63,426.95c-.69-.28-1.49-.42-2.42-.42-1.3,0-2.44.29-3.4.86-.97.57-1.72,1.36-2.25,2.38-.53,1.02-.8,2.21-.8,3.57,0,2.02.59,3.62,1.76,4.8s2.78,1.76,4.82,1.76c.98,0,1.8-.12,2.48-.37.68-.25,1.26-.52,1.76-.83v-2.04c-.7.37-1.37.65-2.02.82-.64.17-1.27.25-1.89.25-.94,0-1.73-.18-2.36-.55-.63-.37-1.11-.89-1.44-1.57-.33-.68-.49-1.49-.49-2.42,0-1.41.33-2.53,1-3.37.67-.83,1.59-1.25,2.77-1.25.58,0,1.04.09,1.39.28s.62.4.83.64.42.46.63.65c.21.2.47.29.8.29.31,0,.56-.09.77-.28.21-.19.31-.45.31-.79,0-.49-.21-.95-.64-1.38-.39-.41-.93-.75-1.62-1.03Z"/>
    <path class="cls-2" d="m106.21,427.33c-.95-.54-2.05-.8-3.3-.8s-2.44.29-3.4.86c-.97.57-1.72,1.36-2.26,2.37-.54,1.01-.81,2.21-.81,3.58s.27,2.5.81,3.48c.54.98,1.28,1.73,2.24,2.27.95.54,2.05.8,3.3.8,1.32,0,2.46-.28,3.42-.85.96-.57,1.71-1.36,2.25-2.38s.81-2.21.81-3.57-.27-2.5-.81-3.48c-.54-.98-1.28-1.73-2.24-2.27Zm-.01,8.3c-.34.7-.81,1.24-1.4,1.62s-1.26.57-2.02.57-1.37-.18-1.95-.55c-.58-.37-1.04-.89-1.36-1.57-.33-.68-.49-1.49-.49-2.42s.17-1.8.51-2.5c.34-.7.81-1.24,1.4-1.62s1.26-.57,2.02-.57,1.39.18,1.97.55c.57.37,1.02.89,1.35,1.57.32.68.49,1.5.49,2.45s-.17,1.78-.51,2.47Z"/>
    <polygon class="cls-2" points="116.64 437.28 112.72 426.84 110.03 426.84 115.29 439.59 115.78 439.59 117.5 439.59 117.89 439.59 123.16 426.84 120.48 426.84 116.64 437.28"/>
    <path class="cls-2" d="m131.13,434.12c.85-.08,1.6-.25,2.25-.52s1.16-.65,1.52-1.14c.36-.48.54-1.08.54-1.8,0-.75-.2-1.44-.6-2.07-.4-.63-.99-1.13-1.75-1.51-.76-.37-1.67-.56-2.74-.56-1.27,0-2.39.29-3.35.87s-1.73,1.39-2.27,2.42c-.55,1.04-.82,2.25-.82,3.65,0,2.02.57,3.6,1.72,4.73,1.15,1.13,2.76,1.7,4.83,1.7,1.01,0,1.9-.12,2.67-.37.77-.25,1.43-.53,1.98-.85v-1.86c-.72.38-1.45.66-2.18.84-.74.19-1.46.28-2.18.28-.98,0-1.78-.18-2.42-.54-.63-.36-1.11-.88-1.44-1.56-.28-.58-.43-1.28-.47-2.09.68.14,1.35.26,2.01.33.96.1,1.86.12,2.71.04Zm-4.65-1.97c.08-.55.22-1.05.42-1.49.34-.73.81-1.29,1.4-1.67.59-.38,1.26-.57,2.02-.57.86,0,1.51.21,1.97.62.45.42.68.91.68,1.47s-.21.97-.63,1.28c-.42.31-.99.51-1.7.6-.71.09-1.51.1-2.4.03-.57-.05-1.16-.14-1.76-.26Z"/>
    <path class="cls-2" d="m144.9,426.71c-.28-.12-.6-.18-.96-.18-.74,0-1.43.28-2.08.83-.4.34-.75.81-1.05,1.38v-1.9h-2.42v12.76h2.42v-6.86c0-1.07.22-1.95.67-2.63.45-.68,1.03-1.02,1.75-1.02.24,0,.47.04.69.11.22.08.46.12.72.12.34,0,.62-.1.85-.31.22-.2.33-.51.33-.92,0-.34-.08-.62-.24-.85-.16-.23-.39-.4-.67-.52Z"/>
    <path class="cls-2" d="m159.79,426.84h-2.67l-3.85,10.44-3.91-10.44h-2.7l5.27,12.76c-.38.9-.73,1.59-1.05,2.07-.33.48-.63.8-.9.98-.27.18-.54.27-.8.27-.24,0-.46-.04-.66-.11-.2-.08-.41-.12-.63-.12-.27,0-.5.08-.68.23-.18.15-.27.38-.27.69,0,.32.11.59.33.79s.51.36.86.46c.35.1.71.15,1.09.15,1.06,0,1.99-.37,2.77-1.1.79-.73,1.53-1.95,2.24-3.65l.27-.66h0l5.27-12.76Z"/>
  </g>
  <path class="cls-3" d="m346.25,140c0-.06-.01-.11-.02-.16,0-.11,0-.21-.02-.31-.01-.11-.03-.23-.05-.34-.02-.11-.04-.22-.06-.33-.02-.09-.05-.18-.07-.28-.03-.11-.07-.21-.11-.32-.04-.11-.08-.22-.13-.32-.04-.1-.09-.19-.14-.28-.03-.05-.04-.1-.07-.15-.03-.05-.07-.09-.1-.13-.06-.09-.11-.18-.17-.26-.07-.09-.14-.18-.21-.27-.07-.09-.14-.17-.22-.26-.07-.07-.13-.14-.2-.2-.08-.08-.17-.15-.26-.22-.09-.07-.18-.15-.27-.21-.09-.06-.17-.12-.26-.17-.05-.03-.08-.07-.13-.1L213.85,60.67s-.1-.04-.15-.07c-.16-.08-.32-.15-.49-.22-.15-.06-.29-.12-.44-.16-.15-.05-.31-.07-.46-.11-.16-.03-.32-.07-.49-.08-.16-.02-.31-.01-.47-.01-.16,0-.32,0-.48.01-.16.02-.32.05-.48.08-.16.03-.32.06-.47.11-.15.04-.29.1-.43.16-.17.07-.33.14-.49.22-.05.03-.1.04-.15.07l-86.6,50s-.09.07-.13.1c-.09.06-.18.11-.26.17-.1.07-.18.14-.28.22-.09.07-.17.14-.26.22-.07.07-.13.13-.2.2-.08.08-.15.17-.22.26-.07.09-.15.18-.21.27-.06.09-.12.17-.17.26-.03.05-.07.08-.1.13-.03.05-.04.1-.07.15-.05.09-.1.19-.14.28-.05.1-.09.21-.13.32-.04.11-.08.21-.11.32-.03.09-.05.18-.07.28-.03.11-.05.22-.06.33-.02.11-.04.23-.05.34-.01.1-.01.21-.02.31,0,.06-.02.11-.02.16v150c0,.06.01.11.02.16,0,.18.03.36.05.54.02.15.04.31.08.45.04.16.09.31.14.46.05.15.1.31.17.45.07.15.15.28.23.42.08.14.16.28.25.41.09.13.2.25.31.38.11.12.21.24.33.35.11.11.23.2.36.29.14.11.28.22.44.31.05.03.08.07.13.1l86.6,50s0,0,.01,0c.14.08.28.14.43.21.01,0,.02.01.03.01.04.02.07.04.11.05.01,0,.02.01.04.02.05.02.11.04.17.06.21.08.42.14.63.19.06.01.13.03.19.04.3.05.6.09.9.09,0,0,0,0,0,0s0,0,0,0c.3,0,.6-.04.9-.09.06-.01.13-.02.19-.04.22-.05.44-.11.65-.19.05-.02.1-.03.14-.05.01,0,.02-.01.04-.02.04-.02.07-.04.11-.05.01,0,.03-.01.04-.02.14-.06.28-.13.42-.21,0,0,0,0,.01,0l129.9-75s.09-.07.13-.1c.15-.1.29-.2.44-.31.12-.1.24-.19.36-.29.12-.11.22-.23.33-.35.11-.12.22-.24.31-.38.09-.13.17-.27.25-.41.08-.14.16-.28.23-.42.07-.15.12-.3.17-.45.05-.15.11-.3.14-.46.04-.15.05-.3.08-.45.03-.18.05-.36.05-.54,0-.06.02-.11.02-.16v-100Zm-178.21-44.23l33.3,19.23-33.3,19.23-33.3-19.23,33.3-19.23Zm43.3-25l119.9,69.23-33.3,19.23-119.9-69.23,33.3-19.23Zm0,188.45l-33.3-19.23,76.6-44.23,33.3,19.23-76.6,44.23Zm81.6-52.89l-76.6-44.23v-38.45l76.6,44.23v38.45Zm-76.6-32.68l28.3,16.34-28.3,16.34v-32.68Zm-10,38.45l-33.3,19.23v-88.45l33.3-19.23v88.45Zm96.6-44.23l33.3-19.23v38.45l-33.3,19.23v-38.45Zm-173.21-44.23l33.3,19.23v138.45l-33.3-19.23V123.66Zm43.3,125l33.3,19.23v38.45l-33.3-19.23v-38.45Zm43.3,19.23l84.06-48.53s.01,0,.02-.01l35.83-20.68v38.45l-119.9,69.23v-38.45Z"/>
</svg>