<?xml version="1.0" encoding="UTF-8"?>
<svg id="Layer_1" data-name="Layer 1" xmlns="http://www.w3.org/2000/svg" xmlns:xlink="http://www.w3.org/1999/xlink" viewBox="0 0 466 540">
  <defs>
    <style>
      .cls-1 {
        fill: #fff;
      }

      .cls-2, .cls-3 {
        fill: #471b52;
      }

      .cls-2, .cls-4 {
        opacity: .7;
      }

      .cls-4 {
        fill: none;
      }

      .cls-5 {
        fill: url(#linear-gradient);
      }
    </style>
    <linearGradient id="linear-gradient" x1="121.86" y1="-35.37" x2="344.14" y2="575.37" gradientUnits="userSpaceOnUse">
      <stop offset="0" stop-color="#471b52" stop-opacity="0"/>
      <stop offset="1" stop-color="#471b52"/>
    </linearGradient>
  </defs>
  <rect class="cls-5" width="466" height="540" rx="30" ry="30"/>
  <g class="cls-4">
    <path class="cls-1" d="m451.31,426.57c5.4-1.88,10.3-4.05,14.69-6.49v-123.4c-4.41-3.23-9.24-6.15-14.48-8.72-14.42-7.08-31.33-10.63-50.74-10.63-28.84,0-53.31,7.8-73.44,23.39-20.13,15.59-32.48,38.41-37.04,68.46,15.13,2.84,25.69,4.75,31.69,5.74,6,1,10.42,1.49,13.28,1.49,5.99,0,10.71-1.42,14.13-4.25,3.43-2.83,6.28-7.51,8.56-14.03,3.14-7.65,8.14-14.03,14.99-19.13,6.85-5.1,14.84-7.65,23.98-7.65,8.28,0,15.05,1.49,20.34,4.46,5.28,2.98,9.21,7.23,11.78,12.76,2.57,5.53,3.85,12.4,3.85,20.62,0,14.18-4.36,24.45-13.06,30.83-8.71,6.38-24.62,9.57-47.75,9.57v45.5c18.27,0,32.04,1.35,41.32,4.04,9.27,2.7,15.48,7.16,18.63,13.39,3.14,6.24,4.71,14.88,4.71,25.94,0,7.37-1.71,14.24-5.14,20.62-3.42,6.38-8.42,11.48-14.99,15.31-5.73,3.34-12.55,5.22-20.45,5.65h39.83c16.57,0,30-13.43,30-30v-77.19c-4.49-2.34-9.38-4.43-14.69-6.24Z"/>
    <path class="cls-1" d="m375.3,536.69c-5.29-2.27-10.21-5.88-14.77-10.84-4.57-4.96-9.14-11.41-13.7-19.35-1.71-3.4-4.43-5.95-8.14-7.65-3.71-1.7-7.85-2.55-12.42-2.55-3.14,0-6.21.36-9.21,1.06-3,.71-7.07,2.13-12.2,4.25s-12.85,5.32-23.12,9.57c3.85,10.68,8.16,20.29,12.91,28.82h95.06c-5.16-.3-9.96-1.39-14.41-3.31Z"/>
    <path class="cls-1" d="m181.53,520.54c-4.57,7.94-9.71,13.33-15.42,16.16-3.04,1.51-6.07,2.6-9.11,3.31h84.85c5.56-9.91,10.22-21.22,13.96-33.92,5.85-19.84,8.78-43.37,8.78-70.58s-2.93-50.31-8.78-70.16c-5.85-19.84-13.92-36.28-24.19-49.32-10.28-13.04-22.55-22.75-36.83-29.13-14.28-6.38-29.69-9.57-46.25-9.57s-31.83,3.19-45.82,9.57c-13.99,6.38-26.12,16.09-36.4,29.13-10.28,13.04-18.35,29.48-24.19,49.32-5.85,19.84-8.78,43.23-8.78,70.16s2.92,50.75,8.78,70.58c3.74,12.7,8.4,24.01,13.96,33.92h84.54c-3.12-.71-6.19-1.8-9.22-3.31-5.71-2.83-10.71-8.22-14.99-16.16-4.28-7.93-7.78-18.71-10.49-32.32-2.72-13.61-4.07-31.04-4.07-52.3s1.35-39.18,4.07-52.94c2.71-13.75,6.21-24.45,10.49-32.1,4.28-7.93,9.27-13.32,14.99-16.16,5.71-2.83,11.41-4.25,17.13-4.25,5.99,0,11.84,1.42,17.56,4.25,5.71,2.84,10.85,8.08,15.42,15.73,4.28,7.94,7.77,18.78,10.49,32.53,2.71,13.75,4.07,31.4,4.07,52.94s-1.36,38.69-4.07,52.3c-2.72,13.61-6.21,24.38-10.49,32.32Z"/>
  </g>
  <g>
    <polygon class="cls-3" points="23.91 58.55 33.95 58.55 33.95 56.25 23.91 56.25 23.91 41.2 21.29 41.2 21.29 58.55 22.34 58.55 23.91 58.55"/>
    <path class="cls-3" d="m41.95,58.09c.67-.41,1.18-1.01,1.56-1.81.02.4.04.78.1,1.14.08.49.18.87.3,1.12h2.44c-.17-.41-.31-.94-.42-1.58-.11-.65-.17-1.37-.17-2.17v-4.97c0-1.05-.21-1.91-.63-2.55-.42-.65-1-1.11-1.75-1.38-.75-.27-1.63-.41-2.66-.41-1.95,0-3.42.47-4.39,1.4-.27.24-.47.48-.58.71s-.17.47-.17.69c0,.31.09.54.27.7.18.16.42.24.73.24.27,0,.52-.08.73-.26.21-.17.45-.37.71-.6.26-.23.59-.43,1.01-.6s.98-.26,1.68-.26c.77,0,1.4.15,1.88.45.48.3.72.85.72,1.67v.08c0,.39-.12.68-.37.87-.25.19-.77.37-1.58.54l-2.34.43c-1.28.25-2.25.68-2.9,1.26s-.98,1.39-.98,2.41c0,1.12.37,2.01,1.1,2.65s1.71.97,2.93.97c1.01,0,1.94-.25,2.77-.76Zm-4.24-3.04c0-.63.2-1.1.6-1.42.4-.31.92-.53,1.55-.65l1.77-.36c.5-.12.87-.24,1.12-.36.25-.12.43-.24.55-.36v1.61c0,.71-.16,1.34-.48,1.88-.32.54-.74.94-1.26,1.21-.52.27-1.08.41-1.66.41-.67,0-1.2-.17-1.61-.52-.4-.35-.6-.83-.6-1.44Z"/>
    <path class="cls-3" d="m58.67,57.46c.99-.93,1.49-2.33,1.49-4.2v-7.47h-2.42v7.45c0,1.14-.28,2-.83,2.58-.56.58-1.34.87-2.35.87s-1.75-.29-2.31-.87c-.57-.58-.85-1.44-.85-2.58v-7.45h-2.42v7.47c0,1.87.5,3.27,1.49,4.2.99.93,2.35,1.39,4.08,1.39s3.12-.46,4.11-1.39Z"/>
    <path class="cls-3" d="m67.8,48.14c.52-.25,1.07-.38,1.66-.38.55,0,1.05.11,1.5.34.45.23.82.59,1.09,1.08.27.49.41,1.14.41,1.94v7.42h2.44v-7.7c0-1.26-.21-2.28-.64-3.06s-1-1.36-1.71-1.74-1.49-.56-2.33-.56c-.63,0-1.27.12-1.9.36-.63.24-1.2.61-1.71,1.11-.23.22-.42.49-.6.77v-1.93h-2.42v12.76h2.42v-7.22c0-.83.17-1.51.5-2.03s.76-.91,1.28-1.16Z"/>
    <path class="cls-3" d="m86.61,58.48c.68-.25,1.26-.52,1.76-.83v-2.04c-.7.37-1.37.65-2.02.82-.64.17-1.27.25-1.89.25-.94,0-1.73-.18-2.36-.55-.63-.37-1.11-.89-1.44-1.57-.33-.68-.49-1.49-.49-2.42,0-1.41.33-2.53,1-3.37.67-.83,1.59-1.25,2.77-1.25.58,0,1.04.09,1.39.28s.62.4.83.64.42.46.63.65c.21.2.47.29.8.29.31,0,.56-.09.77-.28.21-.19.31-.45.31-.79,0-.49-.21-.95-.64-1.38-.39-.41-.93-.75-1.62-1.03-.69-.28-1.49-.42-2.42-.42-1.3,0-2.44.29-3.4.86-.97.57-1.72,1.36-2.25,2.38-.53,1.02-.8,2.21-.8,3.57,0,2.02.59,3.62,1.76,4.8s2.78,1.76,4.82,1.76c.98,0,1.8-.12,2.48-.37Z"/>
    <path class="cls-3" d="m100.23,46.05c-.71-.37-1.49-.56-2.33-.56-.63,0-1.26.12-1.89.36-.63.24-1.19.61-1.7,1.11-.23.23-.44.5-.63.8v-7.57h-2.42v18.37h2.42v-7.22c0-.83.17-1.51.5-2.03s.76-.91,1.28-1.16c.52-.25,1.07-.38,1.66-.38.55,0,1.05.11,1.5.34.45.23.82.59,1.09,1.08.27.49.41,1.14.41,1.94v7.42h2.44v-7.7c0-1.26-.21-2.28-.64-3.06s-1-1.36-1.71-1.74Z"/>
    <path class="cls-3" d="m107.69,55.74c-.53,0-.94.15-1.22.43-.28.29-.42.66-.42,1.12s.14.81.42,1.11c.14.15.32.26.53.34-.02.36-.06.72-.14,1.08-.15.6-.41,1.24-.78,1.94h1.49c.53-.63.96-1.36,1.28-2.18s.49-1.59.49-2.28c0-.46-.14-.83-.42-1.12-.28-.29-.69-.43-1.22-.43Z"/>
    <polygon class="cls-3" points="122.31 41.2 119.69 41.2 119.69 58.55 120.74 58.55 122.31 58.55 132.36 58.55 132.36 56.25 122.31 56.25 122.31 41.2"/>
    <path class="cls-3" d="m140.16,53.07c.85-.08,1.6-.25,2.25-.52s1.16-.65,1.52-1.14c.36-.48.54-1.08.54-1.8,0-.75-.2-1.44-.6-2.07-.4-.63-.99-1.13-1.75-1.51-.76-.37-1.67-.56-2.74-.56-1.27,0-2.39.29-3.35.87s-1.73,1.39-2.27,2.42c-.55,1.04-.82,2.25-.82,3.65,0,2.02.57,3.6,1.72,4.73,1.15,1.13,2.76,1.7,4.83,1.7,1.01,0,1.9-.12,2.67-.37.77-.25,1.43-.53,1.98-.85v-1.86c-.72.38-1.45.66-2.18.84-.74.19-1.46.28-2.18.28-.98,0-1.78-.18-2.42-.54-.63-.36-1.11-.88-1.44-1.56-.28-.58-.43-1.28-.47-2.09.68.14,1.35.26,2.01.33.96.1,1.86.12,2.71.04Zm-4.65-1.97c.08-.55.22-1.05.42-1.49.34-.73.81-1.29,1.4-1.67.59-.38,1.26-.57,2.02-.57.86,0,1.51.21,1.97.62.45.42.68.91.68,1.47s-.21.97-.63,1.28c-.42.31-.99.51-1.7.6-.71.09-1.51.1-2.4.03-.57-.05-1.16-.14-1.76-.26Z"/>
    <path class="cls-3" d="m157.02,54.8v-4.97c0-1.05-.21-1.91-.63-2.55-.42-.65-1-1.11-1.75-1.38-.75-.27-1.63-.41-2.66-.41-1.95,0-3.42.47-4.39,1.4-.27.24-.47.48-.58.71s-.17.47-.17.69c0,.31.09.54.27.7.18.16.42.24.73.24.27,0,.52-.08.73-.26.21-.17.45-.37.71-.6.26-.23.59-.43,1.01-.6s.98-.26,1.68-.26c.77,0,1.4.15,1.88.45.48.3.72.85.72,1.67v.08c0,.39-.12.68-.37.87-.25.19-.77.37-1.58.54l-2.34.43c-1.28.25-2.25.68-2.9,1.26s-.98,1.39-.98,2.41c0,1.12.37,2.01,1.1,2.65s1.71.97,2.93.97c1.01,0,1.94-.25,2.77-.76.67-.41,1.18-1.01,1.56-1.81.02.4.04.78.1,1.14.08.49.18.87.3,1.12h2.44c-.17-.41-.31-.94-.42-1.58-.11-.65-.17-1.37-.17-2.17Zm-4.17,1.81c-.52.27-1.08.41-1.66.41-.67,0-1.2-.17-1.61-.52-.4-.35-.6-.83-.6-1.44s.2-1.1.6-1.42c.4-.31.92-.53,1.55-.65l1.77-.36c.5-.12.87-.24,1.12-.36.25-.12.43-.24.55-.36v1.61c0,.71-.16,1.34-.48,1.88-.32.54-.74.94-1.26,1.21Z"/>
    <path class="cls-3" d="m167.24,45.66c-.28-.12-.6-.18-.96-.18-.74,0-1.43.28-2.08.83-.4.34-.75.81-1.05,1.38v-1.9h-2.42v12.76h2.42v-6.86c0-1.07.22-1.95.67-2.63.45-.68,1.03-1.02,1.75-1.02.24,0,.47.04.69.11.22.08.46.12.72.12.34,0,.62-.1.85-.31.22-.2.33-.51.33-.92,0-.34-.08-.62-.24-.85-.16-.23-.39-.4-.67-.52Z"/>
    <path class="cls-3" d="m179.05,46.05c-.71-.37-1.49-.56-2.33-.56-.63,0-1.27.12-1.9.36-.63.24-1.2.61-1.71,1.11-.23.22-.42.49-.6.77v-1.93h-2.42v12.76h2.42v-7.22c0-.83.17-1.51.5-2.03s.76-.91,1.28-1.16c.52-.25,1.07-.38,1.66-.38.55,0,1.05.11,1.5.34.45.23.82.59,1.09,1.08.27.49.41,1.14.41,1.94v7.42h2.44v-7.7c0-1.26-.21-2.28-.64-3.06s-1-1.36-1.71-1.74Z"/>
    <path class="cls-3" d="m187.74,56.17c-.28-.29-.69-.43-1.22-.43s-.94.15-1.22.43c-.28.29-.42.66-.42,1.12s.14.81.42,1.11c.14.15.32.26.53.34-.02.36-.06.72-.14,1.08-.15.6-.41,1.24-.78,1.94h1.49c.53-.63.96-1.36,1.28-2.18s.49-1.59.49-2.28c0-.46-.14-.83-.42-1.12Z"/>
    <path class="cls-3" d="m34.64,85.25c-.04-.65-.12-1.27-.23-1.85s-.32-1.1-.63-1.56c-.31-.46-.78-.82-1.43-1.07-.09-.03-.19-.06-.28-.09.05-.01.1-.02.15-.04,1.04-.31,1.82-.79,2.35-1.46.53-.66.8-1.52.8-2.58,0-1.56-.58-2.75-1.73-3.57-1.16-.82-2.9-1.22-5.23-1.22h-7.12v17.35h2.62v-7.37h4.8c.86,0,1.5.17,1.94.51.44.34.74.79.91,1.34.17.55.28,1.16.33,1.82s.11,1.32.17,1.96c.06.65.19,1.22.4,1.73h3.01c-.29-.61-.49-1.25-.6-1.93s-.19-1.33-.23-1.99Zm-6.33-11.19c1.52,0,2.62.22,3.3.66.68.44,1.01,1.13,1.01,2.07s-.34,1.66-1.03,2.13-1.78.7-3.29.7h-4.39v-5.56h4.39Z"/>
    <path class="cls-3" d="m44.91,83.69c.85-.08,1.6-.25,2.25-.52s1.16-.65,1.52-1.14c.36-.48.54-1.08.54-1.8,0-.75-.2-1.44-.6-2.07-.4-.63-.99-1.13-1.75-1.51-.76-.37-1.67-.56-2.74-.56-1.27,0-2.39.29-3.35.87s-1.73,1.39-2.27,2.42c-.55,1.04-.82,2.25-.82,3.65,0,2.02.57,3.6,1.72,4.73,1.15,1.13,2.76,1.7,4.83,1.7,1.01,0,1.9-.12,2.67-.37.77-.25,1.43-.53,1.98-.85v-1.86c-.72.38-1.45.66-2.18.84-.74.19-1.46.28-2.18.28-.98,0-1.78-.18-2.42-.54-.63-.36-1.11-.88-1.44-1.56-.28-.58-.43-1.28-.47-2.09.68.14,1.35.26,2.01.33.96.1,1.86.12,2.71.04Zm-4.65-1.97c.08-.55.22-1.05.42-1.49.34-.73.81-1.29,1.4-1.67.59-.38,1.26-.57,2.02-.57.86,0,1.51.21,1.97.62.45.42.68.91.68,1.47s-.21.97-.63,1.28c-.42.31-.99.51-1.7.6-.71.09-1.51.1-2.4.03-.57-.05-1.16-.14-1.76-.26Z"/>
    <path class="cls-3" d="m61.78,76.92c-.87-.54-1.86-.82-2.95-.82s-2.11.3-2.94.89c-.51.37-.94.84-1.3,1.39v-1.98h-2.42v17.86h2.42v-7.06c.3.58.72,1.07,1.26,1.45.77.54,1.72.82,2.85.82s2.21-.28,3.1-.84c.88-.56,1.57-1.35,2.06-2.36s.73-2.19.73-3.53-.25-2.53-.75-3.52c-.5-.99-1.18-1.75-2.06-2.3Zm-.26,8.23c-.33.69-.78,1.23-1.36,1.62-.58.39-1.26.59-2.03.59-.67,0-1.27-.15-1.81-.46-.54-.31-.96-.73-1.27-1.28s-.46-1.16-.46-1.84v-1.91c0-1.07.33-1.94.98-2.6s1.5-1,2.54-1c.79,0,1.47.19,2.06.56.58.37,1.04.9,1.36,1.57.33.67.49,1.46.49,2.36s-.16,1.7-.49,2.38Z"/>
    <path class="cls-3" d="m74.15,83.69c.85-.08,1.6-.25,2.25-.52s1.16-.65,1.52-1.14c.36-.48.54-1.08.54-1.8,0-.75-.2-1.44-.6-2.07-.4-.63-.99-1.13-1.75-1.51-.76-.37-1.67-.56-2.74-.56-1.27,0-2.39.29-3.35.87s-1.73,1.39-2.27,2.42c-.55,1.04-.82,2.25-.82,3.65,0,2.02.57,3.6,1.72,4.73,1.15,1.13,2.76,1.7,4.83,1.7,1.01,0,1.9-.12,2.67-.37.77-.25,1.43-.53,1.98-.85v-1.86c-.72.38-1.45.66-2.18.84-.74.19-1.46.28-2.18.28-.98,0-1.78-.18-2.42-.54-.63-.36-1.11-.88-1.44-1.56-.28-.58-.43-1.28-.47-2.09.68.14,1.35.26,2.01.33.96.1,1.86.12,2.71.04Zm-4.65-1.97c.08-.55.22-1.05.42-1.49.34-.73.81-1.29,1.4-1.67.59-.38,1.26-.57,2.02-.57.86,0,1.51.21,1.97.62.45.42.68.91.68,1.47s-.21.97-.63,1.28c-.42.31-.99.51-1.7.6-.71.09-1.51.1-2.4.03-.57-.05-1.16-.14-1.76-.26Z"/>
    <path class="cls-3" d="m91.02,85.41v-4.97c0-1.05-.21-1.91-.63-2.55-.42-.65-1-1.11-1.75-1.38-.75-.27-1.63-.41-2.66-.41-1.95,0-3.42.47-4.39,1.4-.27.24-.47.48-.58.71s-.17.47-.17.69c0,.31.09.54.27.7.18.16.42.24.73.24.27,0,.52-.08.73-.26.21-.17.45-.37.71-.6.26-.23.59-.43,1.01-.6s.98-.26,1.68-.26c.77,0,1.4.15,1.88.45.48.3.72.85.72,1.67v.08c0,.39-.12.68-.37.87-.25.19-.77.37-1.58.54l-2.34.43c-1.28.25-2.25.68-2.9,1.26s-.98,1.39-.98,2.41c0,1.12.37,2.01,1.1,2.65s1.71.97,2.93.97c1.01,0,1.94-.25,2.77-.76.67-.41,1.18-1.01,1.56-1.81.02.4.04.78.1,1.14.08.49.18.87.3,1.12h2.44c-.17-.41-.31-.94-.42-1.58-.11-.65-.17-1.37-.17-2.17Zm-4.17,1.81c-.52.27-1.08.41-1.66.41-.67,0-1.2-.17-1.61-.52-.4-.35-.6-.83-.6-1.44s.2-1.1.6-1.42c.4-.31.92-.53,1.55-.65l1.77-.36c.5-.12.87-.24,1.12-.36.25-.12.43-.24.55-.36v1.61c0,.71-.16,1.34-.48,1.88-.32.54-.74.94-1.26,1.21Z"/>
    <path class="cls-3" d="m97.6,74.16l-3.52,2.07c-.34.19-.6.39-.77.6-.17.21-.26.46-.26.73,0,.31.1.55.31.73s.48.27.82.27h1v6.99c0,1.33.31,2.31.92,2.96.62.65,1.48.97,2.6.97.46,0,.9-.05,1.3-.14.4-.09.79-.22,1.17-.37v-2.04c-.33.12-.63.22-.92.29-.29.08-.59.11-.9.11-.58,0-1.02-.16-1.31-.48-.29-.32-.44-.87-.44-1.63v-6.66h4.09v-2.14h-4.09v-2.25Z"/>
  </g>
  <g>
    <polygon class="cls-3" points="22.32 122.61 23.38 122.61 23.38 117.09 27.97 111.05 26.68 111.05 22.85 116.11 19.01 111.05 17.73 111.05 22.32 117.12 22.32 122.61"/>
    <path class="cls-3" d="m28.12,120.76c.34.65.82,1.16,1.42,1.51.6.36,1.3.54,2.09.54s1.54-.19,2.16-.57c.62-.38,1.1-.91,1.45-1.6.35-.69.52-1.48.52-2.39s-.17-1.67-.51-2.31c-.34-.65-.82-1.15-1.42-1.5-.61-.36-1.3-.54-2.09-.54s-1.53.19-2.15.57c-.62.38-1.11.91-1.46,1.59-.35.68-.52,1.48-.52,2.4s.17,1.65.51,2.3Zm.95-4.29c.27-.54.63-.96,1.1-1.25.46-.29.98-.44,1.57-.44s1.08.14,1.52.42.8.69,1.05,1.22.39,1.15.39,1.88-.13,1.38-.4,1.92c-.27.54-.63.96-1.1,1.26-.46.29-.98.44-1.57.44s-1.06-.14-1.52-.42-.8-.69-1.06-1.22c-.26-.53-.39-1.15-.39-1.88s.13-1.39.4-1.93Z"/>
    <path class="cls-3" d="m41.43,122.81c1.03,0,1.87-.29,2.52-.88s.98-1.49.98-2.73v-5.1h-1.03v5.08c0,.9-.22,1.57-.65,2.01-.43.44-1.04.66-1.82.66s-1.37-.22-1.81-.66c-.44-.44-.66-1.11-.66-2.01v-5.08h-1.03v5.1c0,1.24.33,2.15.98,2.73s1.49.88,2.52.88Z"/>
    <path class="cls-3" d="m48.75,117.59c0-.75.17-1.37.51-1.88.34-.5.78-.76,1.32-.76.16,0,.31.02.44.06s.27.06.4.06c.17,0,.3-.04.39-.13s.13-.2.13-.33c0-.15-.04-.27-.13-.37-.09-.1-.21-.18-.36-.25-.15-.06-.34-.09-.56-.09-.48,0-.95.18-1.4.54-.27.22-.52.53-.74.92v-1.26h-1.03v8.5h1.03v-5.02Z"/>
    <path class="cls-3" d="m60.22,122.81c.73,0,1.32-.11,1.77-.32.45-.21.78-.51.99-.88.21-.37.32-.77.32-1.2,0-.52-.12-.94-.36-1.25-.24-.31-.55-.56-.92-.74s-.78-.33-1.2-.45-.82-.24-1.2-.37c-.38-.13-.69-.3-.93-.51-.24-.21-.36-.5-.36-.86s.15-.71.46-1.02c.31-.31.81-.46,1.49-.46.43,0,.77.06,1.02.18s.44.25.57.41c.14.15.26.29.36.41.1.12.23.18.39.18.11,0,.21-.04.28-.12.07-.08.11-.19.11-.34,0-.27-.12-.53-.35-.76-.23-.24-.56-.43-.97-.58-.41-.15-.88-.22-1.42-.22-.65,0-1.2.11-1.64.33-.44.22-.77.52-.98.89-.22.37-.33.78-.33,1.22,0,.49.12.88.36,1.18.24.3.55.54.92.71s.78.31,1.2.43c.42.12.82.25,1.2.38s.69.31.92.54c.24.22.36.52.36.89,0,.4-.16.74-.49,1.04-.33.29-.85.44-1.58.44-.51,0-1.02-.09-1.52-.26s-.98-.44-1.45-.81v1.04c.29.24.68.45,1.18.62s1.09.26,1.76.26Z"/>
    <path class="cls-3" d="m69.07,122.81c.82,0,1.54-.19,2.16-.57.62-.38,1.1-.91,1.45-1.6.35-.69.52-1.48.52-2.39s-.17-1.67-.51-2.31c-.34-.65-.82-1.15-1.42-1.5-.61-.36-1.3-.54-2.09-.54s-1.53.19-2.15.57c-.62.38-1.11.91-1.46,1.59-.35.68-.52,1.48-.52,2.4s.17,1.65.51,2.3c.34.65.82,1.16,1.42,1.51.6.36,1.3.54,2.09.54Zm-2.58-2.53c-.26-.53-.39-1.15-.39-1.88s.13-1.39.4-1.93c.27-.54.63-.96,1.1-1.25.46-.29.98-.44,1.57-.44s1.08.14,1.52.42.8.69,1.05,1.22.39,1.15.39,1.88-.13,1.38-.4,1.92c-.27.54-.63.96-1.1,1.26-.46.29-.98.44-1.57.44s-1.06-.14-1.52-.42-.8-.69-1.06-1.22Z"/>
    <path class="cls-3" d="m77.26,122.81c.37,0,.71-.08,1.04-.24v-.85c-.15.05-.29.08-.41.1s-.26.03-.39.03c-.32,0-.55-.08-.69-.26-.14-.17-.21-.49-.21-.95v-10.29h-1.03v10.41c0,.59.13,1.08.39,1.46.26.38.69.58,1.31.58Z"/>
    <path class="cls-3" d="m83.34,122.81c1.03,0,1.87-.29,2.52-.88s.98-1.49.98-2.73v-5.1h-1.03v5.08c0,.9-.22,1.57-.65,2.01-.43.44-1.04.66-1.82.66s-1.37-.22-1.81-.66c-.44-.44-.66-1.11-.66-2.01v-5.08h-1.03v5.1c0,1.24.33,2.15.98,2.73s1.49.88,2.52.88Z"/>
    <path class="cls-3" d="m89.2,115.02h.84v5.36c0,.86.19,1.48.56,1.86.37.38.88.57,1.53.57.3,0,.56-.03.8-.09.23-.06.47-.14.71-.25v-.92c-.24.09-.47.17-.68.22-.21.06-.43.08-.66.08-.42,0-.73-.12-.93-.36s-.3-.64-.3-1.21v-5.27h2.91v-.92h-2.91v-1.43l-1.92,1.31c-.16.11-.28.22-.36.32-.08.1-.12.21-.12.32,0,.1.04.19.12.27.08.08.22.12.41.12Z"/>
    <path class="cls-3" d="m95.78,122.61h1.03v-8.5c-.34.03-.69.03-1.03,0v8.5Z"/>
    <path class="cls-3" d="m96.29,112.34c.25,0,.44-.07.57-.22.13-.15.19-.32.19-.53s-.06-.38-.19-.53c-.13-.15-.31-.22-.57-.22s-.44.07-.57.22c-.13.15-.19.32-.19.53s.06.38.19.53c.13.15.31.22.57.22Z"/>
    <path class="cls-3" d="m101.1,122.28c.6.36,1.3.54,2.09.54s1.54-.19,2.16-.57c.62-.38,1.1-.91,1.45-1.6.35-.69.52-1.48.52-2.39s-.17-1.67-.51-2.31c-.34-.65-.82-1.15-1.42-1.5-.61-.36-1.3-.54-2.09-.54s-1.53.19-2.15.57c-.62.38-1.11.91-1.46,1.59-.35.68-.52,1.48-.52,2.4s.17,1.65.51,2.3c.34.65.82,1.16,1.42,1.51Zm-.47-5.8c.27-.54.63-.96,1.1-1.25.46-.29.98-.44,1.57-.44s1.08.14,1.52.42.8.69,1.05,1.22.39,1.15.39,1.88-.13,1.38-.4,1.92c-.27.54-.63.96-1.1,1.26-.46.29-.98.44-1.57.44s-1.06-.14-1.52-.42-.8-.69-1.06-1.22c-.26-.53-.39-1.15-.39-1.88s.13-1.39.4-1.93Z"/>
    <path class="cls-3" d="m115.18,114.28c-.47-.25-.98-.37-1.53-.37-.42,0-.85.08-1.29.24s-.84.41-1.2.76c-.16.16-.31.34-.44.54v-1.33h-1.03v8.5h1.03v-5.02c0-.63.13-1.15.39-1.56.26-.4.59-.7.99-.89.41-.19.83-.29,1.28-.29.41,0,.8.09,1.16.26.36.18.65.45.87.83.22.38.33.88.33,1.5v5.15h1.03v-5.2c0-.81-.14-1.47-.43-1.98-.29-.52-.67-.9-1.14-1.15Z"/>
    <path class="cls-3" d="m123.29,120.82c0,.26.06.51.19.76.13.24.35.44.66.6s.76.23,1.34.23h2.62c.78,0,1.31.11,1.59.34.29.23.43.52.43.88,0,.6-.29,1.03-.87,1.3-.58.27-1.31.4-2.19.4-.59,0-1.06-.04-1.4-.13-.34-.08-.61-.19-.8-.31-.19-.12-.35-.22-.48-.31s-.28-.13-.44-.13c-.15,0-.26.04-.33.13-.07.08-.11.18-.11.3s.03.22.1.32c.07.1.17.2.29.29.29.21.7.39,1.23.52.54.13,1.18.2,1.92.2,1.36,0,2.38-.22,3.06-.67.68-.45,1.02-1.1,1.02-1.95,0-.76-.25-1.31-.76-1.64-.51-.33-1.18-.5-2.03-.5h-2.6c-.53,0-.9-.06-1.12-.18s-.33-.31-.33-.59c0-.18.06-.36.19-.54s.37-.33.74-.45c.37-.12.9-.18,1.61-.18s1.31-.12,1.83-.35c.52-.23.94-.56,1.23-.99.3-.42.45-.92.45-1.49,0-.29-.05-.58-.14-.84-.09-.27-.24-.51-.44-.73-.08-.09-.18-.17-.29-.25.26.04.51.08.71.1.38.04.82.06,1.31.06v-.92c-.77,0-1.52-.03-2.25-.1-.74-.07-1.5-.1-2.29-.1-.67,0-1.27.12-1.8.36-.52.24-.94.57-1.23,1-.3.43-.45.94-.45,1.51,0,.85.31,1.52.93,2.01.18.14.38.26.6.36-.51.1-.91.27-1.19.52-.34.29-.51.68-.51,1.17Zm1.16-4.08c0-.63.23-1.12.69-1.45.46-.33,1.05-.5,1.77-.5s1.28.16,1.73.48.67.79.67,1.41-.23,1.12-.69,1.45-1.06.5-1.79.5-1.27-.16-1.71-.48-.67-.79-.67-1.41Z"/>
    <path class="cls-3" d="m134.44,122.28c.6.36,1.3.54,2.09.54s1.54-.19,2.16-.57c.62-.38,1.1-.91,1.45-1.6.35-.69.52-1.48.52-2.39s-.17-1.67-.51-2.31c-.34-.65-.82-1.15-1.42-1.5-.61-.36-1.3-.54-2.09-.54s-1.53.19-2.15.57c-.62.38-1.11.91-1.46,1.59-.35.68-.52,1.48-.52,2.4s.17,1.65.51,2.3c.34.65.82,1.16,1.42,1.51Zm-.47-5.8c.27-.54.63-.96,1.1-1.25.46-.29.98-.44,1.57-.44s1.08.14,1.52.42.8.69,1.05,1.22.39,1.15.39,1.88-.13,1.38-.4,1.92c-.27.54-.63.96-1.1,1.26-.46.29-.98.44-1.57.44s-1.06-.14-1.52-.42-.8-.69-1.06-1.22c-.26-.53-.39-1.15-.39-1.88s.13-1.39.4-1.93Z"/>
    <path class="cls-3" d="m146.67,122.81c.65,0,1.21-.08,1.68-.25.47-.16.87-.35,1.2-.55v-.92c-.49.26-.97.45-1.45.58-.47.12-.93.19-1.38.19-.69,0-1.26-.14-1.73-.41-.47-.27-.83-.66-1.07-1.17-.24-.49-.35-1.08-.36-1.75.52.1,1.03.19,1.52.23.65.06,1.26.07,1.82,0,.57-.06,1.06-.18,1.48-.36.42-.18.75-.43.99-.75.23-.32.35-.7.35-1.16,0-.48-.13-.91-.39-1.31-.26-.4-.62-.71-1.09-.94-.47-.23-1.02-.35-1.64-.35-.79,0-1.49.19-2.12.58-.62.39-1.11.92-1.46,1.62-.35.69-.53,1.5-.53,2.43,0,1.34.37,2.39,1.1,3.15.74.76,1.76,1.14,3.07,1.14Zm-2.72-6.31c.26-.54.62-.97,1.08-1.27.46-.3.98-.45,1.58-.45.66,0,1.17.17,1.52.5.35.33.53.72.53,1.15s-.17.78-.5,1.01-.77.39-1.32.46c-.55.07-1.15.09-1.81.03-.47-.04-.94-.11-1.42-.19.06-.45.15-.88.33-1.24Z"/>
    <path class="cls-3" d="m156.23,122.49c.45-.21.78-.51.99-.88.21-.37.32-.77.32-1.2,0-.52-.12-.94-.36-1.25-.24-.31-.55-.56-.92-.74s-.78-.33-1.2-.45-.82-.24-1.2-.37c-.38-.13-.69-.3-.93-.51-.24-.21-.36-.5-.36-.86s.15-.71.46-1.02c.31-.31.81-.46,1.49-.46.43,0,.77.06,1.02.18s.44.25.57.41c.14.15.26.29.36.41.1.12.23.18.39.18.11,0,.21-.04.28-.12.07-.08.11-.19.11-.34,0-.27-.12-.53-.35-.76-.23-.24-.56-.43-.97-.58-.41-.15-.88-.22-1.42-.22-.65,0-1.2.11-1.64.33-.44.22-.77.52-.98.89-.22.37-.33.78-.33,1.22,0,.49.12.88.36,1.18.24.3.55.54.92.71s.78.31,1.2.43c.42.12.82.25,1.2.38s.69.31.92.54c.24.22.36.52.36.89,0,.4-.16.74-.49,1.04-.33.29-.85.44-1.58.44-.51,0-1.02-.09-1.52-.26s-.98-.44-1.45-.81v1.04c.29.24.68.45,1.18.62s1.09.26,1.76.26c.73,0,1.32-.11,1.77-.32Z"/>
    <path class="cls-3" d="m165.88,122.81c.37,0,.71-.08,1.04-.24v-.85c-.15.05-.29.08-.41.1s-.26.03-.39.03c-.32,0-.55-.08-.69-.26-.14-.17-.21-.49-.21-.95v-10.29h-1.03v10.41c0,.59.13,1.08.39,1.46.26.38.69.58,1.31.58Z"/>
    <path class="cls-3" d="m169.38,112.34c.25,0,.44-.07.57-.22.13-.15.19-.32.19-.53s-.06-.38-.19-.53c-.13-.15-.31-.22-.57-.22s-.44.07-.57.22c-.13.15-.19.32-.19.53s.06.38.19.53c.13.15.31.22.57.22Z"/>
    <path class="cls-3" d="m168.87,122.61h1.03v-8.5c-.34.03-.69.03-1.03,0v8.5Z"/>
    <polygon class="cls-3" points="175.32 122.61 176.28 122.61 176.32 122.61 179.91 114.11 178.8 114.11 175.8 121.44 172.8 114.11 171.69 114.11 175.29 122.61 175.32 122.61"/>
    <path class="cls-3" d="m184.92,122.81c.65,0,1.21-.08,1.68-.25.47-.16.87-.35,1.2-.55v-.92c-.49.26-.97.45-1.45.58-.47.12-.93.19-1.38.19-.69,0-1.26-.14-1.73-.41-.47-.27-.83-.66-1.07-1.17-.24-.49-.35-1.08-.36-1.75.52.1,1.03.19,1.52.23.65.06,1.26.07,1.82,0,.57-.06,1.06-.18,1.48-.36.42-.18.75-.43.99-.75.23-.32.35-.7.35-1.16,0-.48-.13-.91-.39-1.31-.26-.4-.62-.71-1.09-.94-.47-.23-1.02-.35-1.64-.35-.79,0-1.49.19-2.12.58-.62.39-1.11.92-1.46,1.62-.35.69-.53,1.5-.53,2.43,0,1.34.37,2.39,1.1,3.15.74.76,1.76,1.14,3.07,1.14Zm-2.72-6.31c.26-.54.62-.97,1.08-1.27.46-.3.98-.45,1.58-.45.66,0,1.17.17,1.52.5.35.33.53.72.53,1.15s-.17.78-.5,1.01-.77.39-1.32.46c-.55.07-1.15.09-1.81.03-.47-.04-.94-.11-1.42-.19.06-.45.15-.88.33-1.24Z"/>
    <path class="cls-3" d="m190.48,123.5c-.09.39-.24.82-.47,1.28h.65c.3-.37.55-.82.75-1.35s.31-1.01.31-1.44c0-.23-.07-.42-.21-.58-.14-.16-.36-.24-.64-.24s-.5.08-.64.24c-.14.16-.21.35-.21.58s.07.41.21.57c.08.1.2.16.34.2,0,.25-.03.5-.08.74Z"/>
    <path class="cls-3" d="m204.81,121.62c-.09-.41-.13-.86-.13-1.35v-3.74c0-.65-.13-1.16-.4-1.55-.27-.38-.63-.66-1.09-.82-.46-.17-.98-.25-1.56-.25-1.21,0-2.12.32-2.74.97-.15.16-.25.31-.31.44-.06.14-.09.25-.09.36,0,.14.04.24.12.31.08.07.18.1.29.1.17,0,.31-.06.43-.19.11-.12.25-.27.41-.44.16-.17.39-.32.68-.44.29-.12.69-.19,1.21-.19.58,0,1.06.12,1.45.36.38.24.57.69.57,1.34v.07c0,.31-.09.53-.28.68-.19.15-.6.29-1.24.43l-1.44.31c-.83.18-1.46.47-1.88.86-.42.39-.62.92-.62,1.57,0,.76.25,1.35.74,1.76.49.41,1.12.62,1.9.62.66,0,1.29-.17,1.88-.52.48-.28.84-.73,1.09-1.31.01.28.02.56.08.84.06.35.13.61.21.79h1.03c-.11-.25-.21-.58-.3-1Zm-2.54.03c-.41.21-.83.31-1.28.31-.51,0-.93-.14-1.24-.42-.31-.28-.47-.66-.47-1.15s.15-.85.46-1.1c.31-.24.71-.42,1.2-.52l1.37-.29c.4-.09.7-.18.9-.28s.35-.2.44-.3v1.38c0,.56-.13,1.04-.39,1.44-.26.4-.59.71-.99.92Z"/>
    <path class="cls-3" d="m214.65,122.61v-5.2c0-.81-.14-1.47-.43-1.98-.29-.52-.67-.9-1.14-1.15-.47-.25-.98-.37-1.53-.37-.42,0-.85.08-1.29.24s-.84.41-1.2.76c-.16.16-.31.34-.44.54v-1.33h-1.03v8.5h1.03v-5.02c0-.63.13-1.15.39-1.56.26-.4.59-.7.99-.89.41-.19.83-.29,1.28-.29.41,0,.8.09,1.16.26.36.18.65.45.87.83.22.38.33.88.33,1.5v5.15h1.03Z"/>
    <path class="cls-3" d="m218.78,122.27c.6.36,1.27.54,2.01.54.81,0,1.5-.21,2.07-.63.35-.25.63-.57.87-.94v1.36h1.03v-12.25h-1.03v5.14c-.22-.43-.52-.78-.91-1.05-.54-.37-1.19-.55-1.97-.55s-1.48.19-2.09.57c-.61.38-1.08.9-1.41,1.57-.34.67-.51,1.45-.51,2.35s.17,1.67.51,2.34c.34.66.81,1.18,1.41,1.54Zm-.45-5.72c.26-.53.61-.94,1.07-1.24.46-.3.98-.45,1.58-.45.54,0,1.01.12,1.42.36s.74.56.98.98c.24.41.36.88.36,1.4v1.53c0,.82-.25,1.48-.75,1.98-.5.5-1.16.76-1.97.76-.62,0-1.15-.14-1.61-.43-.46-.29-.81-.69-1.07-1.22-.26-.52-.39-1.13-.39-1.82s.13-1.32.39-1.85Z"/>
    <path class="cls-3" d="m233.4,122.61h.96l2.52-7.3,2.52,7.3h1.03l2.64-8.5h-1.11l-2.06,7.14-2.23-6.54c-.09-.27-.2-.47-.33-.6-.13-.13-.28-.2-.46-.2s-.34.07-.46.2c-.13.13-.23.33-.33.6l-2.23,6.54-2.06-7.14h-1.11l2.64,8.5h.07Z"/>
    <path class="cls-3" d="m248.22,122.81c.65,0,1.21-.08,1.68-.25.47-.16.87-.35,1.2-.55v-.92c-.49.26-.97.45-1.45.58-.47.12-.93.19-1.38.19-.69,0-1.26-.14-1.73-.41-.47-.27-.83-.66-1.07-1.17-.24-.49-.35-1.08-.36-1.75.52.1,1.03.19,1.52.23.65.06,1.26.07,1.82,0,.57-.06,1.06-.18,1.48-.36.42-.18.75-.43.99-.75.23-.32.35-.7.35-1.16,0-.48-.13-.91-.39-1.31-.26-.4-.62-.71-1.09-.94-.47-.23-1.02-.35-1.64-.35-.79,0-1.49.19-2.12.58-.62.39-1.11.92-1.46,1.62-.35.69-.53,1.5-.53,2.43,0,1.34.37,2.39,1.1,3.15.74.76,1.76,1.14,3.07,1.14Zm-2.72-6.31c.26-.54.62-.97,1.08-1.27.46-.3.98-.45,1.58-.45.66,0,1.17.17,1.52.5.35.33.53.72.53,1.15s-.17.78-.5,1.01-.77.39-1.32.46c-.55.07-1.15.09-1.81.03-.47-.04-.94-.11-1.42-.19.06-.45.15-.88.33-1.24Z"/>
    <path class="cls-3" d="m261.98,122.49c.45-.21.78-.51.99-.88.21-.37.32-.77.32-1.2,0-.52-.12-.94-.36-1.25-.24-.31-.55-.56-.92-.74s-.78-.33-1.2-.45-.82-.24-1.2-.37c-.38-.13-.69-.3-.93-.51-.24-.21-.36-.5-.36-.86s.15-.71.46-1.02c.31-.31.81-.46,1.49-.46.43,0,.77.06,1.02.18s.44.25.57.41c.14.15.26.29.36.41.1.12.23.18.39.18.11,0,.21-.04.28-.12.07-.08.11-.19.11-.34,0-.27-.12-.53-.35-.76-.23-.24-.56-.43-.97-.58-.41-.15-.88-.22-1.42-.22-.65,0-1.2.11-1.64.33-.44.22-.77.52-.98.89-.22.37-.33.78-.33,1.22,0,.49.12.88.36,1.18.24.3.55.54.92.71s.78.31,1.2.43c.42.12.82.25,1.2.38s.69.31.92.54c.24.22.36.52.36.89,0,.4-.16.74-.49,1.04-.33.29-.85.44-1.58.44-.51,0-1.02-.09-1.52-.26s-.98-.44-1.45-.81v1.04c.29.24.68.45,1.18.62s1.09.26,1.76.26c.73,0,1.32-.11,1.77-.32Z"/>
    <path class="cls-3" d="m265.24,115.02h.84v5.36c0,.86.19,1.48.56,1.86.37.38.88.57,1.53.57.3,0,.56-.03.8-.09.23-.06.47-.14.71-.25v-.92c-.24.09-.47.17-.68.22-.21.06-.43.08-.66.08-.42,0-.73-.12-.93-.36s-.3-.64-.3-1.21v-5.27h2.91v-.92h-2.91v-1.43l-1.92,1.31c-.16.11-.28.22-.36.32-.08.1-.12.21-.12.32,0,.1.04.19.12.27.08.08.22.12.41.12Z"/>
    <path class="cls-3" d="m276.47,117.27c-.19.15-.6.29-1.24.43l-1.44.31c-.83.18-1.46.47-1.88.86-.42.39-.62.92-.62,1.57,0,.76.25,1.35.74,1.76.49.41,1.12.62,1.9.62.66,0,1.29-.17,1.88-.52.48-.28.84-.73,1.09-1.31.01.28.02.56.08.84.06.35.13.61.21.79h1.03c-.11-.25-.21-.58-.3-1-.09-.41-.13-.86-.13-1.35v-3.74c0-.65-.13-1.16-.4-1.55-.27-.38-.63-.66-1.09-.82-.46-.17-.98-.25-1.56-.25-1.21,0-2.12.32-2.74.97-.15.16-.25.31-.31.44-.06.14-.09.25-.09.36,0,.14.04.24.12.31.08.07.18.1.29.1.17,0,.31-.06.43-.19.11-.12.25-.27.41-.44.16-.17.39-.32.68-.44.29-.12.69-.19,1.21-.19.58,0,1.06.12,1.45.36.38.24.57.69.57,1.34v.07c0,.31-.09.53-.28.68Zm-1.1,4.38c-.41.21-.83.31-1.28.31-.51,0-.93-.14-1.24-.42-.31-.28-.47-.66-.47-1.15s.15-.85.46-1.1c.31-.24.71-.42,1.2-.52l1.37-.29c.4-.09.7-.18.9-.28s.35-.2.44-.3v1.38c0,.56-.13,1.04-.39,1.44-.26.4-.59.71-.99.92Z"/>
    <path class="cls-3" d="m281.96,124.32c-.26.39-.5.66-.72.8s-.42.21-.62.21c-.17,0-.32-.03-.45-.09s-.26-.08-.41-.08c-.13,0-.23.03-.31.1-.08.07-.12.16-.12.29,0,.16.06.29.18.38.12.1.27.17.46.21.19.04.38.07.57.07.65,0,1.21-.24,1.69-.73.47-.49.94-1.29,1.41-2.4l.2-.48h0l3.6-8.5h-1.11l-3,7.33-3-7.33h-1.11l3.6,8.5c-.32.75-.61,1.32-.87,1.71Z"/>
    <path class="cls-3" d="m294.6,122.28c.6.36,1.3.54,2.09.54s1.54-.19,2.16-.57c.62-.38,1.1-.91,1.45-1.6.35-.69.52-1.48.52-2.39s-.17-1.67-.51-2.31c-.34-.65-.82-1.15-1.42-1.5-.61-.36-1.3-.54-2.09-.54s-1.53.19-2.15.57c-.62.38-1.11.91-1.46,1.59-.35.68-.52,1.48-.52,2.4s.17,1.65.51,2.3c.34.65.82,1.16,1.42,1.51Zm-.47-5.8c.27-.54.63-.96,1.1-1.25.46-.29.98-.44,1.57-.44s1.08.14,1.52.42.8.69,1.05,1.22.39,1.15.39,1.88-.13,1.38-.4,1.92c-.27.54-.63.96-1.1,1.26-.46.29-.98.44-1.57.44s-1.06-.14-1.52-.42-.8-.69-1.06-1.22c-.26-.53-.39-1.15-.39-1.88s.13-1.39.4-1.93Z"/>
    <path class="cls-3" d="m304.22,117.59c0-.63.13-1.15.39-1.56.26-.4.59-.7.99-.89.41-.19.83-.29,1.28-.29.41,0,.8.09,1.16.26.36.18.65.45.87.83.22.38.33.88.33,1.5v5.15h1.03v-5.2c0-.81-.14-1.47-.43-1.98-.29-.52-.67-.9-1.14-1.15-.47-.25-.98-.37-1.53-.37-.42,0-.85.08-1.29.24s-.84.41-1.2.76c-.16.16-.31.34-.44.54v-1.33h-1.03v8.5h1.03v-5.02Z"/>
    <path class="cls-3" d="m317.89,112.34c.25,0,.44-.07.57-.22.13-.15.19-.32.19-.53s-.06-.38-.19-.53c-.13-.15-.31-.22-.57-.22s-.44.07-.57.22c-.13.15-.19.32-.19.53s.06.38.19.53c.13.15.31.22.57.22Z"/>
    <path class="cls-3" d="m317.38,122.61h1.03v-8.5c-.34.03-.69.03-1.03,0v8.5Z"/>
    <path class="cls-3" d="m321.74,120.38c0,.86.19,1.48.56,1.86.37.38.88.57,1.53.57.3,0,.56-.03.8-.09.23-.06.47-.14.71-.25v-.92c-.24.09-.47.17-.68.22-.21.06-.43.08-.66.08-.42,0-.73-.12-.93-.36s-.3-.64-.3-1.21v-5.27h2.91v-.92h-2.91v-1.43l-1.92,1.31c-.16.11-.28.22-.36.32-.08.1-.12.21-.12.32,0,.1.04.19.12.27.08.08.22.12.41.12h.84v5.36Z"/>
    <path class="cls-3" d="m328.08,121.18c-.29,0-.5.08-.64.24-.14.16-.21.35-.21.58s.07.41.21.57c.14.17.36.25.64.25s.5-.08.64-.25c.14-.16.21-.35.21-.57,0-.23-.07-.42-.21-.58-.14-.16-.36-.24-.64-.24Z"/>
    <path class="cls-3" d="m345.18,122.61h1.13l2.6-11.57h-1.13l-2.17,10.12-2.78-6.77c-.09-.23-.22-.4-.38-.53-.16-.12-.34-.19-.53-.19s-.37.06-.53.19c-.16.12-.29.3-.38.53l-2.79,6.8-2.16-10.15h-1.13l2.6,11.57h1.13l3.25-7.72,3.25,7.72Z"/>
    <path class="cls-3" d="m357.07,122.01v-.92c-.49.26-.97.45-1.45.58-.47.12-.93.19-1.38.19-.69,0-1.26-.14-1.73-.41-.47-.27-.83-.66-1.07-1.17-.24-.49-.35-1.08-.36-1.75.52.1,1.03.19,1.52.23.65.06,1.26.07,1.82,0,.57-.06,1.06-.18,1.48-.36.42-.18.75-.43.99-.75.23-.32.35-.7.35-1.16,0-.48-.13-.91-.39-1.31-.26-.4-.62-.71-1.09-.94-.47-.23-1.02-.35-1.64-.35-.79,0-1.49.19-2.12.58-.62.39-1.11.92-1.46,1.62-.35.69-.53,1.5-.53,2.43,0,1.34.37,2.39,1.1,3.15.74.76,1.76,1.14,3.07,1.14.65,0,1.21-.08,1.68-.25.47-.16.87-.35,1.2-.55Zm-5.6-5.51c.26-.54.62-.97,1.08-1.27.46-.3.98-.45,1.58-.45.66,0,1.17.17,1.52.5.35.33.53.72.53,1.15s-.17.78-.5,1.01-.77.39-1.32.46c-.55.07-1.15.09-1.81.03-.47-.04-.94-.11-1.42-.19.06-.45.15-.88.33-1.24Z"/>
    <path class="cls-3" d="m366.22,115.14c.41-.19.83-.29,1.28-.29.62,0,1.13.2,1.55.6s.63,1.07.63,2.01v5.15h1.03v-5.02c0-.63.13-1.15.39-1.56.26-.4.59-.7.99-.89.41-.19.83-.29,1.28-.29.62,0,1.13.2,1.55.6s.63,1.07.63,2.01v5.15h1.03v-5.17c0-.81-.13-1.47-.4-1.99-.27-.52-.63-.91-1.08-1.17s-.95-.38-1.5-.38c-.42,0-.86.08-1.3.24s-.86.41-1.23.76c-.25.22-.45.51-.63.82-.04-.1-.06-.23-.12-.32-.27-.5-.63-.87-1.08-1.12-.45-.25-.95-.37-1.5-.37-.42,0-.85.08-1.28.24s-.82.41-1.17.76c-.16.16-.3.34-.43.54v-1.33h-1.03v8.5h1.03v-5.02c0-.63.13-1.15.39-1.56.26-.4.59-.7.99-.89Z"/>
    <path class="cls-3" d="m380.71,122.28c.6.36,1.3.54,2.09.54s1.54-.19,2.16-.57c.62-.38,1.1-.91,1.45-1.6.35-.69.52-1.48.52-2.39s-.17-1.67-.51-2.31c-.34-.65-.82-1.15-1.42-1.5-.61-.36-1.3-.54-2.09-.54s-1.53.19-2.15.57c-.62.38-1.11.91-1.46,1.59-.35.68-.52,1.48-.52,2.4s.17,1.65.51,2.3c.34.65.82,1.16,1.42,1.51Zm-.47-5.8c.27-.54.63-.96,1.1-1.25.46-.29.98-.44,1.57-.44s1.08.14,1.52.42.8.69,1.05,1.22.39,1.15.39,1.88-.13,1.38-.4,1.92c-.27.54-.63.96-1.1,1.26-.46.29-.98.44-1.57.44s-1.06-.14-1.52-.42-.8-.69-1.06-1.22c-.26-.53-.39-1.15-.39-1.88s.13-1.39.4-1.93Z"/>
    <path class="cls-3" d="m394.79,114.28c-.47-.25-.98-.37-1.53-.37-.42,0-.85.08-1.29.24s-.84.41-1.2.76c-.16.16-.31.34-.44.54v-1.33h-1.03v8.5h1.03v-5.02c0-.63.13-1.15.39-1.56.26-.4.59-.7.99-.89.41-.19.83-.29,1.28-.29.41,0,.8.09,1.16.26.36.18.65.45.87.83.22.38.33.88.33,1.5v5.15h1.03v-5.2c0-.81-.14-1.47-.43-1.98-.29-.52-.67-.9-1.14-1.15Z"/>
    <path class="cls-3" d="m399.12,122.61h1.03v-8.5c-.34.03-.69.03-1.03,0v8.5Z"/>
    <path class="cls-3" d="m399.63,112.34c.25,0,.44-.07.57-.22.13-.15.19-.32.19-.53s-.06-.38-.19-.53c-.13-.15-.31-.22-.57-.22s-.44.07-.57.22c-.13.15-.19.32-.19.53s.06.38.19.53c.13.15.31.22.57.22Z"/>
    <path class="cls-3" d="m402.64,115.02h.84v5.36c0,.86.19,1.48.56,1.86.37.38.88.57,1.53.57.3,0,.56-.03.8-.09.23-.06.47-.14.71-.25v-.92c-.24.09-.47.17-.68.22-.21.06-.43.08-.66.08-.42,0-.73-.12-.93-.36s-.3-.64-.3-1.21v-5.27h2.91v-.92h-2.91v-1.43l-1.92,1.31c-.16.11-.28.22-.36.32-.08.1-.12.21-.12.32,0,.1.04.19.12.27.08.08.22.12.41.12Z"/>
    <path class="cls-3" d="m415.98,120.65c.35-.69.52-1.48.52-2.39s-.17-1.67-.51-2.31c-.34-.65-.82-1.15-1.42-1.5-.61-.36-1.3-.54-2.09-.54s-1.53.19-2.15.57c-.62.38-1.11.91-1.46,1.59-.35.68-.52,1.48-.52,2.4s.17,1.65.51,2.3c.34.65.82,1.16,1.42,1.51.6.36,1.3.54,2.09.54s1.54-.19,2.16-.57c.62-.38,1.1-.91,1.45-1.6Zm-3.61,1.28c-.56,0-1.06-.14-1.52-.42s-.8-.69-1.06-1.22c-.26-.53-.39-1.15-.39-1.88s.13-1.39.4-1.93c.27-.54.63-.96,1.1-1.25.46-.29.98-.44,1.57-.44s1.08.14,1.52.42.8.69,1.05,1.22.39,1.15.39,1.88-.13,1.38-.4,1.92c-.27.54-.63.96-1.1,1.26-.46.29-.98.44-1.57.44Z"/>
    <path class="cls-3" d="m423.08,114.62c0-.15-.04-.27-.13-.37-.09-.1-.21-.18-.36-.25-.15-.06-.34-.09-.56-.09-.48,0-.95.18-1.4.54-.27.22-.52.53-.74.92v-1.26h-1.03v8.5h1.03v-5.02c0-.75.17-1.37.51-1.88.34-.5.78-.76,1.32-.76.16,0,.31.02.44.06s.27.06.4.06c.17,0,.3-.04.39-.13s.13-.2.13-.33Z"/>
    <path class="cls-3" d="m26.63,136.39c-.34-.66-.81-1.17-1.4-1.53-.59-.36-1.27-.54-2.02-.54-.8,0-1.48.21-2.06.62-.35.25-.64.58-.89.95v-1.37h-1.03v11.91h1.03v-4.81c.22.42.52.77.91,1.05.54.37,1.19.56,1.97.56s1.5-.19,2.1-.57c.6-.38,1.07-.91,1.4-1.58s.51-1.45.51-2.34-.17-1.69-.51-2.35Zm-.97,4.18c-.26.53-.61.95-1.07,1.25-.46.3-.98.45-1.58.45-.53,0-1-.12-1.41-.36-.42-.24-.75-.56-.98-.98s-.36-.88-.36-1.4v-1.53c0-.82.25-1.48.76-1.98.51-.5,1.16-.76,1.96-.76.62,0,1.15.14,1.61.43s.81.7,1.07,1.22.39,1.13.39,1.82-.13,1.3-.39,1.84Z"/>
    <path class="cls-3" d="m33.38,139.18c.57-.06,1.06-.18,1.48-.36.42-.18.75-.43.99-.75.23-.32.35-.7.35-1.16,0-.48-.13-.91-.39-1.31-.26-.4-.62-.71-1.09-.94-.47-.23-1.02-.35-1.64-.35-.79,0-1.49.19-2.12.58-.62.39-1.11.92-1.46,1.62-.35.69-.53,1.5-.53,2.43,0,1.34.37,2.39,1.1,3.15.74.76,1.76,1.14,3.07,1.14.65,0,1.21-.08,1.68-.25.47-.16.87-.35,1.2-.55v-.92c-.49.26-.97.45-1.45.58-.47.12-.93.19-1.38.19-.69,0-1.26-.14-1.73-.41-.47-.27-.83-.66-1.07-1.17-.24-.49-.35-1.08-.36-1.75.52.1,1.03.19,1.52.23.65.06,1.26.07,1.82,0Zm-3.28-1.02c.06-.45.15-.88.33-1.24.26-.54.62-.97,1.08-1.27.46-.3.98-.45,1.58-.45.66,0,1.17.17,1.52.5.35.33.53.72.53,1.15s-.17.78-.5,1.01-.77.39-1.32.46c-.55.07-1.15.09-1.81.03-.47-.04-.94-.11-1.42-.19Z"/>
    <path class="cls-3" d="m38.45,134.52v8.5h1.03v-5.02c0-.75.17-1.37.51-1.88.34-.5.78-.76,1.32-.76.16,0,.31.02.44.06s.27.06.4.06c.17,0,.3-.04.39-.13s.13-.2.13-.33c0-.15-.04-.27-.13-.37-.09-.1-.21-.18-.36-.25-.15-.06-.34-.09-.56-.09-.48,0-.95.18-1.4.54-.27.22-.52.53-.74.92v-1.26h-1.03Z"/>
    <path class="cls-3" d="m46.29,143.02v-7.59h2.91v-.92h-2.91v-1.29c0-.65.16-1.1.48-1.37.32-.27.67-.4,1.06-.4.26,0,.48.04.65.11.17.07.33.11.48.11.13,0,.23-.04.3-.12.07-.08.11-.18.11-.29,0-.22-.12-.39-.36-.51s-.58-.19-1.03-.19c-.53,0-.99.1-1.4.3-.41.2-.73.49-.97.88-.23.39-.35.88-.35,1.47v1.29h-.79c-.18,0-.33.04-.43.12-.1.08-.15.19-.15.34s.05.26.15.34c.1.08.25.12.43.12h.79v7.59h1.03Z"/>
    <path class="cls-3" d="m58.28,138.67c0-.9-.17-1.67-.51-2.31-.34-.65-.82-1.15-1.42-1.5-.61-.36-1.3-.54-2.09-.54s-1.53.19-2.15.57c-.62.38-1.11.91-1.46,1.59-.35.68-.52,1.48-.52,2.4s.17,1.65.51,2.3c.34.65.82,1.16,1.42,1.51.6.36,1.3.54,2.09.54s1.54-.19,2.16-.57c.62-.38,1.1-.91,1.45-1.6.35-.69.52-1.48.52-2.39Zm-1.46,1.97c-.27.54-.63.96-1.1,1.26-.46.29-.98.44-1.57.44s-1.06-.14-1.52-.42-.8-.69-1.06-1.22c-.26-.53-.39-1.15-.39-1.88s.13-1.39.4-1.93c.27-.54.63-.96,1.1-1.25.46-.29.98-.44,1.57-.44s1.08.14,1.52.42.8.69,1.05,1.22.39,1.15.39,1.88-.13,1.38-.4,1.92Z"/>
    <path class="cls-3" d="m64.38,134.41c-.15-.06-.34-.09-.56-.09-.48,0-.95.18-1.4.54-.27.22-.52.53-.74.92v-1.26h-1.03v8.5h1.03v-5.02c0-.75.17-1.37.51-1.88.34-.5.78-.76,1.32-.76.16,0,.31.02.44.06s.27.06.4.06c.17,0,.3-.04.39-.13s.13-.2.13-.33c0-.15-.04-.27-.13-.37-.09-.1-.21-.18-.36-.25Z"/>
    <path class="cls-3" d="m77.75,135.86c.42.4.63,1.07.63,2.01v5.15h1.03v-5.17c0-.81-.13-1.47-.4-1.99-.27-.52-.63-.91-1.08-1.17s-.95-.38-1.5-.38c-.42,0-.86.08-1.3.24s-.86.41-1.23.76c-.25.22-.45.51-.63.82-.04-.1-.06-.23-.12-.32-.27-.5-.63-.87-1.08-1.12-.45-.25-.95-.37-1.5-.37-.42,0-.85.08-1.28.24s-.82.41-1.17.76c-.16.16-.3.34-.43.54v-1.33h-1.03v8.5h1.03v-5.02c0-.63.13-1.15.39-1.56.26-.4.59-.7.99-.89.41-.19.83-.29,1.28-.29.62,0,1.13.2,1.55.6s.63,1.07.63,2.01v5.15h1.03v-5.02c0-.63.13-1.15.39-1.56.26-.4.59-.7.99-.89.41-.19.83-.29,1.28-.29.62,0,1.13.2,1.55.6Z"/>
    <path class="cls-3" d="m87.22,141.39c.01.28.02.56.08.84.06.35.13.61.21.79h1.03c-.11-.25-.21-.58-.3-1-.09-.41-.13-.86-.13-1.35v-3.74c0-.65-.13-1.16-.4-1.55-.27-.38-.63-.66-1.09-.82-.46-.17-.98-.25-1.56-.25-1.21,0-2.12.32-2.74.97-.15.16-.25.31-.31.44-.06.14-.09.25-.09.36,0,.14.04.24.12.31.08.07.18.1.29.1.17,0,.31-.06.43-.19.11-.12.25-.27.41-.44.16-.17.39-.32.68-.44.29-.12.69-.19,1.21-.19.58,0,1.06.12,1.45.36.38.24.57.69.57,1.34v.07c0,.31-.09.53-.28.68-.19.15-.6.29-1.24.43l-1.44.31c-.83.18-1.46.47-1.88.86-.42.39-.62.92-.62,1.57,0,.76.25,1.35.74,1.76.49.41,1.12.62,1.9.62.66,0,1.29-.17,1.88-.52.48-.28.84-.73,1.09-1.31Zm-1.52.67c-.41.21-.83.31-1.28.31-.51,0-.93-.14-1.24-.42-.31-.28-.47-.66-.47-1.15s.15-.85.46-1.1c.31-.24.71-.42,1.2-.52l1.37-.29c.4-.09.7-.18.9-.28s.35-.2.44-.3v1.38c0,.56-.13,1.04-.39,1.44-.26.4-.59.71-.99.92Z"/>
    <path class="cls-3" d="m96.72,136.36c.22.38.33.88.33,1.5v5.15h1.03v-5.2c0-.81-.14-1.47-.43-1.98-.29-.52-.67-.9-1.14-1.15-.47-.25-.98-.37-1.53-.37-.42,0-.85.08-1.29.24s-.84.41-1.2.76c-.16.16-.31.34-.44.54v-1.33h-1.03v8.5h1.03v-5.02c0-.63.13-1.15.39-1.56.26-.4.59-.7.99-.89.41-.19.83-.29,1.28-.29.41,0,.8.09,1.16.26.36.18.65.45.87.83Z"/>
    <path class="cls-3" d="m104.38,135.2c.45,0,.79.07,1.04.2.25.13.44.28.58.44.14.16.27.31.39.44.11.13.26.2.45.2.13,0,.23-.04.32-.12.09-.08.13-.19.13-.34,0-.25-.12-.5-.36-.75-.23-.25-.55-.47-.98-.66-.42-.19-.94-.29-1.54-.29-.81,0-1.52.19-2.14.57-.62.38-1.1.91-1.45,1.6-.35.69-.52,1.48-.52,2.39,0,1.34.37,2.4,1.12,3.18.75.78,1.77,1.17,3.06,1.17.63,0,1.15-.08,1.58-.25.42-.16.79-.35,1.1-.55v-.92c-.46.26-.9.45-1.33.58s-.86.19-1.29.19c-.65,0-1.21-.14-1.68-.41-.47-.27-.83-.67-1.08-1.18-.25-.52-.38-1.14-.38-1.88,0-1.09.27-1.96.8-2.62.53-.66,1.26-.99,2.2-.99Z"/>
    <path class="cls-3" d="m113.09,139.18c.57-.06,1.06-.18,1.48-.36.42-.18.75-.43.99-.75.23-.32.35-.7.35-1.16,0-.48-.13-.91-.39-1.31-.26-.4-.62-.71-1.09-.94-.47-.23-1.02-.35-1.64-.35-.79,0-1.49.19-2.12.58-.62.39-1.11.92-1.46,1.62-.35.69-.53,1.5-.53,2.43,0,1.34.37,2.39,1.1,3.15.74.76,1.76,1.14,3.07,1.14.65,0,1.21-.08,1.68-.25.47-.16.87-.35,1.2-.55v-.92c-.49.26-.97.45-1.45.58-.47.12-.93.19-1.38.19-.69,0-1.26-.14-1.73-.41-.47-.27-.83-.66-1.07-1.17-.24-.49-.35-1.08-.36-1.75.52.1,1.03.19,1.52.23.65.06,1.26.07,1.82,0Zm-3.28-1.02c.06-.45.15-.88.33-1.24.26-.54.62-.97,1.08-1.27.46-.3.98-.45,1.58-.45.66,0,1.17.17,1.52.5.35.33.53.72.53,1.15s-.17.78-.5,1.01-.77.39-1.32.46c-.55.07-1.15.09-1.81.03-.47-.04-.94-.11-1.42-.19Z"/>
    <path class="cls-3" d="m118.8,141.59c-.29,0-.5.08-.64.24-.14.16-.21.35-.21.58s.07.41.21.57c.08.1.2.16.34.2,0,.25-.03.5-.08.74-.09.39-.24.82-.47,1.28h.65c.3-.37.55-.82.75-1.35s.31-1.01.31-1.44c0-.23-.07-.42-.21-.58-.14-.16-.36-.24-.64-.24Z"/>
    <path class="cls-3" d="m131.81,142.98c.42-.16.79-.35,1.1-.55v-.92c-.46.26-.9.45-1.33.58s-.86.19-1.29.19c-.65,0-1.21-.14-1.68-.41-.47-.27-.83-.67-1.08-1.18-.25-.52-.38-1.14-.38-1.88,0-1.09.27-1.96.8-2.62.53-.66,1.26-.99,2.2-.99.45,0,.79.07,1.04.2.25.13.44.28.58.44.14.16.27.31.39.44.11.13.26.2.45.2.13,0,.23-.04.32-.12.09-.08.13-.19.13-.34,0-.25-.12-.5-.36-.75-.23-.25-.55-.47-.98-.66-.42-.19-.94-.29-1.54-.29-.81,0-1.52.19-2.14.57-.62.38-1.1.91-1.45,1.6-.35.69-.52,1.48-.52,2.39,0,1.34.37,2.4,1.12,3.18.75.78,1.77,1.17,3.06,1.17.63,0,1.15-.08,1.58-.25Z"/>
    <path class="cls-3" d="m140.68,134.85c-.61-.36-1.3-.54-2.09-.54s-1.53.19-2.15.57c-.62.38-1.11.91-1.46,1.59-.35.68-.52,1.48-.52,2.4s.17,1.65.51,2.3c.34.65.82,1.16,1.42,1.51.6.36,1.3.54,2.09.54s1.54-.19,2.16-.57c.62-.38,1.1-.91,1.45-1.6.35-.69.52-1.48.52-2.39s-.17-1.67-.51-2.31c-.34-.65-.82-1.15-1.42-1.5Zm.47,5.79c-.27.54-.63.96-1.1,1.26-.46.29-.98.44-1.57.44s-1.06-.14-1.52-.42-.8-.69-1.06-1.22c-.26-.53-.39-1.15-.39-1.88s.13-1.39.4-1.93c.27-.54.63-.96,1.1-1.25.46-.29.98-.44,1.57-.44s1.08.14,1.52.42.8.69,1.05,1.22.39,1.15.39,1.88-.13,1.38-.4,1.92Z"/>
    <path class="cls-3" d="m147.73,142.99v-.85c-.15.05-.29.08-.41.1s-.26.03-.39.03c-.32,0-.55-.08-.69-.26-.14-.17-.21-.49-.21-.95v-10.29h-1.03v10.41c0,.59.13,1.08.39,1.46.26.38.69.58,1.31.58.37,0,.71-.08,1.04-.24Z"/>
    <path class="cls-3" d="m151.58,142.27c-.32,0-.55-.08-.69-.26-.14-.17-.21-.49-.21-.95v-10.29h-1.03v10.41c0,.59.13,1.08.39,1.46.26.38.69.58,1.31.58.37,0,.71-.08,1.04-.24v-.85c-.15.05-.29.08-.41.1s-.26.03-.39.03Z"/>
    <path class="cls-3" d="m159.4,142.98c.47-.16.87-.35,1.2-.55v-.92c-.49.26-.97.45-1.45.58-.47.12-.93.19-1.38.19-.69,0-1.26-.14-1.73-.41-.47-.27-.83-.66-1.07-1.17-.24-.49-.35-1.08-.36-1.75.52.1,1.03.19,1.52.23.65.06,1.26.07,1.82,0,.57-.06,1.06-.18,1.48-.36.42-.18.75-.43.99-.75.23-.32.35-.7.35-1.16,0-.48-.13-.91-.39-1.31-.26-.4-.62-.71-1.09-.94-.47-.23-1.02-.35-1.64-.35-.79,0-1.49.19-2.12.58-.62.39-1.11.92-1.46,1.62-.35.69-.53,1.5-.53,2.43,0,1.34.37,2.39,1.1,3.15.74.76,1.76,1.14,3.07,1.14.65,0,1.21-.08,1.68-.25Zm-4.4-6.06c.26-.54.62-.97,1.08-1.27.46-.3.98-.45,1.58-.45.66,0,1.17.17,1.52.5.35.33.53.72.53,1.15s-.17.78-.5,1.01-.77.39-1.32.46c-.55.07-1.15.09-1.81.03-.47-.04-.94-.11-1.42-.19.06-.45.15-.88.33-1.24Z"/>
    <path class="cls-3" d="m166.64,143.22c.63,0,1.15-.08,1.58-.25.42-.16.79-.35,1.1-.55v-.92c-.46.26-.9.45-1.33.58s-.86.19-1.29.19c-.65,0-1.21-.14-1.68-.41-.47-.27-.83-.67-1.08-1.18-.25-.52-.38-1.14-.38-1.88,0-1.09.27-1.96.8-2.62.53-.66,1.26-.99,2.2-.99.45,0,.79.07,1.04.2.25.13.44.28.58.44.14.16.27.31.39.44.11.13.26.2.45.2.13,0,.23-.04.32-.12.09-.08.13-.19.13-.34,0-.25-.12-.5-.36-.75-.23-.25-.55-.47-.98-.66-.42-.19-.94-.29-1.54-.29-.81,0-1.52.19-2.14.57-.62.38-1.1.91-1.45,1.6-.35.69-.52,1.48-.52,2.39,0,1.34.37,2.4,1.12,3.18.75.78,1.77,1.17,3.06,1.17Z"/>
    <path class="cls-3" d="m175.09,143.13c.23-.06.47-.14.71-.25v-.92c-.24.09-.47.17-.68.22-.21.06-.43.08-.66.08-.42,0-.73-.12-.93-.36s-.3-.64-.3-1.21v-5.27h2.91v-.92h-2.91v-1.43l-1.92,1.31c-.16.11-.28.22-.36.32-.08.1-.12.21-.12.32,0,.1.04.19.12.27.08.08.22.12.41.12h.84v5.36c0,.86.19,1.48.56,1.86.37.38.88.57,1.53.57.3,0,.56-.03.8-.09Z"/>
    <path class="cls-3" d="m186.25,135.43v-.92h-2.91v-1.29c0-.65.16-1.1.48-1.37.32-.27.67-.4,1.06-.4.26,0,.48.04.65.11.17.07.33.11.48.11.13,0,.23-.04.3-.12.07-.08.11-.18.11-.29,0-.22-.12-.39-.36-.51s-.58-.19-1.03-.19c-.53,0-.99.1-1.4.3-.41.2-.73.49-.97.88-.23.39-.35.88-.35,1.47v1.29h-.79c-.18,0-.33.04-.43.12-.1.08-.15.19-.15.34s.05.26.15.34c.1.08.25.12.43.12h.79v7.59h1.03v-7.59h2.91Z"/>
    <path class="cls-3" d="m194.22,141.51c-.49.26-.97.45-1.45.58-.47.12-.93.19-1.38.19-.69,0-1.26-.14-1.73-.41-.47-.27-.83-.66-1.07-1.17-.24-.49-.35-1.08-.36-1.75.52.1,1.03.19,1.52.23.65.06,1.26.07,1.82,0,.57-.06,1.06-.18,1.48-.36.42-.18.75-.43.99-.75.23-.32.35-.7.35-1.16,0-.48-.13-.91-.39-1.31-.26-.4-.62-.71-1.09-.94-.47-.23-1.02-.35-1.64-.35-.79,0-1.49.19-2.12.58-.62.39-1.11.92-1.46,1.62-.35.69-.53,1.5-.53,2.43,0,1.34.37,2.39,1.1,3.15.74.76,1.76,1.14,3.07,1.14.65,0,1.21-.08,1.68-.25.47-.16.87-.35,1.2-.55v-.92Zm-5.6-4.59c.26-.54.62-.97,1.08-1.27.46-.3.98-.45,1.58-.45.66,0,1.17.17,1.52.5.35.33.53.72.53,1.15s-.17.78-.5,1.01-.77.39-1.32.46c-.55.07-1.15.09-1.81.03-.47-.04-.94-.11-1.42-.19.06-.45.15-.88.33-1.24Z"/>
    <path class="cls-3" d="m200.48,139.18c.57-.06,1.06-.18,1.48-.36.42-.18.75-.43.99-.75.23-.32.35-.7.35-1.16,0-.48-.13-.91-.39-1.31-.26-.4-.62-.71-1.09-.94-.47-.23-1.02-.35-1.64-.35-.79,0-1.49.19-2.12.58-.62.39-1.11.92-1.46,1.62-.35.69-.53,1.5-.53,2.43,0,1.34.37,2.39,1.1,3.15.74.76,1.76,1.14,3.07,1.14.65,0,1.21-.08,1.68-.25.47-.16.87-.35,1.2-.55v-.92c-.49.26-.97.45-1.45.58-.47.12-.93.19-1.38.19-.69,0-1.26-.14-1.73-.41-.47-.27-.83-.66-1.07-1.17-.24-.49-.35-1.08-.36-1.75.52.1,1.03.19,1.52.23.65.06,1.26.07,1.82,0Zm-3.28-1.02c.06-.45.15-.88.33-1.24.26-.54.62-.97,1.08-1.27.46-.3.98-.45,1.58-.45.66,0,1.17.17,1.52.5.35.33.53.72.53,1.15s-.17.78-.5,1.01-.77.39-1.32.46c-.55.07-1.15.09-1.81.03-.47-.04-.94-.11-1.42-.19Z"/>
    <path class="cls-3" d="m206.93,142.68c.6.36,1.27.54,2.01.54.81,0,1.5-.21,2.07-.63.35-.25.63-.57.87-.94v1.36h1.03v-12.25h-1.03v5.14c-.22-.43-.52-.78-.91-1.05-.54-.37-1.19-.55-1.97-.55s-1.48.19-2.09.57c-.61.38-1.08.9-1.41,1.57-.34.67-.51,1.45-.51,2.35s.17,1.67.51,2.34c.34.66.81,1.18,1.41,1.54Zm-.45-5.72c.26-.53.61-.94,1.07-1.24.46-.3.98-.45,1.58-.45.54,0,1.01.12,1.42.36s.74.56.98.98c.24.41.36.88.36,1.4v1.53c0,.82-.25,1.48-.75,1.98-.5.5-1.16.76-1.97.76-.62,0-1.15-.14-1.61-.43-.46-.29-.81-.69-1.07-1.22-.26-.52-.39-1.13-.39-1.82s.13-1.32.39-1.85Z"/>
    <path class="cls-3" d="m223.75,138.73c0-.91-.17-1.69-.51-2.35-.34-.66-.81-1.17-1.4-1.53-.59-.36-1.27-.54-2.02-.54-.8,0-1.48.21-2.06.62-.35.25-.64.58-.89.95v-5.11h-1.03v8.52c0,1.2.35,2.16,1.04,2.87.69.71,1.62,1.06,2.8,1.06.83,0,1.56-.19,2.17-.57.61-.38,1.08-.91,1.41-1.58.33-.67.5-1.45.5-2.34Zm-1.91,2.57c-.54.65-1.27.97-2.17.97-.83,0-1.51-.28-2.03-.83-.52-.55-.78-1.27-.78-2.14v-1.29c0-.82.25-1.48.76-1.98.51-.5,1.16-.76,1.96-.76.62,0,1.15.14,1.61.43s.81.7,1.07,1.22.39,1.13.39,1.82c0,1.07-.27,1.92-.81,2.57Z"/>
    <path class="cls-3" d="m230.69,137.68c-.19.15-.6.29-1.24.43l-1.44.31c-.83.18-1.46.47-1.88.86-.42.39-.62.92-.62,1.57,0,.76.25,1.35.74,1.76.49.41,1.12.62,1.9.62.66,0,1.29-.17,1.88-.52.48-.28.84-.73,1.09-1.31.01.28.02.56.08.84.06.35.13.61.21.79h1.03c-.11-.25-.21-.58-.3-1-.09-.41-.13-.86-.13-1.35v-3.74c0-.65-.13-1.16-.4-1.55-.27-.38-.63-.66-1.09-.82-.46-.17-.98-.25-1.56-.25-1.21,0-2.12.32-2.74.97-.15.16-.25.31-.31.44-.06.14-.09.25-.09.36,0,.14.04.24.12.31.08.07.18.1.29.1.17,0,.31-.06.43-.19.11-.12.25-.27.41-.44.16-.17.39-.32.68-.44.29-.12.69-.19,1.21-.19.58,0,1.06.12,1.45.36.38.24.57.69.57,1.34v.07c0,.31-.09.53-.28.68Zm-1.1,4.38c-.41.21-.83.31-1.28.31-.51,0-.93-.14-1.24-.42-.31-.28-.47-.66-.47-1.15s.15-.85.46-1.1c.31-.24.71-.42,1.2-.52l1.37-.29c.4-.09.7-.18.9-.28s.35-.2.44-.3v1.38c0,.56-.13,1.04-.39,1.44-.26.4-.59.71-.99.92Z"/>
    <path class="cls-3" d="m241.14,141.51c-.46.26-.9.45-1.33.58s-.86.19-1.29.19c-.65,0-1.21-.14-1.68-.41-.47-.27-.83-.67-1.08-1.18-.25-.52-.38-1.14-.38-1.88,0-1.09.27-1.96.8-2.62.53-.66,1.26-.99,2.2-.99.45,0,.79.07,1.04.2.25.13.44.28.58.44.14.16.27.31.39.44.11.13.26.2.45.2.13,0,.23-.04.32-.12.09-.08.13-.19.13-.34,0-.25-.12-.5-.36-.75-.23-.25-.55-.47-.98-.66-.42-.19-.94-.29-1.54-.29-.81,0-1.52.19-2.14.57-.62.38-1.1.91-1.45,1.6-.35.69-.52,1.48-.52,2.39,0,1.34.37,2.4,1.12,3.18.75.78,1.77,1.17,3.06,1.17.63,0,1.15-.08,1.58-.25.42-.16.79-.35,1.1-.55v-.92Z"/>
    <path class="cls-3" d="m249.99,142.17c-.33.08-.64.08-.92.02-.28-.07-.59-.25-.94-.54s-.78-.73-1.28-1.32c-.41-.48-.92-1.09-1.51-1.82l3.78-3.23c.1-.09.18-.18.24-.26.06-.08.09-.18.09-.28,0-.12-.04-.23-.11-.31s-.18-.12-.32-.12c-.11,0-.22.03-.33.09-.1.06-.23.16-.38.28l-3.97,3.48v-7.39h-1.03v12.25h1.03v-4.1c.5.61.95,1.16,1.34,1.64.49.59.92,1.08,1.31,1.46.39.39.76.67,1.12.86.36.19.73.28,1.12.28.15,0,.28-.01.4-.03.12-.02.24-.06.35-.1v-.85Z"/>
    <path class="cls-3" d="m252.18,143.91c-.09.39-.24.82-.47,1.28h.65c.3-.37.55-.82.75-1.35s.31-1.01.31-1.44c0-.23-.07-.42-.21-.58-.14-.16-.36-.24-.64-.24s-.5.08-.64.24c-.14.16-.21.35-.21.58s.07.41.21.57c.08.1.2.16.34.2,0,.25-.03.5-.08.74Z"/>
    <path class="cls-3" d="m265.5,141.39c.01.28.02.56.08.84.06.35.13.61.21.79h1.03c-.11-.25-.21-.58-.3-1-.09-.41-.13-.86-.13-1.35v-3.74c0-.65-.13-1.16-.4-1.55-.27-.38-.63-.66-1.09-.82-.46-.17-.98-.25-1.56-.25-1.21,0-2.12.32-2.74.97-.15.16-.25.31-.31.44-.06.14-.09.25-.09.36,0,.14.04.24.12.31.08.07.18.1.29.1.17,0,.31-.06.43-.19.11-.12.25-.27.41-.44.16-.17.39-.32.68-.44.29-.12.69-.19,1.21-.19.58,0,1.06.12,1.45.36.38.24.57.69.57,1.34v.07c0,.31-.09.53-.28.68-.19.15-.6.29-1.24.43l-1.44.31c-.83.18-1.46.47-1.88.86-.42.39-.62.92-.62,1.57,0,.76.25,1.35.74,1.76.49.41,1.12.62,1.9.62.66,0,1.29-.17,1.88-.52.48-.28.84-.73,1.09-1.31Zm-2.79.98c-.51,0-.93-.14-1.24-.42-.31-.28-.47-.66-.47-1.15s.15-.85.46-1.1c.31-.24.71-.42,1.2-.52l1.37-.29c.4-.09.7-.18.9-.28s.35-.2.44-.3v1.38c0,.56-.13,1.04-.39,1.44-.26.4-.59.71-.99.92s-.83.31-1.28.31Z"/>
    <path class="cls-3" d="m275,136.36c.22.38.33.88.33,1.5v5.15h1.03v-5.2c0-.81-.14-1.47-.43-1.98-.29-.52-.67-.9-1.14-1.15-.47-.25-.98-.37-1.53-.37-.42,0-.85.08-1.29.24s-.84.41-1.2.76c-.16.16-.31.34-.44.54v-1.33h-1.03v8.5h1.03v-5.02c0-.63.13-1.15.39-1.56.26-.4.59-.7.99-.89.41-.19.83-.29,1.28-.29.41,0,.8.09,1.16.26.36.18.65.45.87.83Z"/>
    <path class="cls-3" d="m285.44,141.66v1.36h1.03v-12.25h-1.03v5.14c-.22-.43-.52-.78-.91-1.05-.54-.37-1.19-.55-1.97-.55s-1.48.19-2.09.57c-.61.38-1.08.9-1.41,1.57-.34.67-.51,1.45-.51,2.35s.17,1.67.51,2.34c.34.66.81,1.18,1.41,1.54.6.36,1.27.54,2.01.54.81,0,1.5-.21,2.07-.63.35-.25.63-.57.87-.94Zm-4.33.18c-.46-.29-.81-.69-1.07-1.22-.26-.52-.39-1.13-.39-1.82s.13-1.32.39-1.85c.26-.53.61-.94,1.07-1.24.46-.3.98-.45,1.58-.45.54,0,1.01.12,1.42.36s.74.56.98.98c.24.41.36.88.36,1.4v1.53c0,.82-.25,1.48-.75,1.98-.5.5-1.16.76-1.97.76-.62,0-1.15-.14-1.61-.43Z"/>
    <path class="cls-3" d="m295.81,142.66c.54.37,1.19.56,1.97.56s1.5-.19,2.1-.57c.6-.38,1.07-.91,1.4-1.58s.51-1.45.51-2.34-.17-1.69-.51-2.35c-.34-.66-.81-1.17-1.4-1.53-.59-.36-1.27-.54-2.02-.54-.8,0-1.48.21-2.06.62-.35.25-.64.58-.89.95v-1.37h-1.03v11.91h1.03v-4.81c.22.42.52.77.91,1.05Zm-.15-6.64c.51-.5,1.16-.76,1.96-.76.62,0,1.15.14,1.61.43s.81.7,1.07,1.22.39,1.13.39,1.82-.13,1.3-.39,1.84-.61.95-1.07,1.25c-.46.3-.98.45-1.58.45-.53,0-1-.12-1.41-.36-.42-.24-.75-.56-.98-.98s-.36-.88-.36-1.4v-1.53c0-.82.25-1.48.76-1.98Z"/>
    <path class="cls-3" d="m307.48,143.22c1.03,0,1.87-.29,2.52-.88s.98-1.49.98-2.73v-5.1h-1.03v5.08c0,.9-.22,1.57-.65,2.01-.43.44-1.04.66-1.82.66s-1.37-.22-1.81-.66c-.44-.44-.66-1.11-.66-2.01v-5.08h-1.03v5.1c0,1.24.33,2.15.98,2.73s1.49.88,2.52.88Z"/>
    <path class="cls-3" d="m317.96,138.84c-.38-.18-.78-.33-1.2-.45s-.82-.24-1.2-.37c-.38-.13-.69-.3-.93-.51-.24-.21-.36-.5-.36-.86s.15-.71.46-1.02c.31-.31.81-.46,1.49-.46.43,0,.77.06,1.02.18s.44.25.57.41c.14.15.26.29.36.41.1.12.23.18.39.18.11,0,.21-.04.28-.12.07-.08.11-.19.11-.34,0-.27-.12-.53-.35-.76-.23-.24-.56-.43-.97-.58-.41-.15-.88-.22-1.42-.22-.65,0-1.2.11-1.64.33-.44.22-.77.52-.98.89-.22.37-.33.78-.33,1.22,0,.49.12.88.36,1.18.24.3.55.54.92.71s.78.31,1.2.43c.42.12.82.25,1.2.38s.69.31.92.54c.24.22.36.52.36.89,0,.4-.16.74-.49,1.04-.33.29-.85.44-1.58.44-.51,0-1.02-.09-1.52-.26s-.98-.44-1.45-.81v1.04c.29.24.68.45,1.18.62s1.09.26,1.76.26c.73,0,1.32-.11,1.77-.32.45-.21.78-.51.99-.88.21-.37.32-.77.32-1.2,0-.52-.12-.94-.36-1.25-.24-.31-.55-.56-.92-.74Z"/>
    <path class="cls-3" d="m327.04,134.69c-.47-.25-.98-.37-1.53-.37-.42,0-.85.08-1.28.24-.43.16-.83.41-1.19.76-.17.16-.32.35-.45.56v-5.09h-1.03v12.25h1.03v-5.02c0-.63.13-1.15.39-1.56.26-.4.59-.7.99-.89.41-.19.83-.29,1.28-.29.41,0,.8.09,1.16.26.36.18.65.45.87.83.22.38.33.88.33,1.5v5.15h1.03v-5.2c0-.81-.14-1.47-.43-1.98-.29-.52-.67-.9-1.14-1.15Z"/>
    <path class="cls-3" d="m335.73,143.02h1.03v-8.5c-.34.03-.69.03-1.03,0v8.5Z"/>
    <path class="cls-3" d="m336.24,131.25c-.25,0-.44.07-.57.22-.13.15-.19.32-.19.53s.06.38.19.53c.13.15.31.22.57.22s.44-.07.57-.22c.13-.15.19-.32.19-.53s-.06-.38-.19-.53c-.13-.15-.31-.22-.57-.22Z"/>
    <path class="cls-3" d="m350.98,134.7c-.45-.25-.95-.38-1.5-.38-.42,0-.86.08-1.3.24s-.86.41-1.23.76c-.25.22-.45.51-.63.82-.04-.1-.06-.23-.12-.32-.27-.5-.63-.87-1.08-1.12-.45-.25-.95-.37-1.5-.37-.42,0-.85.08-1.28.24s-.82.41-1.17.76c-.16.16-.3.34-.43.54v-1.33h-1.03v8.5h1.03v-5.02c0-.63.13-1.15.39-1.56.26-.4.59-.7.99-.89.41-.19.83-.29,1.28-.29.62,0,1.13.2,1.55.6s.63,1.07.63,2.01v5.15h1.03v-5.02c0-.63.13-1.15.39-1.56.26-.4.59-.7.99-.89.41-.19.83-.29,1.28-.29.62,0,1.13.2,1.55.6s.63,1.07.63,2.01v5.15h1.03v-5.17c0-.81-.13-1.47-.4-1.99-.27-.52-.63-.91-1.08-1.17Z"/>
    <path class="cls-3" d="m361.25,134.86c-.59-.36-1.27-.54-2.02-.54-.8,0-1.48.21-2.06.62-.35.25-.64.58-.89.95v-1.37h-1.03v11.91h1.03v-4.81c.22.42.52.77.91,1.05.54.37,1.19.56,1.97.56s1.5-.19,2.1-.57c.6-.38,1.07-.91,1.4-1.58s.51-1.45.51-2.34-.17-1.69-.51-2.35c-.34-.66-.81-1.17-1.4-1.53Zm.44,5.71c-.26.53-.61.95-1.07,1.25-.46.3-.98.45-1.58.45-.53,0-1-.12-1.41-.36-.42-.24-.75-.56-.98-.98s-.36-.88-.36-1.4v-1.53c0-.82.25-1.48.76-1.98.51-.5,1.16-.76,1.96-.76.62,0,1.15.14,1.61.43s.81.7,1.07,1.22.39,1.13.39,1.82-.13,1.3-.39,1.84Z"/>
    <path class="cls-3" d="m369.29,134.41c-.15-.06-.34-.09-.56-.09-.48,0-.95.18-1.4.54-.27.22-.52.53-.74.92v-1.26h-1.03v8.5h1.03v-5.02c0-.75.17-1.37.51-1.88.34-.5.78-.76,1.32-.76.16,0,.31.02.44.06s.27.06.4.06c.17,0,.3-.04.39-.13s.13-.2.13-.33c0-.15-.04-.27-.13-.37-.09-.1-.21-.18-.36-.25Z"/>
    <path class="cls-3" d="m376.85,134.85c-.61-.36-1.3-.54-2.09-.54s-1.53.19-2.15.57c-.62.38-1.11.91-1.46,1.59-.35.68-.52,1.48-.52,2.4s.17,1.65.51,2.3c.34.65.82,1.16,1.42,1.51.6.36,1.3.54,2.09.54s1.54-.19,2.16-.57c.62-.38,1.1-.91,1.45-1.6.35-.69.52-1.48.52-2.39s-.17-1.67-.51-2.31c-.34-.65-.82-1.15-1.42-1.5Zm.47,5.79c-.27.54-.63.96-1.1,1.26-.46.29-.98.44-1.57.44s-1.06-.14-1.52-.42-.8-.69-1.06-1.22c-.26-.53-.39-1.15-.39-1.88s.13-1.39.4-1.93c.27-.54.63-.96,1.1-1.25.46-.29.98-.44,1.57-.44s1.08.14,1.52.42.8.69,1.05,1.22.39,1.15.39,1.88-.13,1.38-.4,1.92Z"/>
    <polygon class="cls-3" points="383.77 141.85 380.78 134.52 379.66 134.52 383.26 143.02 383.29 143.02 384.25 143.02 384.29 143.02 387.88 134.52 386.77 134.52 383.77 141.85"/>
    <path class="cls-3" d="m393.13,139.18c.57-.06,1.06-.18,1.48-.36.42-.18.75-.43.99-.75.23-.32.35-.7.35-1.16,0-.48-.13-.91-.39-1.31-.26-.4-.62-.71-1.09-.94-.47-.23-1.02-.35-1.64-.35-.79,0-1.49.19-2.12.58-.62.39-1.11.92-1.46,1.62-.35.69-.53,1.5-.53,2.43,0,1.34.37,2.39,1.1,3.15.74.76,1.76,1.14,3.07,1.14.65,0,1.21-.08,1.68-.25.47-.16.87-.35,1.2-.55v-.92c-.49.26-.97.45-1.45.58-.47.12-.93.19-1.38.19-.69,0-1.26-.14-1.73-.41-.47-.27-.83-.66-1.07-1.17-.24-.49-.35-1.08-.36-1.75.52.1,1.03.19,1.52.23.65.06,1.26.07,1.82,0Zm-3.28-1.02c.06-.45.15-.88.33-1.24.26-.54.62-.97,1.08-1.27.46-.3.98-.45,1.58-.45.66,0,1.17.17,1.52.5.35.33.53.72.53,1.15s-.17.78-.5,1.01-.77.39-1.32.46c-.55.07-1.15.09-1.81.03-.47-.04-.94-.11-1.42-.19Z"/>
    <path class="cls-3" d="m409.46,134.7c-.45-.25-.95-.38-1.5-.38-.42,0-.86.08-1.3.24s-.86.41-1.23.76c-.25.22-.45.51-.63.82-.04-.1-.06-.23-.12-.32-.27-.5-.63-.87-1.08-1.12-.45-.25-.95-.37-1.5-.37-.42,0-.85.08-1.28.24s-.82.41-1.17.76c-.16.16-.3.34-.43.54v-1.33h-1.03v8.5h1.03v-5.02c0-.63.13-1.15.39-1.56.26-.4.59-.7.99-.89.41-.19.83-.29,1.28-.29.62,0,1.13.2,1.55.6s.63,1.07.63,2.01v5.15h1.03v-5.02c0-.63.13-1.15.39-1.56.26-.4.59-.7.99-.89.41-.19.83-.29,1.28-.29.62,0,1.13.2,1.55.6s.63,1.07.63,2.01v5.15h1.03v-5.17c0-.81-.13-1.47-.4-1.99-.27-.52-.63-.91-1.08-1.17Z"/>
    <path class="cls-3" d="m417.59,139.18c.57-.06,1.06-.18,1.48-.36.42-.18.75-.43.99-.75.23-.32.35-.7.35-1.16,0-.48-.13-.91-.39-1.31-.26-.4-.62-.71-1.09-.94-.47-.23-1.02-.35-1.64-.35-.79,0-1.49.19-2.12.58-.62.39-1.11.92-1.46,1.62-.35.69-.53,1.5-.53,2.43,0,1.34.37,2.39,1.1,3.15.74.76,1.76,1.14,3.07,1.14.65,0,1.21-.08,1.68-.25.47-.16.87-.35,1.2-.55v-.92c-.49.26-.97.45-1.45.58-.47.12-.93.19-1.38.19-.69,0-1.26-.14-1.73-.41-.47-.27-.83-.66-1.07-1.17-.24-.49-.35-1.08-.36-1.75.52.1,1.03.19,1.52.23.65.06,1.26.07,1.82,0Zm-3.28-1.02c.06-.45.15-.88.33-1.24.26-.54.62-.97,1.08-1.27.46-.3.98-.45,1.58-.45.66,0,1.17.17,1.52.5.35.33.53.72.53,1.15s-.17.78-.5,1.01-.77.39-1.32.46c-.55.07-1.15.09-1.81.03-.47-.04-.94-.11-1.42-.19Z"/>
    <path class="cls-3" d="m428.15,134.69c-.47-.25-.98-.37-1.53-.37-.42,0-.85.08-1.29.24s-.84.41-1.2.76c-.16.16-.31.34-.44.54v-1.33h-1.03v8.5h1.03v-5.02c0-.63.13-1.15.39-1.56.26-.4.59-.7.99-.89.41-.19.83-.29,1.28-.29.41,0,.8.09,1.16.26.36.18.65.45.87.83.22.38.33.88.33,1.5v5.15h1.03v-5.2c0-.81-.14-1.47-.43-1.98-.29-.52-.67-.9-1.14-1.15Z"/>
    <path class="cls-3" d="m433.69,133.09l-1.92,1.31c-.16.11-.28.22-.36.32-.08.1-.12.21-.12.32,0,.1.04.19.12.27.08.08.22.12.41.12h.84v5.36c0,.86.19,1.48.56,1.86.37.38.88.57,1.53.57.3,0,.56-.03.8-.09.23-.06.47-.14.71-.25v-.92c-.24.09-.47.17-.68.22-.21.06-.43.08-.66.08-.42,0-.73-.12-.93-.36s-.3-.64-.3-1.21v-5.27h2.91v-.92h-2.91v-1.43Z"/>
    <path class="cls-3" d="m443.63,139.58c-.24-.31-.55-.56-.92-.74s-.78-.33-1.2-.45-.82-.24-1.2-.37c-.38-.13-.69-.3-.93-.51-.24-.21-.36-.5-.36-.86s.15-.71.46-1.02c.31-.31.81-.46,1.49-.46.43,0,.77.06,1.02.18s.44.25.57.41c.14.15.26.29.36.41.1.12.23.18.39.18.11,0,.21-.04.28-.12.07-.08.11-.19.11-.34,0-.27-.12-.53-.35-.76-.23-.24-.56-.43-.97-.58-.41-.15-.88-.22-1.42-.22-.65,0-1.2.11-1.64.33-.44.22-.77.52-.98.89-.22.37-.33.78-.33,1.22,0,.49.12.88.36,1.18.24.3.55.54.92.71s.78.31,1.2.43c.42.12.82.25,1.2.38s.69.31.92.54c.24.22.36.52.36.89,0,.4-.16.74-.49,1.04-.33.29-.85.44-1.58.44-.51,0-1.02-.09-1.52-.26s-.98-.44-1.45-.81v1.04c.29.24.68.45,1.18.62s1.09.26,1.76.26c.73,0,1.32-.11,1.77-.32.45-.21.78-.51.99-.88.21-.37.32-.77.32-1.2,0-.52-.12-.94-.36-1.25Z"/>
    <path class="cls-3" d="m24.17,155.01c-.42-.19-.94-.29-1.54-.29-.81,0-1.52.19-2.14.57-.62.38-1.1.91-1.45,1.6-.35.69-.52,1.48-.52,2.39,0,1.34.37,2.4,1.12,3.18.75.78,1.77,1.17,3.06,1.17.63,0,1.15-.08,1.58-.25.42-.16.79-.35,1.1-.55v-.92c-.46.26-.9.45-1.33.58s-.86.19-1.29.19c-.65,0-1.21-.14-1.68-.41-.47-.27-.83-.67-1.08-1.18-.25-.52-.38-1.14-.38-1.88,0-1.09.27-1.96.8-2.62.53-.66,1.26-.99,2.2-.99.45,0,.79.07,1.04.2.25.13.44.28.58.44.14.16.27.31.39.44.11.13.26.2.45.2.13,0,.23-.04.32-.12.09-.08.13-.19.13-.34,0-.25-.12-.5-.36-.75-.23-.25-.55-.47-.98-.66Z"/>
    <path class="cls-3" d="m33.14,155.26c-.61-.36-1.3-.54-2.09-.54s-1.53.19-2.15.57c-.62.38-1.11.91-1.46,1.59-.35.68-.52,1.48-.52,2.4s.17,1.65.51,2.3c.34.65.82,1.16,1.42,1.51.6.36,1.3.54,2.09.54s1.54-.19,2.16-.57c.62-.38,1.1-.91,1.45-1.6.35-.69.52-1.48.52-2.39s-.17-1.67-.51-2.31c-.34-.65-.82-1.15-1.42-1.5Zm.47,5.79c-.27.54-.63.96-1.1,1.26-.46.29-.98.44-1.57.44s-1.06-.14-1.52-.42-.8-.69-1.06-1.22c-.26-.53-.39-1.15-.39-1.88s.13-1.39.4-1.93c.27-.54.63-.96,1.1-1.25.46-.29.98-.44,1.57-.44s1.08.14,1.52.42.8.69,1.05,1.22.39,1.15.39,1.88-.13,1.38-.4,1.92Z"/>
    <path class="cls-3" d="m42.93,155.1c-.47-.25-.98-.37-1.53-.37-.42,0-.85.08-1.29.24s-.84.41-1.2.76c-.16.16-.31.34-.44.54v-1.33h-1.03v8.5h1.03v-5.02c0-.63.13-1.15.39-1.56.26-.4.59-.7.99-.89.41-.19.83-.29,1.28-.29.41,0,.8.09,1.16.26.36.18.65.45.87.83.22.38.33.88.33,1.5v5.15h1.03v-5.2c0-.81-.14-1.47-.43-1.98-.29-.52-.67-.9-1.14-1.15Z"/>
    <path class="cls-3" d="m48.47,153.5l-1.92,1.31c-.16.11-.28.22-.36.32-.08.1-.12.21-.12.32,0,.1.04.19.12.27.08.08.22.12.41.12h.84v5.36c0,.86.19,1.48.56,1.86.37.38.88.57,1.53.57.3,0,.56-.03.8-.09.23-.06.47-.14.71-.25v-.92c-.24.09-.47.17-.68.22-.21.06-.43.08-.66.08-.42,0-.73-.12-.93-.36s-.3-.64-.3-1.21v-5.27h2.91v-.92h-2.91v-1.43Z"/>
    <path class="cls-3" d="m53.69,151.66c-.25,0-.44.07-.57.22-.13.15-.19.32-.19.53s.06.38.19.53c.13.15.31.22.57.22s.44-.07.57-.22c.13-.15.19-.32.19-.53s-.06-.38-.19-.53c-.13-.15-.31-.22-.57-.22Z"/>
    <path class="cls-3" d="m53.18,163.43h1.03v-8.5c-.34.03-.69.03-1.03,0v8.5Z"/>
    <path class="cls-3" d="m62.65,155.1c-.47-.25-.98-.37-1.53-.37-.42,0-.85.08-1.29.24s-.84.41-1.2.76c-.16.16-.31.34-.44.54v-1.33h-1.03v8.5h1.03v-5.02c0-.63.13-1.15.39-1.56.26-.4.59-.7.99-.89.41-.19.83-.29,1.28-.29.41,0,.8.09,1.16.26.36.18.65.45.87.83.22.38.33.88.33,1.5v5.15h1.03v-5.2c0-.81-.14-1.47-.43-1.98-.29-.52-.67-.9-1.14-1.15Z"/>
    <path class="cls-3" d="m72.78,160.01c0,.9-.22,1.57-.65,2.01-.43.44-1.04.66-1.82.66s-1.37-.22-1.81-.66c-.44-.44-.66-1.11-.66-2.01v-5.08h-1.03v5.1c0,1.24.33,2.15.98,2.73s1.49.88,2.52.88,1.87-.29,2.52-.88.98-1.49.98-2.73v-5.1h-1.03v5.08Z"/>
    <path class="cls-3" d="m82.23,155.26c-.61-.36-1.3-.54-2.09-.54s-1.53.19-2.15.57c-.62.38-1.11.91-1.46,1.59-.35.68-.52,1.48-.52,2.4s.17,1.65.51,2.3c.34.65.82,1.16,1.42,1.51.6.36,1.3.54,2.09.54s1.54-.19,2.16-.57c.62-.38,1.1-.91,1.45-1.6.35-.69.52-1.48.52-2.39s-.17-1.67-.51-2.31c-.34-.65-.82-1.15-1.42-1.5Zm.47,5.79c-.27.54-.63.96-1.1,1.26-.46.29-.98.44-1.57.44s-1.06-.14-1.52-.42-.8-.69-1.06-1.22c-.26-.53-.39-1.15-.39-1.88s.13-1.39.4-1.93c.27-.54.63-.96,1.1-1.25.46-.29.98-.44,1.57-.44s1.08.14,1.52.42.8.69,1.05,1.22.39,1.15.39,1.88-.13,1.38-.4,1.92Z"/>
    <path class="cls-3" d="m92.3,160.01c0,.9-.22,1.57-.65,2.01-.43.44-1.04.66-1.82.66s-1.37-.22-1.81-.66c-.44-.44-.66-1.11-.66-2.01v-5.08h-1.03v5.1c0,1.24.33,2.15.98,2.73s1.49.88,2.52.88,1.87-.29,2.52-.88.98-1.49.98-2.73v-5.1h-1.03v5.08Z"/>
    <path class="cls-3" d="m100.32,159.25c-.38-.18-.78-.33-1.2-.45s-.82-.24-1.2-.37c-.38-.13-.69-.3-.93-.51-.24-.21-.36-.5-.36-.86s.15-.71.46-1.02c.31-.31.81-.46,1.49-.46.43,0,.77.06,1.02.18s.44.25.57.41c.14.15.26.29.36.41.1.12.23.18.39.18.11,0,.21-.04.28-.12.07-.08.11-.19.11-.34,0-.27-.12-.53-.35-.76-.23-.24-.56-.43-.97-.58-.41-.15-.88-.22-1.42-.22-.65,0-1.2.11-1.64.33-.44.22-.77.52-.98.89-.22.37-.33.78-.33,1.22,0,.49.12.88.36,1.18.24.3.55.54.92.71s.78.31,1.2.43c.42.12.82.25,1.2.38s.69.31.92.54c.24.22.36.52.36.89,0,.4-.16.74-.49,1.04-.33.29-.85.44-1.58.44-.51,0-1.02-.09-1.52-.26s-.98-.44-1.45-.81v1.04c.29.24.68.45,1.18.62s1.09.26,1.76.26c.73,0,1.32-.11,1.77-.32.45-.21.78-.51.99-.88.21-.37.32-.77.32-1.2,0-.52-.12-.94-.36-1.25-.24-.31-.55-.56-.92-.74Z"/>
    <path class="cls-3" d="m105.84,162.68c-.32,0-.55-.08-.69-.26-.14-.17-.21-.49-.21-.95v-10.29h-1.03v10.41c0,.59.13,1.08.39,1.46.26.38.69.58,1.31.58.37,0,.71-.08,1.04-.24v-.85c-.15.05-.29.08-.41.1s-.26.03-.39.03Z"/>
    <path class="cls-3" d="m111.11,162.26l-3-7.33h-1.11l3.6,8.5c-.32.75-.61,1.32-.87,1.71-.26.39-.5.66-.72.8s-.42.21-.62.21c-.17,0-.32-.03-.45-.09s-.26-.08-.41-.08c-.13,0-.23.03-.31.1-.08.07-.12.16-.12.29,0,.16.06.29.18.38.12.1.27.17.46.21.19.04.38.07.57.07.65,0,1.21-.24,1.69-.73.47-.49.94-1.29,1.41-2.4l.2-.48h0l3.6-8.5h-1.11l-3,7.33Z"/>
    <path class="cls-3" d="m125.31,159.25c-.38-.18-.78-.33-1.2-.45s-.82-.24-1.2-.37c-.38-.13-.69-.3-.93-.51-.24-.21-.36-.5-.36-.86s.15-.71.46-1.02c.31-.31.81-.46,1.49-.46.43,0,.77.06,1.02.18s.44.25.57.41c.14.15.26.29.36.41.1.12.23.18.39.18.11,0,.21-.04.28-.12.07-.08.11-.19.11-.34,0-.27-.12-.53-.35-.76-.23-.24-.56-.43-.97-.58-.41-.15-.88-.22-1.42-.22-.65,0-1.2.11-1.64.33-.44.22-.77.52-.98.89-.22.37-.33.78-.33,1.22,0,.49.12.88.36,1.18.24.3.55.54.92.71s.78.31,1.2.43c.42.12.82.25,1.2.38s.69.31.92.54c.24.22.36.52.36.89,0,.4-.16.74-.49,1.04-.33.29-.85.44-1.58.44-.51,0-1.02-.09-1.52-.26s-.98-.44-1.45-.81v1.04c.29.24.68.45,1.18.62s1.09.26,1.76.26c.73,0,1.32-.11,1.77-.32.45-.21.78-.51.99-.88.21-.37.32-.77.32-1.2,0-.52-.12-.94-.36-1.25-.24-.31-.55-.56-.92-.74Z"/>
    <path class="cls-3" d="m134.54,155.26c-.61-.36-1.3-.54-2.09-.54s-1.53.19-2.15.57c-.62.38-1.11.91-1.46,1.59-.35.68-.52,1.48-.52,2.4s.17,1.65.51,2.3c.34.65.82,1.16,1.42,1.51.6.36,1.3.54,2.09.54s1.54-.19,2.16-.57c.62-.38,1.1-.91,1.45-1.6.35-.69.52-1.48.52-2.39s-.17-1.67-.51-2.31c-.34-.65-.82-1.15-1.42-1.5Zm.47,5.79c-.27.54-.63.96-1.1,1.26-.46.29-.98.44-1.57.44s-1.06-.14-1.52-.42-.8-.69-1.06-1.22c-.26-.53-.39-1.15-.39-1.88s.13-1.39.4-1.93c.27-.54.63-.96,1.1-1.25.46-.29.98-.44,1.57-.44s1.08.14,1.52.42.8.69,1.05,1.22.39,1.15.39,1.88-.13,1.38-.4,1.92Z"/>
    <path class="cls-3" d="m143.16,163.43h1.03v-8.5c-.34.03-.69.03-1.03,0v8.5Z"/>
    <path class="cls-3" d="m143.67,151.66c-.25,0-.44.07-.57.22-.13.15-.19.32-.19.53s.06.38.19.53c.13.15.31.22.57.22s.44-.07.57-.22c.13-.15.19-.32.19-.53s-.06-.38-.19-.53c-.13-.15-.31-.22-.57-.22Z"/>
    <path class="cls-3" d="m148.55,153.5l-1.92,1.31c-.16.11-.28.22-.36.32-.08.1-.12.21-.12.32,0,.1.04.19.12.27.08.08.22.12.41.12h.84v5.36c0,.86.19,1.48.56,1.86.37.38.88.57,1.53.57.3,0,.56-.03.8-.09.23-.06.47-.14.71-.25v-.92c-.24.09-.47.17-.68.22-.21.06-.43.08-.66.08-.42,0-.73-.12-.93-.36s-.3-.64-.3-1.21v-5.27h2.91v-.92h-2.91v-1.43Z"/>
    <path class="cls-3" d="m163.15,162.6c-.28-.07-.59-.25-.94-.54s-.78-.73-1.28-1.32c-.41-.48-.92-1.09-1.51-1.82l3.78-3.23c.1-.09.18-.18.24-.26.06-.08.09-.18.09-.28,0-.12-.04-.23-.11-.31s-.18-.12-.32-.12c-.11,0-.22.03-.33.09-.1.06-.23.16-.38.28l-3.97,3.48v-7.39h-1.03v12.25h1.03v-4.1c.5.61.95,1.16,1.34,1.64.49.59.92,1.08,1.31,1.46.39.39.76.67,1.12.86.36.19.73.28,1.12.28.15,0,.28-.01.4-.03.12-.02.24-.06.35-.1v-.85c-.33.08-.64.08-.92.02Z"/>
    <path class="cls-3" d="m169.41,159.59c.57-.06,1.06-.18,1.48-.36.42-.18.75-.43.99-.75.23-.32.35-.7.35-1.16,0-.48-.13-.91-.39-1.31-.26-.4-.62-.71-1.09-.94-.47-.23-1.02-.35-1.64-.35-.79,0-1.49.19-2.12.58-.62.39-1.11.92-1.46,1.62-.35.69-.53,1.5-.53,2.43,0,1.34.37,2.39,1.1,3.15.74.76,1.76,1.14,3.07,1.14.65,0,1.21-.08,1.68-.25.47-.16.87-.35,1.2-.55v-.92c-.49.26-.97.45-1.45.58-.47.12-.93.19-1.38.19-.69,0-1.26-.14-1.73-.41-.47-.27-.83-.66-1.07-1.17-.24-.49-.35-1.08-.36-1.75.52.1,1.03.19,1.52.23.65.06,1.26.07,1.82,0Zm-3.28-1.02c.06-.45.15-.88.33-1.24.26-.54.62-.97,1.08-1.27.46-.3.98-.45,1.58-.45.66,0,1.17.17,1.52.5.35.33.53.72.53,1.15s-.17.78-.5,1.01-.77.39-1.32.46c-.55.07-1.15.09-1.81.03-.47-.04-.94-.11-1.42-.19Z"/>
    <path class="cls-3" d="m178.32,159.59c.57-.06,1.06-.18,1.48-.36.42-.18.75-.43.99-.75.23-.32.35-.7.35-1.16,0-.48-.13-.91-.39-1.31-.26-.4-.62-.71-1.09-.94-.47-.23-1.02-.35-1.64-.35-.79,0-1.49.19-2.12.58-.62.39-1.11.92-1.46,1.62-.35.69-.53,1.5-.53,2.43,0,1.34.37,2.39,1.1,3.15.74.76,1.76,1.14,3.07,1.14.65,0,1.21-.08,1.68-.25.47-.16.87-.35,1.2-.55v-.92c-.49.26-.97.45-1.45.58-.47.12-.93.19-1.38.19-.69,0-1.26-.14-1.73-.41-.47-.27-.83-.66-1.07-1.17-.24-.49-.35-1.08-.36-1.75.52.1,1.03.19,1.52.23.65.06,1.26.07,1.82,0Zm-3.28-1.02c.06-.45.15-.88.33-1.24.26-.54.62-.97,1.08-1.27.46-.3.98-.45,1.58-.45.66,0,1.17.17,1.52.5.35.33.53.72.53,1.15s-.17.78-.5,1.01-.77.39-1.32.46c-.55.07-1.15.09-1.81.03-.47-.04-.94-.11-1.42-.19Z"/>
    <path class="cls-3" d="m189.39,155.27c-.59-.36-1.27-.54-2.02-.54-.8,0-1.48.21-2.06.62-.35.25-.64.58-.89.95v-1.37h-1.03v11.91h1.03v-4.81c.22.42.52.77.91,1.05.54.37,1.19.56,1.97.56s1.5-.19,2.1-.57c.6-.38,1.07-.91,1.4-1.58s.51-1.45.51-2.34-.17-1.69-.51-2.35c-.34-.66-.81-1.17-1.4-1.53Zm.44,5.71c-.26.53-.61.95-1.07,1.25-.46.3-.98.45-1.58.45-.53,0-1-.12-1.41-.36-.42-.24-.75-.56-.98-.98s-.36-.88-.36-1.4v-1.53c0-.82.25-1.48.76-1.98.51-.5,1.16-.76,1.96-.76.62,0,1.15.14,1.61.43s.81.7,1.07,1.22.39,1.13.39,1.82-.13,1.3-.39,1.84Z"/>
    <path class="cls-3" d="m197.85,159.25c-.38-.18-.78-.33-1.2-.45s-.82-.24-1.2-.37c-.38-.13-.69-.3-.93-.51-.24-.21-.36-.5-.36-.86s.15-.71.46-1.02c.31-.31.81-.46,1.49-.46.43,0,.77.06,1.02.18s.44.25.57.41c.14.15.26.29.36.41.1.12.23.18.39.18.11,0,.21-.04.28-.12.07-.08.11-.19.11-.34,0-.27-.12-.53-.35-.76-.23-.24-.56-.43-.97-.58-.41-.15-.88-.22-1.42-.22-.65,0-1.2.11-1.64.33-.44.22-.77.52-.98.89-.22.37-.33.78-.33,1.22,0,.49.12.88.36,1.18.24.3.55.54.92.71s.78.31,1.2.43c.42.12.82.25,1.2.38s.69.31.92.54c.24.22.36.52.36.89,0,.4-.16.74-.49,1.04-.33.29-.85.44-1.58.44-.51,0-1.02-.09-1.52-.26s-.98-.44-1.45-.81v1.04c.29.24.68.45,1.18.62s1.09.26,1.76.26c.73,0,1.32-.11,1.77-.32.45-.21.78-.51.99-.88.21-.37.32-.77.32-1.2,0-.52-.12-.94-.36-1.25-.24-.31-.55-.56-.92-.74Z"/>
    <path class="cls-3" d="m208.85,154.72c-.67,0-1.27.12-1.8.36-.52.24-.94.57-1.23,1-.3.43-.45.94-.45,1.51,0,.85.31,1.52.93,2.01.18.14.38.26.6.36-.51.1-.91.27-1.19.52-.34.29-.51.68-.51,1.17,0,.26.06.51.19.76.13.24.35.44.66.6s.76.23,1.34.23h2.62c.78,0,1.31.11,1.59.34.29.23.43.52.43.88,0,.6-.29,1.03-.87,1.3-.58.27-1.31.4-2.19.4-.59,0-1.06-.04-1.4-.13-.34-.08-.61-.19-.8-.31-.19-.12-.35-.22-.48-.31s-.28-.13-.44-.13c-.15,0-.26.04-.33.13-.07.08-.11.18-.11.3s.03.22.1.32c.07.1.17.2.29.29.29.21.7.39,1.23.52.54.13,1.18.2,1.92.2,1.36,0,2.38-.22,3.06-.67.68-.45,1.02-1.1,1.02-1.95,0-.76-.25-1.31-.76-1.64-.51-.33-1.18-.5-2.03-.5h-2.6c-.53,0-.9-.06-1.12-.18s-.33-.31-.33-.59c0-.18.06-.36.19-.54s.37-.33.74-.45c.37-.12.9-.18,1.61-.18s1.31-.12,1.83-.35c.52-.23.94-.56,1.23-.99.3-.42.45-.92.45-1.49,0-.29-.05-.58-.14-.84-.09-.27-.24-.51-.44-.73-.08-.09-.18-.17-.29-.25.26.04.51.08.71.1.38.04.82.06,1.31.06v-.92c-.77,0-1.52-.03-2.25-.1-.74-.07-1.5-.1-2.29-.1Zm1.69,4.23c-.46.33-1.06.5-1.79.5s-1.27-.16-1.71-.48-.67-.79-.67-1.41.23-1.12.69-1.45c.46-.33,1.05-.5,1.77-.5s1.28.16,1.73.48.67.79.67,1.41-.23,1.12-.69,1.45Z"/>
    <path class="cls-3" d="m218.81,159.59c.57-.06,1.06-.18,1.48-.36.42-.18.75-.43.99-.75.23-.32.35-.7.35-1.16,0-.48-.13-.91-.39-1.31-.26-.4-.62-.71-1.09-.94-.47-.23-1.02-.35-1.64-.35-.79,0-1.49.19-2.12.58-.62.39-1.11.92-1.46,1.62-.35.69-.53,1.5-.53,2.43,0,1.34.37,2.39,1.1,3.15.74.76,1.76,1.14,3.07,1.14.65,0,1.21-.08,1.68-.25.47-.16.87-.35,1.2-.55v-.92c-.49.26-.97.45-1.45.58-.47.12-.93.19-1.38.19-.69,0-1.26-.14-1.73-.41-.47-.27-.83-.66-1.07-1.17-.24-.49-.35-1.08-.36-1.75.52.1,1.03.19,1.52.23.65.06,1.26.07,1.82,0Zm-3.28-1.02c.06-.45.15-.88.33-1.24.26-.54.62-.97,1.08-1.27.46-.3.98-.45,1.58-.45.66,0,1.17.17,1.52.5.35.33.53.72.53,1.15s-.17.78-.5,1.01-.77.39-1.32.46c-.55.07-1.15.09-1.81.03-.47-.04-.94-.11-1.42-.19Z"/>
    <path class="cls-3" d="m225.35,153.5l-1.92,1.31c-.16.11-.28.22-.36.32-.08.1-.12.21-.12.32,0,.1.04.19.12.27.08.08.22.12.41.12h.84v5.36c0,.86.19,1.48.56,1.86.37.38.88.57,1.53.57.3,0,.56-.03.8-.09.23-.06.47-.14.71-.25v-.92c-.24.09-.47.17-.68.22-.21.06-.43.08-.66.08-.42,0-.73-.12-.93-.36s-.3-.64-.3-1.21v-5.27h2.91v-.92h-2.91v-1.43Z"/>
    <path class="cls-3" d="m231.9,153.5l-1.92,1.31c-.16.11-.28.22-.36.32-.08.1-.12.21-.12.32,0,.1.04.19.12.27.08.08.22.12.41.12h.84v5.36c0,.86.19,1.48.56,1.86.37.38.88.57,1.53.57.3,0,.56-.03.8-.09.23-.06.47-.14.71-.25v-.92c-.24.09-.47.17-.68.22-.21.06-.43.08-.66.08-.42,0-.73-.12-.93-.36s-.3-.64-.3-1.21v-5.27h2.91v-.92h-2.91v-1.43Z"/>
    <path class="cls-3" d="m236.6,163.43h1.03v-8.5c-.34.03-.69.03-1.03,0v8.5Z"/>
    <path class="cls-3" d="m237.12,151.66c-.25,0-.44.07-.57.22-.13.15-.19.32-.19.53s.06.38.19.53c.13.15.31.22.57.22s.44-.07.57-.22c.13-.15.19-.32.19-.53s-.06-.38-.19-.53c-.13-.15-.31-.22-.57-.22Z"/>
    <path class="cls-3" d="m246.08,155.1c-.47-.25-.98-.37-1.53-.37-.42,0-.85.08-1.29.24s-.84.41-1.2.76c-.16.16-.31.34-.44.54v-1.33h-1.03v8.5h1.03v-5.02c0-.63.13-1.15.39-1.56.26-.4.59-.7.99-.89.41-.19.83-.29,1.28-.29.41,0,.8.09,1.16.26.36.18.65.45.87.83.22.38.33.88.33,1.5v5.15h1.03v-5.2c0-.81-.14-1.47-.43-1.98-.29-.52-.67-.9-1.14-1.15Z"/>
    <path class="cls-3" d="m253.6,154.72c-.67,0-1.27.12-1.8.36-.52.24-.94.57-1.23,1-.3.43-.45.94-.45,1.51,0,.85.31,1.52.93,2.01.18.14.38.26.6.36-.51.1-.91.27-1.19.52-.34.29-.51.68-.51,1.17,0,.26.06.51.19.76.13.24.35.44.66.6s.76.23,1.34.23h2.62c.78,0,1.31.11,1.59.34.29.23.43.52.43.88,0,.6-.29,1.03-.87,1.3-.58.27-1.31.4-2.19.4-.59,0-1.06-.04-1.4-.13-.34-.08-.61-.19-.8-.31-.19-.12-.35-.22-.48-.31s-.28-.13-.44-.13c-.15,0-.26.04-.33.13-.07.08-.11.18-.11.3s.03.22.1.32c.07.1.17.2.29.29.29.21.7.39,1.23.52.54.13,1.18.2,1.92.2,1.36,0,2.38-.22,3.06-.67.68-.45,1.02-1.1,1.02-1.95,0-.76-.25-1.31-.76-1.64-.51-.33-1.18-.5-2.03-.5h-2.6c-.53,0-.9-.06-1.12-.18s-.33-.31-.33-.59c0-.18.06-.36.19-.54s.37-.33.74-.45c.37-.12.9-.18,1.61-.18s1.31-.12,1.83-.35c.52-.23.94-.56,1.23-.99.3-.42.45-.92.45-1.49,0-.29-.05-.58-.14-.84-.09-.27-.24-.51-.44-.73-.08-.09-.18-.17-.29-.25.26.04.51.08.71.1.38.04.82.06,1.31.06v-.92c-.77,0-1.52-.03-2.25-.1-.74-.07-1.5-.1-2.29-.1Zm1.69,4.23c-.46.33-1.06.5-1.79.5s-1.27-.16-1.71-.48-.67-.79-.67-1.41.23-1.12.69-1.45c.46-.33,1.05-.5,1.77-.5s1.28.16,1.73.48.67.79.67,1.41-.23,1.12-.69,1.45Z"/>
    <path class="cls-3" d="m270.26,155.27c-.59-.36-1.27-.54-2.02-.54-.8,0-1.48.21-2.06.62-.35.25-.64.58-.89.95v-5.11h-1.03v8.52c0,1.2.35,2.16,1.04,2.87.69.71,1.62,1.06,2.8,1.06.83,0,1.56-.19,2.17-.57.61-.38,1.08-.91,1.41-1.58.33-.67.5-1.45.5-2.34s-.17-1.69-.51-2.35c-.34-.66-.81-1.17-1.4-1.53Zm0,6.45c-.54.65-1.27.97-2.17.97-.83,0-1.51-.28-2.03-.83-.52-.55-.78-1.27-.78-2.14v-1.29c0-.82.25-1.48.76-1.98.51-.5,1.16-.76,1.96-.76.62,0,1.15.14,1.61.43s.81.7,1.07,1.22.39,1.13.39,1.82c0,1.07-.27,1.92-.81,2.57Z"/>
    <path class="cls-3" d="m278.44,159.59c.57-.06,1.06-.18,1.48-.36.42-.18.75-.43.99-.75.23-.32.35-.7.35-1.16,0-.48-.13-.91-.39-1.31-.26-.4-.62-.71-1.09-.94-.47-.23-1.02-.35-1.64-.35-.79,0-1.49.19-2.12.58-.62.39-1.11.92-1.46,1.62-.35.69-.53,1.5-.53,2.43,0,1.34.37,2.39,1.1,3.15.74.76,1.76,1.14,3.07,1.14.65,0,1.21-.08,1.68-.25.47-.16.87-.35,1.2-.55v-.92c-.49.26-.97.45-1.45.58-.47.12-.93.19-1.38.19-.69,0-1.26-.14-1.73-.41-.47-.27-.83-.66-1.07-1.17-.24-.49-.35-1.08-.36-1.75.52.1,1.03.19,1.52.23.65.06,1.26.07,1.82,0Zm-3.28-1.02c.06-.45.15-.88.33-1.24.26-.54.62-.97,1.08-1.27.46-.3.98-.45,1.58-.45.66,0,1.17.17,1.52.5.35.33.53.72.53,1.15s-.17.78-.5,1.01-.77.39-1.32.46c-.55.07-1.15.09-1.81.03-.47-.04-.94-.11-1.42-.19Z"/>
    <path class="cls-3" d="m284.99,153.5l-1.92,1.31c-.16.11-.28.22-.36.32-.08.1-.12.21-.12.32,0,.1.04.19.12.27.08.08.22.12.41.12h.84v5.36c0,.86.19,1.48.56,1.86.37.38.88.57,1.53.57.3,0,.56-.03.8-.09.23-.06.47-.14.71-.25v-.92c-.24.09-.47.17-.68.22-.21.06-.43.08-.66.08-.42,0-.73-.12-.93-.36s-.3-.64-.3-1.21v-5.27h2.91v-.92h-2.91v-1.43Z"/>
    <path class="cls-3" d="m291.53,153.5l-1.92,1.31c-.16.11-.28.22-.36.32-.08.1-.12.21-.12.32,0,.1.04.19.12.27.08.08.22.12.41.12h.84v5.36c0,.86.19,1.48.56,1.86.37.38.88.57,1.53.57.3,0,.56-.03.8-.09.23-.06.47-.14.71-.25v-.92c-.24.09-.47.17-.68.22-.21.06-.43.08-.66.08-.42,0-.73-.12-.93-.36s-.3-.64-.3-1.21v-5.27h2.91v-.92h-2.91v-1.43Z"/>
    <path class="cls-3" d="m299.76,159.59c.57-.06,1.06-.18,1.48-.36.42-.18.75-.43.99-.75.23-.32.35-.7.35-1.16,0-.48-.13-.91-.39-1.31-.26-.4-.62-.71-1.09-.94-.47-.23-1.02-.35-1.64-.35-.79,0-1.49.19-2.12.58-.62.39-1.11.92-1.46,1.62-.35.69-.53,1.5-.53,2.43,0,1.34.37,2.39,1.1,3.15.74.76,1.76,1.14,3.07,1.14.65,0,1.21-.08,1.68-.25.47-.16.87-.35,1.2-.55v-.92c-.49.26-.97.45-1.45.58-.47.12-.93.19-1.38.19-.69,0-1.26-.14-1.73-.41-.47-.27-.83-.66-1.07-1.17-.24-.49-.35-1.08-.36-1.75.52.1,1.03.19,1.52.23.65.06,1.26.07,1.82,0Zm-3.28-1.02c.06-.45.15-.88.33-1.24.26-.54.62-.97,1.08-1.27.46-.3.98-.45,1.58-.45.66,0,1.17.17,1.52.5.35.33.53.72.53,1.15s-.17.78-.5,1.01-.77.39-1.32.46c-.55.07-1.15.09-1.81.03-.47-.04-.94-.11-1.42-.19Z"/>
    <path class="cls-3" d="m308.56,154.82c-.15-.06-.34-.09-.56-.09-.48,0-.95.18-1.4.54-.27.22-.52.53-.74.92v-1.26h-1.03v8.5h1.03v-5.02c0-.75.17-1.37.51-1.88.34-.5.78-.76,1.32-.76.16,0,.31.02.44.06s.27.06.4.06c.17,0,.3-.04.39-.13s.13-.2.13-.33c0-.15-.04-.27-.13-.37-.09-.1-.21-.18-.36-.25Z"/>
    <path class="cls-3" d="m310.36,162c-.29,0-.5.08-.64.24-.14.16-.21.35-.21.58s.07.41.21.57c.14.17.36.25.64.25s.5-.08.64-.25c.14-.16.21-.35.21-.57,0-.23-.07-.42-.21-.58-.14-.16-.36-.24-.64-.24Z"/>
  </g>
  <path class="cls-2" d="m346.25,287.5c0-.06-.01-.11-.02-.16,0-.11,0-.21-.02-.31-.01-.11-.03-.23-.05-.34-.02-.11-.04-.22-.06-.33-.02-.09-.05-.18-.07-.28-.03-.11-.07-.21-.11-.32-.04-.11-.08-.22-.13-.32-.04-.1-.09-.19-.14-.28-.03-.05-.04-.1-.07-.15-.03-.05-.07-.09-.1-.13-.06-.09-.11-.18-.17-.26-.07-.09-.14-.18-.21-.27-.07-.09-.14-.17-.22-.25-.07-.07-.13-.14-.2-.2-.08-.08-.17-.15-.26-.22-.09-.07-.18-.15-.27-.21-.09-.06-.18-.12-.27-.17-.05-.03-.08-.07-.13-.1l-108.25-62.5s-.1-.04-.15-.07c-.16-.09-.33-.16-.5-.22-.14-.06-.28-.12-.42-.16-.16-.05-.32-.08-.48-.11-.16-.03-.32-.06-.48-.08-.16-.02-.32-.01-.48-.01-.16,0-.32,0-.48.01-.16.02-.32.05-.48.08-.16.03-.32.06-.48.11-.14.04-.28.1-.42.16-.17.07-.34.14-.5.23-.05.03-.1.04-.14.06l-27.06,15.62s-.09.07-.13.1c-.09.06-.18.11-.26.17-.1.07-.19.14-.28.22-.09.07-.17.14-.25.22-.07.07-.14.13-.2.2-.08.08-.15.17-.22.26-.07.09-.15.18-.21.27-.06.09-.12.17-.17.26-.03.05-.07.08-.1.13s-.04.1-.07.15c-.05.09-.1.19-.14.28-.05.1-.09.21-.13.32-.04.11-.08.21-.11.32-.03.09-.05.18-.07.28-.03.11-.05.22-.06.33-.02.11-.04.23-.05.34-.01.1-.01.21-.02.31,0,.06-.02.11-.02.16v53.84l-46.63-26.92s-.1-.04-.15-.07c-.16-.08-.32-.15-.48-.22-.15-.06-.29-.12-.44-.16-.15-.05-.31-.07-.47-.11-.16-.03-.32-.07-.48-.08-.16-.02-.32-.01-.48-.01-.16,0-.32,0-.48.01-.16.02-.32.05-.48.08-.16.03-.32.06-.47.11-.15.04-.29.1-.43.16-.17.07-.33.14-.49.22-.05.03-.1.04-.15.07l-27.06,15.62s-.09.07-.13.1c-.09.06-.18.11-.26.17-.09.07-.18.14-.27.21-.09.07-.17.14-.26.22-.07.07-.14.13-.2.2-.08.08-.15.17-.22.26-.07.09-.15.18-.21.27-.06.09-.12.17-.17.26-.03.05-.07.08-.1.13-.03.05-.04.1-.07.15-.05.09-.1.19-.14.28-.05.1-.09.21-.13.32-.04.11-.08.21-.11.32-.03.09-.05.18-.07.28-.03.11-.05.22-.06.33-.02.11-.04.23-.05.34-.01.1-.01.21-.02.31,0,.06-.02.11-.02.16v125c0,.06.01.11.02.16,0,.18.03.36.05.54.02.15.04.31.08.45.04.16.09.31.14.46.05.15.1.31.17.46.07.14.15.28.23.42.08.14.16.28.25.41.09.13.2.25.31.37.11.12.21.25.33.36.11.1.23.2.35.29.14.11.29.22.44.32.05.03.08.07.13.1l27.06,15.62s0,0,.01,0c.14.08.29.15.44.22,0,0,0,0,.01,0,.04.02.07.04.11.05.01,0,.02.01.04.02.06.03.13.04.2.07.2.07.4.13.6.18.06.01.13.03.19.04.3.05.6.09.9.09,0,0,0,0,0,0s0,0,0,0c.3,0,.6-.04.9-.09.06-.01.13-.02.19-.04.22-.05.44-.11.65-.19.05-.02.09-.03.14-.05.01,0,.02-.01.04-.02.04-.02.07-.04.11-.05.01,0,.03-.01.04-.02.14-.06.28-.13.41-.2,0,0,0,0,.01,0l46.63-26.92v53.84c0,.06.01.11.02.16,0,.18.03.36.05.54.02.15.04.31.08.45.04.16.09.31.14.46.05.15.1.31.17.46.07.14.15.28.23.42.08.14.16.28.25.41.09.13.2.25.31.37.11.12.21.25.33.36.11.1.23.2.35.29.14.11.29.22.44.32.05.03.08.07.13.1l27.06,15.62s0,0,.01,0c.14.08.29.15.44.22,0,0,0,0,.01,0,.04.02.07.04.11.05.01,0,.02.01.04.02.06.03.13.04.2.07.2.07.4.13.6.18.06.01.13.03.19.04.3.05.6.09.9.09,0,0,0,0,0,0s0,0,0,0c.3,0,.6-.04.9-.09.06-.01.13-.02.19-.04.22-.05.44-.11.65-.19.05-.02.09-.03.14-.05.01,0,.02-.01.04-.02.04-.02.07-.04.11-.05.01,0,.03-.01.04-.02.14-.06.28-.13.41-.2,0,0,0,0,.01,0l108.25-62.5s.09-.07.13-.1c.15-.1.3-.2.44-.32.12-.09.24-.19.35-.29.12-.11.22-.23.33-.36.11-.12.21-.24.31-.37.09-.13.17-.27.25-.41.08-.14.16-.27.23-.42.07-.15.12-.3.17-.46.05-.15.11-.3.14-.46.04-.15.05-.3.08-.45.03-.18.05-.36.05-.54,0-.06.02-.11.02-.16v-31.25c0-.06-.01-.11-.02-.16,0-.11,0-.21-.02-.31-.01-.11-.03-.23-.05-.34-.02-.11-.04-.22-.06-.33-.02-.09-.05-.18-.07-.28-.03-.11-.07-.21-.11-.32-.04-.11-.08-.22-.13-.32-.04-.1-.09-.19-.14-.28-.03-.05-.04-.1-.07-.15-.03-.05-.07-.09-.1-.13-.06-.09-.11-.18-.17-.27-.07-.09-.14-.18-.21-.27-.07-.09-.14-.17-.22-.26-.07-.07-.13-.14-.2-.2-.08-.08-.17-.15-.25-.22-.09-.07-.18-.15-.27-.22-.09-.06-.17-.12-.26-.17-.05-.03-.08-.07-.13-.1l-46.63-26.92,46.63-26.92s.09-.07.13-.1c.15-.1.3-.2.44-.32.12-.09.24-.19.35-.29.12-.11.22-.23.33-.36.11-.12.21-.24.31-.37.09-.13.17-.27.25-.41.08-.14.16-.27.23-.42.07-.15.12-.3.17-.46.05-.15.11-.3.14-.46.04-.15.05-.3.08-.45.03-.18.05-.36.05-.54,0-.06.02-.11.02-.16v-31.25Zm-88.69,73.79s-.09.07-.13.1c-.15.1-.3.2-.44.32-.12.09-.24.19-.35.29-.12.11-.22.23-.33.36-.11.12-.21.24-.31.37-.09.13-.17.27-.25.41-.08.14-.16.27-.23.42-.07.15-.12.3-.17.46-.05.15-.11.3-.14.46-.04.15-.05.3-.08.45-.03.18-.05.36-.05.54,0,.06-.02.11-.02.16v62.5c0,.1.02.18.03.28,0,.18.02.36.05.54.03.16.06.32.11.47.04.15.09.31.14.46.06.17.14.34.22.5.04.08.07.17.11.25.04.06.08.12.12.18.04.07.09.14.14.21.16.22.32.43.51.62.01.01.02.03.03.04.21.21.43.39.67.55.05.04.11.07.17.11.21.14.43.26.66.36.04.02.08.04.12.06.26.11.53.19.81.25.07.02.14.03.21.04.3.05.59.09.9.09s.6-.04.9-.09c.06-.01.13-.02.19-.04.28-.06.56-.14.83-.26.04-.02.07-.04.11-.05.16-.07.31-.14.47-.23l73.69-42.54v19.7l-98.25,56.73v-113.45l98.25-56.73v19.7l-78.69,45.43Zm-46.64,4.17c0-.18-.03-.36-.05-.54-.02-.15-.04-.31-.08-.45-.04-.16-.09-.31-.14-.46-.05-.15-.1-.31-.17-.46-.07-.14-.15-.28-.23-.42-.08-.14-.16-.28-.25-.41-.09-.13-.2-.25-.31-.37-.11-.12-.21-.25-.33-.36-.11-.1-.23-.2-.35-.29-.14-.11-.29-.22-.44-.32-.05-.03-.08-.07-.13-.1l-54.13-31.25c-.08-.05-.17-.07-.26-.12-.16-.08-.32-.16-.49-.22-.16-.06-.31-.1-.47-.15-.15-.04-.3-.08-.45-.1-.19-.03-.37-.05-.56-.06-.09,0-.17-.03-.26-.03-.05,0-.1.01-.15.02-.19,0-.37.03-.56.06-.15.02-.29.04-.43.07-.17.04-.32.09-.48.15-.15.05-.29.1-.44.16-.15.07-.29.15-.44.24-.13.08-.27.15-.39.24-.13.1-.26.21-.38.32-.12.1-.24.21-.35.32-.11.11-.2.23-.3.36-.11.14-.22.28-.31.44-.03.05-.07.08-.1.13-.05.08-.07.17-.11.25-.08.16-.16.33-.22.5-.06.15-.1.3-.14.46-.04.16-.08.31-.11.47-.03.18-.04.36-.05.54,0,.09-.03.18-.03.28v85.09l-17.06-9.85v-113.45l98.25,56.73v113.45l-17.06-9.85v-90.86c0-.06-.01-.11-.02-.16Zm-59.11-87.81l78.69,45.43s0,0,.01,0c.14.08.29.15.44.22.05.02.1.05.16.08.06.03.13.04.2.07.55.2,1.12.3,1.69.3,0,0,0,0,0,0s0,0,0,0c.58,0,1.17-.11,1.74-.32.05-.02.09-.03.14-.05.06-.03.12-.06.19-.09.14-.06.28-.13.41-.2,0,0,0,0,.01,0l54.08-31.22s.01,0,.02-.01h.02s.02-.03.03-.03c.25-.15.48-.32.7-.51.05-.04.1-.08.15-.13.21-.19.41-.4.59-.64.03-.04.05-.08.08-.12.1-.14.2-.27.28-.42.03-.05.04-.1.07-.15.09-.16.15-.32.22-.49.06-.14.12-.28.16-.43.05-.16.08-.31.11-.47.03-.16.07-.32.08-.48.02-.16.01-.32.01-.48,0-.16,0-.32-.01-.48-.02-.16-.05-.32-.08-.48-.03-.16-.06-.32-.11-.47-.04-.15-.1-.29-.16-.43-.07-.17-.14-.33-.22-.49-.03-.05-.04-.1-.07-.15-.05-.08-.11-.15-.16-.23-.1-.15-.2-.3-.32-.44-.1-.13-.21-.24-.33-.35-.11-.11-.23-.22-.35-.33-.14-.12-.29-.22-.44-.32-.08-.05-.14-.12-.23-.16l-73.69-42.54,17.06-9.85,98.25,56.73-98.25,56.73-98.25-56.73,17.06-9.85Zm59.13-28.36l66.19,38.21-44.13,25.48-22.06-12.74v-50.95Zm-54.13,170.18v-76.43l44.13,25.48v25.48l-44.13,25.48Zm174.44-38.21l-66.19,38.21v-50.95l22.06-12.74,44.13,25.48Z"/>
</svg>